<?xml version="1.0" encoding="UTF-8"?>
<svg width="22px" height="15px" viewBox="0 0 22 15" version="1.1" xmlns="http://www.w3.org/2000/svg" xmlns:xlink="http://www.w3.org/1999/xlink">
    <!-- Generator: Sketch 52.4 (67378) - http://www.bohemiancoding.com/sketch -->
    <title>102</title>
    <desc>Created with Sketch.</desc>
    <g id="Page-1" stroke="none" stroke-width="1" fill="none" fill-rule="evenodd">
        <g id="wahlkreise_gen" transform="translate(-96.000000, -485.000000)" fill="#000000">
            <g id="102" transform="translate(96.000000, 485.000000)">
                <polyline id="Path" points="19 2 19 3 18 4 18 5 19 5 20 6 21 9 22 11 22 15 17 12 18 12 18 10 17 9 15 9 14 9 13 10 12 11 10 12 6 12 6 13 5 13 4 13 3 13 1 14 0 13 0 9 1 8 2 8 3 7 5 5 6 3 6 2 7 2 8 2 10 2 11 1 12 2 14 2 16 2 16 1 19 0 19 1 19 2"></polyline>
            </g>
        </g>
    </g>
</svg>