<?xml version="1.0" encoding="UTF-8"?>
<svg width="27px" height="17px" viewBox="0 0 27 17" version="1.1" xmlns="http://www.w3.org/2000/svg" xmlns:xlink="http://www.w3.org/1999/xlink">
    <!-- Generator: Sketch 52.4 (67378) - http://www.bohemiancoding.com/sketch -->
    <title>103</title>
    <desc>Created with Sketch.</desc>
    <g id="Page-1" stroke="none" stroke-width="1" fill="none" fill-rule="evenodd">
        <g id="wahlkreise_gen" transform="translate(-91.000000, -494.000000)" fill="#000000">
            <g id="103" transform="translate(91.000000, 494.000000)">
                <polyline id="Path" points="22 3 27 6 27 9 26 13 26 14 25 14 24 14 23 12 21 12 20 12 19 12 16 13 16 12 16 13 15 13 15 15 16 16 14 17 13 17 12 16 12 15 11 15 10 14 9 14 5 15 4 15 2 16 2 17 2 14 2 13 1 13 0 13 1 10 4 8 5 7 6 5 8 4 9 4 10 4 11 4 11 3 15 3 17 2 18 1 19 0 20 0 22 0 23 1 23 3 22 3"></polyline>
            </g>
        </g>
    </g>
</svg>