<?xml version="1.0" encoding="UTF-8"?>
<svg width="16px" height="29px" viewBox="0 0 16 29" version="1.1" xmlns="http://www.w3.org/2000/svg" xmlns:xlink="http://www.w3.org/1999/xlink">
    <!-- Generator: Sketch 52.4 (67378) - http://www.bohemiancoding.com/sketch -->
    <title>104</title>
    <desc>Created with Sketch.</desc>
    <g id="Page-1" stroke="none" stroke-width="1" fill="none" fill-rule="evenodd">
        <g id="wahlkreise_gen" transform="translate(-81.000000, -488.000000)" fill="#000000">
            <g id="104" transform="translate(81.000000, 488.000000)">
                <polyline id="Path" points="16 5 15 6 15 10 16 11 15 13 14 14 11 16 10 19 11 19 12 19 12 20 12 23 11 26 11 28 10 29 8 29 4 29 0 27 2 25 2 24 2 23 1 22 0 21 1 21 3 21 5 20 4 18 3 17 4 16 5 15 5 14 5 10 2 9 2 6 3 6 3 7 5 7 7 7 7 4 7 2 8 1 10 0 11 0 12 0 13 0 13 1 16 5"></polyline>
            </g>
        </g>
    </g>
</svg>