<?xml version="1.0" encoding="UTF-8"?>
<svg width="15px" height="13px" viewBox="0 0 15 13" version="1.1" xmlns="http://www.w3.org/2000/svg" xmlns:xlink="http://www.w3.org/1999/xlink">
    <!-- Generator: Sketch 52.4 (67378) - http://www.bohemiancoding.com/sketch -->
    <title>107</title>
    <desc>Created with Sketch.</desc>
    <g id="Page-1" stroke="none" stroke-width="1" fill="none" fill-rule="evenodd">
        <g id="wahlkreise_gen" transform="translate(-71.000000, -496.000000)" fill="#000000">
            <g id="107" transform="translate(71.000000, 496.000000)">
                <polyline id="Path" points="12 1 15 2 15 6 15 7 14 8 13 9 14 10 15 12 13 13 11 13 10 13 10 12 10 11 10 10 11 10 11 9 10 9 9 9 8 9 8 10 8 11 7 11 6 11 5 10 5 9 6 8 6 7 6 6 5 6 4 6 4 5 4 6 3 6 2 6 1 6 1 5 0 5 0 4 0 3 0 0 1 0 2 0 3 1 7 2 11 2 12 1"></polyline>
            </g>
        </g>
    </g>
</svg>