<?xml version="1.0" encoding="UTF-8"?>
<svg width="20px" height="20px" viewBox="0 0 20 20" version="1.1" xmlns="http://www.w3.org/2000/svg" xmlns:xlink="http://www.w3.org/1999/xlink">
    <!-- Generator: Sketch 52.4 (67378) - http://www.bohemiancoding.com/sketch -->
    <title>109</title>
    <desc>Created with Sketch.</desc>
    <g id="Page-1" stroke="none" stroke-width="1" fill="none" fill-rule="evenodd">
        <g id="wahlkreise_gen" transform="translate(-35.000000, -493.000000)" fill="#000000">
            <g id="109" transform="translate(35.000000, 493.000000)">
                <polyline id="Path" points="19 3 17 2 16 9 17 10 18 9 18 8 19 8 19 9 20 10 20 13 19 13 19 14 18 14 18 13 18 12 17 12 16 13 15 13 15 14 12 18 12 19 12 20 11 20 10 20 8 20 6 19 5 18 5 16 5 15 5 14 4 14 4 13 3 13 3 12 2 12 1 12 1 11 1 10 1 9 0 8 1 8 3 5 4 2 5 2 6 2 7 3 9 3 10 3 11 3 12 3 13 2 13 1 14 0 18 1 19 3"></polyline>
            </g>
        </g>
    </g>
</svg>