<?xml version="1.0" encoding="UTF-8"?>
<svg width="42px" height="48px" viewBox="0 0 42 48" version="1.1" xmlns="http://www.w3.org/2000/svg" xmlns:xlink="http://www.w3.org/1999/xlink">
    <!-- Generator: Sketch 52.4 (67378) - http://www.bohemiancoding.com/sketch -->
    <title>11</title>
    <desc>Created with Sketch.</desc>
    <g id="Page-1" stroke="none" stroke-width="1" fill="none" fill-rule="evenodd">
        <g id="wahlkreise_gen" transform="translate(-365.000000, -137.000000)" fill="#000000">
            <g id="11" transform="translate(365.000000, 137.000000)">
                <polyline id="Path" points="37 5 38 5 38 6 38 9 41 10 42 10 42 11 41 12 40 12 39 13 38 13 38 12 35 11 32 13 28 16 26 19 26 21 27 22 27 23 27 24 26 24 25 23 25 24 26 25 24 27 23 28 22 28 23 29 22 31 21 37 22 39 22 41 21 41 17 40 15 39 15 38 16 38 16 37 15 36 14 37 11 38 10 41 8 46 8 47 7 47 7 48 5 48 4 48 4 47 3 46 0 43 0 41 1 39 2 39 3 39 3 36 2 36 0 35 3 32 5 31 5 30 7 32 8 32 10 31 10 30 10 29 11 28 10 28 10 27 11 27 13 26 13 25 13 26 12 23 11 23 11 22 12 21 13 21 14 19 12 15 12 14 13 13 15 14 17 14 19 14 19 13 20 13 20 12 21 12 22 11 23 11 26 10 28 9 30 9 31 8 33 2 33 0 34 0 35 0 35 1 36 1 36 2 36 3 36 4 36 5 37 5"></polyline>
            </g>
        </g>
    </g>
</svg>