<?xml version="1.0" encoding="UTF-8"?>
<svg width="47px" height="72px" viewBox="0 0 47 72" version="1.1" xmlns="http://www.w3.org/2000/svg" xmlns:xlink="http://www.w3.org/1999/xlink">
    <!-- Generator: Sketch 52.4 (67378) - http://www.bohemiancoding.com/sketch -->
    <title>112</title>
    <desc>Created with Sketch.</desc>
    <g id="Page-1" stroke="none" stroke-width="1" fill="none" fill-rule="evenodd">
        <g id="wahlkreise_gen" transform="translate(-11.000000, -406.000000)" fill="#000000">
            <g id="112" transform="translate(11.000000, 406.000000)">
                <polyline id="Path" points="37 11 38 14 39 14 40 14 41 14 42 14 43 13 43 14 44 14 44 17 45 17 45 18 46 18 47 20 43 23 43 24 42 25 41 27 41 28 38 26 37 26 36 25 36 24 37 24 37 23 38 23 38 22 37 21 36 21 36 20 36 21 36 22 33 28 34 29 34 30 33 33 32 35 29 35 27 35 28 38 29 38 30 39 33 42 33 43 33 44 33 45 34 45 34 46 35 46 36 46 36 45 37 45 39 45 41 45 41 48 40 50 39 50 39 53 41 56 43 57 43 58 43 60 43 61 44 64 43 64 39 66 37 66 34 66 33 67 31 69 27 71 26 72 23 72 23 71 22 71 20 71 19 68 19 66 19 60 20 60 20 57 20 56 20 51 19 51 19 50 19 49 15 44 12 40 11 37 12 33 11 32 10 32 9 31 6 30 6 29 6 25 7 25 7 24 6 23 5 23 3 21 1 21 0 21 0 20 0 19 1 19 2 19 2 18 3 18 3 17 3 15 2 14 1 13 1 12 0 12 0 11 0 10 1 8 1 9 2 9 3 9 4 9 5 9 5 8 9 7 12 7 13 7 17 9 18 6 15 3 15 2 14 2 13 2 15 1 17 0 18 1 19 2 19 3 20 4 21 5 22 5 25 5 26 5 27 5 28 5 31 8 35 10 36 11 37 11"></polyline>
            </g>
        </g>
    </g>
</svg>