<?xml version="1.0" encoding="UTF-8"?>
<svg width="16px" height="26px" viewBox="0 0 16 26" version="1.1" xmlns="http://www.w3.org/2000/svg" xmlns:xlink="http://www.w3.org/1999/xlink">
    <!-- Generator: Sketch 52.4 (67378) - http://www.bohemiancoding.com/sketch -->
    <title>114</title>
    <desc>Created with Sketch.</desc>
    <g id="Page-1" stroke="none" stroke-width="1" fill="none" fill-rule="evenodd">
        <g id="wahlkreise_gen" transform="translate(-52.000000, -457.000000)" fill="#000000">
            <g id="114" transform="translate(52.000000, 457.000000)">
                <polyline id="Path" points="15 6 16 10 16 12 13 15 12 16 12 17 12 18 12 19 11 22 10 24 8 25 6 26 6 25 5 24 5 23 4 23 3 23 2 24 0 23 0 18 1 16 2 16 3 16 4 16 4 15 3 13 2 10 2 9 2 7 2 6 3 5 5 6 6 6 6 7 7 6 8 6 8 3 9 1 9 0 11 0 12 3 13 3 15 6"></polyline>
            </g>
        </g>
    </g>
</svg>