<?xml version="1.0" encoding="UTF-8"?>
<svg width="16px" height="16px" viewBox="0 0 16 16" version="1.1" xmlns="http://www.w3.org/2000/svg" xmlns:xlink="http://www.w3.org/1999/xlink">
    <!-- Generator: Sketch 52.4 (67378) - http://www.bohemiancoding.com/sketch -->
    <title>116</title>
    <desc>Created with Sketch.</desc>
    <g id="Page-1" stroke="none" stroke-width="1" fill="none" fill-rule="evenodd">
        <g id="wahlkreise_gen" transform="translate(-64.000000, -453.000000)" fill="#000000">
            <g id="116" transform="translate(64.000000, 453.000000)">
                <polyline id="Path" points="13 3 13 4 13 5 14 6 16 7 16 8 16 12 15 13 15 16 13 16 12 16 10 15 8 14 5 16 4 16 4 14 3 10 1 7 0 7 1 6 3 6 4 6 5 5 6 4 5 4 5 3 4 3 4 2 4 1 5 1 5 0 6 0 8 1 9 1 9 2 10 2 10 3 11 3 13 3"></polyline>
            </g>
        </g>
    </g>
</svg>