<?xml version="1.0" encoding="UTF-8"?>
<svg width="14px" height="20px" viewBox="0 0 14 20" version="1.1" xmlns="http://www.w3.org/2000/svg" xmlns:xlink="http://www.w3.org/1999/xlink">
    <!-- Generator: Sketch 52.4 (67378) - http://www.bohemiancoding.com/sketch -->
    <title>118</title>
    <desc>Created with Sketch.</desc>
    <g id="Page-1" stroke="none" stroke-width="1" fill="none" fill-rule="evenodd">
        <g id="wahlkreise_gen" transform="translate(-79.000000, -460.000000)" fill="#000000">
            <g id="118" transform="translate(79.000000, 460.000000)">
                <polyline id="Path" points="14 5 11 8 12 8 12 9 10 15 8 18 7 18 1 20 1 19 1 18 0 18 0 17 0 15 0 10 0 9 0 6 1 7 5 6 6 6 7 5 7 4 7 3 9 2 10 1 14 0 14 2 14 4 14 5"></polyline>
            </g>
        </g>
    </g>
</svg>