<?xml version="1.0" encoding="UTF-8"?>
<svg width="98px" height="113px" viewBox="0 0 98 113" version="1.1" xmlns="http://www.w3.org/2000/svg" xmlns:xlink="http://www.w3.org/1999/xlink">
    <!-- Generator: Sketch 52.4 (67378) - http://www.bohemiancoding.com/sketch -->
    <title>12</title>
    <desc>Created with Sketch.</desc>
    <g id="Page-1" stroke="none" stroke-width="1" fill="none" fill-rule="evenodd">
        <g id="wahlkreise_gen" transform="translate(-381.000000, -138.000000)" fill="#000000">
            <g id="12" transform="translate(381.000000, 138.000000)">
                <polyline id="Path" points="28 5 29 6 30 5 31 5 32 5 33 5 33 6 33 8 33 10 33 11 31 12 30 14 29 15 28 16 28 17 29 17 30 16 32 16 35 17 36 17 36 18 35 18 35 22 35 23 35 24 36 24 37 24 38 23 39 23 40 24 40 25 41 26 46 27 51 29 54 28 57 27 58 27 59 26 61 26 62 27 63 28 67 29 68 29 68 31 69 31 68 33 67 37 67 38 66 38 67 38 67 39 69 46 69 48 68 52 67 52 65 53 67 55 66 55 66 56 67 59 67 60 68 62 68 63 68 65 67 68 71 69 73 69 74 67 73 66 74 65 76 64 77 65 78 66 80 66 81 66 81 67 80 67 80 68 79 70 80 73 82 75 83 75 84 76 85 78 86 79 85 80 85 81 85 82 87 86 88 86 89 86 90 86 91 86 92 86 92 87 93 88 92 88 93 90 94 90 96 90 96 89 95 89 95 88 96 88 97 88 98 90 98 91 96 92 95 93 94 93 94 94 95 94 96 94 97 95 97 96 96 96 95 96 89 98 88 97 86 95 81 95 75 100 75 103 76 103 76 105 75 108 75 109 75 110 74 111 72 111 71 110 70 110 69 110 68 109 66 109 64 109 63 112 63 113 62 113 58 113 57 112 54 112 53 112 53 111 52 111 52 110 51 110 51 109 50 109 49 109 48 109 48 110 47 110 46 110 45 107 46 107 47 106 47 105 47 104 46 103 45 103 44 103 43 103 39 100 38 99 37 97 34 92 30 85 28 84 25 83 23 85 23 86 20 88 19 89 18 89 15 88 15 87 13 86 12 86 12 85 13 85 12 84 10 82 9 81 8 81 7 81 3 81 2 81 1 81 0 81 0 82 0 80 1 74 2 71 2 70 4 69 7 68 12 66 12 65 13 64 16 61 17 58 17 55 17 54 18 54 20 55 23 54 24 54 24 53 24 52 25 52 24 52 24 51 25 48 25 46 26 44 27 44 27 43 26 39 24 38 24 37 23 37 21 37 20 37 19 37 18 37 16 36 15 35 12 31 11 29 12 26 12 24 11 23 11 22 11 21 10 20 10 18 12 15 16 12 19 10 22 11 22 12 23 12 24 11 25 11 26 10 26 9 25 9 22 8 22 5 22 4 23 3 24 3 25 2 27 0 28 1 28 3 28 5"></polyline>
            </g>
        </g>
    </g>
</svg>