<?xml version="1.0" encoding="UTF-8"?>
<svg width="26px" height="18px" viewBox="0 0 26 18" version="1.1" xmlns="http://www.w3.org/2000/svg" xmlns:xlink="http://www.w3.org/1999/xlink">
    <!-- Generator: Sketch 52.4 (67378) - http://www.bohemiancoding.com/sketch -->
    <title>121</title>
    <desc>Created with Sketch.</desc>
    <g id="Page-1" stroke="none" stroke-width="1" fill="none" fill-rule="evenodd">
        <g id="wahlkreise_gen" transform="translate(-106.000000, -441.000000)" fill="#000000">
            <g id="121" transform="translate(106.000000, 441.000000)">
                <polyline id="Path" points="23 8 22 8 21 10 17 12 18 17 17 18 16 18 14 18 12 17 13 16 13 15 12 14 11 13 8 11 7 12 4 14 3 14 3 13 3 12 2 10 2 8 2 6 2 4 0 3 1 2 1 1 3 1 4 1 5 1 6 1 7 3 7 4 10 4 13 4 14 5 13 6 14 6 18 5 18 4 21 2 22 2 23 1 23 0 24 0 25 0 25 1 26 4 26 6 25 7 24 7 23 8"></polyline>
            </g>
        </g>
    </g>
</svg>