<?xml version="1.0" encoding="UTF-8"?>
<svg width="32px" height="35px" viewBox="0 0 32 35" version="1.1" xmlns="http://www.w3.org/2000/svg" xmlns:xlink="http://www.w3.org/1999/xlink">
    <!-- Generator: Sketch 52.4 (67378) - http://www.bohemiancoding.com/sketch -->
    <title>122</title>
    <desc>Created with Sketch.</desc>
    <g id="Page-1" stroke="none" stroke-width="1" fill="none" fill-rule="evenodd">
        <g id="wahlkreise_gen" transform="translate(-97.000000, -420.000000)" fill="#000000">
            <g id="122" transform="translate(97.000000, 420.000000)">
                <polyline id="Path" points="31 21 32 21 32 22 31 23 30 23 27 25 27 26 23 27 22 27 23 26 22 25 19 25 16 25 16 24 15 22 14 22 13 22 12 22 10 22 10 23 9 24 11 25 11 27 11 29 11 31 12 33 12 34 12 35 9 35 9 32 8 31 8 30 6 29 4 28 1 25 0 24 1 24 1 23 1 19 2 16 4 13 5 7 5 6 4 5 8 4 9 3 9 2 12 0 14 0 15 0 16 0 18 2 19 3 20 3 20 4 20 5 19 6 19 7 20 8 21 9 22 9 23 10 24 10 24 11 24 12 23 13 23 14 22 14 22 15 23 15 24 16 26 16 29 19 31 21"></polyline>
            </g>
        </g>
    </g>
</svg>