<?xml version="1.0" encoding="UTF-8"?>
<svg width="63px" height="52px" viewBox="0 0 63 52" version="1.1" xmlns="http://www.w3.org/2000/svg" xmlns:xlink="http://www.w3.org/1999/xlink">
    <!-- Generator: Sketch 52.4 (67378) - http://www.bohemiancoding.com/sketch -->
    <title>126</title>
    <desc>Created with Sketch.</desc>
    <g id="Page-1" stroke="none" stroke-width="1" fill="none" fill-rule="evenodd">
        <g id="wahlkreise_gen" transform="translate(-46.000000, -379.000000)" fill="#000000">
            <g id="126" transform="translate(46.000000, 379.000000)">
                <polyline id="Path" points="55 17 54 17 55 19 56 19 57 20 57 21 57 24 56 27 56 29 55 30 54 31 54 32 56 36 57 36 57 37 59 39 60 39 61 40 62 40 63 41 60 43 60 44 59 45 55 46 54 46 53 46 52 46 51 45 51 43 49 43 48 43 47 44 47 45 46 46 46 47 45 47 44 46 43 46 42 49 42 50 39 51 38 52 36 51 31 50 31 48 29 46 27 47 23 45 22 44 21 43 20 43 20 42 17 42 15 43 14 43 13 42 12 42 12 41 10 40 8 40 7 41 6 41 5 41 4 41 3 41 2 38 2 37 0 34 0 33 1 32 2 32 5 33 6 34 6 35 7 35 8 34 9 34 10 34 10 33 13 31 16 30 20 29 24 27 25 28 26 28 26 29 27 30 28 30 31 27 32 27 33 26 33 25 34 25 34 24 34 23 34 22 35 21 36 21 37 21 37 20 36 19 36 18 36 17 35 17 30 13 27 11 25 11 25 10 26 9 26 7 28 7 29 7 30 6 30 5 31 4 31 2 31 1 35 1 36 1 38 1 39 1 40 0 41 1 42 3 43 3 42 4 42 5 41 6 43 11 46 14 48 13 49 13 53 14 54 15 55 17"></polyline>
            </g>
        </g>
    </g>
</svg>