<?xml version="1.0" encoding="UTF-8"?>
<svg width="24px" height="29px" viewBox="0 0 24 29" version="1.1" xmlns="http://www.w3.org/2000/svg" xmlns:xlink="http://www.w3.org/1999/xlink">
    <!-- Generator: Sketch 52.4 (67378) - http://www.bohemiancoding.com/sketch -->
    <title>129</title>
    <desc>Created with Sketch.</desc>
    <g id="Page-1" stroke="none" stroke-width="1" fill="none" fill-rule="evenodd">
        <g id="wahlkreise_gen" transform="translate(-134.000000, -389.000000)" fill="#000000">
            <g id="129" transform="translate(134.000000, 389.000000)">
                <polyline id="Path" points="19 4 20 4 22 9 21 10 21 11 21 13 22 15 22 16 23 17 24 19 23 21 23 22 22 22 21 22 20 21 14 24 11 28 11 29 10 29 8 28 7 27 5 22 3 22 3 21 3 19 1 16 0 14 2 12 3 12 4 11 3 9 3 8 4 8 4 6 5 5 7 3 7 2 8 2 9 1 10 1 10 0 17 4 19 4"></polyline>
            </g>
        </g>
    </g>
</svg>