<?xml version="1.0" encoding="UTF-8"?>
<svg width="57px" height="58px" viewBox="0 0 57 58" version="1.1" xmlns="http://www.w3.org/2000/svg" xmlns:xlink="http://www.w3.org/1999/xlink">
    <!-- Generator: Sketch 52.4 (67378) - http://www.bohemiancoding.com/sketch -->
    <title>130</title>
    <desc>Created with Sketch.</desc>
    <g id="Page-1" stroke="none" stroke-width="1" fill="none" fill-rule="evenodd">
        <g id="wahlkreise_gen" transform="translate(-145.000000, -384.000000)" fill="#000000">
            <g id="130" transform="translate(145.000000, 384.000000)">
                <polyline id="Path" points="22 3 23 3 25 6 25 7 26 8 29 9 30 9 30 8 31 8 31 7 32 7 33 6 34 5 37 5 38 5 39 6 39 8 38 11 37 13 39 14 40 15 40 18 40 19 41 20 42 20 44 22 45 23 45 25 45 26 44 26 44 27 43 27 46 32 47 32 48 32 48 33 49 34 50 37 52 40 54 45 56 49 57 50 56 51 55 52 55 54 55 55 55 56 53 57 52 58 51 58 49 58 48 58 47 58 47 56 47 55 47 54 43 51 41 51 40 51 39 52 39 53 38 53 37 52 32 51 30 50 28 52 26 53 25 52 22 51 22 50 21 49 17 48 15 48 12 49 10 48 10 47 9 46 8 46 8 45 7 42 5 38 3 36 2 36 0 34 0 33 3 29 9 26 10 27 11 27 12 27 12 26 13 24 12 22 11 21 11 20 10 18 10 16 10 15 11 14 9 9 8 9 10 5 10 4 11 2 13 1 14 1 14 0 15 0 16 0 17 1 21 2 22 3"></polyline>
            </g>
        </g>
    </g>
</svg>