<?xml version="1.0" encoding="UTF-8"?>
<svg width="43px" height="54px" viewBox="0 0 43 54" version="1.1" xmlns="http://www.w3.org/2000/svg" xmlns:xlink="http://www.w3.org/1999/xlink">
    <!-- Generator: Sketch 52.4 (67378) - http://www.bohemiancoding.com/sketch -->
    <title>131</title>
    <desc>Created with Sketch.</desc>
    <g id="Page-1" stroke="none" stroke-width="1" fill="none" fill-rule="evenodd">
        <g id="wahlkreise_gen" transform="translate(-182.000000, -381.000000)" fill="#000000">
            <g id="131" transform="translate(182.000000, 381.000000)">
                <polyline id="Path" points="24 2 24 3 23 5 27 11 28 11 29 13 31 15 31 17 31 19 29 20 28 21 27 21 26 21 26 20 25 20 25 21 26 22 26 23 28 23 32 24 33 24 34 25 35 28 36 27 37 27 38 27 39 28 40 31 41 32 42 35 43 36 39 38 37 39 37 40 37 41 36 42 34 43 33 44 32 44 30 46 29 47 28 48 27 49 27 52 26 54 25 54 23 54 23 53 22 53 21 53 20 52 20 53 19 52 17 48 15 43 13 40 12 37 11 36 11 35 10 35 9 35 6 30 7 30 7 29 8 29 8 28 8 26 7 25 5 23 4 23 3 22 3 21 3 18 2 17 0 16 1 14 2 11 2 9 3 9 5 8 7 7 8 7 10 6 11 6 11 4 14 2 14 1 16 1 18 0 21 1 24 2"></polyline>
            </g>
        </g>
    </g>
</svg>