<?xml version="1.0" encoding="UTF-8"?>
<svg width="25px" height="26px" viewBox="0 0 25 26" version="1.1" xmlns="http://www.w3.org/2000/svg" xmlns:xlink="http://www.w3.org/1999/xlink">
    <!-- Generator: Sketch 52.4 (67378) - http://www.bohemiancoding.com/sketch -->
    <title>132</title>
    <desc>Created with Sketch.</desc>
    <g id="Page-1" stroke="none" stroke-width="1" fill="none" fill-rule="evenodd">
        <g id="wahlkreise_gen" transform="translate(-205.000000, -383.000000)" fill="#000000">
            <g id="132" transform="translate(205.000000, 383.000000)">
                <polyline id="Path" points="6 1 6 2 7 1 8 2 9 2 10 1 11 1 13 0 16 1 17 3 17 4 17 5 22 7 23 8 24 8 24 7 24 8 25 8 24 10 24 11 24 13 24 18 24 19 23 21 20 24 20 25 16 26 15 25 14 25 13 25 12 26 11 23 10 22 9 22 5 21 3 21 3 20 2 19 2 18 3 18 3 19 4 19 5 19 6 18 8 17 8 15 8 13 6 11 5 9 4 9 0 3 1 1 1 0 4 0 5 0 5 1 6 1"></polyline>
            </g>
        </g>
    </g>
</svg>