<?xml version="1.0" encoding="UTF-8"?>
<svg width="42px" height="28px" viewBox="0 0 42 28" version="1.1" xmlns="http://www.w3.org/2000/svg" xmlns:xlink="http://www.w3.org/1999/xlink">
    <!-- Generator: Sketch 52.4 (67378) - http://www.bohemiancoding.com/sketch -->
    <title>133</title>
    <desc>Created with Sketch.</desc>
    <g id="Page-1" stroke="none" stroke-width="1" fill="none" fill-rule="evenodd">
        <g id="wahlkreise_gen" transform="translate(-209.000000, -363.000000)" fill="#000000">
            <g id="133" transform="translate(209.000000, 363.000000)">
                <polyline id="Path" points="37 3 36 5 36 8 37 10 38 10 39 10 41 10 42 11 42 12 40 13 40 14 40 15 39 18 40 19 39 19 39 20 39 21 37 22 36 22 35 22 34 21 33 20 28 20 27 20 23 23 21 24 20 27 20 28 19 28 18 27 13 25 13 24 13 23 12 21 9 20 7 21 6 21 5 22 4 22 3 21 2 22 2 21 1 21 1 20 0 20 0 19 0 18 1 17 4 15 5 15 6 15 6 14 9 11 8 11 6 10 5 10 4 10 4 9 3 7 4 6 5 4 4 2 5 1 5 0 7 1 10 1 11 1 12 1 13 2 15 2 18 1 21 3 22 4 23 3 25 3 26 3 27 1 29 0 30 1 32 2 36 3 37 3"></polyline>
            </g>
        </g>
    </g>
</svg>