<?xml version="1.0" encoding="UTF-8"?>
<svg width="67px" height="46px" viewBox="0 0 67 46" version="1.1" xmlns="http://www.w3.org/2000/svg" xmlns:xlink="http://www.w3.org/1999/xlink">
    <!-- Generator: Sketch 52.4 (67378) - http://www.bohemiancoding.com/sketch -->
    <title>134</title>
    <desc>Created with Sketch.</desc>
    <g id="Page-1" stroke="none" stroke-width="1" fill="none" fill-rule="evenodd">
        <g id="wahlkreise_gen" transform="translate(-201.000000, -329.000000)" fill="#000000">
            <g id="134" transform="translate(201.000000, 329.000000)">
                <polyline id="Path" points="32 4 32 6 32 16 32 18 33 18 35 19 36 19 37 18 41 18 44 19 47 18 49 17 52 15 54 14 55 13 55 11 55 10 56 10 57 10 57 9 57 8 57 7 58 7 60 4 63 5 66 6 66 7 67 7 66 8 65 9 64 10 63 11 63 12 64 12 64 13 65 15 66 16 66 17 65 17 63 21 62 23 60 25 59 25 58 25 58 24 56 27 55 28 55 29 55 30 55 32 54 32 54 33 53 33 53 35 54 35 55 36 56 36 58 37 62 39 62 40 61 40 60 40 59 42 59 44 59 45 57 45 56 45 55 44 55 45 55 46 54 46 53 46 50 45 49 44 47 44 46 44 45 44 44 42 44 39 45 37 44 37 40 36 38 35 37 34 35 35 34 37 33 37 31 37 30 38 29 37 26 35 23 36 21 36 20 35 19 35 18 35 15 35 13 34 13 32 13 30 13 28 11 23 11 22 7 19 4 18 2 17 1 16 1 15 2 15 2 14 1 13 1 12 0 10 0 9 1 9 4 10 4 11 5 11 9 11 10 11 12 9 13 8 13 5 17 2 17 3 18 3 19 4 20 4 22 3 25 2 28 0 31 2 32 3 32 4"></polyline>
            </g>
        </g>
    </g>
</svg>