<?xml version="1.0" encoding="UTF-8"?>
<svg width="62px" height="72px" viewBox="0 0 62 72" version="1.1" xmlns="http://www.w3.org/2000/svg" xmlns:xlink="http://www.w3.org/1999/xlink">
    <!-- Generator: Sketch 52.4 (67378) - http://www.bohemiancoding.com/sketch -->
    <title>136</title>
    <desc>Created with Sketch.</desc>
    <g id="Page-1" stroke="none" stroke-width="1" fill="none" fill-rule="evenodd">
        <g id="wahlkreise_gen" transform="translate(-231.000000, -399.000000)" fill="#000000">
            <g id="136" transform="translate(231.000000, 399.000000)">
                <polyline id="Path" points="19 1 22 2 23 2 23 3 24 6 24 7 24 9 27 12 28 12 30 12 31 11 32 11 35 10 35 9 36 8 35 8 35 7 36 7 37 6 38 6 40 6 41 5 41 4 42 4 43 3 44 2 45 2 46 2 47 2 48 3 48 4 48 5 47 6 48 8 48 9 49 9 49 10 50 10 50 9 51 9 52 10 53 11 53 13 53 14 53 17 53 18 52 18 53 18 54 17 55 17 61 18 61 19 61 20 60 23 60 24 60 25 60 27 59 29 57 31 56 32 56 33 57 36 57 37 58 37 58 38 58 41 57 42 56 42 56 43 56 44 56 45 57 45 59 45 61 45 62 45 61 46 61 47 60 47 58 48 57 48 55 49 53 49 53 50 55 52 56 52 55 53 54 55 52 57 52 58 51 59 51 60 49 62 48 63 45 65 44 66 43 67 43 68 43 70 42 69 41 69 40 69 39 70 38 72 37 71 36 71 34 72 33 71 32 69 33 67 33 66 33 65 32 64 31 64 29 64 28 64 28 63 28 62 27 62 23 63 21 63 19 61 18 61 18 60 19 60 20 59 22 56 23 56 24 56 25 56 26 55 27 55 27 53 27 52 26 52 25 52 25 51 24 50 24 49 24 48 25 48 25 45 24 44 24 43 24 42 23 41 24 39 24 38 25 36 25 32 24 30 23 29 22 27 20 26 19 26 15 25 14 25 11 26 9 26 8 24 7 23 7 22 7 21 7 19 6 19 5 18 4 14 3 13 2 12 1 11 0 10 2 9 4 9 6 9 6 10 7 9 8 7 8 5 10 4 12 3 12 4 13 4 16 2 16 1 15 1 14 1 15 0 17 0 19 1"></polyline>
            </g>
        </g>
    </g>
</svg>