<?xml version="1.0" encoding="UTF-8"?>
<svg width="28px" height="26px" viewBox="0 0 28 26" version="1.1" xmlns="http://www.w3.org/2000/svg" xmlns:xlink="http://www.w3.org/1999/xlink">
    <!-- Generator: Sketch 52.4 (67378) - http://www.bohemiancoding.com/sketch -->
    <title>138</title>
    <desc>Created with Sketch.</desc>
    <g id="Page-1" stroke="none" stroke-width="1" fill="none" fill-rule="evenodd">
        <g id="wahlkreise_gen" transform="translate(-114.000000, -473.000000)" fill="#000000">
            <g id="138" transform="translate(114.000000, 473.000000)">
                <polyline id="Path" points="21 0 25 2 26 2 27 3 28 3 28 5 27 11 27 12 27 14 27 16 26 18 24 19 22 20 21 20 21 21 20 22 20 23 19 23 19 24 16 25 15 26 15 25 14 25 12 22 11 22 7 21 6 21 5 22 4 23 3 21 2 18 1 17 0 17 0 16 1 15 1 14 2 14 3 13 4 12 6 11 5 10 4 9 5 7 6 7 7 6 8 7 8 8 9 9 10 9 12 8 12 7 12 5 13 3 13 2 14 2 17 1 18 0 21 0"></polyline>
            </g>
        </g>
    </g>
</svg>