<?xml version="1.0" encoding="UTF-8"?>
<svg width="28px" height="23px" viewBox="0 0 28 23" version="1.1" xmlns="http://www.w3.org/2000/svg" xmlns:xlink="http://www.w3.org/1999/xlink">
    <!-- Generator: Sketch 52.4 (67378) - http://www.bohemiancoding.com/sketch -->
    <title>139</title>
    <desc>Created with Sketch.</desc>
    <g id="Page-1" stroke="none" stroke-width="1" fill="none" fill-rule="evenodd">
        <g id="wahlkreise_gen" transform="translate(-104.000000, -464.000000)" fill="#000000">
            <g id="139" transform="translate(104.000000, 464.000000)">
                <polyline id="Path" points="28 7 28 9 27 10 24 11 23 11 23 12 22 14 22 16 22 17 20 18 19 18 18 17 18 16 17 15 16 16 15 16 14 18 15 19 16 20 14 21 13 22 12 23 11 23 11 22 11 21 8 22 8 23 6 23 4 23 3 22 3 20 3 16 3 15 2 14 2 13 0 13 0 11 1 9 1 7 2 8 6 8 7 8 8 9 9 9 10 9 11 9 12 7 14 5 14 4 16 3 18 4 19 2 19 1 19 0 20 0 21 1 22 1 23 3 25 7 26 6 27 6 28 6 28 7"></polyline>
            </g>
        </g>
    </g>
</svg>