<?xml version="1.0" encoding="UTF-8"?>
<svg width="15px" height="14px" viewBox="0 0 15 14" version="1.1" xmlns="http://www.w3.org/2000/svg" xmlns:xlink="http://www.w3.org/1999/xlink">
    <!-- Generator: Sketch 52.4 (67378) - http://www.bohemiancoding.com/sketch -->
    <title>140</title>
    <desc>Created with Sketch.</desc>
    <g id="Page-1" stroke="none" stroke-width="1" fill="none" fill-rule="evenodd">
        <g id="wahlkreise_gen" transform="translate(-103.000000, -459.000000)" fill="#000000">
            <g id="140" transform="translate(103.000000, 459.000000)">
                <polyline id="Path" points="10 0 11 2 12 5 12 6 14 8 15 9 15 10 13 12 12 14 11 14 10 14 9 14 8 13 7 13 3 13 2 12 1 11 2 10 1 6 0 5 0 4 1 4 2 4 3 4 3 2 5 2 6 2 7 1 8 0 10 0"></polyline>
            </g>
        </g>
    </g>
</svg>