<?xml version="1.0" encoding="UTF-8"?>
<svg width="18px" height="16px" viewBox="0 0 18 16" version="1.1" xmlns="http://www.w3.org/2000/svg" xmlns:xlink="http://www.w3.org/1999/xlink">
    <!-- Generator: Sketch 52.4 (67378) - http://www.bohemiancoding.com/sketch -->
    <title>141</title>
    <desc>Created with Sketch.</desc>
    <g id="Page-1" stroke="none" stroke-width="1" fill="none" fill-rule="evenodd">
        <g id="wahlkreise_gen" transform="translate(-105.000000, -452.000000)" fill="#000000">
            <g id="141" transform="translate(105.000000, 452.000000)">
                <polyline id="Path" points="12 2 13 3 14 4 14 5 13 6 15 7 14 7 14 8 14 9 15 11 18 12 18 13 18 14 17 16 15 15 13 16 12 15 10 13 10 12 9 9 8 7 6 7 5 8 4 9 3 9 1 9 1 7 1 6 0 6 0 5 0 3 1 3 4 3 5 3 8 1 9 0 12 2"></polyline>
            </g>
        </g>
    </g>
</svg>