<?xml version="1.0" encoding="UTF-8"?>
<svg width="17px" height="22px" viewBox="0 0 17 22" version="1.1" xmlns="http://www.w3.org/2000/svg" xmlns:xlink="http://www.w3.org/1999/xlink">
    <!-- Generator: Sketch 52.4 (67378) - http://www.bohemiancoding.com/sketch -->
    <title>143</title>
    <desc>Created with Sketch.</desc>
    <g id="Page-1" stroke="none" stroke-width="1" fill="none" fill-rule="evenodd">
        <g id="wahlkreise_gen" transform="translate(-129.000000, -451.000000)" fill="#000000">
            <g id="143" transform="translate(129.000000, 451.000000)">
                <polyline id="Path" points="14 0 13 2 14 3 15 5 16 5 17 5 17 8 17 9 16 9 14 10 14 12 15 14 14 14 14 15 13 15 13 16 13 15 12 15 12 14 10 15 10 16 6 21 6 22 3 22 3 20 4 19 5 19 5 18 5 16 4 15 4 14 3 13 3 12 5 11 7 11 8 11 8 10 8 9 7 8 6 8 5 8 4 8 3 9 2 9 1 9 1 8 0 7 1 0 3 0 8 1 9 1 10 1 10 0 11 0 12 0 14 0"></polyline>
            </g>
        </g>
    </g>
</svg>