<?xml version="1.0" encoding="UTF-8"?>
<svg width="28px" height="36px" viewBox="0 0 28 36" version="1.1" xmlns="http://www.w3.org/2000/svg" xmlns:xlink="http://www.w3.org/1999/xlink">
    <!-- Generator: Sketch 52.4 (67378) - http://www.bohemiancoding.com/sketch -->
    <title>144</title>
    <desc>Created with Sketch.</desc>
    <g id="Page-1" stroke="none" stroke-width="1" fill="none" fill-rule="evenodd">
        <g id="wahlkreise_gen" transform="translate(-135.000000, -441.000000)" fill="#000000">
            <g id="144" transform="translate(135.000000, 441.000000)">
                <polyline id="Path" points="15 1 15 2 15 3 15 4 15 5 15 6 15 7 16 7 17 7 18 7 18 6 21 6 25 6 26 7 26 8 26 9 26 10 26 11 27 11 27 14 27 16 27 17 27 21 27 22 28 22 28 23 28 24 27 24 26 25 24 25 19 26 18 25 16 25 13 26 11 27 9 28 10 31 10 33 10 34 9 35 9 36 7 35 6 35 5 34 4 34 0 32 0 31 4 26 4 25 6 24 6 25 7 25 7 26 7 25 8 25 8 24 9 24 8 22 8 20 10 19 11 19 11 18 11 15 10 15 9 15 8 13 7 12 8 10 8 9 7 8 6 8 5 8 5 7 6 4 7 3 8 3 9 3 12 2 12 1 13 1 14 0 15 1"></polyline>
            </g>
        </g>
    </g>
</svg>