<?xml version="1.0" encoding="UTF-8"?>
<svg width="60px" height="45px" viewBox="0 0 60 45" version="1.1" xmlns="http://www.w3.org/2000/svg" xmlns:xlink="http://www.w3.org/1999/xlink">
    <!-- Generator: Sketch 52.4 (67378) - http://www.bohemiancoding.com/sketch -->
    <title>146</title>
    <desc>Created with Sketch.</desc>
    <g id="Page-1" stroke="none" stroke-width="1" fill="none" fill-rule="evenodd">
        <g id="wahlkreise_gen" transform="translate(-162.000000, -433.000000)" fill="#000000">
            <g id="146" transform="translate(162.000000, 433.000000)">
                <polyline id="Path" points="46 2 47 2 49 2 51 1 52 1 52 2 53 3 53 4 53 6 54 7 56 8 57 8 58 8 59 9 60 9 60 12 60 15 58 16 56 17 53 19 52 20 52 21 52 22 52 24 53 26 55 28 55 29 56 31 56 32 58 34 57 35 55 36 54 37 51 39 47 42 40 44 38 45 35 43 30 42 26 38 25 38 17 36 16 35 15 34 14 33 13 33 12 34 10 34 7 33 7 32 6 31 5 31 4 32 4 33 4 34 3 35 2 35 0 32 1 32 1 31 1 30 0 30 0 29 0 25 0 24 0 22 0 19 2 18 7 17 7 16 7 15 8 13 9 12 10 7 11 7 12 7 13 7 13 8 13 7 14 7 13 6 11 5 9 4 11 3 13 1 15 2 20 3 21 4 22 4 22 3 23 2 24 2 26 2 30 5 30 6 30 7 30 9 31 9 32 9 34 9 35 9 36 8 38 7 38 6 38 5 38 3 39 2 40 1 40 0 41 1 42 1 43 1 43 2 45 2 46 2"></polyline>
            </g>
        </g>
    </g>
</svg>