<?xml version="1.0" encoding="UTF-8"?>
<svg width="60px" height="59px" viewBox="0 0 60 59" version="1.1" xmlns="http://www.w3.org/2000/svg" xmlns:xlink="http://www.w3.org/1999/xlink">
    <!-- Generator: Sketch 52.4 (67378) - http://www.bohemiancoding.com/sketch -->
    <title>148</title>
    <desc>Created with Sketch.</desc>
    <g id="Page-1" stroke="none" stroke-width="1" fill="none" fill-rule="evenodd">
        <g id="wahlkreise_gen" transform="translate(-160.000000, -510.000000)" fill="#000000">
            <g id="148" transform="translate(160.000000, 510.000000)">
                <polyline id="Path" points="60 5 58 6 56 7 56 8 58 14 59 16 58 16 58 17 57 18 56 18 54 21 53 21 53 22 54 22 53 22 52 22 52 23 51 26 52 27 50 29 46 33 46 34 45 36 44 36 43 36 39 35 36 35 33 37 32 39 31 39 31 40 30 40 25 46 25 47 25 48 26 48 26 49 28 51 28 52 28 53 27 56 25 57 24 59 23 57 22 56 21 56 20 56 19 57 18 57 17 57 18 55 17 53 15 51 13 49 12 48 12 47 11 46 12 44 12 43 12 40 12 38 11 38 11 37 9 37 9 38 8 38 6 36 3 34 2 33 0 33 0 32 1 30 1 29 2 27 4 27 5 27 7 27 8 27 8 26 8 25 8 23 9 23 9 22 10 22 10 21 10 20 9 19 9 17 11 14 13 13 15 13 17 13 16 15 18 17 20 17 21 16 21 15 22 15 23 15 25 15 26 16 28 17 32 15 33 14 35 11 35 9 34 9 34 8 33 6 33 5 34 4 35 5 43 6 44 6 45 5 46 4 46 3 47 2 47 1 48 1 50 0 53 0 55 0 59 3 60 5"></polyline>
            </g>
        </g>
    </g>
</svg>