<?xml version="1.0" encoding="UTF-8"?>
<svg width="30px" height="43px" viewBox="0 0 30 43" version="1.1" xmlns="http://www.w3.org/2000/svg" xmlns:xlink="http://www.w3.org/1999/xlink">
    <!-- Generator: Sketch 52.4 (67378) - http://www.bohemiancoding.com/sketch -->
    <title>150</title>
    <desc>Created with Sketch.</desc>
    <g id="Page-1" stroke="none" stroke-width="1" fill="none" fill-rule="evenodd">
        <g id="wahlkreise_gen" transform="translate(-141.000000, -465.000000)" fill="#000000">
            <g id="150" transform="translate(141.000000, 465.000000)">
                <polyline id="Path" points="23 3 24 4 25 5 25 7 26 9 25 10 26 12 27 14 27 15 27 17 27 18 28 18 29 19 29 21 28 21 27 23 27 26 27 30 27 31 28 31 29 32 30 32 30 33 30 34 29 40 28 40 26 41 22 42 19 42 18 43 18 41 17 40 17 39 18 40 19 38 17 36 16 34 14 33 13 33 13 34 7 31 6 31 5 29 4 28 4 26 3 25 2 25 1 25 0 24 0 22 0 20 0 19 1 13 1 11 3 12 3 11 4 10 4 9 4 7 3 4 5 3 7 2 10 1 12 1 13 2 18 1 20 1 21 0 23 3"></polyline>
            </g>
        </g>
    </g>
</svg>