<?xml version="1.0" encoding="UTF-8"?>
<svg width="25px" height="18px" viewBox="0 0 25 18" version="1.1" xmlns="http://www.w3.org/2000/svg" xmlns:xlink="http://www.w3.org/1999/xlink">
    <!-- Generator: Sketch 52.4 (67378) - http://www.bohemiancoding.com/sketch -->
    <title>152</title>
    <desc>Created with Sketch.</desc>
    <g id="Page-1" stroke="none" stroke-width="1" fill="none" fill-rule="evenodd">
        <g id="wahlkreise_gen" transform="translate(-520.000000, -464.000000)" fill="#000000">
            <g id="152" transform="translate(520.000000, 464.000000)">
                <polyline id="Path" points="21 11 22 12 24 12 24 13 25 14 25 15 25 17 25 18 24 18 23 18 22 18 21 16 19 16 18 16 18 17 17 16 15 15 14 15 13 14 13 13 12 12 11 12 9 12 8 12 9 15 7 15 6 15 3 15 2 15 1 13 0 12 0 11 1 10 1 9 2 9 2 7 3 4 4 4 6 4 11 4 16 2 16 1 17 0 18 0 19 0 20 1 20 2 21 3 20 3 19 5 19 10 20 11 21 11"></polyline>
            </g>
        </g>
    </g>
</svg>