<?xml version="1.0" encoding="UTF-8"?>
<svg width="75px" height="69px" viewBox="0 0 75 69" version="1.1" xmlns="http://www.w3.org/2000/svg" xmlns:xlink="http://www.w3.org/1999/xlink">
    <!-- Generator: Sketch 52.4 (67378) - http://www.bohemiancoding.com/sketch -->
    <title>156</title>
    <desc>Created with Sketch.</desc>
    <g id="Page-1" stroke="none" stroke-width="1" fill="none" fill-rule="evenodd">
        <g id="wahlkreise_gen" transform="translate(-647.000000, -441.000000)" fill="#000000">
            <g id="156" transform="translate(647.000000, 441.000000)">
                <polyline id="Path" points="51 0 51 2 53 4 54 6 54 8 54 9 55 11 57 12 58 14 58 17 57 17 55 20 54 25 54 26 55 29 56 29 58 28 59 27 61 25 61 27 62 28 63 29 64 28 65 28 66 30 68 33 68 40 71 42 75 45 75 46 74 50 72 49 70 52 66 56 66 58 65 60 64 60 63 59 62 60 61 60 59 61 58 61 58 62 59 64 59 65 60 66 60 67 59 68 58 67 57 66 56 66 56 67 55 67 55 68 54 68 54 69 53 69 52 68 51 68 51 67 51 66 49 65 48 66 47 66 45 65 45 64 45 63 43 62 36 61 35 61 34 61 34 62 34 63 33 64 32 64 31 63 29 62 28 63 27 63 24 64 24 63 23 62 22 62 21 61 20 60 20 58 21 57 23 57 24 57 25 56 28 54 27 51 26 51 25 51 24 51 24 52 23 52 22 52 21 52 20 52 18 52 17 53 13 53 12 53 12 52 12 51 12 50 13 50 12 49 12 48 11 48 9 48 8 48 6 49 3 49 2 49 1 49 0 47 0 46 1 45 2 45 2 44 2 42 2 40 2 39 1 39 1 35 1 34 3 31 5 30 4 27 3 25 4 25 5 25 6 25 7 25 8 25 9 25 12 23 16 24 19 17 21 12 22 12 23 11 23 8 23 6 24 5 26 2 28 2 31 2 37 3 41 4 41 5 43 5 44 3 46 1 51 0"></polyline>
            </g>
        </g>
    </g>
</svg>