<?xml version="1.0" encoding="UTF-8"?>
<svg width="51px" height="100px" viewBox="0 0 51 100" version="1.1" xmlns="http://www.w3.org/2000/svg" xmlns:xlink="http://www.w3.org/1999/xlink">
    <!-- Generator: Sketch 52.4 (67378) - http://www.bohemiancoding.com/sketch -->
    <title>157</title>
    <desc>Created with Sketch.</desc>
    <g id="Page-1" stroke="none" stroke-width="1" fill="none" fill-rule="evenodd">
        <g id="wahlkreise_gen" transform="translate(-698.000000, -433.000000)" fill="#000000">
            <g id="157" transform="translate(698.000000, 433.000000)">
                <polyline id="Path" points="23 1 21 4 23 8 24 9 25 9 26 9 27 9 28 10 32 11 32 12 33 13 35 13 36 13 39 13 41 14 42 15 44 18 44 19 43 22 43 24 44 25 45 31 45 32 46 32 47 33 47 34 48 34 50 37 51 39 51 40 51 41 51 44 50 44 50 45 50 46 50 49 49 53 48 64 48 65 47 69 46 72 45 75 44 79 43 80 42 82 42 83 43 83 43 84 42 84 41 87 40 87 39 89 37 91 37 92 37 93 36 99 36 100 35 100 33 100 29 99 23 97 21 96 21 95 23 90 23 87 23 86 22 86 20 87 19 88 18 89 17 89 16 89 15 88 16 87 16 86 17 86 17 85 18 83 18 80 15 77 12 77 9 76 9 74 10 74 10 73 9 72 8 73 8 72 7 70 7 69 8 69 10 68 11 68 12 67 13 68 14 68 15 66 15 64 19 60 21 57 23 58 24 54 24 53 20 50 17 48 17 41 15 38 14 36 13 36 12 37 11 36 10 35 10 33 8 35 7 36 5 37 4 37 3 34 3 33 4 28 6 25 7 25 7 22 6 20 4 19 3 17 3 16 3 14 2 12 0 10 0 8 0 7 1 6 4 6 5 6 7 5 8 5 8 4 9 3 10 3 12 3 12 4 13 5 15 6 18 6 19 6 19 5 20 4 20 2 20 1 20 0 21 0 23 1"></polyline>
            </g>
        </g>
    </g>
</svg>