<?xml version="1.0" encoding="UTF-8"?>
<svg width="17px" height="13px" viewBox="0 0 17 13" version="1.1" xmlns="http://www.w3.org/2000/svg" xmlns:xlink="http://www.w3.org/1999/xlink">
    <!-- Generator: Sketch 52.4 (67378) - http://www.bohemiancoding.com/sketch -->
    <title>159</title>
    <desc>Created with Sketch.</desc>
    <g id="Page-1" stroke="none" stroke-width="1" fill="none" fill-rule="evenodd">
        <g id="wahlkreise_gen" transform="translate(-640.000000, -506.000000)" fill="#000000">
            <g id="159" transform="translate(640.000000, 506.000000)">
                <polyline id="Path" points="17 11 16 11 12 13 10 13 10 12 10 11 7 10 5 9 4 9 3 9 1 9 0 8 1 7 2 7 2 5 3 5 3 4 2 3 1 3 1 2 0 2 2 0 3 0 8 1 9 1 10 1 10 2 12 5 14 7 15 7 15 8 16 8 16 9 17 10 17 11"></polyline>
            </g>
        </g>
    </g>
</svg>