<?xml version="1.0" encoding="UTF-8"?>
<svg width="60px" height="66px" viewBox="0 0 60 66" version="1.1" xmlns="http://www.w3.org/2000/svg" xmlns:xlink="http://www.w3.org/1999/xlink">
    <!-- Generator: Sketch 52.4 (67378) - http://www.bohemiancoding.com/sketch -->
    <title>166</title>
    <desc>Created with Sketch.</desc>
    <g id="Page-1" stroke="none" stroke-width="1" fill="none" fill-rule="evenodd">
        <g id="wahlkreise_gen" transform="translate(-494.000000, -564.000000)" fill="#000000">
            <g id="166" transform="translate(494.000000, 564.000000)">
                <polyline id="Path" points="55 16 55 17 54 18 52 19 51 19 51 20 50 20 49 22 49 23 53 27 55 29 56 30 58 31 59 31 60 32 60 34 60 35 58 35 56 36 54 37 53 39 52 39 53 40 49 43 45 46 43 52 42 52 40 58 41 62 41 63 41 66 40 66 39 66 37 65 36 63 36 62 37 62 37 59 36 58 35 58 34 58 33 56 33 55 34 55 33 53 29 53 29 51 29 49 28 47 27 47 21 47 21 48 20 47 20 46 19 46 17 46 15 46 15 45 14 45 13 44 11 43 11 42 11 41 10 39 10 38 6 34 5 34 5 33 4 33 3 33 3 32 2 32 3 31 4 31 6 29 7 27 8 25 4 22 3 23 2 22 1 22 0 20 1 18 2 18 4 17 5 17 5 16 5 15 5 14 5 13 6 13 8 11 9 9 11 7 12 8 12 15 13 16 14 17 16 17 17 17 17 16 18 15 20 14 21 15 24 14 24 13 23 13 22 13 21 13 20 12 20 11 23 7 25 7 25 8 25 9 26 9 28 6 30 7 33 6 35 4 36 2 37 0 38 0 42 0 46 5 48 9 47 11 46 13 47 14 47 15 50 15 51 15 52 15 55 16"></polyline>
            </g>
        </g>
    </g>
</svg>