<?xml version="1.0" encoding="UTF-8"?>
<svg width="33px" height="31px" viewBox="0 0 33 31" version="1.1" xmlns="http://www.w3.org/2000/svg" xmlns:xlink="http://www.w3.org/1999/xlink">
    <!-- Generator: Sketch 52.4 (67378) - http://www.bohemiancoding.com/sketch -->
    <title>168</title>
    <desc>Created with Sketch.</desc>
    <g id="Page-1" stroke="none" stroke-width="1" fill="none" fill-rule="evenodd">
        <g id="wahlkreise_gen" transform="translate(-285.000000, -474.000000)" fill="#000000">
            <g id="168" transform="translate(285.000000, 474.000000)">
                <polyline id="Path" points="17 5 17 6 18 6 19 6 18 7 17 7 16 7 17 8 18 10 19 10 20 10 20 11 21 11 21 12 24 12 29 15 31 15 31 16 30 15 29 15 27 14 25 14 25 15 24 16 24 17 24 18 28 20 31 20 33 20 33 21 32 22 31 23 30 23 30 22 29 22 28 22 28 23 26 25 26 26 24 27 23 28 23 29 24 30 21 31 20 31 19 30 17 28 18 28 18 27 16 26 13 26 12 26 11 27 10 26 10 25 11 25 11 24 10 23 9 23 9 22 10 22 10 21 11 20 9 20 6 19 2 18 2 17 1 15 1 14 1 13 2 13 3 13 3 12 2 9 1 9 1 8 0 8 0 6 1 6 2 5 4 5 6 5 9 2 9 1 16 1 17 0 18 0 18 1 21 2 19 2 18 4 17 4 17 5"></polyline>
            </g>
        </g>
    </g>
</svg>