<?xml version="1.0" encoding="UTF-8"?>
<svg width="131px" height="114px" viewBox="0 0 131 114" version="1.1" xmlns="http://www.w3.org/2000/svg" xmlns:xlink="http://www.w3.org/1999/xlink">
    <!-- Generator: Sketch 52.4 (67378) - http://www.bohemiancoding.com/sketch -->
    <title>17</title>
    <desc>Created with Sketch.</desc>
    <g id="Page-1" stroke="none" stroke-width="1" fill="none" fill-rule="evenodd">
        <g id="wahlkreise_gen" transform="translate(-469.000000, -125.000000)" fill="#000000">
            <g id="17" transform="translate(469.000000, 125.000000)">
                <polyline id="Path" points="80 5 81 6 82 6 82 7 82 8 83 8 84 8 84 9 85 9 87 7 89 6 91 4 92 4 93 4 95 5 96 7 99 10 101 11 105 13 106 12 106 11 109 13 110 14 111 15 110 17 110 18 109 22 109 25 110 25 110 26 114 29 118 28 119 28 119 27 119 26 121 23 124 23 126 24 126 25 126 27 125 28 125 29 124 29 123 31 125 33 126 34 127 34 129 35 128 40 128 41 127 42 125 44 123 44 123 45 121 45 117 47 116 51 116 52 114 54 110 55 108 57 104 59 104 61 104 62 105 62 107 62 108 61 110 62 111 68 111 70 110 71 109 74 109 75 110 76 113 77 116 77 116 75 117 75 119 76 120 76 122 77 123 77 127 76 129 77 130 78 131 80 129 82 128 82 125 85 124 86 124 87 125 89 125 91 125 92 125 93 125 94 124 93 123 92 120 92 119 93 118 94 115 99 116 99 118 100 119 99 118 103 118 104 118 105 116 105 115 103 114 102 114 101 111 101 109 103 108 104 108 105 108 106 106 107 104 108 102 110 102 111 102 112 101 112 100 113 99 113 99 114 98 113 96 112 97 111 98 110 98 109 97 109 96 109 93 110 92 110 91 111 88 109 83 111 82 111 80 110 80 109 81 107 81 106 80 106 78 107 75 106 74 106 73 106 73 105 74 105 74 104 73 103 72 103 70 103 68 104 64 102 63 102 62 102 61 103 58 103 57 104 56 104 55 103 53 101 52 99 52 98 50 97 49 97 47 96 48 94 48 93 47 93 46 92 45 92 44 91 42 88 44 85 44 82 45 80 46 78 47 77 49 75 48 75 46 75 45 75 44 72 43 70 43 69 43 65 44 64 41 62 37 60 36 60 36 59 35 57 35 56 35 54 32 55 31 55 30 55 26 54 23 52 22 50 21 49 21 48 22 47 22 46 22 45 18 42 17 42 14 42 12 43 12 44 10 43 4 39 3 39 3 38 3 37 3 36 4 36 4 35 3 33 3 32 2 32 1 32 0 32 0 31 0 28 0 26 1 24 2 24 2 23 2 20 2 18 2 17 3 17 6 17 7 15 8 15 8 14 8 13 10 11 12 11 12 12 13 14 14 14 15 13 18 13 18 14 18 15 17 18 19 20 21 21 21 22 21 24 25 26 26 26 27 26 28 24 28 22 29 22 32 22 32 21 31 20 31 19 30 17 31 15 32 12 34 12 39 13 40 13 40 12 39 11 41 9 42 7 43 7 44 9 43 10 44 11 44 12 46 12 46 11 48 10 50 9 51 9 52 9 53 10 54 10 54 11 54 12 55 12 57 13 60 9 60 7 59 6 61 5 63 5 64 6 65 5 68 1 68 0 70 1 70 2 74 2 76 3 78 4 79 5 80 5"></polyline>
            </g>
        </g>
    </g>
</svg>