<?xml version="1.0" encoding="UTF-8"?>
<svg width="48px" height="62px" viewBox="0 0 48 62" version="1.1" xmlns="http://www.w3.org/2000/svg" xmlns:xlink="http://www.w3.org/1999/xlink">
    <!-- Generator: Sketch 52.4 (67378) - http://www.bohemiancoding.com/sketch -->
    <title>172</title>
    <desc>Created with Sketch.</desc>
    <g id="Page-1" stroke="none" stroke-width="1" fill="none" fill-rule="evenodd">
        <g id="wahlkreise_gen" transform="translate(-183.000000, -545.000000)" fill="#000000">
            <g id="172" transform="translate(183.000000, 545.000000)">
                <polyline id="Path" points="21 2 22 2 23 2 24 3 25 4 24 5 24 8 24 10 25 10 27 10 28 10 28 9 28 10 29 10 29 11 28 12 28 13 27 14 28 18 28 19 29 19 30 19 31 18 32 17 33 17 36 18 36 19 37 20 37 21 38 22 39 23 40 24 40 25 42 25 44 24 45 22 46 23 46 24 48 28 48 30 48 33 47 34 46 35 45 35 44 36 43 36 43 35 42 35 40 34 39 35 40 36 41 37 42 39 42 40 41 41 41 42 40 42 39 43 38 44 40 45 41 45 42 45 43 45 44 45 44 46 45 46 45 47 43 48 42 48 41 48 38 49 35 53 35 54 36 59 35 59 34 60 33 61 33 62 32 62 31 61 30 60 29 59 28 58 26 54 23 54 21 50 21 47 20 47 19 47 17 46 15 44 14 43 13 42 13 40 12 39 13 39 12 38 10 37 9 37 9 38 8 40 7 40 5 38 4 37 3 35 3 34 2 33 2 32 3 31 2 30 0 28 0 27 0 26 0 25 1 24 2 22 4 21 5 18 5 17 5 16 3 14 3 13 2 13 2 12 2 11 7 5 8 5 8 4 9 4 10 2 13 0 16 0 20 1 21 1 21 2"></polyline>
            </g>
        </g>
    </g>
</svg>