<?xml version="1.0" encoding="UTF-8"?>
<svg width="81px" height="59px" viewBox="0 0 81 59" version="1.1" xmlns="http://www.w3.org/2000/svg" xmlns:xlink="http://www.w3.org/1999/xlink">
    <!-- Generator: Sketch 52.4 (67378) - http://www.bohemiancoding.com/sketch -->
    <title>174</title>
    <desc>Created with Sketch.</desc>
    <g id="Page-1" stroke="none" stroke-width="1" fill="none" fill-rule="evenodd">
        <g id="wahlkreise_gen" transform="translate(-265.000000, -553.000000)" fill="#000000">
            <g id="174" transform="translate(265.000000, 553.000000)">
                <polyline id="Path" points="59 2 61 2 62 2 64 1 65 2 65 3 65 4 68 5 69 7 69 8 69 9 69 10 67 14 66 16 65 17 64 18 64 21 64 22 70 23 71 23 72 21 71 20 70 20 70 19 70 18 71 18 73 17 74 17 75 17 77 17 78 17 79 17 80 19 81 22 81 24 80 24 80 23 79 23 78 24 77 25 78 30 79 31 79 32 78 34 78 35 78 36 78 38 78 39 78 40 77 42 74 47 73 47 72 49 69 50 68 51 66 52 65 53 62 53 60 52 59 51 59 50 58 50 55 50 54 51 54 52 55 52 55 53 54 55 54 57 53 58 53 59 52 58 51 58 50 58 49 58 44 55 43 54 38 55 38 56 37 55 32 52 32 51 32 49 31 48 30 48 29 50 28 50 28 52 25 55 22 55 21 55 20 53 20 52 21 52 21 50 21 49 20 47 20 46 17 46 15 46 15 48 13 45 13 43 13 41 14 37 13 36 12 36 10 35 8 36 6 35 5 35 4 34 3 34 2 34 1 32 0 31 1 29 2 28 3 26 3 25 4 25 5 25 6 25 6 26 6 27 7 28 8 28 9 29 10 28 11 23 11 22 12 20 13 14 15 13 16 12 17 12 19 11 21 10 22 10 23 9 25 9 26 8 26 7 26 6 26 5 27 5 28 5 29 6 30 6 31 6 32 7 32 8 33 9 33 10 35 9 36 8 36 7 37 7 38 6 39 6 40 6 41 7 42 9 43 9 44 10 46 11 46 12 47 12 50 9 51 8 52 7 51 6 50 6 50 5 51 4 52 2 54 0 55 0 57 0 58 1 59 2"></polyline>
            </g>
        </g>
    </g>
</svg>