<?xml version="1.0" encoding="UTF-8"?>
<svg width="70px" height="60px" viewBox="0 0 70 60" version="1.1" xmlns="http://www.w3.org/2000/svg" xmlns:xlink="http://www.w3.org/1999/xlink">
    <!-- Generator: Sketch 52.4 (67378) - http://www.bohemiancoding.com/sketch -->
    <title>175</title>
    <desc>Created with Sketch.</desc>
    <g id="Page-1" stroke="none" stroke-width="1" fill="none" fill-rule="evenodd">
        <g id="wahlkreise_gen" transform="translate(-249.000000, -587.000000)" fill="#000000">
            <g id="175" transform="translate(248.000000, 587.000000)">
                <polyline id="Path" points="23 1 25 2 27 1 29 2 30 2 31 3 30 7 30 9 30 11 32 14 32 12 34 12 37 12 37 13 38 15 38 16 38 18 37 18 37 19 38 21 39 21 42 21 45 18 45 16 46 16 47 14 48 14 49 15 49 17 49 18 54 21 55 22 55 21 60 20 61 21 66 24 67 24 68 24 69 24 70 25 70 26 71 27 71 30 71 31 70 32 69 32 67 35 64 36 63 36 63 37 62 38 62 40 61 41 61 42 60 42 59 42 54 42 52 41 51 40 50 40 50 42 51 46 51 52 52 56 52 57 52 59 50 59 47 59 45 60 43 60 42 59 41 57 41 56 40 54 36 53 34 54 30 53 29 53 28 52 27 52 26 52 24 53 24 54 25 54 25 55 22 58 21 58 21 56 19 55 18 55 17 55 17 56 16 56 15 56 14 55 15 53 15 52 18 52 18 51 19 51 20 51 21 51 22 50 21 49 18 47 17 47 17 48 16 48 16 47 15 45 15 44 14 41 14 40 14 39 12 39 11 41 10 41 9 40 5 39 5 38 5 37 4 37 2 36 2 35 1 35 0 35 1 35 2 32 5 31 6 30 7 29 7 28 8 27 8 26 9 26 9 25 11 24 12 24 13 23 14 21 16 22 17 22 18 20 18 19 19 17 18 16 16 16 17 15 17 14 17 13 14 12 14 11 14 10 14 9 14 8 15 8 15 7 13 6 12 7 12 6 13 5 15 4 16 4 18 2 19 1 19 0 20 0 21 0 22 1 23 1"></polyline>
            </g>
        </g>
    </g>
</svg>