<?xml version="1.0" encoding="UTF-8"?>
<svg width="51px" height="44px" viewBox="0 0 51 44" version="1.1" xmlns="http://www.w3.org/2000/svg" xmlns:xlink="http://www.w3.org/1999/xlink">
    <!-- Generator: Sketch 52.4 (67378) - http://www.bohemiancoding.com/sketch -->
    <title>177</title>
    <desc>Created with Sketch.</desc>
    <g id="Page-1" stroke="none" stroke-width="1" fill="none" fill-rule="evenodd">
        <g id="wahlkreise_gen" transform="translate(-216.000000, -593.000000)" fill="#000000">
            <g id="177" transform="translate(216.000000, 593.000000)">
                <polyline id="Path" points="49 8 49 9 48 10 50 10 51 11 50 13 50 14 49 16 48 16 46 15 45 17 44 18 43 18 41 19 41 20 40 20 40 21 39 22 39 23 38 24 37 25 34 26 33 29 32 29 32 30 31 30 30 29 28 30 28 31 29 33 27 34 26 34 25 36 25 37 26 39 24 39 23 40 23 42 22 42 21 42 20 43 19 44 18 44 17 43 16 42 16 40 17 39 18 39 18 38 18 37 17 36 16 35 15 35 14 34 15 33 15 32 14 31 12 29 10 28 7 27 9 26 11 25 12 23 8 18 5 17 3 16 2 14 0 13 1 12 2 11 4 11 6 11 7 11 7 10 8 9 7 9 6 8 5 8 5 7 10 3 12 2 13 2 15 2 18 3 20 4 23 3 24 3 24 5 25 6 24 6 24 8 25 9 26 9 32 10 33 9 33 8 36 9 37 9 40 6 40 5 39 2 40 1 41 1 41 2 42 2 44 1 45 0 47 1 47 2 46 2 46 3 46 4 46 5 46 6 49 7 49 8"></polyline>
            </g>
        </g>
    </g>
</svg>