<?xml version="1.0" encoding="UTF-8"?>
<svg width="135px" height="60px" viewBox="0 0 135 60" version="1.1" xmlns="http://www.w3.org/2000/svg" xmlns:xlink="http://www.w3.org/1999/xlink">
    <!-- Generator: Sketch 52.4 (67378) - http://www.bohemiancoding.com/sketch -->
    <title>18</title>
    <desc>Created with Sketch.</desc>
    <g id="Page-1" stroke="none" stroke-width="1" fill="none" fill-rule="evenodd">
        <g id="wahlkreise_gen" transform="translate(-212.000000, -143.000000)" fill="#000000">
            <g id="18" transform="translate(212.000000, 143.000000)">
                <polyline id="Path" points="125 46 127 48 126 50 125 50 125 51 125 52 128 52 130 51 131 51 132 51 133 51 134 51 135 57 133 56 131 56 130 57 129 58 128 58 128 59 127 60 125 58 124 57 123 57 122 57 118 57 115 58 110 58 109 58 105 55 104 54 105 53 106 53 109 54 110 54 111 54 112 54 113 54 114 54 115 54 116 54 118 54 119 54 119 53 119 52 120 51 122 52 123 51 122 50 125 49 125 48 125 46"></polyline>
                <polyline id="Path" points="7 5 7 4 7 5 8 5 8 6 7 6 6 6 6 7 5 6 5 5 6 4 7 4 7 5"></polyline>
                <polyline id="Path" points="2 0 2 1 2 2 1 2 1 3 1 2 0 2 0 1 1 1 1 0 2 0 3 0 2 0"></polyline>
            </g>
        </g>
    </g>
</svg>