<?xml version="1.0" encoding="UTF-8"?>
<svg width="24px" height="30px" viewBox="0 0 24 30" version="1.1" xmlns="http://www.w3.org/2000/svg" xmlns:xlink="http://www.w3.org/1999/xlink">
    <!-- Generator: Sketch 52.4 (67378) - http://www.bohemiancoding.com/sketch -->
    <title>181</title>
    <desc>Created with Sketch.</desc>
    <g id="Page-1" stroke="none" stroke-width="1" fill="none" fill-rule="evenodd">
        <g id="wahlkreise_gen" transform="translate(-199.000000, -629.000000)" fill="#000000">
            <g id="181" transform="translate(199.000000, 629.000000)">
                <polyline id="Path" points="20 5 21 6 22 7 23 7 23 8 24 8 24 9 24 10 24 11 23 11 22 12 18 14 16 15 14 15 14 16 14 17 16 19 18 21 16 22 13 26 8 29 8 30 2 29 2 27 2 26 2 25 3 25 4 25 5 24 6 23 6 19 6 18 6 16 5 16 4 16 4 15 0 11 1 11 1 10 2 10 2 9 4 7 4 4 4 3 5 3 5 4 7 5 8 6 9 5 9 4 12 0 13 0 14 0 17 3 20 5"></polyline>
            </g>
        </g>
    </g>
</svg>