<?xml version="1.0" encoding="UTF-8"?>
<svg width="17px" height="16px" viewBox="0 0 17 16" version="1.1" xmlns="http://www.w3.org/2000/svg" xmlns:xlink="http://www.w3.org/1999/xlink">
    <!-- Generator: Sketch 52.4 (67378) - http://www.bohemiancoding.com/sketch -->
    <title>182</title>
    <desc>Created with Sketch.</desc>
    <g id="Page-1" stroke="none" stroke-width="1" fill="none" fill-rule="evenodd">
        <g id="wahlkreise_gen" transform="translate(-213.000000, -634.000000)" fill="#000000">
            <g id="182" transform="translate(213.000000, 634.000000)">
                <polyline id="Path" points="4 13 4 16 2 14 0 12 0 11 0 10 2 10 4 9 8 7 9 6 10 6 10 5 10 4 10 3 9 3 9 2 12 0 11 1 12 2 13 2 14 1 15 2 16 2 16 3 17 4 17 10 16 11 15 12 13 13 9 13 8 13 8 12 7 12 7 11 6 11 6 12 4 13"></polyline>
            </g>
        </g>
    </g>
</svg>