<?xml version="1.0" encoding="UTF-8"?>
<svg width="34px" height="80px" viewBox="0 0 34 80" version="1.1" xmlns="http://www.w3.org/2000/svg" xmlns:xlink="http://www.w3.org/1999/xlink">
    <!-- Generator: Sketch 52.4 (67378) - http://www.bohemiancoding.com/sketch -->
    <title>187</title>
    <desc>Created with Sketch.</desc>
    <g id="Page-1" stroke="none" stroke-width="1" fill="none" fill-rule="evenodd">
        <g id="wahlkreise_gen" transform="translate(-235.000000, -647.000000)" fill="#000000">
            <g id="187" transform="translate(235.000000, 647.000000)">
                <polyline id="Path" points="20 4 22 5 23 5 23 6 24 6 25 11 24 12 23 12 23 13 24 21 24 24 25 27 26 29 25 31 25 32 27 33 28 35 29 38 30 39 30 38 31 38 32 38 33 38 33 40 32 40 32 41 32 43 34 45 32 50 32 51 31 51 30 51 29 51 29 52 29 54 29 55 30 55 30 58 29 59 28 59 27 61 27 63 28 63 29 63 30 66 30 68 29 68 29 67 28 67 28 68 28 69 29 69 28 69 29 70 29 71 30 71 31 71 31 72 32 73 32 74 32 75 31 75 31 74 30 73 29 73 28 73 27 72 26 74 26 75 25 76 24 77 23 77 23 76 20 75 19 76 17 78 16 79 16 80 13 78 13 76 13 75 13 72 12 67 12 66 12 62 12 57 10 56 9 55 8 55 5 53 5 51 4 46 5 45 4 46 4 45 3 43 2 39 4 36 4 35 3 32 4 31 4 30 5 27 0 25 0 24 1 25 2 24 2 22 5 21 8 21 9 22 11 23 14 23 14 22 13 21 12 18 10 16 9 17 8 18 1 18 0 17 0 16 1 16 5 13 6 10 6 8 7 7 10 5 14 3 14 2 14 1 14 0 16 0 17 0 20 1 21 1 21 2 21 3 20 4"></polyline>
            </g>
        </g>
    </g>
</svg>