<?xml version="1.0" encoding="UTF-8"?>
<svg width="126px" height="60px" viewBox="0 0 126 60" version="1.1" xmlns="http://www.w3.org/2000/svg" xmlns:xlink="http://www.w3.org/1999/xlink">
    <!-- Generator: Sketch 52.4 (67378) - http://www.bohemiancoding.com/sketch -->
    <title>189</title>
    <desc>Created with Sketch.</desc>
    <g id="Page-1" stroke="none" stroke-width="1" fill="none" fill-rule="evenodd">
        <g id="wahlkreise_gen" transform="translate(-332.000000, -443.000000)" fill="#000000">
            <g id="189" transform="translate(332.000000, 443.000000)">
                <polyline id="Path" points="68 0 69 0 70 0 71 0 76 2 77 4 78 4 79 4 79 3 80 3 81 5 81 6 80 6 79 6 78 6 78 5 78 6 77 7 77 8 78 10 79 11 82 14 83 18 84 20 84 21 85 27 85 28 87 28 87 29 88 29 89 29 91 28 91 27 92 27 93 27 96 29 99 30 100 30 103 30 108 30 110 30 112 29 113 29 114 30 114 31 114 32 116 32 118 32 119 32 120 33 120 34 119 34 119 35 120 37 121 38 122 38 122 39 122 40 123 40 123 41 124 41 126 42 126 43 126 44 125 44 125 46 122 50 121 51 120 51 119 50 120 50 120 49 117 47 115 45 114 44 113 45 113 47 114 47 114 48 114 49 113 50 112 51 111 50 108 49 105 51 103 51 100 49 101 48 101 47 100 46 97 44 96 44 96 42 95 42 94 41 93 41 92 42 93 44 91 46 88 48 88 51 89 53 86 57 83 57 82 57 80 57 79 55 77 55 74 55 73 55 72 55 71 55 70 55 69 56 66 56 65 56 64 56 63 54 63 52 63 51 62 48 61 47 60 47 58 45 57 44 56 43 56 42 55 42 53 42 52 42 52 43 51 43 49 44 47 44 47 42 47 40 46 40 45 39 45 40 44 40 41 40 39 40 38 40 37 41 36 42 37 43 37 44 36 46 35 47 33 48 32 50 32 51 32 52 31 53 29 54 25 55 25 54 24 54 23 55 22 55 22 56 21 56 22 57 23 58 23 60 22 58 21 58 21 57 20 57 18 56 13 56 12 55 11 52 11 49 11 48 6 47 4 47 3 45 2 43 2 42 1 41 0 39 0 37 0 36 1 36 5 33 9 30 11 28 14 28 17 28 20 27 21 25 21 24 20 24 20 23 21 22 22 21 23 21 23 22 23 23 25 22 29 20 30 20 31 17 32 17 33 17 35 14 36 14 36 12 35 12 36 12 36 11 36 10 37 8 40 7 41 7 43 8 44 8 44 9 45 9 46 9 46 10 47 11 47 12 48 12 50 12 51 12 51 11 53 10 54 9 55 9 56 9 57 9 56 10 57 10 57 11 58 11 59 11 60 9 59 8 58 8 57 8 57 7 57 6 57 5 57 3 58 3 59 3 60 2 60 1 62 0 63 0 65 0 68 0"></polyline>
            </g>
        </g>
    </g>
</svg>