<?xml version="1.0" encoding="UTF-8"?>
<svg width="18px" height="11px" viewBox="0 0 18 11" version="1.1" xmlns="http://www.w3.org/2000/svg" xmlns:xlink="http://www.w3.org/1999/xlink">
    <!-- Generator: Sketch 52.4 (67378) - http://www.bohemiancoding.com/sketch -->
    <title>19</title>
    <desc>Created with Sketch.</desc>
    <g id="Page-1" stroke="none" stroke-width="1" fill="none" fill-rule="evenodd">
        <g id="wahlkreise_gen" transform="translate(-313.000000, -186.000000)" fill="#000000">
            <g id="19" transform="translate(313.000000, 186.000000)">
                <polyline id="Path" points="11 2 11 3 12 3 13 5 16 7 18 9 19 8 18 9 18 10 18 11 17 11 15 11 14 11 13 11 12 11 11 11 10 11 9 11 8 11 5 10 4 10 0 10 1 9 1 6 1 4 2 1 3 0 3 1 3 2 5 4 6 5 7 6 8 6 10 4 11 3 11 2"></polyline>
            </g>
        </g>
    </g>
</svg>