<?xml version="1.0" encoding="UTF-8"?>
<svg width="67px" height="68px" viewBox="0 0 67 68" version="1.1" xmlns="http://www.w3.org/2000/svg" xmlns:xlink="http://www.w3.org/1999/xlink">
    <!-- Generator: Sketch 52.4 (67378) - http://www.bohemiancoding.com/sketch -->
    <title>191</title>
    <desc>Created with Sketch.</desc>
    <g id="Page-1" stroke="none" stroke-width="1" fill="none" fill-rule="evenodd">
        <g id="wahlkreise_gen" transform="translate(-410.000000, -484.000000)" fill="#000000">
            <g id="191" transform="translate(409.000000, 484.000000)">
                <polyline id="Path" points="26 10 28 10 31 8 34 9 35 10 36 9 37 8 37 7 37 6 36 6 36 4 37 3 38 4 40 6 43 8 43 9 42 9 42 10 41 12 44 15 45 14 46 13 46 14 47 14 49 16 50 20 50 21 50 22 49 22 49 23 49 26 50 27 51 27 51 28 56 27 57 26 58 25 61 26 64 26 65 26 66 26 68 27 68 28 68 29 67 29 68 30 68 32 67 36 66 36 65 37 64 37 63 38 59 41 57 42 58 44 58 45 61 44 62 44 65 45 66 46 67 47 67 51 67 56 62 59 61 59 58 59 56 59 56 58 57 58 58 57 58 55 57 55 56 54 53 53 52 54 53 54 52 57 50 57 48 59 49 60 50 62 50 63 49 63 48 63 47 65 47 66 46 66 44 66 42 66 42 67 40 68 39 68 35 65 33 65 31 67 30 67 29 67 25 64 25 63 25 62 26 62 27 61 27 60 25 59 23 58 21 55 21 53 21 52 21 51 22 51 25 52 26 52 31 52 33 52 33 50 34 49 34 50 35 51 36 52 38 52 43 48 45 47 45 46 44 42 43 42 42 43 41 42 41 41 40 40 41 40 41 39 38 38 36 37 35 37 33 37 32 38 31 39 29 37 26 39 23 40 22 40 21 38 19 34 18 33 17 32 15 32 15 34 14 34 13 34 11 34 10 35 10 36 10 37 6 39 3 39 2 39 1 39 0 39 1 39 1 38 1 37 1 35 2 31 2 30 2 26 4 25 4 23 3 19 4 18 5 17 5 16 6 16 9 16 12 12 11 10 11 7 14 5 16 3 15 1 16 0 17 0 18 1 19 1 19 3 20 3 23 5 24 6 24 7 23 8 26 10"></polyline>
            </g>
        </g>
    </g>
</svg>