<?xml version="1.0" encoding="UTF-8"?>
<svg width="65px" height="71px" viewBox="0 0 65 71" version="1.1" xmlns="http://www.w3.org/2000/svg" xmlns:xlink="http://www.w3.org/1999/xlink">
    <!-- Generator: Sketch 52.4 (67378) - http://www.bohemiancoding.com/sketch -->
    <title>194</title>
    <desc>Created with Sketch.</desc>
    <g id="Page-1" stroke="none" stroke-width="1" fill="none" fill-rule="evenodd">
        <g id="wahlkreise_gen" transform="translate(-492.000000, -510.000000)" fill="#000000">
            <g id="194" transform="translate(492.000000, 510.000000)">
                <polyline id="Path" points="55 12 58 13 60 12 61 13 61 14 62 16 62 17 63 18 63 19 64 21 65 21 64 24 63 23 55 24 51 25 49 27 48 30 48 32 46 33 45 32 45 31 42 32 40 33 40 34 40 35 35 37 33 37 32 36 32 37 33 40 34 40 35 40 36 40 36 41 35 42 34 43 34 44 32 43 31 44 31 46 31 47 33 49 34 52 35 53 36 53 38 53 39 54 38 56 37 58 35 60 32 61 30 60 28 63 27 63 27 62 27 61 25 61 22 65 22 66 23 67 24 67 25 67 26 67 26 68 23 69 22 68 20 69 19 70 19 71 18 71 16 71 15 70 14 69 14 62 13 61 11 63 10 65 8 67 8 66 8 65 7 65 6 65 5 65 4 64 4 63 3 62 3 60 4 59 3 57 2 56 1 54 1 51 2 49 3 47 4 47 6 46 7 45 7 44 7 43 6 43 4 42 2 42 1 41 0 41 0 40 1 39 2 39 3 39 4 39 4 37 4 36 3 31 1 29 2 28 2 27 6 25 8 22 8 21 10 19 13 20 12 17 14 17 18 16 24 18 24 17 25 17 25 16 26 16 28 19 29 20 31 19 31 18 31 17 30 17 30 16 31 15 33 13 34 10 35 9 35 8 34 7 33 7 32 6 32 4 32 2 34 1 36 0 39 1 42 1 47 2 51 3 52 4 52 6 52 7 52 9 55 12"></polyline>
            </g>
        </g>
    </g>
</svg>