<?xml version="1.0" encoding="UTF-8"?>
<svg width="85px" height="92px" viewBox="0 0 85 92" version="1.1" xmlns="http://www.w3.org/2000/svg" xmlns:xlink="http://www.w3.org/1999/xlink">
    <!-- Generator: Sketch 52.4 (67378) - http://www.bohemiancoding.com/sketch -->
    <title>195</title>
    <desc>Created with Sketch.</desc>
    <g id="Page-1" stroke="none" stroke-width="1" fill="none" fill-rule="evenodd">
        <g id="wahlkreise_gen" transform="translate(-420.000000, -513.000000)" fill="#000000">
            <g id="195" transform="translate(420.000000, 513.000000)">
                <polyline id="Path" points="58 2 59 2 60 2 62 3 64 5 66 5 70 4 74 5 80 8 83 11 84 12 84 13 84 14 85 17 82 16 80 18 80 19 78 22 74 24 74 25 73 26 75 28 76 33 76 34 76 36 75 36 74 36 73 36 72 37 72 38 73 38 74 39 76 39 78 40 79 40 79 41 79 42 78 43 76 44 75 44 74 46 73 48 73 51 74 53 75 54 76 56 75 57 75 59 76 60 76 61 77 62 78 62 79 62 80 62 80 63 80 64 79 64 79 65 79 66 79 67 79 68 78 68 76 69 75 69 74 71 75 73 76 73 77 74 78 73 82 76 81 78 80 80 78 82 77 82 76 83 77 83 77 84 78 84 79 84 79 85 76 87 74 89 72 89 71 90 70 88 69 87 68 87 67 87 66 87 66 88 63 89 55 91 54 91 53 90 53 89 52 89 50 90 50 91 49 92 47 92 43 90 43 87 43 86 40 86 38 85 38 84 37 84 37 81 37 78 38 78 39 78 39 77 38 76 38 75 33 74 31 75 30 76 29 77 28 79 27 79 26 79 26 80 25 80 25 79 26 79 26 78 23 77 22 77 21 77 16 78 15 77 15 75 16 74 15 72 11 73 10 74 10 75 2 74 0 71 1 72 6 71 8 70 8 69 8 67 9 65 9 63 7 62 7 61 7 58 7 57 7 56 7 55 5 55 3 54 9 50 10 48 11 48 13 48 16 48 17 47 17 46 17 44 17 43 16 42 17 39 17 38 18 38 19 39 20 39 20 38 22 36 24 36 28 39 29 39 31 38 31 37 33 37 35 37 36 37 36 36 37 34 38 34 39 34 39 33 38 31 37 30 39 28 41 28 42 25 41 25 42 24 45 25 46 26 47 26 47 28 46 29 45 29 45 30 47 30 50 30 51 30 56 27 56 22 56 18 55 17 54 16 51 15 50 15 47 16 47 15 46 13 48 12 52 9 53 8 54 8 55 7 56 7 57 3 57 1 56 0 57 0 58 2"></polyline>
            </g>
        </g>
    </g>
</svg>