<?xml version="1.0" encoding="UTF-8"?>
<svg width="59px" height="59px" viewBox="0 0 59 59" version="1.1" xmlns="http://www.w3.org/2000/svg" xmlns:xlink="http://www.w3.org/1999/xlink">
    <!-- Generator: Sketch 52.4 (67378) - http://www.bohemiancoding.com/sketch -->
    <title>198</title>
    <desc>Created with Sketch.</desc>
    <g id="Page-1" stroke="none" stroke-width="1" fill="none" fill-rule="evenodd">
        <g id="wahlkreise_gen" transform="translate(-69.000000, -572.000000)" fill="#000000">
            <g id="198" transform="translate(69.000000, 572.000000)">
                <polyline id="Path" points="40 0 40 3 40 7 40 8 40 9 41 9 42 9 43 9 43 10 44 10 45 11 45 12 45 13 46 15 46 17 47 17 47 18 47 19 48 19 48 20 49 20 49 21 50 23 51 24 53 26 54 27 55 27 56 27 57 27 58 27 58 28 59 29 58 29 58 30 58 34 58 37 58 38 58 39 57 40 56 40 56 42 56 43 55 46 54 47 54 48 55 50 56 52 56 53 55 55 54 55 53 56 53 57 52 57 51 57 50 59 48 59 47 59 45 58 45 57 46 57 46 56 45 53 43 52 41 51 40 50 37 49 34 49 31 49 30 49 27 48 26 47 25 47 24 46 23 46 22 46 23 47 22 47 21 46 19 45 19 44 20 43 22 42 23 41 23 40 22 39 20 38 20 39 19 40 17 41 17 42 16 43 17 43 16 44 15 44 14 44 12 42 9 41 8 42 4 41 4 40 5 39 5 37 5 36 4 35 2 32 3 31 3 29 3 28 2 27 0 23 1 22 3 21 4 20 5 20 6 20 6 21 6 22 7 23 10 24 13 23 14 23 14 22 14 21 14 19 13 18 12 15 13 15 14 15 16 13 16 11 17 11 18 11 18 12 19 12 20 12 22 11 23 10 23 9 25 7 28 7 29 8 30 8 34 6 37 5 38 3 38 2 39 1 40 0"></polyline>
            </g>
        </g>
    </g>
</svg>