<?xml version="1.0" encoding="UTF-8"?>
<svg width="89px" height="122px" viewBox="0 0 89 122" version="1.1" xmlns="http://www.w3.org/2000/svg" xmlns:xlink="http://www.w3.org/1999/xlink">
    <!-- Generator: Sketch 52.4 (67378) - http://www.bohemiancoding.com/sketch -->
    <title>2</title>
    <desc>Created with Sketch.</desc>
    <g id="Page-1" stroke="none" stroke-width="1" fill="none" fill-rule="evenodd">
        <g id="wahlkreise_gen" transform="translate(-202.000000, 0.000000)" fill="#000000">
            <g id="2" transform="translate(202.000000, 0.000000)">
                <polyline id="Path" points="27 75 26 75 26 74 25 74 24 72 24 71 23 71 23 70 23 69 24 69 31 66 32 66 33 66 32 68 32 71 31 73 30 74 28 74 27 75"></polyline>
                <polyline id="Path" points="21 66 20 66 18 64 18 63 21 63 23 65 22 66 21 66"></polyline>
                <polyline id="Path" points="28 55 21 57 21 56 22 55 24 55 25 55 28 54 29 54 29 55 28 55"></polyline>
                <polyline id="Path" points="33 51 31 51 31 50 32 50 33 50 33 51"></polyline>
                <polyline id="Path" points="9 58 9 57 9 58 8 59 7 59 6 59 5 57 4 56 2 54 2 53 2 52 1 51 2 49 3 49 5 46 6 46 7 46 6 47 5 47 5 48 5 49 5 50 7 54 8 55 8 56 8 57 9 58"></polyline>
                <polyline id="Path" points="22 41 23 41 24 41 24 42 24 44 22 49 22 50 21 50 16 50 15 49 10 47 9 47 9 46 9 45 9 44 10 43 10 42 11 42 11 41 12 41 15 40 16 40 16 41 17 40 18 40 19 40 20 40 21 40 22 40 22 41"></polyline>
                <polyline id="Path" points="14 2 15 2 14 2 13 2 12 2 10 2 10 3 10 4 12 4 13 5 13 6 11 7 10 7 9 7 9 8 8 8 8 9 7 12 7 13 7 20 7 21 8 21 8 22 11 23 11 24 12 24 16 24 17 23 20 23 21 23 22 23 25 22 26 22 27 21 27 20 30 20 31 20 33 21 34 22 38 22 39 21 40 21 41 20 42 20 43 21 43 22 44 22 46 21 47 21 51 21 52 21 56 23 57 24 58 25 61 25 63 25 63 27 63 29 62 32 64 36 63 38 62 39 61 40 60 42 61 44 61 46 60 47 59 47 60 47 60 48 62 48 63 48 64 48 65 48 67 48 68 49 68 51 69 52 69 53 71 54 71 56 73 58 74 60 74 62 74 63 74 64 75 64 76 64 78 65 78 66 78 69 77 70 77 71 76 71 76 74 77 75 79 79 79 80 79 81 78 81 77 82 76 84 75 85 75 88 74 89 72 89 70 90 68 93 68 94 68 95 72 96 72 94 71 94 71 93 72 93 74 94 75 95 76 96 76 98 75 98 74 98 74 99 76 102 77 102 78 103 81 102 82 101 83 100 85 101 88 105 88 106 88 107 89 107 88 110 87 111 87 112 86 112 85 112 81 113 81 114 80 114 75 114 73 115 72 118 70 118 69 118 68 118 67 119 66 121 61 121 60 121 56 120 55 119 53 119 52 120 51 122 50 122 49 122 49 121 48 121 47 121 46 121 45 122 44 122 42 121 41 120 40 116 40 115 40 114 40 113 41 112 41 111 42 108 43 105 43 104 43 103 43 102 42 102 42 101 42 100 41 100 40 101 39 101 39 102 38 102 37 102 37 101 35 100 33 101 32 101 32 102 31 102 29 102 29 101 28 101 25 98 25 97 24 97 24 96 24 94 25 94 26 94 28 94 31 92 31 91 31 90 30 90 29 90 28 89 28 88 28 87 29 87 30 86 34 85 35 85 42 84 42 85 43 85 44 85 45 85 46 85 47 85 47 84 48 83 49 82 51 80 51 79 52 79 53 79 54 78 56 75 55 74 55 73 54 70 53 70 51 72 49 76 49 77 49 78 47 79 46 79 44 79 43 78 42 78 41 78 40 77 40 74 40 73 41 73 41 72 42 72 43 72 43 71 44 71 45 70 45 69 45 68 45 67 45 66 45 63 46 61 47 61 47 60 46 60 46 59 44 58 43 57 42 54 38 52 38 51 37 51 36 50 36 49 36 48 36 47 35 46 35 45 32 40 31 37 30 36 29 35 28 35 25 29 25 28 25 27 25 26 25 25 25 24 24 24 23 23 21 24 19 24 18 24 17 24 17 25 16 25 14 26 14 27 11 28 10 28 8 26 7 25 7 24 5 24 3 26 2 27 2 28 2 30 2 39 2 40 2 41 2 42 1 42 0 40 0 39 1 27 1 24 1 22 2 21 2 20 3 17 3 16 4 14 5 13 5 11 7 7 8 3 9 3 9 2 9 1 10 1 11 1 11 0 12 1 14 2"></polyline>
            </g>
        </g>
    </g>
</svg>