<?xml version="1.0" encoding="UTF-8"?>
<svg width="80px" height="58px" viewBox="0 0 80 58" version="1.1" xmlns="http://www.w3.org/2000/svg" xmlns:xlink="http://www.w3.org/1999/xlink">
    <!-- Generator: Sketch 52.4 (67378) - http://www.bohemiancoding.com/sketch -->
    <title>201</title>
    <desc>Created with Sketch.</desc>
    <g id="Page-1" stroke="none" stroke-width="1" fill="none" fill-rule="evenodd">
        <g id="wahlkreise_gen" transform="translate(-90.000000, -657.000000)" fill="#000000">
            <g id="201" transform="translate(90.000000, 657.000000)">
                <polyline id="Path" points="66 7 68 9 71 8 74 10 74 11 75 12 75 13 76 16 77 16 78 16 79 17 79 19 80 22 76 25 76 26 77 27 77 31 76 31 74 32 74 33 74 32 71 31 69 31 69 32 68 32 68 33 65 32 64 32 62 33 63 33 63 34 61 35 59 38 60 38 60 39 60 40 59 43 57 46 56 47 55 47 54 48 53 47 53 46 53 45 54 44 54 40 54 39 53 39 53 40 52 41 49 42 46 41 45 41 45 40 44 39 42 38 42 39 42 41 42 42 41 42 40 42 38 42 36 42 36 43 35 43 35 44 34 46 34 47 35 47 35 52 35 53 34 53 33 53 31 53 31 52 29 52 28 52 27 54 26 55 25 56 24 57 23 57 21 58 21 57 20 55 19 55 18 55 18 56 17 56 16 56 13 54 13 53 10 51 10 52 9 52 8 52 5 51 5 50 4 48 3 48 3 47 0 46 1 45 2 45 2 44 3 41 2 40 2 39 3 38 7 34 9 32 9 31 9 30 9 29 9 28 15 23 18 20 21 19 21 18 20 18 19 17 18 16 17 14 19 14 22 13 23 14 22 14 22 15 23 15 25 15 26 14 25 14 26 13 27 13 29 13 30 13 31 13 32 14 32 18 32 19 33 18 34 19 34 20 36 19 38 17 42 16 45 14 48 11 50 10 51 9 54 7 54 6 55 5 55 4 57 1 59 1 61 1 61 0 62 1 63 2 66 6 66 7"></polyline>
            </g>
        </g>
    </g>
</svg>