<?xml version="1.0" encoding="UTF-8"?>
<svg width="60px" height="52px" viewBox="0 0 60 52" version="1.1" xmlns="http://www.w3.org/2000/svg" xmlns:xlink="http://www.w3.org/1999/xlink">
    <!-- Generator: Sketch 52.4 (67378) - http://www.bohemiancoding.com/sketch -->
    <title>203</title>
    <desc>Created with Sketch.</desc>
    <g id="Page-1" stroke="none" stroke-width="1" fill="none" fill-rule="evenodd">
        <g id="wahlkreise_gen" transform="translate(-33.000000, -666.000000)" fill="#000000">
            <g id="203" transform="translate(33.000000, 666.000000)">
                <polyline id="Path" points="32 3 34 4 35 4 35 3 36 4 38 5 38 6 38 7 40 8 43 7 44 6 45 5 45 6 45 7 46 10 47 12 48 12 49 13 50 13 50 12 51 13 51 14 51 15 49 15 48 15 47 16 46 18 46 19 48 22 49 23 49 24 52 26 53 27 53 28 52 28 52 29 52 30 54 32 55 33 58 32 59 31 60 32 59 35 59 36 58 36 57 37 57 38 56 38 54 38 53 37 48 40 46 40 45 40 43 41 40 43 34 47 33 47 30 48 28 48 23 49 22 49 22 50 21 51 21 52 20 52 19 51 19 50 19 49 18 49 16 49 15 50 13 50 12 50 11 49 10 48 6 47 5 47 3 47 2 47 2 46 2 45 1 45 1 44 0 44 2 41 3 41 3 40 4 40 6 38 8 34 8 33 7 33 8 31 9 29 10 28 11 28 13 26 13 25 13 24 13 21 14 21 14 20 15 20 14 14 11 12 16 8 16 7 17 7 22 5 23 5 24 5 25 5 28 3 28 2 29 1 30 0 31 1 32 2 32 3"></polyline>
            </g>
        </g>
    </g>
</svg>