<?xml version="1.0" encoding="UTF-8"?>
<svg width="47px" height="82px" viewBox="0 0 47 82" version="1.1" xmlns="http://www.w3.org/2000/svg" xmlns:xlink="http://www.w3.org/1999/xlink">
    <!-- Generator: Sketch 52.4 (67378) - http://www.bohemiancoding.com/sketch -->
    <title>204</title>
    <desc>Created with Sketch.</desc>
    <g id="Page-1" stroke="none" stroke-width="1" fill="none" fill-rule="evenodd">
        <g id="wahlkreise_gen" transform="translate(-140.000000, -561.000000)" fill="#000000">
            <g id="204" transform="translate(140.000000, 561.000000)">
                <polyline id="Path" points="15 1 18 3 19 5 20 4 21 4 22 5 23 6 22 6 22 7 22 8 23 8 24 8 25 8 25 7 24 7 25 4 26 3 27 3 30 5 31 6 31 7 32 7 31 8 31 9 32 9 33 9 34 9 34 8 34 7 35 7 36 6 37 6 38 6 39 6 40 5 41 5 42 5 43 6 44 8 43 9 43 10 43 11 43 12 45 14 46 15 45 16 45 17 46 18 46 19 47 20 45 23 45 25 44 26 43 26 43 27 44 27 43 27 41 27 40 27 40 26 39 25 38 25 37 25 34 28 33 29 33 30 32 33 32 34 33 35 35 37 35 38 34 38 33 41 31 43 31 44 32 44 36 45 35 47 37 47 39 48 42 54 42 55 43 59 44 61 42 63 40 63 40 62 39 62 39 61 38 61 37 61 36 62 35 63 35 64 36 63 38 66 36 69 34 68 32 67 31 68 27 70 26 71 23 73 24 75 24 76 25 76 27 78 27 82 23 82 22 81 21 80 21 79 20 79 18 78 17 78 17 77 16 74 12 70 10 70 10 67 12 63 12 62 12 59 13 57 14 52 15 52 15 51 16 50 15 48 15 47 16 47 16 46 16 45 15 45 13 44 12 45 12 47 12 48 8 50 6 47 4 46 4 45 4 44 5 44 6 44 7 44 4 38 3 38 1 36 0 36 0 35 0 34 1 34 2 33 3 33 5 33 6 33 7 32 7 31 6 29 7 28 8 28 9 28 9 26 9 23 9 22 7 19 8 16 9 15 10 11 11 9 11 8 12 8 11 7 11 6 10 6 9 6 9 5 9 4 11 2 12 1 12 2 13 2 14 1 13 0 15 1"></polyline>
            </g>
        </g>
    </g>
</svg>