<?xml version="1.0" encoding="UTF-8"?>
<svg width="49px" height="47px" viewBox="0 0 49 47" version="1.1" xmlns="http://www.w3.org/2000/svg" xmlns:xlink="http://www.w3.org/1999/xlink">
    <!-- Generator: Sketch 52.4 (67378) - http://www.bohemiancoding.com/sketch -->
    <title>206</title>
    <desc>Created with Sketch.</desc>
    <g id="Page-1" stroke="none" stroke-width="1" fill="none" fill-rule="evenodd">
        <g id="wahlkreise_gen" transform="translate(-164.000000, -665.000000)" fill="#000000">
            <g id="206" transform="translate(164.000000, 665.000000)">
                <polyline id="Path" points="38 10 39 11 40 11 41 11 41 12 41 13 41 14 40 15 40 16 41 16 41 17 42 19 43 20 43 21 43 22 44 22 44 23 45 23 45 24 46 24 47 23 48 23 49 23 49 24 49 25 48 25 47 26 47 27 46 27 46 28 46 29 45 29 45 30 44 30 43 30 42 30 42 31 41 31 40 31 40 32 39 32 39 33 38 33 38 34 38 35 40 41 40 42 41 42 41 43 42 43 42 44 43 44 43 45 43 46 41 45 40 44 39 44 38 45 34 46 32 47 30 46 29 46 27 45 27 44 24 41 23 41 21 41 22 40 22 39 22 38 21 38 21 37 19 35 19 36 18 34 17 33 17 32 10 30 9 31 8 32 7 32 6 32 5 31 5 30 5 29 3 26 2 26 0 25 0 24 2 23 3 23 3 19 2 18 2 17 6 14 5 11 5 9 4 8 3 8 2 8 1 5 1 4 0 3 4 3 4 4 5 4 7 4 7 3 8 3 9 4 9 5 8 5 8 6 8 7 10 7 12 7 13 8 14 8 16 7 19 6 22 7 25 9 26 10 28 9 30 8 30 7 30 5 30 4 31 3 32 1 34 0 38 1 38 3 38 4 39 4 38 5 38 6 38 7 37 7 37 8 38 8 38 9 38 10"></polyline>
            </g>
        </g>
    </g>
</svg>