<?xml version="1.0" encoding="UTF-8"?>
<svg width="50px" height="49px" viewBox="0 0 50 49" version="1.1" xmlns="http://www.w3.org/2000/svg" xmlns:xlink="http://www.w3.org/1999/xlink">
    <!-- Generator: Sketch 52.4 (67378) - http://www.bohemiancoding.com/sketch -->
    <title>211</title>
    <desc>Created with Sketch.</desc>
    <g id="Page-1" stroke="none" stroke-width="1" fill="none" fill-rule="evenodd">
        <g id="wahlkreise_gen" transform="translate(-157.000000, -743.000000)" fill="#000000">
            <g id="211" transform="translate(157.000000, 743.000000)">
                <polyline id="Path" points="16 3 17 3 19 3 21 3 23 3 24 4 26 4 27 4 28 4 29 4 32 5 32 6 36 6 37 6 38 6 39 6 41 5 42 5 42 6 45 8 46 10 49 12 50 13 49 13 48 14 48 15 47 15 47 16 48 16 49 16 49 17 48 18 48 19 47 19 47 21 46 23 46 24 46 25 46 26 46 28 45 30 45 31 45 32 45 33 44 33 44 34 43 34 43 35 42 36 42 37 41 37 41 38 40 39 40 40 40 41 40 42 40 43 39 44 39 45 38 46 36 47 34 49 34 48 33 48 30 48 28 48 22 46 20 45 20 44 18 43 14 41 11 39 8 37 8 38 8 39 7 39 7 38 6 37 5 37 5 38 5 36 6 33 7 33 7 31 7 30 7 29 6 29 5 29 5 30 4 30 3 30 3 29 2 29 2 28 2 27 2 25 4 25 5 26 6 25 7 23 7 22 7 21 7 18 7 16 6 15 6 14 4 12 2 11 1 11 1 12 0 12 0 10 0 9 1 9 2 9 3 8 4 8 3 4 4 4 6 4 7 4 7 3 8 4 9 4 10 3 14 0 15 0 15 1 16 2 16 3"></polyline>
            </g>
        </g>
    </g>
</svg>