<?xml version="1.0" encoding="UTF-8"?>
<svg width="45px" height="68px" viewBox="0 0 45 68" version="1.1" xmlns="http://www.w3.org/2000/svg" xmlns:xlink="http://www.w3.org/1999/xlink">
    <!-- Generator: Sketch 52.4 (67378) - http://www.bohemiancoding.com/sketch -->
    <title>213</title>
    <desc>Created with Sketch.</desc>
    <g id="Page-1" stroke="none" stroke-width="1" fill="none" fill-rule="evenodd">
        <g id="wahlkreise_gen" transform="translate(-494.000000, -854.000000)" fill="#000000">
            <g id="213" transform="translate(494.000000, 854.000000)">
                <polyline id="Path" points="22 3 23 3 24 3 24 4 24 5 25 4 27 4 29 3 35 3 36 4 38 7 40 11 43 14 43 15 44 16 45 20 45 21 44 21 43 22 42 23 42 24 42 29 43 30 43 32 42 32 41 32 41 31 39 31 37 32 36 33 34 35 32 37 30 37 29 37 29 38 28 38 26 38 26 39 27 41 28 41 28 42 29 43 31 43 30 44 30 46 30 49 31 53 31 54 32 57 33 58 33 59 33 60 31 62 30 63 29 63 28 63 27 63 25 64 25 65 23 63 21 61 19 60 18 60 18 61 19 65 19 66 19 67 18 68 17 68 16 67 15 66 14 66 12 66 11 66 12 66 12 65 11 65 8 63 5 61 4 60 4 57 5 57 5 52 5 50 4 48 3 47 3 46 2 42 2 41 3 40 4 40 4 39 3 33 2 32 2 31 1 26 0 24 0 23 1 22 2 18 4 13 6 10 9 7 10 6 13 5 16 2 17 1 18 1 18 0 19 0 20 0 20 1 21 2 22 3"></polyline>
            </g>
        </g>
    </g>
</svg>