<?xml version="1.0" encoding="UTF-8"?>
<svg width="68px" height="64px" viewBox="0 0 68 64" version="1.1" xmlns="http://www.w3.org/2000/svg" xmlns:xlink="http://www.w3.org/1999/xlink">
    <!-- Generator: Sketch 52.4 (67378) - http://www.bohemiancoding.com/sketch -->
    <title>216</title>
    <desc>Created with Sketch.</desc>
    <g id="Page-1" stroke="none" stroke-width="1" fill="none" fill-rule="evenodd">
        <g id="wahlkreise_gen" transform="translate(-424.000000, -775.000000)" fill="#000000">
            <g id="216" transform="translate(423.000000, 775.000000)">
                <polyline id="Path" points="42 1 44 2 46 2 46 1 47 1 47 0 49 0 50 1 51 1 49 4 50 6 52 9 53 11 56 15 56 16 59 18 62 19 63 19 64 18 66 20 68 23 69 25 66 30 66 31 66 33 67 33 68 33 68 34 69 35 69 36 68 37 67 37 66 37 65 37 64 37 61 36 61 35 61 34 58 34 57 34 55 37 54 38 55 38 55 39 54 42 53 43 51 44 50 44 49 44 48 44 48 43 48 44 47 45 46 45 45 45 44 46 43 47 43 48 43 49 44 49 45 49 45 50 44 53 44 56 41 57 40 57 39 58 38 57 36 53 35 53 33 54 34 55 32 56 29 56 26 55 25 56 24 56 20 61 18 63 19 64 18 64 17 64 14 62 12 63 10 63 10 62 9 62 8 60 9 59 9 57 7 55 6 54 5 50 5 47 5 46 5 42 4 39 3 36 6 34 6 33 5 32 3 29 1 29 0 29 1 29 2 28 3 27 4 26 6 26 7 25 11 22 11 21 10 20 9 20 11 17 12 16 13 15 14 15 15 15 16 15 17 15 17 14 17 13 18 9 20 6 22 4 23 4 24 4 26 4 26 5 27 6 27 7 27 8 27 9 28 9 29 10 33 10 33 9 34 8 35 8 36 8 40 5 41 3 40 2 38 0 37 0 38 0 41 1 42 1"></polyline>
            </g>
        </g>
    </g>
</svg>