<?xml version="1.0" encoding="UTF-8"?>
<svg width="15px" height="14px" viewBox="0 0 15 14" version="1.1" xmlns="http://www.w3.org/2000/svg" xmlns:xlink="http://www.w3.org/1999/xlink">
    <!-- Generator: Sketch 52.4 (67378) - http://www.bohemiancoding.com/sketch -->
    <title>217</title>
    <desc>Created with Sketch.</desc>
    <g id="Page-1" stroke="none" stroke-width="1" fill="none" fill-rule="evenodd">
        <g id="wahlkreise_gen" transform="translate(-472.000000, -882.000000)" fill="#000000">
            <g id="217" transform="translate(472.000000, 882.000000)">
                <polyline id="Path" points="13 9 11 13 10 13 9 14 8 14 7 14 7 12 7 11 6 10 5 11 3 11 1 11 1 10 1 9 1 8 1 7 0 5 0 4 1 3 1 2 1 1 2 0 3 1 4 1 4 2 5 3 9 5 10 5 11 5 11 4 11 3 11 2 13 3 14 3 15 4 15 5 13 9"></polyline>
            </g>
        </g>
    </g>
</svg>