<?xml version="1.0" encoding="UTF-8"?>
<svg width="13px" height="14px" viewBox="0 0 13 14" version="1.1" xmlns="http://www.w3.org/2000/svg" xmlns:xlink="http://www.w3.org/1999/xlink">
    <!-- Generator: Sketch 52.4 (67378) - http://www.bohemiancoding.com/sketch -->
    <title>218</title>
    <desc>Created with Sketch.</desc>
    <g id="Page-1" stroke="none" stroke-width="1" fill="none" fill-rule="evenodd">
        <g id="wahlkreise_gen" transform="translate(-480.000000, -890.000000)" fill="#000000">
            <g id="218" transform="translate(480.000000, 890.000000)">
                <polyline id="Path" points="4 13 3 12 3 11 3 10 0 9 0 6 1 6 2 5 3 5 5 1 6 1 6 2 7 2 8 1 10 0 11 1 11 2 10 2 9 4 9 5 10 5 11 5 12 5 13 5 13 6 13 10 10 13 7 14 4 13"></polyline>
            </g>
        </g>
    </g>
</svg>