<?xml version="1.0" encoding="UTF-8"?>
<svg width="18px" height="13px" viewBox="0 0 18 13" version="1.1" xmlns="http://www.w3.org/2000/svg" xmlns:xlink="http://www.w3.org/1999/xlink">
    <!-- Generator: Sketch 52.4 (67378) - http://www.bohemiancoding.com/sketch -->
    <title>220</title>
    <desc>Created with Sketch.</desc>
    <g id="Page-1" stroke="none" stroke-width="1" fill="none" fill-rule="evenodd">
        <g id="wahlkreise_gen" transform="translate(-462.000000, -886.000000)" fill="#000000">
            <g id="220" transform="translate(462.000000, 886.000000)">
                <polyline id="Path" points="18 10 18 13 14 11 14 12 13 12 12 12 11 12 10 12 9 12 6 11 4 12 4 13 3 13 2 12 2 11 3 11 2 10 2 9 1 8 0 8 2 4 3 3 4 3 5 2 6 2 8 2 8 1 9 0 10 0 10 1 11 3 11 4 11 5 11 6 11 7 13 7 15 7 16 6 17 7 17 8 17 10 18 10"></polyline>
            </g>
        </g>
    </g>
</svg>