<?xml version="1.0" encoding="UTF-8"?>
<svg width="42px" height="50px" viewBox="0 0 42 50" version="1.1" xmlns="http://www.w3.org/2000/svg" xmlns:xlink="http://www.w3.org/1999/xlink">
    <!-- Generator: Sketch 52.4 (67378) - http://www.bohemiancoding.com/sketch -->
    <title>221</title>
    <desc>Created with Sketch.</desc>
    <g id="Page-1" stroke="none" stroke-width="1" fill="none" fill-rule="evenodd">
        <g id="wahlkreise_gen" transform="translate(-464.000000, -875.000000)" fill="#000000">
            <g id="221" transform="translate(464.000000, 875.000000)">
                <polyline id="Path" points="19 4 20 4 25 4 27 4 27 3 30 3 31 5 32 10 32 11 33 12 34 18 34 19 33 19 32 20 32 21 33 25 33 26 34 27 35 29 35 31 35 36 34 36 34 39 35 40 38 42 41 44 42 44 42 45 41 45 40 45 40 47 40 48 39 49 38 48 36 47 33 47 34 47 33 48 33 49 32 49 31 49 31 50 30 50 30 48 29 48 29 47 28 47 27 47 23 49 22 49 22 50 21 50 20 49 20 48 19 47 18 46 16 45 12 44 10 43 5 42 4 43 3 42 3 40 4 40 4 38 4 36 3 34 3 31 4 28 4 27 3 27 3 26 0 25 2 23 4 22 7 23 7 25 7 26 8 29 11 32 12 31 13 30 13 29 18 27 18 28 20 28 23 29 26 28 29 25 29 21 29 20 28 20 27 20 26 20 25 20 25 19 26 17 27 17 27 16 26 15 24 16 23 17 22 17 22 16 21 16 23 12 23 11 22 10 21 10 19 9 19 10 19 11 19 12 18 12 17 12 13 10 12 9 12 8 11 8 10 7 10 6 11 3 14 1 16 0 16 1 17 1 17 2 19 3 19 4"></polyline>
            </g>
        </g>
    </g>
</svg>