<?xml version="1.0" encoding="UTF-8"?>
<svg width="56px" height="70px" viewBox="0 0 56 70" version="1.1" xmlns="http://www.w3.org/2000/svg" xmlns:xlink="http://www.w3.org/1999/xlink">
    <!-- Generator: Sketch 52.4 (67378) - http://www.bohemiancoding.com/sketch -->
    <title>222</title>
    <desc>Created with Sketch.</desc>
    <g id="Page-1" stroke="none" stroke-width="1" fill="none" fill-rule="evenodd">
        <g id="wahlkreise_gen" transform="translate(-501.000000, -894.000000)" fill="#000000">
            <g id="222" transform="translate(501.000000, 894.000000)">
                <polyline id="Path" points="42 4 45 4 46 3 47 3 47 2 47 1 48 1 49 1 50 2 50 3 50 4 49 4 48 4 46 6 45 9 45 10 46 11 47 12 48 13 47 17 46 21 47 22 48 23 51 24 53 25 53 24 54 23 56 24 56 28 55 31 54 33 54 34 53 34 52 33 51 33 51 34 50 35 50 36 50 37 51 39 51 40 52 40 52 39 53 39 55 39 56 40 56 41 55 42 54 42 52 43 51 46 52 47 52 48 52 49 51 50 50 50 49 51 48 53 48 54 48 56 48 57 44 58 42 60 41 60 40 59 40 58 40 56 41 55 41 54 42 54 42 53 42 52 41 52 40 52 40 53 39 54 39 55 37 56 35 57 33 57 33 59 34 60 34 61 35 62 36 65 37 65 37 66 37 68 37 69 35 70 26 69 25 69 24 68 25 68 25 67 24 67 24 66 23 66 21 65 22 64 22 63 23 62 23 61 21 59 20 58 19 57 20 57 20 55 20 53 18 53 18 52 18 50 18 48 15 46 14 46 13 45 12 45 11 45 11 44 12 43 14 42 13 39 12 38 11 38 9 38 7 37 7 38 6 38 6 37 5 37 3 35 2 33 1 32 1 31 0 30 1 29 2 30 3 29 3 28 3 26 4 26 5 26 7 26 8 26 9 27 10 28 11 28 12 27 12 26 12 25 11 21 11 20 12 20 14 21 16 23 18 25 18 24 20 23 21 23 22 23 23 23 24 22 26 20 26 19 26 18 25 17 24 14 24 13 23 9 23 6 23 4 24 3 25 3 27 2 28 2 30 4 29 4 28 6 29 6 29 8 31 8 32 6 34 2 35 0 36 0 36 1 38 2 42 4"></polyline>
            </g>
        </g>
    </g>
</svg>