<?xml version="1.0" encoding="UTF-8"?>
<svg width="70px" height="63px" viewBox="0 0 70 63" version="1.1" xmlns="http://www.w3.org/2000/svg" xmlns:xlink="http://www.w3.org/1999/xlink">
    <!-- Generator: Sketch 52.4 (67378) - http://www.bohemiancoding.com/sketch -->
    <title>223</title>
    <desc>Created with Sketch.</desc>
    <g id="Page-1" stroke="none" stroke-width="1" fill="none" fill-rule="evenodd">
        <g id="wahlkreise_gen" transform="translate(-456.000000, -917.000000)" fill="#000000">
            <g id="223" transform="translate(456.000000, 917.000000)">
                <polyline id="Path" points="29 8 30 8 30 7 31 7 35 5 36 5 37 5 37 6 38 6 38 8 39 8 39 7 40 7 41 7 41 6 42 5 41 5 44 5 46 6 45 7 46 8 46 9 47 10 48 12 50 14 51 14 51 15 52 15 52 14 54 15 56 15 57 15 58 16 59 19 57 20 56 21 56 22 57 22 58 22 59 23 60 23 63 25 63 27 63 29 63 30 65 30 65 32 65 34 64 34 65 35 66 36 68 38 68 39 67 40 67 41 66 42 68 43 69 43 69 44 70 44 70 45 69 45 69 46 67 46 61 46 56 47 52 48 51 51 50 51 49 51 48 51 46 50 44 50 38 50 33 50 32 50 32 51 30 52 28 55 28 56 28 57 28 58 28 59 27 60 27 61 23 61 20 61 17 62 16 61 15 61 13 63 11 63 10 62 10 61 8 60 7 60 5 59 3 56 0 53 0 50 1 48 1 47 0 46 0 45 0 44 0 43 1 42 2 42 3 42 7 40 6 38 7 37 8 37 8 36 9 36 8 36 8 35 9 33 10 33 12 32 13 31 14 31 12 30 11 29 11 28 10 25 7 25 5 24 5 23 4 22 4 21 5 21 5 19 5 18 5 16 5 14 4 9 5 7 8 8 9 8 10 8 11 7 12 2 12 1 13 0 18 1 20 2 24 3 26 4 27 5 28 6 28 7 29 8"></polyline>
            </g>
        </g>
    </g>
</svg>