<?xml version="1.0" encoding="UTF-8"?>
<svg width="58px" height="53px" viewBox="0 0 58 53" version="1.1" xmlns="http://www.w3.org/2000/svg" xmlns:xlink="http://www.w3.org/1999/xlink">
    <!-- Generator: Sketch 52.4 (67378) - http://www.bohemiancoding.com/sketch -->
    <title>224</title>
    <desc>Created with Sketch.</desc>
    <g id="Page-1" stroke="none" stroke-width="1" fill="none" fill-rule="evenodd">
        <g id="wahlkreise_gen" transform="translate(-410.000000, -885.000000)" fill="#000000">
            <g id="224" transform="translate(410.000000, 885.000000)">
                <polyline id="Path" points="16 2 18 4 19 4 23 5 23 6 23 7 23 8 22 8 20 8 21 11 22 11 23 11 25 12 25 13 26 14 26 15 26 16 26 17 29 19 32 18 33 18 32 18 33 17 33 16 35 16 38 16 40 14 42 13 44 13 46 13 47 14 47 15 48 14 51 12 52 10 52 9 53 9 54 10 54 11 55 12 54 12 54 13 55 14 56 14 56 13 54 15 57 16 57 17 58 17 58 18 57 21 57 24 58 26 58 28 58 30 57 30 57 32 58 33 58 34 57 39 56 40 55 40 54 40 51 39 50 41 51 46 51 48 51 50 51 51 51 53 50 53 49 53 48 53 47 52 47 50 47 49 46 45 43 46 38 45 38 46 38 45 38 43 40 42 40 39 37 37 36 37 35 36 34 37 34 38 34 39 30 41 29 43 28 44 27 44 24 44 24 43 23 43 22 43 21 43 20 45 19 46 19 47 19 48 20 48 19 49 18 49 17 48 17 47 11 48 10 48 9 48 8 49 8 50 8 51 7 50 4 50 3 50 1 52 1 50 1 46 2 41 3 40 4 40 6 32 6 31 5 27 4 27 4 26 3 26 2 26 2 27 1 27 0 27 0 26 0 25 2 21 3 21 4 20 5 18 4 18 3 18 3 16 2 15 2 13 2 12 3 12 4 12 6 12 7 12 8 11 9 10 11 6 11 4 12 2 12 0 13 0 14 1 16 2"></polyline>
            </g>
        </g>
    </g>
</svg>