<?xml version="1.0" encoding="UTF-8"?>
<svg width="71px" height="89px" viewBox="0 0 71 89" version="1.1" xmlns="http://www.w3.org/2000/svg" xmlns:xlink="http://www.w3.org/1999/xlink">
    <!-- Generator: Sketch 52.4 (67378) - http://www.bohemiancoding.com/sketch -->
    <title>225</title>
    <desc>Created with Sketch.</desc>
    <g id="Page-1" stroke="none" stroke-width="1" fill="none" fill-rule="evenodd">
        <g id="wahlkreise_gen" transform="translate(-546.000000, -890.000000)" fill="#000000">
            <g id="225" transform="translate(546.000000, 890.000000)">
                <polyline id="Path" points="19 5 20 5 21 5 22 6 22 7 22 9 22 11 24 12 25 13 26 15 31 14 34 12 34 11 33 9 33 8 33 7 33 6 34 6 37 5 37 6 37 7 37 8 37 9 38 10 38 11 39 11 40 13 42 14 43 15 45 16 46 17 46 18 47 18 47 19 48 21 48 22 48 23 48 24 49 24 49 25 53 27 54 27 55 28 58 34 61 38 61 39 61 40 58 45 56 50 55 52 55 53 54 53 54 54 53 54 53 55 54 56 55 57 57 57 59 57 60 57 61 57 62 56 62 55 63 55 65 56 66 56 68 59 70 65 71 66 70 67 69 68 68 69 66 73 66 74 66 75 65 79 65 80 66 80 67 81 67 84 67 85 64 89 63 89 60 87 59 87 55 85 53 83 51 81 47 79 46 79 45 78 44 78 43 76 43 75 43 74 44 72 44 71 45 71 46 70 46 71 47 70 46 70 45 69 43 68 42 67 41 66 41 65 42 65 42 64 42 63 43 63 42 62 42 63 41 63 41 64 40 64 40 63 39 62 38 62 37 62 35 62 34 62 33 62 27 63 26 64 26 65 25 66 25 67 24 69 19 70 18 70 15 67 13 64 12 63 13 62 13 61 12 61 11 61 9 62 8 62 7 63 6 63 4 62 3 62 3 61 3 60 3 58 3 57 4 55 5 54 6 54 7 53 7 52 7 51 6 50 7 47 9 46 10 46 11 45 11 44 10 43 8 43 7 43 7 44 6 44 6 43 5 41 5 40 5 39 6 38 6 37 7 37 8 38 9 38 9 37 10 35 11 32 11 28 9 27 8 28 8 29 6 28 3 27 2 26 1 25 2 21 3 17 2 16 1 15 0 14 0 13 1 10 3 8 4 8 5 8 5 7 5 6 7 6 9 6 9 7 10 7 12 6 13 4 14 2 13 2 13 1 14 1 18 1 20 0 21 0 20 1 19 3 19 5"></polyline>
            </g>
        </g>
    </g>
</svg>