<?xml version="1.0" encoding="UTF-8"?>
<svg width="79px" height="90px" viewBox="0 0 79 90" version="1.1" xmlns="http://www.w3.org/2000/svg" xmlns:xlink="http://www.w3.org/1999/xlink">
    <!-- Generator: Sketch 52.4 (67378) - http://www.bohemiancoding.com/sketch -->
    <title>228</title>
    <desc>Created with Sketch.</desc>
    <g id="Page-1" stroke="none" stroke-width="1" fill="none" fill-rule="evenodd">
        <g id="wahlkreise_gen" transform="translate(-479.000000, -781.000000)" fill="#000000">
            <g id="228" transform="translate(479.000000, 781.000000)">
                <polyline id="Path" points="27 4 28 7 28 8 33 8 36 8 40 9 41 10 42 12 41 13 42 14 43 14 44 14 45 15 46 17 46 18 46 20 46 19 45 19 44 20 44 21 43 22 44 24 44 26 44 27 44 28 44 29 44 31 47 32 48 33 50 33 52 34 53 35 55 37 58 37 59 37 59 36 60 35 60 34 61 34 62 36 62 37 63 37 64 37 65 41 67 42 68 42 69 43 69 47 68 47 67 49 66 56 66 57 66 56 65 56 64 57 64 60 67 61 67 62 67 63 67 64 66 64 65 65 65 66 68 68 73 71 75 72 77 71 78 71 79 74 78 75 78 76 76 77 75 79 75 80 74 82 73 84 72 84 71 84 69 86 69 87 68 88 65 90 64 90 64 89 64 88 63 88 61 88 60 88 60 89 59 89 58 88 58 87 55 84 53 80 51 77 50 76 44 76 42 77 40 77 39 78 39 77 39 76 39 75 37 69 37 68 33 67 34 65 33 58 33 57 32 58 31 58 30 57 29 57 29 56 28 56 27 56 25 57 23 56 19 53 18 53 17 54 17 55 15 55 11 53 10 53 10 52 10 51 11 50 11 49 9 45 8 44 7 43 6 43 6 42 6 41 6 37 8 35 9 31 10 31 11 31 12 31 13 30 13 29 12 28 12 27 11 27 10 27 10 25 10 24 13 19 12 17 10 14 8 12 7 13 6 13 3 12 0 10 0 9 1 2 4 2 5 1 5 2 7 1 8 1 10 2 11 4 14 5 15 5 16 3 16 2 18 0 19 0 22 0 25 1 27 4"></polyline>
            </g>
        </g>
    </g>
</svg>