<?xml version="1.0" encoding="UTF-8"?>
<svg width="43px" height="19px" viewBox="0 0 43 19" version="1.1" xmlns="http://www.w3.org/2000/svg" xmlns:xlink="http://www.w3.org/1999/xlink">
    <!-- Generator: Sketch 52.4 (67378) - http://www.bohemiancoding.com/sketch -->
    <title>23</title>
    <desc>Created with Sketch.</desc>
    <g id="Page-1" stroke="none" stroke-width="1" fill="none" fill-rule="evenodd">
        <g id="wahlkreise_gen" transform="translate(-316.000000, -197.000000)" fill="#000000">
            <g id="23" transform="translate(316.000000, 197.000000)">
                <polyline id="Path" points="31 3 36 6 37 6 36 6 36 7 37 8 41 12 42 12 43 13 42 14 39 16 38 16 38 17 38 18 37 18 37 19 36 19 32 19 31 19 27 15 26 14 26 13 25 12 24 12 22 10 22 11 20 14 21 14 20 15 18 16 17 16 12 14 12 13 11 12 11 11 10 11 8 13 8 14 7 14 3 10 3 9 3 8 3 7 2 7 1 7 0 5 0 1 0 0 1 1 5 4 6 4 11 4 14 3 18 3 19 3 20 3 21 4 23 6 24 5 24 4 25 4 26 3 27 2 29 2 31 3"></polyline>
            </g>
        </g>
    </g>
</svg>