<?xml version="1.0" encoding="UTF-8"?>
<svg width="76px" height="75px" viewBox="0 0 76 75" version="1.1" xmlns="http://www.w3.org/2000/svg" xmlns:xlink="http://www.w3.org/1999/xlink">
    <!-- Generator: Sketch 52.4 (67378) - http://www.bohemiancoding.com/sketch -->
    <title>230</title>
    <desc>Created with Sketch.</desc>
    <g id="Page-1" stroke="none" stroke-width="1" fill="none" fill-rule="evenodd">
        <g id="wahlkreise_gen" transform="translate(-543.000000, -807.000000)" fill="#000000">
            <g id="230" transform="translate(543.000000, 807.000000)">
                <polyline id="Path" points="38 6 40 10 43 15 47 16 49 17 53 18 54 18 54 19 54 22 55 23 58 24 57 25 57 26 62 30 64 30 65 30 67 31 68 32 67 32 67 35 66 38 67 38 68 38 69 38 69 39 70 44 71 44 74 46 75 47 75 48 74 48 72 50 71 50 70 50 68 51 68 52 67 53 67 54 68 56 69 57 70 57 70 56 71 56 72 57 73 57 75 62 76 63 75 63 73 65 69 66 68 66 67 66 63 68 62 69 62 70 61 70 61 71 60 72 58 74 58 75 57 75 56 75 56 76 56 75 55 75 54 75 54 74 53 74 51 72 52 71 51 68 45 62 43 61 41 61 39 61 32 60 29 59 29 58 27 57 26 58 26 57 25 55 19 50 18 49 15 48 14 45 13 45 11 46 9 45 4 42 1 40 1 39 2 38 3 38 3 37 3 36 3 35 0 34 0 31 1 30 2 30 2 31 2 30 3 23 4 21 5 21 5 17 4 16 3 16 1 15 0 11 4 8 6 6 7 5 8 5 9 5 13 6 14 5 15 6 16 6 17 7 18 10 22 10 24 8 25 7 26 7 28 7 29 6 30 6 31 5 34 2 34 1 35 0 36 0 37 0 37 4 38 5 38 6"></polyline>
            </g>
        </g>
    </g>
</svg>