<?xml version="1.0" encoding="UTF-8"?>
<svg width="109px" height="62px" viewBox="0 0 109 62" version="1.1" xmlns="http://www.w3.org/2000/svg" xmlns:xlink="http://www.w3.org/1999/xlink">
    <!-- Generator: Sketch 52.4 (67378) - http://www.bohemiancoding.com/sketch -->
    <title>231</title>
    <desc>Created with Sketch.</desc>
    <g id="Page-1" stroke="none" stroke-width="1" fill="none" fill-rule="evenodd">
        <g id="wahlkreise_gen" transform="translate(-525.000000, -756.000000)" fill="#000000">
            <g id="231" transform="translate(525.000000, 756.000000)">
                <polyline id="Path" points="91 6 93 7 95 7 96 6 97 6 97 7 100 8 102 10 107 15 109 21 108 21 108 22 108 23 109 24 108 24 105 24 105 25 105 26 104 26 103 28 102 28 101 28 100 28 98 27 98 28 99 31 99 35 99 38 98 38 96 40 94 41 93 41 91 40 92 40 92 39 91 39 84 38 82 38 81 38 80 38 79 38 77 36 75 33 76 33 77 33 76 31 75 30 72 30 71 30 70 31 68 32 67 32 66 32 66 31 65 31 65 30 63 30 62 31 63 34 64 35 64 36 63 36 62 37 61 37 61 38 60 38 61 41 61 43 62 44 62 45 61 46 60 46 60 47 59 47 58 47 57 47 56 46 55 46 54 46 54 47 53 48 54 49 55 49 55 50 55 51 54 51 53 51 52 52 52 53 49 56 48 57 47 57 46 58 44 58 43 58 42 59 40 61 36 61 35 58 34 57 33 57 32 56 31 57 27 56 26 56 25 56 24 57 22 59 18 62 17 62 16 62 16 61 15 59 14 59 14 60 13 61 13 62 12 62 9 62 7 60 6 59 4 58 2 58 1 57 0 56 0 55 1 55 4 54 5 53 8 50 10 48 11 47 16 44 18 44 19 45 20 45 22 44 25 42 27 36 27 34 26 30 27 28 28 28 29 29 30 29 30 28 30 23 29 21 28 21 28 20 29 20 30 18 32 18 33 18 33 17 33 16 33 15 34 14 35 13 38 12 39 12 41 11 42 11 45 11 46 11 47 11 52 10 53 10 53 9 53 8 54 7 55 7 55 8 56 8 57 7 59 6 62 6 63 6 63 7 64 7 66 7 68 5 69 4 70 2 77 3 78 4 78 5 79 6 80 7 82 8 83 8 84 8 84 7 84 6 86 2 87 0 87 1 88 1 87 3 87 4 88 5 89 6 91 6"></polyline>
            </g>
        </g>
    </g>
</svg>