<?xml version="1.0" encoding="UTF-8"?>
<svg width="78px" height="105px" viewBox="0 0 78 105" version="1.1" xmlns="http://www.w3.org/2000/svg" xmlns:xlink="http://www.w3.org/1999/xlink">
    <!-- Generator: Sketch 52.4 (67378) - http://www.bohemiancoding.com/sketch -->
    <title>232</title>
    <desc>Created with Sketch.</desc>
    <g id="Page-1" stroke="none" stroke-width="1" fill="none" fill-rule="evenodd">
        <g id="wahlkreise_gen" transform="translate(-442.000000, -685.000000)" fill="#000000">
            <g id="232" transform="translate(442.000000, 685.000000)">
                <polyline id="Path" points="40 18 42 18 44 18 45 18 46 18 47 17 48 16 49 16 49 15 50 14 52 14 53 15 58 16 60 15 63 15 66 15 67 19 67 20 67 22 71 23 77 24 78 25 78 26 78 27 77 27 76 28 75 29 75 30 75 31 76 33 75 34 72 35 72 42 70 42 68 42 67 41 67 42 68 44 69 47 70 47 71 47 74 48 75 52 73 52 71 52 69 53 70 54 69 56 68 57 67 57 67 58 67 59 67 64 66 70 65 70 64 70 65 73 64 74 62 76 60 77 59 77 58 78 57 79 55 78 55 77 54 76 53 77 53 78 53 79 52 80 51 81 50 82 49 83 49 84 49 85 49 86 48 86 47 86 46 86 45 87 43 89 42 95 42 97 41 98 38 98 37 105 37 106 37 105 34 101 33 99 31 96 30 94 32 91 31 91 30 90 28 90 28 91 27 91 27 92 25 92 23 91 22 91 19 90 18 90 18 89 16 85 15 85 14 85 13 85 12 83 13 83 13 82 13 80 12 77 11 77 11 76 10 76 10 77 9 77 8 75 7 73 8 73 10 73 11 72 11 69 10 66 9 65 8 65 4 64 4 65 3 65 2 64 1 62 0 62 1 61 3 59 6 58 7 58 9 59 10 59 10 60 11 60 13 61 17 58 17 57 18 56 18 54 19 52 22 46 24 45 28 46 30 46 31 46 32 45 31 45 31 44 31 43 32 42 33 42 33 41 34 39 34 38 34 37 34 36 32 35 29 34 29 33 30 32 30 30 29 29 28 29 27 28 27 27 29 26 30 27 31 26 31 24 31 23 31 22 30 21 31 20 33 19 33 20 34 20 34 19 34 18 31 10 30 10 30 7 31 6 32 5 33 5 33 4 33 3 33 2 33 1 35 1 36 0 36 1 37 2 38 6 39 8 39 12 38 13 38 17 38 18 39 18 40 18"></polyline>
            </g>
        </g>
    </g>
</svg>