<?xml version="1.0" encoding="UTF-8"?>
<svg width="106px" height="73px" viewBox="0 0 106 73" version="1.1" xmlns="http://www.w3.org/2000/svg" xmlns:xlink="http://www.w3.org/1999/xlink">
    <!-- Generator: Sketch 52.4 (67378) - http://www.bohemiancoding.com/sketch -->
    <title>234</title>
    <desc>Created with Sketch.</desc>
    <g id="Page-1" stroke="none" stroke-width="1" fill="none" fill-rule="evenodd">
        <g id="wahlkreise_gen" transform="translate(-506.000000, -705.000000)" fill="#000000">
            <g id="234" transform="translate(506.000000, 705.000000)">
                <polyline id="Path" points="25 4 24 4 25 5 26 7 30 9 33 11 34 11 35 11 34 11 36 9 39 8 40 8 41 8 43 7 45 5 46 5 49 7 50 6 51 6 51 5 52 4 53 5 55 6 54 6 55 6 55 7 56 7 57 7 58 7 59 8 59 12 59 13 58 14 59 14 60 15 60 16 60 17 61 17 61 18 61 19 62 20 65 21 69 24 70 26 69 26 69 27 71 30 72 30 73 31 79 31 80 30 80 29 81 29 82 29 85 30 86 30 88 31 93 35 93 36 93 37 93 38 94 40 96 41 97 42 102 48 104 50 105 51 106 51 105 53 103 57 103 58 103 59 102 59 101 59 99 58 98 57 97 56 97 55 96 54 89 53 88 55 87 56 85 58 83 58 82 58 82 57 81 57 78 57 76 58 75 59 74 59 74 58 73 58 72 59 72 60 72 61 71 61 66 62 65 62 64 62 61 62 60 62 58 63 57 63 54 64 53 65 52 66 52 67 52 68 52 69 51 69 49 69 48 71 47 71 47 72 48 72 47 73 43 70 44 69 43 65 43 64 42 64 40 63 39 63 38 63 39 64 40 65 38 65 35 66 34 66 34 65 33 61 33 60 34 60 33 58 33 57 32 57 31 56 30 56 27 57 26 54 25 54 24 54 23 54 23 53 22 52 22 51 22 49 21 49 21 48 21 49 19 51 19 54 18 55 16 56 16 57 15 58 15 59 9 57 7 56 7 55 6 54 4 54 2 54 1 53 0 50 1 50 2 50 3 44 3 39 3 38 3 37 4 37 5 36 6 34 5 33 7 32 9 32 11 32 10 28 7 27 6 27 5 27 4 24 3 22 3 21 4 22 6 22 8 22 8 15 11 14 12 13 11 11 11 10 11 9 12 8 13 7 14 7 15 6 20 3 20 2 19 2 20 0 23 1 25 3 25 4"></polyline>
            </g>
        </g>
    </g>
</svg>