<?xml version="1.0" encoding="UTF-8"?>
<svg width="72px" height="49px" viewBox="0 0 72 49" version="1.1" xmlns="http://www.w3.org/2000/svg" xmlns:xlink="http://www.w3.org/1999/xlink">
    <!-- Generator: Sketch 52.4 (67378) - http://www.bohemiancoding.com/sketch -->
    <title>236</title>
    <desc>Created with Sketch.</desc>
    <g id="Page-1" stroke="none" stroke-width="1" fill="none" fill-rule="evenodd">
        <g id="wahlkreise_gen" transform="translate(-378.000000, -660.000000)" fill="#000000">
            <g id="236" transform="translate(378.000000, 660.000000)">
                <polyline id="Path" points="34 3 34 4 35 4 36 4 37 3 38 2 37 2 37 1 39 1 41 1 42 2 42 4 41 4 40 4 40 3 39 3 39 5 39 6 41 6 42 6 43 7 45 8 46 9 47 9 50 10 51 10 52 9 53 9 54 11 54 13 54 14 55 17 56 17 58 17 58 18 59 19 59 21 58 22 58 23 57 24 57 25 57 26 60 28 61 29 62 31 63 33 64 33 66 37 66 38 65 38 62 39 64 41 66 42 67 43 69 44 69 45 70 45 71 45 72 45 71 47 69 47 67 48 63 49 61 49 58 49 57 49 55 48 54 47 54 46 54 45 54 44 53 43 52 42 52 40 51 39 51 38 50 39 49 39 48 38 45 37 42 35 41 34 41 33 42 32 41 28 41 27 41 26 40 26 40 25 39 25 36 26 35 28 32 29 30 29 29 27 28 27 23 24 20 27 20 28 19 28 20 28 21 29 22 29 22 31 19 32 18 33 16 31 15 31 13 30 10 29 9 29 9 28 10 27 9 27 8 24 6 23 4 24 4 25 3 25 2 25 1 21 0 20 1 19 0 17 1 14 1 13 2 13 3 13 4 14 5 14 5 13 9 13 10 14 12 15 13 16 14 16 15 15 16 14 19 11 20 10 21 7 22 7 23 8 27 11 28 11 32 12 33 12 33 7 33 6 33 3 32 3 31 2 31 1 31 0 32 0 33 0 33 1 34 3"></polyline>
            </g>
        </g>
    </g>
</svg>