<?xml version="1.0" encoding="UTF-8"?>
<svg width="81px" height="57px" viewBox="0 0 81 57" version="1.1" xmlns="http://www.w3.org/2000/svg" xmlns:xlink="http://www.w3.org/1999/xlink">
    <!-- Generator: Sketch 52.4 (67378) - http://www.bohemiancoding.com/sketch -->
    <title>240</title>
    <desc>Created with Sketch.</desc>
    <g id="Page-1" stroke="none" stroke-width="1" fill="none" fill-rule="evenodd">
        <g id="wahlkreise_gen" transform="translate(-400.000000, -620.000000)" fill="#000000">
            <g id="240" transform="translate(400.000000, 620.000000)">
                <polyline id="Path" points="76 1 75 1 74 4 76 4 78 6 80 8 80 11 79 11 78 13 79 14 80 14 80 13 81 13 81 14 80 16 79 16 78 16 77 17 77 18 78 19 79 19 80 18 80 21 81 22 81 23 80 24 79 25 78 25 77 29 75 30 74 31 74 32 73 33 63 37 61 37 59 38 59 40 57 43 57 44 56 43 55 43 54 42 53 41 51 40 48 39 47 37 46 35 45 37 45 38 44 39 42 40 41 42 41 43 42 43 42 44 42 45 42 46 42 47 41 49 41 51 42 51 44 52 45 52 44 53 44 54 44 56 40 57 39 57 39 56 37 56 36 57 34 57 33 57 32 54 32 53 32 51 31 49 30 49 29 50 28 50 25 49 24 49 23 48 21 47 20 46 19 46 17 46 17 45 17 43 18 43 18 44 19 44 20 44 20 42 19 41 17 41 15 41 15 42 16 42 15 43 14 44 13 44 12 44 12 43 11 41 11 40 10 40 9 40 9 41 9 42 10 43 11 43 11 46 11 47 11 52 10 52 6 51 5 51 1 48 0 47 2 45 3 43 4 41 4 40 4 37 4 33 5 31 6 30 7 30 7 31 8 32 9 32 9 31 10 30 10 29 10 28 10 27 11 27 12 27 12 26 12 24 14 24 14 23 14 22 15 22 17 21 18 21 18 22 19 22 19 20 18 18 17 18 17 17 20 14 22 13 24 13 24 11 23 10 23 9 22 9 23 8 26 8 29 9 32 8 36 10 37 10 37 11 38 11 39 12 40 10 40 9 42 9 44 11 45 13 47 14 51 14 52 14 53 14 54 13 54 12 54 11 55 10 56 10 56 11 55 11 56 12 57 12 58 12 60 11 59 10 59 9 58 9 60 7 64 3 65 2 68 0 69 0 69 1 71 1 72 1 73 0 74 0 75 0 76 0 76 1"></polyline>
            </g>
        </g>
    </g>
</svg>