<?xml version="1.0" encoding="UTF-8"?>
<svg width="81px" height="51px" viewBox="0 0 81 51" version="1.1" xmlns="http://www.w3.org/2000/svg" xmlns:xlink="http://www.w3.org/1999/xlink">
    <!-- Generator: Sketch 52.4 (67378) - http://www.bohemiancoding.com/sketch -->
    <title>243</title>
    <desc>Created with Sketch.</desc>
    <g id="Page-1" stroke="none" stroke-width="1" fill="none" fill-rule="evenodd">
        <g id="wahlkreise_gen" transform="translate(-347.000000, -689.000000)" fill="#000000">
            <g id="243" transform="translate(347.000000, 689.000000)">
                <polyline id="Path" points="44 1 46 2 47 2 49 4 48 4 47 4 46 4 44 6 44 8 45 10 46 10 47 10 48 10 48 9 50 9 52 8 53 8 55 8 56 8 56 9 60 12 61 13 60 15 59 16 58 16 58 17 58 18 58 21 58 22 59 22 60 21 61 22 63 24 63 25 63 27 63 28 65 28 68 27 71 27 73 27 73 28 78 27 80 31 81 34 81 36 80 37 78 40 81 43 81 44 81 45 81 46 80 47 79 47 78 47 76 48 74 48 74 49 74 50 73 51 69 51 68 51 63 49 61 48 58 45 57 45 57 44 58 44 56 41 55 41 54 41 53 41 53 42 51 42 49 43 48 43 45 43 45 42 43 41 41 41 40 41 39 40 36 42 35 42 35 43 31 42 28 43 27 44 24 45 22 43 21 44 19 45 19 44 18 44 16 41 15 40 16 39 17 38 15 35 14 35 13 35 12 35 12 34 11 35 10 35 7 36 6 37 5 37 4 37 4 36 3 35 3 34 4 33 3 32 1 28 1 27 1 26 0 25 0 22 1 19 3 18 4 18 7 19 7 20 7 21 9 22 11 20 11 19 11 18 11 17 12 17 12 16 13 16 14 17 16 17 18 18 23 17 24 17 27 16 25 10 23 8 23 7 26 4 29 2 31 1 32 1 33 2 35 1 36 0 38 0 40 0 41 0 44 1"></polyline>
            </g>
        </g>
    </g>
</svg>