<?xml version="1.0" encoding="UTF-8"?>
<svg width="17px" height="16px" viewBox="0 0 17 16" version="1.1" xmlns="http://www.w3.org/2000/svg" xmlns:xlink="http://www.w3.org/1999/xlink">
    <!-- Generator: Sketch 52.4 (67378) - http://www.bohemiancoding.com/sketch -->
    <title>244</title>
    <desc>Created with Sketch.</desc>
    <g id="Page-1" stroke="none" stroke-width="1" fill="none" fill-rule="evenodd">
        <g id="wahlkreise_gen" transform="translate(-425.000000, -716.000000)" fill="#000000">
            <g id="244" transform="translate(425.000000, 716.000000)">
                <polyline id="Path" points="3 0 3 1 6 4 8 5 9 5 9 4 10 3 11 3 11 4 12 6 14 8 16 8 17 9 16 10 14 11 13 12 12 12 13 13 14 14 14 15 15 15 14 15 11 16 10 15 10 14 10 13 9 13 7 12 6 12 3 10 2 10 3 9 3 7 2 4 0 0 3 0"></polyline>
            </g>
        </g>
    </g>
</svg>