<?xml version="1.0" encoding="UTF-8"?>
<svg width="63px" height="93px" viewBox="0 0 63 93" version="1.1" xmlns="http://www.w3.org/2000/svg" xmlns:xlink="http://www.w3.org/1999/xlink">
    <!-- Generator: Sketch 52.4 (67378) - http://www.bohemiancoding.com/sketch -->
    <title>246</title>
    <desc>Created with Sketch.</desc>
    <g id="Page-1" stroke="none" stroke-width="1" fill="none" fill-rule="evenodd">
        <g id="wahlkreise_gen" transform="translate(-413.000000, -692.000000)" fill="#000000">
            <g id="246" transform="translate(413.000000, 692.000000)">
                <polyline id="Path" points="60 3 63 11 63 12 63 13 62 13 62 12 60 13 59 14 60 15 60 16 60 17 60 19 59 20 58 19 56 20 56 21 57 22 58 22 59 23 59 25 58 26 58 27 61 28 63 29 63 30 63 31 63 32 62 34 62 35 61 35 60 36 60 37 60 38 61 38 60 39 59 39 57 39 53 38 51 39 48 45 47 47 47 49 46 50 46 51 42 54 40 53 39 53 39 52 38 52 36 51 35 51 32 52 30 54 29 55 30 55 31 57 32 58 33 58 33 57 37 58 38 58 39 59 40 62 40 65 39 66 37 66 36 66 37 68 38 70 39 70 39 69 40 69 40 70 41 70 42 73 42 75 42 76 41 76 42 78 43 78 44 78 45 78 47 82 47 83 48 83 50 85 51 86 50 88 46 91 45 91 44 91 43 92 43 93 39 93 38 92 37 92 37 91 37 90 37 89 36 88 36 87 34 87 33 87 32 87 30 86 29 85 27 83 24 82 19 78 18 78 18 77 14 75 14 74 13 74 9 75 9 76 9 77 8 77 7 76 3 74 2 73 2 72 1 70 0 69 2 66 3 65 4 64 5 63 6 62 6 61 5 56 4 54 3 53 2 52 2 51 2 50 2 49 2 48 3 48 7 48 8 47 8 46 8 45 10 45 12 44 13 44 13 45 12 45 11 47 11 48 12 51 14 55 15 56 16 56 17 55 17 54 18 53 20 52 20 53 21 53 20 50 21 50 21 49 23 48 23 47 23 46 22 45 22 44 23 43 24 43 25 43 26 43 27 43 28 43 29 43 31 39 30 38 28 38 28 39 29 39 28 39 27 39 26 39 26 38 25 37 24 36 25 36 26 35 28 34 29 33 28 32 28 31 27 31 27 30 28 27 29 21 30 20 35 18 37 17 37 16 36 15 37 13 38 13 40 10 41 10 41 9 41 8 41 7 42 7 43 6 44 6 46 10 46 11 46 12 48 13 49 13 49 12 49 11 52 10 54 8 55 8 56 8 56 9 57 9 58 9 59 9 59 8 59 7 59 6 59 5 59 4 58 3 58 2 59 0 59 3 60 3"></polyline>
                <polyline id="Path" points="35 38 35 39 37 39 36 38 36 37 36 36 35 36 34 36 35 38"></polyline>
            </g>
        </g>
    </g>
</svg>