<?xml version="1.0" encoding="UTF-8"?>
<svg width="95px" height="135px" viewBox="0 0 95 135" version="1.1" xmlns="http://www.w3.org/2000/svg" xmlns:xlink="http://www.w3.org/1999/xlink">
    <!-- Generator: Sketch 52.4 (67378) - http://www.bohemiancoding.com/sketch -->
    <title>25</title>
    <desc>Created with Sketch.</desc>
    <g id="Page-1" stroke="none" stroke-width="1" fill="none" fill-rule="evenodd">
        <g id="wahlkreise_gen" transform="translate(-75.000000, -185.000000)" fill="#000000">
            <g id="25" transform="translate(75.000000, 185.000000)">
                <polyline id="Path" points="91 34 91 35 92 35 94 34 95 37 94 40 93 41 93 42 92 44 86 50 85 51 83 52 80 53 80 54 80 55 80 56 81 57 82 59 77 58 76 58 76 59 76 60 76 61 76 63 75 65 74 67 74 70 73 72 73 75 79 79 80 80 81 80 81 81 81 86 81 87 83 89 85 91 86 91 87 91 89 92 90 93 90 94 89 94 86 98 86 99 85 99 83 100 82 101 81 101 80 102 80 103 80 104 80 105 79 107 79 108 78 108 78 109 76 109 76 110 75 109 74 109 73 109 65 114 60 117 59 116 57 112 55 113 54 113 53 114 50 113 49 113 45 112 45 113 44 114 41 116 40 116 38 116 37 116 35 117 34 121 36 121 38 124 39 126 38 127 37 127 36 127 36 126 36 127 35 127 34 127 34 129 33 132 34 135 32 135 31 135 31 134 27 132 26 131 25 131 23 132 23 131 24 129 24 128 27 129 28 128 29 116 29 113 29 111 29 109 30 106 31 102 33 99 36 93 39 89 41 83 41 82 41 80 41 78 41 76 41 73 41 71 41 69 41 67 41 66 40 66 39 65 39 64 40 61 41 59 43 58 42 53 42 50 41 43 41 40 45 40 47 39 49 40 50 39 50 36 51 36 52 36 53 36 58 36 59 36 60 35 63 34 64 34 69 36 72 38 72 39 74 39 78 38 79 38 79 37 83 36 85 35 90 34 91 34"></polyline>
                <polyline id="Path" points="16 4 17 4 16 4 17 4 16 4"></polyline>
                <polyline id="Path" points="11 3 10 3 9 3 8 3 6 4 6 5 6 6 5 7 4 7 1 5 0 4 0 3 1 2 8 0 9 0 10 1 12 2 13 2 12 2 12 3 11 3"></polyline>
            </g>
        </g>
    </g>
</svg>