<?xml version="1.0" encoding="UTF-8"?>
<svg width="51px" height="84px" viewBox="0 0 51 84" version="1.1" xmlns="http://www.w3.org/2000/svg" xmlns:xlink="http://www.w3.org/1999/xlink">
    <!-- Generator: Sketch 52.4 (67378) - http://www.bohemiancoding.com/sketch -->
    <title>250</title>
    <desc>Created with Sketch.</desc>
    <g id="Page-1" stroke="none" stroke-width="1" fill="none" fill-rule="evenodd">
        <g id="wahlkreise_gen" transform="translate(-337.000000, -627.000000)" fill="#000000">
            <g id="250" transform="translate(337.000000, 627.000000)">
                <polyline id="Path" points="39 9 37 11 37 12 37 14 37 15 37 16 36 17 36 18 39 19 39 20 40 20 37 25 36 25 33 26 32 26 31 26 30 26 31 27 31 28 32 28 33 28 36 28 36 29 38 32 41 35 43 38 44 38 46 40 48 43 48 44 44 44 45 45 46 46 46 47 45 47 44 46 43 46 42 46 42 47 41 50 42 52 41 53 42 54 43 58 44 58 45 58 45 57 47 56 49 57 50 60 51 60 50 61 50 62 48 62 46 62 45 63 43 64 42 63 41 63 39 64 36 66 33 69 33 70 35 72 37 78 34 79 33 79 28 80 26 79 24 79 23 78 22 78 22 79 21 79 21 80 21 81 21 82 19 84 17 83 17 82 17 81 14 80 13 80 13 79 12 79 11 78 11 76 12 75 13 74 14 74 15 74 15 71 12 69 9 67 8 66 8 64 9 62 9 60 9 57 9 56 9 54 10 53 11 52 14 51 17 51 17 50 18 50 17 48 17 47 19 45 19 43 18 42 17 43 16 43 14 43 12 42 10 39 9 38 7 37 6 37 7 36 7 33 7 32 6 32 5 32 4 33 4 32 4 31 5 31 6 31 7 30 7 29 7 26 6 26 6 25 5 26 4 26 2 25 2 24 2 23 0 24 0 23 0 22 1 20 2 18 4 17 6 17 7 17 8 17 14 17 15 15 15 14 15 13 17 12 17 11 23 10 28 10 30 10 32 8 32 7 32 6 32 3 33 2 33 1 34 0 35 0 36 1 38 2 41 5 40 5 40 6 40 7 39 9"></polyline>
            </g>
        </g>
    </g>
</svg>