<?xml version="1.0" encoding="UTF-8"?>
<svg width="16px" height="29px" viewBox="0 0 16 29" version="1.1" xmlns="http://www.w3.org/2000/svg" xmlns:xlink="http://www.w3.org/1999/xlink">
    <!-- Generator: Sketch 52.4 (67378) - http://www.bohemiancoding.com/sketch -->
    <title>252</title>
    <desc>Created with Sketch.</desc>
    <g id="Page-1" stroke="none" stroke-width="1" fill="none" fill-rule="evenodd">
        <g id="wahlkreise_gen" transform="translate(-410.000000, -857.000000)" fill="#000000">
            <g id="252" transform="translate(410.000000, 857.000000)">
                <polyline id="Path" points="14 6 16 9 16 10 16 11 15 16 16 18 16 19 16 20 15 24 13 26 12 26 12 28 12 29 11 29 9 28 8 27 9 22 9 21 7 21 3 22 0 21 0 20 0 16 3 14 4 14 4 15 5 15 7 14 8 11 7 10 6 9 6 8 8 6 8 7 9 6 10 6 10 4 10 3 10 1 9 0 10 0 11 0 13 4 14 6"></polyline>
            </g>
        </g>
    </g>
</svg>