<?xml version="1.0" encoding="UTF-8"?>
<svg width="62px" height="71px" viewBox="0 0 62 71" version="1.1" xmlns="http://www.w3.org/2000/svg" xmlns:xlink="http://www.w3.org/1999/xlink">
    <!-- Generator: Sketch 52.4 (67378) - http://www.bohemiancoding.com/sketch -->
    <title>253</title>
    <desc>Created with Sketch.</desc>
    <g id="Page-1" stroke="none" stroke-width="1" fill="none" fill-rule="evenodd">
        <g id="wahlkreise_gen" transform="translate(-386.000000, -833.000000)" fill="#000000">
            <g id="253" transform="translate(386.000000, 833.000000)">
                <polyline id="Path" points="36 52 36 50 37 50 39 48 40 44 40 43 40 42 39 40 40 35 40 34 40 33 38 30 37 28 35 24 34 24 33 24 34 25 34 27 34 28 34 30 33 30 32 31 32 30 30 32 30 33 31 34 32 35 31 38 29 39 28 39 28 38 27 38 24 40 24 44 24 45 27 46 31 45 33 45 33 46 32 51 33 52 35 53 36 53 36 52 36 54 35 56 35 58 33 62 32 63 31 64 30 64 28 64 27 64 26 64 26 65 26 67 27 68 27 70 26 70 21 71 19 71 18 71 17 67 17 66 18 66 18 65 19 65 18 62 17 61 16 61 15 61 12 62 10 62 8 62 5 61 5 60 7 60 8 58 9 57 9 56 8 56 7 56 6 55 6 54 6 53 7 51 8 48 9 48 9 47 8 44 8 43 6 42 5 42 5 43 4 43 3 43 0 43 0 41 1 41 1 40 2 40 2 39 2 37 2 35 2 34 3 33 4 31 3 31 1 30 4 28 3 24 3 23 4 22 5 22 5 21 10 20 10 19 15 19 17 19 17 20 18 20 18 21 19 21 23 19 23 18 22 18 22 17 23 16 24 14 23 10 23 9 23 7 23 6 24 5 24 3 25 3 28 2 29 1 32 0 33 0 33 2 33 3 33 4 34 6 35 7 36 7 37 7 40 8 41 9 41 10 42 12 37 13 36 13 35 13 32 14 32 16 32 17 32 18 32 19 34 18 36 17 37 17 40 18 41 20 41 21 44 22 45 21 45 20 46 18 48 15 50 16 50 17 50 18 51 18 54 18 54 17 61 21 61 22 60 25 60 26 61 26 62 26 61 28 60 31 59 34 58 35 58 36 58 38 58 39 55 41 55 42 54 42 54 44 54 45 54 46 54 47 54 48 53 49 52 48 52 47 51 46 50 46 50 47 48 50 47 53 48 54 49 57 47 58 47 57 43 56 42 56 40 54 38 53 37 52 36 52"></polyline>
            </g>
        </g>
    </g>
</svg>