<?xml version="1.0" encoding="UTF-8"?>
<svg width="91px" height="78px" viewBox="0 0 91 78" version="1.1" xmlns="http://www.w3.org/2000/svg" xmlns:xlink="http://www.w3.org/1999/xlink">
    <!-- Generator: Sketch 52.4 (67378) - http://www.bohemiancoding.com/sketch -->
    <title>254</title>
    <desc>Created with Sketch.</desc>
    <g id="Page-1" stroke="none" stroke-width="1" fill="none" fill-rule="evenodd">
        <g id="wahlkreise_gen" transform="translate(-365.000000, -782.000000)" fill="#000000">
            <g id="254" transform="translate(365.000000, 782.000000)">
                <polyline id="Path" points="29 3 30 3 32 3 32 5 34 7 35 7 36 10 37 12 36 13 36 14 35 14 35 15 35 16 36 16 38 18 39 18 39 17 40 16 40 15 43 14 45 12 46 11 47 11 48 13 48 14 48 15 48 16 47 16 47 17 48 18 50 18 51 19 52 20 53 20 54 20 55 19 57 21 58 22 59 22 61 22 63 25 64 26 64 27 61 29 62 32 63 35 63 39 63 40 63 43 64 47 65 48 67 50 67 52 66 53 67 55 68 55 68 56 70 56 72 55 75 57 76 57 77 57 77 56 78 57 78 58 78 60 78 61 78 63 82 65 82 67 82 68 83 68 83 69 87 73 88 73 90 72 91 74 91 75 89 75 87 76 86 76 86 77 85 77 84 78 83 77 82 77 81 77 81 76 82 73 82 72 75 68 75 69 72 69 71 69 71 68 71 67 69 66 67 69 66 71 66 72 65 73 62 72 62 71 61 69 58 68 57 68 55 69 53 70 53 69 53 68 53 67 53 65 56 64 57 64 58 64 63 63 62 61 62 60 61 59 58 58 57 58 56 58 55 57 54 55 54 54 54 53 54 51 53 51 50 52 49 53 46 54 45 54 45 56 44 57 44 58 44 60 44 61 45 65 44 67 43 68 43 69 44 69 44 70 40 72 39 72 39 71 38 71 38 70 36 70 31 70 31 71 26 72 26 73 25 73 24 74 23 73 20 72 18 72 15 73 15 71 14 68 12 69 11 71 8 71 7 73 6 73 4 72 2 69 2 68 3 68 4 68 5 67 5 63 5 62 5 60 4 59 3 59 3 58 3 57 4 57 4 55 3 53 2 51 0 50 0 49 0 47 1 44 2 44 6 45 6 46 7 46 7 47 8 47 8 49 8 50 9 50 10 48 11 47 11 46 13 44 15 44 15 45 15 46 14 46 13 48 13 49 15 49 17 48 18 48 20 46 20 44 19 44 17 40 16 39 14 38 13 38 13 37 13 35 14 35 16 30 16 29 16 28 16 23 16 15 16 13 14 10 13 9 12 9 12 8 14 7 13 6 13 5 16 4 17 3 19 3 20 4 23 4 24 4 23 3 23 2 24 1 25 0 26 0 27 0 28 0 28 1 28 2 29 2 29 3"></polyline>
            </g>
        </g>
    </g>
</svg>