<?xml version="1.0" encoding="UTF-8"?>
<svg width="79px" height="76px" viewBox="0 0 79 76" version="1.1" xmlns="http://www.w3.org/2000/svg" xmlns:xlink="http://www.w3.org/1999/xlink">
    <!-- Generator: Sketch 52.4 (67378) - http://www.bohemiancoding.com/sketch -->
    <title>256</title>
    <desc>Created with Sketch.</desc>
    <g id="Page-1" stroke="none" stroke-width="1" fill="none" fill-rule="evenodd">
        <g id="wahlkreise_gen" transform="translate(-310.000000, -936.000000)" fill="#000000">
            <g id="256" transform="translate(310.000000, 936.000000)">
                <polyline id="Path" points="57 0 59 0 62 0 63 0 66 6 68 6 71 7 72 7 72 8 72 9 73 11 73 12 74 13 75 15 75 18 75 21 77 21 78 21 78 22 79 26 79 27 79 28 78 28 78 29 77 29 76 29 74 31 75 32 76 32 76 33 76 34 76 35 73 35 73 37 74 38 74 39 74 40 74 42 73 43 73 45 73 46 73 48 74 48 75 48 76 49 77 55 75 56 73 57 73 59 70 62 66 67 66 69 63 71 60 74 56 76 51 76 50 76 50 75 51 74 51 73 52 73 53 73 53 72 54 71 54 70 53 69 54 66 55 64 55 63 55 61 51 60 50 61 50 62 50 63 49 64 48 64 47 64 45 63 44 65 42 61 41 59 42 58 43 57 44 56 43 54 42 52 41 52 40 51 39 48 37 48 37 49 36 49 35 49 34 48 32 44 32 42 32 41 31 41 30 42 28 43 27 43 27 42 27 41 26 41 24 40 24 41 24 42 24 43 22 42 19 41 19 39 19 37 19 36 19 35 17 34 15 35 14 35 14 36 13 37 12 38 12 39 12 40 11 41 11 42 4 39 1 38 0 37 0 36 2 35 3 33 4 32 5 32 7 32 7 33 8 33 9 34 13 32 16 30 18 27 19 26 20 25 20 24 21 24 23 24 24 24 24 25 25 25 28 26 31 27 32 27 32 26 33 25 34 24 35 23 37 22 40 23 40 24 41 25 41 27 41 28 41 27 42 26 43 25 44 25 46 24 46 23 47 21 47 20 46 20 46 19 45 19 45 18 44 15 44 13 43 12 41 11 41 9 42 8 44 7 45 6 46 5 47 4 51 2 53 2 54 2 55 2 56 1 56 0 57 0"></polyline>
            </g>
        </g>
    </g>
</svg>