<?xml version="1.0" encoding="UTF-8"?>
<svg width="77px" height="91px" viewBox="0 0 77 91" version="1.1" xmlns="http://www.w3.org/2000/svg" xmlns:xlink="http://www.w3.org/1999/xlink">
    <!-- Generator: Sketch 52.4 (67378) - http://www.bohemiancoding.com/sketch -->
    <title>257</title>
    <desc>Created with Sketch.</desc>
    <g id="Page-1" stroke="none" stroke-width="1" fill="none" fill-rule="evenodd">
        <g id="wahlkreise_gen" transform="translate(-351.000000, -888.000000)" fill="#000000">
            <g id="257" transform="translate(351.000000, 888.000000)">
                <polyline id="Path" points="40 2 41 3 42 2 42 1 43 1 44 1 44 2 43 3 42 5 40 5 40 6 43 7 45 7 47 7 50 6 51 6 52 6 53 7 54 10 53 10 53 11 52 11 52 12 53 16 54 16 56 16 61 15 62 15 63 15 64 15 63 17 62 18 61 18 59 22 59 23 59 24 60 24 61 24 61 23 62 23 63 23 63 24 64 24 65 28 65 29 63 37 62 37 61 38 60 43 60 47 60 49 59 49 59 53 59 55 60 56 60 59 59 59 58 59 58 62 58 64 58 65 58 66 57 66 56 66 56 67 58 69 59 69 61 67 62 66 63 65 64 64 66 64 66 65 63 71 62 71 62 72 63 73 64 73 66 73 67 72 68 72 69 72 71 73 73 75 76 78 77 78 76 80 75 82 73 83 72 83 71 83 70 84 70 85 71 88 72 88 71 88 70 89 69 89 65 90 64 91 62 91 61 91 61 90 61 89 60 89 59 88 58 88 57 89 57 88 55 88 55 87 54 87 54 86 46 85 45 87 45 88 44 89 39 89 37 89 34 86 35 85 35 83 35 82 35 81 35 80 34 80 33 79 35 77 36 77 37 77 37 76 38 76 38 75 38 74 37 70 37 69 36 69 34 69 34 66 34 63 33 61 32 60 32 59 31 57 31 56 31 55 30 55 27 54 25 54 22 48 21 48 18 48 16 48 15 48 15 49 14 50 13 50 12 50 10 50 6 52 5 53 4 52 0 48 0 47 1 47 2 45 2 43 2 42 2 39 3 38 1 37 1 36 0 36 0 35 0 34 1 34 1 33 2 33 3 33 3 31 3 29 4 28 4 27 5 26 8 26 9 26 9 25 10 25 11 24 12 24 13 23 13 24 15 24 16 24 17 25 18 28 19 29 18 29 18 30 18 31 19 31 20 30 21 29 21 28 22 28 22 27 23 27 25 26 26 26 27 26 28 27 29 27 30 26 31 24 31 23 31 22 31 21 31 20 31 19 32 18 34 17 35 16 37 16 37 17 38 17 38 16 38 14 38 13 37 12 36 10 34 8 30 7 29 7 28 6 27 6 26 6 27 5 27 6 27 5 28 5 28 4 29 4 30 4 31 4 31 3 31 2 34 1 36 0 37 0 38 0 39 2 40 2"></polyline>
            </g>
        </g>
    </g>
</svg>