<?xml version="1.0" encoding="UTF-8"?>
<svg width="31px" height="43px" viewBox="0 0 31 43" version="1.1" xmlns="http://www.w3.org/2000/svg" xmlns:xlink="http://www.w3.org/1999/xlink">
    <!-- Generator: Sketch 52.4 (67378) - http://www.bohemiancoding.com/sketch -->
    <title>260</title>
    <desc>Created with Sketch.</desc>
    <g id="Page-1" stroke="none" stroke-width="1" fill="none" fill-rule="evenodd">
        <g id="wahlkreise_gen" transform="translate(-235.000000, -810.000000)" fill="#000000">
            <g id="260" transform="translate(235.000000, 810.000000)">
                <polyline id="Path" points="21 0 24 0 24 1 25 1 26 2 25 3 24 4 26 9 27 10 26 12 28 14 28 15 29 15 29 16 30 16 31 16 31 17 31 19 30 19 29 19 29 20 29 21 31 22 30 27 30 28 28 31 22 32 20 31 18 32 14 34 12 35 9 38 10 41 10 42 8 43 4 42 4 41 2 40 1 40 1 39 0 31 2 30 3 30 4 31 5 29 4 28 4 27 4 26 4 25 4 23 7 21 9 19 10 18 11 14 10 13 9 13 7 12 5 8 4 8 4 7 5 7 6 6 7 5 7 4 8 4 8 5 9 5 10 5 12 4 13 2 14 2 15 1 16 1 18 0 19 0 21 0"></polyline>
            </g>
        </g>
    </g>
</svg>