<?xml version="1.0" encoding="UTF-8"?>
<svg width="25px" height="18px" viewBox="0 0 25 18" version="1.1" xmlns="http://www.w3.org/2000/svg" xmlns:xlink="http://www.w3.org/1999/xlink">
    <!-- Generator: Sketch 52.4 (67378) - http://www.bohemiancoding.com/sketch -->
    <title>261</title>
    <desc>Created with Sketch.</desc>
    <g id="Page-1" stroke="none" stroke-width="1" fill="none" fill-rule="evenodd">
        <g id="wahlkreise_gen" transform="translate(-275.000000, -816.000000)" fill="#000000">
            <g id="261" transform="translate(275.000000, 816.000000)">
                <polyline id="Path" points="16 1 17 1 19 1 20 1 22 2 23 2 23 3 25 4 25 6 24 8 24 10 24 11 24 13 22 14 19 15 17 16 16 16 16 17 16 18 13 16 13 15 12 15 9 15 9 16 5 16 4 15 3 14 3 13 3 12 2 11 0 8 0 7 3 6 4 6 4 5 5 4 6 2 8 1 9 1 9 2 10 2 15 2 15 1 15 0 16 0 16 1"></polyline>
            </g>
        </g>
    </g>
</svg>