<?xml version="1.0" encoding="UTF-8"?>
<svg width="44px" height="24px" viewBox="0 0 44 24" version="1.1" xmlns="http://www.w3.org/2000/svg" xmlns:xlink="http://www.w3.org/1999/xlink">
    <!-- Generator: Sketch 52.4 (67378) - http://www.bohemiancoding.com/sketch -->
    <title>262</title>
    <desc>Created with Sketch.</desc>
    <g id="Page-1" stroke="none" stroke-width="1" fill="none" fill-rule="evenodd">
        <g id="wahlkreise_gen" transform="translate(-264.000000, -826.000000)" fill="#000000">
            <g id="262" transform="translate(264.000000, 826.000000)">
                <polyline id="Path" points="2 0 3 0 4 0 5 0 6 0 6 1 7 1 8 1 9 2 10 2 11 2 14 2 14 3 14 4 15 5 16 6 20 6 20 5 23 5 24 5 24 6 27 8 27 7 27 6 28 6 30 5 33 4 35 3 35 4 35 5 36 5 37 6 40 7 44 12 44 13 44 15 44 17 44 18 43 18 42 19 41 20 41 21 43 22 42 22 41 22 40 23 39 24 36 24 34 22 33 21 32 21 29 21 29 22 27 23 25 23 21 22 20 21 20 20 18 19 12 19 11 18 10 16 10 15 11 14 10 14 8 14 6 13 6 14 4 14 3 14 2 14 2 13 2 11 1 11 2 6 0 5 0 4 0 3 1 3 2 3 2 1 2 0"></polyline>
            </g>
        </g>
    </g>
</svg>