<?xml version="1.0" encoding="UTF-8"?>
<svg width="47px" height="35px" viewBox="0 0 47 35" version="1.1" xmlns="http://www.w3.org/2000/svg" xmlns:xlink="http://www.w3.org/1999/xlink">
    <!-- Generator: Sketch 52.4 (67378) - http://www.bohemiancoding.com/sketch -->
    <title>266</title>
    <desc>Created with Sketch.</desc>
    <g id="Page-1" stroke="none" stroke-width="1" fill="none" fill-rule="evenodd">
        <g id="wahlkreise_gen" transform="translate(-246.000000, -766.000000)" fill="#000000">
            <g id="266" transform="translate(246.000000, 766.000000)">
                <polyline id="Path" points="22 6 24 9 24 10 25 10 26 10 29 8 33 8 35 7 36 7 37 7 38 8 40 8 40 9 41 9 42 10 42 11 47 13 47 14 46 14 45 13 44 14 45 14 46 14 46 15 46 16 45 16 45 17 45 18 43 19 43 20 40 21 40 23 42 24 42 25 42 26 39 29 38 29 37 29 37 28 37 29 38 30 38 31 42 34 43 33 43 34 41 34 40 34 39 34 38 35 37 35 37 34 36 33 30 32 25 33 21 34 20 34 18 33 15 30 14 29 14 28 14 27 14 26 13 25 9 22 7 21 5 21 4 20 3 19 0 18 0 15 1 11 2 11 3 11 5 11 5 12 7 12 8 12 9 12 9 11 13 8 14 7 16 7 17 7 18 5 17 5 17 4 17 3 17 2 18 0 20 0 24 3 24 4 23 5 22 5 22 6"></polyline>
            </g>
        </g>
    </g>
</svg>