<?xml version="1.0" encoding="UTF-8"?>
<svg width="48px" height="38px" viewBox="0 0 48 38" version="1.1" xmlns="http://www.w3.org/2000/svg" xmlns:xlink="http://www.w3.org/1999/xlink">
    <!-- Generator: Sketch 52.4 (67378) - http://www.bohemiancoding.com/sketch -->
    <title>27</title>
    <desc>Created with Sketch.</desc>
    <g id="Page-1" stroke="none" stroke-width="1" fill="none" fill-rule="evenodd">
        <g id="wahlkreise_gen" transform="translate(-155.000000, -222.000000)" fill="#000000">
            <g id="27" transform="translate(155.000000, 222.000000)">
                <polyline id="Path" points="21 6 24 6 26 5 26 4 27 3 28 2 29 1 30 1 30 2 31 3 34 3 35 2 36 2 36 1 37 0 37 1 37 2 37 4 40 6 41 7 42 6 43 7 45 9 47 15 47 16 47 17 47 18 48 20 47 21 46 23 47 23 47 25 47 26 48 26 47 28 46 29 45 32 45 33 45 34 43 34 41 35 39 34 37 32 33 32 32 32 32 33 31 33 29 34 28 37 27 38 26 37 25 36 23 36 21 36 19 35 19 33 17 31 16 30 15 30 15 31 14 31 12 29 12 26 12 25 12 24 10 23 9 23 7 22 7 23 6 23 4 23 2 23 2 22 1 20 0 19 0 18 0 17 0 16 3 15 5 14 6 13 12 7 13 5 13 4 14 3 15 0 17 1 18 2 19 3 20 3 21 4 21 5 21 6"></polyline>
            </g>
        </g>
    </g>
</svg>