<?xml version="1.0" encoding="UTF-8"?>
<svg width="14px" height="24px" viewBox="0 0 14 24" version="1.1" xmlns="http://www.w3.org/2000/svg" xmlns:xlink="http://www.w3.org/1999/xlink">
    <!-- Generator: Sketch 52.4 (67378) - http://www.bohemiancoding.com/sketch -->
    <title>275</title>
    <desc>Created with Sketch.</desc>
    <g id="Page-1" stroke="none" stroke-width="1" fill="none" fill-rule="evenodd">
        <g id="wahlkreise_gen" transform="translate(-208.000000, -711.000000)" fill="#000000">
            <g id="275" transform="translate(208.000000, 711.000000)">
                <polyline id="Path" points="13 10 14 12 12 13 11 13 11 14 10 14 10 15 12 17 13 17 14 18 14 21 13 22 13 23 12 23 8 23 7 24 6 24 6 23 6 22 7 22 7 21 7 20 6 20 6 19 5 19 4 19 3 19 2 19 1 19 1 18 2 17 3 17 3 16 3 15 1 11 0 7 0 2 0 1 1 0 2 0 3 0 4 1 6 3 8 5 9 6 9 7 9 8 10 8 11 9 11 10 13 10"></polyline>
            </g>
        </g>
    </g>
</svg>