<?xml version="1.0" encoding="UTF-8"?>
<svg width="104px" height="68px" viewBox="0 0 104 68" version="1.1" xmlns="http://www.w3.org/2000/svg" xmlns:xlink="http://www.w3.org/1999/xlink">
    <!-- Generator: Sketch 52.4 (67378) - http://www.bohemiancoding.com/sketch -->
    <title>276</title>
    <desc>Created with Sketch.</desc>
    <g id="Page-1" stroke="none" stroke-width="1" fill="none" fill-rule="evenodd">
        <g id="wahlkreise_gen" transform="translate(-251.000000, -685.000000)" fill="#000000">
            <g id="276" transform="translate(251.000000, 685.000000)">
                <polyline id="Path" points="60 4 59 8 58 11 58 12 59 13 61 14 61 13 62 13 63 13 63 11 63 10 65 8 66 8 66 9 67 12 69 11 70 9 72 8 73 8 75 11 76 11 76 14 75 15 75 16 76 18 76 19 77 19 78 19 79 21 79 22 79 23 77 28 76 29 76 30 75 30 74 30 74 31 78 32 79 31 79 30 79 29 80 28 81 27 82 27 83 27 84 30 84 31 84 33 84 37 83 38 83 39 84 39 84 40 86 40 91 40 92 39 95 36 95 35 94 34 96 32 97 32 99 36 100 37 99 38 99 39 100 40 100 41 100 42 99 42 99 43 98 44 100 45 101 45 102 46 104 51 104 52 102 52 101 52 100 53 100 51 99 51 97 51 96 52 94 53 93 53 94 54 94 55 93 55 91 55 91 54 90 54 88 55 85 57 83 55 80 54 79 54 78 55 77 53 76 52 74 52 69 52 67 51 66 51 61 49 60 47 58 47 57 48 55 48 54 49 55 51 56 51 56 52 54 54 49 54 46 53 46 52 45 52 44 52 43 53 43 55 43 56 42 57 41 57 37 56 37 55 36 55 34 53 33 53 32 54 32 55 32 56 32 57 30 60 28 63 26 64 23 61 22 61 19 60 19 63 19 64 19 67 18 68 16 68 15 68 11 67 10 66 10 65 10 64 9 62 7 60 5 59 3 58 1 55 0 53 1 52 3 52 4 52 5 51 6 49 10 45 9 44 9 43 8 42 11 41 12 40 13 38 12 37 12 35 13 35 14 35 15 36 15 37 16 37 16 36 16 35 15 34 15 33 14 33 13 33 13 32 14 30 14 28 16 29 17 28 20 28 22 29 24 28 26 28 27 27 28 24 29 21 31 18 35 19 38 19 40 19 41 18 40 17 39 16 40 15 41 13 41 11 39 8 38 8 38 9 38 10 38 11 37 12 36 12 35 11 32 7 32 4 32 3 33 3 36 3 39 3 40 2 41 1 42 1 43 1 43 2 43 3 44 3 45 3 45 2 45 1 46 1 48 1 49 1 51 3 52 4 53 3 57 1 60 0 60 1 60 3 60 4"></polyline>
            </g>
        </g>
    </g>
</svg>