<?xml version="1.0" encoding="UTF-8"?>
<svg width="38px" height="46px" viewBox="0 0 38 46" version="1.1" xmlns="http://www.w3.org/2000/svg" xmlns:xlink="http://www.w3.org/1999/xlink">
    <!-- Generator: Sketch 52.4 (67378) - http://www.bohemiancoding.com/sketch -->
    <title>278</title>
    <desc>Created with Sketch.</desc>
    <g id="Page-1" stroke="none" stroke-width="1" fill="none" fill-rule="evenodd">
        <g id="wahlkreise_gen" transform="translate(-204.000000, -734.000000)" fill="#000000">
            <g id="278" transform="translate(204.000000, 734.000000)">
                <polyline id="Path" points="17 0 20 1 20 5 19 5 19 7 20 8 21 8 22 8 19 10 19 14 18 16 16 17 15 20 17 20 16 21 17 21 19 22 20 23 25 24 26 24 27 25 28 24 29 24 29 23 31 25 31 26 31 27 32 27 32 28 34 28 36 28 37 29 38 29 38 30 38 31 37 31 37 32 37 33 37 34 36 34 31 34 30 34 29 33 29 32 28 32 25 32 23 33 23 34 22 36 22 38 23 38 24 38 25 39 26 41 26 42 26 43 25 43 23 45 19 46 18 46 13 44 11 41 11 35 12 31 11 30 11 29 9 30 8 30 7 30 5 29 5 28 4 27 3 27 3 28 3 29 2 29 1 29 0 30 0 28 1 28 1 27 2 26 2 25 1 25 0 25 0 24 1 24 1 23 2 22 3 22 4 21 5 20 7 17 9 16 9 15 9 14 8 14 7 14 7 13 6 13 6 12 6 11 7 11 7 10 8 10 8 9 9 9 9 8 10 8 10 7 10 6 10 5 10 4 9 3 10 2 10 1 11 1 12 0 16 0 17 0"></polyline>
            </g>
        </g>
    </g>
</svg>