<?xml version="1.0" encoding="UTF-8"?>
<svg width="31px" height="32px" viewBox="0 0 31 32" version="1.1" xmlns="http://www.w3.org/2000/svg" xmlns:xlink="http://www.w3.org/1999/xlink">
    <!-- Generator: Sketch 52.4 (67378) - http://www.bohemiancoding.com/sketch -->
    <title>281</title>
    <desc>Created with Sketch.</desc>
    <g id="Page-1" stroke="none" stroke-width="1" fill="none" fill-rule="evenodd">
        <g id="wahlkreise_gen" transform="translate(-132.000000, -902.000000)" fill="#000000">
            <g id="281" transform="translate(132.000000, 902.000000)">
                <polyline id="Path" points="2 1 4 1 7 1 16 1 17 1 19 4 22 6 25 9 25 10 26 13 27 14 28 14 29 14 30 14 31 13 31 14 31 15 31 16 31 17 31 23 29 27 28 28 27 28 26 28 24 29 22 30 19 32 18 32 16 31 13 27 12 25 11 22 10 22 9 21 9 20 8 19 7 19 6 20 6 21 5 21 4 21 4 20 4 19 4 18 4 17 4 16 3 15 1 12 0 11 0 10 0 5 0 4 1 3 1 2 1 1 1 0 2 1"></polyline>
            </g>
        </g>
    </g>
</svg>