<?xml version="1.0" encoding="UTF-8"?>
<svg width="45px" height="57px" viewBox="0 0 45 57" version="1.1" xmlns="http://www.w3.org/2000/svg" xmlns:xlink="http://www.w3.org/1999/xlink">
    <!-- Generator: Sketch 52.4 (67378) - http://www.bohemiancoding.com/sketch -->
    <title>282</title>
    <desc>Created with Sketch.</desc>
    <g id="Page-1" stroke="none" stroke-width="1" fill="none" fill-rule="evenodd">
        <g id="wahlkreise_gen" transform="translate(-126.000000, -921.000000)" fill="#000000">
            <g id="282" transform="translate(126.000000, 921.000000)">
                <polyline id="Path" points="15 2 16 3 17 3 18 6 19 8 22 12 24 13 25 13 28 11 30 10 32 9 33 9 34 12 38 12 39 13 40 13 41 14 42 14 43 14 44 14 45 14 45 15 45 16 45 17 44 18 43 19 43 20 43 22 43 23 44 23 43 26 42 27 41 27 41 28 40 29 40 32 41 34 41 35 41 36 40 38 35 42 34 43 32 43 32 44 32 46 33 47 33 48 34 48 34 49 34 50 33 50 27 50 27 51 26 51 26 52 25 54 24 54 21 55 16 57 15 57 14 57 14 56 13 56 12 55 11 54 12 53 14 53 14 52 15 52 14 49 11 49 11 50 10 50 10 51 9 51 8 51 7 49 7 48 7 47 5 44 5 43 4 43 3 42 2 42 2 41 1 40 1 39 0 35 2 33 3 33 3 32 3 31 3 30 3 29 3 28 2 26 2 25 2 24 3 20 5 17 5 16 5 15 5 14 4 13 4 12 5 12 5 11 6 10 7 10 7 9 7 8 7 6 7 5 7 4 8 4 9 3 9 2 10 2 11 2 12 2 12 1 13 0 14 0 15 1 15 2"></polyline>
            </g>
        </g>
    </g>
</svg>