<?xml version="1.0" encoding="UTF-8"?>
<svg width="45px" height="56px" viewBox="0 0 45 56" version="1.1" xmlns="http://www.w3.org/2000/svg" xmlns:xlink="http://www.w3.org/1999/xlink">
    <!-- Generator: Sketch 52.4 (67378) - http://www.bohemiancoding.com/sketch -->
    <title>284</title>
    <desc>Created with Sketch.</desc>
    <g id="Page-1" stroke="none" stroke-width="1" fill="none" fill-rule="evenodd">
        <g id="wahlkreise_gen" transform="translate(-149.000000, -824.000000)" fill="#000000">
            <g id="284" transform="translate(149.000000, 824.000000)">
                <polyline id="Path" points="23 5 26 6 27 6 28 6 29 8 31 9 32 9 33 8 34 8 37 11 38 11 39 12 41 12 42 12 43 15 43 16 41 15 41 16 41 15 40 15 39 15 39 16 41 18 40 21 40 26 40 28 41 28 41 29 42 30 43 30 44 30 45 31 44 36 44 37 44 39 43 40 41 42 40 42 38 44 37 45 37 46 36 48 34 50 31 49 30 49 30 50 31 51 30 53 26 53 25 53 24 52 24 51 23 52 22 53 21 55 20 56 19 54 19 53 20 52 20 51 19 47 18 45 16 43 15 41 14 41 10 40 9 40 9 41 9 42 8 42 7 42 6 42 6 41 6 40 6 39 5 39 0 37 1 35 1 34 1 33 1 32 1 30 2 29 3 28 4 28 4 27 5 27 5 26 5 20 4 18 4 17 8 10 8 9 10 9 11 8 12 7 13 7 15 4 18 0 21 2 20 3 19 4 20 4 23 5"></polyline>
            </g>
        </g>
    </g>
</svg>