<?xml version="1.0" encoding="UTF-8"?>
<svg width="65px" height="72px" viewBox="0 0 65 72" version="1.1" xmlns="http://www.w3.org/2000/svg" xmlns:xlink="http://www.w3.org/1999/xlink">
    <!-- Generator: Sketch 52.4 (67378) - http://www.bohemiancoding.com/sketch -->
    <title>285</title>
    <desc>Created with Sketch.</desc>
    <g id="Page-1" stroke="none" stroke-width="1" fill="none" fill-rule="evenodd">
        <g id="wahlkreise_gen" transform="translate(-194.000000, -866.000000)" fill="#000000">
            <g id="285" transform="translate(194.000000, 866.000000)">
                <polyline id="Path" points="28 0 29 1 32 0 34 0 36 1 36 2 37 2 38 3 40 3 40 5 38 8 38 10 38 11 35 13 33 13 32 14 32 15 33 15 35 16 37 19 37 20 36 20 37 21 37 23 39 28 40 30 41 31 42 31 42 30 43 28 45 28 46 28 48 30 50 33 52 37 53 38 57 39 59 38 59 39 59 40 60 41 61 41 62 43 62 44 61 45 60 45 59 45 58 45 58 44 57 44 57 45 57 46 59 47 61 48 63 49 64 50 65 54 65 55 64 60 63 61 62 61 61 61 58 61 54 63 52 63 52 64 51 65 50 66 50 67 49 68 48 68 47 68 47 67 47 66 47 65 47 63 47 62 45 63 44 66 43 66 39 66 38 66 37 67 36 68 36 69 36 70 36 71 35 71 35 72 34 72 32 72 32 71 31 71 29 69 28 68 27 65 27 64 27 62 27 60 27 59 28 58 29 58 30 59 33 55 31 49 32 48 31 46 28 42 28 43 27 43 26 43 25 42 23 37 23 36 24 36 24 35 21 30 20 30 17 29 14 28 14 29 14 30 15 31 14 32 13 31 11 30 10 30 9 29 8 30 7 30 6 30 5 31 1 30 0 30 2 28 3 27 3 25 3 24 2 24 2 23 1 22 0 15 0 14 2 14 3 14 4 14 4 13 5 13 4 9 4 8 3 8 3 7 2 7 4 6 4 5 3 4 4 2 5 2 6 2 7 2 7 3 7 4 7 5 7 8 8 8 8 9 9 10 10 10 14 11 16 11 19 11 19 9 18 7 18 2 21 0 23 0 27 0 28 0"></polyline>
            </g>
        </g>
    </g>
</svg>