<?xml version="1.0" encoding="UTF-8"?>
<svg width="53px" height="37px" viewBox="0 0 53 37" version="1.1" xmlns="http://www.w3.org/2000/svg" xmlns:xlink="http://www.w3.org/1999/xlink">
    <!-- Generator: Sketch 52.4 (67378) - http://www.bohemiancoding.com/sketch -->
    <title>287</title>
    <desc>Created with Sketch.</desc>
    <g id="Page-1" stroke="none" stroke-width="1" fill="none" fill-rule="evenodd">
        <g id="wahlkreise_gen" transform="translate(-223.000000, -926.000000)" fill="#000000">
            <g id="287" transform="translate(223.000000, 926.000000)">
                <polyline id="Path" points="8 29 9 32 5 33 4 32 4 29 6 30 7 29 8 29"></polyline>
                <polyline id="Path" points="47 7 47 8 46 9 45 9 44 10 45 12 44 13 43 13 42 12 41 12 41 11 40 10 40 11 39 11 40 12 40 13 40 14 41 14 41 16 41 17 40 17 39 17 39 16 37 16 37 17 36 17 36 18 39 21 40 21 41 22 42 22 42 23 43 23 44 23 47 25 49 27 49 28 49 29 50 29 50 30 49 30 50 31 50 32 51 32 52 32 52 33 52 34 53 36 52 36 49 37 46 36 45 35 44 34 44 33 43 33 42 33 41 33 40 33 38 32 37 32 37 30 38 30 39 31 40 31 40 32 41 32 41 33 42 33 43 33 43 32 42 31 42 30 39 29 36 28 33 26 29 26 29 27 28 27 28 28 29 28 31 29 32 30 33 30 34 31 34 32 34 33 33 33 31 35 29 36 24 37 23 37 21 34 21 32 21 31 22 31 22 32 23 32 22 31 22 30 20 30 19 29 18 29 17 28 17 27 15 27 14 29 13 30 14 30 15 30 15 31 16 32 16 34 15 34 10 32 8 27 9 26 9 25 10 25 9 23 4 18 3 18 3 19 3 20 3 21 3 22 3 23 1 23 0 22 0 20 1 19 0 18 0 17 1 15 1 14 1 13 2 11 3 11 3 12 5 12 6 12 6 11 7 11 7 10 7 9 7 8 8 7 9 6 10 6 14 6 15 6 16 3 18 2 18 3 18 5 18 6 18 7 18 8 19 8 20 8 21 7 21 6 22 5 23 4 23 3 25 3 29 1 32 1 33 1 34 1 35 0 41 0 40 1 40 3 41 3 42 3 43 4 47 6 47 7"></polyline>
            </g>
        </g>
    </g>
</svg>