<?xml version="1.0" encoding="UTF-8"?>
<svg width="45px" height="54px" viewBox="0 0 45 54" version="1.1" xmlns="http://www.w3.org/2000/svg" xmlns:xlink="http://www.w3.org/1999/xlink">
    <!-- Generator: Sketch 52.4 (67378) - http://www.bohemiancoding.com/sketch -->
    <title>289</title>
    <desc>Created with Sketch.</desc>
    <g id="Page-1" stroke="none" stroke-width="1" fill="none" fill-rule="evenodd">
        <g id="wahlkreise_gen" transform="translate(-267.000000, -839.000000)" fill="#000000">
            <g id="289" transform="translate(267.000000, 839.000000)">
                <polyline id="Path" points="9 6 15 6 17 7 17 8 18 9 22 10 24 10 26 9 26 8 29 8 30 8 31 9 33 11 36 11 37 10 38 9 39 9 40 9 41 12 41 15 42 18 43 19 44 20 44 21 45 22 45 24 44 27 43 28 43 27 42 27 41 27 40 28 40 30 41 30 41 31 41 34 40 35 40 36 39 36 38 36 36 38 37 39 37 41 36 41 34 42 34 43 34 44 35 44 36 45 35 46 33 47 32 49 33 50 33 51 32 53 31 53 30 53 30 52 29 52 27 53 24 54 23 53 22 52 22 51 21 50 20 48 20 47 15 43 13 43 12 44 11 44 9 44 9 43 8 42 7 42 6 43 6 42 5 41 4 40 6 39 8 39 8 38 8 37 8 36 7 35 6 35 5 34 4 34 4 33 3 31 1 31 0 30 0 29 0 28 1 27 2 27 1 24 0 24 0 23 0 21 1 21 1 20 1 19 1 18 1 16 1 12 2 11 3 11 4 11 5 11 5 9 4 8 3 7 0 6 1 4 1 3 1 1 3 1 3 0 5 1 7 1 8 1 7 2 7 3 8 5 9 6"></polyline>
            </g>
        </g>
    </g>
</svg>