<?xml version="1.0" encoding="UTF-8"?>
<svg width="65px" height="63px" viewBox="0 0 65 63" version="1.1" xmlns="http://www.w3.org/2000/svg" xmlns:xlink="http://www.w3.org/1999/xlink">
    <!-- Generator: Sketch 52.4 (67378) - http://www.bohemiancoding.com/sketch -->
    <title>291</title>
    <desc>Created with Sketch.</desc>
    <g id="Page-1" stroke="none" stroke-width="1" fill="none" fill-rule="evenodd">
        <g id="wahlkreise_gen" transform="translate(-299.000000, -836.000000)" fill="#000000">
            <g id="291" transform="translate(299.000000, 836.000000)">
                <polyline id="Path" points="41 4 42 4 43 4 44 3 47 3 48 3 48 4 48 5 54 9 56 9 57 9 58 9 60 9 61 11 62 12 63 13 64 15 64 16 65 16 65 17 64 18 63 18 62 19 60 20 59 20 58 22 56 22 55 21 53 20 52 21 51 21 50 22 49 22 47 22 47 24 47 25 47 26 44 30 42 32 41 33 42 34 43 35 44 35 44 36 48 43 49 45 50 46 50 48 50 52 52 58 52 59 53 60 51 62 49 63 48 63 46 62 45 62 46 62 47 62 48 62 49 60 48 56 48 53 47 51 44 49 44 48 43 47 41 47 35 44 34 44 34 45 34 46 33 46 31 48 30 49 27 50 26 52 24 54 23 55 22 57 22 59 21 60 16 61 15 60 14 59 12 56 10 55 9 56 8 57 5 57 4 55 3 55 3 54 3 53 1 52 0 52 1 50 3 49 4 48 3 47 2 47 2 46 2 45 4 44 5 44 5 42 4 41 6 39 7 39 8 39 8 38 9 37 9 34 9 33 8 33 8 31 9 30 10 30 11 30 11 31 12 30 13 27 13 25 12 24 12 23 11 22 10 21 9 18 9 15 8 12 9 12 10 12 12 12 13 13 13 14 14 14 16 14 17 14 20 11 20 10 20 9 21 9 24 9 25 9 26 9 27 9 28 9 32 6 33 4 35 2 37 0 39 0 40 0 41 2 41 3 40 3 41 4"></polyline>
            </g>
        </g>
    </g>
</svg>