<?xml version="1.0" encoding="UTF-8"?>
<svg width="74px" height="73px" viewBox="0 0 74 73" version="1.1" xmlns="http://www.w3.org/2000/svg" xmlns:xlink="http://www.w3.org/1999/xlink">
    <!-- Generator: Sketch 52.4 (67378) - http://www.bohemiancoding.com/sketch -->
    <title>292</title>
    <desc>Created with Sketch.</desc>
    <g id="Page-1" stroke="none" stroke-width="1" fill="none" fill-rule="evenodd">
        <g id="wahlkreise_gen" transform="translate(-282.000000, -880.000000)" fill="#000000">
            <g id="292" transform="translate(282.000000, 880.000000)">
                <polyline id="Path" points="66 16 65 18 64 18 63 18 62 18 63 18 65 19 66 19 68 18 70 16 71 20 71 21 72 21 72 22 74 23 73 24 74 26 74 28 74 30 74 31 73 32 74 34 73 35 73 36 72 37 72 39 72 41 71 41 70 41 70 42 69 42 69 43 69 44 70 44 70 45 72 46 71 47 71 50 71 51 71 53 70 55 69 55 68 55 67 54 64 53 61 54 61 55 60 56 58 56 56 55 55 54 54 55 54 58 54 59 56 62 57 64 57 69 56 70 55 71 55 72 52 73 51 73 49 72 46 69 45 66 47 65 48 60 48 59 47 59 47 60 46 60 45 60 45 59 46 56 46 55 45 52 44 52 44 51 45 50 47 48 48 48 48 47 48 46 48 45 47 44 47 43 40 41 34 41 33 41 32 41 32 42 31 42 29 42 28 41 28 40 28 39 28 38 27 38 27 37 27 36 26 36 25 35 22 32 20 30 12 27 9 26 8 26 5 26 3 23 0 19 0 17 1 17 2 14 2 13 2 12 1 10 1 9 4 7 5 7 6 9 7 10 7 11 8 12 9 13 12 12 14 11 15 11 15 12 16 12 17 12 18 10 18 9 17 8 18 8 20 9 20 10 20 11 21 11 22 13 25 13 26 12 27 11 29 12 31 15 32 16 33 17 38 16 39 15 39 13 40 11 41 10 43 8 44 6 47 5 48 4 50 2 51 2 51 1 51 0 52 0 58 3 60 3 61 4 61 5 64 7 65 9 65 12 66 16"></polyline>
            </g>
        </g>
    </g>
</svg>