<?xml version="1.0" encoding="UTF-8"?>
<svg width="60px" height="52px" viewBox="0 0 60 52" version="1.1" xmlns="http://www.w3.org/2000/svg" xmlns:xlink="http://www.w3.org/1999/xlink">
    <!-- Generator: Sketch 52.4 (67378) - http://www.bohemiancoding.com/sketch -->
    <title>293</title>
    <desc>Created with Sketch.</desc>
    <g id="Page-1" stroke="none" stroke-width="1" fill="none" fill-rule="evenodd">
        <g id="wahlkreise_gen" transform="translate(-262.000000, -920.000000)" fill="#000000">
            <g id="293" transform="translate(262.000000, 920.000000)">
                <polyline id="Path" points="21 1 20 7 20 8 23 11 23 12 25 13 25 12 25 11 26 11 26 12 27 12 27 13 28 13 28 14 28 15 28 16 29 16 30 16 31 20 31 21 30 21 31 21 32 22 32 21 34 21 35 23 35 24 35 25 34 26 33 26 33 27 34 30 35 30 35 29 36 29 37 29 38 30 38 31 38 32 39 33 41 33 44 33 44 32 45 32 47 34 48 35 52 38 56 38 57 39 58 39 59 40 60 43 60 44 59 44 58 45 57 45 56 45 55 45 55 46 55 48 53 48 52 48 51 49 50 51 48 52 46 52 45 52 44 52 43 51 41 50 41 49 40 47 40 46 40 45 39 44 38 43 35 43 33 43 32 42 32 41 31 41 30 41 27 42 26 42 25 42 22 40 20 40 20 39 18 38 17 37 16 37 16 36 15 35 15 34 14 33 15 33 15 32 14 32 14 31 13 31 10 29 6 26 1 23 2 23 2 22 2 20 1 20 1 19 1 18 0 17 1 17 1 16 2 17 2 18 3 18 4 19 5 19 6 18 5 16 6 15 7 15 8 14 8 13 8 12 4 10 5 8 7 7 8 6 7 5 7 4 7 1 9 2 9 3 13 1 17 0 21 1"></polyline>
            </g>
        </g>
    </g>
</svg>