<?xml version="1.0" encoding="UTF-8"?>
<svg width="67px" height="53px" viewBox="0 0 67 53" version="1.1" xmlns="http://www.w3.org/2000/svg" xmlns:xlink="http://www.w3.org/1999/xlink">
    <!-- Generator: Sketch 52.4 (67378) - http://www.bohemiancoding.com/sketch -->
    <title>294</title>
    <desc>Created with Sketch.</desc>
    <g id="Page-1" stroke="none" stroke-width="1" fill="none" fill-rule="evenodd">
        <g id="wahlkreise_gen" transform="translate(-290.000000, -917.000000)" fill="#000000">
            <g id="294" transform="translate(290.000000, 917.000000)">
                <polyline id="Path" points="19 1 20 1 20 2 20 3 20 4 21 5 23 5 24 5 24 4 25 4 26 4 32 4 39 6 39 7 40 8 40 9 40 10 40 11 39 11 37 13 36 14 36 15 37 15 38 18 38 19 37 22 37 23 38 23 39 23 39 22 40 22 40 23 39 28 37 29 38 32 41 35 43 36 44 36 47 35 47 34 48 33 49 32 49 27 48 25 46 22 46 21 46 18 47 17 48 18 50 19 52 19 53 18 53 17 56 16 59 17 60 18 61 18 61 19 65 23 66 24 65 25 64 26 62 27 61 28 61 30 63 31 64 32 64 34 65 37 65 38 66 38 66 39 67 39 67 40 66 42 66 43 64 44 63 44 62 45 61 46 61 47 61 46 61 44 60 43 60 42 57 41 55 42 54 43 53 44 52 45 52 46 51 46 48 45 45 44 44 44 44 43 43 43 41 43 40 43 40 44 39 45 38 46 36 49 33 51 29 53 28 52 27 52 27 51 27 49 27 48 28 48 29 48 30 48 31 47 32 47 32 46 31 43 30 42 29 42 28 41 24 41 20 38 19 37 17 35 16 35 16 36 13 36 11 36 10 35 10 34 10 33 9 32 8 32 7 32 7 33 6 33 5 30 5 29 6 29 7 28 7 27 7 26 6 24 4 24 4 25 3 24 2 24 3 24 3 23 2 19 1 19 0 19 0 18 0 17 0 16 1 15 2 14 3 11 2 10 2 9 4 6 7 6 8 6 8 7 9 6 10 5 11 3 12 3 12 2 13 4 13 5 14 6 16 5 16 4 15 3 15 2 15 0 19 0 19 1"></polyline>
            </g>
        </g>
    </g>
</svg>