<?xml version="1.0" encoding="UTF-8"?>
<svg width="83px" height="69px" viewBox="0 0 83 69" version="1.1" xmlns="http://www.w3.org/2000/svg" xmlns:xlink="http://www.w3.org/1999/xlink">
    <!-- Generator: Sketch 52.4 (67378) - http://www.bohemiancoding.com/sketch -->
    <title>295</title>
    <desc>Created with Sketch.</desc>
    <g id="Page-1" stroke="none" stroke-width="1" fill="none" fill-rule="evenodd">
        <g id="wahlkreise_gen" transform="translate(-226.000000, -864.000000)" fill="#000000">
            <g id="295" transform="translate(226.000000, 864.000000)">
                <polyline id="Path" points="18 5 18 9 18 10 18 11 18 12 19 12 19 13 20 14 21 15 22 16 23 16 23 17 23 18 26 18 27 17 28 15 29 14 33 14 34 15 33 15 33 16 35 18 36 18 36 19 37 20 37 21 38 21 40 21 42 20 44 20 47 19 47 18 48 17 49 17 50 18 50 19 52 19 53 19 54 18 56 18 61 22 61 23 60 23 57 25 57 26 58 28 58 29 58 30 57 33 56 33 56 35 59 39 61 42 64 42 65 42 68 43 76 46 78 48 81 51 82 52 83 52 83 53 83 54 83 53 79 53 79 55 79 56 80 57 80 58 78 59 77 58 77 57 76 55 76 56 75 56 74 58 73 59 72 60 72 59 71 59 68 59 66 62 66 63 67 64 66 67 65 68 64 69 63 69 63 68 62 68 62 67 61 67 61 68 61 69 59 68 59 67 56 64 56 63 57 57 53 56 49 57 45 59 45 58 43 57 43 60 43 61 44 62 43 63 41 64 40 66 39 65 38 65 37 65 37 63 38 62 32 62 33 57 33 56 32 52 31 51 29 50 27 49 25 48 25 47 25 46 26 46 26 47 27 47 28 47 29 47 30 46 30 45 29 43 28 43 27 42 27 41 27 40 25 41 21 40 20 39 18 35 16 32 14 30 13 30 11 30 10 32 10 33 9 33 8 32 7 30 5 25 5 23 4 22 5 22 5 21 3 18 1 17 0 17 0 16 1 15 3 15 6 13 6 12 6 10 8 7 8 5 9 5 10 5 10 4 9 4 10 2 11 1 11 0 13 0 15 1 16 1 16 2 18 3 18 5"></polyline>
            </g>
        </g>
    </g>
</svg>