<?xml version="1.0" encoding="UTF-8"?>
<svg width="35px" height="38px" viewBox="0 0 35 38" version="1.1" xmlns="http://www.w3.org/2000/svg" xmlns:xlink="http://www.w3.org/1999/xlink">
    <!-- Generator: Sketch 52.4 (67378) - http://www.bohemiancoding.com/sketch -->
    <title>299</title>
    <desc>Created with Sketch.</desc>
    <g id="Page-1" stroke="none" stroke-width="1" fill="none" fill-rule="evenodd">
        <g id="wahlkreise_gen" transform="translate(-86.000000, -734.000000)" fill="#000000">
            <g id="299" transform="translate(86.000000, 734.000000)">
                <polyline id="Path" points="26 0 26 2 32 6 32 5 33 5 35 4 35 5 34 6 34 11 34 12 33 15 32 16 32 17 30 18 27 19 25 22 25 23 26 26 28 28 29 28 29 29 29 30 30 31 30 32 32 32 31 33 28 34 27 35 26 36 26 37 25 38 24 37 23 36 21 36 18 36 17 37 14 36 13 36 12 36 9 34 9 32 9 31 10 29 11 26 12 24 12 21 12 20 10 19 9 19 9 20 8 20 6 19 6 18 6 17 6 16 5 15 5 14 4 14 3 13 1 11 0 10 3 7 5 7 8 7 10 8 11 9 11 8 12 7 13 6 13 5 13 4 14 3 14 2 15 1 16 2 17 2 19 2 21 1 21 0 22 0 23 0 23 1 26 0"></polyline>
            </g>
        </g>
    </g>
</svg>