<?xml version="1.0" encoding="UTF-8"?>
<svg width="67px" height="99px" viewBox="0 0 67 99" version="1.1" xmlns="http://www.w3.org/2000/svg" xmlns:xlink="http://www.w3.org/1999/xlink">
    <!-- Generator: Sketch 52.4 (67378) - http://www.bohemiancoding.com/sketch -->
    <title>32</title>
    <desc>Created with Sketch.</desc>
    <g id="Page-1" stroke="none" stroke-width="1" fill="none" fill-rule="evenodd">
        <g id="wahlkreise_gen" transform="translate(-148.000000, -243.000000)" fill="#000000">
            <g id="32" transform="translate(148.000000, 243.000000)">
                <polyline id="Path" points="11 2 13 2 14 2 14 1 16 2 17 2 19 3 19 4 19 5 19 8 21 10 22 10 22 9 23 9 24 10 26 12 26 14 28 15 30 15 32 15 33 16 34 17 35 18 37 20 40 25 40 26 39 29 40 34 43 37 43 38 44 38 46 41 47 42 48 42 50 41 51 41 55 41 57 43 59 44 60 44 62 45 62 46 61 47 63 48 64 48 67 48 67 49 67 50 67 51 66 51 65 53 66 57 67 57 67 58 67 59 66 60 65 61 63 61 62 61 58 64 55 65 54 66 53 70 53 72 53 73 54 79 54 80 55 80 56 81 57 83 57 84 57 85 56 85 55 85 54 88 54 90 52 91 46 93 45 93 44 95 44 96 43 96 43 97 42 98 42 99 36 97 34 95 34 92 34 89 33 89 33 88 32 88 31 87 31 86 30 86 31 85 33 81 32 80 33 79 33 78 34 78 35 77 36 75 36 74 35 71 31 66 30 65 29 65 28 65 28 64 26 65 25 65 24 66 23 66 22 66 22 65 21 64 20 64 18 62 17 63 14 63 14 64 14 65 13 65 11 66 8 66 7 66 6 66 5 66 5 65 4 64 3 62 2 61 3 58 7 56 7 55 6 52 5 50 6 50 6 49 7 47 7 46 7 45 7 44 8 43 9 43 10 42 12 41 13 41 13 40 16 36 17 36 17 35 16 34 14 33 13 33 12 33 10 31 8 29 8 28 8 23 8 22 7 22 6 21 0 17 0 14 1 12 1 9 2 7 3 5 3 3 3 2 3 1 3 0 4 0 9 1 9 2 11 2"></polyline>
            </g>
        </g>
    </g>
</svg>