<?xml version="1.0" encoding="UTF-8"?>
<svg width="77px" height="81px" viewBox="0 0 77 81" version="1.1" xmlns="http://www.w3.org/2000/svg" xmlns:xlink="http://www.w3.org/1999/xlink">
    <!-- Generator: Sketch 52.4 (67378) - http://www.bohemiancoding.com/sketch -->
    <title>34</title>
    <desc>Created with Sketch.</desc>
    <g id="Page-1" stroke="none" stroke-width="1" fill="none" fill-rule="evenodd">
        <g id="wahlkreise_gen" transform="translate(-216.000000, -217.000000)" fill="#000000">
            <g id="34" transform="translate(216.000000, 217.000000)">
                <polyline id="Path" points="41 14 40 15 40 16 41 17 41 18 42 18 43 19 43 24 43 25 43 26 43 27 44 28 45 29 46 30 46 32 49 33 51 31 52 30 52 29 54 28 54 27 55 27 56 29 55 30 54 35 53 38 53 40 54 41 55 45 56 46 57 47 60 47 63 47 67 49 68 51 67 51 67 53 70 54 71 53 72 52 75 51 77 53 77 55 77 56 77 57 76 60 76 62 73 66 70 71 71 71 71 72 71 73 71 74 70 74 69 75 69 74 66 81 65 81 64 80 64 79 65 78 65 76 62 76 62 77 60 77 56 75 56 72 57 72 56 69 55 66 54 64 50 65 49 64 46 61 45 61 44 61 42 61 41 61 40 63 40 65 39 66 37 66 36 63 35 62 34 58 33 57 33 56 33 55 34 54 34 53 34 54 35 53 35 52 35 50 34 50 35 50 38 46 38 44 38 40 37 37 37 36 39 35 39 34 37 32 36 32 35 33 30 34 29 32 28 31 27 30 24 30 23 30 21 30 20 30 20 28 14 28 14 27 12 26 11 26 10 26 8 25 3 22 2 21 0 22 0 21 0 20 0 19 0 17 1 15 1 14 1 13 2 6 2 3 2 4 3 5 3 6 3 7 3 8 3 9 3 10 3 11 3 12 2 12 2 13 3 14 5 14 6 13 7 13 7 12 7 13 8 13 9 14 11 15 12 15 15 14 18 12 21 10 22 9 22 8 22 7 21 6 22 3 25 1 30 0 32 1 34 2 33 2 33 3 37 5 39 8 40 9 41 10 42 12 41 13 41 14"></polyline>
            </g>
        </g>
    </g>
</svg>