<?xml version="1.0" encoding="UTF-8"?>
<svg width="85px" height="86px" viewBox="0 0 85 86" version="1.1" xmlns="http://www.w3.org/2000/svg" xmlns:xlink="http://www.w3.org/1999/xlink">
    <!-- Generator: Sketch 52.4 (67378) - http://www.bohemiancoding.com/sketch -->
    <title>35</title>
    <desc>Created with Sketch.</desc>
    <g id="Page-1" stroke="none" stroke-width="1" fill="none" fill-rule="evenodd">
        <g id="wahlkreise_gen" transform="translate(-269.000000, -234.000000)" fill="#000000">
            <g id="35" transform="translate(269.000000, 234.000000)">
                <polyline id="Path" points="35 2 36 5 38 5 39 5 40 5 41 5 41 6 44 6 46 8 47 8 47 9 50 10 52 8 53 8 55 7 57 9 58 10 59 11 61 11 62 10 64 10 65 10 65 11 66 11 67 13 68 14 71 16 72 17 74 19 75 20 74 22 72 24 70 25 69 26 69 27 71 28 73 28 77 27 78 26 79 25 79 24 80 24 81 23 82 23 82 24 82 25 83 25 83 26 83 27 83 30 82 30 78 30 79 32 80 32 81 32 82 32 83 33 84 36 84 39 84 41 85 42 84 43 79 44 76 45 73 46 69 48 68 49 67 49 67 50 66 50 65 51 64 51 58 48 58 47 57 46 56 47 54 50 54 51 55 52 55 54 55 55 54 56 53 56 53 58 52 61 53 62 53 66 53 67 52 67 47 69 45 72 46 75 46 76 46 77 47 78 47 79 46 81 45 82 44 85 43 86 41 86 40 86 39 85 38 83 38 82 38 81 35 79 34 78 34 76 33 76 30 77 30 78 29 78 28 76 28 74 27 73 26 70 25 70 25 69 24 70 22 70 20 70 17 69 16 71 15 71 14 71 13 71 13 70 14 70 15 70 15 66 14 66 13 66 13 64 16 57 16 58 17 57 18 57 18 56 18 55 18 54 17 54 20 49 23 45 23 43 24 40 24 39 24 38 24 36 22 34 19 35 18 36 17 37 14 36 14 34 15 34 14 32 10 30 7 30 4 30 3 29 2 28 1 24 0 23 0 21 1 18 2 13 3 12 2 10 1 10 2 10 2 9 2 8 2 7 3 7 5 7 5 8 5 9 6 9 6 10 7 10 8 10 9 10 11 9 12 9 12 10 13 11 14 11 16 11 18 6 22 2 22 3 24 4 25 4 28 3 29 2 32 1 35 0 35 1 35 2"></polyline>
            </g>
        </g>
    </g>
</svg>