<?xml version="1.0" encoding="UTF-8"?>
<svg width="71px" height="49px" viewBox="0 0 71 49" version="1.1" xmlns="http://www.w3.org/2000/svg" xmlns:xlink="http://www.w3.org/1999/xlink">
    <!-- Generator: Sketch 52.4 (67378) - http://www.bohemiancoding.com/sketch -->
    <title>36</title>
    <desc>Created with Sketch.</desc>
    <g id="Page-1" stroke="none" stroke-width="1" fill="none" fill-rule="evenodd">
        <g id="wahlkreise_gen" transform="translate(-300.000000, -202.000000)" fill="#000000">
            <g id="36" transform="translate(300.000000, 202.000000)">
                <polyline id="Path" points="17 2 18 2 19 2 19 3 19 4 19 5 23 9 24 9 24 8 26 6 27 6 27 7 28 8 28 9 33 11 34 11 36 10 37 9 36 9 38 6 38 5 40 7 41 7 42 8 42 9 43 10 47 14 48 14 52 14 53 14 53 13 54 13 54 12 54 11 55 11 58 9 60 10 61 10 62 10 63 10 64 10 65 12 67 13 69 14 71 15 71 16 69 19 68 19 67 19 66 18 63 18 60 19 59 19 60 20 60 21 55 23 52 24 52 25 51 26 51 27 52 28 53 28 54 29 55 32 54 32 54 33 53 33 52 33 51 36 51 37 53 39 53 40 52 41 51 41 49 42 48 41 44 43 43 44 43 45 42 47 41 48 41 49 40 48 37 46 36 45 35 43 34 43 34 42 33 42 31 42 30 43 28 43 27 42 26 41 24 39 22 40 21 40 19 42 16 41 16 40 15 40 13 38 10 38 10 37 9 37 8 37 7 37 5 37 4 34 4 33 4 32 3 30 3 29 4 29 4 28 3 27 3 26 1 23 0 22 2 20 5 17 7 15 9 13 11 12 17 9 17 8 17 3 16 2 16 0 17 2"></polyline>
            </g>
        </g>
    </g>
</svg>