<?xml version="1.0" encoding="UTF-8"?>
<svg width="72px" height="88px" viewBox="0 0 72 88" version="1.1" xmlns="http://www.w3.org/2000/svg" xmlns:xlink="http://www.w3.org/1999/xlink">
    <!-- Generator: Sketch 52.4 (67378) - http://www.bohemiancoding.com/sketch -->
    <title>38</title>
    <desc>Created with Sketch.</desc>
    <g id="Page-1" stroke="none" stroke-width="1" fill="none" fill-rule="evenodd">
        <g id="wahlkreise_gen" transform="translate(-146.000000, -305.000000)" fill="#000000">
            <g id="38" transform="translate(146.000000, 305.000000)">
                <polyline id="Path" points="22 2 23 2 24 3 24 4 25 4 26 4 27 3 28 3 30 2 30 3 31 3 32 3 33 4 37 9 38 12 38 13 37 15 36 16 35 16 35 17 34 18 35 19 33 23 32 24 33 24 33 25 34 26 35 26 35 27 36 27 36 30 36 33 38 35 44 37 44 36 45 35 45 34 46 34 46 33 47 31 48 31 54 29 56 28 55 34 56 36 56 37 57 38 57 39 56 39 56 40 57 41 59 42 62 43 66 46 66 47 68 52 68 54 68 56 68 58 68 59 67 60 68 62 67 64 66 65 67 67 67 68 68 68 69 68 71 69 72 69 69 72 69 73 68 73 67 73 64 75 63 76 63 77 63 78 60 78 57 77 54 76 52 77 50 77 50 78 47 80 47 82 46 82 44 83 43 83 41 84 39 85 38 85 37 84 36 84 33 84 32 85 31 86 30 86 30 87 29 87 29 88 28 88 25 87 24 86 24 85 22 82 21 82 22 81 23 81 28 78 29 78 30 78 31 78 31 74 31 73 32 70 35 70 36 70 37 71 38 71 40 70 41 70 41 69 43 65 43 64 42 64 41 63 41 61 41 59 42 59 43 59 44 58 45 56 46 56 47 55 48 55 47 52 46 52 44 51 45 50 45 49 45 47 44 47 44 46 43 46 42 45 41 45 41 44 39 46 36 46 35 46 31 46 28 45 27 44 26 45 25 45 24 44 23 43 22 43 20 44 19 44 19 45 16 44 8 40 8 38 8 37 8 36 7 35 6 33 3 32 1 31 0 31 0 30 0 28 1 26 1 21 2 16 1 15 1 14 1 13 0 13 1 12 1 11 2 10 5 8 6 7 7 7 7 6 7 4 8 4 9 4 10 4 13 4 15 3 16 3 16 2 16 1 19 1 20 0 22 2"></polyline>
            </g>
        </g>
    </g>
</svg>