<?xml version="1.0" encoding="UTF-8"?>
<svg width="25px" height="27px" viewBox="0 0 25 27" version="1.1" xmlns="http://www.w3.org/2000/svg" xmlns:xlink="http://www.w3.org/1999/xlink">
    <!-- Generator: Sketch 52.4 (67378) - http://www.bohemiancoding.com/sketch -->
    <title>39</title>
    <desc>Created with Sketch.</desc>
    <g id="Page-1" stroke="none" stroke-width="1" fill="none" fill-rule="evenodd">
        <g id="wahlkreise_gen" transform="translate(-169.000000, -349.000000)" fill="#000000">
            <g id="39" transform="translate(169.000000, 349.000000)">
                <polyline id="Path" points="19 1 20 2 21 2 21 3 22 3 22 5 22 6 21 7 23 8 24 8 25 11 24 11 23 12 22 12 21 14 20 15 19 15 18 15 18 17 18 19 19 20 20 20 20 21 18 25 18 26 17 26 15 27 14 27 13 26 12 26 9 26 8 26 7 26 6 26 5 26 3 26 2 26 1 25 0 24 0 22 0 21 1 21 2 20 2 19 2 17 2 16 2 15 2 14 4 13 3 11 2 11 3 10 3 9 4 9 6 8 5 6 4 5 3 1 4 0 5 1 8 2 12 2 13 2 16 2 18 0 18 1 19 1"></polyline>
            </g>
        </g>
    </g>
</svg>