<?xml version="1.0" encoding="UTF-8"?>
<svg width="67px" height="83px" viewBox="0 0 67 83" version="1.1" xmlns="http://www.w3.org/2000/svg" xmlns:xlink="http://www.w3.org/1999/xlink">
    <!-- Generator: Sketch 52.4 (67378) - http://www.bohemiancoding.com/sketch -->
    <title>4</title>
    <desc>Created with Sketch.</desc>
    <g id="Page-1" stroke="none" stroke-width="1" fill="none" fill-rule="evenodd">
        <g id="wahlkreise_gen" transform="translate(-280.000000, -54.000000)" fill="#000000">
            <g id="4" transform="translate(280.000000, 54.000000)">
                <polyline id="Path" points="49 19 43 22 42 23 42 22 41 22 40 22 40 23 40 24 41 24 41 25 42 25 42 26 43 26 45 25 46 25 47 24 49 23 50 23 56 22 61 21 62 21 62 20 62 21 63 21 64 22 65 22 65 23 67 24 67 25 65 27 64 28 64 29 64 30 63 30 61 29 60 28 59 29 59 30 58 31 59 32 59 34 58 35 58 39 57 40 56 41 56 42 56 43 56 45 57 46 61 50 62 50 61 51 62 53 62 54 62 57 62 58 62 59 62 63 63 65 62 66 62 67 59 67 58 67 57 67 57 66 56 67 54 66 53 64 52 64 52 65 50 66 49 68 48 71 48 75 49 79 49 81 45 82 44 83 43 82 42 81 39 78 38 77 35 77 31 78 27 78 26 78 23 78 21 73 20 72 19 72 18 71 17 71 13 72 12 73 11 73 10 74 10 75 9 76 6 76 2 76 0 76 1 75 1 72 1 70 0 68 2 66 4 65 6 64 7 64 7 63 8 63 9 62 10 62 10 59 10 58 9 57 10 56 11 53 10 53 10 52 10 51 7 47 7 45 7 42 6 42 8 40 8 39 10 39 11 40 14 40 19 38 20 36 19 35 19 34 19 33 18 33 19 29 19 28 20 28 21 28 24 26 25 25 27 20 28 17 29 16 31 15 34 11 38 8 40 7 44 4 47 2 51 0 54 0 54 1 55 2 55 3 55 4 54 4 54 5 54 6 54 9 54 10 54 11 54 12 52 16 51 17 50 18 49 19"></polyline>
            </g>
        </g>
    </g>
</svg>