<?xml version="1.0" encoding="UTF-8"?>
<svg width="53px" height="88px" viewBox="0 0 53 88" version="1.1" xmlns="http://www.w3.org/2000/svg" xmlns:xlink="http://www.w3.org/1999/xlink">
    <!-- Generator: Sketch 52.4 (67378) - http://www.bohemiancoding.com/sketch -->
    <title>40</title>
    <desc>Created with Sketch.</desc>
    <g id="Page-1" stroke="none" stroke-width="1" fill="none" fill-rule="evenodd">
        <g id="wahlkreise_gen" transform="translate(-246.000000, -298.000000)" fill="#000000">
            <g id="40" transform="translate(246.000000, 298.000000)">
                <polyline id="Path" points="34 1 33 4 34 6 35 6 35 5 35 4 36 2 37 2 38 2 38 6 37 6 36 6 36 7 37 7 38 7 39 7 40 5 43 6 45 6 47 6 48 5 48 6 49 6 50 9 51 10 51 12 52 14 53 14 53 15 53 16 53 17 53 18 52 19 51 19 48 17 45 19 44 20 43 20 41 20 39 21 38 22 38 24 38 25 39 25 39 26 38 28 33 29 32 29 30 31 30 32 30 33 31 33 32 34 32 38 33 40 32 41 33 43 34 43 35 43 36 43 37 43 38 43 40 43 42 44 41 44 38 46 36 47 36 48 36 49 36 50 37 50 38 50 39 50 42 47 43 48 44 49 44 51 45 53 45 54 42 57 43 61 43 62 44 63 44 64 45 64 46 64 46 65 46 66 44 68 40 72 36 72 34 72 31 72 29 74 28 75 25 76 24 76 23 76 23 77 24 78 24 79 25 80 25 81 26 82 24 87 24 88 23 88 21 88 22 87 22 86 23 86 23 85 23 84 22 83 21 82 16 81 14 82 12 83 12 80 12 79 12 78 10 75 11 76 12 76 14 76 14 75 14 73 15 71 16 71 17 71 17 70 13 68 11 67 10 67 9 66 8 66 8 64 9 64 9 63 10 63 10 61 10 60 10 59 11 58 13 55 13 56 14 56 15 56 17 54 18 52 20 48 21 48 21 47 20 46 19 44 19 43 18 43 18 42 19 41 20 40 21 39 22 38 21 38 21 37 18 36 15 35 13 38 12 38 12 39 12 40 12 41 11 41 11 39 10 38 9 38 8 37 6 36 6 34 6 33 7 32 7 31 7 30 7 29 7 28 6 28 6 26 5 25 3 24 3 23 1 22 1 21 0 21 1 20 1 19 2 18 2 19 4 18 5 18 7 17 8 16 9 15 10 15 11 15 11 16 13 10 12 9 11 8 12 7 14 7 15 7 16 6 20 5 21 5 22 5 23 5 25 5 27 4 28 3 30 3 31 3 32 1 33 0 34 1"></polyline>
            </g>
        </g>
    </g>
</svg>