<?xml version="1.0" encoding="UTF-8"?>
<svg width="25px" height="15px" viewBox="0 0 25 15" version="1.1" xmlns="http://www.w3.org/2000/svg" xmlns:xlink="http://www.w3.org/1999/xlink">
    <!-- Generator: Sketch 52.4 (67378) - http://www.bohemiancoding.com/sketch -->
    <title>41</title>
    <desc>Created with Sketch.</desc>
    <g id="Page-1" stroke="none" stroke-width="1" fill="none" fill-rule="evenodd">
        <g id="wahlkreise_gen" transform="translate(-305.000000, -339.000000)" fill="#000000">
            <g id="41" transform="translate(305.000000, 339.000000)">
                <polyline id="Path" points="22 5 23 5 25 6 25 7 23 7 22 7 23 10 23 12 22 12 22 13 21 13 21 14 20 15 19 13 19 12 19 11 18 11 18 10 18 11 16 11 15 12 11 10 11 9 10 9 10 8 9 8 8 8 8 7 7 7 6 7 5 8 4 7 2 6 2 7 1 8 0 8 0 7 1 7 1 6 1 5 0 5 0 4 1 4 2 3 3 3 7 3 8 3 10 3 12 3 13 3 13 2 13 0 14 0 17 1 17 2 19 4 20 4 22 4 22 5"></polyline>
            </g>
        </g>
    </g>
</svg>