<?xml version="1.0" encoding="UTF-8"?>
<svg width="71px" height="86px" viewBox="0 0 71 86" version="1.1" xmlns="http://www.w3.org/2000/svg" xmlns:xlink="http://www.w3.org/1999/xlink">
    <!-- Generator: Sketch 52.4 (67378) - http://www.bohemiancoding.com/sketch -->
    <title>45</title>
    <desc>Created with Sketch.</desc>
    <g id="Page-1" stroke="none" stroke-width="1" fill="none" fill-rule="evenodd">
        <g id="wahlkreise_gen" transform="translate(-336.000000, -289.000000)" fill="#000000">
            <g id="45" transform="translate(336.000000, 289.000000)">
                <polyline id="Path" points="46 3 47 4 50 7 52 8 52 7 55 6 56 6 57 5 58 5 59 4 59 5 59 6 60 7 61 9 62 15 63 15 65 16 66 17 70 23 71 24 71 25 68 26 66 27 66 28 63 28 57 29 56 30 55 30 55 33 56 34 57 35 58 35 58 37 58 38 57 38 57 39 54 44 52 45 51 46 53 47 54 48 52 49 52 50 51 50 52 53 52 54 52 55 53 56 54 58 54 59 53 59 52 59 52 58 50 58 49 58 48 59 49 61 50 61 50 62 50 63 49 63 47 62 42 62 41 62 38 62 38 64 38 66 35 66 34 65 34 66 33 66 33 67 34 71 35 75 35 78 35 79 33 80 30 82 30 83 30 84 28 85 23 86 23 85 22 85 21 85 22 84 21 83 20 81 16 79 12 78 11 78 10 78 6 79 5 79 0 79 0 78 0 75 1 75 3 74 3 72 4 71 5 70 6 70 7 69 7 68 7 67 8 65 10 67 11 66 11 64 13 61 12 59 13 57 16 55 18 53 20 51 22 50 23 50 22 50 22 45 23 43 22 42 21 42 21 41 22 40 25 38 27 37 30 37 31 36 32 35 32 30 31 28 31 24 31 23 32 23 31 21 30 19 28 15 28 14 28 13 30 12 31 10 32 7 33 5 34 2 36 3 38 2 40 0 41 0 43 0 44 1 45 2 46 3"></polyline>
            </g>
        </g>
    </g>
</svg>