<?xml version="1.0" encoding="UTF-8"?>
<svg width="60px" height="93px" viewBox="0 0 60 93" version="1.1" xmlns="http://www.w3.org/2000/svg" xmlns:xlink="http://www.w3.org/1999/xlink">
    <!-- Generator: Sketch 52.4 (67378) - http://www.bohemiancoding.com/sketch -->
    <title>46</title>
    <desc>Created with Sketch.</desc>
    <g id="Page-1" stroke="none" stroke-width="1" fill="none" fill-rule="evenodd">
        <g id="wahlkreise_gen" transform="translate(-269.000000, -363.000000)" fill="#000000">
            <g id="46" transform="translate(269.000000, 363.000000)">
                <polyline id="Path" points="41 92 40 93 39 92 39 91 38 91 38 90 38 89 39 89 40 90 42 91 41 92"></polyline>
                <polyline id="Path" points="27 4 29 8 28 11 27 12 27 13 27 14 28 14 29 14 30 14 31 14 32 13 33 14 34 15 36 17 37 18 38 18 39 19 42 21 42 22 42 23 41 23 40 27 40 29 40 30 40 33 39 34 39 37 39 38 40 39 40 40 42 40 43 41 45 39 46 38 49 37 50 38 53 42 54 43 54 44 57 46 60 47 58 48 57 48 56 48 56 49 54 50 52 51 52 52 51 52 51 53 50 53 49 52 48 52 48 51 47 51 46 51 46 50 45 50 45 51 44 51 44 52 43 55 43 56 41 57 40 58 39 59 40 59 40 60 40 61 39 61 39 63 39 64 40 65 40 66 40 67 39 67 39 68 40 68 40 67 41 67 41 68 41 67 42 67 42 68 42 69 42 68 43 65 48 66 49 66 49 69 49 70 47 71 46 72 45 72 44 72 44 74 44 75 45 75 46 75 47 74 48 75 49 79 49 80 49 81 49 82 48 82 47 83 47 85 46 86 46 87 45 88 44 88 44 89 43 89 42 89 41 88 39 86 39 85 37 83 35 84 34 84 30 84 29 84 28 83 27 83 27 82 28 82 28 81 28 80 27 80 26 80 23 81 21 81 19 81 18 81 18 80 18 79 18 78 19 78 20 77 20 74 20 73 19 73 19 72 18 69 18 68 19 67 21 65 22 63 22 61 22 60 22 59 23 56 23 55 23 54 17 53 16 53 15 54 14 54 15 54 15 53 15 50 15 49 15 47 14 46 13 45 12 45 12 46 11 46 11 45 10 45 10 44 9 42 10 41 10 40 10 39 9 38 8 38 7 38 6 38 5 39 4 40 3 40 2 38 2 37 3 35 2 31 2 30 1 29 2 28 2 27 3 26 2 24 0 23 1 23 1 22 3 17 2 16 2 15 1 14 1 13 0 12 0 11 1 11 2 11 5 10 6 9 8 7 11 7 13 7 17 7 21 3 23 1 23 0 25 2 27 3 27 4"></polyline>
            </g>
        </g>
    </g>
</svg>