<?xml version="1.0" encoding="UTF-8"?>
<svg width="71px" height="52px" viewBox="0 0 71 52" version="1.1" xmlns="http://www.w3.org/2000/svg" xmlns:xlink="http://www.w3.org/1999/xlink">
    <!-- Generator: Sketch 52.4 (67378) - http://www.bohemiancoding.com/sketch -->
    <title>47</title>
    <desc>Created with Sketch.</desc>
    <g id="Page-1" stroke="none" stroke-width="1" fill="none" fill-rule="evenodd">
        <g id="wahlkreise_gen" transform="translate(-288.000000, -329.000000)" fill="#000000">
            <g id="47" transform="translate(288.000000, 329.000000)">
                <polyline id="Path" points="70 2 71 3 70 5 70 10 71 10 70 10 68 11 66 13 64 15 61 17 60 19 61 21 59 24 59 26 58 27 56 25 55 27 55 28 55 29 54 30 53 30 52 31 51 32 50 32 46 32 42 32 41 33 41 34 40 35 39 35 38 34 35 35 32 36 31 38 30 39 31 39 32 38 34 39 34 40 34 41 33 44 31 46 30 47 29 46 28 45 28 44 28 43 27 43 25 43 24 43 24 44 23 44 25 46 26 47 27 47 26 49 24 51 23 52 22 52 20 52 19 52 18 52 17 51 15 49 14 48 13 47 12 48 11 48 10 48 9 48 8 48 8 47 8 46 9 45 10 42 8 38 8 37 6 36 4 34 4 33 3 33 2 33 2 32 1 31 1 30 0 26 3 23 3 22 4 22 6 20 7 19 8 17 9 15 10 15 11 15 14 16 15 16 16 16 17 17 17 18 18 18 19 17 19 16 21 17 22 18 21 18 20 22 20 23 23 28 23 29 24 28 26 27 27 25 28 25 28 26 31 27 35 29 36 29 37 29 38 29 39 26 39 24 38 24 38 23 39 23 39 22 40 22 40 20 39 17 40 17 42 17 42 16 40 15 39 15 40 14 44 13 47 13 49 14 50 15 51 15 52 16 53 16 54 15 55 15 56 13 56 11 56 10 55 9 54 7 53 7 53 6 52 4 52 3 53 2 54 1 54 0 56 2 59 4 61 3 62 3 62 2 64 2 65 3 66 3 66 4 68 5 69 5 69 4 70 4 69 4 69 3 70 2"></polyline>
            </g>
        </g>
    </g>
</svg>