<?xml version="1.0" encoding="UTF-8"?>
<svg width="39px" height="76px" viewBox="0 0 39 76" version="1.1" xmlns="http://www.w3.org/2000/svg" xmlns:xlink="http://www.w3.org/1999/xlink">
    <!-- Generator: Sketch 52.4 (67378) - http://www.bohemiancoding.com/sketch -->
    <title>51</title>
    <desc>Created with Sketch.</desc>
    <g id="Page-1" stroke="none" stroke-width="1" fill="none" fill-rule="evenodd">
        <g id="wahlkreise_gen" transform="translate(-384.000000, -314.000000)" fill="#000000">
            <g id="51" transform="translate(384.000000, 314.000000)">
                <polyline id="Path" points="25 3 26 2 27 2 27 1 28 1 29 1 29 2 29 3 29 4 28 4 26 6 26 8 27 10 27 11 28 12 28 13 29 14 30 15 32 18 30 17 27 19 26 21 26 22 28 24 30 27 33 30 35 31 35 32 36 32 37 33 37 34 37 36 36 37 35 37 34 37 32 38 35 42 35 43 34 43 34 44 33 44 33 45 34 46 35 47 37 48 39 51 39 52 39 54 38 54 37 54 35 54 34 55 34 56 33 58 34 58 34 59 35 60 36 60 37 60 37 62 36 65 33 67 31 68 30 68 29 68 28 69 28 70 29 71 30 71 31 71 31 72 31 73 30 75 28 75 28 74 25 75 22 76 21 76 20 76 19 76 17 76 17 75 17 71 21 67 22 67 22 66 24 62 24 61 23 59 22 59 20 59 15 55 14 53 12 51 11 50 11 49 11 48 11 47 11 46 11 45 10 44 9 43 5 44 4 44 2 43 1 42 1 39 1 38 2 38 2 37 2 36 1 36 0 34 1 33 2 33 4 33 4 34 5 34 6 34 6 33 5 31 4 30 4 29 4 28 3 25 4 25 4 24 6 23 5 22 3 21 4 20 6 19 9 14 9 13 10 13 10 12 10 10 9 10 8 9 7 8 7 5 8 5 9 4 15 3 18 3 18 2 20 1 23 0 25 3"></polyline>
            </g>
        </g>
    </g>
</svg>