<?xml version="1.0" encoding="UTF-8"?>
<svg width="30px" height="71px" viewBox="0 0 30 71" version="1.1" xmlns="http://www.w3.org/2000/svg" xmlns:xlink="http://www.w3.org/1999/xlink">
    <!-- Generator: Sketch 52.4 (67378) - http://www.bohemiancoding.com/sketch -->
    <title>55</title>
    <desc>Created with Sketch.</desc>
    <g id="Page-1" stroke="none" stroke-width="1" fill="none" fill-rule="evenodd">
        <g id="wahlkreise_gen" transform="translate(-216.000000, -189.000000)" fill="#000000">
            <g id="55" transform="translate(216.000000, 189.000000)">
                <polyline id="Path" points="8 53 10 54 11 54 12 54 14 55 14 56 20 56 20 58 21 58 23 58 24 58 27 58 28 59 29 60 30 62 30 63 29 64 26 68 23 70 22 71 22 70 21 70 20 70 19 70 18 70 18 69 17 69 16 68 15 67 14 65 13 63 11 58 11 57 10 57 9 57 7 56 4 55 3 54 2 53 0 50 2 49 3 50 8 53"></polyline>
                <polyline id="Path" points="5 0 9 2 11 1 12 0 13 1 14 1 13 2 12 4 11 5 13 11 13 12 14 12 14 13 12 15 10 16 7 16 4 17 3 17 1 18 1 17 2 17 2 15 3 14 6 11 6 10 6 9 5 8 4 7 3 6 3 5 2 5 2 4 1 1 2 1 3 0 5 0"></polyline>
            </g>
        </g>
    </g>
</svg>