<?xml version="1.0" encoding="UTF-8"?>
<svg width="94px" height="122px" viewBox="0 0 94 122" version="1.1" xmlns="http://www.w3.org/2000/svg" xmlns:xlink="http://www.w3.org/1999/xlink">
    <!-- Generator: Sketch 52.4 (67378) - http://www.bohemiancoding.com/sketch -->
    <title>57</title>
    <desc>Created with Sketch.</desc>
    <g id="Page-1" stroke="none" stroke-width="1" fill="none" fill-rule="evenodd">
        <g id="wahlkreise_gen" transform="translate(-587.000000, -183.000000)" fill="#000000">
            <g id="57" transform="translate(587.000000, 183.000000)">
                <polyline id="Path" points="48 9 49 12 52 17 53 16 54 16 58 15 61 16 62 17 62 18 64 18 66 15 67 14 68 14 70 14 71 16 72 16 74 16 74 15 75 14 76 15 77 15 77 19 77 20 76 22 76 23 76 24 75 25 75 26 74 26 73 28 72 29 71 30 70 31 70 32 69 32 68 34 67 35 67 36 67 37 68 37 69 37 70 37 70 36 71 36 72 36 75 37 76 37 77 37 79 37 80 37 80 36 83 32 84 29 85 29 86 29 88 28 88 27 89 27 90 27 90 26 91 26 91 27 91 28 91 29 92 33 93 33 94 33 94 35 92 41 89 44 89 47 89 49 90 49 90 50 91 51 90 54 90 55 90 58 90 59 89 62 88 63 88 64 84 68 81 71 80 71 79 72 78 72 77 72 75 75 73 76 73 77 74 80 75 84 74 85 73 85 73 84 72 84 70 84 69 84 68 84 67 86 67 87 68 88 69 88 71 88 71 90 70 90 69 90 68 90 65 91 65 90 63 90 62 91 60 95 59 97 58 99 56 99 53 100 53 101 53 102 53 104 50 105 48 106 48 105 45 106 45 107 43 108 44 108 45 109 45 110 44 111 43 112 41 113 40 113 37 114 34 112 33 110 33 109 32 109 31 108 28 109 26 108 24 108 22 109 24 112 24 113 25 113 25 114 26 115 25 116 24 117 23 117 22 117 21 118 21 120 20 122 18 121 17 120 18 120 18 118 18 115 17 115 18 111 19 109 18 107 17 105 17 104 17 103 19 102 20 100 22 99 23 99 24 98 24 95 24 94 23 93 22 93 21 91 20 89 21 89 21 88 22 87 21 85 20 85 19 85 19 86 18 87 16 86 15 84 15 83 16 82 18 80 19 79 20 79 22 79 24 77 24 76 23 76 22 76 23 75 22 74 21 73 17 72 15 70 12 65 5 58 5 57 5 55 7 52 4 50 3 49 2 49 1 46 0 45 1 41 3 40 4 39 5 39 9 39 10 39 10 40 10 41 12 43 13 43 13 42 13 41 15 37 17 36 17 37 19 36 20 35 22 33 22 32 22 31 21 30 21 28 22 27 23 27 24 25 24 23 23 23 23 22 25 21 27 20 28 21 29 21 29 20 30 19 30 18 30 17 29 16 30 15 33 13 34 12 35 11 35 10 36 10 37 10 38 10 38 11 39 11 40 11 41 11 42 11 42 10 43 10 43 9 44 8 43 8 40 6 40 4 40 2 40 1 40 0 41 0 41 1 41 2 43 5 45 6 46 6 47 6 48 7 48 9"></polyline>
            </g>
        </g>
    </g>
</svg>