<?xml version="1.0" encoding="UTF-8"?>
<svg width="58px" height="105px" viewBox="0 0 58 105" version="1.1" xmlns="http://www.w3.org/2000/svg" xmlns:xlink="http://www.w3.org/1999/xlink">
    <!-- Generator: Sketch 52.4 (67378) - http://www.bohemiancoding.com/sketch -->
    <title>58</title>
    <desc>Created with Sketch.</desc>
    <g id="Page-1" stroke="none" stroke-width="1" fill="none" fill-rule="evenodd">
        <g id="wahlkreise_gen" transform="translate(-553.000000, -226.000000)" fill="#000000">
            <g id="58" transform="translate(553.000000, 226.000000)">
                <polyline id="Path" points="32 4 34 4 34 3 34 2 35 3 36 6 37 6 38 7 41 9 39 12 39 14 39 15 46 22 49 27 51 29 55 30 56 31 57 32 56 33 57 33 58 33 58 34 56 36 54 36 53 36 52 37 50 39 49 40 49 41 50 43 52 44 53 43 53 42 54 42 55 42 56 44 55 45 55 46 54 46 55 48 56 50 57 50 58 51 58 52 58 55 57 56 56 56 54 57 53 59 51 60 51 61 51 62 52 64 53 66 52 68 51 72 52 72 52 75 52 77 51 77 49 80 48 81 47 81 45 80 44 80 44 79 44 78 44 77 44 76 42 76 42 77 42 79 40 81 37 81 36 84 38 86 33 85 31 87 31 88 31 87 32 87 33 88 32 91 31 91 31 92 30 94 30 96 31 96 32 95 34 96 34 97 33 98 32 98 29 99 29 101 29 102 27 103 26 103 25 103 23 101 23 100 23 99 22 99 22 98 21 97 17 98 16 99 15 101 15 102 14 102 14 103 13 103 12 104 13 104 10 104 8 103 7 103 6 103 6 104 2 105 1 105 1 104 0 100 1 99 3 99 3 100 4 98 5 97 5 96 5 93 5 92 5 91 6 91 7 91 8 92 9 93 11 94 12 91 12 88 12 87 13 86 13 85 14 85 16 84 20 84 21 84 21 82 20 81 18 81 17 81 16 81 15 81 12 79 12 77 16 74 17 74 19 74 19 73 16 70 14 70 13 70 6 74 6 72 9 70 12 68 12 67 13 67 13 64 12 64 12 61 13 61 14 59 17 57 18 56 18 55 17 54 17 53 16 52 18 51 19 51 20 51 20 52 21 52 22 51 21 50 21 49 20 49 20 47 19 46 20 45 21 45 22 44 22 42 22 39 22 38 21 36 20 35 18 34 18 32 19 30 19 24 18 24 16 24 15 24 12 22 12 20 13 18 14 16 15 17 16 17 18 14 17 14 15 13 15 12 16 12 17 11 18 11 18 10 18 9 20 7 22 6 24 5 24 4 24 3 25 2 27 0 30 0 30 1 31 2 32 4"></polyline>
            </g>
        </g>
    </g>
</svg>