<?xml version="1.0" encoding="UTF-8"?>
<svg width="90px" height="100px" viewBox="0 0 90 100" version="1.1" xmlns="http://www.w3.org/2000/svg" xmlns:xlink="http://www.w3.org/1999/xlink">
    <!-- Generator: Sketch 52.4 (67378) - http://www.bohemiancoding.com/sketch -->
    <title>60</title>
    <desc>Created with Sketch.</desc>
    <g id="Page-1" stroke="none" stroke-width="1" fill="none" fill-rule="evenodd">
        <g id="wahlkreise_gen" transform="translate(-506.000000, -306.000000)" fill="#000000">
            <g id="60" transform="translate(506.000000, 306.000000)">
                <polyline id="Path" points="19 0 20 1 21 2 20 2 20 3 20 6 20 9 18 9 20 14 22 13 22 14 24 14 25 14 26 13 27 13 27 14 28 16 29 16 34 17 35 17 37 16 38 15 43 13 45 14 46 14 46 15 45 16 46 17 47 17 48 18 48 19 47 20 48 24 48 25 49 25 53 24 53 23 54 23 55 23 57 24 57 26 57 29 57 31 57 32 56 31 55 31 54 31 53 31 54 35 55 38 55 41 55 44 55 45 56 45 58 45 59 45 60 45 61 45 62 48 63 48 64 47 65 47 66 46 67 45 68 44 74 47 75 48 75 49 74 49 73 50 73 52 76 53 77 54 78 54 78 55 77 58 74 60 70 63 68 65 67 65 69 69 70 71 74 72 75 73 77 73 78 73 78 72 79 72 81 72 83 74 83 75 84 76 84 77 85 78 88 81 89 82 90 83 88 86 87 88 86 89 85 88 83 87 82 88 80 91 79 95 79 99 79 100 77 100 76 100 75 99 76 99 76 97 76 96 74 96 73 96 71 96 70 94 69 92 67 92 65 93 64 93 63 93 60 93 60 92 60 91 60 90 60 89 59 88 58 89 57 89 56 89 55 89 54 89 53 87 52 87 50 86 48 85 47 84 45 83 44 83 44 84 43 84 43 85 43 86 41 87 40 88 35 87 30 82 27 83 27 84 26 84 26 83 25 83 24 82 23 81 21 80 20 80 18 78 17 77 17 75 16 75 16 74 14 73 13 73 10 68 8 65 8 64 10 60 10 59 11 58 12 58 14 57 12 55 11 54 10 54 10 51 10 50 11 48 12 45 13 43 14 42 14 41 13 40 12 40 12 38 13 31 13 28 14 27 15 26 15 25 14 22 12 22 11 22 6 22 5 22 3 22 2 21 2 20 0 17 1 14 2 11 1 7 1 6 2 5 2 6 3 6 4 6 6 5 6 2 6 0 7 0 11 0 14 0 18 0 19 0"></polyline>
            </g>
        </g>
    </g>
</svg>