<?xml version="1.0" encoding="UTF-8"?>
<svg width="47px" height="37px" viewBox="0 0 47 37" version="1.1" xmlns="http://www.w3.org/2000/svg" xmlns:xlink="http://www.w3.org/1999/xlink">
    <!-- Generator: Sketch 52.4 (67378) - http://www.bohemiancoding.com/sketch -->
    <title>61</title>
    <desc>Created with Sketch.</desc>
    <g id="Page-1" stroke="none" stroke-width="1" fill="none" fill-rule="evenodd">
        <g id="wahlkreise_gen" transform="translate(-559.000000, -323.000000)" fill="#000000">
            <g id="61" transform="translate(559.000000, 323.000000)">
                <polyline id="Path" points="19 6 20 6 21 6 23 5 23 4 23 2 26 1 27 1 24 4 24 5 24 7 25 9 24 10 23 12 23 13 26 15 29 15 28 14 28 13 31 12 33 11 35 11 38 12 39 11 40 13 41 14 40 14 40 15 40 16 39 18 38 19 37 20 36 20 36 21 36 22 38 22 40 21 42 22 44 23 44 25 45 27 46 27 47 27 46 29 46 31 42 32 41 33 38 33 38 32 38 31 36 30 32 30 32 31 31 32 32 32 32 33 31 33 30 34 29 34 28 33 28 32 27 32 26 33 25 34 25 35 26 35 26 36 25 37 24 37 23 36 20 35 20 33 21 32 22 32 22 31 21 30 15 27 14 28 13 29 12 30 11 30 10 31 9 31 8 28 7 28 6 28 5 28 3 28 2 28 2 27 2 24 2 21 1 18 0 14 1 14 2 14 3 14 4 15 4 14 4 12 4 9 4 7 7 7 6 7 7 6 8 6 8 5 9 5 9 4 10 2 11 1 15 0 16 1 16 2 17 2 17 3 17 4 19 6"></polyline>
            </g>
        </g>
    </g>
</svg>