<?xml version="1.0" encoding="UTF-8"?>
<svg width="121px" height="89px" viewBox="0 0 121 89" version="1.1" xmlns="http://www.w3.org/2000/svg" xmlns:xlink="http://www.w3.org/1999/xlink">
    <!-- Generator: Sketch 52.4 (67378) - http://www.bohemiancoding.com/sketch -->
    <title>62</title>
    <desc>Created with Sketch.</desc>
    <g id="Page-1" stroke="none" stroke-width="1" fill="none" fill-rule="evenodd">
        <g id="wahlkreise_gen" transform="translate(-573.000000, -333.000000)" fill="#000000">
            <g id="62" transform="translate(573.000000, 333.000000)">
                <polyline id="Path" points="40 2 40 3 43 2 44 3 45 3 46 3 47 3 48 3 49 2 53 4 53 5 53 6 55 6 57 5 58 4 57 4 58 3 58 2 59 2 59 3 60 3 61 5 62 7 62 8 61 10 61 11 62 12 65 11 69 12 68 14 68 15 69 15 70 15 71 15 71 18 70 19 69 21 69 22 72 28 74 28 74 29 74 30 73 30 71 35 71 37 73 37 76 35 79 34 81 34 82 34 83 36 84 37 85 37 86 37 90 38 91 39 92 39 93 40 93 42 94 44 95 44 100 43 100 41 100 39 102 39 103 39 102 40 101 41 101 42 101 43 102 45 104 46 105 46 106 46 107 45 108 44 109 42 111 41 112 40 114 41 115 41 116 42 117 43 117 44 117 45 117 46 118 46 119 46 120 46 121 47 120 48 119 48 118 48 116 48 114 49 115 53 116 56 117 58 116 58 114 58 113 58 112 58 111 58 105 63 104 65 103 67 100 69 99 69 94 67 93 67 92 69 92 71 92 72 90 72 89 72 88 72 87 72 87 73 86 76 86 78 86 79 83 82 80 80 80 77 78 78 77 78 77 77 77 76 78 75 75 74 74 73 73 75 73 76 73 78 74 80 73 80 72 80 71 80 71 81 73 84 74 84 75 84 75 85 75 86 75 87 72 86 71 86 71 87 70 87 70 86 69 85 69 84 65 84 63 86 63 87 63 88 63 89 61 88 60 88 60 87 60 86 57 87 56 87 55 87 53 86 53 85 52 86 51 86 51 87 49 85 47 82 47 81 46 81 45 81 43 81 41 80 40 79 39 78 36 78 34 77 31 77 31 78 30 78 30 79 27 79 26 78 25 78 24 77 24 75 23 75 23 74 24 73 24 72 24 71 20 70 19 71 18 71 18 72 19 73 19 74 18 74 18 73 18 72 17 71 16 71 15 71 15 72 13 73 12 72 12 68 13 64 15 61 16 60 18 61 19 62 20 61 21 59 23 56 22 55 21 54 18 51 17 50 17 49 16 48 16 47 14 45 12 45 11 45 11 46 10 46 8 46 7 45 3 44 2 42 0 38 1 38 3 36 7 33 10 31 11 28 11 27 12 26 12 25 11 25 11 24 12 23 13 22 14 22 14 23 15 24 16 24 17 23 18 23 18 22 17 22 18 21 18 20 22 20 24 21 24 22 24 23 27 23 28 22 32 21 32 19 33 17 32 17 31 17 30 15 30 13 28 12 26 11 24 12 22 12 22 11 22 10 23 10 24 9 25 8 26 6 26 5 26 4 27 4 26 3 29 1 29 2 31 4 33 6 34 6 35 6 36 4 35 3 35 2 35 1 38 0 39 0 40 2"></polyline>
            </g>
        </g>
    </g>
</svg>