<?xml version="1.0" encoding="UTF-8"?>
<svg width="91px" height="62px" viewBox="0 0 91 62" version="1.1" xmlns="http://www.w3.org/2000/svg" xmlns:xlink="http://www.w3.org/1999/xlink">
    <!-- Generator: Sketch 52.4 (67378) - http://www.bohemiancoding.com/sketch -->
    <title>63</title>
    <desc>Created with Sketch.</desc>
    <g id="Page-1" stroke="none" stroke-width="1" fill="none" fill-rule="evenodd">
        <g id="wahlkreise_gen" transform="translate(-627.000000, -319.000000)" fill="#000000">
            <g id="63" transform="translate(627.000000, 319.000000)">
                <polyline id="Path" points="48 4 49 8 50 9 50 11 52 14 55 15 56 14 56 13 57 13 58 13 61 15 61 12 62 12 63 11 65 11 68 12 69 12 70 11 71 13 71 14 73 20 74 24 74 25 75 26 76 26 76 27 78 27 83 28 84 28 84 29 86 31 86 40 85 40 85 41 84 42 84 43 84 46 84 47 85 47 85 48 86 48 86 49 87 49 88 49 89 50 90 51 91 52 91 53 90 57 90 58 89 60 88 61 85 61 84 61 84 60 84 59 83 59 83 58 79 58 78 58 77 58 76 59 76 60 76 61 75 62 71 62 70 61 69 57 69 56 68 56 66 58 66 60 65 60 64 60 63 60 63 59 63 58 63 57 62 56 61 55 60 55 58 54 57 55 55 56 54 58 53 59 52 60 51 60 50 60 48 59 47 57 47 56 47 55 48 54 49 53 48 53 46 53 46 55 46 57 41 58 40 58 39 56 39 54 38 53 37 53 36 52 32 51 31 51 30 51 29 50 28 48 27 48 25 48 22 49 19 51 17 51 17 49 19 44 20 44 20 43 20 42 18 42 15 36 15 35 16 33 17 32 17 29 16 29 15 29 14 29 14 28 15 26 11 25 8 26 7 25 7 24 8 22 8 21 7 19 6 17 5 17 5 16 4 16 4 17 3 18 3 17 6 13 7 10 4 7 3 6 1 6 0 6 0 5 0 4 1 3 1 2 2 2 3 2 6 4 7 6 8 9 11 9 13 9 15 7 19 4 23 4 25 5 26 5 26 6 27 7 28 6 28 5 29 4 30 3 32 3 33 3 33 5 37 4 40 4 41 2 41 1 41 0 43 0 44 0 45 1 48 4"></polyline>
            </g>
        </g>
    </g>
</svg>