<?xml version="1.0" encoding="UTF-8"?>
<svg width="58px" height="71px" viewBox="0 0 58 71" version="1.1" xmlns="http://www.w3.org/2000/svg" xmlns:xlink="http://www.w3.org/1999/xlink">
    <!-- Generator: Sketch 52.4 (67378) - http://www.bohemiancoding.com/sketch -->
    <title>64</title>
    <desc>Created with Sketch.</desc>
    <g id="Page-1" stroke="none" stroke-width="1" fill="none" fill-rule="evenodd">
        <g id="wahlkreise_gen" transform="translate(-665.000000, -375.000000)" fill="#000000">
            <g id="64" transform="translate(665.000000, 375.000000)">
                <polyline id="Path" points="32 5 33 6 37 6 38 5 38 4 38 3 39 2 40 2 41 2 45 2 45 3 46 3 46 4 46 5 47 5 50 5 51 6 50 7 51 13 49 18 47 20 46 22 46 23 45 23 44 24 43 26 42 27 42 29 43 31 45 32 46 32 47 32 47 34 48 37 48 38 48 39 49 41 51 43 53 45 55 46 56 47 57 49 58 54 57 58 56 59 54 58 53 58 53 59 53 60 53 62 52 63 52 64 51 64 48 64 46 63 45 62 45 61 43 61 42 61 41 62 41 63 40 63 38 64 37 64 34 64 33 65 33 66 28 67 26 69 25 71 23 71 23 70 19 69 13 68 10 68 10 66 9 65 8 64 9 62 11 61 12 61 13 58 12 57 11 56 9 55 7 56 6 56 6 55 3 51 5 47 6 47 6 46 7 45 7 44 7 43 6 42 6 43 5 43 4 43 3 42 3 41 3 40 4 37 4 36 5 36 5 35 3 33 3 32 2 31 1 31 0 31 0 29 0 27 1 25 2 25 7 27 8 27 11 25 12 23 13 21 19 16 20 16 21 16 22 16 24 16 25 16 24 14 23 11 22 7 24 6 26 6 27 6 28 6 29 5 28 4 28 2 30 0 31 0 31 1 32 5"></polyline>
            </g>
        </g>
    </g>
</svg>