<?xml version="1.0" encoding="UTF-8"?>
<svg width="118px" height="92px" viewBox="0 0 118 92" version="1.1" xmlns="http://www.w3.org/2000/svg" xmlns:xlink="http://www.w3.org/1999/xlink">
    <!-- Generator: Sketch 52.4 (67378) - http://www.bohemiancoding.com/sketch -->
    <title>66</title>
    <desc>Created with Sketch.</desc>
    <g id="Page-1" stroke="none" stroke-width="1" fill="none" fill-rule="evenodd">
        <g id="wahlkreise_gen" transform="translate(-395.000000, -259.000000)" fill="#000000">
            <g id="66" transform="translate(395.000000, 259.000000)">
                <polyline id="Path" points="70 5 72 6 75 7 76 7 77 7 78 7 79 8 79 9 80 9 80 10 81 10 82 10 83 10 84 10 84 11 85 11 85 12 85 13 84 13 84 14 84 15 83 15 84 16 84 17 85 17 89 18 96 21 97 20 98 20 98 19 99 19 101 19 102 19 103 19 105 20 106 20 107 20 107 21 108 21 108 22 107 23 108 23 109 22 110 22 111 22 111 21 112 21 112 20 114 21 115 21 116 22 116 23 117 27 117 28 118 28 118 29 118 30 118 31 116 31 115 33 115 35 114 35 115 39 115 41 116 44 117 44 118 46 118 47 117 47 117 49 117 52 115 53 114 53 113 53 113 52 112 53 112 54 113 58 112 61 111 64 113 67 113 68 113 69 109 68 108 68 108 66 107 65 106 65 106 64 105 64 104 65 104 66 100 67 99 67 99 65 99 62 99 60 98 61 98 65 97 68 98 69 98 70 99 70 100 74 100 75 100 78 99 78 99 79 98 82 97 82 97 83 95 84 94 86 93 88 93 89 92 89 89 91 89 92 88 91 87 88 87 85 87 83 87 82 86 81 84 80 83 80 82 81 83 81 83 82 83 83 80 83 78 82 78 80 76 76 71 74 67 76 66 79 66 81 65 82 59 85 56 86 56 84 57 84 57 83 55 82 53 81 51 80 50 80 49 81 47 81 46 81 46 80 45 79 40 80 33 80 32 80 29 78 28 78 26 75 25 73 25 72 25 71 24 71 22 72 21 73 19 70 18 69 17 68 17 67 16 66 16 65 15 63 15 61 17 59 18 59 18 58 18 57 18 56 17 56 16 56 16 57 15 57 14 58 12 55 12 54 11 53 7 47 6 46 4 45 3 45 2 39 1 37 0 36 0 35 0 34 1 30 1 28 2 28 3 28 6 27 7 27 10 27 14 26 18 22 18 21 18 20 18 19 19 19 25 18 26 19 26 20 27 20 28 20 30 20 31 20 31 19 36 20 37 21 42 23 44 22 49 19 52 17 54 15 55 14 56 14 57 14 58 14 58 13 57 11 58 7 58 6 59 5 60 5 62 4 65 1 66 0 67 0 68 0 69 1 68 2 68 3 67 3 67 4 68 4 70 5"></polyline>
            </g>
        </g>
    </g>
</svg>