<?xml version="1.0" encoding="UTF-8"?>
<svg width="111px" height="90px" viewBox="0 0 111 90" version="1.1" xmlns="http://www.w3.org/2000/svg" xmlns:xlink="http://www.w3.org/1999/xlink">
    <!-- Generator: Sketch 52.4 (67378) - http://www.bohemiancoding.com/sketch -->
    <title>67</title>
    <desc>Created with Sketch.</desc>
    <g id="Page-1" stroke="none" stroke-width="1" fill="none" fill-rule="evenodd">
        <g id="wahlkreise_gen" transform="translate(-410.000000, -319.000000)" fill="#000000">
            <g id="67" transform="translate(410.000000, 319.000000)">
                <polyline id="Path" points="84 7 85 7 89 6 89 5 90 4 91 4 91 5 92 5 93 6 93 8 94 8 98 9 98 8 99 9 101 9 102 9 107 9 108 9 110 9 111 12 111 13 110 14 109 15 109 18 108 25 108 27 109 27 110 28 110 29 109 30 108 32 107 35 106 37 106 38 106 41 107 41 108 42 110 44 108 45 107 45 106 46 106 47 104 51 104 52 106 55 109 60 108 60 107 60 106 60 104 60 103 61 103 62 102 64 101 64 98 65 97 65 93 65 93 66 92 67 89 68 84 72 83 73 83 74 82 74 81 74 79 75 79 74 78 73 78 72 75 67 74 67 71 66 70 66 68 66 68 65 67 63 66 62 65 62 64 62 64 61 63 56 62 53 61 51 62 51 62 50 63 49 61 48 60 46 59 46 57 46 57 47 58 48 58 50 57 51 56 51 56 52 55 52 54 52 53 52 52 53 51 54 50 57 50 59 50 61 50 62 49 64 49 65 49 66 48 66 49 67 50 67 50 68 51 68 53 67 54 67 55 67 57 69 58 72 57 72 56 73 55 73 56 74 56 77 56 80 55 80 49 81 48 81 48 80 47 79 46 78 45 78 44 78 43 78 43 77 43 76 43 75 42 75 40 75 40 76 38 79 37 79 36 79 36 80 35 81 35 82 36 83 37 85 36 87 35 89 34 89 34 88 30 89 28 89 28 90 26 88 25 87 24 86 23 86 22 87 21 87 20 85 21 84 20 81 19 77 16 77 15 76 14 75 13 74 12 73 12 72 9 72 5 70 4 70 5 68 5 67 5 66 4 66 3 66 2 65 2 64 3 63 4 63 5 63 7 62 10 60 11 57 11 55 10 55 9 55 8 54 8 53 7 53 8 51 8 50 9 49 11 49 12 49 13 49 13 47 13 46 11 43 9 42 8 41 7 40 7 39 8 39 8 38 9 38 9 37 6 33 8 32 9 32 10 32 11 31 11 29 11 28 10 27 9 27 9 26 7 25 4 22 2 19 0 17 0 16 1 14 4 12 6 13 7 12 9 11 10 11 10 12 10 13 11 15 13 18 14 18 17 20 18 20 25 20 30 19 31 20 31 21 32 21 34 21 35 20 36 20 38 21 40 22 42 23 42 24 41 24 41 26 44 25 50 22 51 21 51 19 52 16 56 14 61 16 63 20 63 22 65 23 68 23 68 22 68 21 67 21 68 20 69 20 71 21 72 22 72 23 72 25 72 28 73 31 74 32 74 31 77 29 78 29 78 28 79 26 80 24 82 23 82 22 83 22 84 19 84 18 85 18 85 15 85 14 84 10 83 10 83 9 82 8 83 5 83 1 84 0 84 2 84 5 84 7"></polyline>
            </g>
        </g>
    </g>
</svg>