<?xml version="1.0" encoding="UTF-8"?>
<svg width="87px" height="64px" viewBox="0 0 87 64" version="1.1" xmlns="http://www.w3.org/2000/svg" xmlns:xlink="http://www.w3.org/1999/xlink">
    <!-- Generator: Sketch 52.4 (67378) - http://www.bohemiancoding.com/sketch -->
    <title>68</title>
    <desc>Created with Sketch.</desc>
    <g id="Page-1" stroke="none" stroke-width="1" fill="none" fill-rule="evenodd">
        <g id="wahlkreise_gen" transform="translate(-382.000000, -388.000000)" fill="#000000">
            <g id="68" transform="translate(382.000000, 388.000000)">
                <polyline id="Path" points="33 1 37 3 40 3 40 4 41 5 42 6 43 7 44 8 47 8 48 12 49 15 48 16 49 18 50 18 51 17 52 17 53 18 54 19 56 21 56 20 58 20 62 19 62 20 63 20 63 23 64 23 65 24 66 26 66 27 67 28 68 28 71 28 72 27 73 27 74 27 75 28 75 30 75 31 75 32 78 34 78 36 79 37 80 38 83 39 86 40 86 41 87 45 87 46 87 47 86 47 85 45 83 46 82 47 80 48 78 47 78 46 78 45 77 44 76 44 74 44 70 43 69 42 68 44 68 45 64 48 63 49 63 50 60 53 59 53 57 54 55 54 55 56 56 56 57 57 56 58 56 60 54 61 53 61 52 61 50 62 49 63 48 64 47 64 46 63 46 62 47 62 47 63 48 62 47 61 45 60 43 60 40 59 39 59 39 57 38 57 34 56 33 56 31 56 30 58 29 58 29 59 28 59 27 59 26 57 21 55 20 55 19 55 18 55 15 55 13 55 12 55 11 55 10 52 9 50 9 49 9 48 6 43 3 39 2 38 2 34 1 34 2 30 3 28 4 28 6 25 7 23 7 22 7 21 6 20 5 19 4 19 4 17 5 16 6 14 3 12 2 12 0 8 3 8 5 8 7 6 7 5 8 5 7 5 7 3 10 3 10 2 11 2 17 2 18 2 19 2 21 2 22 2 23 2 24 2 27 1 30 0 30 1 32 1 33 1"></polyline>
            </g>
        </g>
    </g>
</svg>