<?xml version="1.0" encoding="UTF-8"?>
<svg width="162px" height="83px" viewBox="0 0 162 83" version="1.1" xmlns="http://www.w3.org/2000/svg" xmlns:xlink="http://www.w3.org/1999/xlink">
    <!-- Generator: Sketch 52.4 (67378) - http://www.bohemiancoding.com/sketch -->
    <title>7</title>
    <desc>Created with Sketch.</desc>
    <g id="Page-1" stroke="none" stroke-width="1" fill="none" fill-rule="evenodd">
        <g id="wahlkreise_gen" transform="translate(-171.000000, -113.000000)" fill="#000000">
            <g id="7" transform="translate(171.000000, 113.000000)">
                <polyline id="Path" points="143 39 144 41 145 42 146 43 147 44 148 44 149 45 152 48 153 49 154 51 153 54 155 57 156 57 158 57 159 57 159 56 160 56 160 55 161 55 162 56 161 58 160 61 159 62 159 63 158 63 158 64 158 67 159 70 157 70 156 70 155 72 155 73 154 73 154 74 153 75 153 76 152 77 150 79 149 79 148 78 147 77 145 75 145 74 145 73 144 74 143 77 143 79 143 82 142 83 140 82 138 82 132 78 130 77 128 75 128 74 127 73 127 72 127 70 126 69 126 68 125 65 123 63 126 62 128 62 129 62 130 62 131 61 130 61 129 58 131 56 132 56 134 55 135 54 136 51 137 51 138 46 136 44 136 42 136 41 135 41 136 40 137 39 138 39 139 39 140 39 143 39"></polyline>
                <polyline id="Path" points="2 0 2 1 2 3 1 3 0 0 1 0 2 0"></polyline>
            </g>
        </g>
    </g>
</svg>