<?xml version="1.0" encoding="UTF-8"?>
<svg width="86px" height="55px" viewBox="0 0 86 55" version="1.1" xmlns="http://www.w3.org/2000/svg" xmlns:xlink="http://www.w3.org/1999/xlink">
    <!-- Generator: Sketch 52.4 (67378) - http://www.bohemiancoding.com/sketch -->
    <title>70</title>
    <desc>Created with Sketch.</desc>
    <g id="Page-1" stroke="none" stroke-width="1" fill="none" fill-rule="evenodd">
        <g id="wahlkreise_gen" transform="translate(-507.000000, -386.000000)" fill="#000000">
            <g id="70" transform="translate(507.000000, 386.000000)">
                <polyline id="Path" points="26 4 26 3 29 2 34 7 39 8 40 7 42 6 42 5 42 4 43 4 43 3 44 3 46 4 47 5 49 6 51 7 52 7 53 9 54 9 55 9 56 9 57 9 58 8 59 9 59 10 59 11 59 12 59 13 62 13 63 13 64 13 66 12 68 12 69 14 70 16 72 16 73 16 75 16 75 17 75 19 74 19 75 20 76 20 78 20 78 19 79 20 81 19 81 18 82 18 83 18 84 19 84 20 84 21 83 21 82 21 82 22 82 23 82 24 84 26 84 27 85 28 86 30 86 31 85 32 85 33 84 33 85 36 86 43 85 43 85 44 81 46 77 49 76 50 75 50 74 50 74 49 75 48 74 48 74 47 73 46 72 47 71 47 70 47 70 49 66 50 65 50 62 48 62 47 61 46 60 45 59 46 57 48 55 50 54 50 53 50 51 49 50 49 49 49 48 49 47 49 47 50 46 51 46 52 46 53 44 55 42 55 41 54 39 54 39 53 38 51 37 49 34 50 34 49 30 47 30 46 30 45 30 44 29 44 27 44 26 45 25 45 25 46 20 47 18 43 18 42 18 41 19 41 18 41 17 40 17 39 16 36 15 34 14 33 14 32 11 35 10 37 7 37 4 36 1 35 1 34 1 33 2 32 3 26 3 24 2 24 1 24 0 24 0 23 1 21 1 20 2 19 4 18 8 14 8 13 8 12 9 11 12 10 13 10 13 9 12 9 14 7 17 5 19 2 20 2 20 0 22 1 23 2 24 3 25 3 25 4 26 4"></polyline>
            </g>
        </g>
    </g>
</svg>