<?xml version="1.0" encoding="UTF-8"?>
<svg width="77px" height="63px" viewBox="0 0 77 63" version="1.1" xmlns="http://www.w3.org/2000/svg" xmlns:xlink="http://www.w3.org/1999/xlink">
    <!-- Generator: Sketch 52.4 (67378) - http://www.bohemiancoding.com/sketch -->
    <title>73</title>
    <desc>Created with Sketch.</desc>
    <g id="Page-1" stroke="none" stroke-width="1" fill="none" fill-rule="evenodd">
        <g id="wahlkreise_gen" transform="translate(-450.000000, -467.000000)" fill="#000000">
            <g id="73" transform="translate(450.000000, 467.000000)">
                <polyline id="Path" points="46 1 46 2 47 3 47 4 51 4 52 4 52 3 52 2 53 1 60 2 63 2 65 2 65 4 66 10 67 12 65 13 63 14 64 17 65 18 65 19 65 20 65 21 65 22 66 22 67 22 67 23 67 24 67 27 67 29 67 31 68 37 69 37 70 38 71 38 72 38 72 39 71 39 71 40 70 40 70 41 71 42 73 43 74 43 74 42 75 42 76 44 74 45 74 47 74 49 75 50 76 50 77 51 77 52 76 53 75 56 73 58 72 59 72 60 73 60 73 61 73 62 71 63 70 62 68 59 67 59 67 60 66 60 66 61 60 59 56 60 54 60 54 59 54 58 53 57 50 54 44 51 40 50 36 51 34 51 32 49 30 48 29 48 28 48 27 46 27 45 27 44 25 43 24 43 23 43 20 43 17 42 16 43 15 44 10 45 10 44 9 44 8 43 8 40 8 39 9 39 9 38 9 37 8 33 6 31 5 31 5 30 4 31 3 32 0 29 1 27 1 26 2 27 3 27 4 26 7 22 7 20 8 20 10 21 12 22 14 22 15 22 16 21 16 20 16 19 17 18 19 16 20 16 21 16 21 17 21 18 24 21 25 21 27 23 27 22 28 22 32 20 32 21 33 22 34 23 34 24 36 25 37 26 40 26 41 25 41 23 40 23 40 22 38 21 37 22 36 21 36 20 37 18 38 17 38 14 41 13 43 12 45 14 46 14 47 15 47 16 47 17 47 18 48 18 49 19 50 18 51 17 51 14 53 13 53 12 54 11 54 10 54 9 54 8 53 7 52 7 50 6 49 6 47 7 47 8 46 9 46 10 45 10 44 10 43 8 43 7 43 5 43 4 43 3 44 2 45 0 46 0 46 1"></polyline>
            </g>
        </g>
    </g>
</svg>