<?xml version="1.0" encoding="UTF-8"?>
<svg width="95px" height="63px" viewBox="0 0 95 63" version="1.1" xmlns="http://www.w3.org/2000/svg" xmlns:xlink="http://www.w3.org/1999/xlink">
    <!-- Generator: Sketch 52.4 (67378) - http://www.bohemiancoding.com/sketch -->
    <title>74</title>
    <desc>Created with Sketch.</desc>
    <g id="Page-1" stroke="none" stroke-width="1" fill="none" fill-rule="evenodd">
        <g id="wahlkreise_gen" transform="translate(-409.000000, -430.000000)" fill="#000000">
            <g id="74" transform="translate(409.000000, 430.000000)">
                <polyline id="Path" points="51 5 53 6 55 5 56 4 58 3 59 5 59 6 59 7 58 7 58 8 61 9 63 10 64 10 65 10 66 10 67 11 67 12 68 12 70 12 70 11 70 10 70 9 71 9 72 10 75 9 77 9 79 6 80 6 80 7 83 9 84 10 86 10 87 10 90 9 90 10 90 11 89 12 88 12 87 12 84 12 84 13 83 14 84 15 83 17 82 18 82 20 82 21 81 21 83 23 82 24 81 24 79 27 80 30 80 31 84 36 85 36 85 37 86 37 85 39 84 40 84 41 84 42 84 44 84 45 85 47 86 47 87 47 87 46 88 45 88 44 90 43 91 43 93 44 94 44 95 45 95 46 95 47 95 48 94 49 94 50 92 51 92 54 91 55 90 56 89 55 88 55 88 54 88 53 88 52 87 51 86 51 84 49 82 50 79 51 79 54 78 55 77 57 77 58 78 59 79 58 81 59 81 60 82 60 82 62 81 63 78 63 77 62 75 61 75 60 74 59 73 58 73 57 69 59 68 59 68 60 66 58 65 58 62 55 62 54 62 53 61 53 60 53 58 55 57 56 57 57 57 58 56 59 55 59 53 59 51 58 49 57 49 56 49 55 47 54 46 54 46 53 45 53 45 52 45 51 44 51 43 50 42 48 42 47 43 47 43 46 42 45 41 45 39 45 37 45 37 44 37 43 36 42 35 42 33 43 31 43 26 43 23 43 22 43 19 42 16 40 15 40 14 40 14 41 12 42 11 42 10 42 10 41 8 41 8 40 7 34 7 33 6 31 5 27 2 24 1 23 0 21 0 20 1 19 1 18 1 19 2 19 3 19 4 19 4 18 3 16 4 14 6 14 7 14 11 15 12 15 12 17 13 17 16 18 18 18 20 19 21 20 20 21 20 20 19 20 19 21 20 22 21 22 22 21 23 20 25 19 26 19 27 19 29 18 29 16 30 15 29 14 28 14 28 12 30 12 32 11 33 11 36 8 36 7 37 6 41 3 41 2 42 0 43 1 47 2 49 2 50 2 51 3 51 4 51 5"></polyline>
            </g>
        </g>
    </g>
</svg>