<?xml version="1.0" encoding="UTF-8"?>
<svg width="15px" height="15px" viewBox="0 0 15 15" version="1.1" xmlns="http://www.w3.org/2000/svg" xmlns:xlink="http://www.w3.org/1999/xlink">
    <!-- Generator: Sketch 52.4 (67378) - http://www.bohemiancoding.com/sketch -->
    <title>77</title>
    <desc>Created with Sketch.</desc>
    <g id="Page-1" stroke="none" stroke-width="1" fill="none" fill-rule="evenodd">
        <g id="wahlkreise_gen" transform="translate(-589.000000, -302.000000)" fill="#000000">
            <g id="77" transform="translate(589.000000, 302.000000)">
                <polyline id="Path" points="13 4 13 5 14 5 14 6 14 7 14 8 13 9 12 9 13 10 15 11 15 12 14 13 11 13 9 13 9 14 9 15 8 15 7 15 5 15 4 15 4 14 3 14 3 13 2 12 2 11 1 10 2 10 0 8 1 5 4 5 6 3 6 1 6 0 8 0 8 1 8 2 8 3 8 4 9 4 11 5 12 5 13 4"></polyline>
            </g>
        </g>
    </g>
</svg>