<?xml version="1.0" encoding="UTF-8"?>
<svg width="9px" height="17px" viewBox="0 0 9 17" version="1.1" xmlns="http://www.w3.org/2000/svg" xmlns:xlink="http://www.w3.org/1999/xlink">
    <!-- Generator: Sketch 52.4 (67378) - http://www.bohemiancoding.com/sketch -->
    <title>81</title>
    <desc>Created with Sketch.</desc>
    <g id="Page-1" stroke="none" stroke-width="1" fill="none" fill-rule="evenodd">
        <g id="wahlkreise_gen" transform="translate(-600.000000, -322.000000)" fill="#000000">
            <g id="81" transform="translate(600.000000, 322.000000)">
                <polyline id="Path" points="3 1 3 2 4 3 5 3 6 3 6 2 7 7 7 11 7 12 8 12 8 13 8 14 9 15 8 17 7 17 6 17 4 15 2 13 2 12 3 11 4 10 3 7 2 6 1 5 0 5 1 0 3 1"></polyline>
            </g>
        </g>
    </g>
</svg>