<?xml version="1.0" encoding="UTF-8"?>
<svg width="25px" height="16px" viewBox="0 0 25 16" version="1.1" xmlns="http://www.w3.org/2000/svg" xmlns:xlink="http://www.w3.org/1999/xlink">
    <!-- Generator: Sketch 52.4 (67378) - http://www.bohemiancoding.com/sketch -->
    <title>84</title>
    <desc>Created with Sketch.</desc>
    <g id="Page-1" stroke="none" stroke-width="1" fill="none" fill-rule="evenodd">
        <g id="wahlkreise_gen" transform="translate(-609.000000, -323.000000)" fill="#000000">
            <g id="84" transform="translate(609.000000, 323.000000)">
                <polyline id="Path" points="4 1 6 2 7 3 9 2 10 2 11 2 11 1 12 1 14 2 15 2 16 1 17 1 18 2 19 2 21 2 22 3 25 6 24 9 21 13 21 14 22 14 21 15 19 16 17 16 17 15 17 14 13 12 12 13 11 13 10 13 9 13 8 13 7 12 7 11 7 10 7 9 6 9 6 8 5 8 4 7 2 6 2 5 3 5 3 4 2 2 2 1 1 1 0 1 0 0 1 0 2 0 3 1 4 1"></polyline>
            </g>
        </g>
    </g>
</svg>