<?xml version="1.0" encoding="UTF-8"?>
<svg width="20px" height="27px" viewBox="0 0 20 27" version="1.1" xmlns="http://www.w3.org/2000/svg" xmlns:xlink="http://www.w3.org/1999/xlink">
    <!-- Generator: Sketch 52.4 (67378) - http://www.bohemiancoding.com/sketch -->
    <title>87</title>
    <desc>Created with Sketch.</desc>
    <g id="Page-1" stroke="none" stroke-width="1" fill="none" fill-rule="evenodd">
        <g id="wahlkreise_gen" transform="translate(-7.000000, -542.000000)" fill="#000000">
            <g id="87" transform="translate(7.000000, 542.000000)">
                <polyline id="Path" points="18 26 17 27 16 27 16 26 17 26 18 26"></polyline>
                <polyline id="Path" points="8 1 8 2 8 4 9 6 11 7 13 7 15 7 16 7 18 9 18 14 19 17 20 21 19 22 18 24 18 26 18 25 17 25 17 26 16 26 14 23 14 22 12 18 11 18 10 18 8 18 6 17 4 13 4 12 4 11 5 11 4 10 3 10 2 9 2 8 1 8 0 7 1 7 1 6 2 6 3 7 5 6 5 5 5 4 4 4 4 3 4 2 4 1 7 0 8 0 8 1"></polyline>
            </g>
        </g>
    </g>
</svg>