<?xml version="1.0" encoding="UTF-8"?>
<svg width="28px" height="60px" viewBox="0 0 28 60" version="1.1" xmlns="http://www.w3.org/2000/svg" xmlns:xlink="http://www.w3.org/1999/xlink">
    <!-- Generator: Sketch 52.4 (67378) - http://www.bohemiancoding.com/sketch -->
    <title>88</title>
    <desc>Created with Sketch.</desc>
    <g id="Page-1" stroke="none" stroke-width="1" fill="none" fill-rule="evenodd">
        <g id="wahlkreise_gen" transform="translate(-15.000000, -530.000000)" fill="#000000">
            <g id="88" transform="translate(15.000000, 530.000000)">
                <polyline id="Path" points="10 56 9 56 9 55 10 55 10 56"></polyline>
                <polyline id="Path" points="13 49 13 50 13 51 12 51 11 52 10 52 10 53 10 54 9 54 8 53 8 52 12 47 13 48 13 49"></polyline>
                <polyline id="Path" points="14 41 15 41 16 41 16 42 16 43 13 43 9 42 8 40 9 40 9 41 10 41 11 41 12 41 12 40 13 40 14 41"></polyline>
                <polyline id="Path" points="12 1 13 1 14 2 14 4 13 6 12 6 12 7 13 11 14 12 16 12 17 11 18 10 19 9 20 9 21 11 21 12 22 18 21 20 20 21 19 21 20 24 21 24 22 24 23 23 24 22 24 25 20 31 18 35 17 35 17 36 18 37 19 37 21 39 23 39 25 39 28 41 28 42 28 43 27 43 26 43 26 44 26 45 26 46 27 46 28 46 28 45 28 46 26 50 25 50 24 51 23 53 23 54 23 55 24 55 25 55 24 57 23 57 23 58 22 58 21 59 20 59 19 60 19 59 15 59 11 59 10 57 10 56 9 55 10 55 10 54 10 53 11 52 12 51 13 51 13 50 13 49 13 48 14 46 14 45 15 45 16 44 16 42 16 41 15 40 14 41 13 40 12 40 12 41 11 41 10 41 9 41 9 40 9 39 10 39 10 38 10 36 11 34 12 33 11 29 10 26 10 21 8 19 7 19 5 19 3 19 1 18 0 16 0 14 0 13 1 13 2 11 2 10 2 9 1 8 1 7 2 6 2 5 3 6 5 6 6 7 7 7 7 6 8 5 8 4 8 3 8 2 9 2 9 1 10 1 11 0 12 1"></polyline>
            </g>
        </g>
    </g>
</svg>