<?xml version="1.0" encoding="UTF-8"?>
<svg width="38px" height="31px" viewBox="0 0 38 31" version="1.1" xmlns="http://www.w3.org/2000/svg" xmlns:xlink="http://www.w3.org/1999/xlink">
    <!-- Generator: Sketch 52.4 (67378) - http://www.bohemiancoding.com/sketch -->
    <title>91</title>
    <desc>Created with Sketch.</desc>
    <g id="Page-1" stroke="none" stroke-width="1" fill="none" fill-rule="evenodd">
        <g id="wahlkreise_gen" transform="translate(-48.000000, -517.000000)" fill="#000000">
            <g id="91" transform="translate(48.000000, 517.000000)">
                <polyline id="Path" points="26 0 26 1 28 4 29 4 30 4 31 4 32 5 32 6 32 10 31 11 31 12 30 12 30 13 29 15 29 17 30 18 32 20 32 21 33 21 34 21 38 23 37 24 37 27 37 28 36 29 31 30 30 29 30 28 29 27 28 27 26 29 25 30 23 28 22 27 22 26 19 28 18 29 18 30 17 29 16 30 15 30 14 31 12 30 8 27 8 26 7 25 7 22 6 22 5 22 5 21 5 20 5 19 4 17 2 14 2 13 0 7 1 5 1 4 2 3 3 2 5 0 6 0 7 0 8 2 8 3 9 5 10 6 11 6 11 5 14 5 15 5 17 6 21 6 23 3 25 1 25 0 26 0"></polyline>
            </g>
        </g>
    </g>
</svg>