<?xml version="1.0" encoding="UTF-8"?>
<svg width="19px" height="17px" viewBox="0 0 19 17" version="1.1" xmlns="http://www.w3.org/2000/svg" xmlns:xlink="http://www.w3.org/1999/xlink">
    <!-- Generator: Sketch 52.4 (67378) - http://www.bohemiancoding.com/sketch -->
    <title>93</title>
    <desc>Created with Sketch.</desc>
    <g id="Page-1" stroke="none" stroke-width="1" fill="none" fill-rule="evenodd">
        <g id="wahlkreise_gen" transform="translate(-86.000000, -531.000000)" fill="#000000">
            <g id="93" transform="translate(86.000000, 531.000000)">
                <polyline id="Path" points="14 1 15 2 17 3 18 6 18 8 18 9 17 10 18 11 19 13 17 14 16 15 15 15 15 16 14 17 13 17 11 17 11 16 11 15 10 15 9 15 8 15 8 16 6 16 5 16 5 15 8 13 9 12 10 12 10 11 10 10 10 9 9 9 8 9 7 9 6 9 6 8 5 8 5 7 4 6 4 4 3 3 2 3 0 3 0 2 1 2 1 1 3 0 4 0 4 1 5 2 8 2 12 1 14 1"></polyline>
            </g>
        </g>
    </g>
</svg>