<?xml version="1.0" encoding="UTF-8"?>
<svg width="18px" height="19px" viewBox="0 0 18 19" version="1.1" xmlns="http://www.w3.org/2000/svg" xmlns:xlink="http://www.w3.org/1999/xlink">
    <!-- Generator: Sketch 52.4 (67378) - http://www.bohemiancoding.com/sketch -->
    <title>95</title>
    <desc>Created with Sketch.</desc>
    <g id="Page-1" stroke="none" stroke-width="1" fill="none" fill-rule="evenodd">
        <g id="wahlkreise_gen" transform="translate(-74.000000, -515.000000)" fill="#000000">
            <g id="95" transform="translate(74.000000, 515.000000)">
                <polyline id="Path" points="7 0 11 2 11 3 12 4 14 5 15 6 16 7 16 8 17 8 17 9 16 9 16 11 16 12 16 13 17 13 18 14 18 15 18 16 16 17 16 16 15 16 13 17 13 18 12 18 12 19 10 18 8 18 7 15 5 14 5 13 6 12 6 8 6 7 5 6 4 6 3 6 2 6 0 3 0 2 1 2 2 2 2 3 3 3 3 4 3 5 4 4 4 3 5 3 5 2 4 1 6 0 7 0"></polyline>
            </g>
        </g>
    </g>
</svg>