<?xml version="1.0" encoding="UTF-8"?>
<svg width="58px" height="32px" viewBox="0 0 58 32" version="1.1" xmlns="http://www.w3.org/2000/svg" xmlns:xlink="http://www.w3.org/1999/xlink">
    <!-- Generator: Sketch 52.4 (67378) - http://www.bohemiancoding.com/sketch -->
    <title>97</title>
    <desc>Created with Sketch.</desc>
    <g id="Page-1" stroke="none" stroke-width="1" fill="none" fill-rule="evenodd">
        <g id="wahlkreise_gen" transform="translate(-90.000000, -534.000000)" fill="#000000">
            <g id="97" transform="translate(90.000000, 533.000000)">
                <polyline id="Path" points="56 18 57 19 58 21 58 23 56 24 55 24 53 24 51 25 51 26 51 27 51 28 50 28 48 28 47 27 46 28 45 28 45 29 41 31 40 31 39 31 38 31 36 31 34 31 33 31 31 33 30 33 29 33 29 31 26 28 25 28 24 28 23 28 22 28 22 27 21 26 21 25 22 25 22 22 22 21 21 21 20 21 20 22 18 21 17 20 17 19 16 19 14 20 13 22 12 22 12 23 11 23 11 24 10 24 9 24 7 23 6 22 5 21 4 20 4 19 4 18 4 17 4 16 3 16 2 16 1 16 1 15 0 15 0 14 1 13 1 14 2 14 4 14 4 13 5 13 6 13 7 13 7 14 7 15 9 15 10 15 11 14 11 13 12 13 13 12 15 11 18 10 19 10 21 7 21 6 21 5 22 4 22 3 23 3 24 4 25 5 26 6 27 6 30 5 31 5 34 2 35 2 35 1 35 0 35 1 36 1 37 1 38 1 39 1 41 4 42 6 41 8 42 10 46 15 47 16 50 16 51 16 53 18 54 17 55 16 56 17 56 18"></polyline>
            </g>
        </g>
    </g>
</svg>