<?xml version="1.0" encoding="UTF-8"?>
<svg width="44px" height="57px" viewBox="0 0 44 57" version="1.1" xmlns="http://www.w3.org/2000/svg" xmlns:xlink="http://www.w3.org/1999/xlink">
    <!-- Generator: Sketch 52.4 (67378) - http://www.bohemiancoding.com/sketch -->
    <title>99</title>
    <desc>Created with Sketch.</desc>
    <g id="Page-1" stroke="none" stroke-width="1" fill="none" fill-rule="evenodd">
        <g id="wahlkreise_gen" transform="translate(-113.000000, -494.000000)" fill="#000000">
            <g id="99" transform="translate(113.000000, 494.000000)">
                <polyline id="Path" points="16 5 15 7 15 8 15 9 15 10 17 12 19 14 19 16 21 19 21 20 23 20 24 20 26 20 28 19 29 20 30 21 29 21 29 22 29 23 31 24 35 23 36 23 36 22 37 22 38 23 38 24 39 24 38 24 37 25 38 25 38 26 39 27 40 29 40 31 39 32 39 33 39 34 40 36 41 36 42 36 44 36 44 38 44 39 44 41 43 43 42 43 42 44 42 49 42 52 42 54 41 54 40 53 39 53 38 54 37 55 37 56 35 57 34 57 33 57 33 56 32 55 31 56 30 57 28 55 27 55 24 55 23 54 19 49 18 47 19 45 18 43 16 40 15 40 14 40 13 40 12 40 12 39 11 38 10 38 9 39 8 38 7 37 6 36 4 36 3 36 2 36 1 35 0 35 0 34 1 34 1 33 3 32 5 29 6 28 6 27 7 27 7 26 8 23 6 22 6 23 5 23 5 24 4 24 3 22 3 18 2 15 2 14 3 14 4 14 4 13 5 9 5 6 5 2 6 1 7 0 8 0 12 1 13 1 15 4 16 4 16 5"></polyline>
            </g>
        </g>
    </g>
</svg>