<?xml version="1.0" encoding="UTF-8"?>
<svg width="562px" height="308px" viewBox="0 0 562 308" version="1.1" xmlns="http://www.w3.org/2000/svg" xmlns:xlink="http://www.w3.org/1999/xlink">
    <!-- Generator: Sketch 52.6 (67491) - http://www.bohemiancoding.com/sketch -->
    <title>B90_DIE_GRUENEN</title>
    <desc>Created with Sketch.</desc>
    <g id="Page-1" stroke="none" stroke-width="1" fill="none" fill-rule="evenodd">
        <g id="B90_DIE_GRUENEN" transform="translate(-1.000000, -1.000000)">
            <polygon id="path22" fill="#4DBD38" points="1 308.48473 562.76125 308.48473 562.76125 58.3876 1 58.3876"></polygon>
            <path d="M521.64305,109.27572 C521.54195,108.63356 519.92887,108.06173 518.85202,107.17212 C515.18632,104.11122 502.07509,91.21008 476.27896,92.04607 C473.01764,92.15111 470.03761,92.46011 467.3257,92.92513 C472.81985,91.13975 475.66802,90.07345 477.32066,89.41415 C479.32052,88.62255 492.4845,84.109 499.56976,60.9804 C500.17192,59.00734 501.88169,54.23622 501.45535,53.87888 C500.93231,53.43451 496.50622,54.22435 492.03179,56.94549 C487.53977,59.67894 472.45943,62.05681 470.67054,62.34338 C469.62006,62.50997 465.18958,61.84715 458.57462,65.32253 C466.02908,57.66676 473.94066,46.78308 476.06359,31.50407 C477.07891,24.18147 476.64817,21.19397 476.33171,21.21639 C475.89218,21.24539 475.64164,21.25069 475.09662,21.41374 C473.43519,21.9047 471.75179,23.30944 466.27082,26.9747 C460.78107,30.64391 454.96167,34.70958 454.96167,34.70958 C454.96167,34.70958 456.95714,14.7623 456.3374,14.29728 C455.73085,13.84368 444.40412,13.95532 427.01448,33.31187 C427.01448,33.31187 428.99413,16.72833 425.73192,10.47511 C425.73192,10.47511 424.82737,5.95101 424.11796,3.58193 C423.76282,2.39871 422.83365,1.14737 422.68773,1.25725 C422.504,1.38427 420.96388,1.63481 418.49855,4.46935 C414.66319,8.86115 396.83622,14.23706 393.88301,37.2971 C391.65106,27.99309 386.91247,15.54555 375.21169,9.24266 C368.60465,2.77144 365.67078,0.84321 365.33058,1.00979 C365.03346,1.16099 365.16224,4.03861 364.15791,10.51291 C363.03007,17.7687 362.01695,20.06789 362.01695,20.06789 C362.01695,20.06789 349.75841,9.28706 349.4459,8.97455 C348.86528,8.40316 341.39148,32.0759 343.58914,43.89008 C343.58914,43.89008 339.70543,40.89071 332.64567,37.26282 C324.62773,33.14396 311.14993,32.43104 311.23915,33.06485 C311.39695,34.13423 322.61863,56.0528 327.34052,63.74769 C327.34052,63.74769 297.11216,58.55945 297.64443,60.44812 C297.81805,61.07314 298.5424,62.25416 299.73573,67.30042 C299.73573,67.30042 287.87188,67.04418 288.02616,68.02653 C288.19274,69.12536 297.01766,83.70375 297.69586,84.50018 C297.69586,84.50018 288.51887,86.27369 286.58405,86.3805 C285.27073,86.4508 292.71333,107.00422 313.11903,112.13751 C316.0072,112.86713 318.80218,113.39941 321.48904,113.79455 C323.79834,114.01431 326.62804,114.2855 329.07799,114.51889 C341.22182,115.00326 349.19185,111.8817 347.8148,107.38705 C347.8148,107.38705 347.4179,105.72474 334.96684,101.17515 C334.96684,101.17515 335.31012,99.68996 336.14303,99.49261 C336.97902,99.28823 349.92455,104.0321 349.00812,103.27127 C348.08423,102.50737 343.34564,97.2365 344.19877,97.28616 C345.05717,97.32046 351.13502,99.89259 353.15247,98.0004 C355.0807,96.19613 356.29952,92.8636 357.56493,92.14232 C358.83738,91.41622 354.17922,87.11364 360.31728,89.09329 C360.31728,89.09329 364.47745,86.75982 361.20162,82.94292 C357.92754,79.11416 347.53481,66.82968 364.48404,81.66037 C368.53609,85.21266 378.67125,74.39447 377.83834,68.50914 C377.83834,68.50914 381.89038,72.59327 382.74351,73.0328 C383.60368,73.47101 389.27847,74.14393 390.5641,72.17791 C391.15835,71.27994 388.48863,62.90159 390.20369,59.22227 C390.20369,59.22227 390.92672,59.15147 391.60799,59.93958 C392.2897,60.72459 392.36882,69.46028 395.44554,71.11512 C395.44554,71.11512 398.89982,69.09459 399.48352,67.58172 C400.07249,66.06578 398.54776,77.02331 408.91456,72.29834 C408.91456,72.29834 413.96258,67.81204 415.40996,67.67798 C416.8503,67.54217 414.32827,73.00027 415.60203,74.94388 C416.88107,76.89101 421.12739,78.19598 422.47499,75.76141 C423.8349,73.33168 430.2991,68.46958 430.80544,68.66341 C431.31178,68.86955 427.51423,78.99241 427.07997,79.98136 C426.44968,81.42698 426.00136,83.56794 426.00136,83.56794 C426.00136,83.56794 426.49275,86.39413 430.02923,87.17517 C430.02923,87.17517 436.6978,83.28312 443.63933,78.22147 C442.90971,79.09702 442.18008,80.00377 441.43288,80.97734 C441.43288,80.97734 432.45896,90.19871 432.45368,91.53621 C432.46558,92.87195 435.53568,95.86648 438.04761,94.1734 C440.567,92.4856 446.64133,89.96884 447.17317,90.40134 C447.69621,90.84087 448.66318,92.0909 447.40172,92.81525 C446.13148,93.54179 439.06908,97.2365 439.06908,97.2365 C439.06908,97.2365 447.1424,97.78591 457.01428,95.79088 C446.32487,100.1295 442.61962,106.73083 442.71631,107.35584 C443.03278,109.47483 459.64268,105.17225 460.0998,106.21614 C462.48206,111.6259 454.83421,108.28809 451.48058,108.84981 C448.13135,109.39923 439.51872,109.59658 447.44568,116.3869 C447.44568,116.3869 448.91371,116.49679 444.99748,118.80609 C441.08565,121.11187 453.72219,122.48892 455.2166,124.1631 C456.71101,125.84563 442.69434,124.00004 442.96685,128.2235 C443.23496,132.44872 440.55821,129.78427 449.87189,139.72165 C449.87189,139.72165 444.27665,138.42547 443.62614,139.21179 C442.96685,140.00339 455.8715,150.69984 455.79239,153.74359 C455.79239,153.74359 453.16838,155.56721 452.04757,153.97918 C450.93116,152.37357 443.12947,143.746 441.86802,143.49195 C440.91423,143.30823 439.09457,143.746 438.25199,145.42018 C438.25199,145.42018 441.65704,153.36428 440.59337,153.58404 C439.51872,153.80733 434.18764,150.05592 434.18764,150.05592 C434.18764,150.05592 430.68852,151.59253 431.84405,154.76023 C432.98596,157.93321 442.48776,168.71537 441.94713,169.37115 C441.94713,169.37115 441.13839,171.14466 439.91386,171.01939 C438.68625,170.89061 432.11041,158.98721 430.48766,158.53405 C428.86535,158.07914 432.37633,169.65465 432.37633,169.65465 C432.37633,169.65465 426.4444,163.41022 424.86473,162.09997 C423.28901,160.795 423.05693,163.4823 423.05693,163.4823 L424.77067,176.6854 C424.77067,176.6854 406.28791,149.1373 410.81202,181.99055 C410.81202,181.99055 410.38259,183.84977 409.7734,183.79351 C409.1585,183.72801 405.23216,172.92169 405.68356,169.96847 C406.13672,167.00163 402.44201,178.15343 402.44201,178.15343 C402.44201,178.15343 396.64722,155.13779 384.64625,178.72483 C384.64625,178.72483 383.80498,169.81771 381.95895,168.28595 C380.12214,166.76165 378.66598,166.22586 378.12711,166.21707 C377.74076,166.20907 375.30619,166.11777 373.12875,170.23835 C364.67304,181.20598 359.24438,195.31891 357.71613,207.52647 C357.4467,216.00811 358.40619,231.27481 357.90513,234.54889 C357.61328,236.46832 358.05105,236.67095 358.35125,237.30123 C358.44575,237.49858 361.60862,234.89392 362.60944,234.22803 C364.10297,233.23732 379.53493,212.48307 380.50498,207.2944 C380.50498,207.2944 388.73565,243.44765 391.52756,247.31948 C392.13191,248.16075 392.63298,249.09651 393.05361,248.44073 C393.87466,247.15114 395.10227,243.77905 396.02397,243.496 C397.21378,243.13866 400.69048,242.70088 402.51937,237.54649 C404.34782,232.38727 407.64079,227.35683 409.18091,213.97352 C409.18091,213.97352 426.67648,236.27976 428.95106,238.35699 C429.85253,239.18111 434.60827,231.26954 436.6978,218.56971 C438.8014,205.86416 434.28741,188.78967 431.43221,188.20597 C431.43221,188.20597 430.24767,186.33444 433.5613,187.51898 C435.44646,188.19718 442.7295,200.83372 459.51962,210.43133 C462.34581,212.04002 468.35421,212.07606 468.38937,211.96442 C469.73873,208.19412 456.56157,173.71504 456.56157,173.71504 C456.56157,173.71504 456.89122,173.3199 459.54599,174.40511 C462.19197,175.49734 487.35517,191.76837 502.62011,184.14206 C505.71881,182.60018 505.89462,182.27053 505.89462,182.27053 C507.64396,174.75366 494.19868,160.54271 485.93987,154.08731 C485.93987,154.08731 507.62638,153.20121 510.95363,147.45477 C510.95363,147.45477 514.94898,146.0175 517.01038,143.1711 C517.3708,142.66432 514.67647,137.71782 511.55139,135.5461 C503.36292,129.87174 501.58721,127.73254 501.58721,127.73254 C501.58721,127.73254 503.87717,124.96305 507.18245,123.92444 C510.48773,122.88714 521.17714,116.29944 518.32458,113.04778 C518.32458,113.04778 521.76172,110.05852 521.64305,109.27572" id="path24" fill="#FEE702"></path>
            <path d="M108.3125,114.53125 C107.07785,114.53125 105.95238,114.94657 104.9375,115.78125 C103.9213,116.61548 103.32762,117.6262 103.125,118.8125 C102.93117,119.9922 103.2026,121.00776 103.9375,121.84375 C104.67592,122.67315 105.67512,123.09375 106.90625,123.09375 C108.12331,123.09375 109.23512,122.67315 110.25,121.84375 C111.28378,120.98886 111.89992,119.97154 112.09375,118.8125 C112.29154,117.6262 112.01745,116.61548 111.28125,115.78125 C110.5635,114.94657 109.56429,114.53125 108.3125,114.53125 Z M120.6875,114.53125 C119.43791,114.53125 118.29569,114.94657 117.28125,115.78125 C116.26989,116.61548 115.66082,117.63807 115.46875,118.8125 C115.27096,120.00231 115.54285,121.00776 116.28125,121.84375 C117.0157,122.67315 118.01277,123.09375 119.28125,123.09375 C120.51238,123.09375 121.64488,122.67315 122.65625,121.84375 C123.67244,121.00776 124.27975,120.02042 124.46875,118.875 C124.67138,117.66629 124.39595,116.65069 123.65625,115.8125 C122.90597,114.96464 121.92214,114.53125 120.6875,114.53125 Z M65.03125,126.65625 L58.125,168.125 L74.59375,168.125 C78.52361,168.125 81.88193,167.03306 84.65625,164.84375 C87.43761,162.68038 89.12494,159.80757 89.71875,156.25 C90.18949,153.41722 89.84255,151.25232 88.65625,149.75 C87.46468,148.23933 85.35542,147.27274 82.34375,146.84375 C87.83131,146.41433 91.01001,143.59844 91.875,138.40625 C92.45738,134.91769 91.6621,132.07925 89.53125,129.875 C87.42458,127.72701 83.83007,126.65625 78.71875,126.65625 L65.03125,126.65625 Z M99,126.65625 L94.375,154.40625 C93.49066,159.72502 94.56717,163.58785 97.625,166 C100.03539,167.9023 103.2547,168.84375 107.28125,168.84375 C110.83003,168.84375 113.98578,167.9985 116.75,166.28125 C118.80876,164.98859 120.37999,163.5308 121.4375,161.9375 C122.49853,160.41452 123.21624,158.42398 123.625,155.96875 L128.53125,126.65625 L116.75,126.65625 L112.3125,153.4375 C112.00043,155.30023 111.55469,156.57408 111,157.3125 C110.45059,158.00784 109.62256,158.375 108.5,158.375 C107.40424,158.375 106.67691,157.99677 106.34375,157.25 C106.00575,156.49796 106.01055,155.21756 106.31255,153.40625 L110.75005,126.65625 L99.00005,126.65625 L99,126.65625 Z M134.46875,126.65625 L127.5625,168.125 L138.90625,168.125 L140.65625,157.53125 C140.92393,155.89663 141.13533,154.01592 141.28125,151.84375 C141.42718,149.68038 141.51718,147.13725 141.53125,144.21875 C141.68728,145.50966 141.90395,146.85936 142.15625,148.28125 C142.41205,149.70621 142.68798,151.24434 143.03125,152.875 L146.34375,168.125 L157.6875,168.125 L164.5625,126.65625 L153.25,126.65625 L151.6875,135.96875 C151.39697,137.70446 151.1661,139.8495 150.96875,142.40625 C150.7692,144.96785 150.57107,148.05956 150.40625,151.65625 L149.8125,148 C149.56856,146.55438 149.33422,145.26914 149.125,144.15625 C148.90699,143.04906 148.70267,142.07892 148.53125,141.21875 L145.15625,126.65625 L134.46875,126.65625 Z M170,126.65625 L163.09375,168.125 L174.09375,168.125 C180.16456,168.125 185.0019,166.53212 188.59375,163.34375 C192.80886,159.60114 195.50951,154.27877 196.65625,147.40625 C197.8153,140.41637 196.57245,135.01046 192.96875,131.125 C190.23046,128.15464 185.96774,126.65625 180.15625,126.65625 L170,126.65625 Z M203.6875,126.65625 L196.78125,168.125 L208.125,168.125 L209.875,157.53125 C210.14839,155.89663 210.35408,154.01592 210.5,151.84375 C210.64109,149.68038 210.7311,147.13725 210.75,144.21875 C210.90296,145.50966 211.08795,146.85936 211.34375,148.28125 C211.60308,149.70621 211.90672,151.24434 212.25,152.875 L215.5625,168.125 L226.90625,168.125 L233.78125,126.65625 L222.46875,126.65625 L220.90625,135.96875 C220.6144,137.70446 220.38529,139.8495 220.1875,142.40625 C219.98356,144.96785 219.78982,148.05956 219.625,151.65625 L219.03125,148 C218.78907,146.55438 218.55999,145.26914 218.34375,144.15625 C218.13409,143.04906 217.92185,142.07892 217.75,141.21875 L214.375,126.65625 L203.6875,126.65625 Z M239.21875,126.65625 L232.3125,168.125 L244.09375,168.125 L250.96875,126.65625 L239.21875,126.65625 Z M268.5,126.65625 C265.35823,126.65625 262.54142,127.51912 260.03125,129.25 C259.12626,129.85084 258.31278,130.55742 257.5625,131.34375 C256.80871,132.13534 256.09201,132.98635 255.46875,133.9375 C254.18488,135.97561 253.39922,137.94273 253.09375,139.8125 C252.91354,140.90254 252.86897,141.9173 252.96875,142.90625 C253.06635,143.88992 253.34124,144.85383 253.75,145.78125 C254.15833,146.70822 254.73961,147.59321 255.5,148.46875 C256.25555,149.34474 257.18422,150.20941 258.3125,151.09375 L260,152.46875 C261.22058,153.48144 261.73919,154.52393 261.5625,155.59375 C261.43679,156.34051 261.03157,156.98306 260.3125,157.46875 C259.58595,157.96673 258.73363,158.1875 257.71875,158.1875 C255.03013,158.1875 252.77655,156.69214 250.96875,153.6875 L248.84375,166.4375 C251.81411,167.56753 254.67329,168.125 257.4375,168.125 C261.44647,168.125 264.96283,166.83933 268,164.28125 C271.04068,161.72625 272.8825,158.49411 273.53125,154.5625 C273.92287,152.24485 273.70972,150.22867 272.90625,148.5 C272.11817,146.77439 270.64527,145.08223 268.4375,143.4375 L266.78125,142.15625 C265.35761,141.09522 264.72604,140.04165 264.90625,138.96875 C265.01614,138.31429 265.41731,137.74804 266.09375,137.28125 C266.76184,136.79689 267.53602,136.5625 268.4375,136.5625 C269.6238,136.5625 270.75679,136.96768 271.84375,137.78125 C272.93072,138.59878 273.84122,139.71542 274.5625,141.125 L276.625,128.71875 C274.01506,127.34345 271.30026,126.65625 268.5,126.65625 Z M310.6875,126.65625 C306.16691,126.65625 302.27104,127.99717 299.03125,130.71875 C295.77256,133.47418 293.80975,137.00333 293.09375,141.3125 C292.5017,144.88721 293.00805,147.95906 294.65625,150.5 C296.3357,152.9983 298.66348,154.25 301.65625,154.25 C302.86144,154.25 304.3034,153.85234 306,153.0625 C305.43652,153.71125 304.92719,154.29785 304.46875,154.84375 C304.01384,155.38965 303.61266,155.89719 303.28125,156.34375 L294.34375,168.125 L307,168.125 L312.15625,161 C318.24772,152.64362 321.68771,146.12594 322.46875,141.40625 C323.20189,136.99862 322.50365,133.42451 320.34375,130.71875 C318.17729,128.01124 314.95403,126.65625 310.6875,126.65625 Z M344.53125,126.65625 C339.772,126.65625 335.68586,128.49056 332.28125,132.15625 C328.88718,135.80305 326.66889,140.75562 325.625,147.03125 C324.52266,153.67565 325.05186,158.83127 327.21875,162.53125 C329.40234,166.24837 332.96152,168.125 337.90625,168.125 C342.47343,168.125 346.42978,166.28187 349.75,162.59375 C353.06891,158.89377 355.23912,153.91431 356.28125,147.65625 C357.3748,141.08525 356.88138,135.93763 354.8125,132.21875 C352.74362,128.50691 349.32654,126.65625 344.53125,126.65625 Z M76.0625,135.28125 C76.25985,135.27225 76.43196,135.28125 76.5625,135.28125 C79.32672,135.28125 80.52322,136.4712 80.125,138.875 C79.93952,139.99976 79.36139,140.8785 78.4375,141.5 C77.51887,142.12633 76.34708,142.4375 74.9375,142.4375 L74.15625,142.4375 L75.34375,135.34375 C75.63077,135.32655 75.86515,135.28965 76.0625,135.28125 Z M308.84375,135.37495 C311.05547,135.37495 311.83145,137.19079 311.21875,140.87495 C310.63285,144.41538 309.24961,146.18745 307.0625,146.18745 C304.75672,146.18745 303.88857,144.45194 304.46875,140.93745 C305.08498,137.22384 306.56214,135.37495 308.84375,135.37495 Z M342.71875,136.56245 C345.25441,136.56245 345.90632,140.2522 344.6875,147.5937 C344.07787,151.24225 343.3196,153.91121 342.40625,155.62495 C341.48763,157.34703 340.36698,158.18745 339.03125,158.18745 C336.56196,158.18745 335.97628,154.28705 337.28125,146.43745 C338.37657,139.86514 340.1932,136.56245 342.71875,136.56245 Z M180.03125,137.0937 L180.40625,137.0937 C182.23163,137.0937 183.49796,138.06513 184.25,139.99995 C185.00028,141.91631 185.11191,144.52479 184.5625,147.8437 C183.44477,154.56018 180.74588,157.9901 176.5,158.18745 L180.03125,137.0937 Z M72.71875,151.1562 L73.65625,151.1562 C75.18275,151.1562 76.31047,151.52912 77.0625,152.24995 C77.81806,152.96947 78.0829,153.94846 77.875,155.2187 C77.65875,156.49291 77.06156,157.52213 76.0625,158.2812 C75.06125,159.03324 73.81178,159.4062 72.34375,159.4062 C72.23035,159.4062 72.10892,159.4132 71.9375,159.4062 C71.77092,159.3926 71.56527,159.3608 71.34375,159.3437 L72.71875,151.1562 Z M231,171.1562 C229.76711,171.1562 228.66585,171.56977 227.65625,172.4062 C226.63961,173.23516 226.00985,174.25292 225.8125,175.43745 C225.61866,176.61364 225.8866,177.60454 226.625,178.43745 C227.35814,179.26993 228.3613,179.68745 229.59375,179.68745 C230.80949,179.68745 231.92613,179.26993 232.9375,178.43745 C233.96952,177.5874 234.58918,176.5965 234.78125,175.43745 C234.97904,174.25292 234.70675,173.23516 233.96875,172.4062 C233.25275,171.56977 232.25311,171.1562 231,171.1562 Z M243.375,171.1562 C242.12145,171.1562 240.98362,171.56977 239.96875,172.4062 C238.95431,173.23516 238.34832,174.23352 238.15625,175.4062 C237.9567,176.59777 238.23075,177.60454 238.96875,178.43745 C239.70716,179.26993 240.6963,179.68745 241.96875,179.68745 C243.19285,179.68745 244.32931,179.26993 245.34375,178.43745 C246.35511,177.60454 246.96198,176.63833 247.15625,175.49995 C247.35844,174.29123 247.08515,173.27388 246.34375,172.43745 C245.59655,171.58783 244.60437,171.1562 243.375,171.1562 Z M55.9375,182.9687 L49.03125,224.43745 L60.03125,224.43745 C66.10075,224.43745 70.93632,222.84104 74.53125,219.6562 C78.74636,215.91842 81.44525,210.62642 82.59375,203.74995 C83.75631,196.76711 82.51005,191.32599 78.90625,187.43745 C76.16753,184.4671 71.90392,182.9687 66.09375,182.9687 L55.9375,182.9687 Z M90.375,182.9687 L83.46875,224.43745 L95.25,224.43745 L102.125,182.9687 L90.375,182.9687 Z M107.53125,182.9687 L100.65625,224.43745 L122.5,224.43745 L124.15625,214.5312 L114.0625,214.5312 L115.03125,208.68745 L124.0625,208.68745 L125.71875,198.7812 L116.65625,198.7812 L117.65625,192.9062 L127.75,192.9062 L129.40625,182.9687 L107.53125,182.9687 Z M168.40625,182.9687 C163.21406,182.9687 158.79782,184.86295 155.1875,188.5937 C151.57323,192.33148 149.23442,197.42486 148.15625,203.9062 C147.0917,210.30359 147.73478,215.33425 150.09375,218.99995 C152.47514,222.63312 156.32108,224.43745 161.5625,224.43745 C166.90589,224.43745 171.24232,222.58679 174.59375,218.87495 C177.65465,215.46682 179.83761,209.90471 181.125,202.1562 L181.40625,200.49995 L164.96875,200.49995 L163.53125,209.18745 L167.875,209.18745 C167.74138,209.99443 167.52598,210.74866 167.21875,211.4062 C166.91459,212.06198 166.51614,212.63395 166.09375,213.0937 C165.66828,213.55213 165.20567,213.90742 164.65625,214.1562 C164.10332,214.41024 163.52775,214.5312 162.90625,214.5312 C161.34723,214.5312 160.33167,213.7553 159.875,212.2187 C159.41349,210.68561 159.46645,208.23469 160.03125,204.8437 C161.35336,196.87718 163.6088,192.9062 166.84375,192.9062 C167.76721,192.9062 168.48131,193.27213 168.96875,194.0312 C169.45488,194.79159 169.66939,195.8464 169.625,197.1562 L181.6875,193.1562 C179.71488,186.36544 175.28404,182.9687 168.40625,182.9687 Z M188.625,182.9687 L181.75,224.43745 L193.4375,224.43745 L195.875,209.93745 L196.25,207.2187 C196.35988,207.79405 196.4244,208.27561 196.5,208.68745 C196.5703,209.09446 196.64086,209.44219 196.65625,209.68745 L200,224.43745 L212.71875,224.43745 L206.84375,207.2187 C211.65135,205.3063 214.47651,201.82927 215.3125,196.81245 C216.09003,192.12528 215.01575,188.51315 212.09375,185.9687 C209.78928,183.9807 205.98957,182.9687 200.6875,182.9687 L188.625,182.9687 Z M257.03125,182.9687 L250.15625,224.43745 L261.46875,224.43745 L263.25,213.87495 C263.52119,212.24384 263.70134,210.32617 263.84375,208.1562 C263.98616,205.98755 264.07661,203.45496 264.09375,200.5312 C264.24803,201.82386 264.4647,203.19955 264.71875,204.62495 C264.97456,206.04464 265.25531,207.55283 265.59375,209.18745 L268.90625,224.43745 L280.25,224.43745 L287.15625,182.9687 L275.8125,182.9687 L274.25,192.31245 C273.96167,194.04465 273.73212,196.1866 273.53125,198.74995 C273.3339,201.31155 273.13182,204.40326 272.96875,207.99995 L272.375,204.3437 C272.13282,202.8928 271.90243,201.61064 271.6875,200.49995 C271.47828,199.38705 271.29642,198.38785 271.125,197.5312 L267.71875,182.9687 L257.03125,182.9687 Z M292.5625,182.9687 L285.6875,224.43745 L307.53125,224.43745 L309.1875,214.5312 L299.09375,214.5312 L300.0625,208.68745 L309.09375,208.68745 L310.75,198.7812 L301.6875,198.7812 L302.6875,192.9062 L312.78125,192.9062 L314.4375,182.9687 L292.5625,182.9687 Z M319.3125,182.9687 L312.40625,224.43745 L323.75,224.43745 L325.5,213.87495 C325.76591,212.24384 325.98786,210.32617 326.125,208.1562 C326.26565,205.98755 326.35786,203.45496 326.375,200.5312 C326.524,201.82386 326.71646,203.19955 326.96875,204.62495 C327.22105,206.04464 327.53173,207.55283 327.875,209.18745 L331.1875,224.43745 L342.53125,224.43745 L349.40625,182.9687 L338.09375,182.9687 L336.53125,192.31245 C336.24467,194.04465 336.01513,196.1866 335.8125,198.74995 C335.61164,201.31155 335.41307,204.40326 335.25,207.99995 L334.65625,204.3437 C334.41055,202.8928 334.17489,201.61064 333.96875,200.49995 C333.75426,199.38705 333.54466,198.38785 333.375,197.5312 L330,182.9687 L319.3125,182.9687 Z M221.6875,183.24995 L217.0625,210.99995 C216.17508,216.31873 217.25336,220.17803 220.3125,222.5937 C222.72509,224.49116 225.94264,225.4687 229.96875,225.4687 C233.51753,225.4687 236.70102,224.58868 239.46875,222.87495 C241.52708,221.57877 243.07056,220.15576 244.125,218.56245 C245.18427,217.03948 245.90593,215.04892 246.3125,212.5937 L251.1875,183.24995 L239.4375,183.24995 L235,210.03125 C234.69277,211.8975 234.24043,213.20436 233.6875,213.9375 C233.13809,214.63811 232.31754,214.96875 231.1875,214.96875 C230.09746,214.96875 229.37145,214.59578 229.03125,213.84375 C228.69501,213.09346 228.70153,211.81131 229.00005,210 L233.43755,183.25 L221.68755,183.25 L221.6875,183.24995 Z M198.96875,191.68745 L199.375,191.68745 C202.77786,191.68745 204.23212,193.24808 203.71875,196.3437 C203.4647,197.86668 202.7833,199.11003 201.71875,200.0937 C200.65113,201.08089 199.44179,201.56245 198.09375,201.56245 L197.3125,201.56245 L198.96875,191.68745 Z M65.96875,193.4062 L66.34375,193.4062 C68.16342,193.4062 69.4337,194.37587 70.1875,196.31245 C70.93954,198.22705 71.04941,200.84609 70.5,204.1562 C69.38095,210.87313 66.68338,214.33209 62.4375,214.5312 L65.96875,193.4062 Z" id="path26" fill="#FFFFFF" fill-rule="nonzero"></path>
            <polyline id="path68" fill="#166AB8" points="42.00353 267.49325 335.61075 267.49325 340.15727 239.3956 46.55835 239.3956 42.00353 267.49325"></polyline>
            <path d="M48.46768,263.02573 L55.43162,263.02571 C60.05506,263.02571 61.9679,259.92658 62.34238,257.56102 C62.74895,254.99415 61.65012,253.41975 59.14171,253.21712 L59.15071,253.16572 C61.33475,253.16572 63.00013,251.48802 63.34341,249.32816 C63.99743,245.1869 60.64776,243.86478 57.6018,243.86478 L51.5033,243.86478 L48.46789,263.02573 L48.46768,263.02573 Z M54.3051,258.88269 L54.89232,255.19677 L55.29932,255.19677 C56.4909,255.19677 57.39765,255.73212 57.19503,257.02874 C56.98713,258.31965 55.88302,258.88269 54.74156,258.88269 L54.3051,258.88269 Z M55.50546,251.31131 L56.02895,248.00955 L56.54056,248.00955 C57.60687,248.00955 58.31407,248.48688 58.13387,249.63714 C57.93652,250.87837 56.87724,251.31131 55.81446,251.31131 L55.50546,251.31131 Z M76.47597,243.86476 L74.56313,255.93475 C74.49103,256.41911 74.41061,257.07489 74.17326,257.61244 C73.96756,258.11878 73.57242,258.52755 72.83269,258.52755 C72.12504,258.52755 71.85737,258.11878 71.79056,257.58651 C71.71676,257.07489 71.84856,256.41911 71.92769,255.90925 L73.8335,243.86476 L68.65362,243.86476 L66.67045,256.39318 C66.30125,258.70248 66.07313,263.35536 72.06702,263.35536 C78.06927,263.35536 79.31051,258.70248 79.6762,256.39318 L81.65937,243.86476 L76.47597,243.86476 Z M83.32473,263.02571 L88.30377,263.02571 L89.19646,257.4063 C89.48172,255.60334 89.5349,253.82675 89.69445,252.02379 L89.74935,251.96709 L91.86438,263.02571 L96.84559,263.02571 L99.87748,243.86474 L94.89671,243.86476 L94.12401,248.74445 C93.77546,250.95573 93.8115,253.13976 93.66206,255.35105 L93.60406,255.40245 L91.28949,243.86474 L86.3619,243.86474 L83.32473,263.02571 Z M101.66993,263.02571 L106.19403,263.02571 C109.3446,263.02571 115.0361,262.21038 116.43557,253.36832 C117.35419,247.57178 114.76315,243.86476 108.87078,243.86476 L104.70358,243.86476 L101.66993,263.02571 Z M109.13011,248.6416 C111.49435,248.6416 111.44117,251.53943 111.11152,253.62061 C110.8245,255.42313 109.95247,258.37283 107.58647,258.40228 L109.13011,248.6416 Z M119.17385,263.02571 L128.80267,263.02571 L129.51999,258.50161 L125.075,258.50161 L125.53695,255.57785 L129.52351,255.57785 L130.2395,251.05375 L126.25471,251.05375 L126.67534,248.38886 L131.12384,248.38886 L131.83984,243.86476 L122.2097,243.86476 L119.17385,263.02571 Z M133.21997,262.56552 C134.3566,263.0723 135.66508,263.35536 136.98192,263.35536 C140.59092,263.35536 143.53182,260.51071 144.0953,256.95138 C144.32166,255.50576 144.1551,254.48737 143.67951,253.62061 C143.23162,252.76221 142.48134,252.04973 141.50954,251.28538 C141.26911,251.05375 140.92584,250.80146 140.69728,250.49554 C140.46389,250.19534 140.29204,249.83976 140.35928,249.43143 C140.47224,248.6983 141.27571,248.26008 141.88885,248.26008 C143.08394,248.26008 144.15508,249.35408 144.61175,250.31885 L145.53038,244.50384 C144.53308,243.91663 143.24525,243.5338 142.00225,243.5338 C137.581,243.5338 135.51388,247.60254 135.1583,249.83976 C134.93854,251.23395 135.1759,252.2985 135.67343,253.19119 C136.18505,254.10629 136.96126,254.83943 137.85395,255.62927 C138.14272,255.86091 138.41567,256.0877 138.59588,256.36241 C138.80686,256.64723 138.90839,256.97688 138.83631,257.43223 C138.70049,258.2735 137.82143,258.70248 137.10895,258.70248 C135.78683,258.70248 134.71394,257.63486 134.16936,256.57383 L133.21997,262.56552 Z M154.48935,263.02571 L156.78327,248.54182 L159.75494,248.54182 L160.49863,243.86476 L149.49671,243.86476 L148.75302,248.54182 L151.60163,248.54182 L149.30771,263.02571 L154.48935,263.02571 Z M173.59536,263.02571 L172.56862,243.86476 L166.23804,243.86476 L158.60645,263.02571 L163.9428,263.02571 L164.76517,260.55686 L168.24538,260.55686 L168.23638,263.02571 L173.59515,263.02571 L173.59536,263.02571 Z M166.09211,256.49119 L167.50697,252.04973 C167.90343,250.85288 168.22472,249.63714 168.56272,248.44073 L168.61462,248.44073 C168.55442,249.63714 168.46166,250.85288 168.42562,252.04973 L168.27794,256.49119 L166.09214,256.49119 L166.09211,256.49119 Z M185.4113,251.94644 L184.77222,255.98661 L186.67627,255.98661 C186.52727,257.10258 185.83676,258.72841 184.46499,258.72841 C182.45808,258.72841 183.08969,255.37698 183.23078,254.00696 C183.4589,252.55607 183.95513,248.16075 186.34179,248.16075 C187.25689,248.16075 187.57775,249.35408 187.50742,250.11447 L192.80422,248.26008 C192.12603,245.49103 190.12044,243.5338 187.02306,243.5338 C181.41068,243.5338 178.77173,248.79587 178.01617,253.54853 C177.25227,258.40228 178.29264,263.35536 183.93271,263.35536 C189.93188,263.35536 191.77396,257.48893 192.52776,252.76221 L192.62706,251.94644 L185.41127,251.94644 L185.4113,251.94644 Z M194.5518,262.56552 C195.69019,263.0723 196.99516,263.35536 198.31551,263.35536 C201.92275,263.35536 204.8619,260.51071 205.42538,256.95138 C205.65525,255.50576 205.48688,254.48737 205.0131,253.62061 C204.56522,252.76221 203.81318,252.04973 202.84137,251.28538 C202.60095,251.05375 202.25767,250.80146 202.02736,250.49554 C201.79573,250.19534 201.62387,249.83976 201.69112,249.43143 C201.80408,248.6983 202.6093,248.26008 203.21893,248.26008 C204.41402,248.26008 205.48691,249.35408 205.94359,250.31885 L206.86221,244.50384 C205.86491,243.91663 204.57708,243.5338 203.33585,243.5338 C198.91108,243.5338 196.84748,247.60254 196.49058,249.83976 C196.27081,251.23395 196.50768,252.2985 197.00527,253.19119 C197.51864,254.10629 198.2931,254.83943 199.18403,255.62927 C199.47456,255.86091 199.74751,256.0877 199.93123,256.36241 C200.13869,256.64723 200.24022,256.97688 200.1699,257.43223 C200.03408,258.2735 199.15326,258.70248 198.44254,258.70248 C197.11867,258.70248 196.04753,257.63486 195.50163,256.57383 L194.5518,262.56552 Z M213.91713,263.02571 L215.0797,255.6807 L218.78627,255.6807 L219.50402,251.1566 L215.79525,251.1566 L216.23479,248.38886 L220.19936,248.38886 L220.91712,243.86476 L211.76914,243.86476 L208.73198,263.02571 L213.91713,263.02571 Z M236.37282,263.02571 L233.77694,255.04557 C235.96405,254.23508 237.17804,252.34993 237.51296,250.24325 C238.31291,245.18688 235.2652,243.86476 230.76879,243.86476 L225.76911,243.86476 L222.73019,263.02572 L227.91359,263.02571 L228.72233,257.91616 C228.87133,256.97688 228.97286,256.03804 229.09461,255.09348 L229.15311,255.04558 L230.76003,263.02572 L236.37286,263.02572 L236.37282,263.02571 Z M229.54777,252.70727 L230.29497,247.98537 C231.7318,247.90317 232.63504,248.61566 232.37044,250.29467 C232.17309,251.53943 231.24788,252.73627 229.87258,252.73627 L229.54777,252.70727 Z M253.52467,263.02571 L252.49133,243.86476 L246.16603,243.86476 L238.53619,263.02571 L243.86727,263.02571 L244.69315,260.55686 L248.16985,260.55686 L248.16085,263.02571 L253.52446,263.02571 L253.52467,263.02571 Z M246.02184,256.49119 L247.43671,252.04973 C247.8279,250.85288 248.14919,249.63714 248.49247,248.44073 L248.54387,248.44073 C248.47877,249.63714 248.39136,250.85288 248.35004,252.04973 L248.20763,256.49119 L246.02184,256.49119 Z M271.00485,263.02571 L267.94878,253.11383 L273.55281,243.86476 L268.09471,243.86476 L263.9552,252.02379 L263.8796,252.02379 L263.8706,252.07169 L263.9273,252.02379 L263.9049,252.02379 L263.9273,252.02379 L265.21864,243.86476 L260.03876,243.86476 L257.00467,263.02571 L262.18631,263.02571 L263.58051,254.23508 L263.62891,254.23508 L263.60821,254.23508 L265.44018,263.02571 L271.00465,263.02571 L271.00485,263.02571 Z M281.97952,263.02571 L284.27475,248.54182 L287.24511,248.54182 L287.98704,243.86476 L276.98644,243.86476 L276.24495,248.54182 L279.0896,248.54182 L276.79744,263.02571 L281.97952,263.02571 Z M293.99588,263.02571 L297.02821,243.86476 L291.84657,243.86476 L288.816,263.02571 L293.99588,263.02571 Z M299.75287,253.44524 C299.01445,258.11878 300.24558,263.35536 305.50458,263.35536 C310.76358,263.35536 313.64603,258.11878 314.38972,253.44524 C315.12813,248.77038 313.9036,243.5338 308.64328,243.5338 C303.38428,243.5338 300.4948,248.77038 299.75287,253.44524 Z M305.04088,253.44524 C305.22987,252.25191 305.91994,248.36337 307.87717,248.36337 C309.83133,248.36337 309.29554,252.25191 309.10479,253.44524 C308.91799,254.63857 308.22572,258.52755 306.26849,258.52755 C304.31125,258.52755 304.85232,254.63857 305.04088,253.44524 Z M317.14204,263.02571 L322.12108,263.02571 L323.0085,257.4063 C323.29551,255.60334 323.3487,253.82675 323.50649,252.02379 L323.56669,251.96709 L325.6782,263.02571 L330.65766,263.02571 L333.69307,243.86474 L328.70878,243.86476 L327.94135,248.74445 C327.58753,250.95573 327.62181,253.13976 327.47589,255.35105 L327.41609,255.40245 L325.10328,243.86474 L320.17569,243.86474 L317.14204,263.02571 Z" id="path70" fill="#FFFFFF" fill-rule="nonzero"></path>
        </g>
    </g>
</svg>