<?xml version="1.0" encoding="UTF-8"?>
<svg width="1080px" height="314px" viewBox="0 0 1080 314" version="1.1" xmlns="http://www.w3.org/2000/svg" xmlns:xlink="http://www.w3.org/1999/xlink">
    <!-- Generator: Sketch 52.6 (67491) - http://www.bohemiancoding.com/sketch -->
    <title>FDP</title>
    <desc>Created with Sketch.</desc>
    <g id="Page-1" stroke="none" stroke-width="1" fill="none" fill-rule="evenodd">
        <g id="FDP" transform="translate(-5.000000, -6.000000)">
            <g id="Ebene_2" transform="translate(0.640459, 0.510378)">
                <g id="g40" fill="#009EE3">
                    <polygon id="path42" points="5.1391331 83.6111654 12.9675297 83.6111654 13.4092965 23.7060726 4.35954112 23.7060726 4.35954112 14.5458743 59.3467148 14.5458743 59.794981 35.1075949 49.4004302 35.1075949 48.7312806 23.7060726 26.038677 23.7060726 25.8177936 47.8474165 50.1800222 47.8474165 50.1800222 57.68326 25.8177936 57.68326 25.5969103 83.6111654 35.2053729 83.6111654 35.2053729 92.7778619 5.13913509 92.7778619 5.13913509 83.6111654"></polygon>
                    <path d="M65.7263738,83.6111654 L72.7686809,83.6111654 L72.9895444,43.8260246 L64.1606744,43.8260246 L64.1606744,34.65933 L84.8393323,34.65933 C84.8393323,39.0185445 84.8393323,44.9434384 84.1636898,50.7578907 L84.3910727,50.9787741 C86.6259044,40.025516 92.9925651,33.5419148 101.379667,33.5419148 C104.394087,33.5419148 107.298068,34.1006194 108.421977,34.548887 L107.077198,45.6125874 C105.511516,45.0538801 103.94584,44.7225537 101.37968,44.7225537 C90.3159866,44.7225537 85.6189468,55.2275469 85.5085018,65.5051585 L85.281119,83.6111654 L93.7786592,83.6111654 L93.7786592,92.7778619 L65.7263671,92.7778619 L65.7263671,83.6111654 L65.7263738,83.6111654 Z" id="path44"></path>
                    <path d="M114.684705,38.5702802 C117.81607,37.12154 125.306639,33.3210321 137.708639,33.3210321 C154.918116,33.3210321 160.394744,41.8120809 160.394744,55.5588739 C160.394744,64.9464525 160.063449,74.2235921 159.952951,83.6111654 L167.774848,83.6111654 L167.774848,92.7778619 L149.331017,92.7778619 C149.331017,89.0877997 149.668832,84.6181429 150.337995,80.7071906 L150.117131,80.7071906 C147.654923,87.3012342 142.964383,94.1161611 130.776774,94.1161611 C116.809092,94.1161611 112.228997,84.8455191 112.228997,77.465388 C112.228997,62.1529175 127.762354,60.14547 137.260372,59.697205 L149.220605,59.0280561 L149.220605,54.6688403 C149.220605,47.5160901 146.647952,42.487726 136.370339,42.487726 C132.011128,42.487726 127.762354,43.7155822 125.86535,44.4951735 L125.86535,52.9927191 L114.684705,52.9927191 L114.684705,38.5702802 Z M134.01857,84.2868145 C143.743978,84.2868145 148.999722,76.9066834 148.999722,69.5330519 L148.999722,67.1812823 C136.032518,67.2982334 124.747934,67.8569247 124.747934,76.4584172 C124.747934,80.8176357 128.100175,84.2868145 134.01857,84.2868145 Z" id="path46" fill-rule="nonzero"></path>
                    <polygon id="path48" points="176.948064 83.6111654 183.990374 83.6111654 184.438621 15.9946152 174.264953 15.9946152 174.264953 6.83441747 196.951059 6.83441747 196.502812 59.9180891 217.071031 44.0469093 217.071031 43.8260259 208.80086 43.8260259 208.80086 34.6593313 236.067067 34.6593313 236.067067 43.8260259 230.259111 43.8260259 209.470009 61.0355043 231.935231 83.6111654 238.529275 83.6111654 238.529275 92.7778619 210.587425 92.7778619 210.587425 83.6111654 217.402352 83.6111654 196.502806 63.2703327 196.502806 83.6111654 203.545115 83.6111654 203.545115 92.7778619 176.948058 92.7778619 176.948058 83.6111654"></polygon>
                    <path d="M243.681081,34.65933 L252.509956,34.65933 L252.737339,21.5881821 L265.360215,20.6916522 L264.918422,34.65933 L281.569195,34.65933 L281.569195,43.8260246 L264.918422,43.8260246 C264.801471,53.1031615 264.691039,62.2698554 264.691039,70.9817895 C264.691039,81.6037231 267.042808,84.2868145 272.850765,84.2868145 C276.203005,84.2868145 279.782629,83.1693986 282.576166,82.0454899 L282.127919,91.2121798 C278.996562,92.7778619 274.195577,94.1161611 269.27766,94.1161611 C256.979606,94.1161611 252.178621,89.3151759 252.178621,76.2375338 C252.178621,68.7469577 252.399484,53.8827521 252.509916,43.8260246 L243.681041,43.8260246 L243.681041,34.65933 L243.681081,34.65933 Z" id="path50"></path>
                    <path d="M286.045378,83.6111654 L293.646392,83.6111654 L293.867256,43.8260246 L285.03838,43.8260246 L285.03838,34.65933 L306.386193,34.65933 L306.15881,83.6111654 L313.987208,83.6111654 L313.987208,92.7778619 L286.045358,92.7778619 L286.045358,83.6111654 L286.045378,83.6111654 Z M300.129991,5.48962205 C304.930976,5.48962205 308.731483,9.29012993 308.731483,14.0976093 C308.731483,18.9050887 304.930976,22.7055966 300.129991,22.7055966 C295.322513,22.7055966 291.522005,18.9050887 291.522005,14.0976093 C291.522005,9.29012993 295.322513,5.48962205 300.129991,5.48962205 Z" id="path52" fill-rule="nonzero"></path>
                    <path d="M350.985329,33.3210321 C372.44358,33.3210321 379.48589,49.7509192 379.48589,64.0564195 C379.48589,80.5967456 369.422667,94.1161611 349.530092,94.1161611 C328.74749,94.1161611 320.587764,79.7002198 320.587764,64.9464532 C320.587764,45.9504113 333.217146,33.3210321 350.985329,33.3210321 Z M349.86792,83.6111654 C361.269441,83.6111654 366.297803,74.1131471 366.297803,62.7116241 C366.297803,49.6404762 359.476383,43.8260246 350.764445,43.8260246 C338.355953,43.8260246 333.775851,54.2205753 333.775851,64.5046838 C333.775851,74.2235921 338.576836,83.6111654 349.86792,83.6111654 Z" id="path54" fill-rule="nonzero"></path>
                    <path d="M388.548641,83.6111654 L395.142678,83.6111654 L395.363541,43.8260246 L387.203815,43.8260246 L387.203815,34.65933 L407.882472,34.65933 C407.882472,38.5702796 407.544657,42.5981683 406.765063,47.5160901 L406.985926,47.5160901 C409.337689,40.0255167 415.814795,33.3210314 427.43718,33.3210314 C441.073527,33.3210314 447.66757,41.9290187 447.66757,55.7862541 C447.66757,65.063391 447.336275,74.3340304 447.219324,83.6111654 L454.820345,83.6111654 L454.820345,92.7778619 L428.112842,92.7778619 L428.112842,83.6111654 L434.706886,83.6111654 C434.817318,75.1201179 435.148679,66.5121313 435.148679,58.0210826 C435.148679,49.8613602 431.354672,43.8260239 423.415856,43.8260239 C414.807871,43.8260239 408.330765,50.6409515 408.103382,61.4837672 L407.655136,83.6111654 L415.483526,83.6111654 L415.483526,92.7778619 L388.548647,92.7778619 L388.548647,83.6111654 L388.548641,83.6111654 Z" id="path56"></path>
                    <path d="M557.21319,92.7778619 L537.541504,92.7778619 C537.541504,88.6395335 538.100182,84.2868145 538.65892,80.928074 L538.438056,80.928074 C535.417137,88.7564713 529.043977,94.1161611 519.097692,94.1161611 C505.130017,94.1161611 494.845905,83.8385482 494.845905,66.512132 C494.845905,47.2887099 506.247433,33.3210321 526.029557,33.3210321 C530.161393,33.3210321 534.078838,33.8797367 537.541524,34.6593307 L537.762387,15.9946152 L527.146953,15.9946152 L527.146953,6.83441747 L549.833059,6.83441747 L549.384812,83.6111654 L557.213203,83.6111654 L557.213203,92.7778619 L557.21319,92.7778619 Z M537.093238,45.6125881 C534.520591,44.0469086 530.609639,43.1568756 526.029537,43.1568756 C514.517577,43.1568756 508.033972,53.2136038 508.033972,64.6151261 C508.033972,75.4579392 512.731012,83.6111654 522.118592,83.6111654 C532.175321,83.6111654 537.093238,75.3410013 537.093238,61.8215911 L537.093238,45.6125881 Z" id="path58" fill-rule="nonzero"></path>
                    <path d="M616.345191,90.0947706 C612.323801,91.770891 604.612341,94.1161611 595.893911,94.1161611 C576.670491,94.0057294 565.26897,82.1624277 565.26897,63.9459772 C565.26897,46.7300026 574.994371,33.3210321 593.769531,33.3210321 C611.206385,33.3210321 620.03526,46.0608536 620.03526,64.0564195 L620.03526,65.7325407 L578.457057,65.7325407 C578.567489,77.0171284 586.844159,84.2868145 598.349626,84.2868145 C605.619319,84.2868145 611.985979,82.3833111 617.014341,79.8106581 L616.345191,90.0947706 Z M606.847173,57.2349957 L606.847173,56.1175812 C606.847173,51.316598 603.715815,42.4877267 593.100381,42.4877267 C582.48494,42.4877267 578.905323,50.1991841 578.457057,57.2349957 L606.847173,57.2349957 Z" id="path60" fill-rule="nonzero"></path>
                    <path d="M628.318417,83.6111654 L635.360726,83.6111654 L635.58159,43.8260246 L626.752714,43.8260246 L626.752714,34.65933 L647.431378,34.65933 C647.431378,39.0185445 647.431378,44.9434384 646.755729,50.7578907 L646.983111,50.9787741 C649.217943,40.025516 655.584604,33.5419148 663.971706,33.5419148 C666.986159,33.5419148 669.890113,34.1006194 671.014055,34.548887 L669.66925,45.6125867 C668.103581,45.0538821 666.537912,44.7225531 663.971706,44.7225531 C652.908005,44.7225531 648.210966,55.2275462 648.100527,65.5051578 L647.873144,83.6111654 L656.370691,83.6111654 L656.370691,92.7778619 L628.318397,92.7778619 L628.318397,83.6111654 L628.318417,83.6111654 Z" id="path62"></path>
                </g>
                <g id="g64" transform="translate(392.498238, 113.092712)" fill="#009EE2">
                    <path d="M126.077066,73.1976749 C125.436097,76.3864969 122.810144,81.746812 114.360362,81.746812 C110.704653,81.746812 106.679458,80.3441165 104.243441,75.7970576 C102.048956,71.5978986 101.926437,65.8815942 101.926437,62.9662104 L143.132711,62.9662104 C143.132711,57.9503424 143.132711,45.46975 135.815819,37.4217931 C130.576214,31.5892095 122.529627,29.139455 114.239666,29.139455 C107.776823,29.139455 100.097648,30.4217867 93.7590011,36.8371637 C89.8582006,40.8032453 84.7660415,47.4517064 84.7660415,60.7494469 C84.7660415,82.2119757 95.0977527,92.7124411 114.482881,92.7124411 C118.628774,92.7124411 130.087953,92.5934276 137.889653,83.3784937 C140.908031,79.7235901 142.236079,75.8928738 142.564514,73.2144858 L126.077066,73.1978545 L126.077066,73.1976749 Z M102.535388,53.0517449 C102.780467,50.4851723 103.146222,47.3349814 105.949757,44.0698019 C108.142511,41.620859 110.946093,40.2208977 114.727873,40.2208977 C124.725928,40.2208977 126.430421,49.7865454 126.430421,53.0517449 L102.535388,53.0517449 Z" id="path66" fill-rule="nonzero"></path>
                    <path d="M597.724922,73.1976749 C597.08362,76.3864969 594.454414,81.746812 586.006521,81.746812 C582.348903,81.746812 578.329123,80.3441165 575.887783,75.7970576 C573.696778,71.5978986 573.572443,65.8815942 573.572443,62.9662104 L614.778904,62.9662104 C614.778904,57.9503424 614.778904,45.46975 607.463668,37.4217931 C602.220557,31.5892095 594.175673,29.139455 585.885778,29.139455 C579.424658,29.139455 571.745597,30.4217867 565.403357,36.8371637 C561.50432,40.8032453 556.413817,47.4517064 556.413817,60.7494469 C556.413817,82.2119757 566.745635,92.7124411 586.128927,92.7124411 C590.276569,92.7124411 601.735855,92.5934276 609.535726,83.3784937 C612.554104,79.7235901 613.882145,75.8928738 614.210646,73.2144858 L597.724922,73.1978545 L597.724922,73.1976749 Z M574.183343,53.0517449 C574.428156,50.4851723 574.790718,47.3349814 577.594153,44.0698019 C579.790347,41.620859 582.593982,40.2208977 586.375802,40.2208977 C596.370204,40.2208977 598.076441,49.7865454 598.076441,53.0517449 L574.183343,53.0517449 Z" id="path68" fill-rule="nonzero"></path>
                    <path d="M77.7225143,48.883673 C77.7225143,23.3210611 64.1291494,9.95713478 40.9425489,9.95713478 L2.94463487,9.95713478 L2.94463487,21.8091912 L11.6588741,21.8091912 L11.6588741,79.4439583 L2.94463487,79.4439583 L2.94463487,91.2964738 L41.8711598,91.2964738 C64.1291494,91.2964738 77.7225143,74.0996491 77.7225143,48.883673 M59.3635955,49.3497481 C59.3635955,71.6600663 51.5708291,79.4439517 38.5012564,79.4439517 L28.6257946,79.4439517 L28.6257946,21.8091845 L38.2686447,21.8091845 C51.5708291,21.8091845 59.3635955,28.5508274 59.3635955,49.3497481" id="path70" fill-rule="nonzero"></path>
                    <path d="M228.846031,91.2964738 L258.010819,91.2964738 L258.010819,79.4439583 L251.041906,79.4439583 L251.041906,52.8360238 C251.041906,38.3100366 244.417407,29.1300949 230.007254,29.1300949 C219.318628,29.1300949 212.576992,34.3581382 209.673975,42.8415485 L209.441337,42.8415485 C207.813228,33.7779726 201.540314,29.1300949 191.545912,29.1300949 C181.437918,29.1300949 173.882993,34.0109635 170.511306,42.8415485 L170.280464,42.8415485 C171.210898,38.6571181 171.210898,34.7070358 171.210898,30.5256922 L147.388696,30.5256922 L147.388696,42.3750278 L155.293325,42.3750278 L155.293325,79.4439583 L148.667003,79.4439583 L148.667003,91.2964738 L178.531343,91.2964738 L178.531343,79.4439583 L171.558871,79.4439583 L171.558871,59.2243119 C171.558871,50.0457273 175.859108,43.0741869 184.458013,43.0741869 C190.617288,43.0741869 195.03127,46.0942878 195.03127,54.4606206 L195.03127,79.4439583 L189.106323,79.4439583 L189.106323,91.2964738 L218.271004,91.2964738 L218.271004,79.4439583 L211.300362,79.4439583 L211.300362,59.2243119 C211.300362,49.4660207 216.294875,43.0741869 224.197781,43.0741869 C230.357056,43.0741869 234.770931,46.0942878 234.770931,54.4606206 L234.770931,79.4439583 L228.846038,79.4439583 L228.846038,91.2964738 L228.846031,91.2964738 Z" id="path72"></path>
                    <path d="M324.198754,61.549345 C324.198754,40.4033495 313.517148,29.1300949 293.064863,29.1300949 C273.195005,29.1300949 261.93471,44.1221505 261.93471,61.549345 C261.93471,82.2341684 273.662012,92.6911597 293.064863,92.6911597 C312.46951,92.6911597 324.198754,79.6765036 324.198754,61.549345 M306.535801,61.8982693 C306.535801,72.8186147 303.057535,79.443985 293.064863,79.443985 C283.072257,79.443985 279.597583,72.8186147 279.597583,61.8982693 C279.597583,50.8598218 283.072257,42.3777819 293.064863,42.3777819 C303.057535,42.3777819 306.535801,48.8836996 306.535801,61.8982693" id="path74" fill-rule="nonzero"></path>
                    <path d="M328.923302,91.2964738 L357.39386,91.2964738 L357.39386,79.4439583 L351.815196,79.4439583 L351.815196,60.3872775 L364.829773,74.9128123 C366.571467,76.7709389 368.199669,78.1664498 369.944956,79.2113333 L369.944956,79.4439716 L363.551359,79.4439716 L363.551359,91.2964871 L395.853366,91.2965137 L395.853366,79.4439716 L389.115302,79.4439716 L368.78203,57.482551 L387.719804,42.3750411 L393.067626,42.3750411 L393.067626,30.5257056 L362.157525,30.5257056 L362.157525,42.3750411 L370.523858,42.3750411 L370.523858,42.6081451 C369.593437,42.9578677 368.895655,43.4235835 368.084315,44.0031969 L351.815196,56.4376941 L351.815196,1.9397529 L326.249391,1.9397529 L326.249391,13.792255 L335.547741,13.792255 L335.547741,79.4439983 L328.923302,79.4439983 L328.923302,91.2965137 L328.923302,91.2964738 Z" id="path76"></path>
                    <path d="M410.425096,79.4439583 L403.800657,79.4439583 L403.800657,91.2964738 L434.360902,91.2964738 L434.360902,79.4439583 L426.692484,79.4439583 L426.692484,59.8075709 C426.692484,49.8131953 432.968997,43.7706251 441.798677,43.7706251 C443.423221,43.7706251 445.283928,44.0054588 447.027485,44.3525204 L448.073327,29.8265331 C446.329703,29.4803364 444.701567,29.1301016 442.727168,29.1301016 C433.432344,29.1301016 427.738326,34.2418789 425.298716,44.4688795 L425.064548,44.4688795 C425.877818,38.7756659 426.110323,34.7075015 426.110323,30.5229714 L402.522576,30.5229714 L402.522576,42.3754735 L410.425362,42.3754735 L410.425362,79.443965 L410.425096,79.4439583 Z" id="path78"></path>
                    <path d="M510.715447,79.4448697 L503.85664,79.4448697 C504.090808,70.846005 504.440731,62.4788607 504.440731,52.4871262 C504.440731,34.8251179 494.920253,29.131452 478.652998,29.131452 C467.847122,29.131452 458.317864,33.1968955 454.369198,35.4052104 L454.369198,50.8588905 L468.312332,50.8588905 L468.312332,42.7257416 C471.101598,41.680399 476.096304,40.9839674 478.420359,40.9839674 C486.090573,40.9839674 489.101966,43.4239095 489.101966,52.6033921 L489.101966,55.5072205 C477.248519,55.5072205 469.823317,56.0887831 463.664022,58.2975171 C457.272089,60.6207208 451.462582,66.3139476 451.462582,75.0273553 C451.462582,84.5583767 458.085358,92.6902616 471.797783,92.6902616 C482.022894,92.6902616 486.774252,88.391734 490.845456,79.212238 L491.076299,79.212238 C490.494204,81.5363664 490.263096,83.6270382 490.263096,87.5793957 L490.263096,91.2972854 L510.715314,91.2972854 L510.715314,79.4448697 L510.715447,79.4448697 Z M488.869394,65.5016958 C488.869394,76.657314 483.184223,80.8403806 476.676935,80.8403806 C470.286864,80.8403806 467.730038,77.1215662 467.730038,73.5190245 C467.730038,68.2883402 471.08949,65.5016958 484.336505,65.5016958 L488.869394,65.5016958 Z" id="path80" fill-rule="nonzero"></path>
                    <path d="M519.898509,30.5252399 L511.647597,30.5252399 L511.647597,42.3777553 L519.898509,42.3777553 L519.898509,76.4237642 C519.898509,87.1142121 526.28858,92.6919846 538.255651,92.6919846 C542.207909,92.6919846 546.389279,91.8788214 552.433087,89.7855086 L552.459697,78.2819041 C549.437793,79.4465994 547.321429,80.1425852 545.114392,80.1425852 C538.376328,80.1425852 536.167561,78.0492724 536.167561,69.4522238 L536.167561,42.3777553 L549.757446,42.3777553 L549.757446,30.5252399 L536.167561,30.5252399 L536.167561,17.0472296 L519.898509,17.9735653 L519.898509,30.5252399 Z" id="path82"></path>
                    <path d="M627.603418,79.4439583 L621.678491,79.4439583 L621.678491,91.2964738 L650.845035,91.2964738 L650.845035,79.4439583 L643.874332,79.4439583 L643.874332,59.2252099 C643.874332,50.0457273 648.172853,43.0746392 658.048242,43.0746392 C664.205675,43.0746392 668.625138,46.0942878 668.625138,54.4614322 L668.625138,79.4439583 L661.99877,79.4439583 L661.99877,91.2964738 L691.8613,91.2964738 L691.8613,79.4439583 L684.888802,79.4439583 L684.888802,52.8360238 C684.888802,38.3100366 678.267889,29.1300949 663.857748,29.1300949 C653.286374,29.1300949 645.848665,35.0572108 642.826761,43.0746392 L642.595919,43.0746392 C643.520951,38.6571181 643.520951,34.7074949 643.520951,30.5229647 L619.702428,30.5229647 L619.702428,42.3754668 L627.603351,42.3754668 L627.603351,79.4439583 L627.603418,79.4439583 Z" id="path84"></path>
                </g>
                <g id="g86" transform="translate(0.000000, 113.092712)" fill="#009EE2">
                    <path d="M161.591212,72.8684154 C160.928888,76.1628327 158.215534,81.698721 149.482914,81.698721 C145.705591,81.698721 141.548416,80.2520989 139.029488,75.5537952 C136.762013,71.2154257 136.635395,65.3089925 136.635395,62.2966417 L179.212267,62.2966417 C179.212267,57.113463 179.212267,44.2177604 171.651999,35.9020932 C166.236349,29.8755156 157.923881,27.3442812 149.358173,27.3442812 C142.682163,27.3442812 134.745796,28.6697344 128.19818,35.2980251 C124.167629,39.3964917 118.904234,46.2674128 118.904234,60.0056761 C118.904234,82.1825649 129.581397,93.0318149 149.611414,93.0318149 C153.893317,93.0318149 165.733625,92.9083443 173.794833,83.3878738 C176.911728,79.6082155 178.285845,75.6523322 178.625203,72.8853261 L161.591212,72.8686948 L161.591212,72.8684154 Z M137.264637,52.0514598 C137.517831,49.3999878 137.89576,46.1454856 140.792564,42.7712315 C143.058257,40.2408286 145.955073,38.7943129 149.862673,38.7943129 C160.189567,38.7943129 161.954432,48.6785095 161.954432,52.0514598 L137.264637,52.0514598 Z" id="path88" fill-rule="nonzero"></path>
                    <path d="M265.547576,72.8684154 C264.885252,76.1628327 262.171912,81.698721 253.439372,81.698721 C249.663758,81.698721 245.5048,80.2520989 242.985973,75.5537952 C240.72026,71.2154257 240.591773,65.3089925 240.591773,62.2966417 L283.168752,62.2966417 C283.168752,57.113463 283.168752,44.2177604 275.608364,35.9020932 C270.196399,29.8755156 261.880253,27.3442812 253.318296,27.3442812 C246.638528,27.3442812 238.704056,28.6697344 232.154552,35.2980251 C228.124,39.3964917 222.862415,46.2674128 222.862415,60.0056761 C222.862415,82.1825649 233.537868,93.0318149 253.567785,93.0318149 C257.851498,93.0318149 269.690023,92.9083443 277.753001,83.3878738 C280.871772,79.6082155 282.242203,75.6523322 282.581674,72.8853261 L265.547576,72.8686948 L265.547576,72.8684154 Z M241.222884,52.0514598 C241.474216,49.3999878 241.852145,46.1454856 244.748935,42.7712315 C247.016524,40.2408286 249.913321,38.7943129 253.820946,38.7943129 C264.149617,38.7943129 265.910804,48.6785095 265.910804,52.0514598 L241.222884,52.0514598 Z" id="path90" fill-rule="nonzero"></path>
                    <polygon id="polygon92" points="6.22435214 79.3407845 6.22435214 91.5843413 40.8043722 91.5843413 40.8043722 79.3407845 31.3158936 79.3407845 31.3158936 56.047644 56.8568922 56.047644 56.8568922 43.0789434 31.3158936 43.0789434 31.3158936 19.0335966 51.1311785 19.0335966 51.1256369 24.7625076 65.5344708 24.7625076 65.536253 6.78870274 4.78242538 6.78870274 4.78242538 19.0335966 13.7882888 19.0335966 13.7882888 79.3407845"></polygon>
                    <path d="M76.48685,79.3385426 L69.6420466,79.3385426 L69.6420466,91.5851795 L101.220705,91.5851795 L101.220705,79.3385426 L93.2953276,79.3385426 L93.2953276,59.0489915 C93.2953276,48.7220968 99.7786867,42.4804169 108.902055,42.4804169 C110.584356,42.4804169 112.505229,42.7189094 114.30671,43.0798748 L115.38729,28.0734497 C113.587586,27.7097569 111.903416,27.3520779 109.863437,27.3520779 C100.257541,27.3520779 94.3759018,32.6328423 91.8533024,43.2000125 L91.6130136,43.2000125 C92.4550088,37.3169629 92.6935945,33.113473 92.6935945,28.7898655 L68.3229665,28.7898655 L68.3229665,41.0366088 L76.4868367,41.0366088 L76.4868367,79.338536 L76.48685,79.3385426 Z" id="path94"></path>
                    <polygon id="polygon96" points="217.611873 79.3385426 210.411174 79.3385426 210.411174 28.7898721 185.435154 28.7898721 185.435154 41.0366154 193.599031 41.0366154 193.599031 79.3385426 186.75611 79.3385426 186.75611 91.5851795 217.611873 91.5851795"></polygon>
                    <rect id="rect98" x="192.685461" y="2.2646217" width="16.8120473" height="16.8001579"></rect>
                    <path d="M298.912967,78.7539132 L292.790972,78.7539132 L292.790972,91.0006498 L322.927606,91.0006498 L322.927606,78.7539132 L315.725017,78.7539132 L315.725017,57.8626556 C315.725017,48.3778426 320.166527,41.1748812 330.37047,41.1748812 C336.73274,41.1748812 341.299084,44.2949695 341.299084,52.9404151 L341.299084,78.7539132 L334.452412,78.7539132 L334.452412,91.0006498 L365.308162,91.0006498 L365.308162,78.7539132 L358.103797,78.7539132 L358.103797,51.2609484 C358.103797,36.2517958 351.262652,26.7665171 336.373198,26.7665171 C325.450112,26.7665171 317.765096,32.8907868 314.642673,41.1748812 L314.40418,41.1748812 C315.35992,36.6104261 315.35992,32.5294224 315.35992,28.205715 L290.749117,28.205715 L290.749117,40.452465 L298.91298,40.452465 L298.91298,78.7539132 L298.912967,78.7539132 Z" id="path100"></path>
                </g>
                <rect id="rect102" fill="#E5007D" x="665.244604" y="224.34552" width="418.209879" height="94.7774009"></rect>
                <g id="g104" transform="translate(915.394212, 243.490450)" fill="#FFED00">
                    <polygon id="polygon112" points="0.284683726 8.4290022 5.94849982 8.4290022 5.94849982 46.3664183 1.1906894 46.3664183 1.1906894 54.0713316 22.9432744 54.0713316 22.9432744 46.3664183 16.9780329 46.3664183 16.9780329 31.7123103 33.0420544 31.7123103 33.0420544 23.5571283 16.9780329 23.5571283 16.9780329 8.4290022 29.4407168 8.4290022 29.4382554 12.0327813 38.5013058 12.0327813 38.503235 0.724142049 0.284683726 0.724142049"></polygon>
                    <path d="M98.693505,26.2560127 C98.693505,42.7912383 89.7769429,54.0694024 75.1804656,54.0694024 L49.6520476,54.0694024 L49.6520476,46.2971124 L55.3666889,46.2971124 L55.3666889,8.49929264 L49.6520476,8.49929264 L49.6520476,0.725080053 L74.5702307,0.725080053 C89.7769429,0.725080053 98.693505,9.48806888 98.693505,26.2560127 Z M86.6538544,26.5598995 C86.6538544,12.9178582 81.5431947,8.49928599 72.8214182,8.49928599 L66.494014,8.49928599 L66.494014,46.2971058 L72.9701018,46.2971058 C81.5431947,46.2971058 86.6538544,41.1912159 86.6538544,26.5598995 Z" id="Shape" fill-rule="nonzero"></path>
                    <path d="M113.393163,8.50462131 L108.133686,8.50462131 L108.133686,0.732870146 L130.160554,0.732870146 C143.038754,0.732870146 149.670511,6.06657526 149.670511,16.5066292 C149.670511,26.4910792 142.581261,33.5013905 131.987933,33.5013905 L124.517627,33.5013905 L124.517627,46.3053615 L129.777237,46.3053615 L129.777237,54.0795741 L108.133686,54.0795741 L108.133686,46.3053615 L113.393163,46.3053615 L113.393163,8.50462131 Z M130.541145,25.729606 C136.102579,25.729606 139.000613,22.3764271 139.000613,16.9637234 C139.000613,11.4768441 135.724051,8.50462131 130.387937,8.50462131 L124.517627,8.50462131 L124.517627,25.729606 L130.541145,25.729606 Z" id="Shape" fill-rule="nonzero"></path>
                </g>
            </g>
        </g>
    </g>
</svg>