<?xml version="1.0" encoding="UTF-8"?>
<svg width="380px" height="133px" viewBox="0 0 380 133" version="1.1" xmlns="http://www.w3.org/2000/svg" xmlns:xlink="http://www.w3.org/1999/xlink">
    <!-- Generator: Sketch 52.6 (67491) - http://www.bohemiancoding.com/sketch -->
    <title>SPD</title>
    <desc>Created with Sketch.</desc>
    <g id="Page-1" stroke="none" stroke-width="1" fill="none" fill-rule="evenodd">
        <g id="SPD" transform="translate(-3.000000, -4.000000)">
            <g id="g10" transform="translate(193.000000, 69.250030) scale(-1, 1) rotate(-180.000000) translate(-193.000000, -69.250030) translate(0.500000, 0.500030)">
                <g id="g3595" transform="translate(1.039770, 0.945935)">
                    <polygon id="path32" fill="#EE3439" points="1.46023628 132.731356 133.21712 132.731356 133.21712 0.376835168 1.46023628 0.376835168"></polygon>
                    <polygon id="path34" fill="#FFFFFF" points="140.409372 132.601819 381.460231 132.601819 381.460231 0.506372257 140.409372 0.506372257"></polygon>
                    <polygon id="path36" fill="#5D5855" points="260.549134 26.2459806 263.060388 26.2459806 263.060388 53.2809599 260.549134 53.2809599"></polygon>
                    <path d="M161.314892,72.3714884 C165.377646,72.3714884 167.438464,70.5932975 167.438464,67.086964 C167.438464,63.4069331 165.604336,61.8377679 161.314892,61.8377679 L155.880222,61.8377679 L155.880222,72.3714884 L161.314892,72.3714884 Z M160.546502,84.6510156 C164.594536,84.6510156 166.561144,83.0170819 166.561144,79.6579497 C166.561144,76.1486722 164.782953,74.3734252 161.27662,74.3734252 L155.880222,74.3734252 L155.880222,84.6510156 L160.546502,84.6510156 Z M153.404298,86.7618814 L153.404298,59.7298461 L161.78888,59.7298461 C167.102845,59.7298461 169.914388,62.2469873 169.914388,67.0133634 C169.914388,70.4578723 168.14503,72.7247714 164.965483,73.4578335 C167.591553,74.4234737 169.034125,76.5843878 169.034125,79.8404792 C169.034125,84.5626949 166.340342,86.7618814 160.546502,86.7618814 L153.404298,86.7618814 Z" id="path48" fill="#5D5855" fill-rule="nonzero"></path>
                    <path d="M190.570844,86.7618814 L190.570844,68.4382714 C190.570844,63.7248877 188.480586,61.61991 183.787811,61.61991 C179.044987,61.61991 177.110763,63.5924066 177.110763,68.4382714 L177.110763,86.7618814 L174.637782,86.7618814 L174.637782,68.4382714 C174.637782,62.1616106 177.446381,59.361843 183.749538,59.361843 C190.005591,59.361843 193.046769,62.332364 193.046769,68.4382714 L193.046769,86.7618814 L190.570844,86.7618814 Z" id="path52" fill="#5D5855"></path>
                    <path d="M214.651789,86.7618814 L214.651789,65.4029818 C214.651789,65.4029818 214.748941,63.1390268 214.757773,62.8976168 L214.710669,62.8976168 C214.713613,62.8976168 214.713613,62.8976168 214.713613,62.9035048 C214.713613,63.044818 213.571331,65.4677504 213.571331,65.4677504 L201.400733,86.7618814 L198.612742,86.7618814 L198.612742,59.7298461 L200.941465,59.7298461 L200.941465,81.1181859 C200.941465,81.1181859 200.82076,83.3703649 200.80604,83.7148158 C201.144603,82.7609518 201.539102,81.8836324 202.02781,81.0563614 L214.195465,59.7298461 L216.983456,59.7298461 L216.983456,86.7618814 L214.651789,86.7618814 Z" id="path56" fill="#5D5855"></path>
                    <path d="M230.419396,84.5765318 C235.020907,84.5765318 239.286799,83.2605528 239.286799,73.7013044 C239.286799,65.4344829 236.598904,61.9104853 230.307523,61.9104853 L225.42633,61.9104853 L225.42633,84.5765318 L230.419396,84.5765318 Z M222.912133,86.7609982 L222.912133,59.7289629 L230.272195,59.7289629 C237.994372,59.7289629 241.906981,64.4276264 241.906981,73.7013044 C241.906981,82.6099233 238.19751,86.7609982 230.236867,86.7609982 L222.912133,86.7609982 Z" id="path60" fill="#5D5855" fill-rule="nonzero"></path>
                    <polygon id="path64" fill="#5D5855" points="246.996611 86.7618814 246.996611 59.7298461 261.913984 59.7298461 261.62547 61.9113685 249.50492 61.9113685 249.50492 72.3008318 261.130874 72.3008318 261.130874 74.4823542 249.50492 74.4823542 249.50492 84.5420867 261.637246 84.5420867 261.637246 86.7618814 246.996611 86.7618814"></polygon>
                    <path d="M266.255832,79.7668786 C266.255832,76.6197161 267.754341,74.7649805 271.590405,73.148711 C271.593349,73.148711 275.906345,71.3587439 275.906345,71.3587439 C278.712001,70.17819 279.704137,68.9358115 279.704137,66.612976 C279.704137,63.3421645 277.837625,61.61991 274.30774,61.61991 C272.508941,61.61991 271.369603,61.7906635 267.289185,62.930001 L267.174368,62.9623853 L266.479578,60.6454378 L266.597339,60.6101095 C270.345082,59.5620367 272.14977,59.361843 274.160538,59.361843 C279.203653,59.361843 282.21539,62.0997861 282.21539,66.6836326 C282.21539,70.0368768 280.619729,72.1241903 276.877873,73.6698033 L272.635534,75.4214981 C269.770998,76.6197161 268.802413,77.7355015 268.802413,79.8404792 C268.802413,83.0847945 270.822014,84.8688735 274.490269,84.8688735 C276.106539,84.8688735 277.572663,84.6215754 280.23995,84.0680987 L280.360655,84.0445466 L280.849363,86.3644381 L280.725714,86.3938783 C278.296893,86.9002506 276.415661,87.1239964 274.63747,87.1239964 C269.544308,87.1239964 266.255832,84.2388522 266.255832,79.7668786" id="path68" fill="#5D5855"></path>
                    <polygon id="path72" fill="#5D5855" points="285.219767 86.7618814 285.219767 84.5420867 292.311923 84.5420867 292.311923 59.7298461 294.823176 59.7298461 294.823176 84.5420867 301.909444 84.5420867 301.909444 86.7618814 285.219767 86.7618814"></polygon>
                    <path d="M311.303238,84.687816 C311.344454,84.4846783 311.721289,82.7270955 311.721289,82.7270955 C311.721289,82.7270955 315.407208,71.2925033 315.689835,70.424016 L306.931361,70.424016 C307.031458,70.7360827 310.932291,82.7212074 310.932291,82.7241515 C311.170757,83.4395495 311.276742,84.2020519 311.294406,84.687816 L311.303238,84.687816 Z M309.816505,86.7604094 L300.960879,59.7313182 L303.525124,59.7313182 C303.525124,59.7313182 306.248347,68.1482849 306.30134,68.3160943 L316.281584,68.3160943 C316.33752,68.1482849 319.096071,59.7313182 319.096071,59.7313182 L321.692701,59.7313182 L312.878291,86.7604094 L309.816505,86.7604094 Z" id="path76" fill="#5D5855" fill-rule="nonzero"></path>
                    <path d="M323.845961,73.299445 C323.845961,63.5282269 327.052004,59.3624319 334.568099,59.3624319 C336.128432,59.3624319 339.022409,59.7451551 342.461029,60.8315002 L342.546406,60.8521084 L342.546406,74.4446706 L333.93219,74.4446706 L333.93219,72.22782 L340.144082,72.22782 L340.144082,62.5773069 C337.747646,61.9266774 336.131376,61.6528831 334.606371,61.6528831 C329.71929,61.6528831 326.469087,63.6342118 326.469087,73.299445 C326.469087,82.9028538 329.707514,84.834134 334.933158,84.834134 C336.811446,84.834134 338.916424,84.4308026 341.763296,83.524043 L341.889889,83.4857707 L342.537574,85.8851508 L342.419813,85.9145911 C339.246154,86.7742463 337.0558,87.1245852 334.859558,87.1245852 C327.240421,87.1245852 323.845961,82.8616374 323.845961,73.299445" id="path80" fill="#5D5855"></path>
                    <path d="M347.234766,79.7668786 C347.234766,76.6197161 348.733274,74.7649805 352.572282,73.148711 C352.575226,73.148711 356.888223,71.3587439 356.888223,71.3587439 C359.690934,70.17819 360.683071,68.9358115 360.683071,66.612976 C360.683071,63.3421645 358.819503,61.61991 355.289617,61.61991 C353.490818,61.61991 352.351481,61.7906635 348.271062,62.930001 L348.156245,62.9623853 L347.461455,60.6454378 L347.58216,60.6101095 C351.32696,59.5620367 353.125759,59.361843 355.142416,59.361843 C360.182586,59.361843 363.197268,62.0997861 363.197268,66.6836326 C363.197268,70.0368768 361.598662,72.1241903 357.856807,73.6698033 L353.617411,75.4214981 C350.752875,76.6197161 349.784291,77.7355015 349.784291,79.8404792 C349.784291,83.0847945 351.806836,84.8688735 355.475091,84.8688735 C357.088416,84.8688735 358.554541,84.6215754 361.221827,84.0680987 L361.345476,84.0445466 L361.83124,86.3644381 L361.710535,86.3938783 C359.275827,86.9002506 357.400483,87.1239964 355.616404,87.1239964 C350.529129,87.1239964 347.234766,84.2388522 347.234766,79.7668786" id="path84" fill="#5D5855"></path>
                    <polygon id="path88" fill="#5D5855" points="153.424611 53.2800767 153.424611 26.2480415 155.935865 26.2480415 155.935865 38.6011693 167.485274 38.6011693 167.485274 40.81802 155.935865 40.81802 155.935865 51.0602821 167.997534 51.0602821 167.997534 53.2800767 153.424611 53.2800767"></polygon>
                    <path d="M180.261458,51.1335883 C184.05925,51.1335883 185.984642,49.2700206 185.984642,45.5929337 C185.984642,41.8334141 183.862,39.7578766 180.008272,39.7578766 L175.085862,39.7578766 L175.085862,51.1335883 L180.261458,51.1335883 Z M190.815787,28.5676386 L189.888419,28.505814 C189.075868,28.505814 188.860954,28.8061046 188.172052,29.8276812 C188.172052,29.8276812 183.42334,37.5999065 183.099498,38.2240397 C186.647048,39.2426723 188.537111,41.7892537 188.537111,45.631206 C188.537111,50.6331041 185.702016,53.2797823 180.335058,53.2797823 L172.609938,53.2797823 L172.609938,26.2477471 L175.085862,26.2477471 L175.085862,37.6852832 L180.594133,37.6852832 L180.714838,37.6852832 C180.706006,37.6823392 186.04941,28.614743 186.04941,28.617687 C187.215244,26.8512721 187.89237,26.1447062 189.446815,26.1388181 L190.824619,26.2595232 L190.815787,28.5676386 Z" id="path92" fill="#5D5855" fill-rule="nonzero"></path>
                    <path d="M204.335337,51.2071889 C204.376553,51.0040512 204.756333,49.2494124 204.756333,49.2494124 C204.756333,49.2494124 208.442252,37.8089323 208.71899,36.946333 L199.960516,36.946333 C200.063557,37.2583996 203.96439,49.2464684 203.96439,49.2464684 C204.202856,49.9589224 204.308841,50.7243688 204.323561,51.2071889 L204.335337,51.2071889 Z M202.84566,53.2797823 L193.992978,26.2477471 L196.55428,26.2477471 C196.55428,26.2477471 199.280447,34.6676578 199.333439,34.8384113 L209.316627,34.8384113 C209.366675,34.6676578 212.128171,26.2477471 212.128171,26.2477471 L214.7248,26.2477471 L205.91039,53.2797823 L202.84566,53.2797823 Z" id="path96" fill="#5D5855" fill-rule="nonzero"></path>
                    <path d="M236.959547,28.5667554 L236.038068,28.5049308 C235.225517,28.5049308 235.084204,28.766949 234.315813,29.829742 C234.315813,29.829742 226.602468,41.6441133 226.520036,41.7913145 C226.628964,41.9208516 235.955635,52.9315042 235.955635,52.9315042 L235.985075,53.2788991 L233.28246,53.2788991 L222.539714,40.4812235 C221.903805,39.7393293 221.209015,38.7442489 220.808628,38.0141308 L220.852788,53.2788991 L218.379807,53.2788991 L218.379807,26.2468639 L220.852788,26.2468639 L220.852788,34.9935614 C220.87634,34.9788413 224.403282,39.1416923 224.968534,39.7982098 C225.1334,39.5008633 232.093074,28.7934453 232.093074,28.7934453 C233.347229,27.0476386 233.797665,26.1379349 235.599408,26.1379349 L236.974267,26.25864 L236.959547,28.5667554 Z" id="path100" fill="#5D5855"></path>
                    <polygon id="path104" fill="#5D5855" points="239.029785 53.2800767 239.029785 51.0602821 246.116053 51.0602821 246.116053 26.2480415 248.63025 26.2480415 248.63025 51.0602821 255.716518 51.0602821 255.716518 53.2800767 239.029785 53.2800767"></polygon>
                    <path d="M271.007194,39.7458061 C271.007194,47.9066427 273.330029,51.389424 278.776475,51.389424 C284.219977,51.389424 286.5487,47.9066427 286.5487,39.7458061 C286.5487,29.5153201 282.618427,28.1375165 278.776475,28.1375165 C275.161212,28.1375165 271.007194,29.4564396 271.007194,39.7458061 M268.384067,39.7104778 C268.384067,30.5339527 271.875681,25.8823936 278.776475,25.8823936 C285.671381,25.8823936 289.168882,30.5457288 289.168882,39.7458061 C289.168882,48.9694357 285.671381,53.647491 278.776475,53.647491 C271.875681,53.647491 268.384067,48.9576596 268.384067,39.7104778" id="path108" fill="#5D5855" fill-rule="nonzero"></path>
                    <path d="M162.068562,93.1389334 C159.633854,93.1389334 157.67019,93.2831906 152.977414,95.0643256 L154.723221,101.246778 C160.505285,99.4303143 161.341388,99.3567137 162.904666,99.3567137 C164.141156,99.3567137 164.941931,100.010287 164.941931,101.320378 C164.941931,102.374339 164.323685,102.810055 163.266781,103.136841 L159.015609,104.520533 C155.959711,105.500893 153.2306,107.756016 153.2306,112.04546 C153.2306,117.46541 157.634861,120.518364 163.266781,120.518364 C165.30699,120.518364 167.232382,120.300506 171.483554,119.172944 L169.923221,112.955164 C165.38059,114.082725 163.849697,114.300583 162.46895,114.300583 C161.30606,114.300583 160.543558,113.826595 160.543558,112.48412 C160.543558,111.536144 161.232459,111.209357 162.28642,110.844298 L166.540536,109.38995 C169.740691,108.338933 172.284328,106.154467 172.284328,101.865023 C172.284328,96.1212305 167.777026,93.1389334 162.068562,93.1389334" id="path112" fill="#EE3439"></path>
                    <path d="M183.883786,114.264372 L181.628663,114.264372 L181.628663,107.390074 L183.845514,107.390074 C185.264533,107.390074 186.02998,108.15552 186.02998,111.102489 C186.02998,113.610798 185.193877,114.264372 183.883786,114.264372 M183.957387,101.428424 L181.628663,101.428424 L181.628663,93.5031093 L174.212665,93.5031093 L174.212665,120.155365 L184.139916,120.155365 C190.101566,120.155365 193.775709,117.608784 193.775709,111.208474 C193.775709,104.119263 189.230135,101.428424 183.957387,101.428424" id="path116" fill="#EE3439" fill-rule="nonzero"></path>
                    <path d="M205.666625,114.155737 L203.049387,114.155737 L203.049387,99.5739827 L205.628353,99.5739827 C209.043421,99.5739827 209.808868,100.775145 209.808868,107.207839 C209.808868,113.354963 208.498777,114.155737 205.666625,114.155737 M205.77261,93.5034037 L195.630445,93.5034037 L195.630445,120.15566 L205.666625,120.15566 C212.68518,120.15566 217.628198,116.699375 217.628198,107.35504 C217.628198,98.302164 213.40941,93.5034037 205.77261,93.5034037" id="path120" fill="#EE3439" fill-rule="nonzero"></path>
                    <path d="M310.628173,53.2771327 L310.628173,31.9211772 C310.628173,31.9211772 310.72827,29.6513341 310.734158,29.409924 L310.681165,29.409924 C310.687054,29.4128681 310.687054,29.4128681 310.687054,29.4187561 C310.687054,29.5600693 309.544772,31.9800577 309.544772,31.9800577 L297.374174,53.2771327 L294.589126,53.2771327 L294.589126,26.2392094 L296.91785,26.2392094 L296.91785,47.6334372 C296.91785,47.6334372 296.803033,49.8826722 296.779481,50.2271231 C297.120987,49.273259 297.512543,48.3988837 298.001251,47.5716127 L310.171849,26.2392094 L312.959841,26.2392094 L312.959841,53.2771327 L310.628173,53.2771327 Z" id="path124" fill="#5D5855"></path>
                    <path d="M161.903697,8.59419705 L160.923337,8.59419705 L158.897848,14.6765522 C158.809527,14.9562345 158.700598,15.3507339 158.700598,15.5214873 L158.624054,15.5214873 C158.624054,15.3507339 158.544565,14.9562345 158.456244,14.6765522 L156.463139,8.59419705 L155.482779,8.59419705 L153.445514,16.7314815 L154.319889,16.7314815 L155.883166,10.3135075 C155.959711,9.98966478 156.003872,9.63638181 156.003872,9.48329252 L156.06864,9.48329252 C156.06864,9.63638181 156.156961,9.98966478 156.262946,10.3135075 L158.179506,16.2692696 L159.156922,16.2692696 L161.167691,10.3135075 C161.258956,10.019105 161.35022,9.58927742 161.35022,9.48329252 L161.429709,9.48329252 C161.429709,9.58927742 161.459149,10.0043849 161.535694,10.3135075 L163.113691,16.7314815 L163.940962,16.7314815 L161.903697,8.59419705 Z" id="path128" fill="#5D5855"></path>
                    <path d="M175.356418,8.59419705 L174.373114,8.59419705 L172.350569,14.6765522 C172.259304,14.9562345 172.150375,15.3507339 172.150375,15.5214873 L172.073831,15.5214873 C172.073831,15.3507339 171.997286,14.9562345 171.906021,14.6765522 L169.91586,8.59419705 L168.9355,8.59419705 L166.898235,16.7314815 L167.769666,16.7314815 L169.335888,10.3135075 C169.412432,9.98966478 169.453649,9.63638181 169.453649,9.48329252 L169.518417,9.48329252 C169.518417,9.63638181 169.606738,9.98966478 169.715667,10.3135075 L171.632227,16.2692696 L172.615531,16.2692696 L174.620412,10.3135075 C174.714621,10.019105 174.805886,9.58927742 174.805886,9.48329252 L174.88243,9.48329252 C174.88243,9.58927742 174.914814,10.0043849 174.991359,10.3135075 L176.566412,16.7314815 L177.393683,16.7314815 L175.356418,8.59419705 Z" id="path132" fill="#5D5855"></path>
                    <path d="M188.795008,8.59419705 L187.811704,8.59419705 L185.789159,14.6765522 C185.697894,14.9562345 185.591909,15.3507339 185.591909,15.5214873 L185.515364,15.5214873 C185.515364,15.3507339 185.43882,14.9562345 185.344611,14.6765522 L183.35445,8.59419705 L182.37409,8.59419705 L180.333881,16.7314815 L181.208256,16.7314815 L182.771533,10.3135075 C182.848078,9.98966478 182.892238,9.63638181 182.892238,9.48329252 L182.957007,9.48329252 C182.957007,9.63638181 183.045328,9.98966478 183.154257,10.3135075 L185.067873,16.2692696 L186.048233,16.2692696 L188.059002,10.3135075 C188.153211,10.019105 188.241531,9.58927742 188.241531,9.48329252 L188.32102,9.48329252 C188.32102,9.58927742 188.35046,10.0043849 188.427005,10.3135075 L190.005002,16.7314815 L190.832273,16.7314815 L188.795008,8.59419705 Z" id="path136" fill="#5D5855"></path>
                    <path d="M194.216724,8.50146027 C193.848721,8.50146027 193.571983,8.74875835 193.571983,9.14620169 C193.571983,9.52892491 193.848721,9.77327896 194.216724,9.77327896 C194.572951,9.77327896 194.876185,9.56130918 194.876185,9.14620169 C194.876185,8.74875835 194.599447,8.50146027 194.216724,8.50146027" id="path140" fill="#5D5855"></path>
                    <path d="M200.97591,8.44051896 C200.437154,8.44051896 199.810077,8.5170636 198.570642,8.84090632 L198.767892,9.63873703 C200.083871,9.27073394 200.531363,9.19124527 201.037735,9.19124527 C202.032815,9.19124527 202.736437,9.62107288 202.736437,10.5719929 C202.736437,11.3963198 202.368434,11.7525468 201.249705,12.1823744 L200.01027,12.6710825 C199.135895,13.0096454 198.629523,13.560178 198.629523,14.4345533 C198.629523,15.9948865 199.733532,16.8839819 201.343913,16.8839819 C201.756077,16.8839819 202.521523,16.8221574 203.28697,16.6867323 L203.11916,15.8565173 C202.10936,16.0890953 201.741357,16.1332556 201.296809,16.1332556 C200.316449,16.1332556 199.503898,15.6887079 199.503898,14.5699785 C199.503898,13.8339723 199.765916,13.6484987 200.928806,13.1774548 L202.230065,12.6534184 C203.010231,12.3354637 203.578428,11.7054424 203.578428,10.7545224 C203.578428,9.19124527 202.521523,8.44051896 200.97591,8.44051896" id="path144" fill="#5D5855"></path>
                    <path d="M211.00738,16.1008714 C210.395023,16.1008714 209.81505,15.9183418 208.572672,15.3207048 L208.572672,9.55924836 C209.491208,9.23834967 210.135949,9.19124527 210.595217,9.19124527 C211.896476,9.19124527 213.021093,9.92725146 213.021093,12.7800114 C213.021093,15.4119696 212.267423,16.1008714 211.00738,16.1008714 M210.701202,8.44051896 C210.029964,8.44051896 209.385223,8.54944787 208.572672,8.8261862 L208.572672,5.22269991 L207.730681,5.22269991 L207.730681,16.7308927 L208.572672,16.7308927 L208.572672,16.0390468 L208.649216,16.0390468 C209.841547,16.6690681 210.551056,16.8839819 211.148693,16.8839819 C212.87978,16.8839819 213.921965,15.8889016 213.921965,12.7623473 C213.921965,9.52980812 212.467617,8.44051896 210.701202,8.44051896" id="path148" fill="#5D5855" fill-rule="nonzero"></path>
                    <path d="M222.638339,15.7802671 C221.902333,16.0246211 221.151606,16.13355 220.659954,16.13355 C219.423464,16.13355 218.195806,15.5506331 218.195806,12.5477279 C218.195806,9.77445657 219.023076,9.20920382 220.233071,9.20920382 C220.739443,9.20920382 221.231095,9.31518871 222.638339,10.0040905 L222.638339,15.7802671 Z M222.653059,8.59390265 L222.653059,9.28280444 L222.576514,9.28280444 C221.32236,8.6115668 220.633458,8.44081336 220.097646,8.44081336 C218.593249,8.44081336 217.29199,9.1002749 217.29199,12.5477279 C217.29199,16.1011658 218.899427,16.8842763 220.677618,16.8842763 C221.151606,16.8842763 221.855228,16.7753474 222.653059,16.5015531 L222.653059,20.3346734 L223.49505,20.5172029 L223.49505,8.59390265 L222.653059,8.59390265 Z" id="path152" fill="#5D5855" fill-rule="nonzero"></path>
                    <path d="M231.142743,19.6104433 C230.895445,19.6752118 230.654035,19.701708 230.468562,19.701708 C229.656011,19.701708 229.164359,19.3513691 229.164359,18.2326397 L229.164359,16.7311871 L231.248728,16.7311871 L231.248728,15.9834048 L229.164359,15.9834048 L229.164359,8.59390265 L228.325311,8.59390265 L228.325311,15.9834048 L227.159478,15.9834048 L227.159478,16.7311871 L228.325311,16.7311871 L228.325311,17.9235171 C228.325311,19.5486187 229.061318,20.5172029 230.57749,20.5172029 C230.712916,20.5172029 231.022038,20.4995387 231.219288,20.4377142 L231.142743,19.6104433 Z" id="path156" fill="#5D5855"></path>
                    <path d="M237.929015,15.9024441 C237.790645,15.9495485 237.66994,15.9819328 237.528627,15.9819328 C237.022255,15.9819328 236.595371,15.8111793 235.506082,15.0781172 L235.506082,8.59537466 L234.667035,8.59537466 L234.667035,16.729715 L235.506082,16.729715 L235.506082,15.8258994 L235.588515,15.8258994 C236.810285,16.7768194 237.210673,16.8857484 237.711157,16.8857484 C237.778869,16.8857484 237.943735,16.8680842 238.067384,16.8239238 L237.929015,15.9024441 Z" id="path160" fill="#5D5855"></path>
                    <path d="M245.60497,12.2706952 L242.251726,11.9174122 C241.869003,11.5523531 241.74241,11.0459809 241.74241,10.586713 C241.74241,9.55924836 242.128077,9.19124527 243.214422,9.19124527 C243.65897,9.19124527 244.471521,9.39143895 245.60497,9.86837096 L245.60497,12.2706952 Z M245.713899,8.59360825 L245.634411,9.22362954 L245.56081,9.22362954 C244.059357,8.56122397 243.458776,8.44051896 242.864083,8.44051896 C241.636425,8.44051896 240.888643,9.0999805 240.888643,10.5101684 C240.888643,11.7643229 241.636425,12.5209373 242.587345,12.6239781 L245.60497,12.962541 L245.60497,15.2441602 C245.60497,15.8417972 245.298792,16.1008714 244.59517,16.1008714 C243.982813,16.1008714 242.755154,15.8889016 241.654089,15.5650589 L241.48628,16.3481694 C242.893524,16.7308927 243.938652,16.8839819 244.671715,16.8839819 C246.067182,16.8839819 246.435185,16.2863449 246.435185,15.4001935 L246.435185,8.59360825 L245.713899,8.59360825 Z" id="path164" fill="#5D5855" fill-rule="nonzero"></path>
                    <path d="M253.130781,13.5277937 L255.244591,9.80654644 C255.42712,9.48270372 255.533105,9.39143895 255.792179,9.39143895 C255.901108,9.39143895 256.010037,9.40615908 256.071862,9.42382322 L256.071862,8.59360825 C255.945268,8.57888812 255.842228,8.56122397 255.718579,8.56122397 C255.197486,8.56122397 254.923692,8.72020131 254.614569,9.25306979 L252.55964,12.9007165 L251.228941,11.4728645 L251.228941,8.59360825 L250.398726,8.59360825 L250.398726,20.3343789 L251.228941,20.5169085 L251.228941,12.5032731 L251.290765,12.5032731 C251.476239,12.7800114 251.735313,13.1480145 251.994387,13.439473 L255.153326,16.7603329 L256.086582,16.6867323 L253.130781,13.5277937 Z" id="path168" fill="#5D5855"></path>
                    <path d="M261.571005,8.44051896 C260.68191,8.44051896 260.299187,8.8732906 260.299187,9.84776279 L260.299187,15.9831104 L259.136297,15.9831104 L259.136297,16.7308927 L260.299187,16.7308927 L260.299187,18.5826842 L261.141178,18.7681578 L261.141178,16.7308927 L263.59355,16.7308927 L263.59355,15.9831104 L261.141178,15.9831104 L261.141178,9.75944205 C261.141178,9.3619987 261.341371,9.23834967 261.679934,9.23834967 C261.924288,9.23834967 262.289347,9.25306979 263.59355,9.81832254 L263.779024,9.05582013 C262.368836,8.48467933 262.000833,8.44051896 261.571005,8.44051896" id="path172" fill="#5D5855"></path>
                    <path d="M267.547081,16.7308927 L268.389072,16.7308927 L268.389072,8.59360825 L267.547081,8.59360825 L267.547081,16.7308927 Z M267.976909,18.7681578 C267.605962,18.7681578 267.379272,18.9830716 267.379272,19.3510747 C267.379272,19.7190778 267.594186,19.9339916 267.976909,19.9339916 C268.309584,19.9339916 268.574546,19.748518 268.574546,19.3510747 C268.574546,18.9830716 268.344912,18.7681578 267.976909,18.7681578 Z" id="path174" fill="#5D5855" fill-rule="nonzero"></path>
                    <path d="M276.062084,16.1485646 C274.578296,16.1485646 273.65976,15.4302225 273.65976,12.6540072 C273.65976,9.98966478 274.516471,9.17711395 276.062084,9.17711395 C277.598865,9.17711395 278.440856,9.97200063 278.440856,12.6540072 C278.440856,15.5214873 277.428111,16.1485646 276.062084,16.1485646 M276.062084,8.44110776 C274.027763,8.44110776 272.755944,9.55983717 272.755944,12.6540072 C272.755944,15.842386 274.104308,16.8845707 276.062084,16.8845707 C277.919764,16.8845707 279.344672,15.9336508 279.344672,12.6540072 C279.344672,9.54511704 278.058133,8.44110776 276.062084,8.44110776" id="path178" fill="#5D5855" fill-rule="nonzero"></path>
                    <path d="M287.971547,8.59419705 L287.971547,14.9562345 C287.971547,15.7481772 287.800794,16.0720199 286.714449,16.0720199 C285.884234,16.0720199 284.950978,15.8247218 283.861689,15.2918534 L283.861689,8.59419705 L283.022642,8.59419705 L283.022642,16.7314815 L283.861689,16.7314815 L283.861689,16.0101954 L283.944121,16.0101954 C285.23066,16.6225525 286.087371,16.8845707 286.991187,16.8845707 C288.092252,16.8845707 288.813538,16.5165677 288.813538,15.2594691 L288.813538,8.59419705 L287.971547,8.59419705 Z" id="path182" fill="#5D5855"></path>
                    <path d="M293.132717,8.50146027 C292.764714,8.50146027 292.487976,8.74875835 292.487976,9.14620169 C292.487976,9.52892491 292.764714,9.77327896 293.132717,9.77327896 C293.488944,9.77327896 293.792179,9.56130918 293.792179,9.14620169 C293.792179,8.74875835 293.521328,8.50146027 293.132717,8.50146027" id="path186" fill="#5D5855"></path>
                    <path d="M302.385493,15.7802671 C301.65243,16.0246211 300.901704,16.13355 300.410052,16.13355 C299.173562,16.13355 297.945903,15.5506331 297.945903,12.5477279 C297.945903,9.77445657 298.773174,9.20920382 299.983168,9.20920382 C300.489541,9.20920382 300.978249,9.31518871 302.385493,10.0040905 L302.385493,15.7802671 Z M302.400213,8.59390265 L302.400213,9.28280444 L302.326612,9.28280444 C301.069513,8.6115668 300.383556,8.44081336 299.844799,8.44081336 C298.340403,8.44081336 297.042088,9.1002749 297.042088,12.5477279 C297.042088,16.1011658 298.649525,16.8842763 300.427716,16.8842763 C300.901704,16.8842763 301.605326,16.7753474 302.400213,16.5015531 L302.400213,20.3346734 L303.242204,20.5172029 L303.242204,8.59390265 L302.400213,8.59390265 Z" id="path190" fill="#5D5855" fill-rule="nonzero"></path>
                    <path d="M312.179968,13.9570325 C312.179968,15.4732053 311.476347,16.1797712 310.278128,16.1797712 C308.944485,16.1797712 308.120158,15.4113808 308.058334,13.176866 C309.418473,13.2092502 312.165248,13.2534106 312.165248,13.2534106 C312.179968,13.5595892 312.179968,13.895208 312.179968,13.9570325 M310.339953,8.43993015 C308.108382,8.43993015 307.136854,9.74413312 307.136854,12.4555799 C307.136854,15.5055896 308.258527,16.8833931 310.278128,16.8833931 C311.929726,16.8833931 313.004295,15.9648574 313.004295,13.8804879 C313.004295,13.650854 312.992519,13.0708811 312.977799,12.6086692 C312.977799,12.6086692 309.680491,12.5321246 308.043614,12.5056283 C308.043614,9.96199095 308.79434,9.22598476 310.354673,9.22598476 C310.693236,9.22598476 311.12012,9.25248098 312.653956,9.72941299 L312.82471,8.92863826 C311.476347,8.56357919 310.875765,8.43993015 310.339953,8.43993015" id="path194" fill="#5D5855" fill-rule="nonzero"></path>
                </g>
            </g>
        </g>
    </g>
</svg>