<?xml version="1.0" encoding="UTF-8"?>
<svg width="73px" height="80px" viewBox="0 0 73 80" version="1.1" xmlns="http://www.w3.org/2000/svg" xmlns:xlink="http://www.w3.org/1999/xlink">
    <!-- Generator: Sketch 52.4 (67378) - http://www.bohemiancoding.com/sketch -->
    <title>1</title>
    <desc>Created with Sketch.</desc>
    <g id="Page-1" stroke="none" stroke-width="1" fill="none" fill-rule="evenodd">
        <g id="wahlkreise_gen" transform="translate(-262.000000, -23.000000)" fill="#000000">
            <g id="1" transform="translate(261.000000, 23.000000)">
                <polyline id="Path" points="46 6 51 8 52 8 55 11 55 12 56 12 56 13 56 14 57 14 58 16 59 16 59 17 60 17 61 17 62 17 63 15 63 12 64 11 66 12 68 14 69 16 69 17 69 18 69 19 70 19 70 20 70 21 71 22 71 23 73 25 74 25 74 26 74 27 74 28 74 29 73 31 73 32 73 31 70 31 66 33 63 35 59 38 57 39 53 42 50 46 48 47 47 48 46 51 44 56 43 57 40 59 39 59 38 59 38 60 37 64 38 64 38 65 38 66 39 67 38 69 33 71 30 71 29 70 27 70 27 71 25 73 26 73 26 76 26 78 24 77 23 78 22 79 19 80 18 79 17 79 15 76 15 75 16 75 17 75 17 73 16 72 15 71 13 70 12 70 12 71 13 71 13 73 9 72 9 71 9 70 11 67 13 66 15 66 16 65 16 62 17 61 18 59 19 58 20 58 20 57 20 56 18 52 17 51 17 48 18 48 18 47 19 46 19 43 19 42 17 41 16 41 15 41 15 40 15 39 15 37 14 35 12 33 12 31 10 30 10 29 9 28 9 26 8 25 6 25 5 25 4 25 3 25 1 25 1 24 0 24 1 24 2 23 2 21 1 19 2 17 3 16 4 15 5 13 3 9 4 6 4 4 4 2 6 2 7 2 11 4 14 5 14 6 13 7 14 8 14 10 20 10 22 10 24 9 24 8 24 7 25 6 26 6 27 6 27 7 28 8 29 7 32 6 33 6 39 0 40 0 43 1 42 2 41 4 43 5 44 5 46 6"></polyline>
            </g>
        </g>
    </g>
</svg>