<?xml version="1.0" encoding="UTF-8"?>
<svg width="63px" height="60px" viewBox="0 0 63 60" version="1.1" xmlns="http://www.w3.org/2000/svg" xmlns:xlink="http://www.w3.org/1999/xlink">
    <!-- Generator: Sketch 52.4 (67378) - http://www.bohemiancoding.com/sketch -->
    <title>10</title>
    <desc>Created with Sketch.</desc>
    <g id="Page-1" stroke="none" stroke-width="1" fill="none" fill-rule="evenodd">
        <g id="wahlkreise_gen" transform="translate(-345.000000, -160.000000)" fill="#000000">
            <g id="10" transform="translate(345.000000, 160.000000)">
                <polyline id="Path" points="55 15 56 15 57 15 59 15 60 15 60 16 62 17 63 21 63 22 62 22 61 24 61 26 60 29 60 30 61 30 60 30 60 31 60 32 59 32 56 33 54 32 53 32 53 33 53 36 52 39 49 42 48 43 48 44 43 46 40 47 38 48 38 49 37 52 36 58 36 60 35 60 34 60 29 59 28 59 28 58 27 58 26 57 24 56 22 55 20 54 19 52 18 52 17 52 16 52 15 52 13 51 14 50 13 49 12 49 8 45 7 44 7 43 8 43 7 43 2 40 1 34 0 34 1 33 1 32 2 32 4 32 4 30 4 29 5 26 5 27 6 26 6 25 4 22 3 21 2 21 2 20 2 19 3 19 9 17 10 17 11 16 12 16 13 16 13 17 13 18 13 19 18 20 19 20 20 20 23 23 24 24 24 25 25 25 27 25 27 24 28 24 28 23 30 18 31 15 34 14 35 13 36 14 36 15 35 15 35 16 37 17 41 18 42 18 42 16 41 14 42 8 43 6 42 5 43 5 44 4 46 2 45 1 45 0 46 1 47 1 48 2 48 4 47 7 48 9 51 13 52 14 54 15 55 15"></polyline>
            </g>
        </g>
    </g>
</svg>