<?xml version="1.0" encoding="UTF-8"?>
<svg width="33px" height="38px" viewBox="0 0 33 38" version="1.1" xmlns="http://www.w3.org/2000/svg" xmlns:xlink="http://www.w3.org/1999/xlink">
    <!-- Generator: Sketch 52.4 (67378) - http://www.bohemiancoding.com/sketch -->
    <title>100</title>
    <desc>Created with Sketch.</desc>
    <g id="Page-1" stroke="none" stroke-width="1" fill="none" fill-rule="evenodd">
        <g id="wahlkreise_gen" transform="translate(-92.000000, -506.000000)" fill="#000000">
            <g id="100" transform="translate(92.000000, 506.000000)">
                <polyline id="Path" points="23 2 23 3 24 6 24 10 25 12 26 12 26 11 27 11 27 10 29 11 28 14 28 15 27 15 27 16 26 17 24 20 22 21 22 22 21 22 21 23 22 23 23 24 24 24 25 24 27 24 28 25 29 26 30 27 31 26 32 26 33 27 33 28 33 29 32 29 29 32 28 32 25 33 24 33 23 32 22 31 21 30 20 30 20 31 19 32 19 33 19 34 17 37 16 37 13 38 12 36 11 35 12 34 12 33 12 31 11 28 9 27 8 26 9 25 9 24 8 23 7 22 6 22 6 18 8 17 9 15 9 13 9 12 6 11 6 10 7 9 7 8 5 8 4 8 3 8 3 9 2 9 0 8 1 5 1 4 3 3 4 3 8 2 9 2 10 3 11 3 11 4 12 5 13 5 15 4 14 3 14 1 15 1 15 0 15 1 18 0 19 0 20 0 22 0 23 2"></polyline>
            </g>
        </g>
    </g>
</svg>