<?xml version="1.0" encoding="UTF-8"?>
<svg width="16px" height="19px" viewBox="0 0 16 19" version="1.1" xmlns="http://www.w3.org/2000/svg" xmlns:xlink="http://www.w3.org/1999/xlink">
    <!-- Generator: Sketch 52.4 (67378) - http://www.bohemiancoding.com/sketch -->
    <title>101</title>
    <desc>Created with Sketch.</desc>
    <g id="Page-1" stroke="none" stroke-width="1" fill="none" fill-rule="evenodd">
        <g id="wahlkreise_gen" transform="translate(-85.000000, -514.000000)" fill="#000000">
            <g id="101" transform="translate(85.000000, 514.000000)">
                <polyline id="Path" points="14 1 13 2 13 3 16 4 16 5 16 7 15 9 13 10 13 14 14 14 15 15 16 16 16 17 15 18 13 18 9 19 6 19 5 18 7 17 7 16 7 15 6 14 5 14 5 13 5 12 5 10 6 10 6 9 5 9 5 8 4 7 3 6 1 5 0 4 0 3 4 3 6 3 7 2 7 0 9 1 10 1 10 0 11 0 12 0 14 0 14 1"></polyline>
            </g>
        </g>
    </g>
</svg>