<?xml version="1.0" encoding="UTF-8"?>
<svg width="30px" height="16px" viewBox="0 0 30 16" version="1.1" xmlns="http://www.w3.org/2000/svg" xmlns:xlink="http://www.w3.org/1999/xlink">
    <!-- Generator: Sketch 52.4 (67378) - http://www.bohemiancoding.com/sketch -->
    <title>105</title>
    <desc>Created with Sketch.</desc>
    <g id="Page-1" stroke="none" stroke-width="1" fill="none" fill-rule="evenodd">
        <g id="wahlkreise_gen" transform="translate(-77.000000, -477.000000)" fill="#000000">
            <g id="105" transform="translate(77.000000, 477.000000)">
                <polyline id="Path" points="30 9 29 10 27 10 26 10 25 10 25 11 24 13 22 15 21 16 20 16 17 12 17 11 16 11 15 11 14 11 12 12 11 13 9 14 8 14 0 12 1 6 1 5 1 3 3 3 9 1 10 2 11 3 14 4 15 3 16 2 18 2 19 2 20 2 25 1 26 0 27 0 29 0 29 1 30 2 30 3 30 7 30 9"></polyline>
            </g>
        </g>
    </g>
</svg>