<?xml version="1.0" encoding="UTF-8"?>
<svg width="19px" height="18px" viewBox="0 0 19 18" version="1.1" xmlns="http://www.w3.org/2000/svg" xmlns:xlink="http://www.w3.org/1999/xlink">
    <!-- Generator: Sketch 52.4 (67378) - http://www.bohemiancoding.com/sketch -->
    <title>106</title>
    <desc>Created with Sketch.</desc>
    <g id="Page-1" stroke="none" stroke-width="1" fill="none" fill-rule="evenodd">
        <g id="wahlkreise_gen" transform="translate(-69.000000, -480.000000)" fill="#000000">
            <g id="106" transform="translate(69.000000, 480.000000)">
                <polyline id="Path" points="9 0 9 2 9 3 8 9 16 11 17 11 19 10 19 12 19 15 17 15 15 15 15 14 14 14 14 17 13 18 9 18 5 17 4 16 3 16 2 16 0 15 0 14 1 14 1 13 2 13 2 12 1 11 0 11 0 10 0 9 1 9 1 8 2 8 2 7 3 6 3 5 3 4 3 3 2 3 2 2 2 1 4 0 5 0 6 1 8 1 9 0"></polyline>
            </g>
        </g>
    </g>
</svg>