<?xml version="1.0" encoding="UTF-8"?>
<svg width="29px" height="28px" viewBox="0 0 29 28" version="1.1" xmlns="http://www.w3.org/2000/svg" xmlns:xlink="http://www.w3.org/1999/xlink">
    <!-- Generator: Sketch 52.4 (67378) - http://www.bohemiancoding.com/sketch -->
    <title>108</title>
    <desc>Created with Sketch.</desc>
    <g id="Page-1" stroke="none" stroke-width="1" fill="none" fill-rule="evenodd">
        <g id="wahlkreise_gen" transform="translate(-54.000000, -495.000000)" fill="#000000">
            <g id="108" transform="translate(54.000000, 495.000000)">
                <polyline id="Path" points="17 1 17 4 17 5 17 6 18 6 18 7 19 7 20 7 21 7 21 6 21 7 22 7 23 7 23 8 23 9 22 10 22 11 23 12 24 12 25 12 25 11 25 10 26 10 27 10 28 10 28 11 27 11 27 12 27 13 27 14 28 15 29 16 29 17 29 18 27 20 26 20 24 21 25 22 25 23 24 23 24 24 23 25 23 24 23 23 22 23 22 22 21 22 20 22 19 22 19 23 17 25 15 28 11 28 9 27 8 27 5 27 5 28 4 28 3 27 2 25 2 24 1 22 0 22 0 19 3 17 4 15 5 15 5 13 6 11 7 11 7 12 8 11 8 9 9 9 9 8 8 7 9 5 10 3 10 2 10 1 10 0 14 0 15 0 17 1"></polyline>
            </g>
        </g>
    </g>
</svg>