<?xml version="1.0" encoding="UTF-8"?>
<svg width="25px" height="45px" viewBox="0 0 25 45" version="1.1" xmlns="http://www.w3.org/2000/svg" xmlns:xlink="http://www.w3.org/1999/xlink">
    <!-- Generator: Sketch 52.4 (67378) - http://www.bohemiancoding.com/sketch -->
    <title>110</title>
    <desc>Created with Sketch.</desc>
    <g id="Page-1" stroke="none" stroke-width="1" fill="none" fill-rule="evenodd">
        <g id="wahlkreise_gen" transform="translate(-47.000000, -475.000000)" fill="#000000">
            <g id="110" transform="translate(47.000000, 474.000000)">
                <polyline id="Path" points="24 9 25 9 25 10 25 11 25 12 24 13 24 14 23 14 23 15 22 15 22 16 22 17 23 17 24 18 24 19 23 19 23 20 22 20 22 21 21 21 17 21 17 22 17 23 17 24 16 26 15 28 16 29 16 30 15 30 15 32 14 33 14 32 13 32 12 34 12 36 11 36 10 38 7 40 7 43 6 43 4 45 3 46 2 45 3 44 3 43 1 39 0 39 0 38 0 37 3 33 3 32 4 32 5 31 6 31 6 32 6 33 7 33 7 32 8 32 8 29 7 28 7 27 6 27 6 28 5 29 4 28 5 21 7 22 8 22 15 19 16 19 16 18 15 17 14 17 13 17 13 15 13 14 9 13 7 13 6 11 7 11 7 10 7 8 7 7 8 6 9 6 10 6 10 7 11 8 11 9 13 8 15 7 16 5 17 2 17 1 17 0 17 1 19 5 19 6 20 6 23 8 24 8 24 9"></polyline>
            </g>
        </g>
    </g>
</svg>