<?xml version="1.0" encoding="UTF-8"?>
<svg width="46px" height="32px" viewBox="0 0 46 32" version="1.1" xmlns="http://www.w3.org/2000/svg" xmlns:xlink="http://www.w3.org/1999/xlink">
    <!-- Generator: Sketch 52.4 (67378) - http://www.bohemiancoding.com/sketch -->
    <title>111</title>
    <desc>Created with Sketch.</desc>
    <g id="Page-1" stroke="none" stroke-width="1" fill="none" fill-rule="evenodd">
        <g id="wahlkreise_gen" transform="translate(-17.000000, -470.000000)" fill="#000000">
            <g id="111" transform="translate(17.000000, 470.000000)">
                <polyline id="Path" points="39 2 39 3 38 3 37 3 36 3 35 5 35 10 37 11 37 12 37 14 37 15 36 15 37 17 39 17 43 18 43 19 43 21 44 21 45 21 46 22 46 23 45 23 38 26 37 26 36 24 32 23 31 24 31 25 30 26 29 26 28 26 27 26 25 26 24 25 23 25 22 25 21 28 19 31 18 31 17 31 12 32 11 32 9 30 8 29 5 30 4 30 4 31 3 31 2 31 1 31 1 30 1 29 0 26 2 21 5 18 7 15 8 14 8 13 11 10 14 7 16 7 17 7 17 8 20 8 21 7 25 5 27 3 28 2 31 2 33 2 37 0 38 0 39 2"></polyline>
            </g>
        </g>
    </g>
</svg>