<?xml version="1.0" encoding="UTF-8"?>
<svg width="52px" height="45px" viewBox="0 0 52 45" version="1.1" xmlns="http://www.w3.org/2000/svg" xmlns:xlink="http://www.w3.org/1999/xlink">
    <!-- Generator: Sketch 52.4 (67378) - http://www.bohemiancoding.com/sketch -->
    <title>113</title>
    <desc>Created with Sketch.</desc>
    <g id="Page-1" stroke="none" stroke-width="1" fill="none" fill-rule="evenodd">
        <g id="wahlkreise_gen" transform="translate(-38.000000, -419.000000)" fill="#000000">
            <g id="113" transform="translate(38.000000, 419.000000)">
                <polyline id="Path" points="50 10 51 11 51 12 52 14 52 15 50 18 49 20 48 22 49 22 49 23 49 24 46 25 46 26 46 27 45 28 44 28 42 28 40 29 36 30 31 34 31 35 30 35 30 36 30 37 31 37 31 38 32 38 31 39 30 40 29 40 27 40 26 41 25 38 23 38 23 39 22 41 22 44 21 44 20 45 20 44 19 44 17 43 16 44 14 43 12 40 12 37 13 37 14 35 14 32 12 32 10 32 9 32 9 33 8 33 7 33 7 32 6 32 6 31 6 30 6 29 3 26 2 25 1 25 0 22 2 22 5 22 6 20 7 17 7 16 6 15 9 9 9 8 9 7 9 8 10 8 11 9 11 10 10 10 10 11 9 11 9 12 10 13 11 13 14 15 14 14 15 12 16 11 16 10 20 7 19 5 18 5 18 4 17 4 17 1 16 1 16 0 18 0 20 1 20 2 21 2 22 3 23 3 25 2 28 2 28 3 29 3 30 4 31 5 35 7 37 6 39 8 39 10 44 11 46 12 47 11 50 10"></polyline>
            </g>
        </g>
    </g>
</svg>