<?xml version="1.0" encoding="UTF-8"?>
<svg width="16px" height="15px" viewBox="0 0 16 15" version="1.1" xmlns="http://www.w3.org/2000/svg" xmlns:xlink="http://www.w3.org/1999/xlink">
    <!-- Generator: Sketch 52.4 (67378) - http://www.bohemiancoding.com/sketch -->
    <title>115</title>
    <desc>Created with Sketch.</desc>
    <g id="Page-1" stroke="none" stroke-width="1" fill="none" fill-rule="evenodd">
        <g id="wahlkreise_gen" transform="translate(-64.000000, -467.000000)" fill="#000000">
            <g id="115" transform="translate(64.000000, 467.000000)">
                <polyline id="Path" points="15 2 15 3 15 8 15 10 15 11 16 11 16 12 16 13 14 13 13 14 11 14 10 13 9 13 7 14 7 15 6 15 3 13 2 13 2 12 0 8 0 7 0 6 1 5 4 2 5 2 8 0 10 1 12 2 13 2 15 2"></polyline>
            </g>
        </g>
    </g>
</svg>