<?xml version="1.0" encoding="UTF-8"?>
<svg width="20px" height="20px" viewBox="0 0 20 20" version="1.1" xmlns="http://www.w3.org/2000/svg" xmlns:xlink="http://www.w3.org/1999/xlink">
    <!-- Generator: Sketch 52.4 (67378) - http://www.bohemiancoding.com/sketch -->
    <title>117</title>
    <desc>Created with Sketch.</desc>
    <g id="Page-1" stroke="none" stroke-width="1" fill="none" fill-rule="evenodd">
        <g id="wahlkreise_gen" transform="translate(-69.000000, -447.000000)" fill="#000000">
            <g id="117" transform="translate(69.000000, 447.000000)">
                <polyline id="Path" points="15 19 11 20 10 19 11 18 11 14 11 13 9 12 8 11 8 10 8 9 6 9 5 9 5 8 4 8 4 7 3 7 1 6 0 6 5 2 9 1 11 0 13 0 14 0 15 1 14 2 14 3 13 3 12 3 14 5 16 9 16 10 17 12 18 13 19 13 20 14 19 15 17 16 17 17 17 18 16 19 15 19"></polyline>
            </g>
        </g>
    </g>
</svg>