<?xml version="1.0" encoding="UTF-8"?>
<svg width="12px" height="14px" viewBox="0 0 12 14" version="1.1" xmlns="http://www.w3.org/2000/svg" xmlns:xlink="http://www.w3.org/1999/xlink">
    <!-- Generator: Sketch 52.4 (67378) - http://www.bohemiancoding.com/sketch -->
    <title>119</title>
    <desc>Created with Sketch.</desc>
    <g id="Page-1" stroke="none" stroke-width="1" fill="none" fill-rule="evenodd">
        <g id="wahlkreise_gen" transform="translate(-93.000000, -457.000000)" fill="#000000">
            <g id="119" transform="translate(93.000000, 457.000000)">
                <polyline id="Path" points="2 0 3 0 3 1 3 2 4 2 5 3 6 3 7 5 8 6 10 7 11 8 12 12 11 13 10 14 9 13 8 13 7 12 6 12 4 12 3 12 1 11 0 10 0 8 0 7 0 5 0 3 1 0 2 0"></polyline>
            </g>
        </g>
    </g>
</svg>