<?xml version="1.0" encoding="UTF-8"?>
<svg width="19px" height="16px" viewBox="0 0 19 16" version="1.1" xmlns="http://www.w3.org/2000/svg" xmlns:xlink="http://www.w3.org/1999/xlink">
    <!-- Generator: Sketch 52.4 (67378) - http://www.bohemiancoding.com/sketch -->
    <title>120</title>
    <desc>Created with Sketch.</desc>
    <g id="Page-1" stroke="none" stroke-width="1" fill="none" fill-rule="evenodd">
        <g id="wahlkreise_gen" transform="translate(-86.000000, -465.000000)" fill="#000000">
            <g id="120" transform="translate(86.000000, 465.000000)">
                <polyline id="Path" points="7 0 7 2 8 3 10 4 11 4 13 4 14 4 15 5 16 5 17 6 18 5 19 6 19 8 18 10 18 12 17 12 16 13 11 14 10 14 9 14 7 14 6 15 5 16 2 15 1 14 0 13 1 13 3 10 5 4 5 3 4 3 7 0"></polyline>
            </g>
        </g>
    </g>
</svg>