<?xml version="1.0" encoding="UTF-8"?>
<svg width="12px" height="20px" viewBox="0 0 12 20" version="1.1" xmlns="http://www.w3.org/2000/svg" xmlns:xlink="http://www.w3.org/1999/xlink">
    <!-- Generator: Sketch 52.4 (67378) - http://www.bohemiancoding.com/sketch -->
    <title>123</title>
    <desc>Created with Sketch.</desc>
    <g id="Page-1" stroke="none" stroke-width="1" fill="none" fill-rule="evenodd">
        <g id="wahlkreise_gen" transform="translate(-94.000000, -444.000000)" fill="#000000">
            <g id="123" transform="translate(94.000000, 444.000000)">
                <polyline id="Path" points="3 0 4 1 7 4 9 5 11 6 11 7 12 8 12 11 11 11 11 13 11 14 12 14 12 15 12 17 12 19 11 19 10 19 9 19 9 20 7 19 6 18 5 16 4 16 3 15 2 15 2 14 2 13 1 13 2 10 2 8 1 5 0 4 0 1 3 0"></polyline>
            </g>
        </g>
    </g>
</svg>