<?xml version="1.0" encoding="UTF-8"?>
<svg width="58px" height="43px" viewBox="0 0 58 43" version="1.1" xmlns="http://www.w3.org/2000/svg" xmlns:xlink="http://www.w3.org/1999/xlink">
    <!-- Generator: Sketch 52.4 (67378) - http://www.bohemiancoding.com/sketch -->
    <title>124</title>
    <desc>Created with Sketch.</desc>
    <g id="Page-1" stroke="none" stroke-width="1" fill="none" fill-rule="evenodd">
        <g id="wahlkreise_gen" transform="translate(-86.000000, -353.000000)" fill="#000000">
            <g id="124" transform="translate(86.000000, 353.000000)">
                <polyline id="Path" points="51 3 52 3 53 3 54 4 54 5 56 8 57 11 58 14 55 16 48 19 47 19 46 19 45 21 46 21 47 23 47 24 47 25 47 27 46 30 45 31 44 33 43 33 42 33 40 32 39 32 39 33 38 34 36 36 35 36 34 36 32 36 31 36 31 37 30 37 30 38 28 38 27 38 26 37 25 37 24 37 22 39 20 41 20 42 18 43 17 43 17 42 16 42 15 42 15 43 14 41 13 40 9 39 8 39 6 40 3 37 1 32 2 31 2 30 3 29 2 29 1 27 0 26 1 24 1 23 3 20 4 20 5 20 6 20 7 20 7 19 8 18 9 16 13 14 14 14 16 13 16 12 19 12 20 10 21 9 22 9 23 9 24 9 25 9 27 9 28 9 29 9 30 9 32 9 35 9 36 7 37 7 39 7 40 6 41 5 42 4 45 3 45 2 46 1 48 0 48 1 50 2 51 3"></polyline>
            </g>
        </g>
    </g>
</svg>