<?xml version="1.0" encoding="UTF-8"?>
<svg width="21px" height="39px" viewBox="0 0 21 39" version="1.1" xmlns="http://www.w3.org/2000/svg" xmlns:xlink="http://www.w3.org/1999/xlink">
    <!-- Generator: Sketch 52.4 (67378) - http://www.bohemiancoding.com/sketch -->
    <title>125</title>
    <desc>Created with Sketch.</desc>
    <g id="Page-1" stroke="none" stroke-width="1" fill="none" fill-rule="evenodd">
        <g id="wahlkreise_gen" transform="translate(-81.000000, -422.000000)" fill="#000000">
            <g id="125" transform="translate(81.000000, 422.000000)">
                <polyline id="Path" points="18 3 19 3 20 3 21 4 21 5 20 11 18 14 17 17 17 21 17 22 16 22 13 23 13 26 14 27 15 30 15 32 14 35 13 35 12 38 8 39 7 38 6 38 5 37 4 35 4 34 2 30 0 28 1 28 2 28 2 27 3 26 2 25 3 24 3 23 3 22 6 21 6 20 6 19 5 19 6 17 7 15 9 12 9 11 8 9 8 8 7 7 7 6 8 3 9 3 10 4 11 4 11 3 12 2 12 1 13 0 14 0 16 0 16 2 17 3 18 3"></polyline>
            </g>
        </g>
    </g>
</svg>