<?xml version="1.0" encoding="UTF-8"?>
<svg width="55px" height="63px" viewBox="0 0 55 63" version="1.1" xmlns="http://www.w3.org/2000/svg" xmlns:xlink="http://www.w3.org/1999/xlink">
    <!-- Generator: Sketch 52.4 (67378) - http://www.bohemiancoding.com/sketch -->
    <title>127</title>
    <desc>Created with Sketch.</desc>
    <g id="Page-1" stroke="none" stroke-width="1" fill="none" fill-rule="evenodd">
        <g id="wahlkreise_gen" transform="translate(-100.000000, -378.000000)" fill="#000000">
            <g id="127" transform="translate(100.000000, 378.000000)">
                <polyline id="Path" points="40 8 40 9 39 9 40 11 41 14 39 16 38 17 38 19 37 19 37 20 38 22 37 23 36 23 34 25 35 27 37 30 37 32 37 33 39 33 41 38 42 39 44 40 45 40 47 42 48 42 50 44 52 48 53 51 53 52 54 52 55 53 55 54 52 57 51 56 45 56 44 57 43 58 40 60 39 60 37 57 36 55 33 53 30 55 30 56 29 56 29 57 30 57 31 59 32 59 32 60 31 61 30 62 29 62 28 62 28 63 26 61 23 58 21 58 20 57 19 57 19 56 20 56 20 55 21 54 21 53 21 52 20 52 19 51 18 51 17 50 16 49 16 48 17 47 17 46 17 45 16 45 15 44 13 42 12 42 11 42 9 42 8 41 7 41 6 40 5 40 3 38 3 37 2 37 0 33 0 32 1 31 2 30 2 28 3 25 3 22 3 21 2 20 1 20 0 18 1 18 1 17 2 17 3 17 3 18 4 18 6 17 6 16 8 14 10 12 11 12 12 12 13 13 14 13 16 13 16 12 17 12 17 11 18 11 20 11 21 11 22 11 24 9 25 8 25 7 26 7 28 8 29 8 30 8 31 6 32 5 33 2 33 0 34 0 34 1 35 1 39 2 40 4 41 7 40 8"></polyline>
            </g>
        </g>
    </g>
</svg>