<?xml version="1.0" encoding="UTF-8"?>
<svg width="47px" height="57px" viewBox="0 0 47 57" version="1.1" xmlns="http://www.w3.org/2000/svg" xmlns:xlink="http://www.w3.org/1999/xlink">
    <!-- Generator: Sketch 52.4 (67378) - http://www.bohemiancoding.com/sketch -->
    <title>128</title>
    <desc>Created with Sketch.</desc>
    <g id="Page-1" stroke="none" stroke-width="1" fill="none" fill-rule="evenodd">
        <g id="wahlkreise_gen" transform="translate(-131.000000, -336.000000)" fill="#000000">
            <g id="128" transform="translate(131.000000, 336.000000)">
                <polyline id="Path" points="15 0 16 0 18 1 21 2 22 4 23 5 23 6 23 7 23 9 31 13 34 14 34 13 35 13 37 12 38 12 39 13 40 14 41 14 42 18 43 19 44 21 42 22 41 22 41 23 40 24 41 24 42 26 40 27 40 28 40 29 40 30 40 32 40 33 39 34 38 34 38 35 38 37 39 38 40 39 41 39 43 39 44 39 45 39 46 39 47 39 46 42 46 43 46 47 45 47 44 47 43 47 38 50 37 50 36 51 35 50 31 49 30 48 29 48 28 48 28 49 27 49 25 50 24 52 24 53 22 57 20 57 13 53 13 54 12 54 11 55 10 55 10 56 9 53 8 51 9 51 9 50 10 49 9 46 8 44 4 43 3 43 3 42 2 42 2 41 2 40 1 38 0 38 1 36 2 36 3 36 10 33 13 31 12 28 11 25 9 22 9 21 8 20 7 20 6 20 5 19 3 18 3 17 4 16 5 16 5 15 6 15 8 13 9 13 10 13 11 13 12 12 14 7 15 7 13 6 12 5 13 2 14 1 15 0"></polyline>
            </g>
        </g>
    </g>
</svg>