<?xml version="1.0" encoding="UTF-8"?>
<svg width="110px" height="120px" viewBox="0 0 110 120" version="1.1" xmlns="http://www.w3.org/2000/svg" xmlns:xlink="http://www.w3.org/1999/xlink">
    <!-- Generator: Sketch 52.4 (67378) - http://www.bohemiancoding.com/sketch -->
    <title>13</title>
    <desc>Created with Sketch.</desc>
    <g id="Page-1" stroke="none" stroke-width="1" fill="none" fill-rule="evenodd">
        <g id="wahlkreise_gen" transform="translate(-408.000000, -111.000000)" fill="#000000">
            <g id="13" transform="translate(408.000000, 111.000000)">
                <polyline id="Path" points="39 24 37 30 36 30 36 29 36 28 36 27 36 24 36 25 35 26 35 28 35 29 33 29 32 29 31 28 31 27 31 26 31 25 31 24 32 23 33 23 36 21 37 21 38 21 39 21 40 21 40 22 40 23 40 24 39 24"></polyline>
                <polyline id="Path" points="76 3 79 5 79 6 78 8 78 9 77 11 78 13 78 16 77 17 76 17 76 18 78 21 80 24 79 26 79 27 76 27 75 28 74 28 73 26 73 25 71 25 69 27 69 28 69 29 68 29 67 31 64 31 63 31 63 32 63 34 63 37 63 38 62 38 61 40 61 42 61 45 61 46 62 46 63 46 64 46 64 47 65 49 65 50 64 50 64 51 64 52 64 53 65 53 71 57 73 58 73 57 75 56 78 56 79 56 83 59 83 60 83 61 82 62 82 63 83 64 84 66 87 68 91 69 92 69 93 69 96 68 96 70 96 71 97 73 97 74 98 74 102 76 105 78 104 79 104 83 104 84 105 86 106 89 107 89 109 89 110 89 108 91 107 92 106 94 105 96 105 99 103 102 105 105 106 106 107 106 108 107 109 107 109 108 108 110 106 109 105 109 104 109 103 109 102 109 101 108 100 107 100 106 100 105 99 105 97 106 91 107 88 107 88 105 88 104 87 104 86 104 85 104 86 105 87 107 85 108 84 108 83 109 84 110 84 111 84 113 82 114 80 114 78 117 75 117 74 117 73 119 71 120 68 120 69 119 71 118 71 117 70 115 69 115 68 115 68 116 69 116 69 117 67 117 66 117 65 115 66 115 65 114 65 113 64 113 63 113 62 113 61 113 60 113 58 109 58 108 58 107 59 106 58 105 57 103 56 102 55 102 53 100 52 97 53 95 53 94 54 94 54 93 53 93 51 93 50 92 49 91 47 92 46 93 47 94 46 96 44 96 40 95 41 92 41 90 41 89 40 87 40 86 39 83 39 82 40 82 38 80 40 79 41 79 42 75 42 73 40 66 40 65 39 65 40 65 40 64 41 60 42 58 41 58 41 56 40 56 36 55 35 54 34 53 32 53 31 54 30 54 27 55 24 56 19 54 14 53 13 52 13 51 12 50 11 50 10 51 9 51 8 51 8 50 8 49 8 45 9 45 9 44 8 44 5 43 3 43 2 44 1 44 1 43 2 42 3 41 4 39 6 38 6 37 6 35 6 33 6 32 5 32 4 32 3 32 2 33 1 32 1 30 1 28 0 27 1 27 3 25 4 25 4 24 5 24 9 23 16 23 19 27 21 32 22 33 23 33 24 33 26 32 29 32 31 33 33 34 33 35 34 35 36 36 37 36 39 33 39 29 40 25 41 20 42 20 42 19 42 20 43 20 45 20 46 19 49 14 49 13 49 12 48 11 46 12 46 13 45 14 44 15 43 16 42 15 42 14 44 12 44 11 45 11 46 11 46 10 47 10 48 10 48 9 49 9 49 8 50 8 50 7 52 5 53 4 53 3 54 3 55 3 59 3 60 3 61 4 62 4 63 4 64 4 65 4 66 4 67 4 69 3 75 1 76 1 77 0 77 1 76 2 76 3"></polyline>
            </g>
        </g>
    </g>
</svg>