<?xml version="1.0" encoding="UTF-8"?>
<svg width="47px" height="38px" viewBox="0 0 47 38" version="1.1" xmlns="http://www.w3.org/2000/svg" xmlns:xlink="http://www.w3.org/1999/xlink">
    <!-- Generator: Sketch 52.4 (67378) - http://www.bohemiancoding.com/sketch -->
    <title>135</title>
    <desc>Created with Sketch.</desc>
    <g id="Page-1" stroke="none" stroke-width="1" fill="none" fill-rule="evenodd">
        <g id="wahlkreise_gen" transform="translate(-225.000000, -373.000000)" fill="#000000">
            <g id="135" transform="translate(225.000000, 373.000000)">
                <polyline id="Path" points="44 13 46 14 47 16 46 17 46 18 45 19 46 20 46 21 47 25 46 27 46 28 47 30 47 31 46 32 44 32 43 32 42 33 41 33 41 34 42 34 41 35 41 36 38 37 37 37 36 38 34 38 33 38 30 35 30 33 30 32 29 29 29 28 28 28 25 27 23 26 21 26 20 27 21 27 22 27 22 28 19 30 18 30 18 29 16 30 14 31 14 33 13 35 12 36 12 35 10 35 8 35 6 36 2 34 1 34 0 35 0 34 3 31 4 29 4 28 4 23 4 21 4 20 5 18 4 18 4 17 5 14 7 13 11 10 12 10 17 10 18 11 19 12 20 12 21 12 23 11 23 10 23 9 24 9 23 8 24 5 24 4 24 3 26 2 26 1 29 2 30 2 31 2 31 1 31 0 33 3 33 4 33 5 33 8 35 7 37 6 42 7 43 8 44 9 44 10 44 11 43 11 43 12 42 13 44 13"></polyline>
            </g>
        </g>
    </g>
</svg>