<?xml version="1.0" encoding="UTF-8"?>
<svg width="50px" height="63px" viewBox="0 0 50 63" version="1.1" xmlns="http://www.w3.org/2000/svg" xmlns:xlink="http://www.w3.org/1999/xlink">
    <!-- Generator: Sketch 52.4 (67378) - http://www.bohemiancoding.com/sketch -->
    <title>137</title>
    <desc>Created with Sketch.</desc>
    <g id="Page-1" stroke="none" stroke-width="1" fill="none" fill-rule="evenodd">
        <g id="wahlkreise_gen" transform="translate(-208.000000, -407.000000)" fill="#000000">
            <g id="137" transform="translate(208.000000, 407.000000)">
                <polyline id="Path" points="31 16 32 18 34 18 37 17 38 17 42 18 43 18 45 19 46 21 47 22 48 24 48 28 47 30 47 31 46 33 47 34 47 35 47 36 48 37 48 40 47 40 47 41 47 42 48 43 48 44 49 44 50 44 50 45 50 47 49 47 48 48 47 48 46 48 45 48 43 51 42 52 41 52 40 51 40 50 37 50 36 50 34 51 33 52 33 53 33 54 34 54 35 56 35 57 31 62 30 63 24 61 23 60 21 59 20 59 16 58 15 59 14 60 13 61 12 60 10 58 10 57 9 55 9 54 7 52 6 50 6 48 6 47 6 46 7 45 10 43 12 42 14 41 14 38 14 35 13 35 12 34 11 34 10 34 8 33 7 32 7 30 7 29 6 28 6 27 5 27 3 28 1 28 0 28 1 26 1 23 2 22 3 21 4 20 6 18 7 18 8 17 10 16 11 15 11 14 11 13 13 12 17 10 16 9 15 6 14 5 13 2 17 1 18 0 19 0 23 2 24 3 25 4 26 5 27 6 28 10 29 11 30 11 30 13 30 14 30 15 31 16"></polyline>
            </g>
        </g>
    </g>
</svg>