<?xml version="1.0" encoding="UTF-8"?>
<svg width="53px" height="54px" viewBox="0 0 53 54" version="1.1" xmlns="http://www.w3.org/2000/svg" xmlns:xlink="http://www.w3.org/1999/xlink">
    <!-- Generator: Sketch 52.4 (67378) - http://www.bohemiancoding.com/sketch -->
    <title>14</title>
    <desc>Created with Sketch.</desc>
    <g id="Page-1" stroke="none" stroke-width="1" fill="none" fill-rule="evenodd">
        <g id="wahlkreise_gen" transform="translate(-484.000000, -97.000000)" fill="#000000">
            <g id="14" transform="translate(484.000000, 97.000000)">
                <polyline id="Path" points="29 14 31 17 31 18 31 20 32 21 33 20 34 20 37 21 38 22 44 22 45 24 48 25 48 24 50 25 52 27 53 28 53 29 50 33 49 34 48 33 46 33 44 34 45 35 45 37 42 41 40 40 39 40 39 39 39 38 38 38 37 37 36 37 35 37 33 38 31 39 31 40 29 40 29 39 28 38 29 37 28 35 27 35 26 37 24 39 25 40 25 41 24 41 19 40 17 40 16 43 15 45 16 47 16 48 17 49 17 50 14 50 13 50 13 52 12 54 11 54 10 54 6 52 6 50 6 49 4 48 2 46 3 43 3 42 3 41 3 40 4 38 2 35 0 32 0 31 1 31 2 30 2 27 1 25 2 23 2 22 3 20 3 19 0 17 0 16 1 15 1 14 5 13 6 13 7 13 8 12 8 13 9 13 9 14 9 15 9 16 8 18 8 20 9 22 9 23 10 24 14 25 14 24 14 23 13 23 12 23 11 23 11 22 10 22 10 21 10 20 10 19 10 18 10 17 10 16 10 15 11 15 12 16 12 15 13 15 12 13 12 11 12 10 13 9 13 8 14 8 14 7 14 6 15 6 15 5 16 4 23 0 24 2 24 3 25 3 25 4 25 5 26 6 28 7 29 8 30 8 30 10 29 11 29 14"></polyline>
            </g>
        </g>
    </g>
</svg>