<?xml version="1.0" encoding="UTF-8"?>
<svg width="18px" height="22px" viewBox="0 0 18 22" version="1.1" xmlns="http://www.w3.org/2000/svg" xmlns:xlink="http://www.w3.org/1999/xlink">
    <!-- Generator: Sketch 52.4 (67378) - http://www.bohemiancoding.com/sketch -->
    <title>142</title>
    <desc>Created with Sketch.</desc>
    <g id="Page-1" stroke="none" stroke-width="1" fill="none" fill-rule="evenodd">
        <g id="wahlkreise_gen" transform="translate(-119.000000, -449.000000)" fill="#000000">
            <g id="142" transform="translate(119.000000, 449.000000)">
                <polyline id="Path" points="11 2 10 9 11 10 11 11 12 11 13 11 14 10 15 10 16 10 17 10 18 11 18 12 18 13 17 13 15 13 13 14 13 15 14 16 14 17 15 18 15 20 15 21 14 21 13 22 13 21 12 21 11 21 10 22 8 18 7 16 6 16 5 15 4 15 1 14 0 12 0 11 0 10 1 10 3 10 4 10 5 9 4 4 8 2 9 0 10 0 11 2"></polyline>
            </g>
        </g>
    </g>
</svg>