<?xml version="1.0" encoding="UTF-8"?>
<svg width="48px" height="21px" viewBox="0 0 48 21" version="1.1" xmlns="http://www.w3.org/2000/svg" xmlns:xlink="http://www.w3.org/1999/xlink">
    <!-- Generator: Sketch 52.4 (67378) - http://www.bohemiancoding.com/sketch -->
    <title>145</title>
    <desc>Created with Sketch.</desc>
    <g id="Page-1" stroke="none" stroke-width="1" fill="none" fill-rule="evenodd">
        <g id="wahlkreise_gen" transform="translate(-128.000000, -431.000000)" fill="#000000">
            <g id="145" transform="translate(128.000000, 431.000000)">
                <polyline id="Path" points="11 7 12 7 15 5 16 4 17 3 23 3 24 4 27 1 29 2 32 1 34 1 38 2 39 3 39 4 42 5 43 6 45 7 47 8 48 9 47 9 47 10 47 9 46 9 45 9 44 9 43 14 42 15 41 17 41 18 41 19 36 20 34 21 33 21 33 20 33 19 33 18 33 17 32 16 28 16 25 16 25 17 24 17 23 17 22 17 22 16 22 15 22 14 22 13 22 12 22 11 21 10 20 11 19 11 19 12 16 13 15 13 14 13 13 14 12 17 12 18 13 18 14 18 15 19 15 20 13 20 12 20 11 20 11 21 10 21 9 21 4 20 2 20 1 18 2 17 3 17 4 16 4 14 3 11 3 10 2 10 1 10 0 10 0 9 1 9 2 9 3 8 4 7 4 6 3 6 2 4 1 4 1 3 2 3 2 2 5 0 8 2 9 4 11 7"></polyline>
            </g>
        </g>
    </g>
</svg>