<?xml version="1.0" encoding="UTF-8"?>
<svg width="90px" height="59px" viewBox="0 0 90 59" version="1.1" xmlns="http://www.w3.org/2000/svg" xmlns:xlink="http://www.w3.org/1999/xlink">
    <!-- Generator: Sketch 52.4 (67378) - http://www.bohemiancoding.com/sketch -->
    <title>147</title>
    <desc>Created with Sketch.</desc>
    <g id="Page-1" stroke="none" stroke-width="1" fill="none" fill-rule="evenodd">
        <g id="wahlkreise_gen" transform="translate(-164.000000, -457.000000)" fill="#000000">
            <g id="147" transform="translate(164.000000, 457.000000)">
                <polyline id="Path" points="85 2 85 3 86 3 88 5 90 5 89 6 88 6 86 7 84 8 84 9 84 10 86 13 88 15 88 16 89 18 88 21 87 21 86 20 85 20 84 20 83 21 82 22 81 22 80 22 79 21 78 21 77 20 74 21 72 22 71 23 69 23 69 22 66 25 63 27 62 27 57 34 56 35 59 39 60 39 61 39 62 38 68 36 69 36 70 36 71 37 71 38 70 39 71 40 71 42 72 43 72 45 73 48 72 49 71 50 70 52 69 52 68 54 67 54 68 54 68 55 68 56 70 56 70 57 65 59 64 59 63 59 62 58 60 58 59 58 56 58 55 56 51 53 49 53 46 53 44 54 43 54 43 55 42 56 42 57 41 58 40 59 39 59 31 58 30 57 31 57 31 56 29 55 26 52 25 52 25 53 24 53 23 53 22 53 22 52 22 51 23 50 23 48 22 46 20 46 20 44 19 43 20 42 21 41 21 40 12 39 9 39 6 40 5 39 4 39 4 38 4 34 4 31 5 29 6 29 6 27 5 26 4 26 4 25 4 23 4 22 3 20 2 18 3 17 2 15 2 13 1 12 0 11 1 11 2 10 2 9 2 8 3 7 4 7 5 8 5 9 8 10 10 10 11 9 12 9 13 10 14 11 15 12 23 14 24 14 28 18 33 19 36 21 38 20 45 18 49 15 52 13 53 12 55 11 56 10 57 11 58 10 59 9 60 8 64 9 65 9 67 10 68 11 74 13 75 12 79 7 79 6 78 4 77 4 77 3 77 2 78 1 80 0 81 0 84 0 84 1 85 2"></polyline>
            </g>
        </g>
    </g>
</svg>