<?xml version="1.0" encoding="UTF-8"?>
<svg width="67px" height="48px" viewBox="0 0 67 48" version="1.1" xmlns="http://www.w3.org/2000/svg" xmlns:xlink="http://www.w3.org/1999/xlink">
    <!-- Generator: Sketch 52.4 (67378) - http://www.bohemiancoding.com/sketch -->
    <title>149</title>
    <desc>Created with Sketch.</desc>
    <g id="Page-1" stroke="none" stroke-width="1" fill="none" fill-rule="evenodd">
        <g id="wahlkreise_gen" transform="translate(-128.000000, -489.000000)" fill="#000000">
            <g id="149" transform="translate(128.000000, 489.000000)">
                <polyline id="Path" points="14 1 15 1 16 1 17 2 17 4 18 5 19 7 20 7 26 10 26 9 27 9 29 10 30 12 32 14 31 16 30 15 30 16 31 17 31 19 32 18 35 18 39 17 41 16 42 16 43 10 43 9 43 8 42 8 45 7 48 7 57 8 57 9 56 10 55 11 56 12 56 14 58 14 59 16 59 18 58 19 58 20 58 21 59 21 60 21 61 21 61 20 62 20 65 23 67 24 67 25 66 25 65 26 65 27 66 29 66 30 67 30 67 32 65 35 64 36 60 38 58 37 57 36 55 36 54 36 53 36 53 37 52 38 50 38 48 36 49 34 47 34 45 34 43 35 41 38 41 40 42 41 42 42 42 43 41 43 41 44 40 44 40 46 40 47 40 48 39 48 37 48 36 48 34 48 32 48 32 47 31 46 30 46 29 46 29 44 29 43 29 41 27 41 26 41 25 41 24 39 24 38 24 37 25 36 25 34 24 32 23 31 23 30 22 30 23 29 24 29 23 29 23 28 22 27 21 27 21 28 20 28 16 29 14 28 14 27 14 26 15 26 14 25 13 24 11 25 9 25 8 25 6 25 6 24 4 21 4 19 2 17 0 15 0 14 0 13 0 12 1 10 2 9 5 8 5 7 6 7 6 6 7 5 7 4 8 4 10 3 12 2 13 0 14 1"></polyline>
            </g>
        </g>
    </g>
</svg>