<?xml version="1.0" encoding="UTF-8"?>
<svg width="110px" height="95px" viewBox="0 0 110 95" version="1.1" xmlns="http://www.w3.org/2000/svg" xmlns:xlink="http://www.w3.org/1999/xlink">
    <!-- Generator: Sketch 52.4 (67378) - http://www.bohemiancoding.com/sketch -->
    <title>15</title>
    <desc>Created with Sketch.</desc>
    <g id="Page-1" stroke="none" stroke-width="1" fill="none" fill-rule="evenodd">
        <g id="wahlkreise_gen" transform="translate(-507.000000, -39.000000)" fill="#000000">
            <g id="15" transform="translate(507.000000, 39.000000)">
                <polyline id="Path" points="26 34 29 34 37 34 43 34 44 34 46 33 47 33 46 34 47 34 47 35 47 36 46 36 44 37 43 37 42 37 42 36 41 36 40 36 39 37 37 37 35 38 33 38 33 37 32 37 31 37 31 36 30 36 29 36 25 37 22 39 21 40 21 41 22 41 14 43 12 44 11 44 10 45 10 46 9 46 9 47 9 49 7 52 7 53 6 53 6 58 6 59 8 60 9 60 9 61 10 61 11 61 13 61 13 60 12 60 11 60 10 59 9 58 9 57 10 56 10 55 11 54 12 54 13 54 14 53 14 52 14 51 14 50 17 49 19 46 27 42 28 41 28 40 27 40 27 39 28 40 28 39 29 39 30 39 31 40 30 40 31 40 32 40 32 41 31 41 31 42 32 43 35 43 36 43 36 42 36 41 37 41 38 42 38 43 39 45 39 46 42 46 42 45 44 44 44 43 45 42 44 41 45 41 45 39 46 39 47 37 53 34 55 35 55 36 55 37 55 38 55 39 57 41 58 41 60 43 59 45 59 46 60 47 62 53 65 57 66 57 66 56 67 56 70 56 76 59 77 59 77 60 77 61 78 62 78 63 79 64 80 65 80 66 79 68 80 68 81 68 85 67 86 67 87 70 89 74 90 75 90 77 91 77 93 77 94 77 94 78 94 77 94 78 94 80 96 81 97 82 95 83 92 85 91 85 90 84 89 83 88 85 88 86 88 87 89 87 89 88 89 90 88 93 87 93 86 93 86 92 85 92 82 90 78 88 77 85 74 83 73 82 73 83 71 85 68 87 66 87 64 86 63 86 59 87 55 90 54 90 53 90 51 92 49 93 47 95 46 95 46 94 45 94 44 94 44 93 44 92 43 92 42 91 41 91 40 90 38 89 36 88 32 88 32 87 30 86 29 85 27 83 25 82 25 83 22 82 21 80 15 80 14 79 11 78 10 78 9 79 8 78 8 76 8 75 6 72 6 69 7 68 7 66 6 66 5 65 3 64 2 63 2 62 2 61 1 61 1 60 0 58 1 57 2 56 3 56 3 55 4 54 5 53 5 51 7 47 9 43 10 43 10 42 11 42 12 40 12 38 13 38 13 37 13 36 13 35 14 34 14 33 14 32 15 31 15 30 16 30 16 29 17 31 17 32 18 32 18 33 19 33 20 33 26 34"></polyline>
                <polyline id="Path" points="58 28 58 29 58 30 58 31 57 31 57 29 57 28 57 26 58 26 58 25 58 24 58 22 59 19 59 18 59 17 60 17 59 16 59 15 59 14 59 13 60 12 61 12 61 11 62 11 62 12 63 12 60 15 61 18 61 19 61 20 61 21 60 22 60 23 60 24 59 25 59 26 59 27 58 27 58 28"></polyline>
                <polyline id="Path" points="80 5 80 6 80 7 80 8 80 9 81 10 81 11 82 11 82 13 83 13 84 14 85 14 86 14 87 14 90 14 91 14 91 13 92 13 93 13 95 12 96 12 97 12 98 12 99 12 100 12 102 13 103 13 103 14 104 17 103 18 103 19 103 20 102 20 101 21 98 23 96 26 96 27 96 28 96 29 96 30 97 31 97 33 98 33 98 34 99 35 100 35 100 36 101 36 102 36 103 36 107 39 110 42 110 44 108 47 107 49 104 50 104 48 105 48 106 47 107 46 107 45 106 45 105 45 105 44 105 43 105 42 99 43 99 42 98 42 97 42 97 43 96 43 96 44 95 44 94 44 93 44 91 45 89 46 86 49 86 50 85 50 85 51 84 53 83 53 82 53 81 54 81 57 82 57 83 56 84 55 84 54 85 54 85 55 86 55 86 56 86 57 87 57 87 58 86 58 86 59 85 59 84 59 79 58 79 57 80 53 79 53 78 55 78 56 75 56 74 56 70 55 69 52 66 52 64 48 63 48 62 47 62 46 62 45 63 43 63 42 64 42 64 41 65 41 68 41 69 41 69 42 70 42 71 42 73 40 73 39 72 37 71 36 68 34 67 35 65 35 64 35 64 34 65 32 66 31 67 31 72 28 73 27 72 26 71 26 71 27 70 27 70 26 70 25 70 24 70 23 69 23 68 24 67 24 66 24 65 24 65 23 64 20 65 19 67 18 70 18 70 17 71 18 73 19 74 20 74 21 74 22 75 22 75 23 75 22 76 22 76 21 75 18 74 18 74 17 75 17 75 16 78 14 79 14 79 13 79 14 80 14 79 15 79 16 79 17 78 17 77 18 78 18 79 18 79 19 79 20 78 21 79 22 80 21 81 20 82 19 81 19 81 18 80 18 79 18 79 17 80 17 80 16 83 20 83 21 84 21 84 22 83 22 83 23 84 25 87 27 90 26 90 24 91 22 91 21 90 18 90 17 90 16 89 16 86 17 82 14 81 12 81 11 80 9 79 9 78 10 76 12 77 12 76 14 73 16 71 17 71 16 71 13 71 12 72 12 72 11 72 10 73 10 73 9 73 8 73 6 73 5 72 6 71 6 70 7 69 8 69 9 69 10 69 12 69 13 66 16 65 17 64 17 64 16 65 15 66 15 66 14 67 14 67 13 68 13 68 12 68 11 68 10 68 9 68 7 68 6 70 4 71 3 72 2 73 2 75 2 78 1 80 0 83 0 84 0 84 2 83 3 83 4 82 4 81 4 80 5"></polyline>
                <polyline id="Path" points="89 27 88 29 88 30 89 30 90 29 91 30 92 31 91 31 91 32 90 32 89 32 89 31 90 31 90 30 89 31 89 32 89 33 90 33 90 34 91 34 91 33 93 34 94 34 94 33 94 32 93 32 92 32 93 32 94 32 95 32 95 31 94 26 93 26 92 26 91 26 90 26 89 26 89 27"></polyline>
            </g>
        </g>
    </g>
</svg>