<?xml version="1.0" encoding="UTF-8"?>
<svg width="87px" height="62px" viewBox="0 0 87 62" version="1.1" xmlns="http://www.w3.org/2000/svg" xmlns:xlink="http://www.w3.org/1999/xlink">
    <!-- Generator: Sketch 52.4 (67378) - http://www.bohemiancoding.com/sketch -->
    <title>151</title>
    <desc>Created with Sketch.</desc>
    <g id="Page-1" stroke="none" stroke-width="1" fill="none" fill-rule="evenodd">
        <g id="wahlkreise_gen" transform="translate(-513.000000, -431.000000)" fill="#000000">
            <g id="151" transform="translate(513.000000, 431.000000)">
                <polyline id="Path" points="71 4 72 5 74 8 76 8 77 8 80 10 81 11 80 13 79 13 79 14 80 15 81 15 82 15 83 16 85 19 85 21 85 22 85 24 84 24 83 24 83 25 83 26 83 27 84 27 84 28 85 28 85 29 84 30 84 31 83 31 83 32 84 33 85 33 86 35 85 35 84 36 84 39 86 40 86 43 86 44 86 45 86 47 87 48 87 49 87 52 87 56 86 57 86 58 86 57 85 57 82 58 80 59 79 60 72 62 69 60 69 59 67 59 66 60 64 60 63 60 63 59 62 59 63 58 63 54 62 53 59 50 59 49 59 48 61 44 62 43 61 39 62 38 64 37 64 35 61 33 61 32 59 32 58 31 57 31 55 31 54 30 53 30 53 29 52 29 52 28 51 28 50 29 50 30 49 30 49 31 48 31 45 31 43 31 41 32 40 33 40 34 41 35 40 37 38 39 37 40 35 41 32 42 31 42 28 44 27 44 26 43 26 38 27 36 28 36 27 35 27 34 26 33 25 33 24 33 23 34 23 35 18 37 13 37 11 37 10 37 9 40 9 42 8 42 8 43 7 44 7 45 8 46 4 48 3 46 2 40 2 38 3 38 3 37 2 35 1 35 0 34 0 32 1 30 4 29 4 28 4 27 4 26 3 26 2 24 2 23 3 23 4 22 5 20 7 18 7 19 8 19 9 18 10 18 12 17 12 16 15 15 17 15 21 14 21 13 23 12 26 12 30 12 30 11 32 10 33 9 35 9 36 10 38 10 40 8 40 7 40 6 41 5 41 4 42 4 43 4 44 4 45 4 47 5 48 5 49 5 51 3 53 1 54 0 55 1 56 2 56 3 59 5 60 5 64 4 64 2 65 2 66 2 67 1 68 2 68 3 69 3 68 4 68 5 69 5 70 5 71 4"></polyline>
            </g>
        </g>
    </g>
</svg>