<?xml version="1.0" encoding="UTF-8"?>
<svg width="22px" height="15px" viewBox="0 0 22 15" version="1.1" xmlns="http://www.w3.org/2000/svg" xmlns:xlink="http://www.w3.org/1999/xlink">
    <!-- Generator: Sketch 52.4 (67378) - http://www.bohemiancoding.com/sketch -->
    <title>153</title>
    <desc>Created with Sketch.</desc>
    <g id="Page-1" stroke="none" stroke-width="1" fill="none" fill-rule="evenodd">
        <g id="wahlkreise_gen" transform="translate(-520.000000, -476.000000)" fill="#000000">
            <g id="153" transform="translate(520.000000, 476.000000)">
                <polyline id="Path" points="22 6 22 7 22 8 21 12 20 12 18 11 18 10 18 9 16 9 14 9 10 8 7 14 7 15 5 15 3 15 2 14 1 10 2 9 0 5 0 4 1 4 2 3 3 3 6 3 7 3 9 3 8 0 9 0 11 0 12 0 13 1 13 2 14 3 15 3 17 4 18 5 18 4 19 4 21 4 22 6"></polyline>
            </g>
        </g>
    </g>
</svg>