<?xml version="1.0" encoding="UTF-8"?>
<svg width="64px" height="65px" viewBox="0 0 64 65" version="1.1" xmlns="http://www.w3.org/2000/svg" xmlns:xlink="http://www.w3.org/1999/xlink">
    <!-- Generator: Sketch 52.4 (67378) - http://www.bohemiancoding.com/sketch -->
    <title>154</title>
    <desc>Created with Sketch.</desc>
    <g id="Page-1" stroke="none" stroke-width="1" fill="none" fill-rule="evenodd">
        <g id="wahlkreise_gen" transform="translate(-513.000000, -459.000000)" fill="#000000">
            <g id="154" transform="translate(513.000000, 459.000000)">
                <polyline id="Path" points="64 32 64 33 63 33 62 33 62 34 61 34 60 39 59 42 60 42 62 43 62 44 62 45 62 48 61 49 57 49 56 49 55 49 55 48 54 48 53 48 50 48 49 51 48 53 48 54 49 59 51 61 50 62 46 64 42 65 41 65 40 65 40 64 39 63 37 64 34 63 31 60 31 58 31 57 31 55 30 54 26 53 21 52 18 52 15 51 13 52 12 50 11 50 11 51 10 51 8 50 7 49 7 48 8 48 8 47 9 47 9 46 8 46 7 46 6 45 5 45 4 39 4 37 4 35 4 32 4 31 4 30 3 30 2 30 2 29 2 28 2 27 2 26 1 25 0 22 2 21 4 20 8 18 9 20 8 21 7 21 7 22 9 26 8 27 9 31 10 32 12 32 14 32 14 31 17 25 21 26 23 26 25 26 25 27 25 28 27 29 28 29 29 25 29 24 29 23 30 23 31 23 32 23 32 22 32 20 32 19 31 18 31 17 29 17 28 16 31 14 32 14 35 13 37 12 38 11 40 9 41 7 40 6 40 5 41 4 43 3 45 3 48 3 49 3 49 2 50 2 50 1 51 0 52 0 52 1 53 1 53 2 54 2 55 3 57 3 58 3 59 4 61 4 61 5 64 7 64 9 62 10 61 11 62 15 61 16 59 20 59 21 59 22 62 25 63 26 63 30 62 31 63 31 63 32 64 32"></polyline>
            </g>
        </g>
    </g>
</svg>