<?xml version="1.0" encoding="UTF-8"?>
<svg width="55px" height="59px" viewBox="0 0 55 59" version="1.1" xmlns="http://www.w3.org/2000/svg" xmlns:xlink="http://www.w3.org/1999/xlink">
    <!-- Generator: Sketch 52.4 (67378) - http://www.bohemiancoding.com/sketch -->
    <title>155</title>
    <desc>Created with Sketch.</desc>
    <g id="Page-1" stroke="none" stroke-width="1" fill="none" fill-rule="evenodd">
        <g id="wahlkreise_gen" transform="translate(-597.000000, -458.000000)" fill="#000000">
            <g id="155" transform="translate(597.000000, 458.000000)">
                <polyline id="Path" points="41 9 42 10 43 11 45 11 47 11 48 11 48 10 49 10 49 9 50 9 53 8 54 10 55 13 53 14 51 17 51 18 51 22 52 22 52 23 52 25 52 27 52 28 51 28 50 29 50 30 51 32 49 35 48 35 47 35 48 36 48 37 49 38 49 39 49 40 47 40 46 40 45 41 43 43 43 45 44 45 44 46 43 47 41 46 38 45 37 45 36 46 35 46 36 47 35 50 33 51 30 51 28 51 27 50 23 52 22 55 21 54 19 53 17 53 16 54 15 54 15 55 14 55 9 57 8 58 7 59 6 59 7 57 8 56 9 55 9 54 9 53 8 51 8 48 7 44 7 40 7 39 6 39 5 38 4 37 3 34 3 33 3 32 2 31 2 30 3 29 3 25 3 22 3 21 2 20 2 18 2 17 2 16 2 13 0 12 0 9 1 8 2 8 2 9 3 9 6 9 7 8 8 7 12 4 17 0 21 3 23 5 27 7 27 8 28 9 29 10 30 10 31 9 33 9 33 10 33 11 34 11 41 10 41 9"></polyline>
            </g>
        </g>
    </g>
</svg>