<?xml version="1.0" encoding="UTF-8"?>
<svg width="81px" height="50px" viewBox="0 0 81 50" version="1.1" xmlns="http://www.w3.org/2000/svg" xmlns:xlink="http://www.w3.org/1999/xlink">
    <!-- Generator: Sketch 52.4 (67378) - http://www.bohemiancoding.com/sketch -->
    <title>158</title>
    <desc>Created with Sketch.</desc>
    <g id="Page-1" stroke="none" stroke-width="1" fill="none" fill-rule="evenodd">
        <g id="wahlkreise_gen" transform="translate(-619.000000, -502.000000)" fill="#000000">
            <g id="158" transform="translate(619.000000, 502.000000)">
                <polyline id="Path" points="73 3 72 4 71 4 71 5 69 10 69 12 69 13 71 13 71 14 73 15 74 17 75 17 76 17 80 18 81 18 81 19 81 20 80 23 79 24 78 24 76 25 74 26 73 26 72 26 72 25 71 24 68 26 68 27 68 28 67 29 65 31 64 31 63 31 62 31 57 34 56 36 55 36 55 37 52 37 51 37 50 36 48 36 46 38 46 39 45 40 44 40 43 40 42 40 41 40 40 43 41 43 41 44 42 45 42 46 41 46 38 49 37 49 36 49 35 49 34 48 32 48 30 48 28 49 26 50 24 50 23 49 22 49 21 49 20 48 17 44 16 44 15 44 14 44 13 43 13 42 13 41 13 40 13 39 12 37 10 37 8 36 8 35 8 32 7 30 7 29 5 28 3 24 1 23 1 22 2 21 2 19 3 19 4 19 5 18 5 17 4 17 4 18 3 18 2 18 1 17 1 16 1 15 1 14 2 14 2 13 2 12 1 11 0 11 1 8 5 6 6 7 8 7 11 7 13 6 13 8 13 9 15 10 20 10 20 12 21 12 22 13 24 13 25 13 26 13 28 14 31 15 31 16 31 17 33 17 37 15 38 15 39 14 44 9 44 8 44 7 44 6 44 5 46 4 46 3 48 3 49 3 50 3 51 1 52 2 52 3 55 2 56 2 57 1 59 2 60 3 61 3 62 2 62 1 62 0 63 0 64 0 71 1 73 2 73 3"></polyline>
            </g>
        </g>
    </g>
</svg>