<?xml version="1.0" encoding="UTF-8"?>
<svg width="116px" height="123px" viewBox="0 0 116 123" version="1.1" xmlns="http://www.w3.org/2000/svg" xmlns:xlink="http://www.w3.org/1999/xlink">
    <!-- Generator: Sketch 52.4 (67378) - http://www.bohemiancoding.com/sketch -->
    <title>16</title>
    <desc>Created with Sketch.</desc>
    <g id="Page-1" stroke="none" stroke-width="1" fill="none" fill-rule="evenodd">
        <g id="wahlkreise_gen" transform="translate(-562.000000, -103.000000)" fill="#000000">
            <g id="16" transform="translate(562.000000, 103.000000)">
                <polyline id="Path" points="58 7 58 8 59 9 60 9 61 9 61 11 61 14 61 15 61 14 60 14 60 15 60 16 61 16 60 17 59 18 59 19 58 19 58 20 59 21 62 23 63 23 63 24 65 24 70 30 71 31 71 32 72 32 72 33 71 33 71 34 70 34 69 34 68 35 68 36 65 39 65 41 66 43 67 43 69 44 69 45 70 46 71 47 73 48 74 48 78 51 78 52 79 52 80 52 86 54 88 55 90 55 94 55 95 55 96 53 97 52 98 51 99 52 100 52 100 53 101 54 100 57 98 58 97 58 97 59 97 60 98 60 99 60 100 60 101 60 102 61 103 64 103 66 106 70 106 76 105 78 105 79 107 84 108 85 109 85 110 86 111 90 112 96 112 97 113 98 113 99 114 101 114 102 114 103 115 104 116 106 115 106 115 107 114 107 113 107 113 108 111 109 110 109 109 109 108 112 105 116 105 117 104 117 102 117 101 117 100 117 97 116 96 116 95 116 95 117 94 117 93 117 92 117 92 116 92 115 93 114 94 112 95 112 95 111 96 110 97 109 98 108 99 106 100 106 100 105 101 104 101 103 101 102 102 100 102 99 102 95 101 95 100 94 99 95 99 96 97 96 96 96 95 94 93 94 92 94 91 95 89 98 87 98 87 97 86 96 83 95 79 96 78 96 77 97 74 92 73 89 73 87 72 86 71 86 70 86 68 85 66 82 66 81 66 80 65 80 65 81 65 82 65 84 65 86 68 88 69 88 68 89 68 90 67 90 67 91 66 91 65 91 64 91 63 91 63 90 62 90 61 90 60 90 60 91 59 92 58 93 55 95 54 96 55 97 55 98 55 99 54 100 54 101 53 101 52 100 50 101 48 102 48 103 49 103 49 105 48 107 47 107 46 108 46 110 47 111 47 112 47 113 45 115 44 116 42 117 42 116 40 117 38 121 38 122 38 123 37 123 35 121 35 120 35 119 34 119 30 119 29 119 28 120 26 121 25 122 23 121 22 121 25 116 26 115 27 114 30 114 31 115 32 116 32 115 32 114 32 113 32 111 31 109 31 108 32 107 35 104 36 104 38 102 37 100 36 99 34 98 30 99 29 99 27 98 26 98 24 97 23 97 23 99 20 99 17 98 16 97 16 96 17 93 18 92 18 90 17 84 15 83 14 84 12 84 11 84 11 83 11 81 15 79 17 77 21 76 23 74 23 73 24 69 28 67 30 67 30 66 32 66 34 64 35 63 35 62 36 57 34 56 33 56 32 55 30 53 31 51 32 51 32 50 33 49 33 47 33 46 31 45 28 45 26 48 26 49 26 50 25 50 21 51 17 48 17 47 16 47 16 44 17 40 17 39 18 37 17 36 16 35 13 33 13 34 12 35 8 33 6 32 3 29 2 27 0 26 4 23 8 22 9 22 11 23 13 23 16 21 18 19 18 18 19 19 22 21 23 24 27 26 30 28 31 28 31 29 32 29 33 29 34 26 34 24 34 23 33 23 33 22 33 21 34 19 35 20 36 21 37 21 40 19 42 18 41 17 39 16 39 14 39 13 39 14 39 13 37 11 37 9 37 8 38 8 39 8 40 7 41 7 42 7 43 7 44 7 45 7 48 6 48 5 49 5 49 4 50 3 53 1 54 1 54 2 55 2 54 2 53 4 55 5 57 6 58 6 58 7"></polyline>
                <polyline id="Path" points="65 7 66 9 67 9 67 10 68 10 69 11 70 11 70 12 71 12 72 12 73 13 74 13 75 13 76 13 77 14 78 15 80 16 81 17 82 18 90 26 95 30 95 34 95 36 95 37 95 38 94 38 94 37 93 37 84 38 80 39 80 40 79 40 78 41 76 42 75 42 74 42 75 42 75 41 75 40 73 39 73 41 73 42 72 43 71 43 70 43 69 43 68 42 68 41 67 41 67 40 67 39 68 39 71 38 73 37 73 36 74 34 74 33 73 31 73 30 72 29 72 28 71 28 71 27 70 27 70 26 70 25 70 24 71 24 71 23 73 23 74 23 75 23 76 26 75 26 74 27 74 29 75 30 75 31 75 30 76 29 75 28 75 27 77 27 78 27 79 27 79 28 80 29 81 29 81 24 81 23 81 22 81 20 80 20 77 16 75 14 73 14 71 14 70 15 71 16 72 18 72 19 72 20 67 23 67 22 66 22 66 21 67 19 67 18 68 18 68 17 67 17 66 16 64 18 62 20 62 21 61 21 60 21 60 20 59 20 59 19 60 19 60 18 60 17 61 17 61 16 61 15 62 15 62 14 62 12 62 10 62 9 61 8 61 9 61 8 58 6 58 5 57 3 57 2 58 1 59 1 60 0 61 0 61 1 62 1 63 3 63 4 63 5 64 5 64 6 65 7"></polyline>
            </g>
        </g>
    </g>
</svg>