<?xml version="1.0" encoding="UTF-8"?>
<svg width="43px" height="28px" viewBox="0 0 43 28" version="1.1" xmlns="http://www.w3.org/2000/svg" xmlns:xlink="http://www.w3.org/1999/xlink">
    <!-- Generator: Sketch 52.4 (67378) - http://www.bohemiancoding.com/sketch -->
    <title>160</title>
    <desc>Created with Sketch.</desc>
    <g id="Page-1" stroke="none" stroke-width="1" fill="none" fill-rule="evenodd">
        <g id="wahlkreise_gen" transform="translate(-632.000000, -489.000000)" fill="#000000">
            <g id="160" transform="translate(632.000000, 489.000000)">
                <polyline id="Path" points="27 1 28 2 27 2 27 3 27 4 27 5 28 5 32 5 33 4 35 4 36 4 37 4 38 4 39 4 39 3 40 3 41 3 42 3 43 6 40 8 39 9 38 9 36 9 35 10 35 12 36 13 37 14 38 14 37 16 36 16 35 16 33 16 33 17 31 18 31 19 31 20 31 21 31 22 26 27 25 28 25 27 24 26 24 25 23 25 23 24 22 24 20 22 18 19 18 18 17 18 16 18 11 17 10 17 8 19 9 19 9 20 10 20 11 21 11 22 10 22 10 24 9 24 8 25 7 25 7 23 2 23 0 22 0 21 0 19 1 16 0 15 1 15 2 14 3 14 6 15 8 16 9 15 9 14 8 14 8 12 10 10 11 9 12 9 14 9 14 8 14 7 13 6 13 5 12 4 13 4 14 4 16 1 17 1 18 1 21 1 23 0 24 0 26 0 27 0 27 1"></polyline>
            </g>
        </g>
    </g>
</svg>