<?xml version="1.0" encoding="UTF-8"?>
<svg width="68px" height="77px" viewBox="0 0 68 77" version="1.1" xmlns="http://www.w3.org/2000/svg" xmlns:xlink="http://www.w3.org/1999/xlink">
    <!-- Generator: Sketch 52.4 (67378) - http://www.bohemiancoding.com/sketch -->
    <title>161</title>
    <desc>Created with Sketch.</desc>
    <g id="Page-1" stroke="none" stroke-width="1" fill="none" fill-rule="evenodd">
        <g id="wahlkreise_gen" transform="translate(-572.000000, -488.000000)" fill="#000000">
            <g id="161" transform="translate(572.000000, 488.000000)">
                <polyline id="Path" points="27 1 28 2 28 3 28 4 29 7 30 8 31 9 32 9 32 10 32 14 33 18 33 21 34 23 34 24 34 25 33 26 32 27 31 29 32 29 33 28 34 27 39 25 40 25 40 24 41 24 42 23 44 23 46 24 47 25 48 25 49 26 49 27 49 28 48 28 48 29 48 30 48 31 49 32 50 32 51 32 51 31 52 31 52 32 51 33 50 33 49 33 49 35 48 36 48 37 50 38 52 42 54 43 54 44 55 46 55 49 55 50 57 51 59 51 60 53 60 54 60 55 60 56 60 57 61 58 62 58 63 58 64 58 67 62 68 63 67 64 66 65 66 66 64 66 63 66 62 66 61 66 60 66 58 67 58 68 59 68 59 69 60 69 60 71 60 72 58 76 57 77 56 76 55 75 56 75 56 74 55 74 53 73 52 73 48 71 48 70 45 67 45 66 45 64 46 64 45 62 44 62 43 62 41 63 38 64 37 62 37 61 36 60 35 60 35 59 30 59 28 59 27 60 24 60 22 59 20 58 19 57 18 56 18 55 18 53 18 52 14 51 13 51 13 47 13 46 15 44 15 43 16 41 16 40 14 39 10 38 9 38 9 39 8 39 6 37 6 36 3 33 2 31 2 30 3 30 4 31 4 32 5 32 6 32 9 33 9 32 9 31 9 30 9 29 8 28 8 27 10 25 8 21 7 18 6 18 5 18 4 18 3 19 3 16 3 15 3 14 1 13 0 13 1 10 2 5 3 5 3 4 4 4 5 4 5 3 7 3 8 2 10 2 10 3 13 5 20 3 21 2 23 1 26 0 27 0 27 1"></polyline>
            </g>
        </g>
    </g>
</svg>