<?xml version="1.0" encoding="UTF-8"?>
<svg width="23px" height="20px" viewBox="0 0 23 20" version="1.1" xmlns="http://www.w3.org/2000/svg" xmlns:xlink="http://www.w3.org/1999/xlink">
    <!-- Generator: Sketch 52.4 (67378) - http://www.bohemiancoding.com/sketch -->
    <title>162</title>
    <desc>Created with Sketch.</desc>
    <g id="Page-1" stroke="none" stroke-width="1" fill="none" fill-rule="evenodd">
        <g id="wahlkreise_gen" transform="translate(-567.000000, -533.000000)" fill="#000000">
            <g id="162" transform="translate(567.000000, 533.000000)">
                <polyline id="Path" points="18 1 18 2 18 6 19 6 23 7 23 8 23 10 23 11 22 13 21 16 20 16 18 16 17 18 16 18 14 19 14 20 13 20 12 20 11 19 10 18 9 17 10 17 11 16 11 15 10 15 6 13 5 14 4 15 3 15 2 15 1 15 1 13 0 12 0 10 1 10 1 9 3 7 3 6 3 5 3 4 4 3 4 2 5 1 6 0 9 0 10 0 11 1 12 1 14 1 16 0 18 1"></polyline>
            </g>
        </g>
    </g>
</svg>