<?xml version="1.0" encoding="UTF-8"?>
<svg width="36px" height="67px" viewBox="0 0 36 67" version="1.1" xmlns="http://www.w3.org/2000/svg" xmlns:xlink="http://www.w3.org/1999/xlink">
    <!-- Generator: Sketch 52.4 (67378) - http://www.bohemiancoding.com/sketch -->
    <title>163</title>
    <desc>Created with Sketch.</desc>
    <g id="Page-1" stroke="none" stroke-width="1" fill="none" fill-rule="evenodd">
        <g id="wahlkreise_gen" transform="translate(-552.000000, -506.000000)" fill="#000000">
            <g id="163" transform="translate(552.000000, 506.000000)">
                <polyline id="Path" points="27 0 28 3 30 7 28 9 28 10 29 11 29 12 29 13 29 14 29 15 26 14 25 14 24 14 24 13 23 12 22 12 22 13 23 15 26 18 26 19 28 21 29 21 29 20 30 20 34 21 36 22 36 23 35 25 35 26 33 28 31 27 29 28 27 28 26 28 25 27 24 27 21 27 20 28 19 29 19 30 18 31 18 32 18 33 18 34 16 36 16 37 15 37 15 39 16 40 16 42 17 42 18 42 19 42 20 41 21 40 25 42 26 42 26 43 25 44 24 44 25 45 26 46 27 47 28 47 29 47 29 46 31 45 32 45 32 46 33 49 32 49 30 49 29 49 28 50 26 52 26 53 28 53 28 52 30 54 28 56 24 62 20 65 20 66 20 67 18 67 17 67 16 62 16 61 17 60 18 59 18 58 17 58 16 58 15 59 14 60 12 61 11 61 10 60 11 58 11 56 12 55 11 54 9 54 8 54 5 52 5 51 4 51 4 50 2 48 0 44 1 39 2 34 3 32 5 28 4 28 5 25 4 25 3 23 3 22 2 21 2 20 1 18 2 18 3 18 7 17 11 15 12 14 10 12 9 7 9 6 10 4 11 1 14 1 15 1 16 1 16 2 17 2 18 2 22 2 23 1 24 0 25 0 26 0 27 0"></polyline>
            </g>
        </g>
    </g>
</svg>