<?xml version="1.0" encoding="UTF-8"?>
<svg width="86px" height="54px" viewBox="0 0 86 54" version="1.1" xmlns="http://www.w3.org/2000/svg" xmlns:xlink="http://www.w3.org/1999/xlink">
    <!-- Generator: Sketch 52.4 (67378) - http://www.bohemiancoding.com/sketch -->
    <title>164</title>
    <desc>Created with Sketch.</desc>
    <g id="Page-1" stroke="none" stroke-width="1" fill="none" fill-rule="evenodd">
        <g id="wahlkreise_gen" transform="translate(-543.000000, -544.000000)" fill="#000000">
            <g id="164" transform="translate(543.000000, 544.000000)">
                <polyline id="Path" points="86 21 85 21 84 23 83 24 83 25 80 24 79 23 78 23 78 22 78 21 77 20 76 20 75 19 75 20 75 21 75 22 75 23 74 24 73 24 72 24 71 25 71 26 71 27 71 28 69 29 68 29 68 28 68 27 66 27 65 27 64 28 64 29 63 31 63 32 64 33 61 39 60 39 58 39 57 38 54 39 54 40 52 40 51 40 50 40 49 39 48 39 47 43 47 44 47 45 47 46 46 48 45 51 44 51 43 52 41 52 35 49 33 47 32 47 31 47 31 46 30 46 24 50 22 53 22 54 15 53 13 54 12 54 11 54 11 52 10 51 9 51 7 50 6 49 4 47 0 43 0 42 1 40 2 40 2 39 3 39 5 38 6 37 6 36 7 35 8 35 9 35 10 35 12 34 13 33 12 32 11 32 10 32 10 31 10 28 11 27 15 24 20 23 21 23 23 22 24 21 25 20 26 20 27 20 27 21 26 22 25 23 25 24 26 29 27 29 29 29 29 28 29 27 33 24 37 18 39 16 37 14 37 15 35 15 35 14 37 12 38 11 39 11 41 11 42 11 41 8 41 7 42 5 44 5 45 5 46 2 47 0 48 1 49 2 51 3 53 4 56 4 57 3 59 3 64 3 64 4 65 4 66 5 66 6 67 8 70 7 72 6 73 6 74 6 75 8 74 8 74 10 74 11 77 14 77 15 81 17 82 17 84 18 85 18 85 19 84 19 85 20 86 21"></polyline>
            </g>
        </g>
    </g>
</svg>