<?xml version="1.0" encoding="UTF-8"?>
<svg width="41px" height="47px" viewBox="0 0 41 47" version="1.1" xmlns="http://www.w3.org/2000/svg" xmlns:xlink="http://www.w3.org/1999/xlink">
    <!-- Generator: Sketch 52.4 (67378) - http://www.bohemiancoding.com/sketch -->
    <title>165</title>
    <desc>Created with Sketch.</desc>
    <g id="Page-1" stroke="none" stroke-width="1" fill="none" fill-rule="evenodd">
        <g id="wahlkreise_gen" transform="translate(-523.000000, -533.000000)" fill="#000000">
            <g id="165" transform="translate(523.000000, 533.000000)">
                <polyline id="Path" points="33 1 34 1 32 5 31 7 30 12 29 17 31 21 33 23 33 24 34 24 34 25 37 27 38 27 40 27 41 28 40 29 40 31 39 33 40 34 35 35 31 38 30 39 30 42 30 43 31 43 32 43 33 44 32 45 30 46 29 46 28 46 27 46 26 47 23 46 22 46 21 46 18 46 18 45 17 44 18 42 19 40 17 36 13 31 9 31 8 31 7 30 5 30 4 30 3 29 2 26 0 24 0 23 0 21 1 20 3 21 3 20 4 19 5 18 5 17 4 17 3 17 2 17 1 14 1 13 2 14 4 14 9 12 9 11 9 10 11 9 14 8 14 9 15 10 17 9 17 7 18 4 20 2 24 1 32 0 33 1"></polyline>
            </g>
        </g>
    </g>
</svg>