<?xml version="1.0" encoding="UTF-8"?>
<svg width="92px" height="82px" viewBox="0 0 92 82" version="1.1" xmlns="http://www.w3.org/2000/svg" xmlns:xlink="http://www.w3.org/1999/xlink">
    <!-- Generator: Sketch 52.4 (67378) - http://www.bohemiancoding.com/sketch -->
    <title>167</title>
    <desc>Created with Sketch.</desc>
    <g id="Page-1" stroke="none" stroke-width="1" fill="none" fill-rule="evenodd">
        <g id="wahlkreise_gen" transform="translate(-220.000000, -443.000000)" fill="#000000">
            <g id="167" transform="translate(220.000000, 443.000000)">
                <polyline id="Path" points="79 4 83 4 84 4 86 3 88 5 88 6 90 8 91 9 92 9 91 11 89 10 88 9 87 9 87 10 87 11 88 11 88 12 89 13 87 17 86 17 85 17 84 17 84 18 86 21 88 29 88 30 89 30 89 31 88 32 86 33 83 32 83 31 82 31 81 32 74 32 74 33 71 36 69 36 67 36 66 37 65 37 65 39 66 39 66 40 67 40 68 43 68 44 67 44 66 44 66 45 66 46 67 48 67 49 71 50 74 51 76 51 75 52 75 53 74 53 74 54 75 54 76 55 76 56 75 56 74 56 71 56 66 55 66 54 66 53 65 52 64 52 63 52 59 54 59 56 58 59 58 60 57 60 55 61 52 63 52 64 52 65 52 66 53 67 53 68 54 68 55 69 53 72 52 73 50 75 49 77 49 78 48 78 47 79 46 79 45 80 45 82 44 81 43 81 42 80 41 80 40 79 40 78 40 77 39 77 37 74 36 74 35 73 33 70 33 63 34 62 34 61 35 60 36 60 37 58 37 57 28 53 27 53 26 53 26 54 27 54 27 55 27 56 26 60 26 61 22 69 20 71 20 72 19 71 18 70 17 69 16 69 15 69 14 69 14 70 12 70 12 69 12 68 11 68 12 68 13 66 14 66 15 64 16 63 17 62 16 59 16 57 15 56 15 54 14 53 15 52 15 51 14 50 13 50 12 50 6 52 5 53 4 53 3 53 0 49 1 48 6 41 7 41 10 39 13 36 13 37 15 37 16 36 18 35 21 34 22 35 23 35 24 36 25 36 26 36 27 35 28 34 29 34 30 34 31 35 32 35 33 32 32 30 32 29 30 27 28 24 28 23 28 22 30 21 32 20 33 20 34 19 38 18 39 18 39 19 39 20 40 20 42 20 43 20 44 21 44 22 44 23 43 25 44 27 45 28 47 27 48 27 49 28 50 26 51 25 52 25 53 25 54 26 54 24 54 23 55 22 56 21 59 19 60 18 62 16 62 15 63 14 63 13 65 11 66 9 67 8 66 8 64 6 64 5 66 5 68 4 69 4 71 3 72 3 72 2 73 1 72 1 75 0 76 0 77 0 77 1 77 2 76 2 76 3 77 3 78 4 79 4"></polyline>
            </g>
        </g>
    </g>
</svg>