<?xml version="1.0" encoding="UTF-8"?>
<svg width="65px" height="92px" viewBox="0 0 65 92" version="1.1" xmlns="http://www.w3.org/2000/svg" xmlns:xlink="http://www.w3.org/1999/xlink">
    <!-- Generator: Sketch 52.4 (67378) - http://www.bohemiancoding.com/sketch -->
    <title>169</title>
    <desc>Created with Sketch.</desc>
    <g id="Page-1" stroke="none" stroke-width="1" fill="none" fill-rule="evenodd">
        <g id="wahlkreise_gen" transform="translate(-293.000000, -473.000000)" fill="#000000">
            <g id="169" transform="translate(293.000000, 473.000000)">
                <polyline id="Path" points="37 0 39 4 39 5 39 6 39 7 39 9 40 11 41 12 41 13 42 15 43 17 45 17 50 18 50 19 50 22 51 25 52 26 57 26 59 27 60 27 60 28 61 28 62 30 64 30 65 30 64 31 64 32 63 33 62 33 62 35 62 36 63 36 63 39 62 39 62 40 61 40 61 39 60 38 60 37 61 37 60 37 60 35 59 35 56 36 56 37 58 39 59 39 60 41 59 42 58 42 58 43 57 43 57 44 57 47 58 47 59 48 61 49 62 49 62 50 63 51 63 52 62 53 61 55 60 55 58 55 57 55 56 55 56 54 55 53 50 53 49 53 48 53 48 54 47 56 48 57 49 61 49 62 50 62 51 61 51 62 50 63 47 63 46 63 45 62 44 62 42 62 42 64 42 65 43 65 43 64 44 64 45 64 46 64 47 65 51 69 51 70 50 70 50 71 49 71 48 72 48 73 47 73 48 75 48 74 49 74 49 75 48 76 48 77 46 77 45 77 44 77 43 77 42 78 41 81 41 84 40 85 37 84 37 83 37 82 36 81 34 82 33 82 31 82 30 81 29 80 27 80 26 80 24 82 23 84 22 85 22 86 23 86 24 87 23 88 22 89 19 92 18 92 18 91 16 90 15 89 14 89 13 87 12 86 11 86 10 86 9 87 8 87 8 88 7 89 5 90 5 89 4 88 4 87 3 86 2 86 1 86 2 85 1 84 1 85 0 83 0 82 0 81 3 80 4 79 5 79 6 76 5 74 4 72 3 69 4 67 5 64 6 63 7 63 8 62 9 62 10 62 10 61 9 60 9 59 8 59 11 54 12 52 13 52 14 51 15 51 16 50 16 49 18 47 20 45 23 45 24 46 25 46 26 46 26 45 27 45 27 44 27 43 27 42 27 41 28 40 27 39 27 36 26 36 26 35 25 36 24 36 23 36 21 34 20 33 18 31 16 31 15 30 15 29 16 28 18 27 18 26 20 24 20 23 21 23 22 23 22 24 23 24 24 23 25 22 25 21 23 21 20 21 16 19 16 18 16 17 17 16 17 15 19 15 21 16 22 16 23 17 24 16 26 15 27 13 27 11 26 11 24 12 21 9 21 8 21 7 26 5 28 2 29 2 30 2 32 3 33 2 33 1 37 0"></polyline>
            </g>
        </g>
    </g>
</svg>