<?xml version="1.0" encoding="UTF-8"?>
<svg width="108px" height="63px" viewBox="0 0 108 63" version="1.1" xmlns="http://www.w3.org/2000/svg" xmlns:xlink="http://www.w3.org/1999/xlink">
    <!-- Generator: Sketch 52.4 (67378) - http://www.bohemiancoding.com/sketch -->
    <title>170</title>
    <desc>Created with Sketch.</desc>
    <g id="Page-1" stroke="none" stroke-width="1" fill="none" fill-rule="evenodd">
        <g id="wahlkreise_gen" transform="translate(-213.000000, -495.000000)" fill="#000000">
            <g id="170" transform="translate(213.000000, 495.000000)">
                <polyline id="Path" points="78 4 81 4 82 4 82 5 83 6 84 5 85 5 88 5 90 6 90 7 89 7 91 9 92 10 93 10 96 9 98 9 100 11 101 12 103 14 104 14 105 14 106 13 106 14 107 14 107 17 108 18 107 19 107 20 107 21 107 22 107 23 106 23 106 24 105 24 104 24 103 23 100 23 98 25 96 27 96 28 95 29 94 29 93 30 92 30 91 32 88 37 89 37 89 38 90 39 90 40 89 40 88 40 87 41 86 41 85 42 84 45 83 47 84 50 85 52 86 54 85 57 84 57 83 58 80 59 80 60 76 63 75 62 75 61 74 61 74 59 70 59 68 58 64 57 62 56 61 56 60 56 56 55 56 54 56 53 55 51 54 49 54 47 55 46 54 45 53 44 51 44 48 44 47 44 47 45 46 46 45 45 44 43 42 43 42 42 41 42 42 41 41 40 39 38 37 37 36 37 36 38 37 38 37 39 36 40 30 39 26 39 21 37 20 35 19 35 17 34 16 35 15 36 15 37 15 38 13 38 11 40 9 40 4 39 1 37 0 37 0 36 1 36 3 33 4 33 5 32 5 31 6 31 5 29 3 23 3 22 5 21 7 20 10 20 11 20 13 20 14 21 15 21 16 21 21 19 21 18 21 17 22 17 23 17 24 17 25 18 26 19 27 20 27 19 29 17 33 9 33 8 34 4 34 3 34 2 33 2 33 1 34 1 35 1 44 5 44 6 43 8 42 8 41 9 41 10 40 11 40 18 42 21 43 22 44 22 46 25 47 25 47 26 47 27 48 28 49 28 50 29 51 29 52 30 52 28 53 27 54 27 55 26 56 26 56 25 57 23 59 21 60 20 62 17 61 16 60 16 60 15 59 14 59 13 59 12 59 11 62 9 64 8 65 8 65 7 66 4 66 2 70 0 71 0 72 0 73 1 73 2 73 3 78 4"></polyline>
            </g>
        </g>
    </g>
</svg>