<?xml version="1.0" encoding="UTF-8"?>
<svg width="65px" height="41px" viewBox="0 0 65 41" version="1.1" xmlns="http://www.w3.org/2000/svg" xmlns:xlink="http://www.w3.org/1999/xlink">
    <!-- Generator: Sketch 52.4 (67378) - http://www.bohemiancoding.com/sketch -->
    <title>171</title>
    <desc>Created with Sketch.</desc>
    <g id="Page-1" stroke="none" stroke-width="1" fill="none" fill-rule="evenodd">
        <g id="wahlkreise_gen" transform="translate(-204.000000, -529.000000)" fill="#000000">
            <g id="171" transform="translate(204.000000, 529.000000)">
                <polyline id="Path" points="51 7 50 8 51 8 51 9 53 9 54 11 55 12 56 11 56 10 57 10 60 10 62 10 63 11 64 12 63 13 63 15 64 17 65 19 65 20 65 21 64 22 63 21 62 21 61 22 61 23 60 23 59 24 57 26 56 26 54 29 53 29 51 30 50 30 50 31 45 35 45 36 45 37 46 38 46 39 45 39 44 40 43 39 42 39 41 38 40 38 40 37 39 37 36 38 32 40 31 41 30 41 28 40 27 39 25 38 24 38 23 38 24 38 23 40 21 41 19 41 19 40 18 39 17 38 16 37 16 36 15 35 15 34 12 33 11 33 10 34 9 35 8 35 7 35 7 34 6 30 7 29 7 28 8 27 8 26 7 26 7 25 7 26 6 26 4 26 3 26 3 24 3 21 4 20 3 19 2 18 1 18 0 18 0 17 1 17 2 15 2 14 6 10 8 8 7 7 8 4 8 3 9 3 10 3 13 5 18 6 20 6 22 4 24 4 24 3 24 2 25 1 26 0 28 1 29 1 30 3 35 5 39 5 45 6 46 5 46 4 45 4 45 3 46 3 48 4 50 6 51 7"></polyline>
            </g>
        </g>
    </g>
</svg>