<?xml version="1.0" encoding="UTF-8"?>
<svg width="77px" height="54px" viewBox="0 0 77 54" version="1.1" xmlns="http://www.w3.org/2000/svg" xmlns:xlink="http://www.w3.org/1999/xlink">
    <!-- Generator: Sketch 52.4 (67378) - http://www.bohemiancoding.com/sketch -->
    <title>173</title>
    <desc>Created with Sketch.</desc>
    <g id="Page-1" stroke="none" stroke-width="1" fill="none" fill-rule="evenodd">
        <g id="wahlkreise_gen" transform="translate(-218.000000, -550.000000)" fill="#000000">
            <g id="173" transform="translate(218.000000, 550.000000)">
                <polyline id="Path" points="51 0 55 1 56 1 57 1 59 2 63 3 65 4 69 4 69 6 70 6 70 7 71 8 75 5 75 6 76 8 76 7 77 8 76 9 75 8 74 8 73 8 73 9 73 10 73 11 72 12 70 12 69 13 68 13 66 14 64 15 63 15 62 16 60 17 59 23 58 25 58 26 57 31 56 32 55 31 54 31 53 30 53 29 53 28 52 28 51 28 50 28 50 29 49 31 48 32 47 34 48 35 49 37 49 38 48 39 46 41 45 41 43 42 42 43 42 44 40 45 39 45 39 44 38 44 37 45 38 48 38 49 35 52 34 52 31 51 31 52 30 53 24 52 23 52 22 51 22 49 23 49 22 48 22 46 21 46 18 47 16 46 13 45 11 45 10 45 8 46 3 50 3 51 4 51 5 52 6 52 5 53 5 54 4 54 2 54 1 54 0 49 0 48 3 44 6 43 7 43 8 43 10 42 10 41 9 41 9 40 8 40 7 40 6 40 5 40 3 39 4 38 5 37 6 37 6 36 7 35 7 34 6 32 5 31 4 30 5 29 7 30 8 30 8 31 9 31 10 30 11 30 12 29 13 28 13 25 13 23 11 19 11 18 10 17 9 17 10 17 11 17 13 18 14 19 16 20 17 20 18 19 22 17 25 16 26 16 26 17 27 17 28 18 29 18 30 19 31 18 32 18 32 17 31 16 31 15 31 14 36 10 36 9 37 9 39 8 40 8 42 5 43 5 45 3 46 2 47 2 47 1 48 0 49 0 50 1 51 0"></polyline>
            </g>
        </g>
    </g>
</svg>