<?xml version="1.0" encoding="UTF-8"?>
<svg width="52px" height="56px" viewBox="0 0 52 56" version="1.1" xmlns="http://www.w3.org/2000/svg" xmlns:xlink="http://www.w3.org/1999/xlink">
    <!-- Generator: Sketch 52.4 (67378) - http://www.bohemiancoding.com/sketch -->
    <title>176</title>
    <desc>Created with Sketch.</desc>
    <g id="Page-1" stroke="none" stroke-width="1" fill="none" fill-rule="evenodd">
        <g id="wahlkreise_gen" transform="translate(-181.000000, -580.000000)" fill="#000000">
            <g id="176" transform="translate(181.000000, 580.000000)">
                <polyline id="Path" points="10 5 11 3 11 2 12 2 14 3 15 4 14 4 15 5 15 7 16 8 17 9 19 11 21 12 22 12 23 12 23 15 25 19 28 19 30 23 31 24 32 25 33 26 34 27 35 27 35 26 37 27 38 29 40 30 43 31 47 36 46 38 44 39 42 40 45 41 47 42 49 44 50 45 50 46 49 47 50 48 51 48 52 49 51 50 50 50 49 51 47 51 46 52 44 54 41 56 40 56 39 55 38 54 35 52 32 49 31 49 30 49 27 53 27 54 26 55 25 54 23 53 23 52 22 52 22 51 22 50 23 50 25 50 26 49 27 44 26 43 23 40 22 40 21 39 20 39 21 38 22 38 23 38 23 37 22 37 21 35 20 35 20 33 22 29 23 29 20 29 17 29 16 28 15 28 14 28 13 29 14 30 14 31 11 31 10 31 10 30 9 29 6 28 5 27 4 27 3 28 2 27 0 24 0 23 2 18 3 16 3 15 4 15 5 14 6 13 6 12 6 11 4 8 3 8 2 8 2 7 3 7 4 6 4 4 6 1 5 0 6 2 7 3 9 5 10 5"></polyline>
            </g>
        </g>
    </g>
</svg>