<?xml version="1.0" encoding="UTF-8"?>
<svg width="54px" height="75px" viewBox="0 0 54 75" version="1.1" xmlns="http://www.w3.org/2000/svg" xmlns:xlink="http://www.w3.org/1999/xlink">
    <!-- Generator: Sketch 52.4 (67378) - http://www.bohemiancoding.com/sketch -->
    <title>178</title>
    <desc>Created with Sketch.</desc>
    <g id="Page-1" stroke="none" stroke-width="1" fill="none" fill-rule="evenodd">
        <g id="wahlkreise_gen" transform="translate(-154.000000, -586.000000)" fill="#000000">
            <g id="178" transform="translate(154.000000, 586.000000)">
                <polyline id="Path" points="27 2 29 2 30 2 31 2 33 5 33 6 33 7 32 8 31 9 30 9 30 10 29 12 27 17 27 18 29 21 30 22 31 21 32 21 33 22 36 23 37 24 37 25 38 25 41 25 41 24 40 23 41 22 42 22 43 22 44 23 47 23 50 23 49 23 47 27 47 29 48 29 49 31 50 31 50 32 49 32 48 32 47 33 48 33 49 34 50 34 53 37 54 38 53 43 52 44 50 44 49 44 49 45 49 46 49 47 49 50 47 52 47 53 46 53 46 52 45 52 42 52 41 52 40 53 39 53 38 54 36 55 35 56 34 56 32 56 31 57 28 60 28 61 28 62 29 62 30 62 30 63 32 65 33 66 34 67 32 68 27 70 24 71 20 73 17 74 16 75 14 75 9 75 8 75 8 74 7 74 7 73 7 72 7 71 7 70 6 70 6 69 5 69 1 65 0 64 0 63 1 63 1 62 5 59 5 58 6 55 7 55 8 56 9 57 13 57 13 53 11 51 10 51 10 50 9 48 12 46 13 45 17 43 18 42 20 43 22 44 24 41 22 38 21 39 21 38 22 37 23 36 24 36 25 36 25 37 26 37 26 38 28 38 30 36 29 34 28 30 28 29 25 23 23 22 21 22 22 20 18 19 17 19 17 18 19 16 20 13 21 13 21 12 19 10 18 9 18 8 19 5 19 4 20 3 23 0 24 0 25 0 26 1 26 2 27 2"></polyline>
            </g>
        </g>
    </g>
</svg>