<?xml version="1.0" encoding="UTF-8"?>
<svg width="23px" height="21px" viewBox="0 0 23 21" version="1.1" xmlns="http://www.w3.org/2000/svg" xmlns:xlink="http://www.w3.org/1999/xlink">
    <!-- Generator: Sketch 52.4 (67378) - http://www.bohemiancoding.com/sketch -->
    <title>179</title>
    <desc>Created with Sketch.</desc>
    <g id="Page-1" stroke="none" stroke-width="1" fill="none" fill-rule="evenodd">
        <g id="wahlkreise_gen" transform="translate(-182.000000, -638.000000)" fill="#000000">
            <g id="179" transform="translate(182.000000, 638.000000)">
                <polyline id="Path" points="19 1 18 1 18 2 17 2 21 6 21 7 22 7 23 7 23 9 23 10 23 14 22 15 21 16 20 16 19 16 19 17 19 18 19 20 15 21 14 19 13 18 11 16 10 16 8 15 7 15 6 15 5 14 4 13 2 11 2 10 1 10 0 10 0 9 0 8 3 5 4 4 6 4 7 4 8 3 10 2 11 1 12 1 13 0 14 0 17 0 18 0 18 1 19 1"></polyline>
            </g>
        </g>
    </g>
</svg>