<?xml version="1.0" encoding="UTF-8"?>
<svg width="32px" height="27px" viewBox="0 0 32 27" version="1.1" xmlns="http://www.w3.org/2000/svg" xmlns:xlink="http://www.w3.org/1999/xlink">
    <!-- Generator: Sketch 52.4 (67378) - http://www.bohemiancoding.com/sketch -->
    <title>180</title>
    <desc>Created with Sketch.</desc>
    <g id="Page-1" stroke="none" stroke-width="1" fill="none" fill-rule="evenodd">
        <g id="wahlkreise_gen" transform="translate(-238.000000, -622.000000)" fill="#000000">
            <g id="180" transform="translate(238.000000, 622.000000)">
                <polyline id="Path" points="10 0 11 0 12 0 12 1 14 2 15 2 15 3 15 4 19 5 20 6 21 6 22 4 24 4 24 5 24 6 25 9 25 10 26 12 26 13 27 13 27 12 28 12 31 14 32 15 31 16 30 16 29 16 28 16 28 17 25 17 25 18 24 20 25 21 23 21 20 22 19 24 19 25 19 27 18 27 18 28 18 27 18 26 17 26 14 25 13 25 11 25 11 26 10 26 9 26 8 23 9 23 9 21 9 20 8 20 5 19 3 19 0 18 1 16 2 14 1 13 1 11 2 10 4 10 3 8 3 7 4 5 5 5 7 4 6 2 6 1 8 0 9 1 10 1 10 0"></polyline>
            </g>
        </g>
    </g>
</svg>