<?xml version="1.0" encoding="UTF-8"?>
<svg width="24px" height="27px" viewBox="0 0 24 27" version="1.1" xmlns="http://www.w3.org/2000/svg" xmlns:xlink="http://www.w3.org/1999/xlink">
    <!-- Generator: Sketch 52.4 (67378) - http://www.bohemiancoding.com/sketch -->
    <title>183</title>
    <desc>Created with Sketch.</desc>
    <g id="Page-1" stroke="none" stroke-width="1" fill="none" fill-rule="evenodd">
        <g id="wahlkreise_gen" transform="translate(-216.000000, -629.000000)" fill="#000000">
            <g id="183" transform="translate(216.000000, 629.000000)">
                <polyline id="Path" points="23 6 24 7 23 9 22 11 22 12 19 14 18 16 18 19 17 21 16 22 11 22 10 22 9 22 7 24 7 25 6 25 6 26 6 27 5 26 1 26 0 26 0 25 1 24 2 23 3 23 3 22 3 21 3 20 2 19 1 18 3 17 3 16 4 16 4 17 5 17 5 18 6 18 10 18 12 17 13 16 14 15 14 9 13 8 13 7 12 7 11 6 10 7 9 7 8 6 9 5 11 3 12 2 14 2 15 1 16 1 17 0 18 1 18 2 18 3 17 3 16 4 16 6 17 7 18 8 19 8 20 7 21 6 22 6 23 6"></polyline>
            </g>
        </g>
    </g>
</svg>