<?xml version="1.0" encoding="UTF-8"?>
<svg width="29px" height="47px" viewBox="0 0 29 47" version="1.1" xmlns="http://www.w3.org/2000/svg" xmlns:xlink="http://www.w3.org/1999/xlink">
    <!-- Generator: Sketch 52.4 (67378) - http://www.bohemiancoding.com/sketch -->
    <title>184</title>
    <desc>Created with Sketch.</desc>
    <g id="Page-1" stroke="none" stroke-width="1" fill="none" fill-rule="evenodd">
        <g id="wahlkreise_gen" transform="translate(-197.000000, -647.000000)" fill="#000000">
            <g id="184" transform="translate(197.000000, 647.000000)">
                <polyline id="Path" points="20 0 21 1 22 2 22 3 22 4 22 5 21 5 20 6 19 7 19 8 20 8 24 8 25 9 26 9 29 14 29 15 28 16 26 16 25 17 23 21 22 24 22 27 20 28 19 28 19 29 20 32 21 32 21 33 22 34 22 36 22 37 21 37 21 38 21 39 21 40 21 41 23 46 22 47 20 47 18 47 16 47 14 46 13 46 13 45 14 45 14 44 15 43 16 43 16 42 16 41 15 41 14 41 13 42 12 42 12 41 11 41 11 40 10 40 10 39 10 38 9 37 8 35 8 34 7 34 7 33 8 32 8 31 8 30 8 29 7 29 6 29 5 28 5 27 5 26 4 26 4 25 5 25 5 24 5 23 6 22 5 22 5 21 5 19 5 18 4 18 4 17 4 16 3 15 3 14 2 13 0 12 4 11 10 12 10 11 15 8 18 4 20 3 20 0"></polyline>
            </g>
        </g>
    </g>
</svg>