<?xml version="1.0" encoding="UTF-8"?>
<svg width="27px" height="25px" viewBox="0 0 27 25" version="1.1" xmlns="http://www.w3.org/2000/svg" xmlns:xlink="http://www.w3.org/1999/xlink">
    <!-- Generator: Sketch 52.4 (67378) - http://www.bohemiancoding.com/sketch -->
    <title>185</title>
    <desc>Created with Sketch.</desc>
    <g id="Page-1" stroke="none" stroke-width="1" fill="none" fill-rule="evenodd">
        <g id="wahlkreise_gen" transform="translate(-222.000000, -640.000000)" fill="#000000">
            <g id="185" transform="translate(222.000000, 640.000000)">
                <polyline id="Path" points="27 10 23 12 20 14 19 15 19 17 18 20 14 23 13 23 12 24 7 25 3 23 4 22 4 21 1 16 0 16 0 15 0 14 1 14 1 13 3 11 4 11 5 11 10 11 11 10 12 8 12 5 13 3 16 1 16 0 19 1 21 1 24 2 25 2 25 3 25 5 24 5 25 8 26 8 27 8 27 9 27 10"></polyline>
            </g>
        </g>
    </g>
</svg>