<?xml version="1.0" encoding="UTF-8"?>
<svg width="33px" height="31px" viewBox="0 0 33 31" version="1.1" xmlns="http://www.w3.org/2000/svg" xmlns:xlink="http://www.w3.org/1999/xlink">
    <!-- Generator: Sketch 52.4 (67378) - http://www.bohemiancoding.com/sketch -->
    <title>186</title>
    <desc>Created with Sketch.</desc>
    <g id="Page-1" stroke="none" stroke-width="1" fill="none" fill-rule="evenodd">
        <g id="wahlkreise_gen" transform="translate(-216.000000, -663.000000)" fill="#000000">
            <g id="186" transform="translate(216.000000, 663.000000)">
                <polyline id="Path" points="9 0 13 2 18 1 19 0 19 1 20 2 27 2 28 1 29 0 31 2 32 5 33 6 33 7 30 7 28 6 27 5 24 5 21 6 21 8 20 9 19 8 19 9 24 11 23 14 23 15 22 16 23 19 23 20 21 23 22 27 23 29 23 30 22 31 19 31 18 31 17 29 16 28 14 30 13 31 11 31 10 31 9 30 6 30 5 31 4 31 4 30 2 25 2 24 2 23 2 22 2 21 3 21 3 20 3 18 2 17 2 16 1 16 0 13 0 12 1 12 3 11 3 8 4 5 6 1 7 0 9 0"></polyline>
            </g>
        </g>
    </g>
</svg>