<?xml version="1.0" encoding="UTF-8"?>
<svg width="50px" height="46px" viewBox="0 0 50 46" version="1.1" xmlns="http://www.w3.org/2000/svg" xmlns:xlink="http://www.w3.org/1999/xlink">
    <!-- Generator: Sketch 52.4 (67378) - http://www.bohemiancoding.com/sketch -->
    <title>188</title>
    <desc>Created with Sketch.</desc>
    <g id="Page-1" stroke="none" stroke-width="1" fill="none" fill-rule="evenodd">
        <g id="wahlkreise_gen" transform="translate(-202.000000, -691.000000)" fill="#000000">
            <g id="188" transform="translate(202.000000, 691.000000)">
                <polyline id="Path" points="49 37 50 37 50 38 48 40 42 46 40 46 39 45 39 44 39 43 39 42 40 42 41 42 41 41 41 39 40 38 40 37 40 36 42 34 43 35 43 36 43 37 44 37 45 35 46 34 49 36 49 37"></polyline>
                <polyline id="Path" points="32 3 33 3 36 3 37 2 38 1 37 2 38 7 38 9 41 11 42 11 43 12 45 13 45 18 45 22 45 23 46 28 46 31 46 32 45 32 45 31 44 32 42 32 39 30 38 30 35 30 34 30 32 30 31 29 30 27 29 25 28 23 28 22 28 21 28 20 29 20 29 19 29 16 28 16 27 16 25 17 20 18 20 19 20 20 21 20 23 26 21 28 20 29 19 30 17 30 17 29 16 28 15 28 15 27 15 26 14 25 12 23 10 21 9 20 8 20 7 20 6 21 5 20 5 19 5 18 4 18 4 17 3 17 3 16 2 16 2 15 0 9 0 8 0 7 1 7 1 6 2 6 2 5 3 5 4 5 4 4 5 4 6 4 7 4 7 3 8 3 8 2 9 2 11 3 13 3 15 3 17 3 18 2 18 3 19 3 20 2 23 2 24 3 25 3 27 3 28 2 30 0 31 1 32 3"></polyline>
            </g>
        </g>
    </g>
</svg>