<?xml version="1.0" encoding="UTF-8"?>
<svg width="85px" height="96px" viewBox="0 0 85 96" version="1.1" xmlns="http://www.w3.org/2000/svg" xmlns:xlink="http://www.w3.org/1999/xlink">
    <!-- Generator: Sketch 52.4 (67378) - http://www.bohemiancoding.com/sketch -->
    <title>190</title>
    <desc>Created with Sketch.</desc>
    <g id="Page-1" stroke="none" stroke-width="1" fill="none" fill-rule="evenodd">
        <g id="wahlkreise_gen" transform="translate(-329.000000, -482.000000)" fill="#000000">
            <g id="190" transform="translate(329.000000, 482.000000)">
                <polyline id="Path" points="49 1 50 1 50 3 50 5 52 5 54 4 55 4 55 3 56 3 58 3 59 3 59 4 60 5 61 6 63 8 64 8 65 9 66 12 66 13 66 15 67 17 68 17 69 17 72 17 73 16 74 16 75 16 76 16 77 16 80 16 82 16 83 18 85 18 85 19 84 20 83 21 84 25 84 27 82 28 82 32 81 32 79 32 78 32 73 32 72 31 71 30 70 30 69 30 67 31 67 32 67 34 67 36 68 37 68 38 65 40 61 40 60 40 59 42 58 42 56 43 50 46 49 46 49 47 49 48 50 49 51 49 52 49 52 50 51 53 51 54 50 55 49 56 46 57 46 58 43 63 43 64 44 64 44 65 43 68 42 70 41 72 41 73 42 73 41 73 40 74 39 74 38 74 38 73 37 73 35 74 33 75 32 76 31 76 30 76 29 75 27 75 27 76 27 77 28 77 28 78 28 80 28 81 26 82 26 84 26 89 27 90 28 92 28 95 27 95 26 96 24 95 23 95 21 95 20 95 19 94 19 93 18 92 17 92 17 93 16 90 15 88 14 88 13 88 11 88 10 88 9 88 7 89 6 89 6 90 6 91 7 91 8 92 7 94 6 94 0 93 0 92 0 89 1 88 2 87 3 85 5 81 5 80 5 79 5 78 4 76 5 75 5 72 6 69 7 68 8 68 9 68 10 68 12 68 12 67 13 66 13 65 12 65 12 66 11 64 12 64 12 63 13 62 14 62 14 61 15 61 15 60 11 56 10 55 9 55 8 55 7 55 7 56 6 56 6 55 6 53 8 53 9 53 10 54 11 54 14 54 15 53 15 52 14 53 13 53 13 52 12 48 11 47 12 45 12 44 13 44 14 44 19 44 20 45 20 46 21 46 22 46 24 46 25 46 26 44 27 43 27 42 26 41 26 40 25 40 23 39 22 38 21 38 21 35 21 34 22 34 22 33 23 33 24 32 23 30 22 30 20 28 20 27 23 26 24 26 24 28 25 28 24 28 24 29 25 30 25 31 26 31 26 30 27 30 27 27 26 27 26 26 26 24 27 24 28 23 28 22 29 21 28 21 26 21 26 19 25 18 24 17 25 17 25 16 26 16 27 15 28 15 28 16 32 15 34 14 35 13 35 12 35 11 36 9 38 8 39 7 40 5 40 4 39 3 40 2 41 1 42 1 44 1 47 1 48 1 48 0 49 1"></polyline>
            </g>
        </g>
    </g>
</svg>