<?xml version="1.0" encoding="UTF-8"?>
<svg width="68px" height="73px" viewBox="0 0 68 73" version="1.1" xmlns="http://www.w3.org/2000/svg" xmlns:xlink="http://www.w3.org/1999/xlink">
    <!-- Generator: Sketch 52.4 (67378) - http://www.bohemiancoding.com/sketch -->
    <title>192</title>
    <desc>Created with Sketch.</desc>
    <g id="Page-1" stroke="none" stroke-width="1" fill="none" fill-rule="evenodd">
        <g id="wahlkreise_gen" transform="translate(-372.000000, -512.000000)" fill="#000000">
            <g id="192" transform="translate(372.000000, 512.000000)">
                <polyline id="Path" points="30 2 35 2 36 2 38 2 39 2 39 3 38 7 38 9 38 10 38 11 37 11 37 13 37 14 38 14 39 14 40 16 39 17 38 17 38 19 38 20 41 22 42 22 43 22 43 21 44 21 45 22 46 23 46 24 45 25 44 26 44 28 45 28 46 28 47 27 57 25 58 25 58 27 60 30 62 31 64 32 64 33 63 34 62 34 62 35 62 36 66 39 67 39 68 39 68 40 67 40 66 39 65 39 65 40 64 43 65 44 65 45 65 47 65 48 64 49 61 49 59 49 58 49 57 51 51 55 53 56 55 56 55 57 55 58 55 59 55 62 55 63 57 64 57 66 56 68 56 70 56 71 54 72 49 73 48 72 46 73 45 72 44 71 44 70 44 69 42 65 41 65 41 66 40 67 40 68 40 69 39 71 37 71 36 70 36 69 36 67 35 66 35 67 34 66 33 66 32 65 31 64 32 64 33 64 33 63 32 63 31 61 30 60 29 60 29 59 28 59 28 58 29 58 29 57 29 56 29 53 29 51 28 50 27 49 26 49 26 50 26 51 25 51 25 52 24 52 20 50 18 49 17 49 16 49 15 49 14 47 14 46 13 45 13 43 11 38 11 37 10 37 9 36 7 36 5 35 4 35 2 36 1 35 1 34 0 34 0 33 3 28 3 27 6 26 7 25 8 24 8 23 9 20 9 19 8 19 7 19 6 18 6 17 6 16 7 16 13 13 15 12 16 12 17 10 18 10 22 10 25 8 25 7 24 6 24 4 24 2 24 1 26 0 27 0 28 0 29 1 30 2"></polyline>
            </g>
        </g>
    </g>
</svg>