<?xml version="1.0" encoding="UTF-8"?>
<svg width="45px" height="24px" viewBox="0 0 45 24" version="1.1" xmlns="http://www.w3.org/2000/svg" xmlns:xlink="http://www.w3.org/1999/xlink">
    <!-- Generator: Sketch 52.4 (67378) - http://www.bohemiancoding.com/sketch -->
    <title>193</title>
    <desc>Created with Sketch.</desc>
    <g id="Page-1" stroke="none" stroke-width="1" fill="none" fill-rule="evenodd">
        <g id="wahlkreise_gen" transform="translate(-409.000000, -516.000000)" fill="#000000">
            <g id="193" transform="translate(409.000000, 516.000000)">
                <polyline id="Path" points="21 6 22 8 23 8 26 7 29 5 31 7 32 6 33 5 35 5 36 5 38 6 41 7 41 8 40 8 41 9 41 10 42 11 43 10 44 10 45 14 45 15 43 16 38 20 36 20 35 19 34 18 34 17 33 18 33 20 31 20 26 20 25 20 22 19 21 19 21 20 21 21 20 21 10 23 9 24 8 24 7 24 7 22 8 21 9 20 9 19 8 18 7 17 6 17 6 18 5 18 4 18 1 16 1 15 1 13 2 13 3 12 2 10 1 10 0 10 0 9 0 7 1 7 2 7 3 7 6 7 10 5 10 4 10 3 11 2 13 2 14 2 15 2 15 0 17 0 18 1 19 2 21 6"></polyline>
            </g>
        </g>
    </g>
</svg>