<?xml version="1.0" encoding="UTF-8"?>
<svg width="105px" height="83px" viewBox="0 0 105 83" version="1.1" xmlns="http://www.w3.org/2000/svg" xmlns:xlink="http://www.w3.org/1999/xlink">
    <!-- Generator: Sketch 52.4 (67378) - http://www.bohemiancoding.com/sketch -->
    <title>196</title>
    <desc>Created with Sketch.</desc>
    <g id="Page-1" stroke="none" stroke-width="1" fill="none" fill-rule="evenodd">
        <g id="wahlkreise_gen" transform="translate(-342.000000, -547.000000)" fill="#000000">
            <g id="196" transform="translate(342.000000, 547.000000)">
                <polyline id="Path" points="32 1 34 0 35 0 37 1 39 1 40 2 41 2 41 3 43 8 43 10 44 11 44 12 45 14 46 14 47 14 48 14 50 15 54 17 55 17 55 16 56 16 56 15 56 14 57 14 58 15 59 16 59 18 59 21 59 22 59 23 58 23 58 24 59 24 59 25 60 25 61 26 62 28 63 28 63 29 62 29 61 29 62 30 63 31 64 31 65 32 65 31 66 32 66 34 66 35 67 36 69 36 70 34 70 33 70 32 71 31 71 30 72 30 74 34 74 35 74 36 75 37 76 38 78 37 80 40 88 41 88 40 89 39 93 38 94 40 93 41 93 43 94 44 99 43 100 43 101 43 104 44 104 45 103 45 103 46 102 46 101 46 101 47 101 48 102 49 102 51 103 52 103 54 103 55 102 56 103 57 104 59 105 62 104 62 103 63 103 65 102 66 103 68 103 73 102 73 102 74 102 73 101 73 99 72 98 71 97 72 97 73 97 74 96 74 96 73 93 72 93 71 92 70 92 69 92 68 93 68 93 67 94 67 94 66 94 65 92 63 90 61 89 61 88 61 88 62 88 63 85 64 84 64 84 63 80 62 78 60 76 59 76 58 75 58 71 58 66 59 63 60 62 61 61 62 61 63 60 63 59 63 59 62 57 62 57 63 57 64 58 66 58 68 65 73 68 74 69 75 69 76 69 77 69 78 68 78 67 78 67 79 66 78 63 77 59 77 59 80 59 82 58 83 56 82 55 81 53 80 52 80 51 81 50 81 49 81 49 80 48 79 48 73 48 70 48 67 48 66 44 65 39 64 39 63 36 61 36 60 35 59 35 58 34 59 33 59 30 59 30 58 30 57 31 56 31 55 30 54 28 54 27 50 25 46 20 45 18 44 17 41 14 38 10 39 10 40 9 40 8 38 8 37 7 37 6 37 6 38 6 39 5 39 3 42 2 43 1 43 1 44 1 42 1 41 1 40 2 38 2 37 1 36 0 31 1 30 2 29 3 29 3 30 4 30 4 28 4 27 5 27 6 28 6 29 7 30 8 30 10 30 11 30 13 31 14 30 15 30 15 27 14 25 13 24 13 19 13 17 15 16 15 15 15 13 15 12 14 12 14 11 14 10 16 10 17 11 18 11 19 11 20 10 22 9 24 8 25 8 25 9 26 9 27 9 28 8 29 8 28 8 28 7 29 5 30 3 31 0 32 1"></polyline>
            </g>
        </g>
    </g>
</svg>