<?xml version="1.0" encoding="UTF-8"?>
<svg width="69px" height="69px" viewBox="0 0 69 69" version="1.1" xmlns="http://www.w3.org/2000/svg" xmlns:xlink="http://www.w3.org/1999/xlink">
    <!-- Generator: Sketch 52.4 (67378) - http://www.bohemiancoding.com/sketch -->
    <title>197</title>
    <desc>Created with Sketch.</desc>
    <g id="Page-1" stroke="none" stroke-width="1" fill="none" fill-rule="evenodd">
        <g id="wahlkreise_gen" transform="translate(-109.000000, -535.000000)" fill="#000000">
            <g id="197" transform="translate(109.000000, 535.000000)">
                <polyline id="Path" points="57 11 59 13 60 13 60 12 62 12 62 13 63 13 63 15 63 18 63 19 62 21 63 22 63 23 64 24 66 26 68 28 69 30 68 32 67 32 66 33 65 33 65 34 65 35 64 35 63 35 62 35 62 34 63 33 62 33 62 32 61 31 58 29 57 29 56 30 55 33 56 33 56 34 55 34 54 34 53 34 53 33 53 32 54 32 53 31 52 30 51 30 50 31 49 29 46 27 44 26 45 27 44 28 43 28 43 27 42 28 40 30 40 31 40 32 41 32 42 32 42 33 43 34 42 34 42 35 41 37 40 41 39 42 38 45 40 48 40 49 40 52 40 54 39 54 38 54 37 55 38 57 38 58 37 59 36 59 34 59 33 59 32 60 31 60 31 61 31 62 29 63 26 67 24 68 23 68 22 69 22 68 21 68 20 67 19 67 19 66 18 65 18 64 17 64 16 64 15 64 14 64 13 63 11 61 10 60 9 58 9 57 8 57 8 56 7 56 7 55 7 54 6 54 6 52 5 50 5 49 5 48 4 47 3 47 3 46 2 46 1 46 0 46 0 45 0 44 0 40 1 40 3 40 4 40 5 40 6 40 7 40 10 38 11 38 12 37 13 33 13 32 12 31 14 29 15 29 17 29 19 29 20 29 21 29 22 29 26 27 26 26 27 26 28 25 29 26 31 26 32 26 32 25 32 24 32 23 34 22 36 22 37 22 39 21 39 19 38 17 37 16 38 16 39 16 41 15 41 14 42 13 43 12 44 12 45 13 46 13 46 11 46 8 46 3 46 2 47 2 48 0 49 0 50 0 51 1 51 2 53 2 52 4 52 5 51 7 51 8 53 8 54 9 57 11"></polyline>
            </g>
        </g>
    </g>
</svg>