<?xml version="1.0" encoding="UTF-8"?>
<svg width="40px" height="52px" viewBox="0 0 40 52" version="1.1" xmlns="http://www.w3.org/2000/svg" xmlns:xlink="http://www.w3.org/1999/xlink">
    <!-- Generator: Sketch 52.4 (67378) - http://www.bohemiancoding.com/sketch -->
    <title>199</title>
    <desc>Created with Sketch.</desc>
    <g id="Page-1" stroke="none" stroke-width="1" fill="none" fill-rule="evenodd">
        <g id="wahlkreise_gen" transform="translate(-121.000000, -597.000000)" fill="#000000">
            <g id="199" transform="translate(121.000000, 597.000000)">
                <polyline id="Path" points="23 2 26 8 25 8 24 8 23 8 23 9 23 10 25 11 27 14 31 12 31 11 31 9 32 8 34 9 35 9 35 10 35 11 34 11 34 12 35 14 34 15 34 16 33 16 32 21 31 23 31 26 31 27 29 31 29 34 31 34 35 38 36 41 36 42 37 42 39 43 40 43 40 44 39 44 38 47 38 48 34 51 34 52 33 52 32 50 32 49 30 46 29 46 29 45 30 44 30 43 27 39 27 38 26 38 25 38 24 38 23 37 22 37 23 36 23 35 23 34 22 34 20 30 19 30 18 30 17 30 17 29 17 28 18 28 19 28 22 28 20 26 19 27 17 27 16 27 15 27 14 26 13 26 12 27 12 28 9 33 8 34 7 34 6 33 7 33 6 33 5 33 4 35 4 36 4 37 3 38 3 39 2 39 1 39 0 35 1 33 0 32 1 32 1 31 2 30 3 30 4 28 4 27 3 25 2 23 2 22 3 21 4 18 4 17 4 15 5 15 6 14 6 13 6 12 6 9 6 5 6 4 7 4 7 5 8 5 9 6 10 6 10 7 11 6 12 6 14 5 17 1 19 0 20 0 22 2 23 2"></polyline>
            </g>
        </g>
    </g>
</svg>