<?xml version="1.0" encoding="UTF-8"?>
<svg width="75px" height="79px" viewBox="0 0 75 79" version="1.1" xmlns="http://www.w3.org/2000/svg" xmlns:xlink="http://www.w3.org/1999/xlink">
    <!-- Generator: Sketch 52.4 (67378) - http://www.bohemiancoding.com/sketch -->
    <title>200</title>
    <desc>Created with Sketch.</desc>
    <g id="Page-1" stroke="none" stroke-width="1" fill="none" fill-rule="evenodd">
        <g id="wahlkreise_gen" transform="translate(-78.000000, -620.000000)" fill="#000000">
            <g id="200" transform="translate(78.000000, 620.000000)">
                <polyline id="Path" points="21 1 22 1 25 1 28 1 31 2 32 3 34 4 36 5 37 8 37 9 36 9 36 10 38 11 39 11 41 11 42 9 43 9 44 10 43 12 44 16 45 16 46 16 46 15 47 14 47 13 47 12 48 10 49 10 50 10 49 10 50 11 51 11 52 10 55 5 55 4 56 3 57 3 58 4 59 4 60 4 62 4 63 3 65 5 62 5 61 5 60 5 60 6 60 7 61 7 62 7 63 7 65 11 66 11 66 12 66 13 65 14 66 14 67 15 68 15 69 15 70 15 70 16 73 20 73 21 72 22 72 23 73 23 75 26 75 27 74 27 70 29 69 30 68 32 67 33 70 36 73 38 71 38 69 38 67 41 67 42 66 43 66 44 63 46 62 47 60 48 57 51 54 53 50 54 48 56 46 57 46 56 45 55 44 56 44 55 44 51 43 50 42 50 41 50 39 50 38 50 37 51 38 51 37 52 35 52 34 52 34 51 35 51 34 50 31 51 29 51 30 53 31 54 32 55 33 55 33 56 30 57 27 60 21 65 21 66 21 67 21 68 21 69 19 71 15 75 14 76 14 77 13 78 10 79 9 78 7 76 7 75 7 74 8 74 8 73 7 72 4 70 4 69 3 68 1 65 1 64 2 62 3 61 4 61 6 61 6 60 6 59 5 58 5 59 4 59 3 58 2 58 1 56 0 53 0 52 0 51 2 49 4 49 5 49 6 49 8 48 9 47 8 46 7 46 6 45 6 44 8 41 7 39 9 35 10 35 13 37 15 39 15 40 15 41 16 41 17 41 18 41 18 40 21 37 21 36 21 34 22 33 20 28 19 28 13 27 10 25 10 24 10 23 10 22 9 15 9 13 9 12 8 9 8 7 10 6 12 5 12 7 13 7 14 7 16 5 17 4 17 3 18 1 18 0 21 1"></polyline>
            </g>
        </g>
    </g>
</svg>