<?xml version="1.0" encoding="UTF-8"?>
<svg width="84px" height="75px" viewBox="0 0 84 75" version="1.1" xmlns="http://www.w3.org/2000/svg" xmlns:xlink="http://www.w3.org/1999/xlink">
    <!-- Generator: Sketch 52.4 (67378) - http://www.bohemiancoding.com/sketch -->
    <title>202</title>
    <desc>Created with Sketch.</desc>
    <g id="Page-1" stroke="none" stroke-width="1" fill="none" fill-rule="evenodd">
        <g id="wahlkreise_gen" transform="translate(-16.000000, -604.000000)" fill="#000000">
            <g id="202" transform="translate(16.000000, 604.000000)">
                <polyline id="Path" points="29 7 32 6 34 4 40 1 42 1 43 3 43 4 43 5 44 6 45 6 46 6 46 5 46 3 47 3 48 4 48 5 50 7 51 7 52 6 55 5 56 5 57 4 58 5 58 7 57 8 57 9 61 10 62 9 65 10 67 12 68 12 69 12 70 11 69 11 70 10 70 9 72 8 73 7 73 6 75 7 76 8 76 9 75 10 73 11 72 12 72 13 74 14 75 15 76 15 75 14 76 14 77 14 78 15 79 15 80 16 80 17 79 19 79 20 78 21 76 23 75 23 74 23 74 21 72 22 70 23 70 25 71 28 71 29 71 31 72 38 72 39 72 40 72 41 75 43 81 44 82 44 84 49 83 50 83 52 83 53 80 56 80 57 79 57 78 57 77 57 77 56 77 55 75 53 72 51 71 51 69 55 70 57 68 60 68 61 69 62 70 62 71 63 70 64 68 65 67 65 66 65 64 65 62 67 61 68 60 69 57 70 55 69 55 68 55 67 53 66 52 65 52 66 51 66 49 65 49 64 48 63 47 62 46 63 45 64 45 65 42 67 41 67 40 67 39 67 34 69 33 69 33 70 28 74 27 75 26 75 25 75 22 74 22 73 21 73 19 70 18 70 17 70 14 67 11 66 11 65 10 65 10 64 9 64 9 63 8 63 8 62 8 60 8 59 8 58 8 56 5 54 4 54 4 55 5 55 5 56 4 56 3 54 3 53 3 52 4 52 3 51 2 51 2 50 1 50 2 50 2 49 2 48 1 48 0 42 0 41 0 38 1 36 2 32 2 30 1 30 2 28 2 27 3 27 4 27 5 26 5 27 6 27 6 26 6 23 6 22 5 22 5 21 5 20 5 19 9 16 11 16 14 16 15 14 15 13 15 12 17 9 17 8 18 8 21 9 25 9 26 9 27 8 26 7 25 6 25 4 24 3 24 2 24 1 24 0 26 0 29 2 29 4 30 4 29 5 29 7"></polyline>
            </g>
        </g>
    </g>
</svg>