<?xml version="1.0" encoding="UTF-8"?>
<svg width="57px" height="28px" viewBox="0 0 57 28" version="1.1" xmlns="http://www.w3.org/2000/svg" xmlns:xlink="http://www.w3.org/1999/xlink">
    <!-- Generator: Sketch 52.4 (67378) - http://www.bohemiancoding.com/sketch -->
    <title>205</title>
    <desc>Created with Sketch.</desc>
    <g id="Page-1" stroke="none" stroke-width="1" fill="none" fill-rule="evenodd">
        <g id="wahlkreise_gen" transform="translate(-145.000000, -647.000000)" fill="#000000">
            <g id="205" transform="translate(145.000000, 647.000000)">
                <polyline id="Path" points="16 10 16 11 16 12 16 13 17 13 17 14 18 14 23 14 25 14 26 13 29 12 33 10 36 9 41 7 43 6 44 6 45 6 47 7 48 7 50 9 51 10 52 12 54 13 55 14 55 15 56 16 56 17 56 18 57 18 57 19 53 18 51 19 50 21 49 22 49 23 49 25 49 26 47 27 45 28 44 27 41 25 38 24 35 25 33 26 32 26 31 25 29 25 27 25 27 24 27 23 28 23 28 22 27 21 26 21 26 22 24 22 23 22 23 21 19 21 19 20 16 18 13 19 11 17 11 16 8 12 7 11 6 10 6 11 3 9 0 6 1 5 2 3 3 2 7 0 8 0 9 2 9 3 10 4 14 8 15 8 15 9 16 9 16 10"></polyline>
            </g>
        </g>
    </g>
</svg>