<?xml version="1.0" encoding="UTF-8"?>
<svg width="23px" height="38px" viewBox="0 0 23 38" version="1.1" xmlns="http://www.w3.org/2000/svg" xmlns:xlink="http://www.w3.org/1999/xlink">
    <!-- Generator: Sketch 52.4 (67378) - http://www.bohemiancoding.com/sketch -->
    <title>207</title>
    <desc>Created with Sketch.</desc>
    <g id="Page-1" stroke="none" stroke-width="1" fill="none" fill-rule="evenodd">
        <g id="wahlkreise_gen" transform="translate(-192.000000, -709.000000)" fill="#000000">
            <g id="207" transform="translate(192.000000, 709.000000)">
                <polyline id="Path" points="17 13 19 17 19 18 19 19 18 19 17 20 17 21 18 21 19 21 20 21 21 21 22 21 22 22 23 22 23 23 23 24 22 24 22 25 22 26 21 25 20 25 18 26 17 26 16 26 15 27 14 28 12 25 11 25 10 25 8 28 10 33 10 34 11 34 11 35 7 37 7 38 6 33 5 30 2 24 1 24 0 25 0 23 0 22 1 22 2 21 4 21 4 20 3 17 2 17 1 15 3 13 4 5 4 3 6 2 10 1 11 0 12 0 13 1 15 2 16 3 16 4 16 9 17 13"></polyline>
            </g>
        </g>
    </g>
</svg>