<?xml version="1.0" encoding="UTF-8"?>
<svg width="57px" height="50px" viewBox="0 0 57 50" version="1.1" xmlns="http://www.w3.org/2000/svg" xmlns:xlink="http://www.w3.org/1999/xlink">
    <!-- Generator: Sketch 52.4 (67378) - http://www.bohemiancoding.com/sketch -->
    <title>208</title>
    <desc>Created with Sketch.</desc>
    <g id="Page-1" stroke="none" stroke-width="1" fill="none" fill-rule="evenodd">
        <g id="wahlkreise_gen" transform="translate(-157.000000, -706.000000)" fill="#000000">
            <g id="208" transform="translate(157.000000, 706.000000)">
                <polyline id="Path" points="34 4 36 5 37 5 39 6 39 8 38 16 36 18 37 20 38 20 39 23 39 24 37 24 36 25 35 25 35 26 35 28 36 27 37 27 40 33 41 36 42 41 42 40 46 38 46 37 45 37 45 36 43 31 45 28 46 28 47 28 49 31 50 30 51 29 52 29 53 29 55 28 56 28 57 29 57 30 56 31 57 32 57 33 57 34 57 35 57 36 56 36 56 37 55 37 55 38 54 38 54 39 53 39 53 40 53 41 54 41 54 42 55 42 56 42 56 43 56 44 54 45 52 48 51 49 50 50 49 49 46 47 45 45 42 43 42 42 41 42 39 43 38 43 37 43 36 43 32 43 32 42 29 41 28 41 27 41 26 41 24 41 23 40 21 40 19 40 17 40 16 40 16 39 15 38 15 37 14 37 10 40 9 41 8 41 7 40 7 41 6 41 4 41 3 41 0 39 0 38 0 37 1 35 2 34 2 33 3 33 8 31 8 30 9 31 13 26 12 24 11 22 11 19 11 18 12 18 14 18 16 17 16 16 18 15 19 13 19 12 20 12 20 11 21 11 23 9 24 7 25 4 27 2 28 0 30 0 31 0 34 3 34 4"></polyline>
            </g>
        </g>
    </g>
</svg>