<?xml version="1.0" encoding="UTF-8"?>
<svg width="78px" height="53px" viewBox="0 0 78 53" version="1.1" xmlns="http://www.w3.org/2000/svg" xmlns:xlink="http://www.w3.org/1999/xlink">
    <!-- Generator: Sketch 52.4 (67378) - http://www.bohemiancoding.com/sketch -->
    <title>209</title>
    <desc>Created with Sketch.</desc>
    <g id="Page-1" stroke="none" stroke-width="1" fill="none" fill-rule="evenodd">
        <g id="wahlkreise_gen" transform="translate(-108.000000, -688.000000)" fill="#000000">
            <g id="209" transform="translate(108.000000, 688.000000)">
                <polyline id="Path" points="56 1 56 2 58 3 59 3 61 6 61 7 61 8 62 9 63 9 64 9 65 8 66 7 73 9 73 10 74 11 75 13 75 12 77 14 77 15 78 15 78 16 78 17 77 18 76 20 74 22 73 25 72 27 70 29 69 29 69 30 68 30 68 31 67 33 65 34 65 35 63 36 61 36 60 36 60 37 60 40 61 42 62 44 58 49 57 48 57 49 52 51 51 51 51 52 50 53 49 53 48 52 47 51 44 48 40 48 39 48 39 49 38 49 36 46 35 44 34 43 34 44 33 44 32 43 33 43 32 42 30 38 27 36 25 35 24 35 22 35 20 35 20 36 18 37 18 38 18 39 18 40 18 41 18 42 15 44 13 46 12 49 13 50 11 51 10 51 10 52 4 48 4 46 1 42 0 42 0 41 1 40 2 40 4 38 5 38 5 37 4 36 3 36 3 32 4 31 3 29 3 27 5 26 6 26 7 25 8 24 9 23 10 21 11 21 13 21 13 22 15 22 16 22 17 22 17 21 17 16 16 16 16 15 17 13 17 12 18 12 18 11 20 11 22 11 23 11 24 11 24 10 24 8 24 7 26 8 27 9 27 10 28 10 31 11 34 10 35 9 35 8 36 8 36 9 36 13 35 14 35 15 35 16 36 17 37 16 38 16 39 15 41 12 42 9 42 8 42 7 41 7 43 4 45 3 45 2 44 2 46 1 47 1 50 2 50 1 51 1 51 0 53 0 56 1"></polyline>
            </g>
        </g>
    </g>
</svg>