<?xml version="1.0" encoding="UTF-8"?>
<svg width="18px" height="21px" viewBox="0 0 18 21" version="1.1" xmlns="http://www.w3.org/2000/svg" xmlns:xlink="http://www.w3.org/1999/xlink">
    <!-- Generator: Sketch 52.4 (67378) - http://www.bohemiancoding.com/sketch -->
    <title>21</title>
    <desc>Created with Sketch.</desc>
    <g id="Page-1" stroke="none" stroke-width="1" fill="none" fill-rule="evenodd">
        <g id="wahlkreise_gen" transform="translate(-331.000000, -172.000000)" fill="#000000">
            <g id="21" transform="translate(331.000000, 172.000000)">
                <polyline id="Path" points="14 8 13 11 14 11 12 13 9 13 9 14 7 15 6 16 6 17 6 19 6 20 3 21 3 20 2 20 0 16 0 15 1 15 1 14 2 13 1 11 2 12 2 11 2 10 2 9 2 8 3 7 6 7 8 7 8 5 9 5 9 4 8 4 8 3 9 2 10 2 11 2 13 2 15 0 16 0 18 0 18 1 17 2 17 3 15 5 14 7 14 8"></polyline>
            </g>
        </g>
    </g>
</svg>