<?xml version="1.0" encoding="UTF-8"?>
<svg width="53px" height="60px" viewBox="0 0 53 60" version="1.1" xmlns="http://www.w3.org/2000/svg" xmlns:xlink="http://www.w3.org/1999/xlink">
    <!-- Generator: Sketch 52.4 (67378) - http://www.bohemiancoding.com/sketch -->
    <title>210</title>
    <desc>Created with Sketch.</desc>
    <g id="Page-1" stroke="none" stroke-width="1" fill="none" fill-rule="evenodd">
        <g id="wahlkreise_gen" transform="translate(-111.000000, -723.000000)" fill="#000000">
            <g id="210" transform="translate(111.000000, 723.000000)">
                <polyline id="Path" points="29 8 30 9 31 9 31 8 32 9 33 11 35 14 36 14 36 13 37 13 41 13 44 16 45 17 46 18 47 18 46 20 46 21 46 22 49 24 50 28 49 28 48 29 47 29 46 29 46 30 46 32 47 32 47 31 48 31 50 32 52 34 52 35 53 36 53 38 53 41 53 42 53 43 52 45 51 46 50 45 48 45 48 47 48 48 48 49 49 49 49 50 50 50 51 50 51 49 52 49 53 49 53 50 53 51 53 53 52 53 51 56 51 58 51 57 52 57 53 58 53 59 51 58 49 60 48 60 47 59 44 56 43 56 41 57 41 58 40 58 37 59 32 58 29 57 29 56 29 55 26 53 24 54 23 54 22 53 21 53 20 51 17 46 18 44 17 42 16 42 14 42 13 42 12 42 13 41 13 40 11 40 10 41 9 41 8 41 7 41 6 41 6 42 7 43 5 43 5 42 4 41 4 40 4 39 3 39 1 37 0 34 0 33 2 30 5 29 7 28 7 27 8 26 9 23 9 22 9 17 10 16 10 15 9 14 10 11 12 9 15 7 15 6 15 5 15 4 15 3 15 2 17 1 17 0 19 0 21 0 22 0 24 1 27 3 29 7 30 8 29 8"></polyline>
            </g>
        </g>
    </g>
</svg>