<?xml version="1.0" encoding="UTF-8"?>
<svg width="79px" height="50px" viewBox="0 0 79 50" version="1.1" xmlns="http://www.w3.org/2000/svg" xmlns:xlink="http://www.w3.org/1999/xlink">
    <!-- Generator: Sketch 52.4 (67378) - http://www.bohemiancoding.com/sketch -->
    <title>212</title>
    <desc>Created with Sketch.</desc>
    <g id="Page-1" stroke="none" stroke-width="1" fill="none" fill-rule="evenodd">
        <g id="wahlkreise_gen" transform="translate(-520.000000, -855.000000)" fill="#000000">
            <g id="212" transform="translate(520.000000, 855.000000)">
                <polyline id="Path" points="49 9 49 10 50 9 52 10 52 11 55 12 62 13 64 13 66 13 68 14 74 20 75 23 74 24 76 26 77 26 77 27 78 27 79 27 79 28 77 28 73 28 73 29 72 29 72 30 72 31 71 32 71 33 70 35 66 39 64 40 63 41 63 40 60 41 59 41 59 42 59 43 59 44 60 46 60 47 57 49 52 50 51 48 50 47 48 46 48 44 48 42 48 41 47 40 46 40 45 40 45 38 46 36 47 35 46 35 44 36 40 36 39 36 39 37 40 37 39 39 38 41 36 42 35 42 35 41 33 41 31 41 30 40 29 40 28 40 28 41 28 42 27 42 26 43 23 43 19 41 17 40 17 39 16 39 15 41 13 45 12 47 10 47 10 45 9 45 10 43 11 43 9 41 8 41 6 42 5 42 3 42 2 41 2 40 1 40 0 38 0 37 2 37 3 37 3 36 4 36 6 36 8 34 10 32 11 31 13 30 15 30 15 31 16 31 17 31 17 29 16 28 16 23 16 22 17 21 18 20 19 20 19 19 18 15 19 15 19 14 20 14 22 14 23 14 23 15 23 16 24 16 27 14 28 13 28 12 30 10 31 10 32 10 33 8 34 6 34 5 35 3 37 2 37 1 38 0 41 1 42 2 48 7 49 9"></polyline>
            </g>
        </g>
    </g>
</svg>