<?xml version="1.0" encoding="UTF-8"?>
<svg width="77px" height="70px" viewBox="0 0 77 70" version="1.1" xmlns="http://www.w3.org/2000/svg" xmlns:xlink="http://www.w3.org/1999/xlink">
    <!-- Generator: Sketch 52.4 (67378) - http://www.bohemiancoding.com/sketch -->
    <title>214</title>
    <desc>Created with Sketch.</desc>
    <g id="Page-1" stroke="none" stroke-width="1" fill="none" fill-rule="evenodd">
        <g id="wahlkreise_gen" transform="translate(-441.000000, -809.000000)" fill="#000000">
            <g id="214" transform="translate(441.000000, 809.000000)">
                <polyline id="Path" points="43 2 46 3 47 3 46 7 44 9 44 13 44 14 44 15 45 15 46 16 47 17 49 21 49 22 48 23 48 24 48 25 49 25 53 27 55 27 55 26 56 25 57 25 61 28 63 29 65 28 66 28 67 28 67 29 68 29 69 30 70 30 71 29 71 30 72 37 71 39 75 40 75 41 77 47 77 48 76 48 75 48 74 47 73 46 73 45 72 45 71 45 71 46 70 46 69 47 66 50 63 51 62 52 59 55 57 58 55 63 54 67 53 68 53 69 50 69 50 70 48 70 43 70 42 70 42 69 40 68 40 67 39 67 39 66 39 62 38 61 34 60 33 60 32 57 32 56 33 56 33 55 33 52 32 50 31 48 29 49 27 50 26 50 26 51 26 52 25 53 24 53 22 51 21 50 21 49 19 48 19 47 18 47 17 47 17 48 16 48 15 48 15 47 14 45 12 46 11 46 7 42 7 41 6 41 6 40 6 38 2 36 2 34 2 33 2 31 2 30 1 29 1 30 0 29 2 27 6 22 7 22 8 21 11 22 14 22 16 21 15 20 17 19 18 19 20 23 21 24 22 23 23 23 26 22 26 19 27 16 27 15 26 15 25 15 25 14 25 13 26 12 27 11 28 11 29 11 30 10 30 9 30 10 31 10 32 10 33 10 35 9 36 8 37 5 37 4 36 4 37 3 39 0 40 0 43 0 43 1 43 2"></polyline>
            </g>
        </g>
    </g>
</svg>