<?xml version="1.0" encoding="UTF-8"?>
<svg width="50px" height="48px" viewBox="0 0 50 48" version="1.1" xmlns="http://www.w3.org/2000/svg" xmlns:xlink="http://www.w3.org/1999/xlink">
    <!-- Generator: Sketch 52.4 (67378) - http://www.bohemiancoding.com/sketch -->
    <title>215</title>
    <desc>Created with Sketch.</desc>
    <g id="Page-1" stroke="none" stroke-width="1" fill="none" fill-rule="evenodd">
        <g id="wahlkreise_gen" transform="translate(-430.000000, -856.000000)" fill="#000000">
            <g id="215" transform="translate(430.000000, 856.000000)">
                <polyline id="Path" points="30 1 32 2 32 3 33 4 35 6 36 6 37 5 37 4 37 3 38 3 40 2 42 1 43 3 44 5 44 8 44 9 43 9 43 10 44 13 45 13 49 14 50 15 50 19 48 20 45 22 44 25 44 26 43 27 43 28 43 29 42 30 41 30 40 31 40 32 38 32 37 32 36 33 35 33 34 34 32 38 32 39 31 41 28 43 27 44 27 43 26 42 24 42 22 42 20 43 18 45 15 45 13 45 13 46 12 47 13 47 12 47 9 48 6 46 6 45 6 44 6 43 5 42 5 41 3 40 2 40 1 40 0 37 2 37 3 37 3 36 3 35 5 34 4 31 3 30 4 27 6 24 6 23 7 23 8 24 8 25 9 26 10 25 10 24 10 23 10 22 10 21 10 19 11 19 11 18 14 16 14 15 14 13 14 12 15 11 16 8 17 5 18 3 19 4 20 3 21 3 21 2 22 2 24 1 26 1 26 0 26 1 27 1 28 1 28 0 29 0 30 0 30 1"></polyline>
            </g>
        </g>
    </g>
</svg>