<?xml version="1.0" encoding="UTF-8"?>
<svg width="14px" height="15px" viewBox="0 0 14 15" version="1.1" xmlns="http://www.w3.org/2000/svg" xmlns:xlink="http://www.w3.org/1999/xlink">
    <!-- Generator: Sketch 52.4 (67378) - http://www.bohemiancoding.com/sketch -->
    <title>22</title>
    <desc>Created with Sketch.</desc>
    <g id="Page-1" stroke="none" stroke-width="1" fill="none" fill-rule="evenodd">
        <g id="wahlkreise_gen" transform="translate(-337.000000, -180.000000)" fill="#000000">
            <g id="22" transform="translate(337.000000, 180.000000)">
                <polyline id="Path" points="10 1 11 1 12 2 14 5 14 6 13 7 13 6 12 9 12 10 12 12 10 12 9 12 9 13 8 14 9 14 8 14 7 14 6 14 5 14 3 15 0 15 0 14 0 13 1 13 2 11 0 9 0 8 1 7 3 6 3 5 6 5 8 3 7 3 8 0 10 1"></polyline>
            </g>
        </g>
    </g>
</svg>