<?xml version="1.0" encoding="UTF-8"?>
<svg width="63px" height="74px" viewBox="0 0 63 74" version="1.1" xmlns="http://www.w3.org/2000/svg" xmlns:xlink="http://www.w3.org/1999/xlink">
    <!-- Generator: Sketch 52.4 (67378) - http://www.bohemiancoding.com/sketch -->
    <title>226</title>
    <desc>Created with Sketch.</desc>
    <g id="Page-1" stroke="none" stroke-width="1" fill="none" fill-rule="evenodd">
        <g id="wahlkreise_gen" transform="translate(-407.000000, -921.000000)" fill="#000000">
            <g id="226" transform="translate(407.000000, 921.000000)">
                <polyline id="Path" points="41 7 41 9 41 10 41 9 46 10 49 9 50 13 50 14 50 16 51 17 52 17 53 17 53 18 54 19 54 20 56 21 59 21 60 24 60 25 61 26 63 27 62 27 61 28 59 29 58 29 57 31 57 32 58 32 57 32 57 33 56 33 55 34 56 36 52 38 51 38 50 38 49 39 49 40 49 41 49 42 50 43 50 44 49 46 49 49 52 52 54 55 56 56 57 56 59 57 59 58 60 59 62 59 62 60 61 63 62 63 62 65 62 66 59 66 56 66 55 66 52 70 52 71 51 72 50 72 46 73 46 72 47 70 48 69 47 68 44 68 40 70 38 71 37 73 36 73 35 73 30 73 27 74 26 74 24 73 23 73 23 71 24 71 24 70 25 70 25 69 22 67 21 65 20 64 19 64 20 64 20 63 20 62 18 62 17 62 16 62 16 63 15 63 14 63 14 62 14 60 17 57 16 55 15 55 14 52 14 51 15 50 16 50 17 50 19 49 20 47 21 45 20 45 17 42 15 40 13 39 12 39 11 39 10 40 8 40 7 40 6 39 6 38 7 38 10 32 10 31 8 31 7 32 6 33 5 34 3 36 2 36 0 34 0 33 1 33 2 33 2 32 2 31 2 29 2 26 3 26 4 26 4 23 3 22 3 20 3 16 4 16 6 14 7 14 10 14 11 15 11 14 11 13 12 12 13 12 14 12 20 11 20 12 21 13 22 13 23 12 22 12 22 11 22 10 23 9 24 7 25 7 26 7 27 7 27 8 30 8 31 8 32 7 33 5 37 3 37 2 37 1 38 0 39 1 40 1 43 3 43 6 41 7"></polyline>
            </g>
        </g>
    </g>
</svg>