<?xml version="1.0" encoding="UTF-8"?>
<svg width="94px" height="51px" viewBox="0 0 94 51" version="1.1" xmlns="http://www.w3.org/2000/svg" xmlns:xlink="http://www.w3.org/1999/xlink">
    <!-- Generator: Sketch 52.4 (67378) - http://www.bohemiancoding.com/sketch -->
    <title>227</title>
    <desc>Created with Sketch.</desc>
    <g id="Page-1" stroke="none" stroke-width="1" fill="none" fill-rule="evenodd">
        <g id="wahlkreise_gen" transform="translate(-578.000000, -780.000000)" fill="#000000">
            <g id="227" transform="translate(578.000000, 780.000000)">
                <polyline id="Path" points="63 4 64 4 64 3 64 2 64 1 66 0 70 0 71 0 74 4 75 5 76 7 77 10 79 12 80 12 83 11 84 11 86 14 87 17 88 17 90 18 92 22 92 23 91 23 92 24 92 25 93 25 94 25 94 26 92 30 91 32 91 33 90 32 86 32 85 32 85 34 85 35 86 36 85 36 80 37 75 37 75 38 74 38 74 37 70 36 70 35 70 34 67 32 66 32 65 32 63 33 63 34 62 34 61 34 61 33 60 33 60 32 60 31 59 31 59 30 59 29 58 29 53 29 52 29 52 30 52 31 53 31 52 31 52 32 51 32 51 33 52 34 53 34 54 36 54 38 54 39 54 40 53 40 53 41 50 42 49 42 48 42 48 41 47 40 46 40 44 39 43 39 42 39 42 40 42 41 41 42 40 42 38 43 36 43 33 42 32 40 32 41 31 42 31 43 31 44 31 45 30 48 29 48 27 48 25 50 24 51 23 51 20 50 19 49 19 46 19 45 18 45 14 44 12 43 8 42 5 37 3 33 3 32 2 31 2 27 2 26 2 25 1 25 0 24 1 23 1 22 2 22 3 22 4 23 5 23 6 23 7 23 7 22 8 22 9 21 9 20 8 19 8 17 7 14 8 14 8 13 9 13 10 12 11 12 11 11 10 10 9 7 10 6 12 6 12 7 13 7 13 8 14 8 15 8 17 7 18 6 19 6 22 6 23 7 24 9 23 9 22 9 24 12 26 14 27 14 28 14 29 14 31 14 38 15 39 15 39 16 38 16 40 17 41 17 43 16 45 14 46 14 46 11 46 7 45 4 45 3 47 4 48 4 49 4 50 4 51 2 52 2 52 1 52 0 55 0 56 0 57 0 61 3 63 4"></polyline>
            </g>
        </g>
    </g>
</svg>