<?xml version="1.0" encoding="UTF-8"?>
<svg width="72px" height="61px" viewBox="0 0 72 61" version="1.1" xmlns="http://www.w3.org/2000/svg" xmlns:xlink="http://www.w3.org/1999/xlink">
    <!-- Generator: Sketch 52.4 (67378) - http://www.bohemiancoding.com/sketch -->
    <title>229</title>
    <desc>Created with Sketch.</desc>
    <g id="Page-1" stroke="none" stroke-width="1" fill="none" fill-rule="evenodd">
        <g id="wahlkreise_gen" transform="translate(-600.000000, -809.000000)" fill="#000000">
            <g id="229" transform="translate(600.000000, 809.000000)">
                <polyline id="Path" points="38 3 38 4 39 4 39 5 40 5 41 5 41 4 43 3 44 3 45 3 48 5 48 6 48 7 52 8 52 9 53 9 53 8 58 8 63 7 64 7 63 6 63 5 63 3 64 3 68 3 69 4 71 5 72 14 72 16 71 21 71 22 70 22 68 24 67 23 66 26 66 28 65 29 65 30 63 29 60 28 58 26 58 25 57 25 55 25 52 24 52 25 51 25 51 24 50 24 48 23 48 22 47 22 47 21 46 21 45 23 45 24 44 24 43 26 42 26 41 26 41 25 40 25 39 25 39 26 39 27 40 27 41 31 41 32 40 35 40 37 39 37 39 38 39 39 39 40 40 40 40 41 40 42 39 48 39 49 38 50 32 57 31 57 29 59 26 60 26 61 25 61 24 61 23 61 22 61 21 61 20 61 19 61 18 60 16 55 15 55 14 54 13 54 13 55 12 55 11 54 10 52 10 51 11 50 11 49 13 48 14 48 15 48 17 46 18 46 18 45 17 44 14 42 13 42 12 37 12 36 11 36 10 36 9 36 10 33 10 30 11 30 10 29 8 28 7 28 5 28 0 24 0 23 1 22 2 22 3 21 5 19 7 19 8 19 9 16 9 15 9 14 9 13 10 12 10 11 11 13 14 14 16 14 18 13 19 13 20 12 20 11 20 10 21 10 22 10 24 11 25 11 26 12 26 13 27 13 28 13 31 12 31 11 32 11 32 10 32 9 32 7 31 5 30 5 29 4 29 3 30 3 30 2 31 2 30 2 30 1 30 0 31 0 36 0 37 0 37 1 37 2 38 2 38 3"></polyline>
            </g>
        </g>
    </g>
</svg>