<?xml version="1.0" encoding="UTF-8"?>
<svg width="71px" height="59px" viewBox="0 0 71 59" version="1.1" xmlns="http://www.w3.org/2000/svg" xmlns:xlink="http://www.w3.org/1999/xlink">
    <!-- Generator: Sketch 52.4 (67378) - http://www.bohemiancoding.com/sketch -->
    <title>233</title>
    <desc>Created with Sketch.</desc>
    <g id="Page-1" stroke="none" stroke-width="1" fill="none" fill-rule="evenodd">
        <g id="wahlkreise_gen" transform="translate(-484.000000, -754.000000)" fill="#000000">
            <g id="233" transform="translate(484.000000, 753.000000)">
                <polyline id="Path" points="45 6 46 6 47 6 48 6 49 9 52 8 53 8 54 9 55 9 55 10 56 12 55 12 55 13 56 17 56 18 57 18 60 17 62 17 61 16 60 15 61 15 62 15 64 16 65 16 65 17 66 21 65 22 69 25 70 24 71 26 71 31 71 32 70 32 69 31 68 31 67 33 68 37 68 39 66 45 63 47 61 48 60 48 59 47 57 47 52 50 51 51 49 53 46 56 45 57 42 58 41 58 41 59 42 60 39 59 39 57 39 56 39 55 39 54 39 52 38 50 39 49 39 48 40 47 41 47 41 48 41 46 41 45 40 43 39 42 38 42 37 42 36 41 37 40 36 38 35 37 31 36 28 36 23 36 23 35 22 32 20 29 17 28 14 28 13 28 11 30 11 31 10 33 9 33 6 32 5 30 3 29 2 29 0 30 0 29 0 27 1 21 3 19 4 18 5 18 6 18 7 18 7 17 7 16 7 15 8 14 9 13 10 12 11 11 11 10 11 9 12 8 13 9 13 10 15 11 16 10 17 9 18 9 20 8 22 6 23 5 24 6 26 6 28 6 29 7 29 8 31 9 37 11 37 10 38 9 38 8 40 7 41 6 41 3 43 1 43 0 43 1 44 1 44 3 44 4 45 5 45 6"></polyline>
            </g>
        </g>
    </g>
</svg>