<?xml version="1.0" encoding="UTF-8"?>
<svg width="83px" height="71px" viewBox="0 0 83 71" version="1.1" xmlns="http://www.w3.org/2000/svg" xmlns:xlink="http://www.w3.org/1999/xlink">
    <!-- Generator: Sketch 52.4 (67378) - http://www.bohemiancoding.com/sketch -->
    <title>235</title>
    <desc>Created with Sketch.</desc>
    <g id="Page-1" stroke="none" stroke-width="1" fill="none" fill-rule="evenodd">
        <g id="wahlkreise_gen" transform="translate(-478.000000, -645.000000)" fill="#000000">
            <g id="235" transform="translate(478.000000, 645.000000)">
                <polyline id="Path" points="56 0 56 1 57 2 62 5 64 6 66 7 71 9 72 10 71 12 72 15 76 16 76 17 77 18 77 19 76 19 76 20 75 20 75 21 74 22 72 27 71 29 70 32 70 33 71 34 70 34 65 38 65 39 65 40 66 41 66 42 69 45 72 46 75 47 76 47 76 49 76 53 76 54 76 55 77 56 78 56 78 55 79 55 79 56 80 58 80 62 81 63 81 64 82 65 83 66 81 65 80 64 79 65 79 66 78 66 77 67 74 65 73 65 71 67 69 68 68 68 67 68 64 69 62 71 63 71 62 71 61 71 58 69 54 67 53 65 52 64 53 64 53 63 51 61 48 60 47 62 48 62 48 63 43 66 42 67 42 66 42 65 41 64 35 63 31 62 31 60 31 59 30 55 27 55 24 55 22 56 17 55 16 54 14 54 13 55 13 56 12 56 11 57 10 58 9 58 8 58 6 58 4 58 3 58 2 58 2 57 2 53 3 52 3 48 2 46 1 42 0 41 0 40 0 38 0 35 1 34 3 35 5 35 6 34 6 33 8 30 9 30 12 30 14 30 16 29 17 28 19 29 18 27 18 24 18 23 17 20 15 18 14 14 15 14 16 14 17 14 19 14 22 12 22 11 22 12 23 12 25 12 30 11 32 10 33 10 36 10 37 10 38 11 39 11 46 7 47 6 47 5 48 3 50 3 51 1 51 0 53 0 55 0 56 0"></polyline>
            </g>
        </g>
    </g>
</svg>