<?xml version="1.0" encoding="UTF-8"?>
<svg width="65px" height="67px" viewBox="0 0 65 67" version="1.1" xmlns="http://www.w3.org/2000/svg" xmlns:xlink="http://www.w3.org/1999/xlink">
    <!-- Generator: Sketch 52.4 (67378) - http://www.bohemiancoding.com/sketch -->
    <title>237</title>
    <desc>Created with Sketch.</desc>
    <g id="Page-1" stroke="none" stroke-width="1" fill="none" fill-rule="evenodd">
        <g id="wahlkreise_gen" transform="translate(-435.000000, -638.000000)" fill="#000000">
            <g id="237" transform="translate(435.000000, 638.000000)">
                <polyline id="Path" points="54 0 55 3 56 3 57 4 57 5 56 5 59 8 62 10 62 11 62 12 63 14 64 17 65 18 65 19 62 21 60 21 59 21 58 21 57 21 58 25 60 27 61 30 61 31 61 34 62 36 60 35 59 36 57 37 55 37 52 37 51 37 49 40 49 41 48 42 46 42 44 41 43 42 43 45 43 47 43 48 43 47 42 48 40 48 40 49 40 50 40 51 40 52 39 52 38 53 37 54 36 56 36 57 37 58 37 59 37 60 37 61 37 62 37 63 36 63 35 63 34 63 34 62 33 62 32 62 30 64 27 65 27 66 27 67 26 67 24 66 24 65 24 64 22 60 21 60 20 61 19 61 19 62 19 63 19 64 18 64 16 67 15 67 14 67 13 67 12 67 12 66 10 65 9 64 7 63 5 61 8 60 9 60 9 59 7 55 6 55 5 53 4 51 3 50 0 48 0 47 0 46 1 45 1 44 2 43 2 41 1 40 1 39 2 38 4 38 4 39 5 39 9 38 9 36 9 35 10 34 9 34 7 33 6 33 6 31 7 29 7 28 7 27 7 26 7 25 6 25 6 24 7 22 9 21 10 20 10 19 11 17 12 19 13 21 16 22 18 23 19 24 20 25 21 25 22 26 22 25 24 22 24 20 26 19 28 19 38 15 39 14 39 13 40 12 42 11 43 7 44 7 45 6 46 5 46 4 45 3 45 0 46 0 48 0 50 0 51 0 53 0 54 0"></polyline>
            </g>
        </g>
    </g>
</svg>