<?xml version="1.0" encoding="UTF-8"?>
<svg width="76px" height="57px" viewBox="0 0 76 57" version="1.1" xmlns="http://www.w3.org/2000/svg" xmlns:xlink="http://www.w3.org/1999/xlink">
    <!-- Generator: Sketch 52.4 (67378) - http://www.bohemiancoding.com/sketch -->
    <title>238</title>
    <desc>Created with Sketch.</desc>
    <g id="Page-1" stroke="none" stroke-width="1" fill="none" fill-rule="evenodd">
        <g id="wahlkreise_gen" transform="translate(-399.000000, -587.000000)" fill="#000000">
            <g id="238" transform="translate(399.000000, 587.000000)">
                <polyline id="Path" points="60 3 60 4 59 4 58 4 58 7 58 10 59 10 59 11 61 12 64 12 64 13 64 16 68 18 70 18 71 17 71 16 73 15 74 15 74 16 74 18 74 19 75 22 75 23 76 23 75 24 73 26 72 25 71 23 70 21 69 21 68 25 69 26 69 27 70 27 71 28 71 29 71 30 70 31 70 32 69 32 69 33 66 35 65 36 61 40 59 42 60 42 60 43 61 44 59 45 58 45 57 45 56 44 57 44 57 43 56 43 55 44 55 45 55 46 54 47 53 47 52 47 48 47 46 46 45 44 43 42 41 42 41 43 40 45 39 44 38 44 38 43 37 43 33 41 30 42 27 41 24 41 23 42 24 42 24 43 25 44 25 46 23 46 21 47 18 50 18 51 19 51 20 53 20 55 19 55 19 54 18 54 16 55 15 55 15 56 15 57 13 57 13 56 13 55 13 54 14 53 15 51 14 50 13 49 12 49 9 50 8 50 8 51 7 51 6 50 6 49 6 48 6 47 6 46 6 45 6 44 4 41 4 40 3 40 2 40 2 37 6 37 9 38 10 39 10 38 11 38 12 38 12 37 12 36 12 35 11 34 8 33 1 28 1 26 0 24 0 23 0 22 2 22 2 23 3 23 4 23 4 22 5 21 6 20 9 19 14 18 18 18 19 18 19 19 21 20 23 22 27 23 27 24 28 24 31 23 31 22 31 21 32 21 33 21 35 23 37 25 37 26 37 27 36 27 36 28 35 28 35 29 35 30 36 31 36 32 39 33 39 34 40 34 40 33 40 32 41 31 42 32 44 33 45 33 45 34 45 33 46 33 46 28 45 26 46 25 46 23 47 22 48 22 47 19 46 17 45 16 46 15 46 14 46 12 45 11 45 9 44 8 44 7 44 6 45 6 46 6 47 6 47 5 48 5 49 5 50 3 51 2 52 1 54 0 59 1 59 2 60 3"></polyline>
            </g>
        </g>
    </g>
</svg>