<?xml version="1.0" encoding="UTF-8"?>
<svg width="63px" height="59px" viewBox="0 0 63 59" version="1.1" xmlns="http://www.w3.org/2000/svg" xmlns:xlink="http://www.w3.org/1999/xlink">
    <!-- Generator: Sketch 52.4 (67378) - http://www.bohemiancoding.com/sketch -->
    <title>239</title>
    <desc>Created with Sketch.</desc>
    <g id="Page-1" stroke="none" stroke-width="1" fill="none" fill-rule="evenodd">
        <g id="wahlkreise_gen" transform="translate(-467.000000, -598.000000)" fill="#000000">
            <g id="239" transform="translate(467.000000, 598.000000)">
                <polyline id="Path" points="37 4 37 5 38 7 38 8 38 9 40 10 41 11 42 11 42 12 44 12 46 12 47 12 47 13 48 14 50 15 51 19 50 20 49 20 48 21 47 22 47 23 49 24 50 25 51 25 52 24 53 25 53 26 54 27 57 30 58 33 58 34 57 34 57 35 56 36 56 37 57 39 57 40 58 41 60 41 61 42 63 44 63 45 62 47 62 48 61 50 59 50 58 52 58 53 57 54 50 58 49 58 48 57 47 57 44 57 43 57 41 58 36 59 34 59 33 59 33 58 32 57 31 54 30 52 30 51 30 50 27 48 24 45 25 45 25 44 24 43 23 43 22 40 21 40 19 40 18 40 16 40 14 40 13 40 12 41 11 41 10 40 10 39 11 38 12 38 13 38 14 36 14 35 13 35 13 36 12 36 11 35 12 33 13 33 13 30 11 28 9 26 7 26 8 23 9 23 9 22 8 22 7 22 6 22 5 23 4 23 2 23 2 22 1 22 1 21 2 21 2 20 3 19 3 18 3 17 2 16 1 16 1 15 0 14 1 10 2 10 3 12 4 14 5 15 7 13 8 12 7 12 7 11 6 8 6 7 6 5 7 6 8 6 16 4 19 3 19 2 20 2 21 2 22 2 23 3 24 5 25 4 27 4 29 2 32 0 33 0 37 4"></polyline>
            </g>
        </g>
    </g>
</svg>