<?xml version="1.0" encoding="UTF-8"?>
<svg width="74px" height="54px" viewBox="0 0 74 54" version="1.1" xmlns="http://www.w3.org/2000/svg" xmlns:xlink="http://www.w3.org/1999/xlink">
    <!-- Generator: Sketch 52.4 (67378) - http://www.bohemiancoding.com/sketch -->
    <title>24</title>
    <desc>Created with Sketch.</desc>
    <g id="Page-1" stroke="none" stroke-width="1" fill="none" fill-rule="evenodd">
        <g id="wahlkreise_gen" transform="translate(-91.000000, -171.000000)" fill="#000000">
            <g id="24" transform="translate(91.000000, 171.000000)">
                <polyline id="Path" points="3 14 2 14 2 13 1 13 1 12 1 11 3 10 4 10 3 11 4 11 3 13 3 14"></polyline>
                <polyline id="Path" points="41 7 42 7 43 7 44 7 45 7 48 7 49 7 52 9 54 8 53 9 49 12 50 14 51 14 51 15 50 15 49 15 48 15 47 15 44 15 44 16 43 18 43 24 43 25 43 26 44 27 45 26 46 26 47 26 51 24 59 23 60 23 61 23 61 24 62 26 62 27 61 27 61 28 63 31 63 32 63 35 64 36 65 36 65 35 66 35 68 35 68 36 68 37 67 37 67 38 67 39 69 40 70 39 71 42 74 48 69 49 67 50 63 51 63 52 62 52 58 53 56 53 56 52 53 50 48 48 47 48 44 49 43 50 42 50 37 50 36 50 35 50 34 50 34 53 33 54 31 53 30 53 29 52 28 52 23 52 19 52 18 52 17 52 15 52 12 51 11 51 11 50 10 49 10 48 10 47 11 45 11 40 11 39 12 33 14 29 14 28 14 27 13 27 13 26 14 25 14 26 15 26 15 27 18 28 20 27 21 27 21 26 20 24 19 23 18 21 18 20 20 18 25 12 29 10 29 9 30 9 34 7 35 7 36 7 37 7 39 7 40 7 41 7"></polyline>
                <polyline id="Path" points="5 8 0 9 0 8 1 8 10 6 15 6 16 6 17 6 18 6 19 6 19 7 13 7 9 8 5 8"></polyline>
                <polyline id="Path" points="38 2 37 3 36 3 34 4 32 4 30 4 28 4 27 4 24 4 24 5 23 5 22 4 22 3 23 3 24 2 25 2 26 2 27 2 28 2 30 2 31 2 32 2 37 1 38 1 38 2"></polyline>
                <polyline id="Path" points="42 0 43 0 44 1 45 1 45 2 44 2 41 2 40 2 39 2 39 1 41 0 42 0"></polyline>
            </g>
        </g>
    </g>
</svg>