<?xml version="1.0" encoding="UTF-8"?>
<svg width="96px" height="81px" viewBox="0 0 96 81" version="1.1" xmlns="http://www.w3.org/2000/svg" xmlns:xlink="http://www.w3.org/1999/xlink">
    <!-- Generator: Sketch 52.4 (67378) - http://www.bohemiancoding.com/sketch -->
    <title>241</title>
    <desc>Created with Sketch.</desc>
    <g id="Page-1" stroke="none" stroke-width="1" fill="none" fill-rule="evenodd">
        <g id="wahlkreise_gen" transform="translate(-349.000000, -723.000000)" fill="#000000">
            <g id="241" transform="translate(349.000000, 723.000000)">
                <polyline id="Path" points="13 1 15 4 14 5 13 6 14 7 16 10 17 10 17 11 19 10 20 9 22 11 25 10 26 9 29 8 33 9 33 8 34 8 37 6 38 7 39 7 41 7 43 8 43 9 46 9 47 9 49 8 51 8 51 7 52 7 53 7 54 7 56 10 55 10 55 11 56 11 59 14 61 15 66 17 66 18 66 19 66 20 66 21 67 22 68 23 69 25 70 30 70 31 69 32 68 33 67 34 66 35 64 38 65 39 66 41 66 42 67 43 71 45 72 46 73 46 73 45 73 44 77 43 78 43 78 44 82 46 82 47 83 47 88 51 91 52 93 54 94 55 96 56 94 58 92 61 91 65 91 66 91 67 90 67 89 67 88 67 87 67 86 68 85 69 83 72 84 72 85 73 85 74 81 77 80 78 78 78 77 79 76 80 75 81 74 81 73 80 71 78 70 79 69 79 68 79 67 78 66 77 64 77 63 76 63 75 64 75 64 74 64 73 64 72 63 70 62 70 61 71 59 73 56 74 56 75 55 76 55 77 54 77 52 75 51 75 51 74 51 73 52 73 52 72 53 71 52 69 51 66 50 66 48 64 48 62 46 62 45 62 45 61 44 61 44 60 44 59 43 59 42 59 41 59 40 60 39 61 39 62 40 63 39 63 36 63 35 62 33 62 32 63 29 64 29 65 30 66 28 67 27 66 25 64 23 61 18 59 16 59 15 59 14 59 15 58 15 57 15 56 14 52 13 52 12 52 11 52 10 52 11 51 11 50 12 50 14 47 15 46 14 46 14 45 12 44 12 43 11 43 10 44 4 39 4 37 2 31 4 31 5 30 5 28 3 22 2 19 2 15 3 14 4 14 6 14 6 13 4 8 3 7 2 7 0 6 1 5 1 4 2 4 2 3 3 3 4 3 5 2 8 1 9 1 10 0 10 1 11 1 12 1 13 1"></polyline>
            </g>
        </g>
    </g>
</svg>