<?xml version="1.0" encoding="UTF-8"?>
<svg width="59px" height="40px" viewBox="0 0 59 40" version="1.1" xmlns="http://www.w3.org/2000/svg" xmlns:xlink="http://www.w3.org/1999/xlink">
    <!-- Generator: Sketch 52.4 (67378) - http://www.bohemiancoding.com/sketch -->
    <title>242</title>
    <desc>Created with Sketch.</desc>
    <g id="Page-1" stroke="none" stroke-width="1" fill="none" fill-rule="evenodd">
        <g id="wahlkreise_gen" transform="translate(-391.000000, -684.000000)" fill="#000000">
            <g id="242" transform="translate(391.000000, 684.000000)">
                <polyline id="Path" points="17 5 19 5 22 4 23 2 26 1 27 1 27 2 28 2 28 3 28 4 29 8 28 9 28 10 29 11 32 13 35 14 36 15 37 15 38 14 38 15 39 16 39 18 40 19 41 20 41 21 41 22 41 23 42 24 44 25 45 25 48 25 50 25 54 24 56 23 58 23 59 24 59 25 57 26 52 28 51 29 50 35 49 38 49 39 50 39 50 40 48 40 46 38 45 36 45 35 44 35 43 36 43 37 42 37 40 36 37 33 37 32 34 32 29 33 29 32 27 32 24 32 21 33 19 33 19 32 19 30 19 29 17 27 16 26 15 27 14 27 14 26 14 23 14 22 14 21 15 21 16 20 17 18 16 17 12 14 12 13 11 13 9 13 8 13 6 14 4 14 4 15 3 15 2 15 1 15 0 13 0 11 2 9 3 9 4 9 5 9 6 8 9 7 9 5 8 5 7 4 6 4 7 4 7 3 10 0 15 3 16 3 17 5"></polyline>
            </g>
        </g>
    </g>
</svg>