<?xml version="1.0" encoding="UTF-8"?>
<svg width="26px" height="22px" viewBox="0 0 26 22" version="1.1" xmlns="http://www.w3.org/2000/svg" xmlns:xlink="http://www.w3.org/1999/xlink">
    <!-- Generator: Sketch 52.4 (67378) - http://www.bohemiancoding.com/sketch -->
    <title>245</title>
    <desc>Created with Sketch.</desc>
    <g id="Page-1" stroke="none" stroke-width="1" fill="none" fill-rule="evenodd">
        <g id="wahlkreise_gen" transform="translate(-424.000000, -726.000000)" fill="#000000">
            <g id="245" transform="translate(424.000000, 726.000000)">
                <polyline id="Path" points="26 5 24 5 24 4 23 2 24 2 25 2 25 3 25 4 26 5"></polyline>
                <polyline id="Path" points="12 6 15 5 16 5 17 5 18 5 17 5 17 4 19 4 20 5 18 9 17 9 16 9 15 9 14 9 13 9 12 9 11 10 11 11 12 12 12 13 12 14 10 15 10 16 9 16 10 19 9 19 9 18 7 19 6 20 6 21 5 22 4 22 3 21 1 17 0 14 0 13 1 11 2 11 2 10 3 10 4 9 4 8 4 7 4 6 1 3 3 0 4 0 7 2 8 2 10 3 11 3 11 4 11 5 12 6"></polyline>
            </g>
        </g>
    </g>
</svg>