<?xml version="1.0" encoding="UTF-8"?>
<svg width="41px" height="41px" viewBox="0 0 41 41" version="1.1" xmlns="http://www.w3.org/2000/svg" xmlns:xlink="http://www.w3.org/1999/xlink">
    <!-- Generator: Sketch 52.4 (67378) - http://www.bohemiancoding.com/sketch -->
    <title>247</title>
    <desc>Created with Sketch.</desc>
    <g id="Page-1" stroke="none" stroke-width="1" fill="none" fill-rule="evenodd">
        <g id="wahlkreise_gen" transform="translate(-255.000000, -639.000000)" fill="#000000">
            <g id="247" transform="translate(255.000000, 639.000000)">
                <polyline id="Path" points="23 1 27 2 29 1 33 2 34 4 34 5 35 7 36 8 35 8 34 12 38 20 39 22 41 26 40 29 38 30 37 32 38 32 38 33 38 34 37 35 36 35 33 38 32 38 32 39 33 40 32 41 28 41 28 40 27 37 26 37 25 37 23 36 25 32 25 31 24 30 22 28 21 28 20 28 19 28 18 29 14 29 14 30 14 29 13 29 13 28 12 28 11 27 11 28 11 29 11 32 10 33 9 35 6 37 5 35 4 32 4 29 3 21 3 20 4 20 5 19 4 14 3 14 3 13 2 13 0 12 1 11 1 10 2 10 2 8 2 7 3 5 6 4 8 4 9 4 10 4 10 3 11 3 12 3 14 4 14 6 15 6 18 3 18 2 17 2 17 1 19 0 20 0 21 0 22 1 23 1"></polyline>
            </g>
        </g>
    </g>
</svg>