<?xml version="1.0" encoding="UTF-8"?>
<svg width="105px" height="92px" viewBox="0 0 105 92" version="1.1" xmlns="http://www.w3.org/2000/svg" xmlns:xlink="http://www.w3.org/1999/xlink">
    <!-- Generator: Sketch 52.4 (67378) - http://www.bohemiancoding.com/sketch -->
    <title>248</title>
    <desc>Created with Sketch.</desc>
    <g id="Page-1" stroke="none" stroke-width="1" fill="none" fill-rule="evenodd">
        <g id="wahlkreise_gen" transform="translate(-309.000000, -584.000000)" fill="#000000">
            <g id="248" transform="translate(309.000000, 584.000000)">
                <polyline id="Path" points="42 3 43 3 43 2 47 1 50 4 51 7 53 8 58 9 60 13 61 17 63 17 64 18 64 19 63 20 63 21 63 22 66 22 67 22 68 21 68 22 69 23 69 24 72 26 72 27 77 28 81 29 81 30 81 33 81 36 81 42 82 43 82 44 83 44 84 44 85 43 86 43 88 44 89 45 91 46 92 45 92 43 93 43 94 43 94 44 96 47 96 48 96 49 96 50 96 51 96 52 96 53 97 54 98 54 98 53 99 53 102 52 103 52 104 53 105 54 104 56 103 57 103 58 103 59 103 60 103 62 103 63 102 63 101 63 101 64 101 65 101 66 100 67 100 68 99 68 98 67 98 66 97 66 96 67 95 69 95 73 95 76 95 77 94 79 93 81 91 83 90 83 89 86 88 87 85 90 84 91 83 92 82 92 81 91 79 90 78 89 74 89 73 88 72 87 76 87 76 86 74 83 72 81 71 81 69 78 66 75 64 72 64 71 61 71 60 71 59 71 59 70 58 69 59 69 60 69 61 69 64 68 65 68 68 63 67 63 67 62 64 61 64 60 65 59 65 58 65 57 65 55 65 54 67 52 68 50 68 49 68 48 69 48 66 45 64 44 63 43 62 43 61 44 61 45 60 46 60 49 60 50 60 51 58 53 56 53 51 53 45 54 45 55 43 56 43 57 43 58 42 60 36 60 35 60 34 60 32 60 30 61 29 63 28 65 28 66 28 67 28 69 27 69 27 70 26 70 20 69 19 69 18 69 15 68 15 67 16 65 16 64 15 61 14 59 10 55 6 50 6 49 6 48 6 47 5 47 5 46 4 45 4 44 1 44 0 44 1 43 1 41 2 40 2 39 3 39 6 38 8 35 9 35 10 34 10 33 10 30 9 29 9 28 9 27 10 26 10 24 11 22 11 21 10 21 10 20 11 19 14 19 15 19 15 20 16 21 18 22 21 22 22 21 24 20 25 19 28 18 29 16 30 16 33 11 34 9 34 8 34 7 34 6 35 6 36 5 38 2 39 2 39 1 39 0 40 0 41 0 41 1 42 3"></polyline>
            </g>
        </g>
    </g>
</svg>