<?xml version="1.0" encoding="UTF-8"?>
<svg width="84px" height="87px" viewBox="0 0 84 87" version="1.1" xmlns="http://www.w3.org/2000/svg" xmlns:xlink="http://www.w3.org/1999/xlink">
    <!-- Generator: Sketch 52.4 (67378) - http://www.bohemiancoding.com/sketch -->
    <title>249</title>
    <desc>Created with Sketch.</desc>
    <g id="Page-1" stroke="none" stroke-width="1" fill="none" fill-rule="evenodd">
        <g id="wahlkreise_gen" transform="translate(-260.000000, -627.000000)" fill="#000000">
            <g id="249" transform="translate(260.000000, 627.000000)">
                <polyline id="Path" points="42 2 47 2 48 2 49 2 49 1 50 1 53 1 53 2 54 3 54 4 55 4 55 5 55 6 55 7 59 12 63 16 64 18 65 21 65 22 64 24 64 25 67 26 68 26 69 26 75 27 76 27 76 26 77 26 77 24 79 23 79 24 79 25 81 26 82 26 83 25 83 26 84 26 84 29 84 30 83 31 82 31 81 31 81 32 81 33 82 32 83 32 84 32 84 33 84 36 83 37 82 39 81 39 80 39 77 39 76 38 75 37 74 38 74 39 73 39 73 40 74 43 74 44 74 45 72 45 68 45 67 44 66 45 62 47 61 48 60 48 60 49 60 51 59 51 59 52 58 53 57 53 56 52 55 52 54 52 53 53 52 56 51 58 48 59 44 61 43 62 42 61 40 59 39 59 37 59 36 59 36 60 36 61 35 61 34 61 34 60 34 59 33 59 32 59 31 60 30 61 27 61 24 61 23 61 23 62 23 65 26 69 27 70 28 70 29 69 29 68 29 67 29 66 30 66 32 69 32 71 31 73 30 74 31 75 32 76 31 77 29 77 26 77 22 76 20 79 19 82 18 85 17 86 15 86 13 87 11 86 8 86 7 87 5 86 4 83 3 83 2 83 2 81 3 79 4 79 5 78 5 75 4 75 4 74 4 72 4 71 5 71 6 71 7 71 7 70 9 65 7 63 7 61 7 60 8 60 8 58 7 58 6 58 5 58 5 59 4 58 3 55 2 53 0 52 0 51 1 49 4 47 5 45 6 44 6 41 6 40 6 39 7 40 8 40 8 41 9 41 9 42 9 41 13 41 14 40 15 40 16 40 17 40 19 42 20 43 20 44 18 48 20 49 21 49 22 49 23 52 23 53 27 53 28 52 27 51 27 50 28 50 31 47 32 47 33 46 33 45 33 44 32 44 33 42 35 41 36 38 34 34 33 32 29 24 30 20 31 20 33 20 35 19 38 19 40 19 40 17 40 16 39 12 39 6 38 2 38 0 39 0 40 1 42 2"></polyline>
            </g>
        </g>
    </g>
</svg>