<?xml version="1.0" encoding="UTF-8"?>
<svg width="47px" height="61px" viewBox="0 0 47 61" version="1.1" xmlns="http://www.w3.org/2000/svg" xmlns:xlink="http://www.w3.org/1999/xlink">
    <!-- Generator: Sketch 52.4 (67378) - http://www.bohemiancoding.com/sketch -->
    <title>251</title>
    <desc>Created with Sketch.</desc>
    <g id="Page-1" stroke="none" stroke-width="1" fill="none" fill-rule="evenodd">
        <g id="wahlkreise_gen" transform="translate(-309.000000, -664.000000)" fill="#000000">
            <g id="251" transform="translate(309.000000, 664.000000)">
                <polyline id="Path" points="37 1 38 2 40 5 42 6 44 6 45 6 46 5 47 6 47 8 45 10 45 11 46 13 45 13 45 14 42 14 39 15 38 16 37 17 37 19 37 20 37 23 37 25 36 27 36 29 37 30 40 32 43 34 43 37 42 37 41 37 40 38 39 39 39 41 40 42 41 42 41 43 39 44 38 47 38 50 39 51 39 52 39 53 38 53 36 55 37 56 37 57 34 60 33 61 28 61 26 61 26 60 25 60 25 59 26 58 26 54 26 52 26 51 25 48 24 48 23 48 22 49 21 50 21 51 21 52 20 53 16 52 16 51 17 51 18 51 18 50 19 49 21 44 21 43 21 42 20 40 19 40 18 40 18 39 17 37 17 36 18 35 18 32 17 32 15 29 14 29 12 30 11 32 9 33 8 30 8 29 7 29 5 31 5 32 5 34 4 34 3 34 3 35 1 34 0 33 0 32 1 29 2 25 2 24 2 22 2 21 3 19 4 16 5 15 6 15 7 15 8 16 9 16 10 15 10 14 11 14 11 12 11 11 12 11 13 10 17 8 18 7 19 8 23 8 25 8 25 7 25 6 24 3 24 2 25 2 25 1 26 0 27 1 28 2 31 2 32 2 33 2 34 0 35 0 37 1"></polyline>
            </g>
        </g>
    </g>
</svg>