<?xml version="1.0" encoding="UTF-8"?>
<svg width="55px" height="69px" viewBox="0 0 55 69" version="1.1" xmlns="http://www.w3.org/2000/svg" xmlns:xlink="http://www.w3.org/1999/xlink">
    <!-- Generator: Sketch 52.4 (67378) - http://www.bohemiancoding.com/sketch -->
    <title>255</title>
    <desc>Created with Sketch.</desc>
    <g id="Page-1" stroke="none" stroke-width="1" fill="none" fill-rule="evenodd">
        <g id="wahlkreise_gen" transform="translate(-340.000000, -850.000000)" fill="#000000">
            <g id="255" transform="translate(340.000000, 850.000000)">
                <polyline id="Path" points="40 3 40 5 43 4 45 4 48 5 49 6 49 7 50 11 47 13 49 14 50 14 49 16 48 17 48 18 48 20 48 22 48 23 47 23 47 24 46 24 46 26 49 26 50 26 51 26 51 25 52 25 54 26 54 27 55 30 55 31 54 31 53 34 52 36 52 37 52 38 53 39 53 40 52 41 51 40 50 40 49 38 48 38 47 38 45 39 42 40 42 41 42 42 41 42 40 42 39 42 39 43 38 43 38 44 38 43 37 44 38 44 39 44 40 45 41 45 45 46 47 48 48 50 49 51 49 52 49 54 49 55 48 55 48 54 46 54 45 55 43 56 42 57 42 58 42 59 42 60 42 61 42 62 41 64 40 65 39 65 38 64 37 64 36 64 34 65 33 65 33 66 32 66 32 67 31 68 30 69 29 69 29 68 29 67 30 67 29 66 28 63 27 62 26 62 24 62 24 61 23 62 22 62 21 63 20 63 20 64 19 64 16 64 15 62 16 61 16 60 16 58 16 56 15 54 16 53 14 52 14 51 13 51 13 50 12 46 11 45 11 44 9 38 9 34 9 32 8 31 7 29 3 22 3 21 2 21 1 20 0 19 1 18 3 16 6 12 6 11 6 10 6 8 8 8 9 8 10 7 11 7 12 6 14 7 15 8 17 8 18 6 19 6 21 5 22 4 23 4 24 3 24 2 23 2 23 1 27 0 27 1 29 4 31 5 32 5 33 3 36 3 37 1 39 0 40 3"></polyline>
            </g>
        </g>
    </g>
</svg>