<?xml version="1.0" encoding="UTF-8"?>
<svg width="19px" height="15px" viewBox="0 0 19 15" version="1.1" xmlns="http://www.w3.org/2000/svg" xmlns:xlink="http://www.w3.org/1999/xlink">
    <!-- Generator: Sketch 52.4 (67378) - http://www.bohemiancoding.com/sketch -->
    <title>258</title>
    <desc>Created with Sketch.</desc>
    <g id="Page-1" stroke="none" stroke-width="1" fill="none" fill-rule="evenodd">
        <g id="wahlkreise_gen" transform="translate(-261.000000, -813.000000)" fill="#000000">
            <g id="258" transform="translate(261.000000, 813.000000)">
                <polyline id="Path" points="19 7 18 8 18 9 17 9 14 10 14 11 16 14 17 15 14 15 13 15 12 15 11 14 10 14 9 14 9 13 8 13 7 13 6 13 5 13 4 13 3 13 3 12 2 12 2 11 0 9 1 7 2 7 3 5 3 3 2 3 2 2 3 1 4 1 5 1 5 2 5 3 6 5 7 5 7 4 7 3 8 3 10 0 11 0 12 0 13 1 12 2 12 3 12 5 12 7 13 7 14 6 15 5 18 5 19 7"></polyline>
            </g>
        </g>
    </g>
</svg>