<?xml version="1.0" encoding="UTF-8"?>
<svg width="20px" height="13px" viewBox="0 0 20 13" version="1.1" xmlns="http://www.w3.org/2000/svg" xmlns:xlink="http://www.w3.org/1999/xlink">
    <!-- Generator: Sketch 52.4 (67378) - http://www.bohemiancoding.com/sketch -->
    <title>259</title>
    <desc>Created with Sketch.</desc>
    <g id="Page-1" stroke="none" stroke-width="1" fill="none" fill-rule="evenodd">
        <g id="wahlkreise_gen" transform="translate(-264.000000, -807.000000)" fill="#000000">
            <g id="259" transform="translate(264.000000, 807.000000)">
                <polyline id="Path" points="14 1 13 1 13 3 13 4 15 8 18 9 20 10 19 10 17 11 16 13 15 11 12 11 11 12 10 13 9 13 9 11 9 9 9 8 10 7 9 6 8 6 7 6 5 9 4 9 4 10 4 11 3 11 2 9 2 8 2 7 1 7 0 7 0 6 0 3 1 3 2 4 5 4 5 3 5 2 6 0 7 0 7 1 9 1 13 1 14 1"></polyline>
            </g>
        </g>
    </g>
</svg>