<?xml version="1.0" encoding="UTF-8"?>
<svg width="61px" height="64px" viewBox="0 0 61 64" version="1.1" xmlns="http://www.w3.org/2000/svg" xmlns:xlink="http://www.w3.org/1999/xlink">
    <!-- Generator: Sketch 52.4 (67378) - http://www.bohemiancoding.com/sketch -->
    <title>26</title>
    <desc>Created with Sketch.</desc>
    <g id="Page-1" stroke="none" stroke-width="1" fill="none" fill-rule="evenodd">
        <g id="wahlkreise_gen" transform="translate(-134.000000, -164.000000)" fill="#000000">
            <g id="26" transform="translate(134.000000, 164.000000)">
                <polyline id="Path" points="48 12 48 13 47 14 47 15 48 18 48 19 49 20 49 21 49 20 50 20 51 20 52 20 52 21 54 23 55 26 57 26 57 28 57 31 58 33 58 34 58 36 58 37 57 37 53 38 53 39 52 39 51 39 51 38 50 38 50 39 50 41 50 42 51 43 51 44 52 46 53 46 54 46 54 45 56 45 57 46 59 49 60 49 60 50 60 51 61 52 61 55 61 56 60 56 60 58 59 58 58 58 57 59 57 60 56 60 55 61 52 61 51 60 51 59 50 59 49 60 48 61 47 62 47 63 45 64 42 64 42 63 42 62 41 61 40 61 39 60 38 59 36 58 35 55 33 56 32 56 32 55 31 55 28 49 27 46 26 47 24 46 24 45 24 44 25 44 25 43 25 42 23 42 22 42 22 43 21 43 20 42 20 39 20 38 18 35 18 34 19 34 19 33 18 31 18 30 17 30 16 30 8 31 4 33 3 33 2 33 1 34 0 33 0 32 0 31 0 25 1 23 1 22 4 22 5 22 6 22 7 22 8 22 8 21 7 21 6 19 10 16 11 15 12 15 14 15 17 14 20 13 21 12 23 12 24 12 24 13 26 12 27 12 28 12 29 11 31 11 34 11 36 11 38 10 39 10 41 11 43 11 45 11 46 11 47 11 48 12"></polyline>
                <polyline id="Path" points="47 5 47 6 48 7 47 7 46 6 46 5 47 5"></polyline>
                <polyline id="Path" points="13 4 14 5 15 5 16 5 17 5 17 6 16 6 15 6 14 6 13 6 8 6 8 7 7 7 7 8 7 9 5 9 4 9 4 8 5 6 5 5 6 5 7 5 10 5 13 4"></polyline>
                <polyline id="Path" points="46 4 45 4 45 3 46 2 47 3 47 4 46 4"></polyline>
                <polyline id="Path" points="26 2 28 2 30 2 31 2 31 3 30 3 30 4 27 5 21 6 20 5 20 4 21 3 21 2 22 2 23 2 24 2 25 2 26 2"></polyline>
                <polyline id="Path" points="41 1 42 1 42 2 44 2 44 3 43 3 41 2 37 2 36 1 36 2 35 3 34 2 34 1 35 1 35 0 37 0 38 0 39 0 41 1"></polyline>
            </g>
        </g>
    </g>
</svg>