<?xml version="1.0" encoding="UTF-8"?>
<svg width="43px" height="34px" viewBox="0 0 43 34" version="1.1" xmlns="http://www.w3.org/2000/svg" xmlns:xlink="http://www.w3.org/1999/xlink">
    <!-- Generator: Sketch 52.4 (67378) - http://www.bohemiancoding.com/sketch -->
    <title>263</title>
    <desc>Created with Sketch.</desc>
    <g id="Page-1" stroke="none" stroke-width="1" fill="none" fill-rule="evenodd">
        <g id="wahlkreise_gen" transform="translate(-299.000000, -816.000000)" fill="#000000">
            <g id="263" transform="translate(299.000000, 816.000000)">
                <polyline id="Path" points="14 2 15 1 16 1 18 1 19 1 21 1 24 5 26 7 27 8 28 8 30 7 32 7 32 8 33 8 33 9 34 9 35 9 35 8 36 7 35 7 35 8 35 7 34 6 33 5 33 4 34 4 38 5 38 6 38 7 41 7 43 7 43 9 43 10 41 14 41 15 40 15 39 16 38 15 37 17 37 18 37 19 38 19 39 19 39 20 37 20 35 22 33 24 32 26 28 29 27 29 26 29 25 29 24 29 21 29 20 29 20 30 20 31 17 34 16 34 14 34 13 34 13 33 12 32 10 32 9 32 8 32 6 31 6 30 7 29 8 28 9 28 9 27 9 25 9 23 9 22 5 17 2 16 1 15 0 15 0 14 0 13 0 11 0 10 0 8 1 6 1 4 1 3 2 3 4 4 5 5 8 5 8 4 8 3 7 2 7 1 8 0 10 1 11 1 12 1 14 2"></polyline>
            </g>
        </g>
    </g>
</svg>