<?xml version="1.0" encoding="UTF-8"?>
<svg width="37px" height="35px" viewBox="0 0 37 35" version="1.1" xmlns="http://www.w3.org/2000/svg" xmlns:xlink="http://www.w3.org/1999/xlink">
    <!-- Generator: Sketch 52.4 (67378) - http://www.bohemiancoding.com/sketch -->
    <title>265</title>
    <desc>Created with Sketch.</desc>
    <g id="Page-1" stroke="none" stroke-width="1" fill="none" fill-rule="evenodd">
        <g id="wahlkreise_gen" transform="translate(-246.000000, -785.000000)" fill="#000000">
            <g id="265" transform="translate(246.000000, 785.000000)">
                <polyline id="Path" points="15 11 18 14 20 15 21 15 25 14 30 13 36 14 37 15 37 16 37 17 36 18 36 19 37 19 36 21 34 21 32 22 32 23 31 23 27 23 25 23 25 22 24 22 23 24 23 25 23 26 20 26 19 25 18 25 18 28 18 29 17 30 17 31 18 31 18 33 17 35 16 35 15 34 13 29 14 28 15 27 14 26 13 26 13 25 10 25 8 25 7 25 5 26 4 26 3 27 2 27 1 25 0 24 2 21 3 21 4 21 5 21 4 20 4 18 3 17 3 11 5 11 6 11 6 9 6 8 5 7 4 5 4 3 3 0 4 1 5 2 7 2 9 3 13 6 14 7 14 8 14 9 14 10 15 11"></polyline>
            </g>
        </g>
    </g>
</svg>