<?xml version="1.0" encoding="UTF-8"?>
<svg width="61px" height="44px" viewBox="0 0 61 44" version="1.1" xmlns="http://www.w3.org/2000/svg" xmlns:xlink="http://www.w3.org/1999/xlink">
    <!-- Generator: Sketch 52.4 (67378) - http://www.bohemiancoding.com/sketch -->
    <title>267</title>
    <desc>Created with Sketch.</desc>
    <g id="Page-1" stroke="none" stroke-width="1" fill="none" fill-rule="evenodd">
        <g id="wahlkreise_gen" transform="translate(-241.000000, -738.000000)" fill="#000000">
            <g id="267" transform="translate(241.000000, 738.000000)">
                <polyline id="Path" points="51 4 52 4 53 3 54 3 55 4 55 6 56 8 56 9 57 9 58 9 59 9 57 11 54 12 53 13 53 14 52 15 51 18 52 20 53 21 54 21 52 24 50 25 50 24 49 24 48 25 47 25 45 28 49 31 50 31 51 31 52 32 53 33 53 34 53 35 53 37 53 38 57 36 57 35 57 34 57 33 57 32 58 32 59 33 61 36 58 37 58 38 58 40 56 40 55 41 54 41 53 42 53 43 53 44 52 44 51 44 51 43 51 42 50 42 49 42 50 41 51 42 52 42 52 41 47 39 47 38 46 37 45 37 45 36 43 36 42 35 41 35 40 35 38 36 34 36 31 38 30 38 29 38 29 37 27 34 27 33 28 33 29 32 29 31 25 28 23 28 22 30 22 31 22 32 22 33 23 33 22 35 21 35 19 35 18 36 14 39 14 40 13 40 12 40 10 40 10 39 8 39 7 39 6 39 7 39 6 36 6 35 5 33 4 33 3 34 1 34 1 33 1 32 2 31 1 30 0 30 0 29 0 28 0 27 1 27 1 26 1 25 0 25 1 25 2 26 3 27 4 28 5 27 7 27 7 24 8 24 12 23 16 19 19 14 19 13 18 12 20 12 20 13 21 14 25 15 26 15 28 15 29 14 29 11 29 10 29 7 32 8 33 8 36 11 38 10 40 7 42 4 42 3 42 2 42 1 43 0 44 0 46 2 47 2 47 3 51 4"></polyline>
            </g>
        </g>
    </g>
</svg>