<?xml version="1.0" encoding="UTF-8"?>
<svg width="78px" height="67px" viewBox="0 0 78 67" version="1.1" xmlns="http://www.w3.org/2000/svg" xmlns:xlink="http://www.w3.org/1999/xlink">
    <!-- Generator: Sketch 52.4 (67378) - http://www.bohemiancoding.com/sketch -->
    <title>268</title>
    <desc>Created with Sketch.</desc>
    <g id="Page-1" stroke="none" stroke-width="1" fill="none" fill-rule="evenodd">
        <g id="wahlkreise_gen" transform="translate(-286.000000, -732.000000)" fill="#000000">
            <g id="268" transform="translate(286.000000, 732.000000)">
                <polyline id="Path" points="26 2 31 4 32 4 34 5 39 5 41 5 42 6 43 8 44 7 45 7 48 8 50 10 53 8 55 7 56 7 56 8 58 8 59 8 59 7 58 6 59 6 61 5 62 4 64 4 65 4 65 6 65 10 66 13 68 19 68 21 67 22 65 22 67 28 67 30 73 35 74 34 75 34 75 35 77 36 77 37 78 37 77 38 75 41 74 41 74 42 73 43 74 43 75 43 76 43 77 43 78 47 78 48 76 48 75 49 74 50 73 50 72 50 72 49 69 49 66 50 59 50 58 49 54 50 54 51 54 52 54 53 56 55 57 57 57 58 56 58 55 58 53 59 49 60 48 60 48 61 47 62 48 63 47 65 46 66 45 66 42 67 42 66 42 65 43 65 43 64 38 62 35 61 34 61 31 61 30 61 29 60 28 59 28 58 28 57 25 55 24 55 23 55 23 56 22 56 22 55 22 52 23 50 19 49 17 49 16 49 16 48 15 48 13 46 13 44 13 43 16 42 14 39 13 38 12 38 12 39 12 40 12 41 12 42 8 44 8 43 8 41 8 40 8 39 7 38 6 37 5 37 4 37 0 34 2 31 3 31 4 30 5 30 5 31 7 30 9 27 8 27 7 26 6 24 7 21 8 20 8 19 9 18 12 17 14 15 13 15 12 15 11 15 11 14 10 12 10 10 9 9 8 9 8 8 8 6 9 5 10 5 11 5 11 6 14 7 19 7 21 5 21 4 20 4 19 2 20 1 22 1 23 0 25 0 26 2"></polyline>
            </g>
        </g>
    </g>
</svg>