<?xml version="1.0" encoding="UTF-8"?>
<svg width="63px" height="47px" viewBox="0 0 63 47" version="1.1" xmlns="http://www.w3.org/2000/svg" xmlns:xlink="http://www.w3.org/1999/xlink">
    <!-- Generator: Sketch 52.4 (67378) - http://www.bohemiancoding.com/sketch -->
    <title>269</title>
    <desc>Created with Sketch.</desc>
    <g id="Page-1" stroke="none" stroke-width="1" fill="none" fill-rule="evenodd">
        <g id="wahlkreise_gen" transform="translate(-283.000000, -778.000000)" fill="#000000">
            <g id="269" transform="translate(283.000000, 778.000000)">
                <polyline id="Path" points="26 4 25 6 25 9 25 10 26 10 26 9 27 9 28 9 31 11 31 12 31 13 32 14 33 15 34 15 37 15 38 15 41 16 46 18 46 19 45 19 45 20 45 21 48 20 49 20 50 19 51 17 52 17 55 16 57 16 61 17 61 19 63 24 63 25 62 25 61 25 60 24 57 28 58 30 59 34 59 35 57 38 56 38 56 40 57 41 58 41 59 41 60 41 60 42 60 43 60 44 59 45 57 45 54 45 54 44 54 43 50 42 49 42 49 43 50 44 51 45 51 46 51 45 52 45 51 46 51 47 50 47 49 47 49 46 48 46 48 45 46 45 44 46 43 46 42 45 40 43 37 39 35 39 34 39 32 39 31 39 30 40 28 39 27 39 27 38 28 37 29 37 29 35 29 34 29 33 30 33 32 33 34 33 35 33 35 34 36 34 38 33 39 32 40 32 40 31 38 23 37 23 35 21 34 22 34 21 32 20 32 19 32 18 28 17 25 18 25 19 24 19 24 20 25 20 24 23 23 23 22 23 22 22 22 21 21 21 16 23 15 23 12 23 7 20 6 21 5 22 1 19 1 18 0 17 0 16 0 17 1 17 2 17 5 14 5 13 5 12 3 11 3 9 6 8 6 7 8 6 8 5 8 4 9 4 10 4 11 4 11 3 11 2 12 1 13 1 14 0 16 0 18 2 19 2 19 3 20 3 22 3 26 4"></polyline>
            </g>
        </g>
    </g>
</svg>