<?xml version="1.0" encoding="UTF-8"?>
<svg width="52px" height="71px" viewBox="0 0 52 71" version="1.1" xmlns="http://www.w3.org/2000/svg" xmlns:xlink="http://www.w3.org/1999/xlink">
    <!-- Generator: Sketch 52.4 (67378) - http://www.bohemiancoding.com/sketch -->
    <title>270</title>
    <desc>Created with Sketch.</desc>
    <g id="Page-1" stroke="none" stroke-width="1" fill="none" fill-rule="evenodd">
        <g id="wahlkreise_gen" transform="translate(-333.000000, -780.000000)" fill="#000000">
            <g id="270" transform="translate(333.000000, 780.000000)">
                <polyline id="Path" points="30 2 31 2 32 2 34 2 39 4 41 7 43 9 44 10 44 11 45 11 46 12 48 15 48 17 48 25 48 30 48 31 48 32 46 37 45 37 45 39 45 40 46 40 48 41 49 42 51 46 52 46 52 48 50 50 49 50 47 51 45 51 45 50 46 48 47 48 47 47 47 46 45 46 43 48 43 49 42 50 41 52 40 52 40 51 40 49 39 49 39 48 38 48 38 47 34 46 33 46 32 49 32 51 32 52 34 53 35 55 36 57 36 59 35 59 35 60 35 61 36 61 37 62 37 64 37 65 37 69 36 70 35 70 34 70 30 71 29 69 28 68 27 67 26 65 24 65 23 65 22 65 20 65 14 61 14 60 14 59 13 59 10 59 9 60 8 60 7 60 6 59 7 59 7 58 6 56 5 56 5 55 4 55 3 55 3 54 3 53 4 51 5 52 6 51 7 51 7 50 9 46 9 45 9 43 10 42 10 41 10 40 10 39 9 39 8 39 7 39 6 38 6 36 7 36 9 33 9 32 8 28 7 26 10 22 11 23 12 23 13 23 13 22 11 17 11 15 7 14 5 14 2 15 1 15 0 14 1 13 1 12 2 12 6 11 8 10 9 10 10 10 10 9 9 7 7 5 7 4 7 3 7 2 11 1 12 2 19 2 22 1 25 1 25 2 26 2 27 2 28 1 29 0 31 0 31 1 30 2"></polyline>
            </g>
        </g>
    </g>
</svg>