<?xml version="1.0" encoding="UTF-8"?>
<svg width="22px" height="20px" viewBox="0 0 22 20" version="1.1" xmlns="http://www.w3.org/2000/svg" xmlns:xlink="http://www.w3.org/1999/xlink">
    <!-- Generator: Sketch 52.4 (67378) - http://www.bohemiancoding.com/sketch -->
    <title>271</title>
    <desc>Created with Sketch.</desc>
    <g id="Page-1" stroke="none" stroke-width="1" fill="none" fill-rule="evenodd">
        <g id="wahlkreise_gen" transform="translate(-195.000000, -776.000000)" fill="#000000">
            <g id="271" transform="translate(195.000000, 776.000000)">
                <polyline id="Path" points="0 13 1 12 1 11 2 10 2 9 2 8 2 7 2 6 3 5 3 4 4 4 4 3 5 2 6 3 6 4 11 4 11 3 11 2 11 1 12 0 13 0 13 3 14 5 15 5 15 6 16 7 17 7 17 5 18 5 21 8 21 9 21 10 20 12 19 13 20 16 21 17 22 17 23 17 22 17 22 18 21 18 20 19 20 20 17 20 16 20 14 19 14 17 12 17 11 17 9 18 8 15 4 13 4 14 3 14 0 14 0 13"></polyline>
            </g>
        </g>
    </g>
</svg>