<?xml version="1.0" encoding="UTF-8"?>
<svg width="55px" height="51px" viewBox="0 0 55 51" version="1.1" xmlns="http://www.w3.org/2000/svg" xmlns:xlink="http://www.w3.org/1999/xlink">
    <!-- Generator: Sketch 52.4 (67378) - http://www.bohemiancoding.com/sketch -->
    <title>272</title>
    <desc>Created with Sketch.</desc>
    <g id="Page-1" stroke="none" stroke-width="1" fill="none" fill-rule="evenodd">
        <g id="wahlkreise_gen" transform="translate(-193.000000, -761.000000)" fill="#000000">
            <g id="272" transform="translate(193.000000, 761.000000)">
                <polyline id="Path" points="14 0 15 0 16 1 16 2 18 3 19 3 20 3 22 2 22 3 23 4 22 8 22 14 24 17 29 19 30 19 34 18 36 16 37 16 37 15 37 14 36 12 35 11 34 11 33 11 33 9 34 7 34 6 36 5 39 5 40 5 40 6 41 7 42 7 47 7 48 7 49 7 50 8 49 9 49 10 49 11 51 11 52 10 53 10 54 12 54 13 55 16 54 16 53 20 53 19 52 19 51 19 50 19 50 20 50 22 49 23 48 23 47 22 47 21 46 21 45 21 43 21 42 22 41 24 41 25 41 26 41 27 41 28 39 29 36 28 35 28 35 27 34 27 29 29 27 29 24 33 24 34 24 36 25 37 23 43 23 44 22 44 22 45 20 46 19 47 18 47 19 49 19 50 20 50 19 50 16 51 15 50 14 50 14 49 14 48 14 47 13 46 13 45 9 46 8 47 6 46 5 45 4 45 3 42 3 40 3 38 5 37 6 37 8 37 8 36 8 35 5 34 4 33 1 33 0 32 0 29 2 28 2 29 5 29 6 29 6 28 10 30 11 33 13 32 14 32 16 32 16 34 18 35 19 35 22 35 22 34 23 33 24 33 24 32 25 32 24 32 23 32 22 31 21 28 22 27 23 25 23 24 23 23 20 20 19 20 19 22 18 22 17 21 17 20 16 20 15 18 15 15 14 15 13 16 13 17 13 18 13 19 8 19 8 18 7 17 7 16 8 16 8 15 9 15 9 14 9 13 9 12 10 10 10 8 10 7 10 6 10 5 11 3 12 2 13 2 14 2 14 1 14 0"></polyline>
            </g>
        </g>
    </g>
</svg>