<?xml version="1.0" encoding="UTF-8"?>
<svg width="46px" height="52px" viewBox="0 0 46 52" version="1.1" xmlns="http://www.w3.org/2000/svg" xmlns:xlink="http://www.w3.org/1999/xlink">
    <!-- Generator: Sketch 52.4 (67378) - http://www.bohemiancoding.com/sketch -->
    <title>273</title>
    <desc>Created with Sketch.</desc>
    <g id="Page-1" stroke="none" stroke-width="1" fill="none" fill-rule="evenodd">
        <g id="wahlkreise_gen" transform="translate(-167.000000, -790.000000)" fill="#000000">
            <g id="273" transform="translate(167.000000, 790.000000)">
                <polyline id="Path" points="34 8 32 8 31 8 29 9 29 11 29 13 30 16 31 16 32 17 34 18 35 17 39 16 39 17 40 18 40 19 37 20 36 20 39 21 41 27 44 29 45 29 46 30 45 31 45 34 44 34 44 35 43 36 43 37 42 39 42 42 41 44 39 45 37 45 37 46 37 47 36 47 33 50 31 51 29 52 28 52 26 51 25 51 25 50 24 50 23 50 23 49 25 50 25 49 24 46 23 46 21 46 20 45 19 45 16 42 15 42 14 43 13 43 11 42 10 40 9 40 8 40 5 39 2 38 1 38 2 37 3 36 0 34 1 34 1 33 1 31 1 30 1 29 2 29 3 29 4 29 5 29 6 28 6 26 6 25 7 25 8 25 9 25 10 25 11 24 11 23 12 23 13 22 13 21 13 20 13 19 13 18 14 18 14 17 14 15 15 14 15 13 16 11 17 10 21 4 21 3 24 2 26 0 26 3 27 4 30 4 31 5 34 6 34 7 34 8"></polyline>
            </g>
        </g>
    </g>
</svg>