<?xml version="1.0" encoding="UTF-8"?>
<svg width="21px" height="35px" viewBox="0 0 21 35" version="1.1" xmlns="http://www.w3.org/2000/svg" xmlns:xlink="http://www.w3.org/1999/xlink">
    <!-- Generator: Sketch 52.4 (67378) - http://www.bohemiancoding.com/sketch -->
    <title>274</title>
    <desc>Created with Sketch.</desc>
    <g id="Page-1" stroke="none" stroke-width="1" fill="none" fill-rule="evenodd">
        <g id="wahlkreise_gen" transform="translate(-218.000000, -707.000000)" fill="#000000">
            <g id="274" transform="translate(218.000000, 707.000000)">
                <polyline id="Path" points="13 4 12 4 12 5 12 6 12 7 13 9 14 11 15 13 16 14 18 14 19 14 19 18 19 20 18 22 18 21 19 22 21 25 21 26 21 28 21 29 19 32 14 35 10 34 9 33 8 33 8 35 7 35 6 35 5 34 5 32 6 32 6 28 3 27 3 26 4 25 4 22 3 21 2 21 0 19 0 18 1 18 1 17 2 17 4 16 3 14 4 13 5 12 7 10 5 4 4 4 4 3 4 2 9 1 11 0 12 0 13 0 13 3 13 4"></polyline>
            </g>
        </g>
    </g>
</svg>