<?xml version="1.0" encoding="UTF-8"?>
<svg width="46px" height="52px" viewBox="0 0 46 52" version="1.1" xmlns="http://www.w3.org/2000/svg" xmlns:xlink="http://www.w3.org/1999/xlink">
    <!-- Generator: Sketch 52.4 (67378) - http://www.bohemiancoding.com/sketch -->
    <title>277</title>
    <desc>Created with Sketch.</desc>
    <g id="Page-1" stroke="none" stroke-width="1" fill="none" fill-rule="evenodd">
        <g id="wahlkreise_gen" transform="translate(-219.000000, -714.000000)" fill="#000000">
            <g id="277" transform="translate(219.000000, 714.000000)">
                <polyline id="Path" points="44 6 44 8 45 9 44 11 43 12 40 13 41 14 41 15 42 16 38 20 37 22 36 23 35 23 33 23 32 24 33 26 35 29 37 30 39 31 41 33 42 35 42 36 40 36 41 37 41 38 38 43 34 47 30 48 29 48 29 51 27 51 26 52 25 51 24 50 23 49 22 49 21 48 19 48 17 48 17 47 16 47 16 46 16 45 14 43 14 44 13 44 12 45 11 44 10 44 5 43 4 42 2 41 1 41 2 40 0 40 1 37 3 36 4 34 4 30 7 28 7 26 8 26 9 27 13 28 18 25 20 22 20 21 20 19 20 18 18 15 17 14 17 15 18 13 18 11 18 7 21 7 22 7 25 9 27 9 28 8 28 9 29 9 29 11 28 12 27 14 26 14 26 13 26 12 25 11 23 13 23 14 23 15 24 16 24 18 24 19 23 19 22 19 22 20 22 21 22 22 23 23 25 23 31 17 33 15 33 14 32 14 32 13 32 12 33 11 35 9 36 8 39 9 39 10 40 10 41 9 42 8 42 7 43 5 44 6 45 6 44 6"></polyline>
                <polyline id="Path" points="45 3 45 4 45 3 44 2 45 2 44 2 44 1 44 0 45 0 45 1 46 1 45 3"></polyline>
            </g>
        </g>
    </g>
</svg>