<?xml version="1.0" encoding="UTF-8"?>
<svg width="41px" height="37px" viewBox="0 0 41 37" version="1.1" xmlns="http://www.w3.org/2000/svg" xmlns:xlink="http://www.w3.org/1999/xlink">
    <!-- Generator: Sketch 52.4 (67378) - http://www.bohemiancoding.com/sketch -->
    <title>279</title>
    <desc>Created with Sketch.</desc>
    <g id="Page-1" stroke="none" stroke-width="1" fill="none" fill-rule="evenodd">
        <g id="wahlkreise_gen" transform="translate(-211.000000, -780.000000)" fill="#000000">
            <g id="279" transform="translate(211.000000, 780.000000)">
                <polyline id="Path" points="35 4 38 5 39 8 39 10 40 12 41 13 41 14 41 16 40 16 38 16 38 22 39 23 39 25 40 26 39 26 38 26 37 26 35 29 36 30 37 32 36 34 34 35 33 35 32 35 32 34 31 34 31 35 30 36 29 37 27 37 25 37 22 34 21 32 20 30 20 29 19 30 20 30 20 31 20 32 17 33 16 32 15 32 13 31 13 30 13 31 12 31 8 33 8 34 7 34 7 35 7 36 6 36 5 36 4 35 4 34 5 34 6 34 5 33 4 32 3 32 2 31 1 31 1 30 0 28 1 28 2 27 4 26 4 25 5 25 5 24 7 18 6 17 6 15 6 14 9 10 11 10 16 8 17 8 17 9 18 9 21 10 23 9 23 8 23 7 23 6 23 5 24 3 25 2 27 2 28 2 29 2 29 3 30 4 31 4 32 3 32 1 32 0 33 0 34 0 35 0 35 1 35 4"></polyline>
            </g>
        </g>
    </g>
</svg>