<?xml version="1.0" encoding="UTF-8"?>
<svg width="52px" height="121px" viewBox="0 0 52 121" version="1.1" xmlns="http://www.w3.org/2000/svg" xmlns:xlink="http://www.w3.org/1999/xlink">
    <!-- Generator: Sketch 52.4 (67378) - http://www.bohemiancoding.com/sketch -->
    <title>28</title>
    <desc>Created with Sketch.</desc>
    <g id="Page-1" stroke="none" stroke-width="1" fill="none" fill-rule="evenodd">
        <g id="wahlkreise_gen" transform="translate(-182.000000, -173.000000)" fill="#000000">
            <g id="28" transform="translate(182.000000, 173.000000)">
                <polyline id="Path" points="36 24 37 23 37 24 38 24 38 25 39 25 39 26 40 27 37 30 36 31 36 33 35 33 35 34 35 38 35 42 36 46 36 47 36 50 35 57 35 58 35 59 34 61 34 63 34 64 34 65 34 66 36 69 37 70 38 71 41 72 43 73 44 73 45 73 45 74 47 79 48 81 49 83 50 84 51 85 52 85 52 86 52 89 48 93 48 94 47 96 47 98 47 99 48 100 50 101 51 104 51 105 51 106 49 107 49 106 47 106 47 107 46 112 47 113 46 115 44 115 41 116 39 117 39 118 38 119 36 120 36 121 35 121 34 121 33 121 32 121 33 121 33 120 33 119 33 118 30 118 29 118 27 117 28 116 28 115 26 114 25 114 23 113 21 111 17 111 16 111 14 112 13 112 12 111 10 108 9 108 9 107 6 104 5 99 6 96 6 95 3 90 1 88 0 87 1 86 2 83 4 82 5 82 5 81 6 81 10 81 12 83 14 84 16 83 18 83 18 82 18 81 19 78 20 77 21 75 20 75 20 74 20 72 19 72 20 70 21 69 20 67 20 66 20 65 20 64 18 58 16 56 15 55 14 56 13 55 10 53 10 51 10 50 10 49 11 49 12 49 12 47 13 47 13 46 13 43 12 42 13 42 13 43 14 43 15 43 16 43 17 43 18 42 19 41 20 40 20 39 21 36 21 35 22 35 22 33 22 28 21 27 20 27 19 27 18 28 15 27 16 22 16 20 16 19 17 18 17 17 19 16 20 15 21 15 22 15 23 15 23 16 24 16 25 17 26 19 27 20 28 21 33 23 36 24"></polyline>
                <polyline id="Path" points="7 3 7 2 7 1 8 0 9 0 10 0 11 0 12 0 12 1 10 2 9 2 7 3"></polyline>
            </g>
        </g>
    </g>
</svg>