<?xml version="1.0" encoding="UTF-8"?>
<svg width="58px" height="68px" viewBox="0 0 58 68" version="1.1" xmlns="http://www.w3.org/2000/svg" xmlns:xlink="http://www.w3.org/1999/xlink">
    <!-- Generator: Sketch 52.4 (67378) - http://www.bohemiancoding.com/sketch -->
    <title>280</title>
    <desc>Created with Sketch.</desc>
    <g id="Page-1" stroke="none" stroke-width="1" fill="none" fill-rule="evenodd">
        <g id="wahlkreise_gen" transform="translate(-188.000000, -809.000000)" fill="#000000">
            <g id="280" transform="translate(188.000000, 809.000000)">
                <polyline id="Path" points="44 3 45 5 48 8 50 8 52 8 51 8 51 9 52 9 54 13 56 14 57 14 58 15 57 19 56 20 54 22 51 24 51 26 51 27 51 28 51 29 52 30 51 32 50 31 49 31 47 32 48 40 48 41 49 41 48 44 49 44 51 46 53 48 53 49 52 50 51 50 50 51 49 53 48 53 48 54 49 55 49 56 48 57 47 59 48 59 48 60 47 60 46 60 44 60 43 59 42 59 42 58 40 57 38 57 35 58 34 57 33 57 29 57 27 57 24 59 24 64 25 66 25 68 22 68 20 68 16 67 15 67 14 66 14 65 13 65 13 62 13 61 13 60 13 59 12 59 11 59 10 59 9 61 10 62 10 63 8 64 7 62 5 60 3 57 2 57 4 55 5 54 5 52 5 51 6 46 5 45 4 45 3 45 2 44 2 43 1 43 1 41 1 36 2 33 0 31 0 30 1 30 2 30 2 31 3 31 4 31 4 32 5 32 7 33 8 33 10 32 12 31 15 28 16 28 16 27 16 26 18 26 20 25 21 23 21 20 22 18 22 17 23 16 23 15 24 15 24 12 25 11 24 10 23 10 20 8 18 2 15 1 16 1 19 0 19 1 19 2 20 2 21 3 24 2 25 2 26 3 27 3 28 4 29 5 28 5 27 5 27 6 28 7 29 7 30 7 30 6 30 5 31 5 31 4 35 2 36 2 36 1 36 2 38 3 39 3 40 4 43 3 43 2 43 1 42 1 43 0 43 1 44 3"></polyline>
            </g>
        </g>
    </g>
</svg>