<?xml version="1.0" encoding="UTF-8"?>
<svg width="52px" height="56px" viewBox="0 0 52 56" version="1.1" xmlns="http://www.w3.org/2000/svg" xmlns:xlink="http://www.w3.org/1999/xlink">
    <!-- Generator: Sketch 52.4 (67378) - http://www.bohemiancoding.com/sketch -->
    <title>283</title>
    <desc>Created with Sketch.</desc>
    <g id="Page-1" stroke="none" stroke-width="1" fill="none" fill-rule="evenodd">
        <g id="wahlkreise_gen" transform="translate(-133.000000, -861.000000)" fill="#000000">
            <g id="283" transform="translate(133.000000, 861.000000)">
                <polyline id="Path" points="22 3 22 4 22 5 23 5 24 5 25 5 25 4 25 3 26 3 30 4 31 4 32 6 34 8 35 10 36 14 36 15 35 16 35 17 36 19 37 18 38 16 39 15 40 14 40 15 41 16 42 16 46 16 47 14 46 13 46 12 47 12 50 13 50 15 50 16 50 17 49 19 48 20 47 22 48 22 49 22 52 24 52 25 52 26 52 27 51 28 52 33 50 34 49 35 48 39 48 40 48 41 49 42 50 44 51 47 49 48 49 47 48 47 47 48 46 48 46 49 47 53 47 55 48 55 48 56 47 55 47 54 46 53 45 52 41 49 36 48 30 48 29 50 27 50 25 49 24 49 24 50 21 47 18 45 16 42 15 42 6 42 3 42 1 42 0 41 0 40 2 35 6 30 7 28 8 28 8 27 8 26 9 23 10 20 10 18 10 17 11 16 12 16 14 15 14 14 15 14 15 13 15 12 14 9 14 7 14 5 14 4 15 3 16 0 21 2 22 2 22 3"></polyline>
            </g>
        </g>
    </g>
</svg>