<?xml version="1.0" encoding="UTF-8"?>
<svg width="48px" height="81px" viewBox="0 0 48 81" version="1.1" xmlns="http://www.w3.org/2000/svg" xmlns:xlink="http://www.w3.org/1999/xlink">
    <!-- Generator: Sketch 52.4 (67378) - http://www.bohemiancoding.com/sketch -->
    <title>286</title>
    <desc>Created with Sketch.</desc>
    <g id="Page-1" stroke="none" stroke-width="1" fill="none" fill-rule="evenodd">
        <g id="wahlkreise_gen" transform="translate(-179.000000, -866.000000)" fill="#000000">
            <g id="286" transform="translate(179.000000, 866.000000)">
                <polyline id="Path" points="19 13 19 14 18 14 17 14 15 14 15 15 16 22 17 23 17 24 18 24 18 25 18 27 17 28 15 30 16 30 20 31 21 30 22 30 23 30 24 29 25 30 26 30 28 31 29 32 30 31 29 30 29 29 29 28 32 29 35 30 36 30 39 35 39 36 38 36 38 37 40 42 41 43 42 43 43 43 43 42 46 46 47 48 46 49 48 55 45 59 44 58 43 58 42 59 42 60 42 62 42 64 42 65 43 68 44 69 46 71 45 73 45 74 45 75 44 77 44 78 40 77 39 77 38 80 36 81 35 81 36 80 36 79 35 75 34 74 31 72 31 71 29 71 28 68 26 64 23 62 22 62 21 62 18 58 17 56 18 56 18 55 18 54 18 53 17 53 9 53 8 54 6 53 5 52 4 52 2 51 2 50 1 50 1 48 0 44 0 43 1 43 2 42 3 42 3 43 5 42 4 39 3 37 2 36 2 35 2 34 3 30 4 29 6 28 5 23 6 22 6 21 6 20 6 19 3 17 2 17 1 17 2 15 3 14 4 12 4 11 4 10 4 8 6 6 7 4 7 3 8 2 10 0 11 0 12 0 14 3 16 5 17 7 18 7 18 8 19 8 19 9 20 13 19 13"></polyline>
            </g>
        </g>
    </g>
</svg>