<?xml version="1.0" encoding="UTF-8"?>
<svg width="67px" height="68px" viewBox="0 0 67 68" version="1.1" xmlns="http://www.w3.org/2000/svg" xmlns:xlink="http://www.w3.org/1999/xlink">
    <!-- Generator: Sketch 52.4 (67378) - http://www.bohemiancoding.com/sketch -->
    <title>288</title>
    <desc>Created with Sketch.</desc>
    <g id="Page-1" stroke="none" stroke-width="1" fill="none" fill-rule="evenodd">
        <g id="wahlkreise_gen" transform="translate(-157.000000, -909.000000)" fill="#000000">
            <g id="288" transform="translate(157.000000, 909.000000)">
                <polyline id="Path" points="17 1 21 4 22 5 23 6 23 7 24 8 26 9 27 9 28 10 30 11 31 10 39 10 40 10 40 11 40 12 40 13 39 13 40 15 43 19 44 19 45 19 48 21 50 25 51 28 53 28 53 29 56 31 57 32 58 36 58 37 57 38 56 39 55 39 55 38 55 39 54 40 53 40 52 42 52 43 51 43 51 45 48 47 48 48 48 51 48 52 54 56 57 55 58 54 58 53 59 53 60 52 61 52 64 52 65 52 67 54 67 55 67 56 66 56 65 56 66 56 66 55 66 54 65 54 64 55 64 56 64 57 64 58 65 58 65 59 65 60 64 61 63 61 62 61 61 61 62 60 62 59 61 58 59 57 58 57 57 57 57 58 56 59 52 61 52 62 53 63 54 63 55 63 55 64 54 64 50 65 41 65 40 65 40 64 38 63 38 62 38 61 38 60 37 60 37 59 30 58 29 58 25 61 21 63 21 64 19 66 14 67 13 67 12 66 11 66 10 66 9 66 8 66 8 67 7 67 7 68 5 67 4 67 4 66 4 65 4 64 4 63 3 63 3 62 2 62 3 62 3 61 3 60 2 60 2 59 1 58 1 56 1 55 3 55 4 54 9 50 10 48 10 47 10 46 9 44 9 41 10 40 10 39 11 39 12 38 13 35 12 35 12 34 12 32 12 31 13 30 14 29 14 28 14 27 14 26 13 26 12 26 11 26 10 26 9 25 8 25 7 24 3 24 2 21 3 21 4 20 6 16 6 10 6 9 6 8 6 7 6 6 5 7 4 7 3 7 2 7 1 6 0 3 0 2 0 1 1 1 3 2 5 2 6 0 12 0 17 1"></polyline>
            </g>
        </g>
    </g>
</svg>