<?xml version="1.0" encoding="UTF-8"?>
<svg width="79px" height="80px" viewBox="0 0 79 80" version="1.1" xmlns="http://www.w3.org/2000/svg" xmlns:xlink="http://www.w3.org/1999/xlink">
    <!-- Generator: Sketch 52.4 (67378) - http://www.bohemiancoding.com/sketch -->
    <title>29</title>
    <desc>Created with Sketch.</desc>
    <g id="Page-1" stroke="none" stroke-width="1" fill="none" fill-rule="evenodd">
        <g id="wahlkreise_gen" transform="translate(-217.000000, -152.000000)" fill="#000000">
            <g id="29" transform="translate(217.000000, 152.000000)">
                <polyline id="Path" points="31 8 32 8 33 8 34 8 35 8 37 7 38 7 39 7 41 8 42 8 42 9 42 8 41 8 41 7 39 3 40 2 41 2 42 2 44 2 46 2 48 2 51 2 55 2 56 2 57 2 59 3 61 4 62 4 64 5 64 6 67 9 68 11 68 12 69 14 70 15 72 19 72 20 73 21 74 22 77 24 79 26 77 28 75 29 73 30 70 32 72 34 73 35 73 36 71 36 70 37 70 38 70 39 69 39 68 42 66 43 66 44 66 45 65 46 64 47 62 48 61 48 60 46 59 46 56 46 56 47 55 47 54 47 53 46 52 44 52 43 52 41 52 40 51 40 51 39 49 42 49 43 49 44 48 44 43 43 40 44 38 46 37 47 36 47 35 47 34 47 33 48 32 48 32 49 33 49 37 50 37 51 37 55 36 57 33 60 34 60 36 63 33 66 32 66 33 67 31 66 29 65 24 66 21 68 20 71 21 72 21 73 21 74 20 75 17 77 14 79 11 80 10 80 8 79 7 78 6 78 6 77 6 78 5 78 4 79 2 79 1 78 1 77 2 77 2 76 2 75 2 74 2 73 2 72 2 71 2 70 1 69 1 68 1 67 0 63 0 59 0 55 2 54 3 54 6 53 9 53 11 52 13 50 13 49 12 49 12 48 10 42 11 41 12 39 13 38 12 38 11 37 10 38 8 39 4 37 2 37 1 34 0 31 0 27 0 26 0 24 1 23 3 16 4 14 4 13 4 11 5 11 5 10 5 9 6 6 9 3 10 2 13 1 14 0 15 0 16 0 19 4 19 5 21 6 22 7 23 7 23 8 24 8 26 8 31 8"></polyline>
            </g>
        </g>
    </g>
</svg>