<?xml version="1.0" encoding="UTF-8"?>
<svg width="39px" height="48px" viewBox="0 0 39 48" version="1.1" xmlns="http://www.w3.org/2000/svg" xmlns:xlink="http://www.w3.org/1999/xlink">
    <!-- Generator: Sketch 52.4 (67378) - http://www.bohemiancoding.com/sketch -->
    <title>290</title>
    <desc>Created with Sketch.</desc>
    <g id="Page-1" stroke="none" stroke-width="1" fill="none" fill-rule="evenodd">
        <g id="wahlkreise_gen" transform="translate(-236.000000, -837.000000)" fill="#000000">
            <g id="290" transform="translate(236.000000, 837.000000)">
                <polyline id="Path" points="31 3 32 3 32 5 32 6 31 8 34 9 35 10 36 11 36 13 35 13 34 13 33 13 32 14 32 18 32 20 32 21 32 22 32 23 31 23 31 25 31 26 32 26 33 29 32 29 31 30 31 31 31 32 32 33 34 33 35 35 35 36 36 36 37 37 38 37 39 38 39 39 39 40 39 41 37 41 35 42 36 43 37 44 37 45 37 46 34 47 32 47 30 48 28 48 27 48 27 47 26 46 26 45 25 45 23 43 23 42 24 42 23 41 19 41 18 42 17 44 16 45 13 45 13 44 13 43 12 43 11 42 10 41 9 40 9 39 8 39 8 38 8 37 8 36 8 32 8 30 6 29 6 28 5 28 3 27 1 27 0 26 0 25 1 25 2 23 3 22 4 22 5 21 5 20 3 18 1 16 0 16 1 13 3 14 3 15 7 16 9 15 9 14 8 11 11 8 13 7 17 5 19 4 21 5 27 4 29 1 29 0 30 0 30 2 30 3 31 3"></polyline>
            </g>
        </g>
    </g>
</svg>