<?xml version="1.0" encoding="UTF-8"?>
<svg width="36px" height="28px" viewBox="0 0 36 28" version="1.1" xmlns="http://www.w3.org/2000/svg" xmlns:xlink="http://www.w3.org/1999/xlink">
    <!-- Generator: Sketch 52.4 (67378) - http://www.bohemiancoding.com/sketch -->
    <title>296</title>
    <desc>Created with Sketch.</desc>
    <g id="Page-1" stroke="none" stroke-width="1" fill="none" fill-rule="evenodd">
        <g id="wahlkreise_gen" transform="translate(-62.000000, -743.000000)" fill="#000000">
            <g id="296" transform="translate(62.000000, 743.000000)">
                <polyline id="Path" points="24 1 25 2 27 4 28 5 29 5 29 6 30 7 30 8 30 9 30 10 32 11 33 11 33 10 34 10 36 11 36 12 36 15 35 17 34 20 33 22 33 23 32 23 31 27 30 28 29 28 29 29 29 28 28 28 28 27 27 23 27 21 27 20 25 18 22 16 19 15 17 15 13 14 12 14 11 15 10 15 11 15 11 16 12 16 12 17 13 19 12 20 11 22 11 23 10 23 8 22 7 21 6 21 5 21 4 21 2 21 0 20 0 19 0 18 1 17 1 16 2 16 1 14 2 13 4 13 5 13 8 11 10 9 9 8 9 7 10 7 12 6 14 4 15 4 14 1 14 0 15 1 16 1 17 0 21 0 23 1 24 1"></polyline>
            </g>
        </g>
    </g>
</svg>