<?xml version="1.0" encoding="UTF-8"?>
<svg width="51px" height="51px" viewBox="0 0 51 51" version="1.1" xmlns="http://www.w3.org/2000/svg" xmlns:xlink="http://www.w3.org/1999/xlink">
    <!-- Generator: Sketch 52.4 (67378) - http://www.bohemiancoding.com/sketch -->
    <title>297</title>
    <desc>Created with Sketch.</desc>
    <g id="Page-1" stroke="none" stroke-width="1" fill="none" fill-rule="evenodd">
        <g id="wahlkreise_gen" transform="translate(-33.000000, -706.000000)" fill="#000000">
            <g id="297" transform="translate(33.000000, 706.000000)">
                <polyline id="Path" points="46 2 47 3 48 3 49 2 50 2 51 3 51 4 51 7 51 13 49 14 48 14 47 15 46 15 46 16 44 17 40 18 39 18 38 18 37 20 37 22 37 23 37 25 38 26 40 28 41 30 43 31 45 31 47 31 47 32 46 34 43 36 43 37 43 38 44 41 43 41 41 43 39 44 38 44 38 45 39 46 37 48 34 50 33 50 31 50 30 51 28 51 27 51 27 50 26 46 25 44 26 43 23 41 22 40 21 40 21 39 19 38 19 37 17 34 17 33 17 32 18 32 18 33 19 33 20 32 20 31 19 29 18 28 17 28 15 27 15 26 15 25 16 25 17 24 16 24 15 23 15 22 12 20 8 18 7 18 5 17 4 18 3 18 1 18 1 17 0 9 1 9 2 7 3 7 5 7 6 7 10 8 11 9 12 10 13 10 15 10 16 9 18 9 19 9 19 10 19 11 20 12 21 12 21 11 22 10 22 9 23 9 28 8 30 8 33 7 34 7 40 3 43 1 45 0 46 0 46 2"></polyline>
            </g>
        </g>
    </g>
</svg>