<?xml version="1.0" encoding="UTF-8"?>
<svg width="43px" height="41px" viewBox="0 0 43 41" version="1.1" xmlns="http://www.w3.org/2000/svg" xmlns:xlink="http://www.w3.org/1999/xlink">
    <!-- Generator: Sketch 52.4 (67378) - http://www.bohemiancoding.com/sketch -->
    <title>298</title>
    <desc>Created with Sketch.</desc>
    <g id="Page-1" stroke="none" stroke-width="1" fill="none" fill-rule="evenodd">
        <g id="wahlkreise_gen" transform="translate(-70.000000, -703.000000)" fill="#000000">
            <g id="298" transform="translate(70.000000, 703.000000)">
                <polyline id="Path" points="23 1 23 2 24 2 25 4 25 5 28 6 29 6 30 6 30 5 33 7 33 8 36 10 37 10 38 10 38 9 39 9 40 9 41 11 41 12 41 14 42 16 41 17 41 21 42 21 43 22 43 23 42 23 40 25 39 25 38 26 38 27 39 27 42 31 39 32 39 31 38 31 37 31 37 32 35 33 33 33 32 33 31 32 30 33 30 34 29 35 29 36 29 37 28 38 27 39 27 40 26 39 24 38 21 38 19 38 16 41 15 41 13 40 9 40 8 41 7 41 6 40 6 39 9 37 10 35 10 34 8 34 6 34 4 33 3 31 1 29 0 28 0 26 0 25 0 23 1 21 2 21 3 21 7 20 9 19 9 18 10 18 11 17 12 17 14 16 14 10 14 7 14 6 13 5 12 5 11 6 10 6 9 5 9 3 11 3 16 0 17 1 19 1 20 1 20 0 23 1"></polyline>
            </g>
        </g>
    </g>
</svg>