<?xml version="1.0" encoding="UTF-8"?>
<svg width="106px" height="65px" viewBox="0 0 106 65" version="1.1" xmlns="http://www.w3.org/2000/svg" xmlns:xlink="http://www.w3.org/1999/xlink">
    <!-- Generator: Sketch 52.4 (67378) - http://www.bohemiancoding.com/sketch -->
    <title>3</title>
    <desc>Created with Sketch.</desc>
    <g id="Page-1" stroke="none" stroke-width="1" fill="none" fill-rule="evenodd">
        <g id="wahlkreise_gen" transform="translate(-232.000000, -111.000000)" fill="#000000">
            <g id="3" transform="translate(232.000000, 111.000000)">
                <polyline id="Path" points="1 21 0 21 0 20 0 19 1 18 2 18 1 19 1 20 1 21"></polyline>
                <polyline id="Path" points="58 2 58 5 57 5 56 6 55 6 55 7 54 7 52 8 50 9 48 11 49 13 49 15 49 18 48 19 50 19 54 19 57 19 58 18 58 17 59 16 60 16 61 15 65 14 66 14 67 15 68 15 69 16 71 21 74 21 75 21 79 21 83 20 86 20 87 21 90 24 91 25 92 26 93 25 97 24 99 24 99 26 103 31 104 31 105 30 106 30 106 31 106 32 105 33 104 33 104 35 104 36 102 35 101 36 98 38 98 39 97 41 96 41 95 41 94 41 93 40 92 40 88 42 89 43 92 49 92 50 91 50 88 47 87 46 86 46 85 45 84 44 83 43 82 41 79 41 78 41 77 41 76 41 75 42 74 43 75 43 75 44 75 46 77 48 76 53 75 53 74 56 73 57 71 58 70 58 68 60 69 63 70 63 69 64 68 64 67 64 65 64 62 65 59 63 58 62 57 61 57 60 55 56 54 55 53 53 53 52 52 50 49 47 49 46 47 45 46 45 44 44 42 43 41 43 40 43 36 43 33 43 31 43 29 43 27 43 26 43 26 41 25 41 23 41 22 41 19 38 18 37 18 36 17 35 17 34 15 30 14 28 13 26 12 24 13 23 13 22 14 22 15 21 16 21 18 22 19 22 20 22 20 23 21 23 22 23 22 22 23 22 23 21 23 20 24 20 24 19 23 18 22 17 21 15 19 11 20 11 21 11 22 9 23 8 25 8 26 9 30 10 31 10 36 10 37 8 38 7 39 7 40 7 42 7 43 4 45 3 50 3 51 3 51 2 55 1 56 1 57 1 57 0 58 1 58 2"></polyline>
            </g>
        </g>
    </g>
</svg>