<?xml version="1.0" encoding="UTF-8"?>
<svg width="68px" height="72px" viewBox="0 0 68 72" version="1.1" xmlns="http://www.w3.org/2000/svg" xmlns:xlink="http://www.w3.org/1999/xlink">
    <!-- Generator: Sketch 52.4 (67378) - http://www.bohemiancoding.com/sketch -->
    <title>30</title>
    <desc>Created with Sketch.</desc>
    <g id="Page-1" stroke="none" stroke-width="1" fill="none" fill-rule="evenodd">
        <g id="wahlkreise_gen" transform="translate(-249.000000, -178.000000)" fill="#000000">
            <g id="30" transform="translate(249.000000, 178.000000)">
                <polyline id="Path" points="67 20 67 24 67 26 68 27 68 32 68 33 62 36 60 37 58 39 56 41 53 44 51 46 52 47 54 50 54 51 55 52 55 53 54 53 54 54 55 56 52 57 49 58 48 59 45 60 44 60 42 59 42 58 38 62 36 67 34 67 33 67 32 66 32 65 31 65 29 66 28 66 27 66 26 66 26 65 25 65 25 64 25 63 23 63 22 63 22 64 22 65 22 66 21 66 21 67 19 68 19 69 18 70 16 72 13 71 13 69 12 68 11 67 10 66 10 65 10 64 10 63 10 58 9 57 8 57 8 56 7 55 7 54 8 53 8 52 9 51 8 49 7 48 6 47 4 44 0 42 0 41 1 41 0 40 1 40 4 37 2 34 1 34 4 31 5 29 5 25 5 24 1 23 0 23 0 22 1 22 2 21 3 21 4 21 5 21 6 20 8 18 11 17 16 18 17 18 17 17 17 16 19 13 19 14 20 14 20 15 20 17 20 18 21 20 22 21 23 21 24 21 24 20 27 20 28 20 29 22 30 22 32 21 33 20 34 19 34 18 34 17 36 16 37 13 38 13 38 12 38 11 39 10 41 10 41 9 40 8 38 6 41 4 43 3 45 2 47 0 48 3 48 4 49 5 49 7 49 8 50 9 50 10 52 12 54 13 60 17 62 17 64 18 68 18 67 19 67 20"></polyline>
            </g>
        </g>
    </g>
</svg>