<?xml version="1.0" encoding="UTF-8"?>
<svg width="82px" height="72px" viewBox="0 0 82 72" version="1.1" xmlns="http://www.w3.org/2000/svg" xmlns:xlink="http://www.w3.org/1999/xlink">
    <!-- Generator: Sketch 52.4 (67378) - http://www.bohemiancoding.com/sketch -->
    <title>31</title>
    <desc>Created with Sketch.</desc>
    <g id="Page-1" stroke="none" stroke-width="1" fill="none" fill-rule="evenodd">
        <g id="wahlkreise_gen" transform="translate(-73.000000, -293.000000)" fill="#000000">
            <g id="31" transform="translate(73.000000, 293.000000)">
                <polyline id="Path" points="80 0 81 2 82 5 82 6 78 8 77 11 78 12 79 14 80 15 80 16 80 18 80 19 79 19 78 20 75 22 74 23 74 24 73 25 74 25 74 26 74 27 75 28 74 33 74 38 73 40 73 42 73 43 72 44 71 45 70 48 71 49 73 50 72 50 70 55 69 56 68 56 67 56 66 56 64 58 63 58 63 59 62 59 61 60 59 61 58 62 58 63 55 64 54 65 53 66 52 67 50 67 49 67 48 69 45 69 43 69 42 69 41 69 40 69 38 69 37 69 36 69 35 69 34 69 33 70 32 72 29 72 27 70 27 68 26 66 26 65 27 64 29 60 30 57 30 56 30 55 30 53 29 51 28 51 27 51 26 47 25 46 25 45 24 43 24 42 23 43 22 45 21 46 20 46 17 45 14 44 10 43 7 43 5 42 2 40 1 39 1 38 1 36 2 35 0 31 1 31 3 31 7 30 7 29 5 28 3 26 2 21 5 19 6 18 8 18 9 18 12 18 14 18 15 18 16 18 17 18 19 19 19 20 20 20 21 20 23 20 24 19 26 20 26 21 25 23 25 24 27 23 28 23 29 24 33 26 33 27 34 27 36 27 35 24 36 21 36 19 37 19 38 19 38 18 38 19 39 19 40 19 41 18 40 16 38 13 36 13 37 9 39 8 40 8 42 8 43 8 46 6 47 5 47 4 51 5 52 5 55 6 56 5 57 5 59 4 61 8 62 9 67 6 75 1 76 1 77 1 78 2 78 1 80 1 80 0"></polyline>
            </g>
        </g>
    </g>
</svg>