<?xml version="1.0" encoding="UTF-8"?>
<svg width="81px" height="87px" viewBox="0 0 81 87" version="1.1" xmlns="http://www.w3.org/2000/svg" xmlns:xlink="http://www.w3.org/1999/xlink">
    <!-- Generator: Sketch 52.4 (67378) - http://www.bohemiancoding.com/sketch -->
    <title>33</title>
    <desc>Created with Sketch.</desc>
    <g id="Page-1" stroke="none" stroke-width="1" fill="none" fill-rule="evenodd">
        <g id="wahlkreise_gen" transform="translate(-201.000000, -261.000000)" fill="#000000">
            <g id="33" transform="translate(201.000000, 261.000000)">
                <polyline id="Path" points="39 2 41 4 42 4 42 5 48 6 49 6 50 6 50 8 50 9 49 10 49 9 49 10 48 11 48 12 48 13 49 14 50 18 51 19 52 22 54 22 55 21 55 19 56 17 57 17 59 17 60 17 61 17 64 20 65 21 69 20 70 22 71 25 72 28 71 28 71 31 75 33 77 33 77 32 80 32 80 34 79 35 79 36 80 37 81 37 81 39 80 41 80 42 80 43 79 43 78 41 79 38 78 37 77 38 76 40 75 40 73 40 72 41 70 42 68 42 67 42 66 42 65 42 61 43 60 44 59 44 57 44 56 45 57 46 58 47 56 53 56 52 55 52 54 52 53 53 52 54 50 55 49 55 47 56 47 55 46 56 46 57 45 58 46 58 46 59 48 60 48 61 50 62 51 63 51 65 52 65 52 66 52 67 52 68 52 69 51 70 51 71 51 73 53 74 54 75 55 75 56 76 56 78 55 78 55 79 55 81 54 82 52 83 49 85 47 86 44 87 41 86 37 86 36 87 35 87 33 86 32 86 32 84 32 74 32 72 32 71 31 70 28 68 25 70 22 71 20 72 19 72 18 71 17 71 17 70 13 73 13 76 12 77 10 79 9 79 5 79 4 79 4 78 1 77 0 77 0 78 1 72 1 70 2 67 3 67 4 67 4 66 4 65 3 63 2 62 1 62 1 61 0 55 0 54 0 52 1 48 2 47 5 46 9 43 10 43 12 43 13 42 14 41 14 40 14 39 13 39 12 35 13 33 14 33 15 33 16 33 17 33 17 32 19 31 20 30 20 29 22 28 25 27 27 27 28 25 27 24 28 19 28 18 30 18 30 19 32 18 32 17 32 16 31 13 29 12 28 11 28 10 28 8 29 6 29 5 33 1 33 2 34 2 35 3 36 2 37 1 37 0 38 0 39 2"></polyline>
            </g>
        </g>
    </g>
</svg>