<?xml version="1.0" encoding="UTF-8"?>
<svg width="122px" height="69px" viewBox="0 0 122 69" version="1.1" xmlns="http://www.w3.org/2000/svg" xmlns:xlink="http://www.w3.org/1999/xlink">
    <!-- Generator: Sketch 52.4 (67378) - http://www.bohemiancoding.com/sketch -->
    <title>37</title>
    <desc>Created with Sketch.</desc>
    <g id="Page-1" stroke="none" stroke-width="1" fill="none" fill-rule="evenodd">
        <g id="wahlkreise_gen" transform="translate(-338.000000, -217.000000)" fill="#000000">
            <g id="37" transform="translate(338.000000, 217.000000)">
                <polyline id="Path" points="41 3 42 3 43 3 43 2 44 2 45 2 46 2 50 2 51 2 52 2 53 3 55 5 56 6 55 6 55 7 56 7 58 8 58 9 61 10 62 10 63 9 66 7 66 6 68 4 71 5 73 6 77 13 80 18 81 20 82 21 86 24 87 24 88 24 89 24 90 25 90 26 90 27 89 28 88 28 89 31 90 31 91 31 91 30 92 30 93 30 94 30 94 31 95 31 95 32 96 32 96 33 96 35 96 36 97 36 97 37 101 41 102 41 103 41 105 40 106 40 106 39 107 39 110 38 111 38 112 38 112 39 113 40 114 41 115 41 115 42 121 43 122 43 119 46 117 47 116 47 115 48 115 49 114 53 115 55 115 56 114 56 113 56 112 56 111 57 109 59 106 61 101 64 99 65 94 63 93 62 88 61 88 62 87 62 85 62 84 62 83 62 83 61 82 60 76 61 75 61 75 62 75 63 75 64 71 68 67 69 64 69 63 67 61 63 62 61 62 60 63 59 64 58 65 55 64 55 64 54 63 53 63 52 65 51 67 50 67 48 65 45 65 44 64 44 63 42 62 41 62 39 60 38 59 37 58 37 57 37 57 36 56 35 56 34 55 34 54 32 53 31 50 30 47 29 46 29 46 28 46 27 48 27 48 26 48 25 46 25 44 26 43 27 42 28 39 27 38 26 39 25 38 24 36 24 28 31 27 32 28 32 28 35 27 36 26 35 25 35 23 35 22 36 22 37 21 39 20 39 19 38 14 41 14 42 13 42 13 41 13 40 12 40 11 41 10 41 10 42 9 43 8 44 4 45 2 45 0 44 0 43 1 42 3 41 5 39 6 37 5 36 3 34 3 33 4 32 5 30 5 29 6 28 10 26 11 27 13 26 14 26 15 25 15 24 13 22 13 21 14 18 15 18 16 18 16 17 17 17 16 14 15 13 14 13 13 12 13 11 14 10 14 9 17 8 22 6 22 5 21 4 22 4 25 3 28 3 29 4 30 4 31 4 33 1 33 0 34 1 35 1 35 2 36 2 41 3"></polyline>
            </g>
        </g>
    </g>
</svg>