<?xml version="1.0" encoding="UTF-8"?>
<svg width="19px" height="12px" viewBox="0 0 19 12" version="1.1" xmlns="http://www.w3.org/2000/svg" xmlns:xlink="http://www.w3.org/1999/xlink">
    <!-- Generator: Sketch 52.4 (67378) - http://www.bohemiancoding.com/sketch -->
    <title>42</title>
    <desc>Created with Sketch.</desc>
    <g id="Page-1" stroke="none" stroke-width="1" fill="none" fill-rule="evenodd">
        <g id="wahlkreise_gen" transform="translate(-308.000000, -346.000000)" fill="#000000">
            <g id="42" transform="translate(308.000000, 346.000000)">
                <polyline id="Path" points="18 7 19 7 19 9 18 12 17 12 16 12 15 12 11 10 8 9 8 8 7 8 6 10 4 11 3 12 3 11 0 6 0 5 1 1 2 1 3 0 4 0 5 0 5 1 6 1 7 1 7 2 8 2 8 3 12 5 13 4 15 4 15 3 15 4 16 4 16 5 16 6 17 8 18 7"></polyline>
            </g>
        </g>
    </g>
</svg>