<?xml version="1.0" encoding="UTF-8"?>
<svg width="68px" height="41px" viewBox="0 0 68 41" version="1.1" xmlns="http://www.w3.org/2000/svg" xmlns:xlink="http://www.w3.org/1999/xlink">
    <!-- Generator: Sketch 52.4 (67378) - http://www.bohemiancoding.com/sketch -->
    <title>43</title>
    <desc>Created with Sketch.</desc>
    <g id="Page-1" stroke="none" stroke-width="1" fill="none" fill-rule="evenodd">
        <g id="wahlkreise_gen" transform="translate(-276.000000, -310.000000)" fill="#000000">
            <g id="43" transform="translate(276.000000, 310.000000)">
                <polyline id="Path" points="39 5 40 6 41 6 43 7 44 8 44 9 46 10 47 10 47 9 50 9 51 9 52 10 53 11 55 11 56 11 57 11 59 13 58 15 57 16 59 18 60 18 62 18 66 18 66 19 66 20 65 21 64 22 64 23 65 25 65 26 66 26 67 28 68 29 68 30 68 32 67 34 66 34 65 35 64 35 63 34 62 34 61 33 59 32 56 32 52 33 51 34 51 33 49 33 48 33 46 31 46 30 43 29 42 29 42 31 42 32 41 32 39 32 37 32 36 32 32 32 31 32 30 33 29 33 29 34 30 34 30 35 30 36 29 36 29 37 29 36 28 35 27 35 26 35 23 34 22 34 21 34 20 36 19 38 18 39 16 41 15 41 14 39 14 37 13 36 12 35 9 38 8 38 7 38 6 38 6 37 6 36 6 35 8 34 11 32 12 32 10 31 8 31 7 31 6 31 5 31 4 31 3 31 2 29 3 28 2 26 2 22 1 21 0 21 0 20 0 19 2 17 3 17 8 16 9 14 9 13 8 13 8 12 8 10 9 9 11 8 13 8 14 8 15 7 18 5 21 7 22 7 23 6 23 5 23 4 23 3 23 2 23 1 26 0 27 0 27 2 28 3 31 5 31 6 31 7 32 9 33 10 34 10 36 10 37 9 38 6 39 5"></polyline>
            </g>
        </g>
    </g>
</svg>