<?xml version="1.0" encoding="UTF-8"?>
<svg width="91px" height="93px" viewBox="0 0 91 93" version="1.1" xmlns="http://www.w3.org/2000/svg" xmlns:xlink="http://www.w3.org/1999/xlink">
    <!-- Generator: Sketch 52.4 (67378) - http://www.bohemiancoding.com/sketch -->
    <title>44</title>
    <desc>Created with Sketch.</desc>
    <g id="Page-1" stroke="none" stroke-width="1" fill="none" fill-rule="evenodd">
        <g id="wahlkreise_gen" transform="translate(-314.000000, -241.000000)" fill="#000000">
            <g id="44" transform="translate(314.000000, 241.000000)">
                <polyline id="Path" points="66 4 67 3 68 2 70 1 72 1 72 2 72 3 70 3 70 4 70 5 71 5 74 6 77 7 78 8 79 10 80 10 80 11 81 12 81 13 82 13 83 13 84 14 86 15 86 17 87 18 88 20 89 20 89 21 91 24 91 26 89 27 87 28 87 29 88 30 88 31 89 31 88 34 87 35 86 36 86 37 85 39 87 43 88 45 87 45 84 46 83 46 82 46 82 48 81 52 80 53 79 53 78 54 77 54 74 55 74 56 72 55 69 52 68 51 67 50 66 49 65 48 63 48 62 48 60 50 58 51 56 50 55 53 54 55 53 58 52 60 50 61 50 62 50 63 52 67 53 69 54 71 53 71 53 72 53 76 54 78 54 83 53 84 52 85 49 85 47 86 44 88 43 89 43 90 44 90 43 91 43 92 44 92 43 92 43 93 42 93 40 92 40 91 39 91 38 90 36 90 36 91 35 91 33 92 30 90 28 88 28 87 24 87 22 87 21 87 19 85 20 84 21 82 19 80 18 80 17 80 15 80 14 79 13 78 12 78 9 78 9 79 8 79 6 78 6 77 5 76 3 75 2 75 1 74 2 72 2 71 1 70 1 69 1 68 0 65 2 62 7 60 8 60 8 59 8 55 7 54 8 51 8 49 9 49 10 48 10 47 10 45 9 44 9 43 11 40 12 39 13 40 13 41 19 44 20 44 21 43 22 43 22 42 23 42 24 41 28 39 31 38 34 37 39 36 40 35 39 34 39 32 39 29 38 26 37 25 36 25 35 25 34 25 33 23 37 23 38 23 38 20 38 19 38 18 38 17 43 14 44 15 45 15 46 13 46 12 47 11 49 11 50 11 51 12 52 11 52 8 51 8 52 7 60 0 62 0 63 1 62 2 63 3 66 4"></polyline>
            </g>
        </g>
    </g>
</svg>