<?xml version="1.0" encoding="UTF-8"?>
<svg width="51px" height="50px" viewBox="0 0 51 50" version="1.1" xmlns="http://www.w3.org/2000/svg" xmlns:xlink="http://www.w3.org/1999/xlink">
    <!-- Generator: Sketch 52.4 (67378) - http://www.bohemiancoding.com/sketch -->
    <title>48</title>
    <desc>Created with Sketch.</desc>
    <g id="Page-1" stroke="none" stroke-width="1" fill="none" fill-rule="evenodd">
        <g id="wahlkreise_gen" transform="translate(-307.000000, -361.000000)" fill="#000000">
            <g id="48" transform="translate(307.000000, 361.000000)">
                <polyline id="Path" points="32 0 32 2 30 3 29 3 29 6 29 7 34 7 35 7 39 6 40 6 41 6 45 7 49 9 50 11 51 12 50 13 48 14 47 13 46 13 46 14 45 14 45 15 44 18 44 19 45 18 45 19 46 20 46 21 45 21 45 22 44 22 44 23 44 24 44 25 45 25 45 26 46 27 45 29 46 36 45 36 46 39 46 40 47 41 46 42 45 42 43 42 42 42 40 42 39 42 38 42 37 42 36 42 36 43 36 44 36 45 36 46 35 46 34 45 34 44 33 44 30 45 29 45 30 46 31 48 30 49 28 50 25 49 24 49 22 49 19 48 16 46 16 45 15 44 12 40 11 39 8 40 7 41 5 43 4 42 2 42 2 41 1 40 1 39 1 36 2 35 2 32 2 31 2 29 3 25 4 25 4 24 4 23 1 21 0 20 1 20 3 20 4 20 5 19 7 17 8 15 7 15 6 14 4 12 5 12 5 11 6 11 8 11 9 11 9 12 9 13 10 14 11 15 12 14 14 12 15 9 15 8 15 7 13 6 12 7 11 7 12 6 13 4 16 3 19 2 20 3 21 3 22 2 22 1 23 0 27 0 31 0 32 0"></polyline>
            </g>
        </g>
    </g>
</svg>