<?xml version="1.0" encoding="UTF-8"?>
<svg width="66px" height="65px" viewBox="0 0 66 65" version="1.1" xmlns="http://www.w3.org/2000/svg" xmlns:xlink="http://www.w3.org/1999/xlink">
    <!-- Generator: Sketch 52.4 (67378) - http://www.bohemiancoding.com/sketch -->
    <title>49</title>
    <desc>Created with Sketch.</desc>
    <g id="Page-1" stroke="none" stroke-width="1" fill="none" fill-rule="evenodd">
        <g id="wahlkreise_gen" transform="translate(-342.000000, -357.000000)" fill="#000000">
            <g id="49" transform="translate(342.000000, 357.000000)">
                <polyline id="Path" points="62 16 64 16 65 16 66 18 66 19 64 23 64 24 63 24 59 28 59 32 59 33 58 33 57 33 51 33 50 33 50 34 47 34 47 36 48 36 47 36 47 37 45 39 43 39 40 39 39 40 38 42 38 43 38 44 35 43 35 42 34 41 32 43 30 44 28 45 26 44 25 44 24 45 23 46 23 47 24 47 25 48 26 49 27 51 26 54 25 55 24 55 24 54 24 53 23 53 22 53 21 53 20 54 19 55 19 56 20 58 19 59 18 58 17 57 17 54 17 53 17 52 18 52 18 51 19 51 20 51 20 50 20 49 19 47 18 47 16 47 15 47 14 48 13 48 12 50 11 51 11 56 11 59 11 60 12 61 12 62 12 63 9 65 10 63 7 63 7 62 6 62 5 62 4 62 5 58 5 57 4 53 3 53 2 52 0 50 1 50 1 49 1 48 1 47 1 46 2 46 3 46 4 46 5 46 7 46 8 46 10 46 11 46 12 45 11 44 11 43 10 40 11 40 10 33 11 31 10 30 10 29 9 29 9 28 9 27 9 26 10 26 10 25 11 25 11 24 10 23 10 22 9 23 9 22 10 19 10 18 11 18 11 17 12 17 13 18 15 17 16 17 17 17 17 18 22 17 24 16 24 15 24 14 27 12 29 11 29 12 30 14 32 14 34 15 35 16 37 15 38 15 40 12 42 11 42 10 42 9 43 7 45 2 45 1 46 1 47 1 51 0 52 1 53 2 53 3 53 4 53 5 53 6 53 7 54 8 56 10 57 12 62 16"></polyline>
            </g>
        </g>
    </g>
</svg>