<?xml version="1.0" encoding="UTF-8"?>
<svg width="13px" height="24px" viewBox="0 0 13 24" version="1.1" xmlns="http://www.w3.org/2000/svg" xmlns:xlink="http://www.w3.org/1999/xlink">
    <!-- Generator: Sketch 52.4 (67378) - http://www.bohemiancoding.com/sketch -->
    <title>5</title>
    <desc>Created with Sketch.</desc>
    <g id="Page-1" stroke="none" stroke-width="1" fill="none" fill-rule="evenodd">
        <g id="wahlkreise_gen" transform="translate(-336.000000, -81.000000)" fill="#000000">
            <g id="5" transform="translate(336.000000, 81.000000)">
                <polyline id="Path" points="11 3 11 4 11 6 8 9 10 12 10 11 12 12 13 14 13 15 13 20 12 22 11 24 10 24 10 23 9 23 7 23 6 23 5 23 1 19 0 18 0 16 0 15 0 14 1 13 2 12 2 8 3 7 3 5 2 4 3 3 3 2 4 1 5 2 7 3 8 3 8 2 8 1 9 0 11 3"></polyline>
            </g>
        </g>
    </g>
</svg>