<?xml version="1.0" encoding="UTF-8"?>
<svg width="19px" height="22px" viewBox="0 0 19 22" version="1.1" xmlns="http://www.w3.org/2000/svg" xmlns:xlink="http://www.w3.org/1999/xlink">
    <!-- Generator: Sketch 52.4 (67378) - http://www.bohemiancoding.com/sketch -->
    <title>50</title>
    <desc>Created with Sketch.</desc>
    <g id="Page-1" stroke="none" stroke-width="1" fill="none" fill-rule="evenodd">
        <g id="wahlkreise_gen" transform="translate(-369.000000, -351.000000)" fill="#000000">
            <g id="50" transform="translate(369.000000, 351.000000)">
                <polyline id="Path" points="16 1 16 2 16 5 17 6 19 7 18 7 18 8 16 13 15 15 15 16 15 17 13 18 11 21 10 21 8 22 7 21 5 20 3 20 2 18 2 17 2 16 2 13 1 9 0 5 0 4 1 4 1 3 2 4 5 4 5 2 5 0 8 0 9 0 14 0 16 1"></polyline>
            </g>
        </g>
    </g>
</svg>