<?xml version="1.0" encoding="UTF-8"?>
<svg width="86px" height="58px" viewBox="0 0 86 58" version="1.1" xmlns="http://www.w3.org/2000/svg" xmlns:xlink="http://www.w3.org/1999/xlink">
    <!-- Generator: Sketch 52.4 (67378) - http://www.bohemiancoding.com/sketch -->
    <title>52</title>
    <desc>Created with Sketch.</desc>
    <g id="Page-1" stroke="none" stroke-width="1" fill="none" fill-rule="evenodd">
        <g id="wahlkreise_gen" transform="translate(-308.000000, -396.000000)" fill="#000000">
            <g id="52" transform="translate(308.000000, 396.000000)">
                <polyline id="Path" points="77 4 80 6 79 8 78 9 78 11 79 11 80 12 81 13 81 14 81 15 80 17 78 20 77 20 76 22 75 26 76 26 76 30 77 31 80 35 83 40 83 41 83 42 84 44 85 47 86 47 84 48 84 49 83 50 82 50 81 50 81 52 81 53 81 54 81 55 82 55 83 55 84 56 83 58 82 58 81 58 81 57 80 57 81 56 80 56 79 56 78 56 77 56 76 54 75 52 73 50 71 51 71 53 70 53 69 53 68 52 68 50 68 49 69 49 72 47 76 43 73 44 71 46 70 47 67 49 65 50 64 50 63 50 62 50 62 49 62 48 59 45 56 43 55 45 53 49 54 52 53 52 52 52 51 52 50 51 49 50 47 49 47 50 46 50 45 50 44 50 43 49 43 48 42 49 40 51 39 52 36 51 31 52 25 53 24 53 23 53 22 53 21 52 20 52 19 52 17 53 16 53 13 53 9 52 8 52 8 50 9 49 10 49 10 48 10 47 10 46 9 42 8 41 7 42 6 42 5 42 5 41 5 39 6 39 7 39 8 38 10 37 10 36 10 33 9 33 4 32 3 35 3 36 3 35 3 34 2 34 2 35 2 34 1 34 1 35 0 35 0 34 1 34 1 33 1 32 0 31 0 30 0 28 1 28 1 27 1 26 0 26 1 25 2 24 4 23 4 22 5 19 5 18 6 18 6 17 7 17 7 18 8 18 9 18 9 19 10 19 11 20 12 20 12 19 13 19 13 18 15 17 17 16 17 15 18 15 19 15 21 14 23 14 24 14 27 15 29 14 30 13 29 11 28 10 29 10 32 9 33 9 33 10 34 11 36 13 37 14 38 14 39 18 39 19 38 23 39 23 40 23 41 23 41 24 44 24 43 26 46 24 46 23 46 22 45 21 45 20 45 17 45 12 46 11 47 9 48 9 49 8 50 8 52 8 53 8 54 10 54 11 54 12 53 12 52 12 52 13 51 13 51 14 51 15 51 18 52 19 53 20 54 19 53 17 53 16 54 15 55 14 56 14 57 14 58 14 58 15 58 16 59 16 60 15 61 12 60 10 59 9 58 8 57 8 57 7 58 6 59 5 60 5 62 6 64 5 66 4 68 2 69 3 69 4 72 5 72 4 72 3 73 1 74 0 76 4 77 4"></polyline>
            </g>
        </g>
    </g>
</svg>