<?xml version="1.0" encoding="UTF-8"?>
<svg width="85px" height="51px" viewBox="0 0 85 51" version="1.1" xmlns="http://www.w3.org/2000/svg" xmlns:xlink="http://www.w3.org/1999/xlink">
    <!-- Generator: Sketch 52.4 (67378) - http://www.bohemiancoding.com/sketch -->
    <title>53</title>
    <desc>Created with Sketch.</desc>
    <g id="Page-1" stroke="none" stroke-width="1" fill="none" fill-rule="evenodd">
        <g id="wahlkreise_gen" transform="translate(-301.000000, -439.000000)" fill="#000000">
            <g id="53" transform="translate(301.000000, 439.000000)">
                <polyline id="Path" points="75 7 75 9 76 10 77 10 78 10 78 8 80 7 82 9 83 11 84 13 85 13 84 14 82 15 82 16 81 16 79 16 78 16 78 15 77 14 77 13 76 13 75 13 75 12 74 12 72 11 71 11 68 12 67 14 67 15 67 16 66 16 67 16 67 18 66 18 64 21 63 21 62 21 61 24 60 24 56 26 54 27 54 26 54 25 53 25 52 26 51 27 51 28 52 28 52 29 51 31 48 32 45 32 42 32 40 34 36 37 32 40 31 40 31 39 31 38 29 34 25 35 25 36 24 37 22 36 21 36 20 36 18 39 13 41 13 42 13 43 16 46 18 45 19 45 19 47 18 49 16 50 15 51 15 50 13 50 8 47 5 47 5 46 4 46 4 45 3 45 2 45 1 43 0 42 1 42 2 42 3 41 2 41 1 41 1 40 1 39 2 39 3 37 5 37 7 36 8 35 8 34 7 34 7 33 5 25 3 22 3 21 4 21 5 21 6 21 8 17 9 16 10 15 11 13 12 13 12 12 13 12 14 11 14 10 15 9 16 9 20 10 23 10 24 10 26 9 27 9 28 9 29 10 30 10 31 10 32 10 38 9 43 8 46 9 47 8 49 6 50 5 50 6 51 7 52 7 53 7 54 7 54 6 56 7 57 8 58 9 59 9 60 9 61 9 60 6 62 2 63 0 66 2 69 5 69 6 69 7 70 7 71 7 72 7 74 6 77 4 78 3 80 1 83 0 79 4 76 6 75 6 75 7"></polyline>
            </g>
        </g>
    </g>
</svg>