<?xml version="1.0" encoding="UTF-8"?>
<svg width="21px" height="18px" viewBox="0 0 21 18" version="1.1" xmlns="http://www.w3.org/2000/svg" xmlns:xlink="http://www.w3.org/1999/xlink">
    <!-- Generator: Sketch 52.4 (67378) - http://www.bohemiancoding.com/sketch -->
    <title>54</title>
    <desc>Created with Sketch.</desc>
    <g id="Page-1" stroke="none" stroke-width="1" fill="none" fill-rule="evenodd">
        <g id="wahlkreise_gen" transform="translate(-234.000000, -249.000000)" fill="#000000">
            <g id="54" transform="translate(234.000000, 249.000000)">
                <polyline id="Path" points="21 3 19 4 19 5 20 8 20 12 20 14 17 18 16 18 15 18 9 17 9 16 8 16 6 14 5 12 4 12 4 13 3 14 2 15 1 14 0 14 0 13 0 10 1 10 2 10 3 10 4 10 4 11 5 10 8 8 11 4 12 3 12 2 17 1 18 0 19 0 21 2 21 3"></polyline>
            </g>
        </g>
    </g>
</svg>