<?xml version="1.0" encoding="UTF-8"?>
<svg width="141px" height="111px" viewBox="0 0 141 111" version="1.1" xmlns="http://www.w3.org/2000/svg" xmlns:xlink="http://www.w3.org/1999/xlink">
    <!-- Generator: Sketch 52.4 (67378) - http://www.bohemiancoding.com/sketch -->
    <title>56</title>
    <desc>Created with Sketch.</desc>
    <g id="Page-1" stroke="none" stroke-width="1" fill="none" fill-rule="evenodd">
        <g id="wahlkreise_gen" transform="translate(-434.000000, -215.000000)" fill="#000000">
            <g id="56" transform="translate(434.000000, 215.000000)">
                <polyline id="Path" points="62 3 65 3 71 2 73 1 74 1 74 2 74 3 75 4 76 5 77 5 78 5 79 5 80 5 82 6 84 7 85 7 87 8 87 9 88 11 90 13 91 14 92 14 93 13 96 13 97 12 98 12 99 12 103 14 105 13 107 13 108 13 109 14 109 15 108 15 108 16 109 16 110 16 113 17 115 16 116 16 116 17 115 19 115 20 117 21 118 21 123 19 126 21 127 20 128 20 131 19 132 19 133 19 133 20 132 21 131 22 133 23 134 24 134 23 134 24 136 25 137 25 135 28 134 28 133 27 132 29 131 31 131 33 134 35 135 35 137 35 138 35 138 41 137 43 137 45 139 46 140 47 141 49 141 50 141 53 141 55 140 56 139 56 138 57 139 58 139 60 140 60 140 61 141 62 140 63 139 63 139 62 138 62 137 62 135 63 136 64 136 65 137 66 137 67 136 68 133 70 132 72 131 72 131 75 132 75 132 78 131 78 131 79 128 81 125 83 125 85 132 81 133 81 135 81 138 84 138 85 136 85 135 85 131 88 131 90 134 92 135 92 136 92 137 92 139 92 140 93 140 95 139 95 135 95 133 96 132 96 132 97 131 98 131 99 131 102 130 105 128 104 127 103 126 102 125 102 124 102 124 103 124 104 124 107 124 108 123 109 122 111 122 110 120 110 120 109 119 108 118 108 117 107 118 106 118 105 117 105 115 104 110 106 109 107 107 108 106 108 101 107 100 107 99 105 99 104 98 104 97 105 96 105 94 105 94 104 92 105 90 100 92 100 92 97 92 94 92 93 93 93 92 92 91 91 90 91 86 91 83 91 79 91 79 90 78 88 77 88 76 85 76 83 75 79 76 79 76 77 77 75 79 75 79 74 79 73 79 72 78 72 78 71 77 67 77 66 76 65 75 65 73 64 73 65 72 65 72 66 71 66 70 66 69 67 68 67 69 66 69 65 68 65 68 64 67 64 66 64 64 63 63 63 62 63 60 63 59 63 59 64 58 64 57 65 50 62 46 61 45 61 45 60 44 59 45 59 45 58 45 57 46 57 46 56 46 55 45 55 45 54 44 54 43 54 42 54 41 54 41 53 40 53 40 52 39 51 38 51 37 51 36 51 33 50 31 49 29 48 28 48 28 47 29 47 29 46 30 45 29 44 28 44 27 44 26 45 25 45 19 44 19 43 18 43 17 42 16 41 16 40 15 40 14 40 11 41 10 41 10 42 9 42 7 43 6 43 5 43 1 39 1 38 0 38 0 37 0 35 1 35 4 35 5 36 9 36 10 36 10 35 11 32 13 32 15 32 16 33 17 33 18 33 19 34 21 34 22 33 22 32 22 31 23 28 23 26 22 26 22 23 28 18 33 18 35 20 36 21 42 19 43 19 44 19 44 18 43 17 42 17 41 17 41 16 42 16 45 16 47 15 48 13 49 13 52 13 54 10 56 10 58 9 58 7 58 6 57 5 58 4 59 4 61 3 60 1 59 0 60 0 61 0 62 0 62 1 62 3"></polyline>
            </g>
        </g>
    </g>
</svg>