<?xml version="1.0" encoding="UTF-8"?>
<svg width="95px" height="67px" viewBox="0 0 95 67" version="1.1" xmlns="http://www.w3.org/2000/svg" xmlns:xlink="http://www.w3.org/1999/xlink">
    <!-- Generator: Sketch 52.4 (67378) - http://www.bohemiancoding.com/sketch -->
    <title>59</title>
    <desc>Created with Sketch.</desc>
    <g id="Page-1" stroke="none" stroke-width="1" fill="none" fill-rule="evenodd">
        <g id="wahlkreise_gen" transform="translate(-609.000000, -267.000000)" fill="#000000">
            <g id="59" transform="translate(609.000000, 267.000000)">
                <polyline id="Path" points="51 0 51 1 52 1 53 0 53 1 53 3 53 4 52 5 51 6 51 7 51 8 51 9 52 9 52 10 53 10 55 10 59 11 60 12 61 13 63 15 64 15 64 16 66 16 67 17 68 17 70 18 72 20 76 24 76 25 77 27 79 29 80 29 83 31 84 32 87 33 89 34 90 35 91 35 93 39 93 41 93 42 92 44 92 45 93 47 93 48 94 48 94 49 95 49 95 50 94 50 93 54 91 57 90 57 89 57 89 58 88 58 88 59 88 62 88 63 87 64 86 64 83 63 81 63 80 64 79 64 79 67 76 65 75 65 74 65 74 66 73 67 70 66 68 63 68 61 67 60 66 56 63 53 62 52 61 52 59 52 59 53 59 54 58 56 55 56 51 57 51 55 50 55 48 55 47 56 46 57 46 58 45 59 44 58 44 57 43 57 41 56 37 56 33 59 31 61 29 61 26 61 25 58 24 56 21 54 20 54 19 54 19 55 18 56 18 57 18 58 17 57 16 57 15 58 14 58 14 57 15 54 15 53 15 52 16 52 17 51 14 49 13 49 11 47 11 46 10 46 10 45 9 45 9 44 8 44 7 43 6 43 4 43 4 42 4 41 4 39 5 39 4 36 3 35 1 34 1 33 2 33 3 32 4 31 3 30 3 29 2 29 2 28 0 25 2 24 4 24 6 25 9 24 10 25 11 25 11 26 12 28 15 30 18 29 19 29 21 28 22 27 23 26 23 25 22 24 21 24 23 23 23 22 26 21 26 22 28 21 31 20 31 18 31 17 31 16 34 15 36 15 37 13 38 11 40 7 41 6 43 6 43 7 46 6 47 6 48 6 49 6 49 4 47 4 46 4 45 3 45 2 46 0 47 0 48 0 50 0 51 0"></polyline>
            </g>
        </g>
    </g>
</svg>