<?xml version="1.0" encoding="UTF-8"?>
<svg width="60px" height="66px" viewBox="0 0 60 66" version="1.1" xmlns="http://www.w3.org/2000/svg" xmlns:xlink="http://www.w3.org/1999/xlink">
    <!-- Generator: Sketch 52.4 (67378) - http://www.bohemiancoding.com/sketch -->
    <title>6</title>
    <desc>Created with Sketch.</desc>
    <g id="Page-1" stroke="none" stroke-width="1" fill="none" fill-rule="evenodd">
        <g id="wahlkreise_gen" transform="translate(-328.000000, -81.000000)" fill="#000000">
            <g id="6" transform="translate(328.000000, 81.000000)">
                <polyline id="Path" points="53 11 54 11 54 12 54 13 57 15 57 16 58 16 59 16 59 18 59 20 60 21 59 28 58 29 57 31 56 31 56 30 56 29 56 28 55 28 54 27 52 26 51 26 48 26 47 26 46 27 46 28 46 29 46 30 46 31 45 32 44 32 43 32 42 32 42 33 42 34 43 35 44 38 45 38 46 38 46 39 46 40 46 41 42 41 39 41 39 40 38 40 37 41 37 42 37 43 38 43 38 44 37 45 37 47 36 47 35 47 34 47 32 46 32 42 31 43 30 43 28 43 26 44 22 46 21 47 16 49 15 49 15 50 17 52 17 53 23 53 24 52 25 52 27 53 28 56 28 57 27 57 26 57 25 56 24 56 23 55 22 57 22 58 21 60 19 61 17 61 17 60 16 60 14 61 12 63 8 66 8 65 8 63 9 63 10 62 10 61 10 60 9 60 8 61 7 61 3 56 3 54 1 54 1 52 0 48 0 44 1 41 2 39 4 38 4 37 5 37 6 39 8 40 9 39 9 40 10 40 11 40 14 40 14 39 15 38 14 36 14 32 14 31 14 30 14 27 14 26 13 24 14 23 15 23 17 23 18 23 18 24 19 24 20 22 21 20 21 15 21 14 20 12 18 11 18 12 18 11 18 10 18 9 19 9 21 5 20 4 21 4 22 3 22 2 27 0 29 0 30 0 31 0 33 1 34 1 35 1 35 2 37 3 38 4 40 5 41 5 42 6 43 6 45 7 50 8 50 9 51 9 53 10 53 11"></polyline>
            </g>
        </g>
    </g>
</svg>