<?xml version="1.0" encoding="UTF-8"?>
<svg width="94px" height="66px" viewBox="0 0 94 66" version="1.1" xmlns="http://www.w3.org/2000/svg" xmlns:xlink="http://www.w3.org/1999/xlink">
    <!-- Generator: Sketch 52.4 (67378) - http://www.bohemiancoding.com/sketch -->
    <title>65</title>
    <desc>Created with Sketch.</desc>
    <g id="Page-1" stroke="none" stroke-width="1" fill="none" fill-rule="evenodd">
        <g id="wahlkreise_gen" transform="translate(-584.000000, -403.000000)" fill="#000000">
            <g id="65" transform="translate(584.000000, 403.000000)">
                <polyline id="Path" points="16 9 19 9 19 8 20 8 20 7 23 7 25 8 28 8 29 9 30 10 32 11 34 11 35 11 36 11 36 12 38 15 40 17 40 16 41 16 42 15 42 16 44 17 45 17 46 17 49 16 49 17 49 18 50 18 52 19 52 18 52 17 52 16 54 14 58 14 58 15 59 16 59 17 60 17 60 16 61 16 64 17 64 16 64 15 64 14 63 14 62 14 60 11 60 10 61 10 62 10 63 10 62 8 62 6 62 5 63 3 64 4 67 5 66 6 66 7 66 8 67 8 69 7 69 10 72 12 75 9 75 8 75 6 76 3 76 2 77 2 78 2 79 2 81 2 81 1 81 3 82 3 83 3 84 4 84 5 86 7 86 8 85 8 85 9 84 12 84 13 84 14 85 15 86 15 87 15 87 14 88 15 88 16 88 17 87 18 87 19 86 19 84 23 87 27 87 28 88 28 90 27 92 28 93 29 94 30 93 33 92 33 90 34 89 36 90 37 91 38 91 40 89 40 87 43 86 44 86 46 86 49 85 50 84 50 82 55 79 62 75 61 72 63 71 63 70 63 69 63 68 63 67 63 66 63 63 64 62 64 62 65 61 65 61 66 60 66 58 66 56 66 55 65 54 64 54 65 47 66 46 66 46 65 46 64 44 64 43 65 42 65 41 64 40 63 40 62 36 60 34 58 30 55 25 59 21 62 20 63 19 64 16 64 15 64 15 63 14 61 13 61 12 60 12 59 13 59 13 58 14 57 14 56 13 56 13 55 12 55 12 54 12 53 12 52 13 52 14 52 14 50 14 49 14 47 12 44 11 43 10 43 9 43 8 42 8 41 9 41 10 39 9 38 6 36 5 36 3 36 1 33 0 32 4 29 8 27 8 26 9 26 8 19 7 16 8 16 8 15 9 14 9 13 8 11 7 10 7 9 5 7 5 6 5 5 5 4 6 4 7 4 8 4 8 3 7 2 7 1 8 1 9 0 13 1 13 2 13 3 12 4 12 5 13 5 13 7 14 8 15 8 16 9"></polyline>
            </g>
        </g>
    </g>
</svg>