<?xml version="1.0" encoding="UTF-8"?>
<svg width="42px" height="50px" viewBox="0 0 42 50" version="1.1" xmlns="http://www.w3.org/2000/svg" xmlns:xlink="http://www.w3.org/1999/xlink">
    <!-- Generator: Sketch 52.4 (67378) - http://www.bohemiancoding.com/sketch -->
    <title>69</title>
    <desc>Created with Sketch.</desc>
    <g id="Page-1" stroke="none" stroke-width="1" fill="none" fill-rule="evenodd">
        <g id="wahlkreise_gen" transform="translate(-458.000000, -365.000000)" fill="#000000">
            <g id="69" transform="translate(458.000000, 365.000000)">
                <polyline id="Path" points="13 5 14 7 15 10 16 15 16 16 17 16 18 16 19 17 20 19 20 20 22 20 23 20 26 21 27 21 30 26 30 27 31 28 30 30 30 31 30 32 31 32 32 34 37 39 41 43 42 44 42 45 37 46 37 45 36 45 35 44 34 44 34 45 33 46 32 47 30 47 30 48 29 50 28 50 28 49 27 48 26 47 26 46 25 45 23 44 22 45 21 46 21 47 18 46 17 46 17 45 18 45 19 43 19 42 15 39 13 39 12 39 11 39 9 36 8 34 8 31 8 28 7 27 8 27 9 26 10 26 9 23 7 21 6 21 5 21 3 22 2 22 2 21 1 21 0 20 1 20 1 19 1 18 2 16 2 15 2 13 2 11 3 8 4 7 5 6 6 6 7 6 8 6 8 5 9 5 10 4 10 2 9 1 9 0 11 0 12 0 13 2 15 3 14 4 14 5 13 5"></polyline>
            </g>
        </g>
    </g>
</svg>