<?xml version="1.0" encoding="UTF-8"?>
<svg width="101px" height="75px" viewBox="0 0 101 75" version="1.1" xmlns="http://www.w3.org/2000/svg" xmlns:xlink="http://www.w3.org/1999/xlink">
    <!-- Generator: Sketch 52.4 (67378) - http://www.bohemiancoding.com/sketch -->
    <title>71</title>
    <desc>Created with Sketch.</desc>
    <g id="Page-1" stroke="none" stroke-width="1" fill="none" fill-rule="evenodd">
        <g id="wahlkreise_gen" transform="translate(-445.000000, -379.000000)" fill="#000000">
            <g id="71" transform="translate(445.000000, 379.000000)">
                <polyline id="Path" points="75 0 77 1 77 2 78 2 78 4 79 5 81 7 82 7 82 9 81 9 79 12 76 14 74 16 75 16 75 17 74 17 71 18 70 19 70 20 70 21 66 25 64 26 63 27 63 28 62 30 62 31 63 31 64 31 65 31 65 33 64 39 63 40 63 41 63 42 66 43 69 44 72 44 73 42 76 39 76 40 77 41 78 43 79 46 79 47 80 48 81 48 80 48 80 49 80 50 82 54 87 53 87 52 88 52 89 51 91 51 92 51 92 52 92 53 92 54 96 56 96 57 99 56 100 58 101 60 101 61 100 62 98 63 98 64 94 64 91 64 89 65 89 66 85 67 83 67 80 68 80 69 78 70 77 70 76 71 75 71 75 70 73 72 72 74 71 75 70 74 69 73 68 72 68 70 68 69 68 68 65 68 63 68 58 68 57 68 57 67 58 67 58 66 59 65 59 64 58 61 57 61 54 60 51 61 50 61 48 61 47 60 44 58 44 57 43 57 41 60 39 60 36 61 35 60 34 60 34 61 34 62 34 63 32 63 31 63 31 62 30 61 29 61 28 61 27 61 25 60 22 59 22 58 23 58 23 57 23 56 24 56 24 55 24 54 23 50 23 49 20 48 17 47 16 46 15 45 15 43 12 41 12 40 12 39 12 37 11 36 10 36 9 36 8 37 5 37 4 37 3 36 3 35 2 33 1 32 0 32 0 29 1 27 2 25 1 23 0 22 0 21 1 20 1 19 2 19 3 19 5 16 5 15 7 15 8 15 8 16 8 17 8 18 9 18 10 18 11 18 12 19 13 20 13 21 14 21 20 20 21 20 22 22 24 25 25 25 26 25 28 25 32 28 32 29 31 31 30 31 30 32 31 32 34 33 34 32 35 31 36 30 38 31 39 32 39 33 40 34 41 35 41 36 42 36 43 34 43 33 45 33 46 32 47 31 47 30 48 30 49 31 50 31 50 32 55 31 55 30 54 29 50 25 45 20 44 18 43 18 43 17 43 16 44 14 44 15 46 14 47 14 48 14 48 13 49 12 54 8 57 7 58 6 58 5 62 5 63 5 66 4 67 4 68 2 68 1 69 0 71 0 72 0 73 0 74 0 75 0"></polyline>
            </g>
        </g>
    </g>
</svg>