<?xml version="1.0" encoding="UTF-8"?>
<svg width="29px" height="32px" viewBox="0 0 29 32" version="1.1" xmlns="http://www.w3.org/2000/svg" xmlns:xlink="http://www.w3.org/1999/xlink">
    <!-- Generator: Sketch 52.4 (67378) - http://www.bohemiancoding.com/sketch -->
    <title>72</title>
    <desc>Created with Sketch.</desc>
    <g id="Page-1" stroke="none" stroke-width="1" fill="none" fill-rule="evenodd">
        <g id="wahlkreise_gen" transform="translate(-488.000000, -439.000000)" fill="#000000">
            <g id="72" transform="translate(488.000000, 439.000000)">
                <polyline id="Path" points="15 1 16 4 16 5 15 6 15 7 14 7 14 8 15 8 20 8 22 8 25 8 25 9 25 10 25 12 26 13 27 14 28 15 27 15 27 16 28 18 29 18 29 19 29 20 29 21 26 22 25 24 25 26 26 27 27 27 28 29 28 30 27 30 25 30 22 30 15 29 14 30 14 31 14 32 13 32 9 32 9 31 8 30 8 29 8 28 7 28 6 28 6 27 5 27 1 22 1 21 0 18 2 15 3 15 4 14 2 12 3 12 3 11 3 9 4 8 5 6 4 5 5 4 5 3 8 3 9 3 10 3 11 2 11 1 11 0 14 1 15 1"></polyline>
            </g>
        </g>
    </g>
</svg>