<?xml version="1.0" encoding="UTF-8"?>
<svg width="13px" height="19px" viewBox="0 0 13 19" version="1.1" xmlns="http://www.w3.org/2000/svg" xmlns:xlink="http://www.w3.org/1999/xlink">
    <!-- Generator: Sketch 52.4 (67378) - http://www.bohemiancoding.com/sketch -->
    <title>76</title>
    <desc>Created with Sketch.</desc>
    <g id="Page-1" stroke="none" stroke-width="1" fill="none" fill-rule="evenodd">
        <g id="wahlkreise_gen" transform="translate(-601.000000, -300.000000)" fill="#000000">
            <g id="76" transform="translate(601.000000, 300.000000)">
                <polyline id="Path" points="10 0 9 0 9 1 11 2 12 3 13 6 12 6 12 8 12 9 12 10 11 11 10 11 10 12 10 13 11 14 11 16 10 17 8 16 7 16 6 19 5 19 4 17 3 14 3 13 1 12 0 11 1 11 2 10 2 9 2 8 2 7 1 7 1 6 3 3 4 4 6 5 7 3 7 1 8 0 9 0 10 0"></polyline>
            </g>
        </g>
    </g>
</svg>