<?xml version="1.0" encoding="UTF-8"?>
<svg width="16px" height="21px" viewBox="0 0 16 21" version="1.1" xmlns="http://www.w3.org/2000/svg" xmlns:xlink="http://www.w3.org/1999/xlink">
    <!-- Generator: Sketch 52.4 (67378) - http://www.bohemiancoding.com/sketch -->
    <title>78</title>
    <desc>Created with Sketch.</desc>
    <g id="Page-1" stroke="none" stroke-width="1" fill="none" fill-rule="evenodd">
        <g id="wahlkreise_gen" transform="translate(-583.000000, -311.000000)" fill="#000000">
            <g id="78" transform="translate(583.000000, 311.000000)">
                <polyline id="Path" points="3 0 8 1 7 1 8 2 8 3 9 4 9 5 10 5 10 6 11 6 13 6 14 6 15 6 16 6 16 7 17 7 16 7 15 7 16 9 14 8 8 9 6 15 6 16 6 17 6 18 5 18 4 19 2 20 1 21 0 19 0 17 0 16 3 13 4 12 4 11 2 10 1 11 0 11 0 9 1 7 1 6 2 6 3 3 2 2 1 2 1 3 1 2 3 0"></polyline>
            </g>
        </g>
    </g>
</svg>