<?xml version="1.0" encoding="UTF-8"?>
<svg width="22px" height="11px" viewBox="0 0 22 11" version="1.1" xmlns="http://www.w3.org/2000/svg" xmlns:xlink="http://www.w3.org/1999/xlink">
    <!-- Generator: Sketch 52.4 (67378) - http://www.bohemiancoding.com/sketch -->
    <title>79</title>
    <desc>Created with Sketch.</desc>
    <g id="Page-1" stroke="none" stroke-width="1" fill="none" fill-rule="evenodd">
        <g id="wahlkreise_gen" transform="translate(-582.000000, -327.000000)" fill="#000000">
            <g id="79" transform="translate(582.000000, 327.000000)">
                <polyline id="Path" points="18 0 19 0 20 1 21 2 22 5 21 6 20 7 17 9 16 7 15 8 12 7 10 7 8 8 5 9 5 10 6 11 3 11 0 9 0 8 1 6 2 5 3 4 5 3 6 2 7 2 7 1 7 0 8 1 9 1 13 1 17 0 18 0"></polyline>
            </g>
        </g>
    </g>
</svg>