<?xml version="1.0" encoding="UTF-8"?>
<svg width="56px" height="61px" viewBox="0 0 56 61" version="1.1" xmlns="http://www.w3.org/2000/svg" xmlns:xlink="http://www.w3.org/1999/xlink">
    <!-- Generator: Sketch 52.4 (67378) - http://www.bohemiancoding.com/sketch -->
    <title>8</title>
    <desc>Created with Sketch.</desc>
    <g id="Page-1" stroke="none" stroke-width="1" fill="none" fill-rule="evenodd">
        <g id="wahlkreise_gen" transform="translate(-320.000000, -123.000000)" fill="#000000">
            <g id="8" transform="translate(320.000000, 123.000000)">
                <polyline id="Path" points="42 5 43 5 44 5 45 5 45 3 45 4 47 5 48 6 49 6 50 6 51 6 51 5 52 5 53 5 56 5 56 10 55 10 55 12 53 11 51 11 50 12 49 13 48 15 48 16 50 16 51 16 53 16 55 21 56 22 56 23 55 23 55 24 54 25 54 24 48 29 47 30 44 32 44 33 45 36 47 38 48 38 50 41 50 42 50 43 50 44 50 45 48 46 45 49 47 50 48 50 48 53 47 53 46 53 45 55 45 57 44 57 43 57 38 56 38 55 38 54 38 53 37 53 36 53 35 54 34 54 28 56 27 56 27 57 27 58 25 57 25 56 26 54 28 52 28 51 29 50 29 49 27 49 26 49 24 51 22 51 21 51 20 51 19 52 19 53 20 53 20 54 19 54 19 56 17 56 14 56 13 57 13 58 13 59 13 60 13 61 12 60 10 60 9 57 9 54 9 53 10 53 10 52 11 51 12 48 13 46 12 45 11 45 11 46 10 46 10 47 9 47 7 47 6 47 4 44 5 41 4 39 3 38 4 38 4 37 1 31 0 30 4 28 5 28 6 29 7 29 8 29 9 29 10 27 10 26 13 24 14 23 16 24 20 21 22 19 24 18 25 18 25 19 27 19 29 18 30 16 30 15 31 13 32 14 33 14 34 15 35 15 36 15 36 14 35 11 33 10 32 10 31 11 25 11 25 10 23 8 23 7 24 7 29 5 30 4 34 2 36 1 38 1 39 1 40 0 40 4 42 5"></polyline>
            </g>
        </g>
    </g>
</svg>