<?xml version="1.0" encoding="UTF-8"?>
<svg width="50px" height="37px" viewBox="0 0 50 37" version="1.1" xmlns="http://www.w3.org/2000/svg" xmlns:xlink="http://www.w3.org/1999/xlink">
    <!-- Generator: Sketch 52.4 (67378) - http://www.bohemiancoding.com/sketch -->
    <title>89</title>
    <desc>Created with Sketch.</desc>
    <g id="Page-1" stroke="none" stroke-width="1" fill="none" fill-rule="evenodd">
        <g id="wahlkreise_gen" transform="translate(0.000000, -500.000000)" fill="#000000">
            <g id="89" transform="translate(0.000000, 500.000000)">
                <polyline id="Path" points="35 1 36 2 36 3 36 4 36 5 37 5 38 5 38 6 39 6 39 7 40 7 40 8 40 9 40 11 41 12 43 13 45 13 46 13 47 13 48 13 50 17 50 18 49 19 46 20 45 20 44 20 41 21 40 22 38 23 37 23 34 23 29 26 27 28 26 30 25 31 24 31 24 32 23 32 23 33 23 34 23 35 22 36 22 37 21 37 20 36 18 36 17 35 18 34 17 34 14 33 12 32 11 29 12 28 12 27 13 26 12 25 7 25 3 25 3 23 2 22 2 21 1 21 1 20 1 19 0 18 0 17 0 16 1 16 2 16 3 15 4 14 4 15 5 17 6 18 7 18 8 17 8 16 9 16 9 15 10 14 11 13 11 12 12 12 12 11 13 11 14 11 15 10 17 8 19 7 19 6 22 5 23 5 24 5 25 4 26 3 25 3 24 2 23 2 23 1 26 0 28 2 29 2 34 1 35 1"></polyline>
            </g>
        </g>
    </g>
</svg>