<?xml version="1.0" encoding="UTF-8"?>
<svg width="68px" height="103px" viewBox="0 0 68 103" version="1.1" xmlns="http://www.w3.org/2000/svg" xmlns:xlink="http://www.w3.org/1999/xlink">
    <!-- Generator: Sketch 52.4 (67378) - http://www.bohemiancoding.com/sketch -->
    <title>9</title>
    <desc>Created with Sketch.</desc>
    <g id="Page-1" stroke="none" stroke-width="1" fill="none" fill-rule="evenodd">
        <g id="wahlkreise_gen" transform="translate(-364.000000, -66.000000)" fill="#000000">
            <g id="9" transform="translate(364.000000, 66.000000)">
                <polyline id="Path" points="53 18 53 19 54 19 54 20 54 21 53 22 52 23 51 23 51 24 50 25 50 26 50 27 50 28 50 29 51 36 52 40 52 41 52 42 52 44 45 50 41 53 41 54 40 55 37 58 37 59 36 59 35 59 32 59 30 59 28 63 27 63 27 64 27 65 27 66 27 67 28 68 28 69 29 69 29 70 29 71 30 71 31 71 31 72 31 71 32 71 34 71 34 73 32 79 31 80 29 80 27 81 24 82 23 82 22 83 21 83 21 84 20 84 20 85 18 85 16 85 14 84 13 85 13 86 15 90 14 92 13 92 12 93 12 94 13 94 14 97 14 96 14 97 12 98 11 98 11 99 12 99 11 100 11 101 11 102 9 103 8 103 6 101 6 100 6 99 6 98 4 95 3 95 1 93 0 90 0 89 3 87 4 86 10 81 10 82 11 81 11 80 12 80 12 79 11 78 9 73 7 73 6 73 4 73 4 72 5 70 6 69 7 68 9 68 11 69 11 67 12 67 12 62 9 62 8 62 7 62 7 63 6 63 5 63 4 63 3 62 1 61 1 60 2 59 2 58 1 58 1 57 1 56 2 55 3 55 3 56 6 56 10 56 10 55 10 54 10 53 9 53 8 53 7 50 6 49 6 48 6 47 7 47 8 47 9 47 10 46 10 45 10 44 10 43 10 42 11 41 12 41 15 41 16 41 18 42 19 43 20 43 20 44 20 45 20 46 21 46 22 44 23 43 24 36 23 35 23 33 23 31 24 31 25 30 26 31 27 31 28 30 29 30 31 28 32 28 32 27 33 27 33 26 33 25 35 24 39 21 40 20 44 21 43 21 44 22 46 22 47 22 50 21 51 21 51 20 51 19 52 19 53 18"></polyline>
                <polyline id="Path" points="65 10 67 13 68 16 68 17 66 17 65 17 65 16 64 16 63 16 62 16 61 16 59 17 58 17 58 18 57 18 56 18 54 17 52 17 52 16 52 15 52 14 52 13 52 12 51 12 49 11 46 12 46 13 45 13 45 12 45 11 45 7 45 6 46 3 47 3 47 2 48 2 48 1 49 1 49 0 50 1 51 1 56 2 61 4 62 4 62 5 65 10"></polyline>
            </g>
        </g>
    </g>
</svg>