<?xml version="1.0" encoding="UTF-8"?>
<svg width="42px" height="58px" viewBox="0 0 42 58" version="1.1" xmlns="http://www.w3.org/2000/svg" xmlns:xlink="http://www.w3.org/1999/xlink">
    <!-- Generator: Sketch 52.4 (67378) - http://www.bohemiancoding.com/sketch -->
    <title>90</title>
    <desc>Created with Sketch.</desc>
    <g id="Page-1" stroke="none" stroke-width="1" fill="none" fill-rule="evenodd">
        <g id="wahlkreise_gen" transform="translate(-26.000000, -519.000000)" fill="#000000">
            <g id="90" transform="translate(26.000000, 519.000000)">
                <polyline id="Path" points="23 0 24 1 23 2 23 3 22 5 24 11 24 12 26 15 27 17 27 18 27 19 27 20 28 20 29 20 29 23 30 24 30 25 34 28 36 29 37 28 38 28 39 27 40 28 42 28 42 30 42 31 42 34 41 35 40 35 39 36 40 37 41 38 41 39 41 41 40 42 40 43 39 43 36 42 35 42 32 44 31 45 32 47 33 48 33 49 31 50 30 51 30 52 30 53 29 57 28 58 26 58 23 58 22 57 21 56 20 56 18 55 17 55 17 56 17 57 16 57 15 57 15 56 15 55 15 54 16 54 17 54 17 53 17 52 14 50 12 50 10 50 8 48 7 48 6 47 6 46 7 46 9 42 13 36 13 33 12 34 11 35 10 35 9 35 8 32 9 32 10 31 11 29 10 23 10 22 9 20 8 20 7 21 6 22 5 23 3 23 2 22 1 18 1 17 2 17 3 15 3 13 2 12 1 12 0 11 1 9 3 7 8 4 11 4 12 4 14 3 15 2 18 1 19 1 20 1 23 0"></polyline>
            </g>
        </g>
    </g>
</svg>