<?xml version="1.0" encoding="UTF-8"?>
<svg width="60px" height="70px" viewBox="0 0 60 70" version="1.1" xmlns="http://www.w3.org/2000/svg" xmlns:xlink="http://www.w3.org/1999/xlink">
    <!-- Generator: Sketch 52.4 (67378) - http://www.bohemiancoding.com/sketch -->
    <title>92</title>
    <desc>Created with Sketch.</desc>
    <g id="Page-1" stroke="none" stroke-width="1" fill="none" fill-rule="evenodd">
        <g id="wahlkreise_gen" transform="translate(-34.000000, -543.000000)" fill="#000000">
            <g id="92" transform="translate(34.000000, 543.000000)">
                <polyline id="Path" points="39 4 40 3 42 1 43 1 44 2 44 3 45 4 50 3 51 2 52 3 52 4 54 4 56 4 56 5 57 5 57 6 58 6 59 6 60 6 60 7 60 8 60 9 58 10 57 10 56 9 54 9 53 8 52 8 50 9 48 10 47 11 47 14 47 15 48 16 49 16 50 16 51 17 49 20 48 20 47 21 46 28 47 30 48 30 49 30 50 31 50 34 49 34 48 35 48 36 48 38 51 39 51 40 51 42 49 44 48 44 47 44 48 47 49 48 49 50 49 51 49 52 48 52 45 53 42 52 41 51 41 50 41 49 40 49 39 49 38 50 36 51 35 52 37 56 38 57 38 58 38 60 37 61 39 64 40 65 40 66 39 65 38 66 37 66 34 67 33 68 32 68 30 66 30 65 29 64 28 64 28 66 28 67 27 67 26 67 25 66 25 65 25 64 24 62 22 62 16 65 14 67 11 68 11 66 12 65 11 65 11 63 8 61 6 61 6 62 6 63 6 64 7 65 7 67 8 68 9 69 8 70 7 70 7 69 7 68 6 67 5 65 5 66 5 65 2 62 2 61 3 61 4 59 4 58 5 55 5 54 5 53 5 52 4 52 3 52 2 52 2 51 2 50 2 49 2 48 3 48 2 47 0 47 1 46 2 46 3 45 4 45 4 44 5 44 6 42 5 42 4 42 4 41 4 40 5 38 6 37 7 37 9 33 9 32 9 31 10 31 12 32 13 32 14 33 15 34 18 34 20 34 21 33 22 29 22 28 22 27 23 26 25 25 25 24 24 23 23 21 24 20 27 18 28 18 31 19 32 19 32 18 33 17 33 15 33 14 32 13 31 12 32 11 33 11 34 10 34 7 34 6 34 4 32 4 32 3 33 2 36 0 36 1 37 2 39 4"></polyline>
            </g>
        </g>
    </g>
</svg>