<?xml version="1.0" encoding="UTF-8"?>
<svg width="19px" height="18px" viewBox="0 0 19 18" version="1.1" xmlns="http://www.w3.org/2000/svg" xmlns:xlink="http://www.w3.org/1999/xlink">
    <!-- Generator: Sketch 52.4 (67378) - http://www.bohemiancoding.com/sketch -->
    <title>94</title>
    <desc>Created with Sketch.</desc>
    <g id="Page-1" stroke="none" stroke-width="1" fill="none" fill-rule="evenodd">
        <g id="wahlkreise_gen" transform="translate(-77.000000, -529.000000)" fill="#000000">
            <g id="94" transform="translate(77.000000, 529.000000)">
                <polyline id="Path" points="9 5 11 5 12 5 13 6 13 8 14 9 14 10 15 10 15 11 16 11 17 11 18 11 19 11 19 12 19 13 19 14 18 14 17 15 14 17 13 18 11 18 9 18 9 17 8 16 8 15 8 12 9 11 5 9 4 9 3 9 3 8 1 6 0 5 0 3 1 1 1 0 2 0 4 1 5 4 7 4 9 5"></polyline>
            </g>
        </g>
    </g>
</svg>