<?xml version="1.0" encoding="UTF-8"?>
<svg width="16px" height="18px" viewBox="0 0 16 18" version="1.1" xmlns="http://www.w3.org/2000/svg" xmlns:xlink="http://www.w3.org/1999/xlink">
    <!-- Generator: Sketch 52.4 (67378) - http://www.bohemiancoding.com/sketch -->
    <title>96</title>
    <desc>Created with Sketch.</desc>
    <g id="Page-1" stroke="none" stroke-width="1" fill="none" fill-rule="evenodd">
        <g id="wahlkreise_gen" transform="translate(-93.000000, -556.000000)" fill="#000000">
            <g id="96" transform="translate(93.000000, 556.000000)">
                <polyline id="Path" points="16 16 15 17 14 16 13 16 12 15 7 15 5 16 5 17 4 17 3 18 1 15 0 14 1 14 2 12 1 9 1 7 1 5 2 2 2 1 3 1 4 0 6 1 7 1 8 1 8 0 9 0 15 3 16 4 16 5 15 5 14 6 12 9 13 10 13 11 16 16"></polyline>
            </g>
        </g>
    </g>
</svg>