<?xml version="1.0" encoding="UTF-8"?>
<svg width="42px" height="33px" viewBox="0 0 42 33" version="1.1" xmlns="http://www.w3.org/2000/svg" xmlns:xlink="http://www.w3.org/1999/xlink">
    <!-- Generator: Sketch 52.4 (67378) - http://www.bohemiancoding.com/sketch -->
    <title>98</title>
    <desc>Created with Sketch.</desc>
    <g id="Page-1" stroke="none" stroke-width="1" fill="none" fill-rule="evenodd">
        <g id="wahlkreise_gen" transform="translate(-80.000000, -551.000000)" fill="#000000">
            <g id="98" transform="translate(80.000000, 551.000000)">
                <polyline id="Path" points="30 4 30 3 31 3 32 3 32 4 32 7 31 7 31 8 32 9 32 10 33 10 34 10 35 10 36 10 39 13 39 15 40 15 41 15 42 16 42 17 41 21 40 22 39 22 36 24 35 24 34 24 33 24 32 24 30 24 29 24 29 21 26 16 26 15 25 14 27 11 28 10 29 10 29 9 28 8 22 5 22 4 23 4 24 2 26 1 27 1 27 2 28 3 30 4"></polyline>
                <polyline id="Path" points="8 1 10 1 11 2 12 2 14 1 14 2 15 3 16 4 17 5 16 6 15 6 15 7 14 10 14 12 14 14 15 17 14 19 13 19 14 20 16 23 17 22 18 22 18 21 20 20 25 20 26 21 27 21 28 22 27 23 27 24 26 26 23 27 19 29 18 29 17 28 14 28 12 30 12 31 11 32 9 33 8 33 7 33 7 32 6 32 5 32 5 31 2 30 2 28 2 27 3 26 4 26 4 23 3 22 2 22 1 22 0 20 1 13 2 12 3 12 5 9 4 8 3 8 2 8 1 7 1 6 1 3 2 2 4 1 6 0 7 0 8 1"></polyline>
            </g>
        </g>
    </g>
</svg>