<?xml version="1.0" encoding="UTF-8"?>
<svg width="851px" height="227px" viewBox="0 0 851 227" version="1.1" xmlns="http://www.w3.org/2000/svg" xmlns:xlink="http://www.w3.org/1999/xlink">
    <!-- Generator: Sketch 52.6 (67491) - http://www.bohemiancoding.com/sketch -->
    <title>CDU_CSU</title>
    <desc>Created with Sketch.</desc>
    <g id="Page-1" stroke="none" stroke-width="1" fill="none" fill-rule="evenodd">
        <g id="CDU_CSU">
            <rect id="Rectangle" fill="#FFFFFF" x="0" y="0.002" width="850.39" height="226.77"></rect>
            <g id="Group" transform="translate(21.000000, 26.000000)">
                <path d="M5.192,161.364 L7.241,160.991 C8.64,160.719 9.451,160.075 9.451,156.727 L9.451,135.495 C9.451,132.15 8.642,131.504 7.241,131.232 L5.192,130.855 L5.192,129.293 C6.27,129.344 9.505,129.397 11.283,129.397 C14.733,129.397 19.316,129.397 22.497,129.343 C25.947,129.291 27.023,129.18 28.372,129.127 C28.372,131.606 28.48,134.79 28.59,136.46 L26.7,136.46 L26.217,133.98 C25.947,132.743 25.244,131.828 23.308,131.828 L13.604,131.775 L13.604,145.251 L21.095,145.251 C22.985,145.251 23.251,144.767 23.413,143.85 L23.951,141.262 L25.624,141.262 C25.569,142.613 25.461,144.496 25.461,146.22 C25.461,147.68 25.569,150.101 25.624,151.449 L23.953,151.449 L23.471,149.134 C23.312,148.218 22.989,147.571 21.097,147.571 L13.606,147.571 L13.606,156.734 C13.606,160.082 14.415,160.837 15.816,160.999 L19.051,161.373 L19.051,162.936 C17.701,162.881 14.147,162.772 11.718,162.772 C9.187,162.772 6.541,162.881 5.197,162.936 L5.197,161.373 L5.192,161.364 Z" id="Path" fill="#000000"></path>
                <path d="M32.69,161.419 L34.467,161.148 C35.704,160.933 36.245,160.613 36.245,156.838 L36.245,143.682 C36.245,140.933 36.245,140.287 32.743,139.59 L32.743,138.294 C35.546,137.482 37.538,136.893 40.235,135.706 L40.235,139.744 C41.583,137.856 44.818,135.973 47.027,135.973 C47.996,135.973 48.698,136.134 49.344,136.293 L48.909,140.012 C48.264,139.689 46.915,139.527 45.947,139.527 C44.058,139.527 41.901,140.227 40.231,141.578 L40.231,156.838 C40.231,160.609 40.824,160.987 42.006,161.148 L44.486,161.419 L44.486,162.931 C43.138,162.874 40.228,162.714 38.179,162.714 C36.075,162.714 34.029,162.874 32.68,162.931 L32.69,161.419 Z" id="Path" fill="#000000"></path>
                <path d="M51.849,156.893 C51.849,151.829 56.324,148.592 63.222,148.592 C63.977,148.592 65.326,148.592 66.131,148.648 L66.131,145.516 C66.131,141.368 64.3,139.16 60.097,139.16 C57.616,139.16 55.621,139.695 53.951,140.613 L53.681,139.051 C54.973,137.546 58.101,135.982 61.067,135.982 C67.157,135.982 70.174,139.32 70.174,144.551 C70.174,148.754 69.957,152.852 69.957,157.7 C69.957,160.345 70.931,161.096 74.216,161.096 L74.216,162.608 C73.299,163.2 71.685,163.577 70.12,163.577 C67.641,163.577 66.185,162.12 66.185,159.911 L66.08,159.911 C65.108,161.528 62.198,163.577 58.908,163.577 C54.758,163.577 51.849,160.829 51.849,156.893 Z M65.916,158.076 C65.916,156.136 66.023,152.097 66.08,150.963 C65.486,150.909 64.568,150.909 63.976,150.909 C58.422,150.909 55.943,152.899 55.943,156.191 C55.943,158.833 57.722,160.446 60.365,160.446 C62.842,160.447 64.839,159.316 65.916,158.076 Z" id="Shape" fill="#000000" fill-rule="nonzero"></path>
                <path d="M77.566,161.419 L79.34,161.148 C80.58,160.992 81.12,160.613 81.12,156.838 L81.12,133.065 C81.12,130.315 81.12,129.669 77.615,128.965 L77.615,127.676 C80.416,126.864 82.411,126.112 85.11,124.764 L85.11,156.839 C85.11,160.61 85.698,160.988 86.884,161.15 L88.662,161.421 L88.662,162.933 C87.313,162.877 85.107,162.768 83.058,162.768 C80.954,162.768 78.906,162.877 77.562,162.933 L77.566,161.419 Z M94.545,160.178 C92.333,157.911 90.019,154.574 85.6,148.968 L92.448,141.26 C93.2,140.448 93.469,139.745 93.469,139.212 C93.469,138.616 93.09,138.295 91.419,138.184 L91.419,136.622 C92.771,136.677 94.706,136.727 96.701,136.727 C98.43,136.727 100.097,136.672 101.447,136.622 L101.447,138.13 C98.639,138.349 95.466,141.151 93.253,143.631 L89.534,147.729 C92.657,151.61 97.023,157.108 98.699,158.668 C100.098,159.963 101.284,161.419 103.334,161.579 L103.334,162.979 C102.739,163.304 101.664,163.359 100.749,163.359 C98.48,163.361 96.485,162.118 94.545,160.178 Z" id="Shape" fill="#000000" fill-rule="nonzero"></path>
                <path d="M108.642,157.216 L108.642,139.154 L105.35,139.154 L105.35,137.425 C108.746,135.593 109.991,133.597 110.907,130.311 L112.631,130.311 L112.631,136.623 L120.447,136.623 L120.447,139.152 L112.631,139.152 L112.631,156.295 C112.631,159.527 113.601,160.879 116.242,160.879 C117.75,160.879 119.426,160.499 120.179,160.229 L120.395,161.31 C119.642,162.547 116.999,163.578 114.518,163.578 C110.147,163.577 108.642,161.634 108.642,157.216 Z" id="Path" fill="#000000"></path>
                <path d="M124.068,161.419 L126.544,161.148 C127.788,160.992 128.324,160.613 128.324,156.838 L128.324,143.682 C128.324,140.933 128.324,140.287 124.821,139.59 L124.821,138.294 C127.623,137.482 129.618,136.839 132.312,135.706 L132.312,156.838 C132.312,160.609 132.906,160.986 134.089,161.148 L136.033,161.419 L136.033,162.93 C134.683,162.876 132.308,162.767 130.264,162.767 C128.158,162.767 125.407,162.876 124.064,162.93 L124.068,161.419 Z M127.085,127.618 C127.085,126.057 128.374,124.764 129.939,124.764 C131.501,124.764 132.798,126.059 132.798,127.618 C132.798,129.18 131.501,130.474 129.939,130.474 C128.376,130.477 127.085,129.181 127.085,127.618 Z" id="Shape" fill="#000000" fill-rule="nonzero"></path>
                <path d="M141.055,149.993 C141.055,142.337 145.793,135.975 153.403,135.975 C161.215,135.975 165.472,141.63 165.472,149.557 C165.472,157.264 160.673,163.575 153.022,163.575 C145.152,163.577 141.055,158.076 141.055,149.993 Z M161,150.099 C161,142.985 158.358,138.184 153.186,138.184 C148.388,138.184 145.585,142.609 145.585,149.507 C145.585,156.894 148.492,161.361 153.344,161.361 C158.409,161.364 161,156.943 161,150.099 Z" id="Shape" fill="#000000" fill-rule="nonzero"></path>
                <path d="M171.424,161.419 L173.198,161.148 C174.44,160.933 174.979,160.613 174.979,156.838 L174.979,143.682 C174.979,140.933 174.979,140.287 171.475,139.59 L171.475,138.294 C174.277,137.482 176.274,136.893 178.962,135.706 L178.962,139.477 C180.741,137.808 183.817,135.975 186.673,135.975 C193.037,135.975 194.868,139.64 194.868,145.083 L194.868,156.837 C194.868,160.608 195.46,160.932 196.643,161.147 L198.421,161.418 L198.421,162.93 C197.07,162.874 194.864,162.765 192.817,162.765 C190.713,162.765 188.668,162.874 187.318,162.93 L187.318,161.418 L189.091,161.147 C190.334,160.932 190.869,160.612 190.869,156.837 L190.869,145.678 C190.869,141.577 189.795,139.157 185.213,139.157 C182.783,139.157 180.359,140.345 178.954,141.261 L178.954,156.842 C178.954,160.613 179.554,160.937 180.734,161.152 L182.515,161.423 L182.515,162.935 C181.166,162.88 178.953,162.771 176.911,162.771 C174.807,162.771 172.757,162.88 171.412,162.935 L171.424,161.419 Z" id="Path" fill="#000000"></path>
                <path d="M214.842,161.419 L217.317,161.148 C218.562,160.992 219.1,160.613 219.1,156.838 L219.1,143.682 C219.1,140.933 219.1,140.287 215.594,139.59 L215.594,138.294 C218.398,137.482 220.394,136.839 223.083,135.706 L223.083,156.838 C223.083,160.609 223.68,160.986 224.863,161.148 L226.807,161.419 L226.807,162.93 C225.456,162.876 223.079,162.767 221.036,162.767 C218.931,162.767 216.182,162.876 214.838,162.93 L214.842,161.419 Z M217.859,127.618 C217.859,126.057 219.149,124.764 220.713,124.764 C222.277,124.764 223.572,126.059 223.572,127.618 C223.572,129.18 222.277,130.474 220.713,130.474 C219.15,130.477 217.859,129.181 217.859,127.618 Z" id="Shape" fill="#000000" fill-rule="nonzero"></path>
                <path d="M232.693,161.419 L234.465,161.148 C235.708,160.933 236.244,160.613 236.244,156.838 L236.244,143.682 C236.244,140.933 236.244,140.287 232.742,139.59 L232.742,138.294 C235.545,137.482 237.54,136.839 240.232,135.706 L240.232,139.477 C241.907,137.754 244.924,135.975 247.781,135.975 C251.715,135.975 253.873,137.48 254.895,139.961 C256.89,137.965 260.395,135.975 263.249,135.975 C269.612,135.975 271.178,139.589 271.178,145.03 L271.178,156.842 C271.178,160.613 271.774,160.937 272.955,161.152 L274.732,161.423 L274.732,162.935 C273.389,162.879 271.174,162.77 269.128,162.77 C267.025,162.77 264.978,162.879 263.629,162.935 L263.629,161.423 L265.407,161.152 C266.646,160.937 267.189,160.618 267.189,156.842 L267.189,145.629 C267.189,141.528 266.377,139.158 261.793,139.158 C259.371,139.158 256.729,140.396 255.324,141.31 C255.594,142.445 255.704,143.68 255.704,145.03 L255.704,156.842 C255.704,160.613 256.297,160.937 257.478,161.152 L259.258,161.423 L259.258,162.935 C257.907,162.879 255.7,162.77 253.654,162.77 C251.552,162.77 249.506,162.879 248.155,162.935 L248.155,161.423 L249.934,161.152 C251.172,160.937 251.706,160.618 251.706,156.842 L251.706,145.629 C251.706,141.528 250.9,139.317 246.318,139.317 C243.891,139.317 241.625,140.345 240.224,141.26 L240.224,156.841 C240.224,160.612 240.819,160.936 242.004,161.151 L243.781,161.422 L243.781,162.934 C242.432,162.879 240.22,162.77 238.177,162.77 C236.072,162.77 234.024,162.879 232.68,162.934 L232.693,161.419 Z" id="Path" fill="#000000"></path>
                <path d="M296.814,162.825 C294.876,162.825 293.043,162.878 291.157,162.929 L291.157,161.367 L293.201,160.993 C294.608,160.721 295.412,160.076 295.412,156.728 L295.412,135.495 C295.412,132.151 294.607,131.505 293.201,131.231 L291.157,130.857 L291.157,129.295 C292.774,129.347 294.658,129.399 296.814,129.399 C299.185,129.399 302.208,129.245 305.115,129.245 C315.949,129.245 321.665,136.034 321.665,145.198 C321.665,155.597 314.658,162.984 303.984,162.984 C301.127,162.981 298.917,162.825 296.814,162.825 Z M316.978,145.947 C316.978,138.618 313.629,131.662 303.826,131.662 C302.315,131.662 301.077,131.72 299.566,131.827 L299.566,157.219 C299.566,159.321 299.891,160.615 303.93,160.615 C312.232,160.612 316.978,155.163 316.978,145.947 Z" id="Shape" fill="#000000" fill-rule="nonzero"></path>
                <path d="M326.642,150.21 C326.642,142.013 331.542,135.979 338.556,135.979 C345.243,135.979 348.474,140.996 348.474,146.217 C348.474,146.918 348.474,147.46 348.367,148.159 L330.96,148.159 C330.901,148.697 330.901,149.232 330.901,149.722 C330.901,155.541 333.813,160.393 339.848,160.393 C342.922,160.393 345.244,159.747 346.962,158.88 L347.124,160.228 C346.099,161.907 342.707,163.576 338.824,163.576 C330.898,163.577 326.642,158.456 326.642,150.21 Z M342.76,146 C343.677,146 343.995,145.574 343.995,144.813 C343.995,141.631 342.11,138.345 338.338,138.345 C333.812,138.345 331.543,142.332 331.11,145.993 L342.76,146 Z" id="Shape" fill="#000000" fill-rule="nonzero"></path>
                <path d="M371.88,160.075 C370.109,161.743 367.028,163.576 364.177,163.576 C357.815,163.576 355.983,159.91 355.983,154.466 L355.983,142.66 C355.983,139.911 355.983,139.264 352.479,138.562 L352.479,137.266 C355.012,136.838 357.279,136.409 359.974,135.706 L359.974,153.873 C359.974,157.965 361.046,160.394 365.628,160.394 C368.06,160.394 370.482,159.208 371.881,158.293 L371.881,142.654 C371.881,139.906 371.881,139.258 368.378,138.557 L368.378,137.261 C370.912,136.833 373.178,136.403 375.874,135.699 L375.874,156.508 C375.874,159.257 375.874,159.904 379.375,160.608 L379.375,161.903 C376.947,162.223 374.361,162.82 371.881,163.572 L371.88,160.075 Z" id="Path" fill="#000000"></path>
                <path d="M387.477,157.216 L387.477,139.154 L384.185,139.154 L384.185,137.425 C387.581,135.593 388.825,133.597 389.743,130.311 L391.465,130.311 L391.465,136.623 L399.281,136.623 L399.281,139.152 L391.465,139.152 L391.465,156.295 C391.465,159.527 392.435,160.879 395.077,160.879 C396.584,160.879 398.261,160.499 399.015,160.229 L399.231,161.31 C398.477,162.547 395.835,163.578 393.354,163.578 C388.984,163.577 387.477,161.634 387.477,157.216 Z" id="Path" fill="#000000"></path>
                <path d="M403.442,162.334 C403.546,159.801 403.442,157.809 403.278,155.272 L405.275,155.272 C405.759,159.098 406.893,161.201 411.478,161.201 C414.872,161.201 417.241,159.314 417.241,156.299 C417.241,149.563 403.713,152.85 403.713,143.094 C403.713,138.781 407.596,135.98 412.827,135.98 C415.576,135.98 418.379,136.734 419.989,137.379 C419.885,139.691 419.933,141.097 420.093,143.414 L418.104,143.414 C417.832,139.965 416.218,138.185 412.605,138.185 C409.375,138.185 407.273,139.593 407.273,142.337 C407.273,148.593 420.853,146.001 420.853,155.649 C420.853,159.961 416.914,163.576 411.53,163.576 C408.188,163.577 405.599,163.034 403.442,162.334 Z" id="Path" fill="#000000"></path>
                <path d="M426.479,150.21 C426.479,142.178 432.347,135.979 439.417,135.979 C442.271,135.979 444.813,136.625 446.578,137.269 C446.422,139.05 446.367,141.634 446.367,143.415 L444.312,143.415 C444.154,140.347 442.912,138.298 439.086,138.298 C434.504,138.298 430.68,142.503 430.68,149.669 C430.68,156.565 434.611,160.398 440.224,160.398 C442.648,160.398 444.861,159.802 446.47,158.728 L446.741,160.129 C445.773,161.742 442.751,163.577 438.758,163.577 C431.062,163.577 426.479,158.397 426.479,150.21 Z" id="Path" fill="#000000"></path>
                <path d="M451.771,161.419 L453.55,161.148 C454.779,160.933 455.329,160.613 455.329,156.838 L455.329,133.065 C455.329,130.315 455.329,129.669 451.818,128.965 L451.818,127.676 C454.623,126.864 456.612,126.112 459.307,124.764 L459.307,139.48 C461.089,137.812 464.163,135.979 467.021,135.979 C473.383,135.979 475.215,139.75 475.215,145.196 L475.215,156.842 C475.215,160.613 475.806,160.937 476.993,161.153 L478.772,161.424 L478.772,162.936 C477.422,162.881 475.21,162.772 473.156,162.772 C471.061,162.772 469.009,162.881 467.659,162.936 L467.659,161.424 L469.438,161.153 C470.681,160.937 471.217,160.618 471.217,156.842 L471.217,145.784 C471.217,141.693 470.144,139.158 465.562,139.158 C463.137,139.158 460.708,140.346 459.302,141.262 L459.302,156.842 C459.302,160.613 459.906,160.937 461.085,161.153 L462.862,161.424 L462.862,162.936 C461.512,162.88 459.3,162.772 457.258,162.772 C455.152,162.772 453.109,162.88 451.759,162.936 L451.771,161.419 Z" id="Path" fill="#000000"></path>
                <path d="M483.384,150.21 C483.384,142.013 488.28,135.979 495.298,135.979 C501.98,135.979 505.211,140.996 505.211,146.217 C505.211,146.918 505.211,147.46 505.107,148.159 L487.694,148.159 C487.642,148.697 487.642,149.232 487.642,149.722 C487.642,155.541 490.55,160.393 496.583,160.393 C499.658,160.393 501.979,159.747 503.701,158.88 L503.86,160.228 C502.839,161.907 499.445,163.576 495.56,163.576 C487.643,163.577 483.384,158.456 483.384,150.21 Z M499.503,146 C500.42,146 500.733,145.574 500.733,144.813 C500.733,141.631 498.848,138.345 495.076,138.345 C490.551,138.345 488.281,142.332 487.85,145.993 L499.503,146 Z" id="Shape" fill="#000000" fill-rule="nonzero"></path>
                <path d="M510.511,161.419 L512.282,161.148 C513.526,160.933 514.062,160.613 514.062,156.838 L514.062,143.682 C514.062,140.933 514.062,140.287 510.563,139.59 L510.563,138.294 C513.366,137.482 515.358,136.893 518.052,135.706 L518.052,139.477 C519.83,137.808 522.901,135.975 525.765,135.975 C532.126,135.975 533.96,139.64 533.96,145.083 L533.96,156.837 C533.96,160.608 534.551,160.932 535.73,161.147 L537.51,161.418 L537.51,162.93 C536.158,162.874 533.96,162.765 531.906,162.765 C529.8,162.765 527.756,162.874 526.407,162.93 L526.407,161.418 L528.186,161.147 C529.427,160.932 529.966,160.612 529.966,156.837 L529.966,145.678 C529.966,141.577 528.891,139.157 524.31,139.157 C521.875,139.157 519.456,140.345 518.051,141.261 L518.051,156.842 C518.051,160.613 518.643,160.937 519.829,161.152 L521.61,161.423 L521.61,162.935 C520.261,162.88 518.048,162.771 515.999,162.771 C513.895,162.771 511.848,162.88 510.508,162.935 L510.511,161.419 Z" id="Path" fill="#000000"></path>
                <path d="M559.695,162.825 C557.695,162.825 555.27,162.878 553.924,162.929 L553.924,161.367 L555.969,160.993 C557.38,160.721 558.184,160.076 558.184,156.728 L558.184,135.495 C558.184,132.151 557.38,131.505 555.969,131.231 L553.924,130.857 L553.924,129.295 C555.275,129.347 557.434,129.347 559.58,129.347 C562.708,129.347 565.246,129.184 567.344,129.184 C574.086,129.184 577.649,132.204 577.649,137.38 C577.649,141.151 574.141,144.169 571.066,144.869 L571.066,144.927 C574.901,145.25 579.156,148.217 579.156,153.117 C579.156,159.213 573.866,163.035 566.219,163.035 C564.004,163.034 561.201,162.825 559.695,162.825 Z M573.115,137.758 C573.115,133.66 570.682,131.612 566.052,131.612 C565.406,131.612 563.415,131.612 562.331,131.716 L562.331,144.063 C563.573,144.167 564.276,144.167 566.269,144.167 C570.684,144.169 573.115,140.992 573.115,137.758 Z M574.567,153.549 C574.567,149.398 571.978,146.597 566.91,146.597 C565.513,146.597 563.415,146.649 562.33,146.759 L562.33,157.646 C562.33,159.64 562.763,160.667 566.647,160.667 C571.98,160.667 574.567,158.026 574.567,153.549 Z" id="Shape" fill="#000000" fill-rule="nonzero"></path>
                <path d="M603.202,160.075 C601.431,161.743 598.355,163.576 595.502,163.576 C589.143,163.576 587.309,159.91 587.309,154.466 L587.309,142.66 C587.309,139.911 587.309,139.264 583.8,138.562 L583.8,137.266 C586.337,136.838 588.605,136.409 591.3,135.706 L591.3,153.873 C591.3,157.965 592.375,160.394 596.959,160.394 C599.38,160.394 601.803,159.208 603.202,158.293 L603.202,142.654 C603.202,139.906 603.202,139.258 599.703,138.557 L599.703,137.261 C602.23,136.833 604.499,136.403 607.193,135.699 L607.193,156.508 C607.193,159.257 607.193,159.904 610.7,160.608 L610.7,161.903 C608.268,162.223 605.686,162.82 603.201,163.572 L603.202,160.075 Z" id="Path" fill="#000000"></path>
                <path d="M616.4,161.419 L618.171,161.148 C619.416,160.933 619.949,160.613 619.949,156.838 L619.949,143.682 C619.949,140.933 619.949,140.287 616.453,139.59 L616.453,138.294 C619.256,137.482 621.244,136.893 623.939,135.706 L623.939,139.477 C625.718,137.808 628.789,135.975 631.651,135.975 C638.015,135.975 639.848,139.64 639.848,145.083 L639.848,156.837 C639.848,160.608 640.437,160.932 641.619,161.147 L643.399,161.418 L643.399,162.93 C642.048,162.874 639.849,162.765 637.795,162.765 C635.689,162.765 633.647,162.874 632.297,162.93 L632.297,161.418 L634.075,161.147 C635.316,160.932 635.853,160.612 635.853,156.837 L635.853,145.678 C635.853,141.577 634.779,139.157 630.197,139.157 C627.763,139.157 625.343,140.345 623.939,141.261 L623.939,156.842 C623.939,160.613 624.531,160.937 625.717,161.152 L627.497,161.423 L627.497,162.935 C626.147,162.88 623.935,162.771 621.883,162.771 C619.785,162.771 617.735,162.88 616.396,162.935 L616.396,161.419 L616.4,161.419 Z" id="Path" fill="#000000"></path>
                <path d="M648.311,150.693 C648.311,141.585 654.501,136.298 662.973,136.298 C664.1,136.298 664.962,136.403 665.827,136.568 L665.827,133.064 C665.827,130.314 665.827,129.668 662.32,128.964 L662.32,127.675 C665.124,126.863 667.125,126.111 669.809,124.763 L669.809,156.243 C669.809,158.992 669.809,159.639 673.317,160.341 L673.317,161.632 C670.726,162.113 668.681,162.547 665.827,163.572 L665.827,161.042 C664.208,162.492 661.729,163.572 659.086,163.572 C652.345,163.577 648.311,157.913 648.311,150.693 Z M665.826,159.371 L665.826,139.642 C665.123,139.315 663.772,138.724 661.941,138.724 C656.555,138.724 652.51,142.011 652.51,149.723 C652.51,155.161 655.316,160.5 660.704,160.5 C662.804,160.502 664.048,160.178 665.826,159.371 Z" id="Shape" fill="#000000" fill-rule="nonzero"></path>
                <path d="M678.458,150.21 C678.458,142.013 683.354,135.979 690.371,135.979 C697.051,135.979 700.284,140.996 700.284,146.217 C700.284,146.918 700.284,147.46 700.18,148.159 L682.767,148.159 C682.715,148.697 682.715,149.232 682.715,149.722 C682.715,155.541 685.621,160.393 691.654,160.393 C694.73,160.393 697.049,159.747 698.776,158.88 L698.932,160.228 C697.911,161.907 694.518,163.576 690.631,163.576 C682.716,163.577 678.458,158.456 678.458,150.21 Z M694.576,146 C695.493,146 695.807,145.574 695.807,144.813 C695.807,141.631 693.92,138.345 690.15,138.345 C685.626,138.345 683.356,142.332 682.922,145.993 L694.576,146 Z" id="Shape" fill="#000000" fill-rule="nonzero"></path>
                <path d="M705.425,162.334 C705.529,159.801 705.425,157.809 705.257,155.272 L707.258,155.272 C707.74,159.098 708.868,161.201 713.454,161.201 C716.854,161.201 719.225,159.314 719.225,156.299 C719.225,149.563 705.69,152.85 705.69,143.094 C705.69,138.781 709.576,135.98 714.799,135.98 C717.549,135.98 720.353,136.734 721.973,137.379 C721.859,139.691 721.92,141.097 722.077,143.414 L720.092,143.414 C719.819,139.965 718.194,138.185 714.59,138.185 C711.357,138.185 709.248,139.593 709.248,142.337 C709.248,148.593 722.838,146.001 722.838,155.649 C722.838,159.961 718.899,163.576 713.505,163.576 C710.167,163.577 707.574,163.034 705.425,162.334 Z" id="Path" fill="#000000"></path>
                <path d="M731.414,157.216 L731.414,139.154 L728.13,139.154 L728.13,137.425 C731.525,135.593 732.768,133.597 733.68,130.311 L735.409,130.311 L735.409,136.623 L743.227,136.623 L743.227,139.152 L735.409,139.152 L735.409,156.295 C735.409,159.527 736.382,160.879 739.023,160.879 C740.532,160.879 742.206,160.499 742.952,160.229 L743.178,161.31 C742.418,162.547 739.779,163.578 737.301,163.578 C732.921,163.577 731.414,161.634 731.414,157.216 Z" id="Path" fill="#000000"></path>
                <path d="M746.468,156.893 C746.468,151.829 750.947,148.592 757.844,148.592 C758.604,148.592 759.943,148.592 760.749,148.648 L760.749,145.516 C760.749,141.368 758.919,139.16 754.714,139.16 C752.239,139.16 750.236,139.695 748.57,140.613 L748.298,139.051 C749.597,137.546 752.725,135.982 755.688,135.982 C761.773,135.982 764.794,139.32 764.794,144.551 C764.794,148.754 764.585,152.852 764.585,157.7 C764.585,160.345 765.554,161.096 768.844,161.096 L768.844,162.608 C767.927,163.2 766.305,163.577 764.742,163.577 C762.266,163.577 760.804,162.12 760.804,159.911 L760.698,159.911 C759.73,161.528 756.821,163.577 753.535,163.577 C749.387,163.577 746.468,160.829 746.468,156.893 Z M760.542,158.076 C760.542,156.136 760.646,152.097 760.697,150.963 C760.107,150.909 759.191,150.909 758.601,150.909 C753.039,150.909 750.564,152.899 750.564,156.191 C750.564,158.833 752.342,160.446 754.988,160.446 C757.466,160.447 759.455,159.316 760.542,158.076 Z" id="Shape" fill="#000000" fill-rule="nonzero"></path>
                <path d="M772.088,167.401 C772.088,164.113 775.162,161.96 778.021,160.932 C776.187,160.287 775,158.994 775,157.324 C775,155.329 776.62,153.6 778.453,152.681 C775.651,151.495 773.438,148.698 773.438,144.76 C773.438,140.015 777.537,135.976 783.139,135.976 C785.027,135.976 786.1,136.296 786.965,136.622 L795.434,136.622 L795.434,138.831 L790.261,138.831 C791.657,140.181 792.684,142.333 792.684,144.598 C792.684,149.664 788.481,153.546 783.139,153.546 C782.277,153.546 781.201,153.488 780.494,153.329 C779.144,153.975 778.556,154.944 778.556,155.86 C778.556,156.994 779.8,157.964 781.95,158.07 L786.375,158.292 C791.662,158.508 795.27,160.557 795.27,164.544 C795.27,170.523 789.612,174.026 781.846,174.026 C776.396,174.032 772.088,171.661 772.088,167.401 Z M792.028,165.841 C792.028,162.929 789.121,161.904 784.105,161.689 L780.334,161.527 C778.289,162.392 775.806,163.899 775.806,166.431 C775.806,169.452 778.398,171.713 782.981,171.713 C788.203,171.715 792.028,169.509 792.028,165.841 Z M788.582,144.71 C788.582,141.096 786.645,138.296 783.032,138.296 C779.365,138.296 777.532,141.206 777.532,144.71 C777.532,148.696 779.746,151.231 783.188,151.231 C786.805,151.229 788.582,148.106 788.582,144.71 Z" id="Shape" fill="#000000" fill-rule="nonzero"></path>
                <path d="M435.696,3.206 C425.395,30.53 404.279,59.387 366.809,65.56 L366.809,81.36 C415.513,76.924 449.076,54.134 467.721,33.277 L467.721,3.208 L435.696,3.206 Z" id="Path" fill="#C31923"></path>
                <path d="M366.808,52.484 C388.362,45.683 399.227,19.329 400.895,3.208 L366.808,3.208 L366.808,52.484 Z" id="Path" fill="#000000"></path>
                <path d="M366.808,93.868 L366.808,104.079 C412.9,104.079 453.77,100.305 467.721,96.344 L467.721,68.675 C444.84,81.412 401.229,92.381 366.808,93.868 Z" id="Path" fill="#E6C823"></path>
                <path d="M170.211,3.167 L116.777,3.167 L102.327,104.042 L158.541,104.042 C198.178,104.042 216.471,81.899 216.471,45.852 C216.47,18.277 199.899,3.167 170.211,3.167 Z M160.663,24.772 C177.767,24.772 183.996,32.724 183.996,47.575 C183.996,68.913 174.185,81.902 153.498,81.902 L137.331,81.902 L145.555,24.774 L160.663,24.774 L160.663,24.772 Z M91.992,77.13 C86.425,78.588 76.615,80.179 65.608,80.179 C43.339,80.179 33.795,70.244 33.795,55.528 C33.795,33.922 51.43,25.7 73.037,25.7 C84.567,25.7 93.72,28.487 96.628,29.419 L100.077,5.688 C92.118,3.705 82.837,1.451 65.746,1.451 C31.015,1.448 0.259,18.678 0.259,55.531 C0.259,84.161 18.688,105.906 56.461,105.906 C70.25,105.906 83.773,103.248 88.408,101.266 L91.992,77.13 Z M268.04,3.167 L234.902,3.167 L227.341,55.129 C222.438,88.927 239.53,105.901 274.673,105.901 C313.748,105.901 327.694,85.612 332.066,54.864 L339.494,3.167 L307.547,3.167 L299.859,57.123 C297.737,72.1 290.966,81.898 277.107,81.898 C263.368,81.898 257.836,73.818 260.362,56.189 L268.04,3.167 Z" id="Shape" fill="#B9B9B9" fill-rule="nonzero"></path>
                <path d="M584.63,77.138 C579.065,78.593 569.263,80.188 558.276,80.188 C536.026,80.188 526.495,70.26 526.495,55.559 C526.495,33.977 544.108,25.769 565.692,25.769 C577.21,25.769 586.338,28.547 589.261,29.474 L592.699,5.772 C584.752,3.794 575.486,1.537 558.405,1.537 C523.711,1.537 492.991,18.755 492.991,55.559 C492.991,84.163 511.387,105.875 549.137,105.875 C562.908,105.875 576.412,103.221 581.049,101.238 L584.63,77.138 Z M625.146,106.527 C657.986,106.527 686.708,94.881 686.708,71.314 C686.708,57.28 673.865,49.743 658.11,43.782 L651.755,41.396 C639.443,36.756 634.407,34.51 634.407,29.745 C634.407,24.978 640.506,22.329 652.021,22.329 C665.795,22.329 675.59,26.561 684.586,30.409 L688.69,7.366 C681.55,4.845 669.628,0.745 649.502,0.745 C622.102,0.745 598.386,12.266 598.386,32.39 C598.386,46.561 609.522,54.372 622.889,60.068 L628.845,62.588 C642.358,68.276 648.31,69.997 648.31,75.171 C648.31,80.192 641.569,83.767 626.604,83.767 C612.568,83.767 602.364,79.67 594.953,75.82 L591.379,100.721 C596.67,102.83 607.263,106.527 625.146,106.527 Z M736.768,3.257 L703.664,3.257 L696.105,55.161 C691.207,88.922 708.293,105.873 743.386,105.873 C782.421,105.873 796.348,85.611 800.704,54.897 L808.136,3.252 L776.22,3.252 L768.54,57.148 C766.425,72.107 759.66,81.904 745.811,81.904 C732.082,81.904 726.56,73.827 729.082,56.222 L736.768,3.257 Z" id="Shape" fill="#B9B9B9" fill-rule="nonzero"></path>
            </g>
        </g>
    </g>
</svg>