<?xml version="1.0" encoding="UTF-8"?>
<svg width="1024px" height="1024px" viewBox="0 0 1024 1024" version="1.1" xmlns="http://www.w3.org/2000/svg" xmlns:xlink="http://www.w3.org/1999/xlink">
    <!-- Generator: Sketch 56.3 (81716) - https://sketch.com -->
    <title>about</title>
    <desc>Created with Sketch.</desc>
    <g id="Symbols" stroke="none" stroke-width="1" fill="none" fill-rule="evenodd">
        <g id="about" fill="#000000" fill-rule="nonzero">
            <path d="M464.600326,947.314217 C477.337684,960.047902 494.460033,967.145366 512.417618,967.145366 C530.166395,967.145366 547.706362,959.839153 560.23491,947.314217 L935.464927,572.192377 C992.469821,515.203917 1023.79119,439.428053 1024,359.059712 C1024,278.482622 992.67863,202.706758 935.673736,145.718298 C878.668842,88.7298384 803.079935,57.4174979 722.479608,57.4174979 C643.340946,57.4174979 568.796085,87.6860938 512.208809,142.795813 C455.412724,87.4773448 380.659054,57 301.311582,57 C220.920065,57 145.331158,88.3123406 88.3262643,145.092051 C31.3213703,202.080511 0,277.856375 0,358.433465 C0,438.801806 31.5301794,514.57767 88.5350734,571.56613 L464.600326,947.314217 Z M114.563505,179.122606 C162.980598,131.344904 227.46531,104.919184 296.020486,104.919184 C364.575661,104.919184 429.274608,131.344904 477.905936,179.334012 L493.75932,194.978039 C498.686723,199.840371 505.328006,202.588646 512.397759,202.588646 L512.397759,202.588646 C519.253276,202.588646 526.108794,199.840371 531.036197,194.978039 L546.461111,179.756824 C595.092439,131.767716 659.577151,105.341995 728.346562,105.341995 C796.901737,105.341995 861.386449,131.767716 909.803542,179.545418 C958.434869,227.534526 985,291.16766 985,358.817504 C985,426.467348 958.220635,490.100482 909.589307,538.08959 L524.394914,918.197151 C518.182102,924.327918 506.827651,924.327918 500.400603,918.197151 L114.77774,537.666779 C66.1464128,489.677671 39.3670473,426.044536 39.3670473,358.394693 C39.3670473,290.744849 66.1464128,227.111714 114.563505,179.122606 Z" id="heart-2"></path>
        </g>
    </g>
</svg>