<?xml version="1.0" encoding="UTF-8"?>
<svg width="1024px" height="1024px" viewBox="0 0 1024 1024" version="1.1" xmlns="http://www.w3.org/2000/svg" xmlns:xlink="http://www.w3.org/1999/xlink">
    <!-- Generator: Sketch 56.3 (81716) - https://sketch.com -->
    <title>add-user</title>
    <desc>Created with Sketch.</desc>
    <defs>
        <path d="M439,54 C307.755609,54 201,160.90136 201,292.260109 C201,423.630256 307.755609,530.520219 439,530.520219 C570.244391,530.520219 677,423.630256 677,292.260109 C677,160.889963 570.244391,54 439,54 Z M439,493.479781 C328.176625,493.479781 238,403.204602 238,292.260109 C238,181.304225 328.176625,91.0404372 439,91.0404372 C549.823375,91.0404372 640,181.304225 640,292.260109 C640,403.204602 549.823375,493.479781 439,493.479781 Z M439,615.613115 C78.8694311,615.613115 0,794.994553 0,863.884153 C0,930.365374 54.571273,970 107,970 L771,970 C823.417346,970 878,930.365374 878,863.884153 C877.988619,794.994553 799.14195,615.613115 439,615.613115 Z M771,932.959563 L107,932.959563 C73.283252,932.959563 37,908.81783 37,863.884153 C37,809.210409 110.852176,652.653552 439,652.653552 C767.147824,652.653552 841,809.210409 841,863.884153 C840.988622,908.81783 804.70537,932.959563 771,932.959563 Z M1006,396.37377 C1015.73829,396.413173 1024,404.683908 1024,414.393443 C1024,425.10407 1015.74969,433.386213 1006,433.414208 L896,433.414208 L896,543.534426 C895.960641,553.271955 887.698934,561.554098 877,561.554098 C867.28967,561.554098 859.027964,553.283363 859,543.534426 L859,433.414208 L749,433.414208 C739.261707,433.386213 731,425.10407 731,414.393443 C731,404.683908 739.250311,396.413173 749,396.37377 L859,396.37377 L859,286.253552 C859.027964,276.504616 867.278275,268.23388 877,268.23388 C887.698934,268.23388 895.960641,276.504616 896,286.253552 L896,396.37377 L1006,396.37377 Z" id="path-1"></path>
    </defs>
    <g id="Symbols" stroke="none" stroke-width="1" fill="none" fill-rule="evenodd">
        <g id="add-user">
            <mask id="mask-2" fill="white">
                <use xlink:href="#path-1"></use>
            </mask>
            <use id="Mask" fill="#000000" fill-rule="nonzero" xlink:href="#path-1"></use>
            <g id="null-mask" mask="url(#mask-2)"></g>
        </g>
    </g>
</svg>