<?xml version="1.0" encoding="UTF-8"?>
<svg width="1024px" height="1024px" viewBox="0 0 1024 1024" version="1.1" xmlns="http://www.w3.org/2000/svg" xmlns:xlink="http://www.w3.org/1999/xlink">
    <!-- Generator: Sketch 56.3 (81716) - https://sketch.com -->
    <title>anker</title>
    <desc>Created with Sketch.</desc>
    <defs>
        <path d="M300,750 C306.742214,742.070044 305.643508,730.669511 298,724 L189,635 C182.73719,629.919289 174.7029,627.746133 167,629 C158.77166,630.454044 151.687293,635.437511 147,643 L77,761 C71.4245118,769.6384 74.2513915,780.731733 83,786 C85.8221418,787.569778 89.0381466,788.423111 92,788 C98.4114844,788.423111 104.454369,785.248711 108,780 L158,696 C192.270756,899.413333 324.630526,1024 512,1024 C698.843011,1024 831.179891,899.367822 866,695 L916,780 C919.545631,785.316978 925.588516,788.468622 932,788 C934.950409,788.468622 938.177858,787.6608 941,786 C949.748609,780.811378 952.575488,769.683911 947,761 L877,643 C872.289817,635.414756 865.205451,630.465422 857,629 C849.239875,627.700622 841.217031,629.907911 835,635 L726,724 C718.299268,730.680889 717.189117,742.081422 724,750 C729.973022,757.509689 741.429324,758.613333 749,752 L830,686 C800.85102,866.315378 689.011879,979.296711 530,987 L530,405 L613,405 C623.055169,405.060267 631.203907,396.947911 631,387 C631.203907,376.9344 623.055169,368.822044 613,369 L530,369 L530,277 C598.631844,267.559822 651.690201,209.362489 652,139 C651.690201,62.3274667 589.00672,0 512,0 C434.936056,0 372.24113,62.3274667 372,139 C372.24113,209.351111 425.299487,267.559822 494,277 L494,369 L411,369 C400.910497,368.822044 392.750314,376.9344 393,387 C392.750314,396.947911 400.910497,405.060267 411,405 L494,405 L494,987 C334.415878,979.308089 222.519512,866.304 193,686 L275,752 C282.456228,758.601956 293.946864,757.509689 300,750 Z M409,139 C409,81.9682513 455.425619,36 512,36 C569.562912,36 616,81.9796099 616,139 C616,195.043107 569.562912,241 512,241 C455.425619,241 409,195.043107 409,139 Z" id="path-1"></path>
    </defs>
    <g id="Symbols" stroke="none" stroke-width="1" fill="none" fill-rule="evenodd">
        <g id="anker">
            <mask id="mask-2" fill="white">
                <use xlink:href="#path-1"></use>
            </mask>
            <use id="Mask" fill="#000000" fill-rule="nonzero" xlink:href="#path-1"></use>
        </g>
    </g>
</svg>