<?xml version="1.0" encoding="UTF-8"?>
<svg width="1024px" height="1024px" viewBox="0 0 1024 1024" version="1.1" xmlns="http://www.w3.org/2000/svg" xmlns:xlink="http://www.w3.org/1999/xlink">
    <!-- Generator: Sketch 56.3 (81716) - https://sketch.com -->
    <title>bell</title>
    <desc>Created with Sketch.</desc>
    <defs>
        <path d="M521,969.833333 C521,963.722222 517.944444,960.666667 511.833333,960.666667 C489.298611,960.666667 469.914931,952.550347 453.682292,936.317708 C437.449653,920.085069 429.333333,900.701389 429.333333,878.166667 C429.333333,872.055556 426.277778,869 420.166667,869 C414.055556,869 411,872.055556 411,878.166667 C411,906.048611 420.835069,929.824653 440.505208,949.494792 C460.175347,969.164931 483.951389,979 511.833333,979 C517.944444,979 521,975.944444 521,969.833333 Z M98,842 L926,842 C813.052308,714.916667 756.578462,538.694444 756.578462,313.333333 C756.578462,291.729167 751.483077,269.489583 741.292308,246.614583 C731.101538,223.739583 716.452308,201.923611 697.344615,181.166667 C678.236923,160.409722 652.441538,143.359375 619.958462,130.015625 C587.475385,116.671875 551.489231,110 512,110 C472.510769,110 436.524615,116.671875 404.041538,130.015625 C371.558462,143.359375 345.763077,160.409722 326.655385,181.166667 C307.547692,201.923611 292.898462,223.739583 282.707692,246.614583 C272.516923,269.489583 267.421538,291.729167 267.421538,313.333333 C267.421538,538.694444 210.947692,714.916667 98,842 Z M971.710635,877.714286 L658.461538,877.714286 C658.461538,918.095238 644.158654,952.571429 615.552885,981.142857 C586.947115,1009.71429 552.429487,1024 512,1024 C471.570513,1024 437.052885,1009.71429 408.447115,981.142857 C379.841346,952.571429 365.538462,918.095238 365.538462,877.714286 L109.230769,877.714286 C89.3974359,877.714286 72.2339744,870.47619 57.7403846,856 C43.2467949,841.52381 167.681891,627.809524 179.314904,595.428571 C190.947917,563.047619 200.483173,523.809524 207.920673,477.714286 C215.358173,431.619048 219.076923,382.095238 219.076923,329.142857 C219.076923,271.238095 241.389423,217.428571 286.014423,167.714286 C330.639423,118 389.185897,87.8095238 461.653846,77.1428571 C458.602564,69.9047619 457.076923,62.4761905 457.076923,54.8571429 C457.076923,39.6190476 462.416667,26.6666667 473.096154,16 C483.775641,5.33333333 496.74359,0 512,0 C527.25641,0 540.224359,5.33333333 550.903846,16 C561.583333,26.6666667 566.923077,39.6190476 566.923077,54.8571429 C566.923077,62.4761905 565.397436,69.9047619 562.346154,77.1428571 C634.814103,87.8095238 693.360577,118 737.985577,167.714286 C782.610577,217.428571 804.923077,271.238095 804.923077,329.142857 C804.923077,382.095238 808.641827,431.619048 816.079327,477.714286 C823.516827,523.809524 833.052083,563.047619 844.685096,595.428571 C856.318109,627.809524 991.543969,877.714286 971.710635,877.714286 Z" id="path-1"></path>
    </defs>
    <g id="Symbols" stroke="none" stroke-width="1" fill="none" fill-rule="evenodd">
        <g id="bell">
            <mask id="mask-2" fill="white">
                <use xlink:href="#path-1"></use>
            </mask>
            <use id="Mask" fill="#000000" fill-rule="nonzero" xlink:href="#path-1"></use>
        </g>
    </g>
</svg>