<?xml version="1.0" encoding="UTF-8"?>
<svg width="1024px" height="1024px" viewBox="0 0 1024 1024" version="1.1" xmlns="http://www.w3.org/2000/svg" xmlns:xlink="http://www.w3.org/1999/xlink">
    <!-- Generator: Sketch 56.3 (81716) - https://sketch.com -->
    <title>bell</title>
    <desc>Created with Sketch.</desc>
    <defs>
        <path d="M544.789997,62.9679903 C580.104197,65.6411748 612.879784,73.012385 643.116758,85.0816208 C681.956177,100.584564 712.799245,120.393881 735.645962,144.509571 C758.492679,168.625262 776.008495,193.971344 788.193411,220.547819 C800.378327,247.124294 806.470785,272.962533 806.470785,298.062537 C806.470785,559.890029 875.950517,749.643369 1011,897.290451 L656.872912,897.290451 C652.058583,972.436285 588.040505,1016.12713 510.395258,1016.12713 C432.750011,1016.12713 368.279433,972.436285 363.430261,897.290451 L11.7455066,897.290451 C146.794989,749.643369 221.594828,559.890029 221.594828,298.062537 C221.594828,272.962533 227.687286,247.124294 239.872202,220.547819 C252.057118,193.971344 269.572934,168.625262 292.419651,144.509571 C315.266368,120.393881 346.109436,100.584564 384.948855,85.0816208 C412.823356,73.9553778 442.855273,66.8217083 475.044607,63.6806123 C471.292136,57.5314327 469.13006,50.3055916 469.13006,42.5747707 C469.13006,20.1659436 487.296004,2 509.704831,2 C532.113658,2 550.279602,20.1659436 550.279602,42.5747707 C550.279602,50.0089336 548.280275,56.9761287 544.789983,62.9679933 Z M391.884292,897.290451 C394.920034,951.538322 447.366555,983.12713 510.652136,983.12713 C573.937716,983.12713 626.011957,951.538322 629.02576,897.290451 L391.884292,897.290451 Z M80.1941142,862.654477 L943.90225,862.654477 C823.464679,729.792113 774.587817,550.814474 774.587817,315.205214 C774.587817,292.618612 769.154543,269.367699 758.287995,245.452473 C747.421447,221.537247 731.800785,198.729208 711.426008,177.028355 C691.051231,155.327503 663.545281,137.501802 628.90816,123.551254 C594.271039,109.600705 555.898542,102.625431 513.790669,102.625431 C471.682796,102.625431 433.310299,109.600705 398.673178,123.551254 C364.036057,137.501802 336.530108,155.327503 316.155331,177.028355 C295.780554,198.729208 280.159891,221.537247 269.293343,245.452473 C258.426796,269.367699 252.993522,292.618612 252.993522,315.205214 C252.993522,550.814474 200.631686,729.792113 80.1941142,862.654477 Z" id="path-1"></path>
    </defs>
    <g id="Symbols" stroke="none" stroke-width="1" fill="none" fill-rule="evenodd">
        <g id="bell">
            <mask id="mask-2" fill="white">
                <use xlink:href="#path-1"></use>
            </mask>
            <use id="Mask" fill="#000000" fill-rule="nonzero" xlink:href="#path-1"></use>
        </g>
    </g>
</svg>