<?xml version="1.0" encoding="UTF-8"?>
<svg width="1024px" height="1024px" viewBox="0 0 1024 1024" version="1.1" xmlns="http://www.w3.org/2000/svg" xmlns:xlink="http://www.w3.org/1999/xlink">
    <!-- Generator: Sketch 56.3 (81716) - https://sketch.com -->
    <title>bell-header</title>
    <desc>Created with Sketch.</desc>
    <defs>
        <path d="M510.395258,1016.12713 C429.640952,1016.12713 363.137516,968.86731 363.137516,888.113005 C363.137516,847.846002 437.485942,870.018375 510.395258,869.908526 C583.703458,869.798076 657.163537,847.625703 657.163537,888.113005 C657.163537,968.86731 591.149563,1016.12713 510.395258,1016.12713 Z M510.246788,974 C569.296581,974 617.567834,943.294833 617.567834,890.827972 C617.567834,864.522976 563.851782,878.928583 510.246788,879.000344 C456.93347,879.071714 402.567834,864.666107 402.567834,890.827972 C402.567834,943.294833 451.196996,974 510.246788,974 Z M98,836 L926,836 C813.052308,712.5625 756.578462,541.395833 756.578462,322.5 C756.578462,301.515625 751.483077,279.914062 741.292308,257.695312 C731.101538,235.476562 716.452308,214.286458 697.344615,194.125 C678.236923,173.963542 652.441538,157.402344 619.958462,144.441406 C587.475385,131.480469 551.489231,125 512,125 C472.510769,125 436.524615,131.480469 404.041538,144.441406 C371.558462,157.402344 345.763077,173.963542 326.655385,194.125 C307.547692,214.286458 292.898462,235.476562 282.707692,257.695312 C272.516923,279.914062 267.421538,301.515625 267.421538,322.5 C267.421538,541.395833 210.947692,712.5625 98,836 Z M484.763212,74.5806462 C475.248215,67.155201 469.13006,55.5794717 469.13006,42.5747707 C469.13006,20.1659436 487.296004,2 509.704831,2 C532.113658,2 550.279602,20.1659436 550.279602,42.5747707 C550.279602,54.957305 544.732849,66.0443258 535.988468,73.4867092 C543.687418,74.2216211 552.204843,75.4088755 562.346154,77.1428571 C634.814103,87.8095238 693.360577,118 737.985577,167.714286 C782.610577,217.428571 804.923077,271.238095 804.923077,329.142857 C804.923077,382.095238 808.641827,431.619048 816.079327,477.714286 C823.516827,523.809524 833.052083,563.047619 844.685096,595.428571 C856.318109,627.809524 991.543969,877.714286 971.710635,877.714286 C958.488413,877.714286 854.072047,877.714286 658.461538,877.714286 C552.877008,877.714286 455.235982,877.714286 365.538462,877.714286 L109.230769,877.714286 C89.3974359,877.714286 72.2339744,870.47619 57.7403846,856 C43.2467949,841.52381 167.681891,627.809524 179.314904,595.428571 C190.947917,563.047619 200.483173,523.809524 207.920673,477.714286 C215.358173,431.619048 219.076923,382.095238 219.076923,329.142857 C219.076923,271.238095 241.389423,217.428571 286.014423,167.714286 C330.639423,118 389.185897,87.8095238 461.653846,77.1428571 C470.382363,76.1680949 477.93635,75.2965477 484.763212,74.5806462 Z" id="path-1"></path>
    </defs>
    <g id="Symbols" stroke="none" stroke-width="1" fill="none" fill-rule="evenodd">
        <g id="bell-header">
            <mask id="mask-2" fill="white">
                <use xlink:href="#path-1"></use>
            </mask>
            <use id="Mask" fill="#000000" fill-rule="nonzero" xlink:href="#path-1"></use>
        </g>
    </g>
</svg>