<?xml version="1.0" encoding="UTF-8"?>
<svg width="1024px" height="1024px" viewBox="0 0 1024 1024" version="1.1" xmlns="http://www.w3.org/2000/svg" xmlns:xlink="http://www.w3.org/1999/xlink">
    <!-- Generator: Sketch 56.3 (81716) - https://sketch.com -->
    <title>book</title>
    <desc>Created with Sketch.</desc>
    <defs>
        <path d="M969,137 C929.530311,115.964776 865.700978,91 784,91 C666.658133,91 555.064889,140.997576 517,160 C514.195911,161.336726 509.815467,161.336726 507,160 C468.946489,140.986239 357.341867,91 240,91 C158.3104,91 94.4696889,115.964776 55,137 C25.3496889,152.99246 15.9630222,160.724511 14,162 C5.91644444,169.522271 0,182.571525 0,194 L0,894 C0,917.660608 13.4826667,928.374374 27,928 C31.1637333,928.374374 37.5352889,927.20663 44,922 L72,907 C107.906844,887.92282 165.808356,865.304869 240,865 C322.127644,865.304869 402.409244,891.947568 455,914 L485,927 C492.885333,930.868584 502.283378,933 512,933 C521.728,933 531.114667,930.868584 539,927 L569,914 C621.533867,891.958906 701.8496,865.304869 784,865 C858.191644,865.304869 916.093156,887.92282 952,907 L980,922 C986.464711,927.217967 992.847644,928.374374 997,928 C1010.52871,928.374374 1024,917.671945 1024,894 L1024,194 C1024,182.571525 1018.08356,169.544945 1010,162 C1008.07111,160.724511 998.673067,152.981122 969,137 Z M494,886 C493.988614,889.283707 491.734195,890.769839 489,890 L470,881 C413.501305,857.779974 328.197738,829.543462 240,830 C158.137129,829.543462 94.2277688,854.535441 55,876 L41,883 C38.1747172,884.553042 36,883.271111 36,880 L36,194 C36.1024736,192.65074 37.3435426,189.91671 38,189 C37.96977,189.236039 45.9513238,182.735629 72,169 C107.78844,149.632318 165.708788,127 240,127 C346.688527,127 451.780883,173.12682 489,191 C491.802511,192.662084 494,196.212919 494,199 L494,886 L494,886 Z M988,880 C988,883.277842 985.836669,884.559765 983,883 L969,875 C929.749459,854.531003 865.851485,829.539176 784,830 C695.77949,829.539176 610.430379,857.775516 554,881 L535,890 C532.265805,890.776524 530,889.279057 530,886 L530,199 C530,196.201153 532.197489,192.650339 535,191 C572.230503,173.137883 677.322859,127 784,127 C858.313984,127 916.234332,149.63218 952,169 C977.547694,182.451678 985.734195,188.974737 986,189 C986.656457,189.927671 987.908912,192.650339 988,194 L988,880 L988,880 Z" id="path-1"></path>
    </defs>
    <g id="Symbols" stroke="none" stroke-width="1" fill="none" fill-rule="evenodd">
        <g id="book">
            <mask id="mask-2" fill="white">
                <use xlink:href="#path-1"></use>
            </mask>
            <use id="28" fill="#000000" fill-rule="nonzero" xlink:href="#path-1"></use>
        </g>
    </g>
</svg>