<?xml version="1.0" encoding="UTF-8"?>
<svg width="1024px" height="1024px" viewBox="0 0 1024 1024" version="1.1" xmlns="http://www.w3.org/2000/svg" xmlns:xlink="http://www.w3.org/1999/xlink">
    <!-- Generator: Sketch 56.3 (81716) - https://sketch.com -->
    <title>bundestag</title>
    <desc>Created with Sketch.</desc>
    <defs>
        <path d="M515.7191,86.1905577 C515.773855,86.1906353 515.82861,86.1907244 515.883365,86.1908248 C516.041007,86.1270888 516.198718,86.0634806 516.356497,86 L516.433842,86.1922167 C644.212181,86.604149 771.413736,148.861287 866.719688,256.510178 C966.589782,369.314307 1024,522.589366 1024,692.057295 C1024,761.528473 980.124958,823.368671 898.017579,866.748272 C810.485077,912.994114 681.506819,938 515.15775,938 C345.639696,938 215.973441,912.276611 128.626051,863.051594 C43.8674404,815.285496 0,745.58652 0,661.748192 C0,492.779659 58.4611452,346.21982 161.122389,240.618053 C257.03234,141.960956 385.645637,86.1901595 515.15775,86.1901595 C515.161869,86.1901595 515.165988,86.1901596 515.170107,86.1901597 L515.246629,86 C515.404187,86.0633919 515.561678,86.1269111 515.7191,86.1905577 Z M602.503643,140.035931 C655.476135,186.71855 697.310771,254.376818 728.20862,342.822715 C768.669737,332.2863 808.845337,318.682925 848.742722,302.008921 C844.071863,296.275877 839.28999,290.645629 834.399201,285.12144 C768.897721,211.136956 687.533002,160.795394 602.503643,140.035931 Z M536.878776,140.461823 L536.878776,369.752489 C588.314844,368.529826 639.291938,362.574764 689.824089,351.880237 C653.62821,250.246457 602.518901,179.892914 536.878776,140.461823 Z M786.455183,646.448875 L979.346515,646.448875 C971.727912,530.378481 935.098191,424.342909 875.39937,337.586223 C831.099091,356.66749 786.418578,372.138944 741.366447,383.996247 C763.138546,458.615134 778.135309,546.13003 786.455183,646.448875 Z M747.077244,646.448875 C738.817459,548.770874 724.156647,464.372977 703.199251,393.157517 C648.297089,405.069895 592.851742,411.662557 536.878776,412.927676 L536.878776,646.448875 L747.077244,646.448875 Z M696.442566,882.645559 C708.507696,875.749348 718.450986,863.272488 726.710301,844.454355 C741.473197,810.818375 749.355002,759.054521 749.834945,689.612512 L536.878776,689.612456 L536.878776,894.687833 C595.434313,893.879143 648.694946,889.779877 696.442566,882.645559 Z M757.343186,871.237236 C804.407621,860.444263 844.674203,846.113003 877.852069,828.584218 C946.751166,792.182919 980.833867,744.144651 980.833867,692.057295 C980.833867,691.241929 980.832458,690.426982 980.82964,689.612456 L789.031547,689.612456 C788.496006,764.664042 779.859422,820.999769 762.64391,860.22382 C760.965522,864.047883 759.198197,867.719747 757.343186,871.237236 Z M431.612767,137.844023 C343.243795,155.819071 259.056481,201.803631 192.074222,270.704462 C182.662145,280.386128 173.650749,290.445294 165.053291,300.866102 C211.58923,318.613552 257.582695,332.938137 303.037822,343.84605 C334.45583,253.501858 377.2431,184.768081 431.612767,137.844023 Z M493.712643,141.072718 C428.466355,180.673613 377.644607,250.96847 341.625749,352.311087 C393.015245,362.518737 443.708844,368.302364 493.712643,369.671105 L493.712643,141.072718 Z M245.147942,646.448875 C253.427479,546.616412 268.319317,459.464042 289.92048,385.082492 C239.849101,372.911459 189.236333,356.786254 138.087048,336.714177 C79.5435086,422.245936 45.9922695,527.844465 43.3368387,646.448842 L245.147942,646.448875 Z M284.525881,646.448875 L493.712643,646.448875 L493.712643,412.850172 C439.248324,411.431378 384.094825,405.028003 328.259017,393.650313 C307.378909,464.762225 292.766623,548.996082 284.525881,646.448875 Z M335.480675,882.826942 C382.775439,889.891432 435.56291,893.905524 493.712643,894.692714 L493.712643,689.612456 L281.76818,689.612456 C282.248124,759.054521 290.129929,810.818375 304.892825,844.454355 C313.225073,863.438659 323.271167,875.969205 335.480675,882.826942 Z M274.289148,871.292595 C272.423479,867.758277 270.646411,864.067949 268.959215,860.22382 C251.743704,820.999769 243.10712,764.664042 242.57158,689.612552 L45.2535002,689.612456 C53.7545259,744.799989 88.2762109,790.765597 149.819801,825.448765 C183.702026,844.543246 225.25969,859.916373 274.289148,871.292595 Z" id="path-1"></path>
    </defs>
    <g id="Symbols" stroke="none" stroke-width="1" fill="none" fill-rule="evenodd">
        <g id="bundestag">
            <mask id="mask-2" fill="white">
                <use xlink:href="#path-1"></use>
            </mask>
            <use id="Oval" fill="#000000" fill-rule="nonzero" xlink:href="#path-1"></use>
        </g>
    </g>
</svg>