<?xml version="1.0" encoding="UTF-8"?>
<svg width="1024px" height="1024px" viewBox="0 0 1024 1024" version="1.1" xmlns="http://www.w3.org/2000/svg" xmlns:xlink="http://www.w3.org/1999/xlink">
    <!-- Generator: Sketch 56.3 (81716) - https://sketch.com -->
    <title>calculator</title>
    <desc>Created with Sketch.</desc>
    <defs>
        <path d="M110,896 C110,966.633244 167.331919,1024 238,1024 L786,1024 C856.679452,1024 914,966.633244 914,896 L914,128 C914.011371,57.3667556 856.690823,0 786,0 L238,0 C167.331919,0 110.011371,57.3667556 110,128 L110,896 L110,896 Z M146,128 C146,77.1156362 187.093938,36 238,36 L786,36 C836.894684,36 878,77.1042531 878,128 L878,896 C878,946.861598 836.906062,988 786,988 L238,988 C187.105316,988 146,946.872981 146,896 L146,128 Z M282,338 L743,338 C777.191621,338 805,310.151014 805,276 L805,199 C805,164.837601 777.191621,137 743,137 L282,137 C247.808379,137 220,164.837601 220,199 L220,276 C220,310.151014 247.808379,338 282,338 Z M256,199 C256.011365,184.512627 267.569979,173 282,173 L742,173 C756.441386,173 768,184.512627 768,199 L768,275 C768,289.464688 756.441386,301 742,301 L282,301 C267.558614,301 256,289.464688 256,275 L256,199 Z M739,616 C751.179232,616 761,625.820263 761,638 L761,787 L761,813 L761,843 C761,855.156978 751.167852,865 739,865 L679,865 C666.832148,865 657,855.145599 657,843 L657,813 L657,787 L657,638 C657,625.820263 666.843528,616 679,616 L739,616 Z M345,787 C357.178157,787 367,796.819694 367,809 L367,843 C367,855.157549 357.166776,865 345,865 L285,865 C272.810462,865 263,855.146171 263,843 L263,809 C263,796.819694 272.821843,787 285,787 L345,787 Z M542,787 C554.166776,787 563.988619,796.819694 564,809 L564,843 C564,855.157549 554.166776,865 542,865 L482,865 C469.810462,865 460,855.146171 460,843 L460,809 C460,796.819694 469.821843,787 482,787 L542,787 Z M345,616 C357.178157,616 367,625.821126 367,638 L367,672 C367,684.167493 357.166776,694 345,694 L285,694 C272.810462,694 263,684.156113 263,672 L263,638 C263,625.821126 272.821843,616 285,616 L345,616 Z M542,445 C554.166776,445 563.988619,454.842451 564,467 L564,501 C564,513.180306 554.166776,523 542,523 L482,523 C469.810462,523 460,513.168928 460,501 L460,467 C460,454.831072 469.821843,445 482,445 L542,445 Z M345,445 C357.178157,445 367,454.842451 367,467 L367,501 C367,513.180306 357.166776,523 345,523 L285,523 C272.810462,523 263,513.168928 263,501 L263,467 C263,454.831072 272.821843,445 285,445 L345,445 Z M739,445 C751.179232,445 761,454.842451 761,467 L761,501 C761,513.180306 751.167852,523 739,523 L679,523 C666.832148,523 657,513.168928 657,501 L657,467 C657,454.831072 666.843528,445 679,445 L739,445 Z M542,616 C554.166776,616 563.988619,625.821126 564,638 L564,672 C564,684.167493 554.166776,694 542,694 L482,694 C469.810462,694 460,684.156113 460,672 L460,638 C460,625.821126 469.821843,616 482,616 L542,616 Z" id="path-1"></path>
    </defs>
    <g id="Symbols" stroke="none" stroke-width="1" fill="none" fill-rule="evenodd">
        <g id="calculator">
            <mask id="mask-2" fill="white">
                <use xlink:href="#path-1"></use>
            </mask>
            <use id="Shape" fill="#000000" fill-rule="nonzero" xlink:href="#path-1"></use>
        </g>
    </g>
</svg>