<?xml version="1.0" encoding="UTF-8"?>
<svg width="1024px" height="1024px" viewBox="0 0 1024 1024" version="1.1" xmlns="http://www.w3.org/2000/svg" xmlns:xlink="http://www.w3.org/1999/xlink">
    <!-- Generator: Sketch 56.3 (81716) - https://sketch.com -->
    <title>camera</title>
    <desc>Created with Sketch.</desc>
    <defs>
        <path d="M987,297 C963.413333,283.065011 933.353244,285.878262 902,305 L750,397 L750,374 C749.624889,302.872596 692.258133,245 622,245 L128,245 C57.3667556,245.011483 0,302.884079 0,374 L0,651 C0,722.104439 57.3667556,780 128,780 L622,780 C692.246756,780 749.613511,722.104439 750,651 L750,628 L902,720 C920.450844,731.31353 938.200178,736.802241 955,737 C966.269156,736.802241 977.260089,733.98899 987,728 C1010.92693,714.76702 1024,687.28902 1024,651 L1024,374 C1024,337.699498 1010.92693,310.210015 987,297 Z M713,652 C713,702.502237 671.913857,744 621,744 L128,744 C77.1088933,744 36,702.513723 36,652 L36,375 C36,323.497763 77.0975184,282 128,282 L621,282 C671.902482,282 713,323.497763 713,375 L713,652 Z M988,651 C988,673.099567 981.27992,689.702716 970,696 C957.85629,703.081618 940.265826,700.385184 921,689 L750,585 L750,440 L921,336 C940.265826,324.628506 957.844919,321.909124 970,329 C981.27992,335.2995 988,351.902649 988,374 L988,651 Z" id="path-1"></path>
    </defs>
    <g id="Symbols" stroke="none" stroke-width="1" fill="none" fill-rule="evenodd">
        <g id="camera">
            <mask id="mask-2" fill="white">
                <use xlink:href="#path-1"></use>
            </mask>
            <use id="130" fill="#000000" fill-rule="nonzero" xlink:href="#path-1"></use>
            <g id="null-mask" mask="url(#mask-2)"></g>
        </g>
    </g>
</svg>