<?xml version="1.0" encoding="UTF-8"?>
<svg width="1024px" height="1024px" viewBox="0 0 1024 1024" version="1.1" xmlns="http://www.w3.org/2000/svg" xmlns:xlink="http://www.w3.org/1999/xlink">
    <!-- Generator: Sketch 56.3 (81716) - https://sketch.com -->
    <title>chat</title>
    <desc>Created with Sketch.</desc>
    <defs>
        <path d="M702,194 C683.565511,193.882084 665.417956,195.278677 648,198 C579.197156,149.259778 491.975111,120 397,120 C178.119111,120 0,275.479774 0,467 C0,539.596203 25.7024,609.437323 74,669 C74.3424,668.540701 74.3424,668.540701 74,669 C86.8579556,683.765859 91.8072889,688.573803 93,689 C102.456889,698.578907 108.305067,715.360924 107,724 L102,751 C101.762844,751.466299 101.762844,751.466299 102,751 L81,864 C77.1299556,887.347974 88.2119111,897.410316 93,901 C95.8236444,902.412868 100.955022,905 108,905 C114.346667,905 122.117689,903.04248 131,897 L225,833 L264,807 C271.4624,801.549056 286.833778,798.584157 296,801 C297.927111,801.068262 352.824889,813.111019 397,813 C482.304,813.111019 561.277156,789.483405 626,749 C650.706489,754.625806 676.090311,757.38465 702,757 C737.598578,757.38465 782.0288,747.619943 784,747 C789.9136,745.85703 801.359644,748.077843 806,752 L838,773 L913,824 C921.065244,829.435136 927.994311,831.152259 934,831 C940.282311,831.152259 945.095111,828.725392 948,827 C952.160711,824.066264 962.412089,814.839589 959,794 L942,704 C942.250667,703.661592 942.250667,703.661592 942,704 L938,681 C937.312711,676.336439 941.215289,663.938811 948,657 C949.509689,656.154519 953.571556,652.113556 963,640 C1003.07627,591.968457 1024,535.131683 1024,476 C1024,320.262344 879.433956,193.882084 702,194 Z M397,776 C356.711829,776.219128 303.806215,764.634164 303,765 C284.89997,760.478688 259.221169,765.389705 244,776 L204,803 L118,861 L137,758 L137,758 L142,730 C146.136558,708.346351 135.35738,679.338151 117,662 C117.282055,662.384266 113.081932,658.263132 102,645 C102.040958,644.869449 102.040958,644.846554 102,645 C58.8445713,592.359341 36,530.565235 36,466 C36,295.14549 197.949457,156 397,156 C596.061926,156 758,295.134042 758,466 C758,637.107981 596.061926,776.219128 397,776 Z M935,616 C926.280314,626.588422 923.052236,629.767992 923,630 C907.673401,644.201866 898.580224,668.883562 902,687 L906,709 L906,709 L919,784 L858,742 L826,721 C812.956601,711.61332 791.201176,707.415831 776,711 C775.140353,710.961394 733.198076,720.168421 701,720 C690.085053,720.168421 679.002744,719.516495 668,718 C745.189702,655.238862 793.554035,565.501796 794,466 C793.554035,375.173665 753.180331,292.42479 687,231 C691.971887,230.388868 696.586674,230 701,230 C858.797577,230 987,339.958215 987,475 C986.988634,525.940171 968.961411,574.720261 935,616 Z" id="path-1"></path>
    </defs>
    <g id="Symbols" stroke="none" stroke-width="1" fill="none" fill-rule="evenodd">
        <g id="chat">
            <mask id="mask-2" fill="white">
                <use xlink:href="#path-1"></use>
            </mask>
            <use id="166" fill="#000000" fill-rule="nonzero" xlink:href="#path-1"></use>
        </g>
    </g>
</svg>