<?xml version="1.0" encoding="UTF-8"?>
<svg width="108px" height="122px" viewBox="0 0 108 122" version="1.1" xmlns="http://www.w3.org/2000/svg" xmlns:xlink="http://www.w3.org/1999/xlink">
    <!-- Generator: Sketch 51.3 (57544) - http://www.bohemiancoding.com/sketch -->
    <title>Group</title>
    <desc>Created with Sketch.</desc>
    <defs></defs>
    <g id="Final" stroke="none" stroke-width="1" fill="none" fill-rule="evenodd">
        <g id="List_iOS_Abstimmung_überarbeitet03_keine-Daten" transform="translate(-130.000000, -212.000000)">
            <g id="Group" transform="translate(130.000000, 212.000000)">
                <path d="M77.3313895,61.1287341 L74.6534237,59.5194454 L73.7896916,59.0004509 L73.3968058,59.9432984 L73.0809997,60.7021756 C71.8243818,63.7219028 69.3270025,65.5976778 66.5627076,65.5976778 C63.7984126,65.5976778 61.3010333,63.7219028 60.0448559,60.7026265 L59.7290498,59.9437493 L59.336164,59 L58.4724319,59.5194454 L55.7944661,61.1287341 L55.126296,61.5304926 L55.4297695,62.2600609 L55.7460161,63.0189381 C57.7932505,67.9414948 61.9379311,71 66.5627076,71 C71.1870436,71 75.3317242,67.9414948 77.379399,63.0184872 L77.6956457,62.2600609 L78,61.5304926 L77.3313895,61.1287341 Z M47.5266872,59.5194454 L46.6633956,59.0004509 L46.2705098,59.9432984 L45.9542632,60.7021756 C44.6976453,63.7219028 42.200266,65.5976778 39.4359711,65.5976778 C36.6716761,65.5976778 34.1742968,63.7219028 32.9181194,60.7026265 L32.6023133,59.9437493 L32.209868,59 L31.3456954,59.5194454 L28.6677296,61.1287341 L28,61.5304926 L28.3034734,62.2600609 L28.6192796,63.0189381 C30.666514,67.9414948 34.8111946,71 39.4359711,71 C44.0603071,71 48.2054282,67.9414948 50.253103,63.0184872 L50.5689092,62.2600609 L50.8732635,61.5304926 L50.204653,61.1287341 L47.5266872,59.5194454 Z" id="Fill-1" fill="#9B9B9B"></path>
                <path d="M53.0002101,87 C50.7904742,87 49,88.7912203 49,91 C49,93.2091997 50.7904742,95 53.0002101,95 C55.2091057,95 57,93.2091997 57,91 C57,88.7912203 55.2091057,87 53.0002101,87" id="Fill-3" fill="#9B9B9B"></path>
                <g id="Group-12">
                    <polygon id="Clip-11" points="0 0.0796327273 107.480709 0.0796327273 107.480709 121.112727 0 121.112727"></polygon>
                    <path d="M81.4435794,30.3382945 L81.4435794,10.8861709 C81.4435794,10.2562073 81.2404948,9.73759636 80.8347711,9.333 C80.4268206,8.92840364 79.9075299,8.72477455 79.2737814,8.72477455 L74.9350763,8.72477455 C74.3013278,8.72477455 73.7833732,8.92840364 73.3740866,9.333 C72.9683629,9.73759636 72.7652784,10.2562073 72.7652784,10.8861709 L72.7652784,30.3382945 C72.7652784,30.9691455 72.9683629,31.4855382 73.3740866,31.8914655 C73.7833732,32.2960618 74.3013278,32.4996909 74.9350763,32.4996909 L79.2737814,32.4996909 C79.9075299,32.4996909 80.4268206,32.2960618 80.8347711,31.8914655 C81.2404948,31.4855382 81.4435794,30.9691455 81.4435794,30.3382945 Z M34.716767,30.3382945 L34.716767,10.8861709 C34.716767,10.2562073 34.5123464,9.73759636 34.1061773,9.333 C33.6986722,8.92840364 33.1776,8.72477455 32.5469691,8.72477455 L28.2078186,8.72477455 C27.5745155,8.72477455 27.0547794,8.92840364 26.6472742,9.333 C26.2415505,9.73759636 26.0380206,10.2562073 26.0380206,10.8861709 L26.0380206,30.3382945 C26.0380206,30.9691455 26.2415505,31.4855382 26.6472742,31.8914655 C27.0547794,32.2960618 27.5745155,32.4996909 28.2078186,32.4996909 L32.5469691,32.4996909 C33.1776,32.4996909 33.6986722,32.2960618 34.1061773,31.8914655 C34.5123464,31.4855382 34.716767,30.9691455 34.716767,30.3382945 Z M8.68008247,112.466476 L98.8019629,112.466476 L98.8019629,43.3057855 L8.68008247,43.3057855 L8.68008247,112.466476 Z M107.480709,26.0159455 L107.480709,112.466476 C107.480709,114.807102 106.621163,116.834076 104.903406,118.545625 C103.185204,120.255844 101.152132,121.112949 98.8024082,121.112949 L8.68008247,121.112949 C6.3299134,121.112949 4.29505979,120.255844 2.57863918,118.545625 C0.859101031,116.834076 0,114.807102 0,112.466476 L0,26.0159455 C0,23.6748764 0.859101031,21.6483455 2.57863918,19.9367964 C4.29505979,18.2256909 6.3299134,17.3699164 8.68008247,17.3699164 L17.3597196,17.3699164 L17.3597196,10.8861709 C17.3597196,7.91425091 18.4205691,5.37132727 20.5444948,3.25385091 C22.668866,1.13770545 25.2234557,0.0796327273 28.2078186,0.0796327273 L32.5469691,0.0796327273 C35.5291052,0.0796327273 38.0836948,1.13770545 40.208066,3.25385091 C42.3319918,5.37132727 43.3955134,7.91425091 43.3955134,10.8861709 L43.3955134,17.3699164 L64.086532,17.3699164 L64.086532,10.8861709 C64.086532,7.91425091 65.1487175,5.37132727 67.2744247,3.25385091 C69.3983505,1.13770545 71.9524948,0.0796327273 74.9350763,0.0796327273 L79.2737814,0.0796327273 C82.2585897,0.0796327273 84.8105072,1.13770545 86.9371052,3.25385091 C89.0601402,5.37132727 90.1218804,7.91425091 90.1218804,10.8861709 L90.1218804,17.3699164 L98.8024082,17.3699164 C101.152132,17.3699164 103.185204,18.2256909 104.903406,19.9367964 C106.621163,21.6483455 107.480709,23.6748764 107.480709,26.0159455 Z" id="Fill-10" fill="#E1E0E1"></path>
                </g>
            </g>
        </g>
    </g>
</svg>