<?xml version="1.0" encoding="UTF-8"?>
<svg width="512px" height="512px" viewBox="0 0 512 512" version="1.1" xmlns="http://www.w3.org/2000/svg" xmlns:xlink="http://www.w3.org/1999/xlink">
    <!-- Generator: Sketch 56.3 (81716) - https://sketch.com -->
    <title>Group</title>
    <desc>Created with Sketch.</desc>
    <defs>
        <linearGradient x1="50%" y1="0%" x2="50%" y2="100%" id="linearGradient-1">
            <stop stop-color="#C8C8C8" offset="0%"></stop>
            <stop stop-color="#979797" offset="100%"></stop>
        </linearGradient>
        <path d="M221.002666,462.324463 C232.068722,464.125274 243.42503,465.061475 255,465.061475 C284.172492,465.061475 311.956056,459.11477 337.204606,448.367445 C334.632003,448.696925 332.829154,448.506863 332.006963,447.808693 C328.206662,444.581638 317.939679,437.411913 302.934162,423.959896 C297.383662,418.984031 287.621152,409.556399 273.646631,395.676999 C264.113832,411.310084 256.477443,423.085103 250.737464,431.002058 C245.476879,438.2578 235.56528,448.698602 221.002666,462.324463 Z M112.795009,409.60932 C127.727843,399.997791 141.996281,388.641798 155.600323,375.541342 C169.815444,361.852428 185.363355,343.625541 202.244056,320.860681 C178.305984,295.264031 161.094218,275.374603 150.60876,261.192397 C128.444172,231.213472 119.418737,201.581272 118.77819,186.078633 C118.129605,170.381447 119.851089,153.837347 136.677978,131.232506 C147.895903,116.162611 166.577858,101.332377 192.723841,86.7418033 C199.531137,120.020074 207.591703,145.937855 216.905541,164.495146 C226.219378,183.052438 243.62944,208.815915 269.135727,241.785578 C288.944799,216.112413 303.37253,198.582583 312.41892,189.196088 C329.817546,171.143349 346.899681,158.926501 359.683151,150.062162 C382.103966,134.515077 403.758431,128.193395 424.646546,131.097116 C386.432239,78.8635171 324.677923,44.9385246 255,44.9385246 C138.986251,44.9385246 44.9385246,138.986251 44.9385246,255 C44.9385246,316.16234 71.0780419,371.219469 112.795009,409.60932 Z M460.296702,210.305598 C440.979373,216.510523 418.102272,232.208811 391.665398,257.400463 C364.531992,283.25584 346.995861,303.562873 339.057004,318.321563 C356.06148,336.483579 373.597612,351.694648 391.665398,363.95477 C406.394096,373.949112 416.627727,379.951262 422.366291,381.961219 C449.159148,346.6962 465.061475,302.705194 465.061475,255 C465.061475,239.662422 463.417698,224.708769 460.296702,210.305598 Z M255,488.053279 C126.288228,488.053279 21.9467213,383.711772 21.9467213,255 C21.9467213,126.288228 126.288228,21.9467213 255,21.9467213 C383.711772,21.9467213 488.053279,126.288228 488.053279,255 C488.053279,383.711772 383.711772,488.053279 255,488.053279 Z" id="path-2"></path>
        <filter x="-1.1%" y="-1.1%" width="104.3%" height="104.3%" filterUnits="objectBoundingBox" id="filter-3">
            <feOffset dx="6" dy="6" in="SourceAlpha" result="shadowOffsetOuter1"></feOffset>
            <feGaussianBlur stdDeviation="2" in="shadowOffsetOuter1" result="shadowBlurOuter1"></feGaussianBlur>
            <feColorMatrix values="0 0 0 0 0   0 0 0 0 0   0 0 0 0 0  0 0 0 0.5 0" type="matrix" in="shadowBlurOuter1"></feColorMatrix>
        </filter>
    </defs>
    <g id="Page-1" stroke="none" stroke-width="1" fill="none" fill-rule="evenodd">
        <g id="Group" transform="translate(1.000000, 1.000000)">
            <path d="M106.211584,462.115346 L18.3995778,482.731397 L42.5383623,396.063973 C15.6613919,355.664439 0,307.161176 0,255 C0,114.167389 114.167389,0 255,0 C395.832611,0 510,114.167389 510,255 C510,395.832611 395.832611,510 255,510 C199.470243,510 148.086114,492.250458 106.211584,462.115346 Z" id="Combined-Shape" stroke="#000000" fill="#000000"></path>
            <circle id="Oval-34-Copy" stroke="url(#linearGradient-1)" fill="#4F81BD" cx="255" cy="255" r="210.061475"></circle>
            <g id="Combined-Shape">
                <use fill="black" fill-opacity="1" filter="url(#filter-3)" xlink:href="#path-2"></use>
                <use fill="#FFFFFF" fill-rule="evenodd" xlink:href="#path-2"></use>
            </g>
        </g>
    </g>
</svg>