<?xml version="1.0" encoding="UTF-8"?>
<svg width="1024px" height="1024px" viewBox="0 0 1024 1024" version="1.1" xmlns="http://www.w3.org/2000/svg" xmlns:xlink="http://www.w3.org/1999/xlink">
    <!-- Generator: Sketch 56.3 (81716) - https://sketch.com -->
    <title>document</title>
    <desc>Created with Sketch.</desc>
    <defs>
        <path d="M325.272283,375 C315.331189,375 307.250305,367.396985 307.250305,358 C307.250305,348.624372 315.331189,341 325.272283,341 L562.561661,341 C572.514089,341 580.583639,348.624372 580.583639,358 C580.583639,367.396985 572.514089,375 562.561661,375 L325.272283,375 Z M325.272283,546 C315.464646,546 307.250305,538.388697 307.250305,529 C307.250305,519.621978 315.464646,512 325.272283,512 L733.770452,512 C743.578089,512 751.79243,519.621978 751.79243,529 C751.79243,538.388697 743.578089,546 733.770452,546 L325.272283,546 Z M325.272283,751 C315.464646,751 307.250305,743.399372 307.250305,734 C307.250305,724.600628 315.464646,717 325.272283,717 L733.770452,717 C743.578089,717 751.79243,724.600628 751.79243,734 C751.79243,743.399372 743.578089,751 733.770452,751 L325.272283,751 Z M232.15873,1024 L791.84127,1024 C863.538744,1024 922,966.633244 922,896 L922,567 L922,287 C922,270.222222 912.884637,248.615822 900.974359,237 L680.705739,21 C668.625369,8.95431111 646.579179,0 629.643468,0 L344.295482,0 L232.15873,0 C160.461256,0 102,57.3667556 102,128 L102,896 C102,966.633244 160.472853,1024 232.15873,1024 Z M670.693529,62 L858.923077,247 L707.738706,247 C687.457181,247 670.705098,230.533317 670.693529,210 L670.693529,62 L670.693529,62 Z M139.045177,128 C139.045177,77.1384023 180.930935,36 232.15873,36 L344.295482,36 L629.643468,36 C630.614484,36 631.947687,36.1821291 633.648352,36 L633.648352,210 C633.338856,250.308993 666.692115,283.069458 707.738706,283 L884.954823,283 C884.780927,284.435426 884.954823,285.733096 884.954823,287 L884.954823,567 L884.954823,896 C884.954823,946.861598 843.080658,988 791.84127,988 L232.15873,988 C180.954121,988 139.05677,946.872981 139.045177,896 L139.045177,128 L139.045177,128 Z" id="path-1"></path>
    </defs>
    <g id="Symbols" stroke="none" stroke-width="1" fill="none" fill-rule="evenodd">
        <g id="document">
            <mask id="mask-2" fill="white">
                <use xlink:href="#path-1"></use>
            </mask>
            <use id="Shape" fill="#000000" fill-rule="nonzero" xlink:href="#path-1"></use>
            <g id="null-mask" mask="url(#mask-2)"></g>
        </g>
    </g>
</svg>