<?xml version="1.0"?>
<svg xmlns="http://www.w3.org/2000/svg" viewBox="0 0 50 50">
    <path d="M 25 3 C 23.895431 3 23 3.8954305 23 5 C 23 6.1045695 23.895431 7 25 7 C 26.104569 7 27 6.1045695 27 5 C 27 3.8954305 26.104569 3 25 3 z M 25 9 C 23.895431 9 23 9.8954305 23 11 C 23 12.104569 23.895431 13 25 13 C 26.104569 13 27 12.104569 27 11 C 27 9.8954305 26.104569 9 25 9 z M 24.78125 14.96875 A 2.0002 2.0002 0 0 0 23 17 L 23 34.1875 L 19.40625 30.59375 A 2.0002 2.0002 0 0 0 17.96875 29.96875 A 2.0002 2.0002 0 0 0 16.59375 33.40625 L 23.34375 40.125 A 2.0002 2.0002 0 0 0 23.4375 40.28125 L 23.59375 40.40625 A 2.0002 2.0002 0 0 0 26.6875 40.09375 L 33.40625 33.40625 A 2.0002 2.0002 0 1 0 30.59375 30.59375 L 27 34.1875 L 27 17 A 2.0002 2.0002 0 0 0 24.96875 14.96875 A 2.0002 2.0002 0 0 0 24.78125 14.96875 z M 2 33 L 2 44.90625 C 2 46.58972 3.4102798 48 5.09375 48 L 44.90625 48 C 46.58972 48 48 46.58972 48 44.90625 L 48 33 L 44 33 L 44 44 L 6 44 L 6 33 L 2 33 z"/>
</svg>
