<?xml version="1.0" encoding="UTF-8"?>
<svg width="1024px" height="1024px" viewBox="0 0 1024 1024" version="1.1" xmlns="http://www.w3.org/2000/svg" xmlns:xlink="http://www.w3.org/1999/xlink">
    <!-- Generator: Sketch 56.3 (81716) - https://sketch.com -->
    <title>europe</title>
    <desc>Created with Sketch.</desc>
    <defs>
        <path d="M507,100 L525,42 L544,100 L604,100 L556,137 L574,194 L525,159 L477,194 L495,137 L446,100 L507,100 Z M481,888 L499,830 L518,888 L578,888 L530,925 L548,982 L499,947 L451,982 L469,925 L420,888 L481,888 Z M770,205 L788,147 L807,205 L867,205 L819,242 L837,299 L788,264 L740,299 L758,242 L709,205 L770,205 Z M770,757 L788,699 L807,757 L867,757 L819,794 L837,851 L788,816 L740,851 L758,794 L709,757 L770,757 Z M219,205 L237,147 L256,205 L316,205 L268,242 L286,299 L237,264 L189,299 L207,242 L158,205 L219,205 Z M61,494 L79,436 L98,494 L158,494 L110,531 L128,588 L79,553 L31,588 L49,531 L0,494 L61,494 Z M927,494 L945,436 L964,494 L1024,494 L976,531 L994,588 L945,553 L897,588 L915,531 L866,494 L927,494 Z M219,757 L237,699 L256,757 L316,757 L268,794 L286,851 L237,816 L189,851 L207,794 L158,757 L219,757 Z" id="path-1"></path>
    </defs>
    <g id="Symbols" stroke="none" stroke-width="1" fill="none" fill-rule="evenodd">
        <g id="europe">
            <mask id="mask-2" fill="white">
                <use xlink:href="#path-1"></use>
            </mask>
            <use id="Path-6" fill="#000000" fill-rule="nonzero" xlink:href="#path-1"></use>
            <g id="null-mask" mask="url(#mask-2)"></g>
        </g>
    </g>
</svg>