<?xml version="1.0" encoding="UTF-8"?>
<svg width="1024px" height="1024px" viewBox="0 0 1024 1024" version="1.1" xmlns="http://www.w3.org/2000/svg" xmlns:xlink="http://www.w3.org/1999/xlink">
    <!-- Generator: Sketch 56.3 (81716) - https://sketch.com -->
    <title>faq &amp; support</title>
    <desc>Created with Sketch.</desc>
    <g id="Symbols" stroke="none" stroke-width="1" fill="none" fill-rule="evenodd">
        <g id="faq-&amp;-support" transform="translate(0.000000, 11.000000)" fill="#000000" fill-rule="nonzero">
            <g id="Unknown-3" transform="translate(2.000000, 0.000000)">
                <path d="M940.508393,669.406235 C940.508393,658.601439 943.455156,648.28777 948.61199,639.447482 C950.085372,636.746283 952.04988,634.290647 953.768825,631.835012 C996.496882,567.988489 1021.54649,491.618225 1021.54649,410.091127 C1022.28106,183.681535 831.232614,0 595.00048,0 C388.972662,0 217.078177,140.216787 176.805755,326.353957 C170.91223,353.611511 167.719904,381.360192 167.719904,410.336691 C167.719904,636.991847 351.401439,825.584652 587.633573,825.584652 C625.204796,825.584652 675.790887,814.288729 703.539568,806.676259 C731.288249,799.063789 758.791367,788.995683 765.91271,786.294484 C773.034053,783.593285 780.892086,782.119904 788.75012,782.119904 C797.590408,782.119904 805.939568,783.838849 813.552038,787.031175 L952.786571,836.389448 C952.786571,836.389448 958.680096,838.845084 962.363549,838.845084 C973.168345,838.845084 982.008633,830.25036 982.008633,819.2 C982.008633,816.744365 980.780815,812.569784 980.780815,812.569784 L940.508393,669.406235 Z M827.794724,750.442206 C815.516547,745.530935 802.501679,742.584173 788.995683,742.584173 C778.927578,742.584173 764.193765,744.548681 759.03693,746.513189 C753.880096,748.477698 731.288249,755.844604 731.288249,755.844604 C720.97458,759.282494 706.977458,765.176019 693.96259,768.368345 C659.583693,777.208633 620.047962,786.048921 587.879137,786.048921 C484.98801,786.048921 388.727098,746.513189 317.022542,674.808633 C282.398082,640.184173 255.386091,599.911751 236.477698,555.219185 C217.078177,509.053237 207.255635,460.186091 207.255635,410.091127 C207.255635,385.043645 209.956835,359.505036 215.359233,334.457554 C233.039808,252.439329 280.433573,177.78801 348.454676,124.009592 C382.342446,97.2431655 420.65036,76.1247002 461.659472,61.6364508 C504.38753,46.6570743 549.325659,39.0446043 595.246043,39.0446043 C649.270024,39.0446043 701.57506,49.3582734 750.68777,69.9856115 C798.081535,89.876259 840.072902,118.116067 875.92518,153.968345 C944.682974,223.46283 982.254197,314.321343 982.254197,410.091127 L982.254197,410.091127 L982.254197,410.091127 C982.254197,481.058993 961.135731,550.06235 921.6,609.488729 C921.354436,609.734293 921.108873,610.22542 920.863309,610.470983 C919.144365,612.681055 916.934293,615.873381 914.724221,619.802398 C906.129496,634.781775 901.463789,650.252278 901.463789,669.160671 C901.463789,688.069065 921.6,748.968825 933.38705,787.522302 L827.794724,750.442206 Z" id="Shape"></path>
                <path d="M631.835012,853.82446 C616.364508,868.803837 602.121823,879.36307 602.121823,879.36307 C540.976499,928.966906 463.623981,956.470024 382.342446,956.470024 C336.176499,956.470024 291.238369,947.629736 248.510312,930.194724 C247.528058,929.703597 246.545803,929.458034 246.054676,929.21247 L246.054676,929.21247 C244.581295,928.475779 243.107914,927.984652 241.634532,927.739089 C224.445084,922.091127 205.536691,922.827818 189.083933,929.458034 L84.7194245,970.71271 L107.556835,851.614388 C107.802398,850.386571 107.802398,849.158753 107.802398,847.930935 C107.802398,835.407194 104.610072,823.37458 98.2254197,812.815348 L97.2431655,811.096403 C96.0153477,809.131894 94.78753,806.676259 93.0685851,804.466187 C57.7074341,751.178897 39.0446043,689.296882 39.0446043,625.45036 C39.0446043,551.781295 65.0743405,471.236451 131.867626,397.321823 C133.341007,386.76259 135.059952,376.203357 137.515588,365.889688 C139.971223,354.839329 142.917986,343.788969 146.110312,332.984173 L126.465228,350.419185 C46.1659472,420.404796 0,520.594724 0,624.959233 C0,696.909353 21.1184652,766.403837 60.8997602,826.321343 C61.1453237,826.566906 61.3908873,826.81247 61.6364508,827.303597 C62.1275779,827.794724 63.1098321,829.513669 63.6009592,830.741487 C64.0920863,831.478177 64.3376499,832.214868 64.828777,832.705995 C67.2844125,836.880576 68.5122302,841.055156 68.7577938,845.966427 L39.5357314,998.215827 C38.0623501,1005.33717 40.7635492,1012.45851 46.1659472,1017.12422 C49.8494005,1020.07098 54.2695444,1021.54436 58.6896882,1021.54436 C61.1453237,1021.54436 63.6009592,1021.05324 65.8110312,1020.07098 L203.572182,965.801439 C207.992326,964.082494 212.658034,963.10024 217.569305,963.10024 C221.989448,963.10024 226.409592,963.83693 230.584173,965.310312 C231.0753,965.555875 231.81199,965.801439 232.303118,965.801439 L232.303118,965.801439 C232.548681,966.047002 232.794245,966.047002 233.039808,966.047002 C280.433573,985.692086 330.774101,995.514628 382.096882,995.514628 C496.529496,995.514628 604.086331,946.156355 677.018705,860.209113 C677.018705,860.209113 684.876739,849.404317 693.96259,836.635012 C684.631175,839.581775 674.317506,842.774101 664.003837,845.720863 C655.163549,848.422062 644.113189,851.123261 631.835012,853.82446 Z" id="Shape"></path>
            </g>
        </g>
    </g>
</svg>