<?xml version="1.0" encoding="UTF-8"?>
<svg width="1024px" height="1024px" viewBox="0 0 1024 1024" version="1.1" xmlns="http://www.w3.org/2000/svg" xmlns:xlink="http://www.w3.org/1999/xlink">
    <!-- Generator: Sketch 56.3 (81716) - https://sketch.com -->
    <title>github</title>
    <desc>Created with Sketch.</desc>
    <g id="Symbols" stroke="none" stroke-width="1" fill="none" fill-rule="evenodd">
        <g id="github" fill="#000000">
            <path d="M0,524.989177 C0,756.899681 146.689831,953.681997 350.144572,1023.10045 C375.761073,1027.93461 385.096166,1011.72408 385.096166,997.801713 C385.096166,985.329595 384.656128,952.328433 384.404678,908.530994 C241.989502,940.243047 211.941189,838.145704 211.941189,838.145704 C188.650603,777.493179 155.081985,761.347104 155.081985,761.347104 C108.595107,728.764902 158.60229,729.441684 158.60229,729.441684 C209.992449,733.147869 237.023359,783.551986 237.023359,783.551986 C282.724454,863.766723 356.870868,840.595009 386.039105,827.15606 C390.690936,793.220295 403.923509,770.113037 418.539059,756.964137 C304.852083,743.718554 185.318886,698.696461 185.318886,497.531179 C185.318886,440.198107 205.277756,393.339037 238.02916,356.63169 C232.780134,343.353879 215.210043,289.984814 243.058166,217.730318 C243.058166,217.730318 286.056171,203.582359 383.838915,271.518344 C424.699592,259.884145 468.483379,254.050932 512.015716,253.857566 C555.516621,254.050932 599.300408,259.884145 640.223948,271.518344 C737.943829,203.582359 780.878971,217.730318 780.878971,217.730318 C808.789957,289.984814 791.219866,343.353879 785.97084,356.63169 C818.785107,393.339037 838.58682,440.198107 838.58682,497.531179 C838.58682,699.179877 718.896467,743.557415 604.832315,756.577404 C623.21962,772.787936 639.563891,804.822266 639.563891,853.776137 C639.563891,923.96806 638.966696,980.592123 638.966696,997.801713 C638.966696,1011.85299 648.176064,1028.1602 674.169741,1023.036 C877.435894,953.48863 1024,756.867454 1024,524.989177 C1024,235.036591 794.74017,0 511.952853,0 C229.25983,0 0,235.036591 0,524.989177 Z" id="Shape"></path>
        </g>
    </g>
</svg>