<?xml version="1.0" encoding="UTF-8"?>
<svg width="1024px" height="1024px" viewBox="0 0 1024 1024" version="1.1" xmlns="http://www.w3.org/2000/svg" xmlns:xlink="http://www.w3.org/1999/xlink">
    <!-- Generator: Sketch 56.3 (81716) - https://sketch.com -->
    <title>government</title>
    <desc>Created with Sketch.</desc>
    <defs>
        <path d="M996,265 L557,41 C532.354844,28.9121959 491.656533,28.9121959 467,41 L28,265 C11.8670222,272.888526 0,292.245588 0,310 L0,353 C0,376.725179 19.1146667,395.843406 43,396 L116,396 L116,462 C115.689244,477.331864 128.045511,489.671708 143,490 L148,490 L148,726 L143,726 C128.045511,726.175893 115.689244,738.515736 116,754 L116,820 L72,820 C32.1080889,820.061059 0,852.144652 0,892 L0,920 C0,959.905034 32.1080889,992 72,992 L952,992 C991.891911,992 1024,959.905034 1024,920 L1024,892 C1024,852.144652 991.891911,820.061059 952,820 L908,820 L908,754 C908.310756,738.515736 895.954489,726.175893 881,726 L876,726 L876,490 L881,490 C895.954489,489.671708 908.310756,477.331864 908,462 L908,396 L981,396 C1004.88533,395.843406 1024,376.725179 1024,353 L1024,310 C1024,292.245588 1012.13298,272.888526 996,265 Z M952,853 C973.704706,853 991,870.29869 991,892 L991,920 C991,941.689929 973.704706,959 952,959 L72,959 C50.2952942,959 33,941.689929 33,920 L33,892 C33,870.29869 50.2952942,853 72,853 L952,853 Z M154,457 L149,457 L149,396 L287,396 L287,455 L282,455 C267.340846,454.973512 255.014147,467.329759 255,482 L255,730 C255.014147,745.055442 267.340846,757.388954 282,757 L287,757 L287,820 L149,820 L149,759 L154,759 C168.647804,759.162252 180.985853,746.82874 181,732 L181,484 C180.997203,469.114424 168.659154,456.780912 154,457 Z M437,488 L442,488 L442,724 L437,724 C422.28153,724.378338 409.910496,736.71185 410,752 L410,820 L320,820 L320,752 C320.089504,736.71185 307.741253,724.378338 293,724 L288,724 L288,488 L293,488 C307.741253,487.984129 320.089504,475.650617 320,460 L320,396 L410,396 L410,460 C409.910496,475.650617 422.28153,487.984129 437,488 Z M448,455 L443,455 L443,396 L581,396 L581,457 L577,457 C561.352196,456.779282 549.048199,469.112463 549,484 L549,732 C549.048199,746.830702 561.352196,759.163883 577,759 L581,759 L581,820 L443,820 L443,757 L448,757 C462.681856,757.390633 474.985853,745.057452 475,730 L475,482 C474.985853,467.327846 462.681856,454.971931 448,455 Z M731,490 L736,490 L736,726 L731,726 C716.270138,726.163003 703.921888,738.496515 704,754 L704,820 L614,820 L614,754 C614.066721,738.496515 601.695688,726.163003 586,726 L582,726 L582,490 L586,490 C601.695688,489.780161 614.066721,477.446649 614,462 L614,396 L704,396 L704,462 C703.921888,477.446649 716.270138,489.780161 731,490 Z M742,457 L737,457 L737,396 L875,396 L875,457 L870,457 C855.339228,456.779282 843.011516,469.112463 843,484 L843,732 C843.011516,746.830702 855.339228,759.163883 870,759 L875,759 L875,820 L737,820 L737,759 L742,759 C756.660772,759.163883 768.977133,746.830702 769,732 L769,484 C768.977133,469.112463 756.660772,456.779282 742,457 Z M991,353 C991,358.69121 986.710312,363 981,363 L43,363 C37.2896881,363 33,358.69121 33,353 L33,310 C33,304.882497 37.9268832,296.867465 43,295 L482,71 C489.811958,67.182817 500.621517,65 512,65 C523.378483,65 534.19942,67.182817 542,71 L981,295 C986.073117,296.867465 990.988622,304.871128 991,310 L991,353 L991,353 Z M512,136 C464.356203,136 426,174.334841 426,221 C426,268.631043 464.344834,307 512,307 C558.655166,307 597,268.631043 597,221 C597,174.334841 558.643797,136 512,136 Z M512,274 C482.558202,274 459,250.437859 459,221 C459,192.550764 482.558202,169 512,169 C540.453167,169 564,192.550764 564,221 C564,250.426482 540.453167,274 512,274 Z" id="path-1"></path>
    </defs>
    <g id="Symbols" stroke="none" stroke-width="1" fill="none" fill-rule="evenodd">
        <g id="government">
            <mask id="mask-2" fill="white">
                <use xlink:href="#path-1"></use>
            </mask>
            <use id="Shape" fill="#000000" fill-rule="nonzero" xlink:href="#path-1"></use>
            <g id="null-mask" mask="url(#mask-2)"></g>
        </g>
    </g>
</svg>