<?xml version="1.0" encoding="UTF-8"?>
<svg width="1024px" height="1024px" viewBox="0 0 1024 1024" version="1.1" xmlns="http://www.w3.org/2000/svg" xmlns:xlink="http://www.w3.org/1999/xlink">
    <!-- Generator: Sketch 56.3 (81716) - https://sketch.com -->
    <title>hammer</title>
    <desc>Created with Sketch.</desc>
    <defs>
        <path d="M140.164086,383.699913 C120.184531,374.824951 98.6462071,377.733839 85.3113334,391.069097 L85.3113334,391.069097 L18.4435411,458.110424 C6.55365805,470.031163 0,485.933088 0,502.861679 C0,519.824492 6.55365805,535.703601 18.4435411,547.635748 L107.58922,637.001369 C119.900084,649.344183 136.056672,655.515589 152.236015,655.515589 C168.403981,655.515589 184.571946,649.344183 196.871433,637.001369 L263.739225,569.97145 C277.074099,556.60197 279.96408,535.00775 271.123468,514.953529 C265.115948,501.355901 267.801128,489.526421 279.543098,477.753977 C289.737678,467.532941 301.889252,462.399609 316.248135,462.810275 C342.815481,463.380646 375.265191,482.533681 405.314168,515.398418 L825.851937,972.12815 C839.050276,986.490075 856.868034,994.612148 876.028382,994.977185 C876.506253,995 876.972746,995 877.450617,995 C896.09896,995 913.677782,987.642223 927.080923,974.192891 L1003.25582,897.797491 C1017.0003,884.017344 1024.36178,865.833939 1023.98631,846.658089 C1023.59947,827.436609 1015.52117,809.572611 1001.21918,796.34002 L545.592033,374.688062 C476.073195,310.783772 523.268635,231.388224 528.855173,222.581707 C582.365336,138.668826 679.509663,129.976382 751.508879,137.471048 C779.293658,140.345715 817.102349,141.315344 823.678763,116.207643 C829.91384,92.4688306 801.673945,76.7722396 776.392299,65.7526851 C649.176239,10.3469129 467.573919,7.78024645 348.697844,126.999049 L193.082599,283.018145 C179.747725,296.387625 176.857744,317.95903 185.721112,338.024658 C191.717254,351.622286 189.043452,363.451767 177.290104,375.22421 C165.525377,387.019468 153.715139,389.665986 140.164086,383.699913 Z M539.959983,419.781539 L976.22198,823.501054 C983.071463,829.854979 986.939942,838.34209 987.133366,847.39957 C987.304034,856.445643 983.78827,865.058235 977.177722,871.663123 L901.014203,948.058523 C894.415034,954.663411 885.631311,958.062818 876.779322,958.028852 C867.733908,957.846078 859.3029,953.96756 852.942666,947.088894 L450.256788,509.706122 L539.959983,419.781539 Z M203.356823,401.381392 C226.01018,378.692061 231.721875,350.869397 219.445144,323.080956 C217.055789,317.639623 216.919255,311.411179 219.160697,309.16392 L374.775942,153.144825 C481.40942,46.2232056 645.922166,49.2575757 761.703458,99.666904 C763.205338,100.328534 764.638951,100.967348 765.992918,101.583348 C762.807112,101.389422 759.234458,101.115645 755.30909,100.704978 C637.297734,88.4420162 548.174811,123.690902 497.782187,202.710005 C472.216094,243.000964 448.322549,327.050733 513.199212,394.331615 L424.997898,482.750421 C389.726474,446.862721 351.712982,426.603168 317.044586,425.861686 C292.809705,425.325538 270.79351,434.24613 253.476379,451.631017 C230.8344,474.320348 225.134083,502.131605 237.399436,529.920046 C239.788791,535.349972 239.913947,541.578416 237.661127,543.837082 L170.793335,610.855594 C160.940092,620.745815 143.509182,620.745815 133.655939,610.855594 L44.5102609,521.478566 C39.5950174,516.539159 36.8757044,509.934271 36.8757044,502.861679 C36.8757044,495.789087 39.5950174,489.184199 44.5102609,484.256199 L111.366675,417.22628 C113.630873,414.979021 119.843195,415.081687 125.247687,417.48865 C152.986955,429.774427 180.714845,424.059316 203.356823,401.381392 Z" id="path-1"></path>
    </defs>
    <g id="Symbols" stroke="none" stroke-width="1" fill="none" fill-rule="evenodd">
        <g id="hammer">
            <mask id="mask-2" fill="white">
                <use xlink:href="#path-1"></use>
            </mask>
            <use id="159" fill="#000000" fill-rule="nonzero" xlink:href="#path-1"></use>
        </g>
    </g>
</svg>