<?xml version="1.0" encoding="UTF-8"?>
<svg width="1024px" height="1024px" viewBox="0 0 1024 1024" version="1.1" xmlns="http://www.w3.org/2000/svg" xmlns:xlink="http://www.w3.org/1999/xlink">
    <!-- Generator: Sketch 56.3 (81716) - https://sketch.com -->
    <title>heard-filled</title>
    <desc>Created with Sketch.</desc>
    <g id="Symbols" stroke="none" stroke-width="1" fill="none" fill-rule="evenodd">
        <g id="filled/heard" fill="#000000" fill-rule="nonzero">
            <path d="M776,74 C707.959338,74 639.624711,100.059704 588,146 C543.118832,185.359386 514.856559,252.319919 513,256 C512.876834,257.289602 512.433103,258.410328 512,259 C511.488752,258.195239 510.919865,256.791502 510,255 C509.14494,252.319919 480.894044,185.359386 436,146 C384.376788,100.059704 316.064916,74 248,74 C142.031207,74 47.8463843,145.556641 14,252 C-45.9174623,440.499961 88.8858449,672.286423 375,872 C413.264836,899.159805 480.950933,940.807785 484,943 C491.589108,947.373653 501.601507,950 512,950 C522.377236,950 532.389636,947.373653 540,943 C543.039188,940.819105 610.70253,899.159805 649,872 C935.092899,672.286423 1069.91896,440.499961 1010,252 C976.166492,145.556641 881.98167,74 776,74 Z" id="90"></path>
        </g>
    </g>
</svg>