<?xml version="1.0" encoding="UTF-8"?>
<svg width="1024px" height="1024px" viewBox="0 0 1024 1024" version="1.1" xmlns="http://www.w3.org/2000/svg" xmlns:xlink="http://www.w3.org/1999/xlink">
    <!-- Generator: Sketch 56.3 (81716) - https://sketch.com -->
    <title>heart</title>
    <desc>Created with Sketch.</desc>
    <defs>
        <path d="M776,74 C707.959338,74 639.624711,100.059704 588,146 C543.118832,185.359386 514.856559,252.319919 513,256 C512.876834,257.289602 512.433103,258.410328 512,259 C511.488752,258.195239 510.919865,256.791502 510,255 C509.14494,252.319919 480.894044,185.359386 436,146 C384.376788,100.059704 316.064916,74 248,74 C142.031207,74 47.8463843,145.556641 14,252 C-45.9174623,440.499961 88.8858449,672.286423 375,872 C413.264836,899.159805 480.950933,940.807785 484,943 C491.589108,947.373653 501.601507,950 512,950 C522.377236,950 532.389636,947.373653 540,943 C543.039188,940.819105 610.70253,899.159805 649,872 C935.092899,672.286423 1069.91896,440.499961 1010,252 C976.166492,145.556641 881.98167,74 776,74 Z M629,843 C590.797498,869.101255 521.831586,911.543362 521,912 C519.532723,912.947155 516.289276,914 512,914 C507.708369,914 504.453542,912.947155 503,912 C502.166059,911.543362 433.200147,869.101255 395,843 C123.194959,652.328391 -6.52013345,435.600811 48,263 C77.4680562,171.449922 157.803101,110 248,110 C307.274765,110 366.828992,132.743716 412,172 C450.441625,206.635323 476.514382,268.085245 477,268 C486.882029,296.953576 503.190305,301.266844 512,301 C520.80734,301.266844 537.126996,296.953576 547,269 C547.358078,268.345626 573.317029,206.85042 612,172 C657.157272,132.755037 716.745641,110.011321 776,110 C866.205925,110.011321 946.54097,171.461243 976,263 C1030.52916,435.600811 900.779925,652.339712 629,843 Z" id="path-1"></path>
    </defs>
    <g id="Symbols" stroke="none" stroke-width="1" fill="none" fill-rule="evenodd">
        <g id="heart">
            <mask id="mask-2" fill="white">
                <use xlink:href="#path-1"></use>
            </mask>
            <use id="90" fill="#000000" fill-rule="nonzero" xlink:href="#path-1"></use>
            <g id="null-mask" mask="url(#mask-2)"></g>
        </g>
    </g>
</svg>