<?xml version="1.0" encoding="UTF-8"?>
<svg width="1024px" height="1024px" viewBox="0 0 1024 1024" version="1.1" xmlns="http://www.w3.org/2000/svg" xmlns:xlink="http://www.w3.org/1999/xlink">
    <!-- Generator: Sketch 56.3 (81716) - https://sketch.com -->
    <title>house</title>
    <desc>Created with Sketch.</desc>
    <defs>
        <path d="M991,379 L575,55 C558.114133,41.324576 535.688533,34 512,34 C488.288711,34 465.897244,41.324576 449,55 L33,379 C14.1880889,394.149744 0,423.276646 0,447 L0,491 C0,519.547398 22.8920889,542.538111 51,543 L122,543 C130.548622,542.538111 137.193244,549.21136 137,557 L137,862 C137.193244,932.386097 194.56,990 265,990 L759,990 C829.44,990 886.806756,932.386097 887,862 L887,557 C886.806756,549.21136 893.451378,542.538111 902,543 L973,543 C1001.10791,542.538111 1024,519.535972 1024,491 L1024,447 C1024,423.276646 1009.81191,394.149744 991,379 Z M620,954 L404,954 L404,741 C404,680.714433 452.447111,632 512,632 C571.552889,632 620,680.714433 620,741 L620,954 Z M988,491 C988,498.991138 981.352369,505.673955 973,506 L902,506 C873.635698,505.673955 850.733242,528.646851 851,557 L851,861 C850.733242,911.715043 809.618098,953 759,953 L656,953 L656,740 C656.381089,659.869954 591.612215,594.858143 512,595 C432.365019,594.858143 367.596145,659.858531 368,740 L368,953 L265,953 C214.393285,952.988576 173.255375,911.715043 173,861 L173,557 C173.255375,528.624004 150.352919,505.662531 122,506 L51,506 C42.6476313,505.662531 36,498.979714 36,491 L36,447 C36,434.047868 45.0494297,415.473065 55,408 L471,83 C481.630342,74.7065307 496.530598,70 512,70 C527.469402,70 542.369658,74.7065307 553,83 L969,408 C978.927804,415.473065 988,434.047868 988,447 L988,491 L988,491 Z" id="path-1"></path>
    </defs>
    <g id="Symbols" stroke="none" stroke-width="1" fill="none" fill-rule="evenodd">
        <g id="house">
            <mask id="mask-2" fill="white">
                <use xlink:href="#path-1"></use>
            </mask>
            <use id="135" fill="#000000" fill-rule="nonzero" xlink:href="#path-1"></use>
        </g>
    </g>
</svg>