<?xml version="1.0" encoding="UTF-8"?>
<svg width="512px" height="512px" viewBox="0 0 512 512" version="1.1" xmlns="http://www.w3.org/2000/svg" xmlns:xlink="http://www.w3.org/1999/xlink">
    <!-- Generator: Sketch 56.3 (81716) - https://sketch.com -->
    <title>iOS_icon2</title>
    <desc>Created with Sketch.</desc>
    <defs>
        <linearGradient x1="0%" y1="0%" x2="100%" y2="100%" id="linearGradient-1">
            <stop stop-color="#5AAFF2" offset="0%"></stop>
            <stop stop-color="#3E86BE" offset="100%"></stop>
        </linearGradient>
        <path d="M223.469218,454.381055 C234.057915,456.104184 244.924343,457 256,457 C283.91407,457 310.499128,451.309819 334.658525,441.026105 C332.196897,441.341371 330.471818,441.159508 329.685094,440.491456 C326.048728,437.403607 316.224634,430.543164 301.866414,417.67143 C296.555348,412.91021 287.213965,403.88926 273.842267,390.60858 C264.720686,405.567296 257.41371,416.834373 251.921338,424.409812 C246.887681,431.352562 237.40364,441.342976 223.469218,454.381055 Z M119.929342,403.939898 C134.218014,394.742984 147.870951,383.876858 160.888153,371.341519 C174.490072,358.243107 189.367289,340.802478 205.519802,319.019632 C182.614353,294.527151 166.145056,275.495698 156.111912,261.925274 C134.903443,233.239557 126.26734,204.885609 125.654425,190.051711 C125.033818,175.03166 126.681042,159.201226 142.782065,137.571496 C153.51608,123.151675 171.392146,108.961177 196.410264,95 C202.923911,126.842737 210.636767,151.642496 219.548831,169.399277 C228.460895,187.156058 245.119935,211.80817 269.52595,243.355612 C288.480514,218.789916 302.285872,202.016275 310.942025,193.034688 C327.590122,175.760695 343.935381,164.070848 356.167407,155.588893 C377.62105,140.712466 398.341401,134.663484 418.328459,137.441947 C381.762613,87.4615615 322.672208,55 256,55 C144.990765,55 55,144.990765 55,256 C55,314.523965 80.0119303,367.20608 119.929342,403.939898 Z M452.440766,213.233592 C433.956733,219.170853 412.066487,234.191961 386.770028,258.296914 C360.807083,283.036961 344.027412,302.468004 336.431016,316.590045 C352.701965,333.968601 369.481636,348.523506 386.770028,360.25476 C400.863371,369.817974 410.655551,375.561207 416.146569,377.48446 C441.783655,343.740677 457,301.647322 457,256 C457,241.324043 455.427131,227.015449 452.440766,213.233592 Z M256,479 C132.840501,479 33,379.159499 33,256 C33,132.840501 132.840501,33 256,33 C379.159499,33 479,132.840501 479,256 C479,379.159499 379.159499,479 256,479 Z" id="path-2"></path>
        <filter x="-1.1%" y="-1.1%" width="103.1%" height="103.1%" filterUnits="objectBoundingBox" id="filter-3">
            <feOffset dx="2" dy="2" in="SourceAlpha" result="shadowOffsetOuter1"></feOffset>
            <feGaussianBlur stdDeviation="2" in="shadowOffsetOuter1" result="shadowBlurOuter1"></feGaussianBlur>
            <feColorMatrix values="0 0 0 0 0   0 0 0 0 0   0 0 0 0 0  0 0 0 0.5 0" type="matrix" in="shadowBlurOuter1"></feColorMatrix>
        </filter>
    </defs>
    <g id="iOS_icon2" stroke="none" stroke-width="1" fill="none" fill-rule="evenodd">
        <path d="M390,8.72731838e-15 C464,8.72731838e-15 512,48 512,122 L512,390 C512,464 464,512 390,512 L122,512 C48,512 0,464 0,390 L0,122 C0,48 48,8.72731842e-15 122,8.72731842e-15 L390,8.72731838e-15 Z" id="App-Icon-Shape" fill="url(#linearGradient-1)"></path>
        <g id="Combined-Shape">
            <use fill="black" fill-opacity="1" filter="url(#filter-3)" xlink:href="#path-2"></use>
            <use fill="#FFFFFF" fill-rule="evenodd" xlink:href="#path-2"></use>
        </g>
    </g>
</svg>