<?xml version="1.0" encoding="UTF-8"?>
<svg width="1024px" height="1024px" viewBox="0 0 1024 1024" version="1.1" xmlns="http://www.w3.org/2000/svg" xmlns:xlink="http://www.w3.org/1999/xlink">
    <!-- Generator: Sketch 56.3 (81716) - https://sketch.com -->
    <title>image</title>
    <desc>Created with Sketch.</desc>
    <defs>
        <path d="M896,83 L128,83 C57.367393,83 0,140.331873 0,211 L0,814 C0,814.370904 0.0341337126,814.530128 0,815 C0.0455116168,814.90544 0.056889521,815.076037 0,815 C0.659918444,885.236783 57.720108,942 128,942 L896,942 C966.405049,942 1023.55626,885.054813 1024,815 C1023.96587,814.803082 1023.97724,814.689351 1024,815 C1023.97724,814.450516 1024,814.336785 1024,814 L1024,211 C1024.01138,140.331873 966.655363,83 896,83 Z M897,906 L128,906 C80.0353814,906 40.4364583,868.502322 37,821 L260,578 C275.845229,560.743939 297.442573,551 320,551 C343.390978,551 364.976943,560.743939 381,578 L609,827 C612.49297,830.538481 617.374562,832.53957 622,833 C626.648448,832.53957 631.040742,830.947795 635,828 C641.88493,821.021939 642.374227,809.572527 636,802 L581,743 L686,632 C702.182255,614.898408 724.246138,605.222688 748,605 C771.218654,605.222688 793.271158,614.898408 810,632 L988,821 C984.47251,868.559171 944.907724,906 897,906 Z M988,768 L836,607 C812.313752,581.949545 780.873722,568.242119 747,568 C713.71363,568.242119 682.2736,581.938179 659,607 L556,715 L407,553 C384.185238,527.960928 353.0867,514.048914 320,514 C286.586826,514.048914 255.499671,527.972294 232,553 L36,767 L36,211 C36,160.076813 77.1156362,119 128,119 L896,119 C946.872981,119 988,160.076813 988,211 L988,768 L988,768 Z M732,204 C661.416622,204 604,261.416622 604,332 C604,402.571988 661.416622,460 732,460 C802.571988,460 860,402.571988 860,332 C860,261.416622 802.571988,204 732,204 Z M732,423 C681.044075,423 640,381.967285 640,332 C640,281.055435 681.032715,240 732,240 C781.955925,240 823,281.055435 823,332 C823,381.967285 781.955925,423 732,423 Z" id="path-1"></path>
    </defs>
    <g id="Symbols" stroke="none" stroke-width="1" fill="none" fill-rule="evenodd">
        <g id="image">
            <mask id="mask-2" fill="white">
                <use xlink:href="#path-1"></use>
            </mask>
            <use id="Shape" fill="#000000" fill-rule="nonzero" xlink:href="#path-1"></use>
        </g>
    </g>
</svg>