<?xml version="1.0" encoding="UTF-8"?>
<svg width="1024px" height="1024px" viewBox="0 0 1024 1024" version="1.1" xmlns="http://www.w3.org/2000/svg" xmlns:xlink="http://www.w3.org/1999/xlink">
    <!-- Generator: Sketch 56.3 (81716) - https://sketch.com -->
    <title>increase-arrow</title>
    <desc>Created with Sketch.</desc>
    <defs>
        <path d="M108,1024 C98.7268457,1024 91,1015.92714 91,1006 C91,996.050251 98.7268457,988 108,988 L917,988 C926.273154,988 934,996.050251 934,1006 C934,1015.92714 926.273154,1024 917,1024 L108,1024 Z M226,398 C220.964279,398 215.715913,395.44139 212,391 C206.710582,382.557369 208.36137,371.231257 216,365 L612,61 L455,36 C445.756014,34.5295924 439.266711,25.3185975 441,15 C442.090127,5.54338742 450.901917,-1.26820017 460,4.54747351e-13 L648,30 C655.679275,30.7542216 662.134424,34.8252539 667,41 C670.957599,47.3226409 672.790542,54.9870984 672,63 L644,260 C642.370511,268.96647 634.993198,275.425538 627,275 C625.737403,275.425538 624.872162,275.357309 624,275 C614.61451,273.742542 608.102437,264.542918 610,255 L633,89 L236,394 C233.385033,396.86284 229.810224,398 226,398 Z M756,909 L834,909 C866.537784,909 893,881.165577 893,847 L893,346 C893,311.823043 866.537784,284 834,284 L756,284 C723.46222,284 697,311.811664 697,346 L697,847 C696.988637,881.165577 723.450853,909 756,909 Z M732,346 C732,331.561578 743.016813,320 757,320 L834,320 C847.994545,320 859,331.561578 859,346 L859,846 C859,860.427053 847.994545,872 834,872 L757,872 C743.02817,872 732.011358,860.427053 732,846 L732,346 L732,346 Z M551,454 L473,454 C440.468357,454 414,481.814656 414,516 L414,847 C414,881.173967 440.468357,909 473,909 L551,909 C583.531643,909 610,881.173967 610,847 L610,516 C610,481.814656 583.531643,454 551,454 Z M576,847 C576,861.406019 565.012347,873 551,873 L474,873 C459.987653,873 449,861.406019 449,847 L449,516 C449,501.582592 459.987653,490 474,490 L551,490 C565.012347,490 576,501.582592 576,516 L576,847 Z M190,908 L268,908 C300.534714,908 327,880.195676 327,846 L327,685 C327,650.781589 300.534714,623 268,623 L190,623 C157.465286,623 131,650.781589 131,685 L131,846 C131,880.195676 157.465286,908 190,908 Z M166,686 C166,671.580914 177.006439,660 191,660 L268,660 C282.004919,660 293,671.580914 293,686 L293,847 C293,861.407698 282.004919,873 268,873 L191,873 C177.006439,873 166,861.407698 166,847 L166,686 L166,686 Z" id="path-1"></path>
    </defs>
    <g id="Symbols" stroke="none" stroke-width="1" fill="none" fill-rule="evenodd">
        <g id="increase-arrow">
            <mask id="mask-2" fill="white">
                <use xlink:href="#path-1"></use>
            </mask>
            <use id="Shape" fill="#000000" fill-rule="nonzero" xlink:href="#path-1"></use>
            <g id="null-mask" mask="url(#mask-2)"></g>
        </g>
    </g>
</svg>