<?xml version="1.0" encoding="UTF-8"?>
<svg width="1024px" height="1024px" viewBox="0 0 1024 1024" version="1.1" xmlns="http://www.w3.org/2000/svg" xmlns:xlink="http://www.w3.org/1999/xlink">
    <!-- Generator: Sketch 56.3 (81716) - https://sketch.com -->
    <title>info</title>
    <desc>Created with Sketch.</desc>
    <defs>
        <path d="M471.04,757.76 L471.04,409.6 L552.96,409.6 L552.96,757.76 L593.92,757.76 L593.92,778.24 L430.08,778.24 L430.08,757.76 L471.04,757.76 L471.04,757.76 Z M512,1024 C794.769797,1024 1024,794.769805 1024,512 C1024,229.230195 794.769797,0 512,0 C229.230203,0 0,229.230195 0,512 C0,794.769805 229.230203,1024 512,1024 L512,1024 Z M512,983.04 C772.148224,983.04 983.04,772.148222 983.04,512 C983.04,251.851778 772.148224,40.96 512,40.96 C251.851776,40.96 40.96,251.851778 40.96,512 C40.96,772.148222 251.851776,983.04 512,983.04 L512,983.04 Z M430.08,409.6 L430.08,430.08 L471.04,430.08 L471.04,409.6 L430.08,409.6 L430.08,409.6 Z M512,368.64 C545.93237,368.64 573.44,341.132376 573.44,307.2 C573.44,273.267624 545.93237,245.76 512,245.76 C478.06763,245.76 450.56,273.267624 450.56,307.2 C450.56,341.132376 478.06763,368.64 512,368.64 L512,368.64 Z" id="path-1"></path>
    </defs>
    <g id="Symbols" stroke="none" stroke-width="1" fill="none" fill-rule="evenodd">
        <g id="info">
            <mask id="mask-2" fill="white">
                <use xlink:href="#path-1"></use>
            </mask>
            <use id="info-button" fill="#000000" xlink:href="#path-1"></use>
        </g>
    </g>
</svg>