<?xml version="1.0" encoding="UTF-8"?>
<svg width="1024px" height="1024px" viewBox="0 0 1024 1024" version="1.1" xmlns="http://www.w3.org/2000/svg" xmlns:xlink="http://www.w3.org/1999/xlink">
    <!-- Generator: Sketch 56.3 (81716) - https://sketch.com -->
    <title>instagram</title>
    <desc>Created with Sketch.</desc>
    <g id="Symbols" stroke="none" stroke-width="1" fill="none" fill-rule="evenodd">
        <g id="instagram" fill="#000000">
            <path d="M826.099718,0 L197.900282,0 C88.8052681,0 0,88.7450611 0,197.900282 L0,826.099718 C0,935.254939 88.8052681,1024 197.900282,1024 L826.099718,1024 C935.194732,1024 1024,935.254939 1024,826.099718 L1024,197.900282 C1024,88.7450611 935.194732,0 826.099718,0 L826.099718,0 Z M882.874882,118.065851 L905.5127,117.945437 L905.5127,291.522107 L732.477893,292.06397 L731.875823,118.4873 L882.874882,118.065851 L882.874882,118.065851 Z M365.877705,406.878645 C398.630292,361.482596 451.853246,331.740357 512,331.740357 C572.146754,331.740357 625.369708,361.482596 658.122295,406.878645 C679.495767,436.50047 692.259643,472.745061 692.259643,512 C692.259643,611.341486 611.401693,692.199436 512,692.199436 C412.658514,692.199436 331.800564,611.341486 331.800564,512 C331.800564,472.745061 344.56444,436.50047 365.877705,406.878645 L365.877705,406.878645 Z M924.237065,826.099718 C924.237065,880.225776 880.225776,924.237065 826.099718,924.237065 L197.900282,924.237065 C143.774224,924.237065 99.7629351,880.225776 99.7629351,826.099718 L99.7629351,406.878645 L252.688617,406.878645 C239.443086,439.390405 232.037629,474.852305 232.037629,512 C232.037629,666.370649 357.629351,792.022578 512,792.022578 C666.430856,792.022578 792.022578,666.370649 792.022578,512 C792.022578,474.852305 784.496707,439.390405 771.37159,406.878645 L924.237065,406.878645 L924.237065,826.099718 L924.237065,826.099718 Z" id="Shape"></path>
        </g>
    </g>
</svg>