<?xml version="1.0" encoding="UTF-8"?>
<svg width="1024px" height="1024px" viewBox="0 0 1024 1024" version="1.1" xmlns="http://www.w3.org/2000/svg" xmlns:xlink="http://www.w3.org/1999/xlink">
    <!-- Generator: Sketch 56.3 (81716) - https://sketch.com -->
    <title>lamp</title>
    <desc>Created with Sketch.</desc>
    <defs>
        <path d="M513,248 C367.202735,248 249,366.090082 249,511 C249,632.682736 349.386373,772.188943 380,812 L380,869 C379.873412,942.562576 439.378921,1002 513,1002 C585.621079,1002 645.126588,942.551203 645,869 L645,812 C675.625011,772.17757 776,632.682736 776,511 C776,366.090082 657.797265,248 513,248 Z M607,869 C607,921.406721 564.392216,964 512,964 C459.619162,964 417,921.406721 417,869 L417,829 L607,829 L607,869 Z M612,792 L411,792 C386.860728,760.170863 286,623.049347 286,511 C286,386.386335 387.373173,285 512,285 C636.626827,285 738,386.374947 738,511 C738,622.878529 637.127885,760.148087 612,792 Z M166,511 C166,521.501818 157.623385,530 147,530 L19,530 C8.37661538,530 0,521.501818 0,511 C0,500.498182 8.37661538,492 19,492 L147,492 C157.623385,492 166,500.498182 166,511 Z M1005,492 C1015.62338,492 1024,500.498182 1024,511 C1024,521.501818 1015.62338,530 1005,530 L877,530 C866.376615,530 858,521.501818 858,511 C858,500.498182 866.376615,492 877,492 L1005,492 Z M206,710 C214.544604,703.50218 226.315435,705.340771 232,714 C238.507875,722.092373 236.650522,733.816225 228,740 L124,815 C115.444001,821.501103 103.684565,819.639813 98,811 C91.4921253,802.89956 93.3494782,791.198407 102,785 L206,710 Z M818,311 C809.455396,317.501132 797.684565,315.65114 792,307 C785.492125,298.899063 787.349478,287.197579 796,281 L900,206 C908.555999,199.498868 920.315435,201.34886 926,210 C932.507875,218.100937 930.650522,229.802421 922,236 L818,311 Z M619,182 C609.101552,178.869182 603.734971,168.284106 607,158 L647,36 C649.724536,26.1189262 660.253905,20.7183775 670,24 C679.908727,27.1308185 685.263987,37.7045243 682,48 L642,170 C639.274421,179.881074 628.73373,185.281622 619,182 Z M382,170 L342,48 C338.73494,37.7010029 344.101594,27.1153567 354,24 C363.734038,20.7253103 374.274871,26.11478 377,36 L417,158 C420.26506,168.298997 414.898406,178.884643 405,182 C395.265962,185.27469 384.725129,179.88522 382,170 Z M922,785 C930.650522,791.196401 932.507875,802.898398 926,811 C920.315435,819.63986 908.544604,821.501283 900,815 L796,740 C787.349478,733.810077 785.492125,722.074029 792,714 C797.684565,705.343918 809.455396,703.505195 818,710 L922,785 Z M228,281 C236.650522,287.199224 238.507875,298.91273 232,307 C226.315435,315.643066 214.544604,317.504515 206,311 L102,236 C93.3494782,229.800776 91.4921253,218.08727 98,210 C103.684565,201.356934 115.455396,199.495485 124,206 L228,281 Z" id="path-1"></path>
    </defs>
    <g id="Symbols" stroke="none" stroke-width="1" fill="none" fill-rule="evenodd">
        <g id="lamp">
            <mask id="mask-2" fill="white">
                <use xlink:href="#path-1"></use>
            </mask>
            <use id="Shape" fill="#000000" fill-rule="nonzero" xlink:href="#path-1"></use>
            <g id="null-mask" mask="url(#mask-2)"></g>
        </g>
    </g>
</svg>