<?xml version="1.0" encoding="UTF-8"?>
<svg width="1024px" height="1024px" viewBox="0 0 1024 1024" version="1.1" xmlns="http://www.w3.org/2000/svg" xmlns:xlink="http://www.w3.org/1999/xlink">
    <!-- Generator: Sketch 56.3 (81716) - https://sketch.com -->
    <title>law</title>
    <desc>Created with Sketch.</desc>
    <g id="Symbols" stroke="none" stroke-width="1" fill="none" fill-rule="evenodd">
        <g id="law" fill="#000000" fill-rule="nonzero">
            <g id="39" transform="translate(102.000000, 0.000000)">
                <path d="M135.224889,1024 L683.975111,1024 C754.4832,1024 811.838578,966.633244 811.838578,896.136533 L811.838578,566.875022 L811.838578,287.015822 C811.838578,270.222222 802.895644,248.615822 791.017244,236.737422 L575.123911,20.8327111 C563.256889,8.95431111 541.627733,0 524.845511,0 L244.963556,0 L135.213511,0 C64.7054222,0 7.35004444,57.3667556 7.35004444,127.863467 L7.35004444,896.125156 C7.35004444,966.633244 64.7168,1024 135.224889,1024 Z M564.906667,61.8496 L750.023111,246.943289 L601.668267,246.943289 C581.393067,246.943289 564.918044,230.468267 564.918044,210.204444 L564.918044,61.8496 L564.906667,61.8496 Z M43.5768889,127.863467 C43.5768889,77.3347556 84.6848,36.2154667 135.224889,36.2154667 L244.974933,36.2154667 L524.856889,36.2154667 C526.017422,36.2154667 527.325867,36.3975111 528.6912,36.6250667 L528.6912,210.181689 C528.6912,250.424889 561.425067,283.170133 601.679644,283.170133 L775.224889,283.170133 C775.463822,284.535467 775.634489,285.832533 775.634489,287.004444 L775.634489,566.875022 L775.634489,896.125156 C775.634489,946.653867 734.537956,987.773156 683.986489,987.773156 L135.236267,987.773156 C84.7075556,987.773156 43.5882667,946.665244 43.5882667,896.125156 L43.5882667,127.863467 L43.5768889,127.863467 Z" id="Shape"></path>
                <path d="M208.213333,749.624889 L610.986667,749.624889 C620.999111,749.624889 629.111467,741.523911 629.111467,731.511467 C629.111467,721.487644 620.999111,713.386667 610.986667,713.386667 L208.213333,713.386667 C198.200889,713.386667 190.088533,721.487644 190.088533,731.511467 C190.088533,741.523911 198.200889,749.624889 208.213333,749.624889 Z" id="Shape"></path>
                <path d="M208.213333,557.556622 L610.986667,557.556622 C620.999111,557.556622 629.111467,549.444267 629.111467,539.431822 C629.111467,529.442133 620.999111,521.3184 610.986667,521.3184 L208.213333,521.3184 C198.200889,521.3184 190.088533,529.442133 190.088533,539.431822 C190.088533,549.444267 198.200889,557.556622 208.213333,557.556622 Z" id="Shape"></path>
                <path d="M208.213333,365.476978 L446.372978,365.476978 C456.385422,365.476978 464.4864,357.376 464.4864,347.363556 C464.4864,337.373867 456.385422,329.250133 446.372978,329.250133 L208.213333,329.250133 C198.200889,329.250133 190.088533,337.373867 190.088533,347.363556 C190.088533,357.376 198.200889,365.476978 208.213333,365.476978 Z" id="Shape"></path>
            </g>
        </g>
    </g>
</svg>