<?xml version="1.0" encoding="UTF-8"?>
<svg width="1024px" height="1024px" viewBox="0 0 1024 1024" version="1.1" xmlns="http://www.w3.org/2000/svg" xmlns:xlink="http://www.w3.org/1999/xlink">
    <!-- Generator: Sketch 56.3 (81716) - https://sketch.com -->
    <title>lens</title>
    <desc>Created with Sketch.</desc>
    <defs>
        <path d="M644.859657,718.824426 L950.035231,1024 L1024,950.035231 L718.824426,644.859657 C842.972443,485.312607 834.457261,257.532064 691.343452,114.418254 C536.012789,-40.9124083 280.943319,-37.6836809 121.629819,121.629819 C-37.6836809,280.943319 -40.9124083,536.012789 114.418254,691.343452 C257.532064,834.457261 485.312607,842.972443 644.859657,718.824426 L644.859657,718.824426 L644.859657,718.824426 Z M400.420818,723 C583.328941,723 731.605241,578.430607 731.605241,400.095187 C731.605241,221.759786 583.328941,77.1903748 400.420818,77.1903748 C217.512695,77.1903748 69.2363946,221.759786 69.2363946,400.095187 C69.2363946,578.430607 217.512695,723 400.420818,723 L400.420818,723 Z" id="path-1"></path>
    </defs>
    <g id="Symbols" stroke="none" stroke-width="1" fill="none" fill-rule="evenodd">
        <g id="lens">
            <mask id="mask-2" fill="white">
                <use xlink:href="#path-1"></use>
            </mask>
            <use id="search" fill="#000000" xlink:href="#path-1"></use>
        </g>
    </g>
</svg>