<?xml version="1.0" encoding="UTF-8"?>
<svg width="1024px" height="1024px" viewBox="0 0 1024 1024" version="1.1" xmlns="http://www.w3.org/2000/svg" xmlns:xlink="http://www.w3.org/1999/xlink">
    <!-- Generator: Sketch 56.3 (81716) - https://sketch.com -->
    <title>lens</title>
    <desc>Created with Sketch.</desc>
    <defs>
        <path d="M644.859657,718.824426 L950.035231,1024 L1024,950.035231 L718.824426,644.859657 C842.972443,485.312607 834.457261,257.532064 691.343452,114.418254 C536.012789,-40.9124083 280.943319,-37.6836809 121.629819,121.629819 C-37.6836809,280.943319 -40.9124083,536.012789 114.418254,691.343452 C257.532064,834.457261 485.312607,842.972443 644.859657,718.824426 L644.859657,718.824426 L644.859657,718.824426 Z M399.343322,753.098884 C601.538614,753.098884 765.45025,593.285039 765.45025,396.144629 C765.45025,199.004241 601.538614,39.1903748 399.343322,39.1903748 C197.148031,39.1903748 33.2363946,199.004241 33.2363946,396.144629 C33.2363946,593.285039 197.148031,753.098884 399.343322,753.098884 L399.343322,753.098884 Z" id="path-1"></path>
    </defs>
    <g id="Symbols" stroke="none" stroke-width="1" fill="none" fill-rule="evenodd">
        <g id="lens">
            <mask id="mask-2" fill="white">
                <use xlink:href="#path-1"></use>
            </mask>
            <use id="search" fill="#000000" xlink:href="#path-1"></use>
            <g id="null-mask" mask="url(#mask-2)"></g>
        </g>
    </g>
</svg>