<?xml version="1.0" encoding="UTF-8"?>
<svg width="1024px" height="1024px" viewBox="0 0 1024 1024" version="1.1" xmlns="http://www.w3.org/2000/svg" xmlns:xlink="http://www.w3.org/1999/xlink">
    <!-- Generator: Sketch 56.3 (81716) - https://sketch.com -->
    <title>locate</title>
    <desc>Created with Sketch.</desc>
    <defs>
        <path d="M40.0137013,513.847527 L424.037054,599.119641 C424.267056,599.239658 424.677059,599.649716 424.607059,599.239658 L510.087805,983.994317 C517.427869,1017.06902 532.297999,1024 543.458096,1024 C543.458096,1024 543.458096,1024 543.468096,1024 C557.948223,1024 569.868327,1012.28834 578.828405,989.205057 L895.911173,173.73921 C903.251237,154.856528 899.351203,142.90483 894.771163,136.233882 C886.301089,123.842122 869.560943,120.45164 850.170774,127.962707 L34.7836556,445.087759 C4.64339251,456.809424 -0.726654365,471.811555 0.0733526188,482.303046 C0.863359515,492.82454 8.45342577,506.816528 40.0137013,513.847527 Z M46.8293475,474.173194 L862.430878,156.988059 C865.121576,155.947714 867.1421,155.467555 868.742515,155.257485 C868.53246,156.737976 868.042333,158.828669 866.972056,161.549571 L549.799796,977.169918 C548.009331,981.79145 546.368906,985.072537 545.008553,987.353293 C544.008293,984.892478 542.878,981.421327 541.807723,976.579722 L456.305547,591.752167 C453.784894,580.348387 443.642263,570.215028 432.249308,567.684189 L47.4495083,482.175846 C42.6182553,481.115495 39.12735,479.975117 36.6467066,478.974785 C38.9473033,477.624337 42.2181516,475.963787 46.8293475,474.173194 Z" id="path-1"></path>
    </defs>
    <g id="Symbols" stroke="none" stroke-width="1" fill="none" fill-rule="evenodd">
        <g id="locate">
            <mask id="mask-2" fill="white">
                <use xlink:href="#path-1"></use>
            </mask>
            <use id="76" fill="#000000" fill-rule="nonzero" xlink:href="#path-1"></use>
        </g>
    </g>
</svg>