<?xml version="1.0" encoding="UTF-8"?>
<svg width="1024px" height="1024px" viewBox="0 0 1024 1024" version="1.1" xmlns="http://www.w3.org/2000/svg" xmlns:xlink="http://www.w3.org/1999/xlink">
    <!-- Generator: Sketch 56.3 (81716) - https://sketch.com -->
    <title>lock</title>
    <desc>Created with Sketch.</desc>
    <defs>
        <path d="M326,466 L698,466 L698,326.285714 C698,274.863095 679.835938,230.959821 643.507812,194.575893 C607.179688,158.191964 563.34375,140 512,140 C460.65625,140 416.820312,158.191964 380.492188,194.575893 C344.164062,230.959821 326,274.863095 326,326.285714 L326,466 Z M931,535.272727 L931,954.181818 C931,973.575758 924.210648,990.060606 910.631944,1003.63636 C897.053241,1017.21212 880.564815,1024 861.166667,1024 L162.833333,1024 C143.435185,1024 126.946759,1017.21212 113.368056,1003.63636 C99.7893519,990.060606 93,973.575758 93,954.181818 L93,535.272727 C93,515.878788 99.7893519,499.393939 113.368056,485.818182 C126.946759,472.242424 143.435185,465.454545 162.833333,465.454545 L186.111111,465.454545 L186.111111,325.818182 C186.111111,236.606061 218.118056,160 282.131944,96 C346.145833,32 422.768519,0 512,0 C601.231481,0 677.854167,32 741.868056,96 C805.881944,160 837.888889,236.606061 837.888889,325.818182 L837.888889,465.454545 L861.166667,465.454545 C880.564815,465.454545 897.053241,472.242424 910.631944,485.818182 C924.210648,499.393939 931,515.878788 931,535.272727 Z" id="path-1"></path>
    </defs>
    <g id="Symbols" stroke="none" stroke-width="1" fill="none" fill-rule="evenodd">
        <g id="lock">
            <mask id="mask-2" fill="white">
                <use xlink:href="#path-1"></use>
            </mask>
            <use id="Mask" fill="#000000" fill-rule="nonzero" xlink:href="#path-1"></use>
        </g>
    </g>
</svg>