<?xml version="1.0" encoding="UTF-8"?>
<svg width="1024px" height="1024px" viewBox="0 0 1024 1024" version="1.1" xmlns="http://www.w3.org/2000/svg" xmlns:xlink="http://www.w3.org/1999/xlink">
    <!-- Generator: Sketch 56.3 (81716) - https://sketch.com -->
    <title>magic</title>
    <desc>Created with Sketch.</desc>
    <defs>
        <path d="M676,342 C662.531186,328.551791 644.365779,321 625,321 C605.691775,321 587.526368,328.551791 574,342 L21,896 C7.53005606,909.333512 0,927.523874 0,947 C0,966.239618 7.54143077,984.441371 21,998 L26,1003 C39.5157323,1016.47099 57.6811394,1024 77,1024 C96.3437687,1024 114.531925,1016.47099 128,1003 L681,449 C709.053738,421.109642 709.053738,375.126865 681,347 L676,342 Z M655,424 L102,978 C88.7645006,991.427688 64.9089369,991.404913 51,978 L47,973 C39.767267,966.238165 36,957.150805 36,947 C36,937.803156 39.767267,928.727184 47,922 L600,369 C606.439338,361.757931 615.510371,358 625,358 C634.84749,358 643.918523,361.757931 651,369 L655,373 C669.526833,387.368798 669.526833,410.326338 655,424 Z M1023,122 C1018.96014,111.129646 1008.47498,103.411047 994,101 L918,90 C917.884181,90.2246321 917.088128,89.6562522 917,90 L883,21 C876.557671,7.60492363 865.958797,1.13686838e-13 854,1.13686838e-13 C842.05447,1.13686838e-13 831.478341,7.60492363 825,21 L791,89 C790.902395,89.6676198 790.140459,90.1905293 790,90 L714,101 C699.526911,103.422414 689.041759,111.129646 685,122 C681.661213,133.830741 685.595988,146.244159 696,157 L751,210 C751.133874,210.130065 751.384062,211.175884 752,211 L738,287 C735.940638,301.730176 740.580489,311.017505 745,316 C754.022408,326.954878 769.909346,329.114722 786,321 L853,285 L854,285 L923,321 C928.92657,324.29486 935.260875,326 941,326 C950.010596,326 957.709563,322.510147 963,316 C967.421406,311.017505 972.061257,301.730176 970,287 L957,212 C956.5496,211.05084 956.7543,210.209638 957,210 L1012,157 C1022.39454,146.244159 1026.34068,133.830741 1023,122 Z M931,185 C923.183852,192.891545 918.830021,206.282219 921,217 L932,286 L871,254 C864.844791,250.371242 858.353831,249.665271 854,250 C849.646169,249.665271 843.166577,250.371242 837,254 L775,286 L787,217 C789.158611,206.282219 784.816148,192.891545 777,185 L727,136 L796,126 C806.914966,124.799511 818.282671,116.521432 823,106 L854,44 L885,106 C889.717329,116.510046 901.073666,124.799511 912,126 L981,136 L931,185 Z M516,117 C512.237981,106.214397 502.479505,98.91663 489,97 L425,88 L396,29 C389.716158,17.0245276 379.775493,10 369,10 C357.241042,10 347.311764,17.0245276 341,29 L312,88 L248,97 C234.525643,98.91663 224.778554,106.191627 221,117 C217.809841,127.606759 221.442226,139.2422 231,149 L278,194 L267,258 C264.438732,272.127592 268.811258,280.814325 273,286 C281.484751,295.796948 296.401442,297.960093 311,290 L369,260 L426,290 C431.983909,293.428874 437.825331,295 443,295 C451.694437,295 459.004754,291.675588 464,286 C468.193891,280.80294 472.577803,272.127592 470,258 L459,194 L506,149 C515.562923,139.2422 519.183921,127.618144 516,117 Z M433,169 C425.522942,176.595268 421.491362,189.004627 423,199 L432,253 L384,228 C378.544784,224.625983 372.53158,223.987853 369,224 C364.479809,223.987853 358.455216,224.637379 353,228 L305,253 L314,199 C315.497249,189.004627 311.477058,176.583873 304,169 L265,131 L319,123 C329.254732,121.886974 339.777839,114.218012 344,105 L369,56 L393,105 C397.222161,114.218012 407.745268,121.886974 418,123 L472,131 L433,169 Z M985,606 L921,597 L892,538 C885.704076,526.035351 875.764109,519 865,519 C853.231239,519 843.291272,526.035351 837,538 L808,597 L744,606 C730.535835,607.932295 720.789429,615.206711 717,626 C713.809818,636.620132 717.441949,648.254643 727,658 L774,703 L763,767 C760.446824,781.129419 764.83043,789.79269 769,795 C777.491648,804.819652 792.430064,806.937088 807,799 L865,769 L922,799 C927.968863,802.428999 933.809875,804 939,804 C947.666622,804 954.987812,800.675854 960,795 C964.164918,789.781306 968.548523,781.106651 966,767 L955,703 L1002,658 C1011.5534,648.254643 1015.18553,636.654284 1012,626 C1008.22869,615.229479 998.482285,607.932295 985,606 Z M929,678 C921.511554,685.595268 917.479974,698.004627 919,708 L928,762 L880,737 C874.533396,733.603193 868.520191,732.987853 865,733 C860.479809,732.987853 854.466604,733.614588 849,737 L801,762 L810,708 C811.497249,698.004627 807.465669,685.561083 800,678 L761,640 L815,632 C825.243343,630.886974 835.777839,623.218012 840,614 L865,565 L889,614 C893.176607,623.195222 903.711103,630.864183 914,632 L968,640 L929,678 Z" id="path-1"></path>
    </defs>
    <g id="Symbols" stroke="none" stroke-width="1" fill="none" fill-rule="evenodd">
        <g id="magic">
            <mask id="mask-2" fill="white">
                <use xlink:href="#path-1"></use>
            </mask>
            <use id="Mask" fill="#000000" fill-rule="nonzero" xlink:href="#path-1"></use>
        </g>
    </g>
</svg>