<?xml version="1.0" encoding="UTF-8"?>
<svg width="1024px" height="1024px" viewBox="0 0 1024 1024" version="1.1" xmlns="http://www.w3.org/2000/svg" xmlns:xlink="http://www.w3.org/1999/xlink">
    <!-- Generator: Sketch 56.3 (81716) - https://sketch.com -->
    <title>mail</title>
    <desc>Created with Sketch.</desc>
    <defs>
        <path d="M98,370 C74.6678356,354.795759 52.3783014,334.425908 31,309 C10.4784658,282.582462 0,258.50487 0,236 C0,208.778279 7.90443836,185.850021 24,168 C39.5221918,149.168706 62.092274,140 91,140 L933,140 C957.320767,140 978.75463,148.285601 997,165 C1014.94532,181.440991 1024,201.369289 1024,225 C1024,252.511446 1014.67178,279.140951 996,305 C977.323836,329.919476 954.094466,351.613984 926,370 C783.051397,461.651438 693.900274,518.962341 659,542 C655.051397,544.007452 646.950575,549.377509 635,558 C622.192219,565.961697 611.910137,572.669397 604,578 C595.526137,582.890037 585.622795,588.617231 574,595 C562.393425,601.305369 551.431014,606.078031 541,609 C530.859836,612.4221 521.335233,614 513,614 L512,614 L511,614 C502.664767,614 493.140164,612.4221 483,609 C472.568986,606.078031 461.613589,601.311862 450,595 C438.370192,588.623724 428.466849,582.890037 420,578 C412.089863,572.669397 401.800767,565.961697 389,558 C377.042411,549.384002 368.948603,544.007452 365,542 C330.471452,518.968834 280.568986,486.787457 215,445 C150.282521,403.204186 111.23726,378.068167 98,370 Z M967,426 C988.573808,412.291412 1007.616,396.931875 1024,380 L1024,800 C1024,823.594339 1015.05753,843.521454 997,860 C979.238575,876.709489 957.713534,885 933,885 L91,885 C66.2864658,885 44.7614247,876.709489 27,860 C8.94947945,843.527951 0,823.594339 0,800 L0,380 C16.7627397,397.289225 36.0013151,412.648762 58,426 C195.619068,512.862592 290.282959,573.741975 342,609 C363.428822,623.498038 381.047233,635.063171 395,643 C408.092055,651.644194 426.096219,660.110132 449,669 C471.04,677.405854 491.996932,681.726536 511,682 L512,682 L513,682 C532.010082,681.726536 552.96,677.405854 575,669 C597.910795,660.110132 615.907945,651.644194 629,643 C642.959781,635.063171 660.578192,623.498038 682,609 C747.043068,565.26954 841.910356,504.390158 967,426 Z" id="path-1"></path>
    </defs>
    <g id="Symbols" stroke="none" stroke-width="1" fill="none" fill-rule="evenodd">
        <g id="mail">
            <mask id="mask-2" fill="white">
                <use xlink:href="#path-1"></use>
            </mask>
            <use id="Shape" fill="#000000" xlink:href="#path-1"></use>
            <g id="null-mask" mask="url(#mask-2)"></g>
        </g>
    </g>
</svg>