<?xml version="1.0" encoding="UTF-8"?>
<svg width="1024px" height="1024px" viewBox="0 0 1024 1024" version="1.1" xmlns="http://www.w3.org/2000/svg" xmlns:xlink="http://www.w3.org/1999/xlink">
    <!-- Generator: Sketch 56.3 (81716) - https://sketch.com -->
    <title>mobile</title>
    <desc>Created with Sketch.</desc>
    <defs>
        <path d="M267,77 C267,34.365248 301.651072,0 344,0 L680,0 C722.359566,0 757,34.3631232 757,77 L757,947 C757,989.634752 722.348928,1024 680,1024 L344,1024 C301.640434,1024 267,989.636877 267,947 L267,77 L267,77 Z M312,134 L713,134 L713,891 L312,891 L312,134 L312,134 Z M513,997 C537.076668,997 557,977.076668 557,953 C557,927.923332 537.076668,908 513,908 C487.923332,908 468,927.923332 468,953 C468,977.076668 487.923332,997 513,997 L513,997 Z" id="path-1"></path>
    </defs>
    <g id="Symbols" stroke="none" stroke-width="1" fill="none" fill-rule="evenodd">
        <g id="mobile">
            <mask id="mask-2" fill="white">
                <use xlink:href="#path-1"></use>
            </mask>
            <use id="use-as-wallpaper" fill="#000000" xlink:href="#path-1"></use>
        </g>
    </g>
</svg>