<?xml version="1.0" encoding="UTF-8"?>
<svg width="1024px" height="1024px" viewBox="0 0 1024 1024" version="1.1" xmlns="http://www.w3.org/2000/svg" xmlns:xlink="http://www.w3.org/1999/xlink">
    <!-- Generator: Sketch 56.3 (81716) - https://sketch.com -->
    <title>network</title>
    <desc>Created with Sketch.</desc>
    <defs>
        <path d="M287,1017 C291.744855,1020.90418 298.114569,1024 307,1024 C315.881522,1024 327.449378,1020.69931 342,1011 L512,904 L681,1011 C695.561996,1020.69931 707.095729,1024 716,1024 C724.885431,1024 731.255145,1020.90418 736,1017 C744.859035,1009.716 753.105541,994.123108 741,962 L549,469 C537.877442,440.325036 520.713337,436 512,436 C502.286663,436 485.122558,440.336417 474,469 L282,962 C269.894459,994.123108 278.140965,1009.716 287,1017 Z M707,976 C708.565482,979.811078 709.453517,982.712778 710,985 C707.859607,984.010008 705.195502,982.576227 702,981 L547,882 L646,819 L707,976 Z M509,484 C510.011302,480.789375 511.071181,478.61589 512,477 C512.940216,478.627269 514.011492,480.789375 515,484 L632,784 L512,860 L392,784 L509,484 Z M317,976 L378,819 L477,882 L322,981 C318.804498,982.553469 316.129007,984.010008 314,985 C314.535098,982.67864 315.434518,979.799698 317,976 Z M799,711 C791.425451,703.321833 791.470968,691.579892 798,684 C863.297379,612.685876 898.846446,521.060045 899,424 C898.846446,320.616451 858.60909,223.495119 786,150 C712.464191,77.3921396 615.341501,37.1714378 512,37 C408.669878,37.1714378 311.547188,77.3921396 238,150 C165.39091,223.517875 125.153554,320.639207 125,424 C125.153554,521.060045 160.702621,612.674498 226,684 C232.540411,691.579892 232.585929,703.321833 225,711 C218.065887,717.839971 206.265509,717.862726 199,710 C127.395285,631.937199 88,530.970153 88,424 C88,310.717721 132.106332,204.243796 212,124 C292.270581,44.089171 398.735712,0 512,0 C625.264288,0 731.740798,44.089171 812,124 C891.893668,204.22104 936,310.694966 936,424 C936,530.970153 896.604715,631.937199 825,710 C817.734491,717.862726 805.934113,717.839971 799,711 Z M656,568 C648.702995,560.351052 648.794112,548.619515 655,541 C682.177144,507.917566 696.77866,467.215616 697,424 C696.77866,375.115651 677.621288,328.894986 643,294 C608.030595,259.325034 561.731714,240.151765 512,240 C463.256897,240.151765 416.980794,259.313656 382,294 C347.378712,328.883607 328.20995,375.115651 328,424 C328.20995,467.215616 342.822856,507.906187 370,541 C376.217277,548.619515 376.297005,560.339673 369,568 C361.775215,574.859016 349.907212,574.904531 343,567 C309.451215,527.193244 291,477.149304 291,424 C291,365.181963 314.02985,309.607929 356,268 C397.698136,225.996544 453.336521,203 512,203 C571.663479,203 627.301864,226.007923 669,268 C710.97015,309.630687 734,365.181963 734,424 C734,477.137925 715.560175,527.193244 682,567 C675.104178,574.91591 663.236174,574.859016 656,568 Z" id="path-1"></path>
    </defs>
    <g id="Symbols" stroke="none" stroke-width="1" fill="none" fill-rule="evenodd">
        <g id="network">
            <mask id="mask-2" fill="white">
                <use xlink:href="#path-1"></use>
            </mask>
            <use id="Shape" fill="#000000" fill-rule="nonzero" xlink:href="#path-1"></use>
        </g>
    </g>
</svg>