<?xml version="1.0" encoding="UTF-8"?>
<svg width="1024px" height="1024px" viewBox="0 0 1024 1024" version="1.1" xmlns="http://www.w3.org/2000/svg" xmlns:xlink="http://www.w3.org/1999/xlink">
    <!-- Generator: Sketch 56.3 (81716) - https://sketch.com -->
    <title>paragraph</title>
    <desc>Created with Sketch.</desc>
    <defs>
        <path d="M781,574 C781,592.821993 777.735011,610.675583 771,627 C764.67486,643.695621 755.648126,658.861573 744,673 C732.600801,686.506256 719.156729,698.600623 704,709 C688.426962,719.334135 672.294076,727.972969 655,735 C693.804913,768.672085 713.01073,810.138487 713,859 C713.01073,886.161364 707.441043,909.774176 696,930 C685.161961,950.473293 670.373483,967.558986 652,981 C633.497762,995.203669 612.75548,1005.76224 590,1013 C566.660829,1020.35249 542.845616,1024 518,1024 C452.961047,1024 401.105342,1006.53036 363,972 C324.280924,936.650744 305.075107,886.545508 305,821 L378,821 C376.905576,840.471037 379.59439,858.708575 386,876 C391.886297,893.264428 400.913031,908.238407 413,921 C424.7286,933.579366 439.132963,943.753992 456,951 C472.935707,959.112149 491.373291,962.951631 511,963 C527.480767,962.951631 543.229537,961.03189 559,957 C573.959304,953.352812 587.787492,947.209641 600,939 C612.371306,930.315668 622.166273,919.757094 629,907 C636.762912,894.416135 640.412017,878.866234 640,860 C640.412017,832.023855 630.617051,807.451172 611,787 C591.436597,765.984148 567.04521,746.594766 538,729 C508.658652,710.503097 476.776997,693.033455 442,676 C407.63502,659.24551 375.753365,640.43205 347,620 C317.366807,598.965026 292.97542,575.160239 273,548 C253.794966,521.40669 244,489.155044 244,452 C244,432.329863 247.264989,414.476273 254,398 C260.32514,381.456235 269.351874,366.290283 281,352 C292.399199,338.6456 305.843271,326.551233 321,316 C336.573038,305.817721 352.705924,297.178887 370,290 C331.195087,256.479771 311.98927,214.629421 312,165 C311.98927,137.838636 317.558957,114.225824 329,94 C339.838039,73.5267074 354.626517,56.441014 373,43 C391.502238,28.7963313 412.436578,18.2377568 436,11 C459.299473,3.64750758 482.922628,0 507,0 C572.038953,0 623.894658,17.2776675 662,52 C700.719076,86.3893741 719.924893,137.070532 720,204 L647,204 C648.094424,183.912911 645.40561,165.291425 639,148 C633.113703,130.735572 624.086969,115.761593 612,103 C600.2714,90.4206341 585.867037,80.2460076 569,73 C552.064293,64.8878506 533.626709,61.048369 514,61 C497.519233,61.048369 481.770463,62.9681098 466,67 C451.040696,70.6471883 437.212508,76.790359 425,85 C412.628694,93.6843317 402.833727,104.242906 396,117 C388.237088,129.583865 384.587983,145.133766 385,164 C384.587983,192.744053 394.382949,217.700684 414,238 C433.563403,259.167708 457.95479,278.55709 487,297 C516.341348,314.648759 548.223003,332.118401 583,349 C617.36498,365.906346 649.246635,384.719806 678,405 C707.633193,426.18683 732.02458,449.991617 752,477 C771.205034,503.745166 781,535.996812 781,574 Z M709,575 C709,544.796773 698.047168,517.94576 676,494 C654.235185,470.380394 627.717803,448.70779 597,429 C565.458668,409.581441 532.984483,391.552903 499,375 C465.344929,358.56402 436.137378,341.878033 412,325 C383.87045,336.50775 361.196167,352.042979 344,372 C325.839127,391.169329 317,417.061377 317,449 C317,478.436043 327.760677,504.711678 349,528 C370.804029,551.509861 396.937101,572.990671 428,593 C458.427605,612.117021 490.709635,630.529144 525,648 C558.349189,665.052394 587.55674,682.121967 612,699 C639.823668,687.49225 662.882261,671.957021 681,652 C699.776563,632.830671 709,606.938623 709,575 Z" id="path-1"></path>
    </defs>
    <g id="Symbols" stroke="none" stroke-width="1" fill="none" fill-rule="evenodd">
        <g id="paragraph">
            <mask id="mask-2" fill="white">
                <use xlink:href="#path-1"></use>
            </mask>
            <use id="ยง" fill="#000000" xlink:href="#path-1"></use>
            <g id="null-mask" mask="url(#mask-2)"></g>
        </g>
    </g>
</svg>