<?xml version="1.0" encoding="UTF-8"?>
<svg width="1024px" height="1024px" viewBox="0 0 1024 1024" version="1.1" xmlns="http://www.w3.org/2000/svg" xmlns:xlink="http://www.w3.org/1999/xlink">
    <!-- Generator: Sketch 56.3 (81716) - https://sketch.com -->
    <title>pen</title>
    <desc>Created with Sketch.</desc>
    <defs>
        <path d="M190,877 L309,822 C333.951779,810.446881 365.689794,783.855718 381,761 L786,184 C822.878925,131.177008 809.999235,58.1082275 757,21 C704.319729,-15.8825921 631.243717,-2.98542309 594,50 L609,60 L594,50 L190,627 C174.020423,649.681905 159.876678,688.589692 158,716 L146,847 C145.095213,859.201139 149.525097,869.821668 158,876 C163.099448,879.315259 168.679508,881 175,881 C179.554931,881.011356 189.883736,877.425647 190,877 Z M623,70 C648.864266,33.9504971 699.216799,25.0159839 736,51 C772.061949,76.1501178 780.943008,126.646072 755,163 L680,271 L548,178 L623,70 Z M527,208 L659,301 L392,682 L260,589 L527,208 Z M194,719 C195.347878,697.980477 207.39959,664.928124 219,648 L240,619 L372,711 L352,740 C339.717816,757.28396 312.686897,779.867653 294,789 L183,840 L194,719 Z M860,988 C869.892575,988 878,996.047724 878,1006 C878,1015.94097 869.892575,1024 860,1024 L182,1024 C172.107425,1024 164,1015.94097 164,1006 C164,996.047724 172.107425,988 182,988 L860,988 Z" id="path-1"></path>
    </defs>
    <g id="Symbols" stroke="none" stroke-width="1" fill="none" fill-rule="evenodd">
        <g id="pen">
            <mask id="mask-2" fill="white">
                <use xlink:href="#path-1"></use>
            </mask>
            <use id="Shape" fill="#000000" fill-rule="nonzero" xlink:href="#path-1"></use>
        </g>
    </g>
</svg>