<?xml version="1.0" encoding="UTF-8"?>
<svg width="1024px" height="1024px" viewBox="0 0 1024 1024" version="1.1" xmlns="http://www.w3.org/2000/svg" xmlns:xlink="http://www.w3.org/1999/xlink">
    <!-- Generator: Sketch 56.3 (81716) - https://sketch.com -->
    <title>phone</title>
    <desc>Created with Sketch.</desc>
    <g id="Symbols" stroke="none" stroke-width="1" fill="none" fill-rule="evenodd">
        <g id="phone" fill="#000000">
            <path d="M750.933333,614.4 C682.666667,682.666667 682.666667,750.933333 614.4,750.933333 C546.133333,750.933333 477.866667,682.666667 409.6,614.4 C341.333333,546.133333 273.066667,477.866667 273.066667,409.6 C273.066667,341.333333 341.333333,341.333333 409.6,273.066667 C477.866667,204.8 273.066667,0 204.8,0 C136.533333,0 0,204.8 0,204.8 C0,341.333333 140.288,618.154667 273.066667,750.933333 C405.777067,883.712 682.666667,1024 819.2,1024 C819.2,1024 1024,887.466667 1024,819.2 C1024,750.933333 819.2,546.133333 750.933333,614.4" id="Shape"></path>
        </g>
    </g>
</svg>