<?xml version="1.0" encoding="UTF-8"?>
<svg width="1024px" height="1024px" viewBox="0 0 1024 1024" version="1.1" xmlns="http://www.w3.org/2000/svg" xmlns:xlink="http://www.w3.org/1999/xlink">
    <!-- Generator: Sketch 56.3 (81716) - https://sketch.com -->
    <title>planet</title>
    <desc>Created with Sketch.</desc>
    <defs>
        <path d="M512,1024 C229.694578,1024 0,794.305422 0,512 C0,229.694578 229.6832,0 512,0 C794.3168,0 1024,229.694578 1024,512 C1024,794.305422 794.3168,1024 512,1024 Z M643.470222,969.147733 C742.729956,940.555378 828.791467,880.514844 890.015289,800.449422 C850.363733,788.559644 808.334222,778.626844 764.199822,770.833067 C735.721244,855.540622 693.748622,924.672 643.470222,969.147733 Z M911.917511,769.2288 C956.757333,699.756089 983.995733,617.972622 987.306667,530.102044 L804.226844,530.102044 C802.747733,603.682133 792.428089,673.359644 774.974578,735.926044 C823.136711,744.595911 868.932267,755.768889 911.917511,769.2288 Z M987.306667,493.886578 C983.995733,406.027378 956.757333,324.221156 911.928889,254.737067 C868.943644,268.208356 823.148089,279.392711 774.974578,288.0512 C792.439467,350.6176 802.759111,420.306489 804.238222,493.886578 L987.306667,493.886578 Z M890.015289,223.5392 C828.780089,143.4624 742.718578,83.4332444 643.447467,54.8295111 C693.737244,99.3052444 735.721244,168.436622 764.199822,253.1328 C808.334222,245.361778 850.375111,235.428978 890.015289,223.5392 Z M530.113422,37.5352889 L530.113422,274.067911 C598.869333,273.294222 665.668267,268.276622 728.871822,258.958222 C686.478222,134.212267 613.7856,48.4465778 530.113422,37.5352889 Z M530.113422,310.283378 L530.113422,493.886578 L768.022756,493.886578 C766.5664,422.013156 756.474311,354.224356 739.646578,293.888 C673.041067,303.980089 602.635378,309.498311 530.113422,310.283378 Z M530.113422,530.113422 L530.113422,713.693867 C602.635378,714.513067 673.041067,719.985778 739.646578,730.112 C756.474311,669.764267 766.5664,601.964089 768.022756,530.113422 L530.113422,530.113422 Z M530.113422,749.920711 L530.113422,986.441956 C613.796978,975.530667 686.478222,889.787733 728.860444,765.0304 C665.668267,755.700622 598.869333,750.683022 530.113422,749.920711 Z M493.886578,986.441956 L493.886578,749.920711 C425.130667,750.683022 358.331733,755.700622 295.128178,765.0304 C337.521778,889.787733 410.2144,975.530667 493.886578,986.441956 Z M493.886578,713.693867 L493.886578,530.113422 L255.965867,530.113422 C257.4336,601.964089 267.525689,669.764267 284.353422,730.112 C350.958933,719.997156 421.364622,714.513067 493.886578,713.693867 Z M493.886578,493.886578 L493.886578,310.283378 C421.376,309.498311 350.958933,303.980089 284.353422,293.888 C267.525689,354.224356 257.4336,422.013156 255.965867,493.886578 L493.886578,493.886578 Z M493.886578,37.5352889 C410.2144,48.4465778 337.5104,134.212267 295.128178,258.9696 C358.331733,268.288 425.130667,273.3056 493.886578,274.079289 L493.886578,37.5352889 Z M380.552533,54.8295111 C281.281422,83.4332444 195.219911,143.4624 133.973333,223.5392 C173.636267,235.428978 215.665778,245.373156 259.811556,253.1328 C288.290133,168.436622 330.262756,99.3052444 380.552533,54.8295111 Z M112.082489,254.759822 C67.2312889,324.221156 39.9928889,406.027378 36.6819556,493.897956 L219.784533,493.897956 C221.252267,420.317867 231.571911,350.628978 249.0368,288.062578 C200.863289,279.404089 155.067733,268.219733 112.082489,254.759822 Z M36.6819556,530.113422 C39.9928889,617.961244 67.2312889,699.756089 112.071111,769.240178 C155.056356,755.780267 200.863289,744.584533 249.0368,735.926044 C231.571911,673.371022 221.252267,603.693511 219.784533,530.113422 L36.6819556,530.113422 Z M259.811556,770.833067 C215.665778,778.626844 173.636267,788.559644 133.973333,800.449422 C195.208533,880.514844 281.258667,940.555378 380.541156,969.147733 C330.251378,924.672 288.278756,855.529244 259.811556,770.833067 Z" id="path-1"></path>
    </defs>
    <g id="Symbols" stroke="none" stroke-width="1" fill="none" fill-rule="evenodd">
        <g id="planet">
            <mask id="mask-2" fill="white">
                <use xlink:href="#path-1"></use>
            </mask>
            <use id="Mask" fill="#000000" fill-rule="nonzero" xlink:href="#path-1"></use>
            <g id="null-mask" mask="url(#mask-2)"></g>
        </g>
    </g>
</svg>