<?xml version="1.0" encoding="UTF-8"?>
<svg width="1024px" height="1024px" viewBox="0 0 1024 1024" version="1.1" xmlns="http://www.w3.org/2000/svg" xmlns:xlink="http://www.w3.org/1999/xlink">
    <!-- Generator: Sketch 56.3 (81716) - https://sketch.com -->
    <title>plane</title>
    <desc>Created with Sketch.</desc>
    <defs>
        <path d="M215.936787,712.146489 C215.3678,712.749511 213.55842,713.534578 212.761837,713.580089 L80.8705533,689.641244 C68.0797161,687.286044 51.442524,692.462933 42.2249278,701.713067 L11.6589236,732.239644 C2.30477041,741.569422 -1.70090103,753.481956 0.666086636,764.939378 C3.04445405,776.385422 11.4427084,785.726578 23.7214569,790.596267 L168.938426,847.951644 C171.089199,848.816356 175.242807,852.946489 176.084908,855.119644 L233.484359,1000.32284 C239.265271,1014.93191 251.600918,1024 265.643528,1024 C275.03182,1024 284.351834,1019.89262 291.862468,1012.36053 L322.371574,981.833956 C331.737107,972.4928 336.823854,956.233956 334.456867,943.172267 L310.548015,811.554133 C310.525256,810.632533 311.287699,808.721067 311.731509,808.254578 C319.3787,802.736356 500.043585,672.426667 565.955088,606.526578 L605.374537,567.102578 L750.318392,933.774222 C756.099304,948.417422 768.434951,957.496889 782.477561,957.496889 C791.888613,957.496889 801.197247,953.366756 808.719261,945.8688 L856.70766,897.865956 C866.084572,888.502044 871.17132,872.254578 868.804332,859.192889 L787.02946,409.019733 C786.824625,407.404089 787.985359,403.638044 789.077815,402.443378 L921.003238,270.518044 C1017.57178,173.966222 1050.61857,72.1123556 1001.35564,22.8465778 C986.391272,7.89617778 965.771168,0 941.748519,0 C888.570955,0 818.25549,38.5592889 753.641278,103.162311 L621.715855,235.064889 C620.805475,235.884089 617.687424,237.135644 615.16112,237.135644 L615.14974,237.135644 L164.818957,155.352178 C152.0395,153.019733 135.425067,158.208 126.196091,167.446756 L78.1621732,215.472356 C68.80802,224.824889 64.8137283,236.737422 67.1920957,248.194844 C69.5590834,259.640889 77.9800972,268.970667 90.2588457,273.840356 L456.993997,418.759111 L417.574549,458.183111 C351.651666,524.071822 221.308028,704.694044 215.936787,712.146489 Z M483.224317,443.733333 C492.567091,434.403556 496.584142,422.468267 494.194395,411.0336 C491.827407,399.587556 483.429153,390.2464 471.139024,385.376711 L104.369734,240.446578 L151.755006,193.080889 C152.676766,192.273067 155.806196,190.998756 158.36664,190.998756 L608.663284,272.782222 C621.442741,275.114667 638.079933,269.937778 647.308909,260.7104 L779.257092,128.762311 C836.372049,71.68 898.630653,36.1927111 941.748519,36.1927111 C956.166661,36.1927111 967.591928,40.3342222 975.728448,48.4579556 C1008.27453,81.0097778 972.997308,167.298844 895.376045,244.883911 L763.484761,376.797867 C754.096468,386.1504 749.009721,402.432 751.388088,415.448178 L833.17434,865.609956 C833.379175,867.248356 832.207061,871.025778 831.125985,872.209067 L783.706574,919.665778 L638.751339,552.982756 C632.959047,538.339556 620.634779,529.248711 606.58079,529.248711 C597.181118,529.248711 587.861104,533.390222 580.36185,540.888178 L540.327895,580.9152 C476.487506,644.744533 292.397316,777.5232 290.519658,778.877156 C278.900935,787.273956 272.300681,803.6352 274.861124,817.755022 L298.792735,949.589333 C299.02033,951.204978 297.836836,955.005156 296.75576,956.188444 L266.849781,986.146133 L209.791723,841.784889 C205.273963,830.3616 193.700759,818.7904 182.252732,814.262044 L37.8892436,757.225244 L67.7952224,727.335822 C68.7056023,726.539378 71.8236533,725.265067 74.372717,725.265067 C74.372717,725.265067 74.372717,725.265067 74.3840967,725.265067 L206.29814,749.203911 C220.30661,751.661511 236.898284,745.028267 245.19412,733.513956 C246.514171,731.682133 379.338594,547.612444 443.190362,483.783111 L483.224317,443.733333 Z" id="path-1"></path>
    </defs>
    <g id="Symbols" stroke="none" stroke-width="1" fill="none" fill-rule="evenodd">
        <g id="plane">
            <mask id="mask-2" fill="white">
                <use xlink:href="#path-1"></use>
            </mask>
            <use id="15" fill="#000000" fill-rule="nonzero" xlink:href="#path-1"></use>
        </g>
    </g>
</svg>