<?xml version="1.0" encoding="UTF-8"?>
<svg width="1024px" height="1024px" viewBox="0 0 1024 1024" version="1.1" xmlns="http://www.w3.org/2000/svg" xmlns:xlink="http://www.w3.org/1999/xlink">
    <!-- Generator: Sketch 56.3 (81716) - https://sketch.com -->
    <title>puzzle</title>
    <desc>Created with Sketch.</desc>
    <defs>
        <path d="M909,358 C893.781333,358.088001 874.257067,364.986209 848,380 C843.480178,382.060981 839.668622,383.301748 837,383 C834.730667,383.301748 833.069511,382.743972 831,380 C829.428622,377.336961 826.447644,370.962379 826,358 L826,188 C826.447644,165.985427 808.470756,148 786,148 L666,148 C639.613156,148 619.747556,156.935798 610,173 C601.8048,187.374425 602.589867,205.02974 612,223 C627.950933,250.881196 629.634844,262.924602 630,267 C629.634844,309.538731 575.772444,345.646183 512,346 C448.238933,345.646183 394.365156,309.538731 394,267 C394.365156,262.924602 396.037689,250.903962 412,223 C421.410133,205.041123 422.206578,187.385809 414,173 C404.263822,156.935798 384.398222,148 358,148 L238,148 C215.529244,148 197.552356,165.985427 198,188 L198,358 C197.552356,367.296995 195.367822,383.290365 187,383 C184.342756,383.290365 180.5312,382.049598 176,380 C149.731556,364.974826 130.218667,358.076618 115,358 C51.6209778,358.088001 0,427.138381 0,512 C0,596.873002 51.6209778,665.923382 115,666 C130.161778,665.923382 149.686044,659.047941 176,644 C180.553956,641.973168 184.354133,640.732401 187,641 C195.367822,640.732401 197.552356,656.748538 198,666 L198,836 C197.552356,858.00319 215.529244,876 238,876 L358,876 C384.386844,876 404.252444,867.064202 414,851 C422.206578,836.602808 421.398756,818.947494 412,801 C396.037689,773.073271 394.365156,761.064015 394,757 C394.365156,714.449886 448.238933,678.353817 512,678 C575.761067,678.353817 629.634844,714.449886 630,757 C629.634844,761.075398 627.962311,773.096038 612,801 C602.589867,818.947494 601.793422,836.625575 610,851 C619.747556,867.064202 639.613156,876 666,876 L786,876 C808.459378,876 826.436267,858.00319 826,836 L826,666 C826.436267,656.759921 828.609422,640.743785 837,641 C839.634489,640.743785 843.434667,641.973168 848,644 C874.302578,659.059324 893.804089,665.934766 909,666 C972.379022,665.923382 1024,596.873002 1024,512 C1024,427.138381 972.379022,358.088001 909,358 Z M909,630 C905.266883,629.770608 893.268988,628.096063 865,613 C855.613354,607.272475 846.096996,604.561307 837,605 C815.464798,604.561307 790.353453,620.748572 790,666 L790,836 C790.353453,838.245715 788.60044,840 787,840 L666,840 C652.081691,840 643.601205,836.343341 641,833 C639.867515,830.032473 640.892003,824.849358 644,819 C659.025445,792.121694 665.923666,772.573949 666,757 C665.923666,693.881744 596.873159,642.221474 512,642 C427.126841,642.221474 358.076334,693.881744 358,757 C358.076334,772.551166 364.974555,792.110303 380,819 C383.096614,824.86075 384.121102,830.032473 383,833 C380.410178,836.33195 371.918309,840 358,840 L237,840 C235.39956,840 233.646547,838.245715 234,836 L234,666 C233.646547,620.748572 208.546585,604.561307 187,605 C177.914387,604.561307 168.386646,607.272475 159,613 C130.731012,628.084672 118.733117,629.770608 115,630 C72.1302851,629.770608 36,575.854828 36,512 C36,448.167955 72.1189019,394.229392 115,394 C118.7445,394.229392 130.765162,395.903937 159,411 C168.398029,416.750308 177.903004,419.461476 187,419 C208.546585,419.450084 233.65793,403.285603 234,358 L234,188 C233.65793,185.765676 235.422326,184 237,184 L358,184 C371.929692,184 380.410178,187.66805 383,191 C384.121102,193.967527 383.085231,199.13925 380,205 C364.974555,231.91248 358.076334,251.448834 358,267 C358.076334,330.129647 427.126841,381.801309 512,382 C596.873159,381.801309 665.923666,330.129647 666,267 C665.923666,251.426051 659.025445,231.878306 644,205 C640.892003,199.150642 639.867515,193.978919 641,191 C643.589822,187.66805 652.081691,184 666,184 L787,184 C788.589057,184 790.34207,185.765676 790,188 L790,358 C790.34207,375.068957 794.030228,389.331064 801,400 C814.918404,420.384184 840.200497,425.282512 865,411 C893.246222,395.915328 905.2555,394.240784 909,394 C951.881098,394.240784 988,448.179346 988,512 C988,575.843437 951.892481,629.770608 909,630 Z" id="path-1"></path>
    </defs>
    <g id="Symbols" stroke="none" stroke-width="1" fill="none" fill-rule="evenodd">
        <g id="puzzle">
            <mask id="mask-2" fill="white">
                <use xlink:href="#path-1"></use>
            </mask>
            <use id="67" fill="#000000" fill-rule="nonzero" xlink:href="#path-1"></use>
        </g>
    </g>
</svg>