<?xml version="1.0" encoding="UTF-8"?>
<svg width="1024px" height="1024px" viewBox="0 0 1024 1024" version="1.1" xmlns="http://www.w3.org/2000/svg" xmlns:xlink="http://www.w3.org/1999/xlink">
    <!-- Generator: Sketch 56.3 (81716) - https://sketch.com -->
    <title>rocket</title>
    <desc>Created with Sketch.</desc>
    <defs>
        <path d="M714,202 C684.771442,202 657.766199,213.230997 637,234 C595.522409,275.736909 595.511053,344.251689 637,386 C657.766199,406.769003 684.771442,418 713,418 C742.234237,418 769.239479,406.769003 790,386 C831.483269,344.263091 831.483269,275.748311 790,234 C769.262191,213.230997 742.256949,202 714,202 Z M764,361 C750.574758,374.565228 732.598428,382 713,382 C694.393038,382 676.428085,374.542491 663,361 C635.025639,333.173782 635.025639,287.837586 663,260 C676.439463,246.44614 694.415793,239 714,239 C732.63256,239 750.597513,246.434772 764,260 C791.977204,287.826218 791.965827,333.173782 764,361 Z M1008,110 C1001.9774,89.8191718 994.615921,73.320844 994,73 C986.708308,55.7302132 968.253418,37.2748425 951,30 C950.663246,29.3670233 934.415661,22.096381 914,16 C880.359446,5.35911197 845.702483,0 811,0 C627.270317,0 472.520036,153.570986 365,305 L205,251 C185.069768,244.687267 158.855178,250.888363 144,266 L17,392 C3.22880193,406.507417 -2.66492981,423.768081 1,440 C4.91272529,455.82035 17.8834863,468.620776 37,475 L226,538 C206.027788,576.451571 199.622052,592.176184 199,593 C188.722062,619.324466 196.106293,655.507006 216,675 L349,808 C361.881721,821.25262 383.328988,829.547296 404,830 C414.026455,829.547296 422.889809,827.942976 431,825 C431.787296,824.358856 447.443232,817.987088 486,798 L549,987 C555.350861,1006.11354 568.139576,1019.08464 584,1023 C587.345404,1023.62452 590.576717,1024 594,1024 C606.926702,1024 620.227421,1017.99233 631,1007 L758,880 C773.088977,865.126793 779.278533,838.922897 773,819 L719,659 C900.60066,530.495194 1078.77796,338.807382 1008,110 Z M48,441 C41.3917108,438.81226 36.9785412,435.414678 36,432 C35.3292897,428.425694 37.7747316,423.409131 43,419 L169,291 C174.548864,286.320146 186.400727,283.50403 193,286 L343,336 C311.368494,382.900385 284.400388,428.608114 263,468 C255.134705,482.194128 248.446706,494.644326 242,506 L48,441 Z M739,831 C741.487907,837.596446 738.694408,849.419124 734,855 L606,981 C601.573537,986.250418 596.545239,988.685503 593,988 C589.578596,987.024183 586.18079,982.59779 584,976 L519,781 C530.196798,775.524537 542.499594,768.924774 556,761 C597.081135,739.112051 642.780491,712.155433 689,681 L739,831 Z M539,729 C450.619764,777.323024 418.022266,790.667794 418,791 C414.108291,792.249143 409.659557,793 405,793 C393.286852,793 381.067058,788.540367 374,782 L242,650 C232.279108,639.768365 228.057931,619.142561 233,606 C233.348624,606.00257 246.797225,573.146904 295,485 C386.949398,317.161677 576.105907,36 812,36 C842.415516,36 873.477006,40.8009318 904,50 C921.844183,55.7839345 936.726391,62.4051247 937,62 C945.635236,66.4324466 957.672986,78.4461527 962,87 C961.689361,87.3767959 968.390906,102.393928 974,120 C1059.08363,396.342922 737.8077,620.223339 539,729 Z M324,872 C332.773421,867.663093 343.637635,871.257891 348,880 C352.556529,889.118121 348.92754,899.982146 340,904 C327.984065,910.459389 250.137135,948 182,948 C151.631134,948 123.441057,940.82178 103,921 C37.1416545,854.535255 110.915926,701.278555 120,684 C124.02124,675.068383 134.874079,671.439457 144,676 C152.768748,680.380948 156.409113,691.244973 152,700 C131.768392,740.62794 88.311535,854.466999 129,895 C169.559931,935.725358 283.389594,892.235129 324,872 Z" id="path-1"></path>
    </defs>
    <g id="Symbols" stroke="none" stroke-width="1" fill="none" fill-rule="evenodd">
        <g id="rocket">
            <mask id="mask-2" fill="white">
                <use xlink:href="#path-1"></use>
            </mask>
            <use id="Shape" fill="#000000" fill-rule="nonzero" xlink:href="#path-1"></use>
            <g id="null-mask" mask="url(#mask-2)"></g>
        </g>
    </g>
</svg>