<?xml version="1.0" encoding="UTF-8"?>
<svg width="1024px" height="1024px" viewBox="0 0 1024 1024" version="1.1" xmlns="http://www.w3.org/2000/svg" xmlns:xlink="http://www.w3.org/1999/xlink">
    <!-- Generator: Sketch 56.3 (81716) - https://sketch.com -->
    <title>settings</title>
    <desc>Created with Sketch.</desc>
    <g id="Symbols" stroke="none" stroke-width="1" fill="none" fill-rule="evenodd">
        <g id="settings" fill="#000000" fill-rule="nonzero">
            <path d="M512.244444,312.809244 C402.426133,312.809244 313.053689,402.181689 313.053689,512.022756 C313.053689,621.863822 402.426133,711.224889 512.244444,711.224889 C622.062756,711.224889 711.4352,621.863822 711.4352,512.022756 C711.4352,402.181689 622.062756,312.809244 512.244444,312.809244 Z M512.244444,674.998044 C422.394133,674.998044 349.291911,601.873067 349.291911,512.022756 C349.291911,422.161067 422.394133,349.047467 512.244444,349.047467 C602.094756,349.047467 675.196978,422.161067 675.196978,512.022756 C675.196978,601.873067 602.094756,674.998044 512.244444,674.998044 Z" id="Shape"></path>
            <path d="M896.722311,437.668978 L956.364622,403.239822 C973.192356,393.511822 985.2528,377.776356 990.304533,358.912 C995.344889,340.036267 992.796267,320.364089 983.068267,303.547733 L928.193244,208.497778 C918.476622,191.670044 902.741156,179.598222 883.865422,174.546489 C865.023822,169.506133 845.328889,172.054756 828.501156,181.782756 L768.847467,216.211911 C760.735111,220.910933 746.160178,219.761778 738.867022,213.833956 C738.195733,213.287822 722.437511,200.544711 699.6592,187.392 C677.142578,174.353067 657.9824,166.980267 657.185956,166.673067 C648.413689,163.305244 640.119289,151.256178 640.119289,141.835378 L640.119289,72.9998222 C640.107911,32.7338667 607.362667,0 567.119467,0 L457.369422,0 C417.126222,0 384.380978,32.7338667 384.380978,72.9884444 L384.380978,141.846756 C384.380978,151.233422 376.086578,163.305244 367.314311,166.673067 C366.517867,166.980267 347.357689,174.375822 324.841067,187.392 C302.062756,200.544711 286.304533,213.287822 285.656,213.822578 C278.374222,219.7504 263.810667,220.910933 255.664178,216.211911 L195.987733,181.76 C179.16,172.043378 159.510578,169.494756 140.623467,174.535111 C121.759111,179.586844 106.012267,191.658667 96.2956444,208.475022 L41.4206222,303.524978 C31.704,320.352711 29.144,340.024889 34.1957333,358.877867 C39.2474667,377.764978 51.3079111,393.500444 68.1242667,403.217067 L127.777956,437.6576 C135.901689,442.345244 142.1936,455.543467 140.691733,464.804978 C140.5552,465.624178 137.449067,485.250844 137.449067,512 C137.449067,538.749156 140.5552,558.353067 140.691733,559.172267 C142.182222,568.4224 135.890311,581.632 127.777956,586.319644 L68.1242667,620.7488 C51.2965333,630.465422 39.2474667,646.212267 34.1957333,665.099378 C29.144,683.952356 31.704,703.647289 41.4206222,720.463644 L96.2956444,815.5136 C116.434311,850.352356 161.1376,862.321778 196.010489,842.228622 L255.6528,807.799467 C263.776533,803.089067 278.351467,804.260978 285.621867,810.177422 C286.293156,810.723556 302.062756,823.478044 324.841067,836.642133 C347.369067,849.681067 366.529244,857.065244 367.325689,857.361067 C376.097956,860.728889 384.392356,872.789333 384.392356,882.187378 L384.392356,951.000178 C384.392356,991.232 417.1376,1023.98862 457.3808,1023.98862 L567.130844,1023.98862 C607.374044,1023.98862 640.119289,991.232 640.119289,951.000178 L640.119289,882.187378 C640.119289,872.800711 648.413689,860.728889 657.185956,857.361067 C657.9824,857.065244 677.165333,849.669689 699.681956,836.642133 C722.471644,823.478044 738.252622,810.723556 738.901156,810.177422 C746.182933,804.260978 760.780622,803.111822 768.892978,807.799467 L828.501156,842.205867 C845.328889,851.933867 865.012444,854.493867 883.865422,849.453511 C902.741156,844.401778 918.488,832.318578 928.193244,815.502222 L983.068267,720.452267 C992.784889,703.624533 995.344889,683.963733 990.304533,665.110756 C985.2528,646.223644 973.180978,630.465422 956.353244,620.760178 L896.733689,586.331022 C888.609956,581.643378 882.318044,568.456533 883.808533,559.183644 C883.956444,558.364444 887.0512,538.749156 887.0512,512.011378 C887.0512,485.239467 883.933689,465.635556 883.797156,464.816356 C882.306667,455.554844 888.598578,442.356622 896.722311,437.668978 Z M848.059556,470.539378 C848.070933,470.721422 850.824356,488.322844 850.824356,512.011378 C850.824356,535.699911 848.082311,553.289956 848.059556,553.437867 C844.213867,577.365333 857.651022,605.5936 878.631644,617.699556 L938.262578,652.117333 C946.716267,657.009778 952.769244,664.940089 955.329244,674.486044 C957.889244,683.997867 956.592178,693.907911 951.722489,702.350222 L896.847467,797.400178 C891.955022,805.865244 884.036089,811.906844 874.501511,814.478222 C864.989689,817.038222 855.079644,815.741156 846.614578,810.860089 L787.017778,776.465067 C766.059911,764.336356 734.8848,766.816711 716.088711,782.074311 C715.952178,782.210844 701.729956,793.668267 681.591289,805.296356 C661.657422,816.810667 644.385956,823.523556 644.226667,823.569067 C621.6304,832.238933 603.9152,857.998222 603.9152,882.198756 L603.9152,951.011556 C603.9152,971.286756 587.4288,987.773156 567.1536,987.773156 L457.403556,987.773156 C437.128356,987.773156 420.641956,971.286756 420.641956,951.011556 L420.641956,882.198756 C420.641956,857.998222 402.938133,832.227556 380.330489,823.557689 C380.148444,823.489422 363.0704,816.913067 342.977244,805.296356 C322.838578,793.668267 308.616356,782.210844 308.4912,782.074311 C289.683733,766.816711 258.497244,764.324978 237.573511,776.465067 L197.296178,799.698489 L197.3872,799.880533 C193.723556,801.792 187.955022,805.102933 177.942578,810.871467 C160.352533,821.020444 137.835911,814.967467 127.709689,797.434311 L72.8346667,702.384356 C67.9536,693.919289 66.6679111,684.009244 69.2279111,674.497422 C71.7765333,664.951467 77.8408889,657.021156 86.2832,652.128711 C97.4675556,645.688889 102.815111,642.616889 105.602667,640.910222 L105.6368,640.967111 L145.88,617.699556 C166.860622,605.5936 180.275022,577.353956 176.440711,553.460622 C176.417956,553.289956 173.675911,535.688533 173.675911,512.011378 C173.675911,488.322844 176.417956,470.710044 176.440711,470.562133 C180.297778,446.634667 166.872,418.4064 145.88,406.300444 C109.061511,385.035378 105.511644,382.987378 105.511644,382.987378 C105.511644,382.987378 105.545778,383.021511 105.591289,383.044267 L86.2263111,371.859911 C77.784,366.990222 71.7196444,359.048533 69.1710222,349.513956 C66.6110222,339.990756 67.9080889,330.092089 72.7777778,321.627022 L127.6528,226.577067 C132.533867,218.134756 140.4528,212.0704 149.998756,209.521778 C159.510578,206.961778 169.420622,208.258844 177.862933,213.105778 L237.539378,247.557689 C258.531378,259.675022 289.672356,257.206044 308.457067,241.937067 C308.604978,241.811911 322.804444,230.388622 342.954489,218.737778 C362.8656,207.223467 380.125689,200.521956 380.2736,200.476444 C402.869867,191.806578 420.585067,166.070044 420.585067,141.846756 L420.585067,72.9884444 C420.585067,52.7132444 437.071467,36.2154667 457.346667,36.2154667 L567.096711,36.2154667 C587.371911,36.2154667 603.858311,52.7132444 603.858311,72.9884444 L603.858311,141.824 C603.858311,166.047289 621.573511,191.806578 644.1584,200.465067 C644.340444,200.533333 661.589156,207.223467 681.511644,218.7264 C701.650311,230.365867 715.861156,241.800533 715.997689,241.925689 C734.771022,257.194667 765.968889,259.675022 786.915378,247.557689 L846.569067,213.139911 C855.011378,208.247467 864.887289,206.961778 874.456,209.533156 C883.990578,212.081778 891.909511,218.134756 896.790578,226.577067 L951.6656,321.627022 C956.546667,330.092089 957.832356,340.002133 955.272356,349.513956 C952.712356,359.048533 946.659378,366.990222 938.205689,371.859911 L878.608889,406.300444 C857.628267,418.4064 844.202489,446.634667 848.059556,470.539378 Z" id="Shape"></path>
        </g>
    </g>
</svg>