<?xml version="1.0" encoding="UTF-8"?>
<svg width="1024px" height="1024px" viewBox="0 0 1024 1024" version="1.1" xmlns="http://www.w3.org/2000/svg" xmlns:xlink="http://www.w3.org/1999/xlink">
    <!-- Generator: Sketch 56.3 (81716) - https://sketch.com -->
    <title>settings</title>
    <desc>Created with Sketch.</desc>
    <defs>
        <path d="M512,313 C402.286857,313 313,402.279207 313,512 C313,621.732159 402.286857,711 512,711 C621.713143,711 711,621.732159 711,512 C711,402.279207 621.713143,313 512,313 Z M513,675 C423.123516,675 350,601.863935 350,512 C350,422.124686 423.123516,349 513,349 C602.876484,349 676,422.124686 676,512 C676,601.863935 602.876484,675 513,675 Z M897,438 L957,403 C973.36528,393.516195 985.423639,377.780553 990,359 C995.513983,340.040045 992.965802,320.367649 983,304 L928,209 C918.659005,191.672174 902.926259,179.600218 884,175 C865.215446,169.508017 845.523917,172.056667 829,182 L769,216 C760.944763,220.913388 746.37235,219.76422 739,214 C738.409282,213.290192 722.653784,200.546939 700,187 C677.366681,174.355004 658.209815,166.982122 657,167 C648.642759,163.307059 640.349792,151.257858 640,142 L640,73 C640.338417,32.7342304 607.598833,0 567,0 L458,0 C417.395275,0 384.655692,32.7342304 385,73 L385,142 C384.655692,151.235103 376.362726,163.307059 368,167 C366.795669,166.982122 347.638803,174.37776 325,187 C302.3517,200.546939 286.596202,213.290192 286,214 C278.667262,219.752842 264.106224,220.913388 256,216 L196,182 C179.470191,172.045289 159.824166,169.496639 141,175 C122.079225,179.58884 106.335103,191.660796 97,208 L42,304 C32.0396824,320.356271 29.480125,340.028667 35,359 C39.581845,377.769175 51.6402045,393.504817 68,403 L128,438 C136.219358,442.350159 142.510182,455.548528 141,465 C140.872065,465.629351 137.766469,485.256236 138,512 C137.766469,538.755142 140.872065,558.359271 141,559 C142.498806,568.428716 136.207982,581.638463 128,586 L68,621 C51.6288287,630.472427 39.581845,646.219447 35,665 C29.480125,683.959955 32.0396824,703.655107 42,720 L97,816 C116.755346,850.361804 161.450907,862.331359 196,842 L256,808 C264.072097,803.09799 278.64451,804.269914 286,810 C286.584826,810.732564 302.3517,823.487194 325,837 C347.650179,849.690508 366.807044,857.074767 368,857 C376.374101,860.738453 384.667067,872.799031 385,882 L385,951 C384.667067,991.243014 417.406651,1024 458,1024 L567,1024 C607.610209,1024 640.349792,991.243014 640,951 L640,882 C640.349792,872.810409 648.642759,860.738453 657,857 C658.209815,857.074767 677.389433,849.67913 700,837 C722.687911,823.487194 738.466161,810.732564 739,810 C746.395101,804.269914 760.990267,803.120746 769,808 L829,842 C845.523917,851.943333 865.20407,854.503361 884,849 C902.926259,844.41116 918.670381,832.327826 928,816 L983,720 C992.954426,703.632351 995.513983,683.971333 990,665 C985.423639,646.230825 973.353904,630.472427 957,621 L897,586 C888.797502,581.649841 882.506678,568.46285 884,559 C884.144795,558.370649 887.239016,538.755142 887,512 C887.239016,485.244858 884.122043,465.640729 884,465 C882.495302,455.559906 888.786126,442.361537 897,438 Z M848,471 C848.42355,470.707926 851.177815,488.31753 851,512 C851.177815,535.716619 848.434932,553.31484 848,553 C844.565304,577.401409 858.006571,605.642797 879,618 L939,652 C947.099066,657.082874 953.153896,665.016871 956,675 C958.275462,684.083508 956.977999,693.998159 952,702 L897,798 C892.321066,806.007533 884.39971,812.051941 875,815 C865.347483,817.185704 855.434406,815.888035 847,811 L787,777 C766.387435,764.45934 735.202786,766.940849 716,782 C716.264371,782.342138 702.037797,793.804886 682,805 C661.953003,816.958043 644.676252,823.674052 645,824 C621.913734,832.393481 604.193113,858.164744 604,882 L604,951 C604.193113,971.505937 587.701669,988 567,988 L458,988 C437.355237,988 420.863793,971.505937 421,951 L421,882 C420.863793,858.164744 403.154554,832.382098 381,824 C380.357892,823.639903 363.274622,817.06049 343,805 C323.030491,793.804886 308.803917,782.342138 309,782 C289.865502,766.940849 258.669471,764.447957 238,777 L197,800 L198,800 C193.875963,801.932395 188.105665,805.244867 178,811 C160.494731,821.169777 137.971219,815.113986 128,798 L73,702 C68.0675261,694.009542 66.7814438,684.094891 69,675 C71.8916291,665.028254 77.9578402,657.094257 86,652 C97.590512,645.756723 102.939704,642.683295 106,641 L106,641 L146,618 C167.004811,605.642797 180.423315,577.390025 177,553 C176.565068,553.31484 173.822185,535.705236 174,512 C173.822185,488.31753 176.565068,470.696543 177,471 C180.446078,446.609975 167.016192,418.368587 146,406 C109.188015,384.982053 105.637062,382.933101 106,383 C105.637062,382.933101 105.671206,382.96725 106,383 L86,372 C77.9009339,366.928509 71.8347228,358.983129 69,349 C66.7245375,339.916492 68.0220011,330.013224 73,322 L128,226 C132.667552,218.00385 140.588909,211.936676 150,209 C159.652517,206.825679 169.565594,208.123348 178,213 L238,247 C258.703615,259.563426 289.854121,257.0933 309,242 C308.792536,241.692012 322.996347,230.263413 343,219 C363.06976,207.087489 380.33513,200.382863 380,200 C403.086266,191.663434 420.806887,165.914938 421,142 L421,73 C420.806887,52.5054464 437.298331,36 458,36 L567,36 C587.644763,36 604.136207,52.5054464 604,73 L604,142 C604.136207,165.892172 621.856827,191.663434 644,200 C644.630727,200.394246 661.884715,207.087489 682,219 C701.958128,230.240647 716.173321,241.680628 716,242 C735.088973,257.081917 766.296385,259.563426 787,247 L847,213 C855.366118,208.111965 865.245051,206.825679 875,209 C884.354185,211.948059 892.275541,218.00385 897,226 L952,322 C956.932474,330.013224 958.218556,339.927875 956,349 C953.09699,358.983129 947.04216,366.928509 939,372 L879,406 C857.983808,418.368587 844.553922,446.609975 848,471 Z" id="path-1"></path>
    </defs>
    <g id="Symbols" stroke="none" stroke-width="1" fill="none" fill-rule="evenodd">
        <g id="settings">
            <mask id="mask-2" fill="white">
                <use xlink:href="#path-1"></use>
            </mask>
            <use id="Shape" fill="#000000" fill-rule="nonzero" xlink:href="#path-1"></use>
        </g>
    </g>
</svg>