<?xml version="1.0" encoding="UTF-8"?>
<svg width="1024px" height="1024px" viewBox="0 0 1024 1024" version="1.1" xmlns="http://www.w3.org/2000/svg" xmlns:xlink="http://www.w3.org/1999/xlink">
    <!-- Generator: Sketch 56.3 (81716) - https://sketch.com -->
    <title>share-ios</title>
    <desc>Created with Sketch.</desc>
    <g id="Symbols" stroke="none" stroke-width="1" fill="none" fill-rule="evenodd">
        <g id="share-ios" fill="#000000">
            <path d="M127,1019 L127,288.396226 L406.656956,288.396226 L406.656956,322.3778 L161.957122,322.3778 L161.957122,985.018426 L861.099482,985.018426 L861.099482,322.3778 L616.399648,322.3778 L616.399648,288.396226 L896.056604,288.396226 L896.056604,1019 L127,1019 L127,1019 Z M367.330189,144.198113 L396.169811,173.037736 C396.169811,173.037736 460.247915,108.959632 492.286967,76.9205801 C494.866171,74.3413757 492.286967,620.238133 492.286967,620.238133 L531.437947,620.238133 C531.437947,620.238133 528.534739,74.6856631 531.437947,77.5888903 L626.886792,173.037736 L655.726415,144.198113 L511.528302,0 L367.330189,144.198113 L367.330189,144.198113 Z" id="share"></path>
        </g>
    </g>
</svg>