<?xml version="1.0" encoding="UTF-8"?>
<svg width="1024px" height="1024px" viewBox="0 0 1024 1024" version="1.1" xmlns="http://www.w3.org/2000/svg" xmlns:xlink="http://www.w3.org/1999/xlink">
    <!-- Generator: Sketch 56.3 (81716) - https://sketch.com -->
    <title>share</title>
    <desc>Created with Sketch.</desc>
    <defs>
        <path d="M841.250133,365.4656 C942.011733,365.4656 1024,283.488711 1024,182.738489 C1024,81.9655111 942.023111,0 841.250133,0 C740.499911,0 658.511644,81.9655111 658.511644,182.749867 C658.511644,204.367644 662.482489,225.041067 669.422933,244.315022 L330.706489,405.1968 C297.483378,359.287467 243.620978,329.250133 182.738489,329.250133 C81.9882667,329.250133 0,411.227022 0,512 C0,612.738844 81.9882667,694.749867 182.738489,694.749867 C243.620978,694.749867 297.483378,664.712533 330.706489,618.8032 L669.422933,779.684978 C662.493867,798.970311 658.523022,819.643733 658.523022,841.261511 C658.523022,942.011733 740.499911,1024 841.250133,1024 C942.023111,1024 1024,942.011733 1024,841.250133 C1024,740.488533 942.023111,658.511644 841.250133,658.511644 C775.008711,658.511644 717.050311,694.0672 684.999111,746.962489 L349.001956,587.389156 C359.480889,564.371911 365.488356,538.897067 365.488356,512 C365.488356,485.102933 359.492267,459.616711 349.001956,436.610844 L685.010489,277.003378 C717.061689,329.921422 775.008711,365.4656 841.250133,365.4656 Z M841.250133,36.2154667 C922.055111,36.2154667 987.773156,101.944889 987.773156,182.749867 C987.773156,263.543467 922.055111,329.261511 841.250133,329.261511 C760.456533,329.261511 694.738489,263.543467 694.738489,182.749867 C694.749867,101.944889 760.467911,36.2154667 841.250133,36.2154667 Z M182.738489,658.523022 C101.944889,658.523022 36.2268444,592.804978 36.2268444,512 C36.2268444,431.195022 101.956267,365.4656 182.738489,365.4656 C263.532089,365.4656 329.261511,431.195022 329.261511,512 C329.261511,592.804978 263.532089,658.523022 182.738489,658.523022 Z M841.250133,694.749867 C922.055111,694.749867 987.773156,760.467911 987.773156,841.261511 C987.773156,922.066489 922.055111,987.784533 841.250133,987.784533 C760.456533,987.784533 694.738489,922.066489 694.738489,841.261511 C694.749867,760.467911 760.467911,694.749867 841.250133,694.749867 Z" id="path-1"></path>
    </defs>
    <g id="Symbols" stroke="none" stroke-width="1" fill="none" fill-rule="evenodd">
        <g id="share">
            <mask id="mask-2" fill="white">
                <use xlink:href="#path-1"></use>
            </mask>
            <use id="120" fill="#000000" fill-rule="nonzero" xlink:href="#path-1"></use>
            <g id="null-mask" mask="url(#mask-2)"></g>
        </g>
    </g>
</svg>