<?xml version="1.0" encoding="UTF-8"?>
<svg width="1024px" height="1024px" viewBox="0 0 1024 1024" version="1.1" xmlns="http://www.w3.org/2000/svg" xmlns:xlink="http://www.w3.org/1999/xlink">
    <!-- Generator: Sketch 56.3 (81716) - https://sketch.com -->
    <title>shield</title>
    <desc>Created with Sketch.</desc>
    <defs>
        <path d="M950,143 C868.228192,163.51289 792.827215,164.321087 727,146 C663.654544,127.963638 607.447991,92.0273629 560,39 C546.474121,24.1502608 529.498377,16 512,16 C494.454615,16 477.501627,24.1502608 464,39 C414.764191,93.9852467 356.213802,130.54759 290,148 C225.914724,164.264171 152.868961,162.795759 74,143 C51.5947657,137.79859 29.4876134,143.21692 16,158 C4.94560238,168.658027 -0.538518772,184.093437 0,201 C6.072009,377.115745 41.6846629,530.115263 106,656 C185.50062,812.175755 309.45086,928.544632 474,1002 C484.55589,1006.46158 497.958991,1009 512,1009 C526.016756,1009 539.431235,1006.46158 550,1002 C716.629789,927.656755 841.581279,809.273078 921,650 C983.428869,525.345767 1018.01752,374.372431 1024,201 C1024.5484,184.116203 1019.0529,168.66941 1008,158 C994.454001,143.21692 972.346849,137.787207 950,143 Z M889,633 C813.181049,784.85454 694.126943,897.515151 535,968 C523.747189,973.252037 500.173133,973.252037 489,968 C331.85369,898.368813 213.767134,787.620405 138,639 C76.1588463,517.908763 41.8734495,370.043135 36,200 C35.7721969,192.208281 37.6048493,186.300941 41,182 C45.6981153,177.900907 51.9018142,176.956188 56,177 C59.1982748,176.956188 62.271667,177.354564 65,178 C149.908875,198.969284 229.031648,200.392054 299,182 C372.228956,163.354508 436.838489,123.152722 491,63 C503.986416,48.4288476 519.968055,48.4174654 533,63 C585.226415,121.001494 647.20649,160.508968 717,180 C789.197207,200.437582 870.938055,199.74327 959,178 C961.716953,177.354564 964.778962,176.944806 968,177 C972.086805,176.944806 978.279121,177.900907 983,182 C986.395153,186.289558 988.227806,192.196899 988,200 C982.206234,367.402474 948.877003,513.333135 889,633 Z M750,312 C742.191014,305.689676 730.801205,307.065942 725,315 L470,640 C467.936694,642.51096 465.854441,643.807607 464,644 C462.475047,643.762111 459.949035,642.476837 458,640 L343,491 C337.380577,482.682078 326.024903,481.19207 318,487 C310.151992,493.350986 308.650039,504.725088 315,513 L429,662 C438.034177,673.391647 450.561829,679.931755 464,680 C463.817702,680 463.874594,680 464,680 C477.039438,680 489.555712,673.607755 498,662 L753,337 C759.315553,329.404679 757.927384,318.019203 750,312 Z" id="path-1"></path>
    </defs>
    <g id="Symbols" stroke="none" stroke-width="1" fill="none" fill-rule="evenodd">
        <g id="shield">
            <mask id="mask-2" fill="white">
                <use xlink:href="#path-1"></use>
            </mask>
            <use id="Shape" fill="#000000" fill-rule="nonzero" xlink:href="#path-1"></use>
        </g>
    </g>
</svg>