<?xml version="1.0" encoding="UTF-8"?>
<svg width="1024px" height="1024px" viewBox="0 0 1024 1024" version="1.1" xmlns="http://www.w3.org/2000/svg" xmlns:xlink="http://www.w3.org/1999/xlink">
    <!-- Generator: Sketch 56.3 (81716) - https://sketch.com -->
    <title>thumb-up</title>
    <desc>Created with Sketch.</desc>
    <defs>
        <path d="M251.059109,957.866441 C266.858564,957.23442 276.903066,956.848239 287.37265,956.482246 C365.55557,953.749143 414.496582,954.521379 449.842885,960.979525 C500.09326,970.194666 565.628588,979.491988 622.515181,984.668067 C695.27102,991.28808 749.978582,990.908178 775.284238,982.470603 C792.650815,976.680128 801.947228,967.381119 806.066393,955.020174 C809.147504,945.774258 809.147504,935.30528 807.183389,925.481961 C806.89839,924.056569 806.598878,922.798266 806.309418,921.736616 C803.592528,913.459306 806.392435,905.298275 812.90268,900.9569 C813.880843,900.285861 814.465496,899.875818 815.133515,899.398528 C817.087913,898.002139 819.28481,896.368093 821.66151,894.519033 C828.468309,889.223377 835.276163,883.321589 841.576029,877.019964 C858.186596,860.404758 867.812757,844.356676 867.812757,831.857446 C867.812757,816.359261 864.557841,803.335961 859.204716,792.626722 C857.400289,789.016859 855.504591,785.982895 853.665897,783.530619 C852.015948,781.486093 851.932912,781.394068 851.876339,781.333166 C842.749816,772.124867 846.748304,756.351287 859.296082,752.581921 C862.29001,751.4237 864.177934,750.564445 866.252352,749.477653 C872.351673,746.282207 878.504654,741.958492 884.254815,736.375641 C897.373663,723.638505 906.465162,706.349734 909.743199,683.222046 C913.402288,657.483198 907.163269,640.216108 894.689504,628.380089 C891.193648,625.062965 887.435931,622.436369 883.720599,620.458338 C882.47029,619.792678 881.343322,619.264892 880.382412,618.867649 C859.298576,611.936328 866.965573,581.435914 887.983202,584.999549 C889.680122,585.024554 890.39092,584.964462 891.12737,584.842478 C893.008445,584.530902 894.821751,583.861618 896.530578,582.741175 C899.490193,580.800615 902.168413,577.536295 904.436597,572.217047 C907.685575,564.597679 909.570437,553.808512 909.570437,539.472054 C909.570437,520.912657 901.296213,509.861602 882.46539,501.496895 C865.694983,494.04743 847.10665,490.415882 803.497374,484.648623 C798.065945,483.930325 797.810953,483.896558 795.749624,483.621637 C759.112244,478.735289 738.981683,474.959755 719.116006,468.020597 C691.488635,458.370249 671.789164,443.79678 660.855735,421.923815 C659.651359,419.514391 659.024355,416.857697 659.024355,414.16403 C659.024355,386.944953 666.415102,360.102008 680.387253,331.761679 C690.918721,310.400238 703.112875,291.358493 724.836134,260.575282 C726.263806,258.552182 734.255255,247.264374 736.510527,244.062545 C740.905019,237.823647 744.401074,232.79165 747.657661,227.995891 C755.599542,216.300412 761.785816,206.465241 766.89552,197.236809 C778.565283,176.16052 784.297396,158.618086 784.297396,142.663309 C784.297396,105.056796 779.902839,74.9142737 772.352587,54.7746461 C769.260628,46.5271201 765.83228,40.5414223 762.564919,37.0552647 C761.499136,35.9181117 760.594801,35.2013606 759.91499,34.8344493 C755.823577,37.262125 750.32216,43.7645945 742.975399,55.287036 C739.513094,60.7172122 735.707317,67.1130327 730.652833,75.9260103 C728.176462,80.2438003 718.321149,97.6311253 716.012325,101.672118 C702.117482,125.991399 690.811148,144.623646 677.757404,164.044236 C660.97567,189.011111 643.174258,212.23056 623.414403,234.328416 C593.54801,267.728625 559.950559,297.685973 521.559182,324.078607 C509.601593,332.297317 495.480295,345.035673 478.514661,362.636771 C465.067948,376.587143 452.463029,390.634444 429.183715,417.247583 C428.482819,418.048854 427.754408,418.881757 426.85359,419.911932 C394.698574,456.684394 381.833862,470.993883 365.47299,487.454615 C342.793579,510.272451 324.265344,525.103027 307.507856,532.427585 C254.290865,555.674203 167.415881,575.885813 118.992466,577.595065 C118.5239,578.941195 118.058111,580.548651 117.608815,582.39921 C115.241931,592.147924 113.66834,607.120413 113.032553,626.199348 C111.792535,663.41028 114.168654,714.341348 119.480736,767.476995 C124.794427,820.628752 132.605147,871.582451 141.296837,908.842954 C145.774554,928.038528 150.377148,943.126873 154.782141,953.076409 C156.246808,956.384646 157.618343,958.951608 158.769696,960.687262 C179.4841,960.613014 198.381881,959.973673 251.059109,957.866441 Z M838.996649,965.993861 C831.423663,988.719163 813.99516,1006.15253 786.263443,1015.39902 C754.774344,1025.89832 697.001627,1026.29951 619.369879,1019.23584 C561.377164,1013.95911 494.815041,1004.51612 443.593044,995.122795 C411.595198,989.276452 364.193982,988.528512 288.585315,991.171625 C278.188243,991.535084 268.191953,991.919411 252.446516,992.549271 C195.548385,994.825351 177.680695,995.405425 154.408635,995.405425 C145.887101,995.405425 138.968879,991.20729 133.352479,984.571893 C129.571343,980.104737 126.22486,974.31497 123.043101,967.128345 C117.603873,954.842788 112.422403,937.856759 107.493767,916.728135 C98.4239443,877.846609 90.3942936,825.464698 84.9423334,770.929871 C79.4887627,716.378934 77.0439001,663.974391 78.341241,625.043294 C79.0492187,603.798033 80.8466074,586.696147 83.878167,574.209768 C85.7061266,566.680774 88.0278251,560.539613 91.204911,555.625222 C96.1273089,548.011141 103.381268,543.001441 112.650955,543.001441 C154.467324,543.001441 242.194923,523.080268 293.609641,500.620932 C305.32597,495.499822 321.034115,482.926534 340.85435,462.985325 C356.492591,447.251635 369.099018,433.229437 400.723871,397.06327 C401.625869,396.031745 402.355487,395.197462 403.057856,394.394507 C426.697488,367.36945 439.566389,353.027959 453.523595,338.547973 C471.969797,319.410851 487.649825,305.266416 501.896741,295.474202 C537.940753,270.695293 569.470971,242.581205 597.539724,211.191335 C631.428053,173.293312 656.010636,136.720793 685.874103,84.4526184 C688.137724,80.4907426 698.012104,63.0697774 700.54288,58.6571272 C705.844304,49.4135863 709.896804,42.603134 713.70789,36.62594 C723.776771,20.8342063 732.097157,10.9998208 741.750583,5.23887567 C747.427818,1.85083105 753.509858,0 759.895,0 C770.386379,0 779.973076,4.87079296 787.890878,13.3188072 C794.620194,20.4987493 800.271149,30.3649877 804.854224,42.589935 C814.03077,67.0675587 819.007965,101.206426 819.007965,142.663309 C819.007965,165.401115 811.533881,188.274638 797.262016,214.05048 C791.574055,224.323277 784.858373,235.000123 776.373354,247.495444 C772.989028,252.479315 769.387262,257.663466 764.888152,264.050891 C762.603246,267.294791 754.599741,278.599629 753.196186,280.588554 C732.459112,309.97428 721.028341,327.823965 711.519851,347.110455 C700.53199,369.397619 694.572193,389.852925 693.817033,409.828836 C700.610535,420.771433 712.561648,428.963921 730.562333,435.25163 C747.491995,441.165227 765.991649,444.634881 800.338361,449.215721 C802.380916,449.488138 802.634653,449.521738 808.04817,450.237668 C830.858642,453.254317 841.666713,454.852015 854.087451,457.278618 C870.892436,460.561758 884.69586,464.506695 896.55629,469.775134 C927.196454,483.385585 944.281006,506.203715 944.281006,539.472054 C944.281006,571.212866 936.457178,593.499881 922.069895,606.702778 C940.247878,626.019828 949.063297,653.252516 944.109263,688.100283 C939.727564,719.014702 926.96185,743.290512 908.433914,761.27935 C902.433734,767.104946 896.118592,771.984856 889.696431,776.01056 C897.948677,792.50375 902.523326,810.807456 902.523326,831.857446 C902.523326,845.14983 898.120697,858.361406 890.264218,871.459193 C884.072409,881.781756 875.86233,891.8191 866.123534,901.560616 C858.72166,908.964557 850.84908,915.789365 842.975445,921.915013 C844.226531,936.764142 843.804823,951.565312 838.996649,965.993861 Z" id="path-1"></path>
    </defs>
    <g id="Symbols" stroke="none" stroke-width="1" fill="none" fill-rule="evenodd">
        <g id="thumb-up">
            <mask id="mask-2" fill="white">
                <use xlink:href="#path-1"></use>
            </mask>
            <use id="Page-1" fill="#000000" fill-rule="nonzero" xlink:href="#path-1"></use>
        </g>
    </g>
</svg>