<?xml version="1.0" encoding="UTF-8"?>
<svg width="1024px" height="1024px" viewBox="0 0 1024 1024" version="1.1" xmlns="http://www.w3.org/2000/svg" xmlns:xlink="http://www.w3.org/1999/xlink">
    <!-- Generator: Sketch 56.3 (81716) - https://sketch.com -->
    <title>twitter</title>
    <desc>Created with Sketch.</desc>
    <defs>
        <path d="M903,212 C946.765745,184.41456 980.063626,140.977466 996,89 C955.060163,114.661563 910.162118,133.050989 862,143 C824.0324,99.8866099 769.397429,73 709,73 C592.93068,73 498.927276,172.239492 499,295 C498.927276,311.999133 500.670306,328.930088 504,345 C329.733169,335.841976 174.964137,247.699552 71,114 C53.1924635,146.367471 42.8544932,184.41456 43,225 C42.8544932,301.853243 79.9389564,369.703886 136,410 C101.877091,408.385093 69.4807771,398.302614 41,382 L41,385 C41.1114633,491.961866 113.477255,581.562762 210,602 C192.033809,607.054312 173.521629,609.654196 154,610 C140.764689,609.654196 127.541703,608.322548 115,606 C141.485942,693.738264 219.080824,757.911021 311,760 C239.095615,819.103423 148.518166,854.487217 50,854 C33.1776721,854.487217 16.4085226,853.536039 0,851 C92.9816282,914.284559 203.393555,951 322,951 C708.511592,951 919.71873,613.26867 920,320 C919.71873,310.730897 919.598521,301.155713 919,292 C960.229148,260.445327 995.931209,221.383649 1024,177 C986.314492,194.560451 945.804073,206.481872 903,212 Z" id="path-1"></path>
    </defs>
    <g id="Symbols" stroke="none" stroke-width="1" fill="none" fill-rule="evenodd">
        <g id="twitter">
            <mask id="mask-2" fill="white">
                <use xlink:href="#path-1"></use>
            </mask>
            <use id="Shape" fill="#000000" xlink:href="#path-1"></use>
            <g id="null-mask" mask="url(#mask-2)"></g>
        </g>
    </g>
</svg>