<?xml version="1.0" encoding="UTF-8"?>
<svg width="1024px" height="1024px" viewBox="0 0 1024 1024" version="1.1" xmlns="http://www.w3.org/2000/svg" xmlns:xlink="http://www.w3.org/1999/xlink">
    <!-- Generator: Sketch 56.3 (81716) - https://sketch.com -->
    <title>umbrella</title>
    <desc>Created with Sketch.</desc>
    <defs>
        <path d="M512,0 C501.975477,0 493.840177,8.12373333 494,18 L494,138 C140.667737,146.750578 43.7971912,418.349511 19,536 C14.4165485,555.349333 18.7066928,573.872356 31,588 C42.9072144,603.693511 61.9276149,612.431644 83,612 L494,612 L494,910 C493.840177,952.809244 458.788785,987.784533 416,988 C372.59796,987.784533 337.557978,952.820622 338,910 L338,869 C337.557978,858.692267 329.411268,850.579911 319,851 C309.352561,850.579911 301.205851,858.692267 301,869 L301,910 C301.217261,972.788622 352.584893,1024 416,1024 C478.824672,1024 530.169484,972.788622 530,910 L530,612 L941,612 C962.082046,612.431644 981.102447,603.682133 993,588 C1005.30297,573.8496 1009.5817,555.349333 1005,536 C980.18965,418.349511 883.319104,146.761956 530,138 L530,18 C530.169484,8.12373333 522.034184,0 512,0 Z M969,544 C971.53647,554.086071 967.943701,561.292054 965,565 C959.115754,572.163639 950.390457,576 941,576 L82,576 C72.614193,576 63.8774906,572.163639 58,565 C55.0609488,561.292054 51.4567739,554.086071 54,544 C77.5642307,432.233242 169.961132,173 512,173 C853.020707,173 945.429014,432.233242 969,544 Z" id="path-1"></path>
    </defs>
    <g id="Symbols" stroke="none" stroke-width="1" fill="none" fill-rule="evenodd">
        <g id="umbrella">
            <mask id="mask-2" fill="white">
                <use xlink:href="#path-1"></use>
            </mask>
            <use id="80" fill="#000000" fill-rule="nonzero" xlink:href="#path-1"></use>
        </g>
    </g>
</svg>