<?xml version="1.0" encoding="UTF-8"?>
<svg width="1024px" height="1024px" viewBox="0 0 1024 1024" version="1.1" xmlns="http://www.w3.org/2000/svg" xmlns:xlink="http://www.w3.org/1999/xlink">
    <!-- Generator: Sketch 56.3 (81716) - https://sketch.com -->
    <title>wahl-o-meter</title>
    <desc>Created with Sketch.</desc>
    <g id="Symbols" stroke="none" stroke-width="1" fill="none" fill-rule="evenodd">
        <g id="wahl-o-meter" fill="#000000" fill-rule="nonzero">
            <path d="M464.753216,550.719743 C476.059055,564.763208 493.017814,573.879142 512.434364,573.879142 C546.351882,573.879142 573.879142,546.284964 573.879142,512.284994 C573.879142,494.299503 566.014211,478.285025 553.725255,466.951701 C552.25058,465.227065 550.530127,463.256053 548.318115,461.531416 C548.318115,461.531416 259.036098,245.951899 252.645841,251.61856 C246.255584,257.285222 462.295425,547.763224 462.295425,547.763224 C462.786983,548.74873 464.015879,549.734236 464.753216,550.719743 Z" id="Shape"></path>
            <path d="M512.492308,0 L512,275.692308 L551.384615,275.692308 L551.384615,42.5846154 C792.123077,63.0153846 982.892308,265.353846 982.892308,511.507692 C982.892308,771.2 771.938462,982.646154 512.246154,982.646154 C252.553846,982.646154 41.3538462,771.446154 41.3538462,511.753846 C41.3538462,381.784615 94.2769231,264.123077 179.446154,178.953846 L150.153846,149.907692 C57.3538462,242.707692 0,370.707692 0,512 C0,794.830769 229.169231,1024 512,1024 C794.830769,1024 1024,794.830769 1024,512 C1024,229.169231 795.076923,0 512.492308,0 Z" id="Shape"></path>
        </g>
    </g>
</svg>