<?xml version="1.0" encoding="UTF-8"?>
<svg width="1024px" height="1024px" viewBox="0 0 1024 1024" version="1.1" xmlns="http://www.w3.org/2000/svg" xmlns:xlink="http://www.w3.org/1999/xlink">
    <!-- Generator: Sketch 56.3 (81716) - https://sketch.com -->
    <title>water-drop</title>
    <desc>Created with Sketch.</desc>
    <defs>
        <path d="M512,1024 C727.040133,1024 902,849.123556 902,634 C902,424.834844 597.112227,51.5527111 584,36 C565.148186,12.6862222 539.535974,0 512,0 C484.464026,0 458.851814,12.6862222 440,36 C426.899156,51.5640889 122,424.834844 122,634 C122,849.123556 296.959867,1024 512,1024 Z M468,59 C479.808862,44.0136788 495.505744,36 512,36 C528.494256,36 544.191138,44.0136788 556,59 C559.23873,62.3290328 866,437.731183 866,634 C866,829.297287 707.185829,988 512,988 C316.814171,988 158,829.297287 158,634 C158,437.731183 464.738488,62.3290328 468,59 Z M530,852 C636.277576,843.197095 721.211796,758.293789 730,652 C730.754071,642.14032 722.579864,634 713,634 C702.537668,634 694.488869,642.14032 693,652 C684.969395,738.262218 616.269582,806.976093 530,815 C520.140005,816.495935 512,824.522244 512,835 C512,844.588018 520.117203,852.773942 530,852 Z" id="path-1"></path>
    </defs>
    <g id="Symbols" stroke="none" stroke-width="1" fill="none" fill-rule="evenodd">
        <g id="water-drop">
            <mask id="mask-2" fill="white">
                <use xlink:href="#path-1"></use>
            </mask>
            <use id="Shape" fill="#000000" fill-rule="nonzero" xlink:href="#path-1"></use>
            <g id="null-mask" mask="url(#mask-2)"></g>
        </g>
    </g>
</svg>