<?xml version="1.0" encoding="UTF-8"?>
<svg width="1024px" height="1024px" viewBox="0 0 1024 1024" version="1.1" xmlns="http://www.w3.org/2000/svg" xmlns:xlink="http://www.w3.org/1999/xlink">
    <!-- Generator: Sketch 56.3 (81716) - https://sketch.com -->
    <title>youtube</title>
    <desc>Created with Sketch.</desc>
    <g id="Symbols" stroke="none" stroke-width="1" fill="none" fill-rule="evenodd">
        <g id="youtube" fill="#000000">
            <path d="M261.207877,737.983833 L261.89333,572.045246 L293.130394,571.720068 L324.334816,571.329854 L323.97577,545.770824 L323.584082,520.179276 L233.430719,519.82158 L143.342636,519.463883 L143.342636,545.413127 L143.342636,571.329854 L173.828966,571.720068 L204.315295,572.045246 L204.674342,736.618084 C204.837545,827.115259 205.294513,901.971349 205.65356,902.914367 C206.143169,904.247599 212.475447,904.572777 233.398078,904.280117 L260.522425,903.92242 L261.207877,737.983833 Z M781.205429,726.309925 C779.932445,722.993105 781.695038,684.65456 783.39235,679.094008 C787.341864,666.021832 795.7305,659.648333 808.949947,659.648333 C819.949833,659.648333 826.934923,663.875654 831.635171,673.370866 C834.605467,679.386668 834.899232,681.955578 835.356201,704.197787 L835.813169,728.423586 L808.884666,728.423586 C785.742474,728.423586 781.890882,728.130925 781.205429,726.309925 L781.205429,726.309925 Z M831.471968,905.093063 C857.845581,897.711511 876.091681,879.761658 882.97885,854.430253 C884.121271,850.105379 885.459536,837.781114 885.916505,827.082741 L886.699879,807.637067 L861.305485,807.637067 L835.87845,807.637067 L835.258279,825.066635 C834.540185,844.870005 832.483827,851.666236 825.237612,858.007217 C817.534428,864.738411 803.368403,865.226179 794.163751,859.047788 C783.196506,851.666236 780.487336,839.211899 781.042226,798.759694 L781.433913,770.078951 L834.017936,769.753772 L886.601958,769.363558 L885.916505,726.700139 C885.067849,679.094008 884.088631,671.875045 876.059041,654.965763 C860.750595,622.935681 818.350443,606.77431 783.131225,619.553825 C756.561769,629.211626 740.861636,646.608676 734.561998,673.533455 C732.342437,683.028667 732.081312,691.548344 732.081312,761.201578 C732.081312,846.625969 732.375077,850.105379 741.122761,867.599982 C756.757613,898.719564 795.893704,914.978489 831.471968,905.093063 L831.471968,905.093063 Z M623.257519,856.44636 C626.48894,854.267664 628.610579,851.243504 630.27525,846.528416 C632.39689,840.317506 632.592734,832.415669 632.298968,759.152953 C632.005203,682.801042 631.842,678.313579 629.361313,673.30583 C622.996394,660.526315 606.969855,659.290637 592.281581,670.476777 L587.450771,674.118777 L587.450771,761.201578 L587.450771,848.28438 L592.24894,851.926379 C603.118263,860.185912 615.032086,861.909359 623.257519,856.44636 L623.257519,856.44636 Z M655.082114,905.613349 C663.079063,903.304581 672.740683,893.841887 677.081885,884.184086 C685.437881,865.681429 685.470521,865.226179 685.470521,761.201578 C685.470521,675.809705 685.209396,665.273921 683.087757,656.038852 C676.200588,626.480127 661.185908,613.57054 635.922076,615.456576 C621.788692,616.562183 610.658244,622.155253 597.308235,634.999803 C591.498206,640.560356 586.308349,645.145372 585.720818,645.145372 C585.198568,645.145372 584.708959,616.854843 584.708959,582.320887 L584.708959,519.496401 L560.032658,519.496401 L535.356358,519.496401 L535.356358,712.034589 L535.356358,904.605295 L560.032658,904.605295 L584.708959,904.605295 L584.708959,891.630673 C584.708959,883.013443 585.231209,878.656051 586.243068,878.656051 C587.059083,878.656051 592.607987,883.20855 598.581218,888.80162 C617.773897,906.783991 634.387967,911.726704 655.082114,905.613349 L655.082114,905.613349 Z M392.423128,904.345152 C402.280592,900.703153 413.868009,892.703762 423.627551,882.818336 C428.099314,878.265837 432.571078,874.558802 433.550296,874.558802 C434.855921,874.558802 435.312889,878.265837 435.312889,889.582049 L435.312889,904.605295 L459.98919,904.605295 L484.665491,904.605295 L484.665491,761.884453 L484.665491,619.196128 L459.98919,619.196128 L435.312889,619.196128 L435.312889,729.26905 L435.312889,839.374489 L424.67205,849.877754 C416.250773,858.234842 412.725587,860.771234 407.50309,862.202019 C398.690125,864.640858 393.07594,862.94993 389.452833,856.73902 C386.711021,852.121486 386.64574,849.975308 386.254053,735.61003 L385.895006,619.196128 L361.218705,619.196128 L336.607686,619.196128 L336.607686,742.796475 C336.607686,877.452891 336.738248,880.379497 344.31087,893.354119 C352.601584,907.531902 371.990106,911.986847 392.423128,904.345152 L392.423128,904.345152 Z M413.378399,1023.42552 C381.325321,1022.87271 343.396932,1021.99473 329.067705,1021.47445 C232.875828,1018.02755 166.843875,1014.35304 153.657069,1011.68657 C134.856078,1007.9145 113.835525,995.232542 101.627937,980.306849 C82.1088525,956.40623 71.6638574,927.400308 66.6045629,882.7533 C54.8865841,778.956324 55.147709,657.89237 67.3226563,557.737392 C72.6757163,513.838295 85.9604444,482.133392 108.253981,460.021254 C120.983819,447.371811 133.224047,440.347955 149.511711,436.18567 C184.828851,427.178226 461.164252,420.024299 629.263391,423.731334 C726.369205,425.877512 831.276124,430.364975 859.151205,433.519207 C895.219079,437.616456 920.548192,456.216666 938.076199,491.498533 C951.328287,518.130651 955.538925,538.87704 960.924626,602.807132 C965.135264,653.404906 966.179764,684.94722 965.396389,743.381796 C964.515093,813.295173 960.043329,874.883981 953.352004,909.450455 C946.301633,946.000518 929.654922,977.152618 908.079479,994.029382 C891.465408,1007.06904 873.741557,1012.88973 845.833836,1014.45059 C837.543121,1014.93836 827.065486,1015.58872 822.528441,1015.94641 C806.469261,1017.18209 720.363333,1020.62898 673.132371,1021.96221 C602.95506,1023.91329 480.161087,1024.59616 413.378399,1023.42552 Z M326.779178,389.153915 C325.604116,387.235362 325.799959,274.886192 326.975021,258.984963 C328.50913,238.596271 325.049225,222.532454 310.360951,181.494927 C305.595422,168.195127 296.978301,142.375954 291.233554,124.165958 C249.682058,-7.49881525 251.868979,0.207915128 255.851133,0.175397279 C283.236605,-0.0522276691 317.019636,0.110361579 317.411323,0.500575776 C317.672448,0.760718573 326.550694,32.8883541 337.158892,71.9422916 C347.79973,110.963711 356.645336,143.449043 356.87382,144.164436 C357.069663,144.814793 363.30402,122.084816 370.713438,93.6316973 C386.217728,33.9289253 394.932771,0.988343521 395.259177,0.695682874 C395.94463,0.04532588 403.647813,-0.0847455188 428.879005,0.04532588 L456.786726,0.207915128 L456.166554,4.66286054 C455.676945,8.27234185 436.614829,72.0073273 416.671417,136.750366 C414.517136,143.904293 408.935592,162.341914 404.333266,177.755374 C399.73094,193.136317 394.182037,211.411349 391.962475,218.370169 L387.94768,231.05213 L387.94768,310.135541 C387.94768,384.308756 387.784477,389.283987 385.564916,389.869308 C380.538262,391.235058 327.660474,390.584701 326.779178,389.153915 Z M687.457914,393.901521 C673.683577,392.080522 665.621346,386.780112 660.105083,375.886633 C653.185274,362.229136 653.185274,362.294172 653.185274,226.206971 L653.185274,99.2247675 L680.995073,99.2247675 L708.772232,99.2247675 L709.359763,216.289026 C709.979935,343.433819 709.816732,340.474694 717.454634,342.393248 C724.472365,344.116694 732.24083,340.377141 741.902451,330.55675 L751.172384,321.159092 L751.531431,210.175671 L751.857837,99.2247675 L779.634996,98.8345533 L807.412154,98.5093748 L807.412154,243.831645 L807.412154,389.186433 L803.625844,389.966862 C799.088799,390.909879 756.982412,390.844844 753.587789,389.869308 C751.531431,389.316505 751.205025,387.430469 751.205025,376.049222 L751.205025,362.846975 L743.305997,370.521188 C725.157818,388.113344 705.573452,396.307842 687.457914,393.901521 L687.457914,393.901521 Z M547.49498,338.393552 C557.026038,331.174589 557.091319,330.55675 557.580928,248.839394 C558.005256,185.332033 557.776772,174.536107 555.850976,165.886359 C553.239727,154.179933 548.670042,148.651899 539.726515,146.21306 C528.171739,143.156382 517.596182,149.724988 513.875152,162.309396 C511.06806,171.999715 511.1007,316.053789 513.940433,325.744108 C516.094714,333.028107 522.981882,340.99498 528.073817,342.100587 C534.699861,343.498854 542.827373,341.937998 547.527621,338.393552 L547.49498,338.393552 Z M525.723693,393.836486 C500.851549,390.844844 478.003122,376.276847 467.003237,356.375923 C455.807508,336.117303 454.763008,325.516484 455.41582,236.287504 C455.93807,167.187073 456.133914,162.862199 458.875725,152.944255 C465.436487,129.368814 478.133685,113.304996 497.815972,103.582159 C524.842397,90.2823588 553.990461,92.0058048 579.482777,108.459837 C595.737801,118.898067 605.595265,134.051384 610.883044,156.586254 C613.200527,166.536716 613.429011,174.178411 613.429011,243.961716 C613.429011,328.833304 613.037324,333.7435 604.289641,352.116085 C595.901004,369.838313 576.904169,385.446881 557.091319,390.942397 C548.343636,393.3162 533.165752,394.746986 525.723693,393.836486 L525.723693,393.836486 Z" id="Shape"></path>
        </g>
    </g>
</svg>